<?xml version="1.0" encoding="UTF-8"?>
<svg id="_レイヤー_2" data-name="レイヤー 2" xmlns="http://www.w3.org/2000/svg" xmlns:xlink="http://www.w3.org/1999/xlink" viewBox="0 0 750 252.1822669">
  <defs>
    <style>
      .cls-1 {
        clip-path: url(#clippath);
      }

      .cls-2 {
        fill: none;
      }

      .cls-3 {
        fill: #ae8f36;
      }
    </style>
    <clipPath id="clippath">
      <rect class="cls-2" width="750" height="252.1822669"/>
    </clipPath>
  </defs>
  <g id="_レイヤー_1-2" data-name="レイヤー 1">
    <g class="cls-1">
      <g>
        <path class="cls-3" d="m345.2209086,82.9227152c-.3193359,1.0493164-.8896484,2.7373047-1.3007812,3.4902344-.6386719.159668-2.5546875.6157227-4.1972656.6157227-5.6796875,0-8.1660156-3.9238281-8.1660156-7.5507812,0-4.7900391,3.6953125-7.9609375,8.7822266-7.9609375,1.8476562,0,3.3984375.5019531,4.0380859.6157227.1816406,1.300293.3193359,2.2124023.4560547,3.4448242l-.6845703.1591797c-.5927734-2.4179688-1.9619141-3.3984375-4.4257812-3.3984375-3.8095703,0-5.8398438,3.2163086-5.8398438,6.6835938,0,4.265625,2.5097656,7.1855469,5.9765625,7.1855469,2.3271484,0,3.5585938-1.2543945,4.6992188-3.5356445l.6621094.2509766Z"/>
        <path class="cls-3" d="m359.2462992,81.5311136c0,3.6728516-2.6923828,5.4291992-4.9501953,5.4291992-3.125,0-4.9960938-2.5092773-4.9960938-5.0410156,0-3.7646484,2.9199219-5.4750977,4.9960938-5.4750977,2.828125,0,4.9501953,2.2583008,4.9501953,5.0869141Zm-7.8251953-.3422852c0,2.8745117,1.2548828,5.0185547,3.1259766,5.0185547,1.4140625,0,2.5771484-1.0488281,2.5771484-4.1743164,0-2.6689453-1.0722656-4.8364258-3.0566406-4.8364258-1.4140625,0-2.6464844,1.4145508-2.6464844,3.9921875Z"/>
        <path class="cls-3" d="m370.0099711,86.6868753v-.5932617c1.3457031-.137207,1.5058594-.3193359,1.5058594-1.8935547v-3.8095703c0-1.5737305-.5478516-2.6005859-2.0761719-2.6005859-.9121094,0-1.8017578.5703125-2.4863281,1.1635742v5.3608398c0,1.5512695.1367188,1.6420898,1.4824219,1.7792969v.5932617h-4.9501953v-.5932617c1.5517578-.159668,1.6650391-.2739258,1.6650391-1.7792969v-4.722168c0-1.4599609-.1367188-1.5283203-1.3681641-1.7568359v-.5244141c1.0947266-.2050781,2.1669922-.4790039,3.1708984-.9355469v1.8251953c.4560547-.3417969.9580078-.6845703,1.5283203-1.0722656.6386719-.4101562,1.2314453-.684082,1.8935547-.684082,1.8017578,0,2.9423828,1.2773438,2.9423828,3.4672852v4.402832c0,1.5512695.1142578,1.6420898,1.4375,1.7792969v.5932617h-4.7451172Z"/>
        <path class="cls-3" d="m383.2843851,86.6639261c-.3876953.2050781-.7529297.2963867-.9580078.2963867-1.4375,0-2.2363281-.9121094-2.2363281-2.7148438v-6.6376953h-1.5732422l-.0917969-.2285156.6162109-.6611328h1.0488281v-1.6655273l1.4833984-1.5053711.3193359.0454102v3.1254883h2.5771484c.2060547.2275391.1376953.7294922-.1367188.8896484h-2.4404297v5.8623047c0,1.8476562.7529297,2.1899414,1.3232422,2.1899414s1.0947266-.2280273,1.4140625-.3876953l.2050781.5932617-1.5507812.7983398Z"/>
        <path class="cls-3" d="m395.6681742,86.9603128c-.3417969,0-.8212891-.2050781-1.0722656-.4335938-.296875-.3193359-.4335938-.6386719-.546875-1.0263672-.9130859.6162109-2.0078125,1.4599609-2.6923828,1.4599609-1.6191406,0-2.7373047-1.3457031-2.7373047-2.7832031,0-1.1176758.5927734-1.824707,1.8476562-2.2578125,1.3691406-.456543,3.0341797-1.0722656,3.5361328-1.4833984v-.4101562c0-1.6425781-.7753906-2.578125-1.9160156-2.578125-.4570312,0-.7988281.1826172-1.0273438.456543-.2958984.2963867-.5009766.7983398-.6835938,1.5053711-.0917969.3652344-.3427734.5249023-.6621094.5249023-.4101562,0-1.0039062-.456543-1.0039062-.980957,0-.3422852.296875-.5932617.7304688-.9125977.6386719-.456543,2.1210938-1.3461914,3.421875-1.5966797.6845703,0,1.3681641.2050781,1.8701172.6157227.7988281.6616211,1.0273438,1.5966797,1.0273438,2.7832031v4.2431641c0,1.0263672.4101562,1.3681641.7978516,1.3681641.2734375,0,.5927734-.1137695.8212891-.2504883l.2285156.5932617-1.9394531,1.1630859Zm-1.6650391-5.7485352c-.4794922.2509766-1.5742188.7299805-2.0537109.9580078-.8896484.4106445-1.390625.8442383-1.390625,1.6655273,0,1.1860352.9121094,1.7563477,1.6191406,1.7563477.5927734-.0229492,1.3916016-.4106445,1.8251953-.8212891v-3.5585938Z"/>
        <path class="cls-3" d="m409.7863383,84.6336527c-1.0039062,1.3227539-2.5322266,2.3266602-3.8779297,2.3266602-2.875,0-4.5625-2.3266602-4.5625-4.7675781,0-1.7568359.7529297-3.2851562,2.28125-4.4711914,1.1855469-.9125977,2.5546875-1.2773438,3.4443359-1.2773438.9121094,0,1.6650391.2963867,2.0302734.5932617.296875.2509766.3652344.4560547.3652344.7070312,0,.4790039-.5019531.9804688-.7529297.9804688-.1142578,0-.2285156-.0683594-.4335938-.2504883-.6845703-.6391602-1.4824219-.9350586-2.28125-.9350586-1.5058594,0-2.8291016,1.2543945-2.8291016,3.6494141,0,3.1708984,2.1679688,4.2202148,3.4453125,4.2202148.9804688,0,1.7333984-.2739069,2.7832031-1.2543945l.3876953.4790039Z"/>
        <path class="cls-3" d="m418.1095804,86.6639261c-.3876953.2050781-.7529297.2963867-.9580078.2963867-1.4375,0-2.2363281-.9121094-2.2363281-2.7148438v-6.6376953h-1.5732422l-.0917969-.2285156.6162109-.6611328h1.0488281v-1.6655273l1.4833984-1.5053711.3193359.0454102v3.1254883h2.5771484c.2060547.2275391.1367188.7294922-.1367188.8896484h-2.4404297v5.8623047c0,1.8476562.7529297,2.1899414,1.3232422,2.1899414s1.0947266-.2280273,1.4140625-.3876953l.2050781.5932617-1.5507812.7983398Z"/>
      </g>
      <g>
        <path d="m187.6852386,144.6448832c-.078125-.7021484.5068359-1.3261719,1.3652344-1.5991211.8964844-.2338867,2.1054688-.1171875,2.9238281.2338867.6640625-.2729492,1.4433594-.7802734,2.0292969-1.1308594.4667969-.2734375,1.6767578-.9360352,2.9628906-1.7163086-.0380859-1.3256836-.0771484-3.0029297-.1162109-4.8359375,0-.5463867,0-1.0532227-.0390625-1.5600586-.8193359.2338867-1.5595703.4287109-2.0673828.5068359-.8183594.1171875-1.7939453.078125-2.6914062-.2729492-.7011719-.3120117-1.3642578-.9360352-1.6376953-1.1313477-.2333984-.2333984-.4677734-.6625977-.1552734-.9355469.3115234-.3125.6621094-.1953125,1.0136719.0390625.3505859.2724609.7402344.5068359,1.5214844.8188477.7402344.2729492,1.5205078.2729492,2.1835938.1166992.5458984-.1557617,1.0527344-.3505859,1.7939453-.7016602-.0390625-1.1704102-.1171875-2.105957-.1171875-2.6132812-.0390625-.8579102-.2333984-1.949707-.3896484-2.769043-.1953125-.7802734-.7412109-1.4819336-1.2871094-1.7939453-.5078125-.3120117-.3515625-.7412109-.15625-.9750977.15625-.2338867.5078125-.3120117,1.1308594-.1948242.5859375.1557617,1.3652344.6630859,1.7167969,1.0136719.3505859.3120117.6621094.9750977.7402344,1.5991211,0,.1557617.0390625.3901367.0390625.7021484.6630859.4682617,1.4824219.8579102,2.1455078,1.2089844.7802734.3901367,1.5205078.3901367,2.1064453.4291992.5449219.0390625.8183594.2338867.9746094.7797852.15625.5849609-.1953125,1.2871094-1.0136719,1.7944336-.8974609.5458984-2.2626953,1.2089844-3.8222656,1.7158203-.0390625.0390625-.1171875.0390625-.1953125.078125,0,.8579102.0390625,1.6767578.0390625,2.2226562v3.7050781c1.6386719-1.0527344,3.6660156-2.1835938,5.8886719-2.9638672,2.3017578-.7802559,4.6806641-.5458984,6.3964844.3120117,1.5996094.7412109,2.8085938,2.262207,2.8867188,3.9780273.078125,1.7163086-.5859375,3.1982422-2.0283203,5.109375-1.4824219,1.9111328-3.2763672,2.8081055-5.4599609,3.0810547-1.9501953.234375-3.3544922-.6240234-3.6660156-1.9892578-.2734375-1.3647461-.234375-2.8076172.1171875-4.2119141.3886719-1.4042969.8964844-2.4960938,1.2861328-2.9638672.3896484-.5073242.8583984,0,.5849609.4287109-.3115234.4291992-.6230469.9750977-.9355469,2.5742188-.3515625,1.5600586.078125,3.7441406,1.4433594,4.0952148,1.4033203.3120117,3.0019531-.2729492,4.3671875-1.4819336,1.3652344-1.2480469,2.0283203-2.7304688,2.1064453-3.9785156.078125-1.1699219-.2724609-2.2617188-1.1699219-2.9638672-.8583984-.7412109-2.3789062-1.0922852-3.9384766-.9750977-1.5996094.1557617-3.5498047.7797852-5.265625,1.7548828-.8583984.5073242-1.7558594,1.0532227-2.6132812,1.5991211v2.3398438c0,.8193359.0390625,1.7163086.15625,2.4960938.15625.7802734-.15625,1.4433594-.4296875,1.9892578-.2724609.5849609-.7011719,1.0532227-.9746094,1.2480469-.3125.1953125-.5849609.15625-.8193359.15625-.2724609,0-.4677734-.078125-.6240234-.3120117-.15625-.15625-.5458984-.7021484-1.0527344-1.5209961-.4296875-.6630859-1.0136719-1.5991211-1.9111328-2.4179688-.1943359.1557617-.4677734.3115234-.6630859.3896484-.9746094.5458984-1.8720703.7021484-2.8867188.6630859-1.0136719-.078125-1.7148438-.5068359-1.7929688-1.1699219Zm1.3652344-.5068359c.0771484.1557617.3505859.2333984.7011719.1557617.4296875-.0390625.7412109-.1557617,1.2871094-.4291992-1.2089844-.3505859-2.1054688,0-1.9882812.2734375Zm4.875,0c.6621094.3505859,1.2089844.7016602,1.7158203,1.0136719.6630859.4677734.9365234.6240234,1.0917969.5458984.3115234-.1166992.3505859-.5068359.3505859-.9355469,0-.4682617,0-1.6386719-.0390625-2.8867188-.3505859.234375-.7011719.5073242-1.0136719.7412109-.8183594.5849609-1.5214844,1.1308594-2.1054688,1.5214844Zm4.5625-15.5620117c.0390625.7802734.078125,1.6381836.078125,2.3012695,0,.2338867.0390625.5068359.0390625.7412109.5849609-.2734375,1.0527344-.5849609,1.4824219-.8583807.3896484-.2339044.4677734-.5849786-.078125-.8969904-.390625-.2338867-.9355469-.7407227-1.5214844-1.2871094Zm17.1992188,4.0561523c-.5058594.3901367-1.4814453.4291992-2.0664062-.3120117-.5068359-.6625977-.8964844-1.1308594-1.8330078-1.6381836-.8583984-.4677734-1.7158203-.5068359-2.3789062-.3115234-.6240234.1948242-1.0927734.3505859-1.4433594.7407227-.1943359.2338867-.3896484.3510742-.6240234.1948242-.078125-.1166992-.15625-.3115234,0-.6240234.234375-.4287109.6630859-.9746094,1.6777344-1.5205078.9746094-.5073242,2.2226562-.5073242,3.7050781-.15625,1.2871094.2729492,2.3398438.9360352,2.8857422,1.7158203.5068359.7412109.5849609,1.4824219.0771484,1.9111328Z"/>
        <path d="m229.1813324,122.6087503h7.2539062l1.2089844-1.5209961c1.2871094,1.0141602,1.9501953,1.6772461,1.9501953,1.9501953,0,.1557617-.078125.3120117-.2724609.4291992l-.6640625.5458984v9.90625h-1.9882812v-1.7548828h-7.8398438v20.2416992h-2.1054688v-31.0063477c.6621094.2734375,1.3261719.5849609,1.9882812.9360352l.46875.2729492Zm-.3515625.8583984v3.3930664h7.8398438v-3.3930664h-7.8398438Zm0,7.8388672h7.8398438v-3.5878906h-7.8398438v3.5878906Zm15.6005859,5.7333984l1.2480469-1.5209961c1.4042969.9750977,2.1064453,1.6772461,2.1064453,2.0668945,0,.15625-.078125.3125-.3125.4682617l-.7792969.4682617v8.6191406h-1.9511719v-1.7548828h-8.6191406v2.1445312h-1.9492188v-11.5048828c.8964844.3115234,1.7158203.6240234,2.4960938,1.0136719h7.7607422Zm-8.3076172.8583984v6.5908203h8.6191406v-6.5908203h-8.6191406Zm16.3027344-15.2890625l1.3261719-1.5986149c1.3652344,1.0917789,2.0283203,1.7939274,2.0283203,2.1059391,0,.1557617-.078125.3120117-.2724609.4291992l-.7421875.5458984v25.3505859c0,1.2480469-.4667969,2.0283203-1.3642578,2.340332-.6240234.2338867-1.3652344.3510742-2.1845703.3901367,0-.5849609-.2734375-1.0532227-.7792969-1.3261719-.546875-.2729492-1.9121094-.5849609-4.0957031-.8969727v-.9360352c1.9892578.1557617,3.7050781.2729492,5.1875.2729492.7402344,0,1.1308594-.3510742,1.1308594-1.0532227v-16.0683594h-8.2294922v1.6376953h-1.9892578v-12.2070312c1.0527344.3896484,1.8339844.7407227,2.4179688,1.0136719h7.5664062Zm-7.9951172.8583984v3.3930664h8.2294922v-3.3930664h-8.2294922Zm8.2294922,7.8388672v-3.5878906h-8.2294922v3.5878906h8.2294922Z"/>
        <path d="m266.3082855,126.8987894c.234375-.4287109,1.0537109-.1166992,1.4433594.078125.4296875.234375,1.0527344.6240234,1.6386719,1.4824219.5458984.8579102.5839844,2.2617188.4677734,3.8608398-.078125,1.6381836-.1171875,3.314959-.078125,5.6552734,0,2.3793945.5849609,3.5493164,1.0146484,4.0561523.4277344.5458984,1.2089844,1.0141602,1.8320312,1.2480469.5859375.234375,1.4824219.1953125,1.7949219.1171875.3115234-.0390625.3896484-.3510742.4287109-.5068359,0-.1953125.078125-.5854492.2333984-.9365234.234375-.5849609.6640625-1.1699219,1.0537109-1.5595703.2724609-.2734375.6240234-.3515625.7021484-.234375.15625.078125.1953125.3120117,0,.5458984-.1953125.2734375-.46875.8193359-.5078125,1.4824219s.15625,1.6376953.5078125,2.0668945c.3115234.4291992.7402344.9360352.6230469,1.5600586-.1162109.5458984-.9746094.6630859-1.9492188.6240234-1.5996094-.1171875-3.0810547-.5849609-4.3291016-1.6381836-1.2871094-1.0141602-2.4580078-2.769043-2.8085938-4.0561523s-.5458984-3.1982422-.5849609-4.875c-.0390625-1.7158203-.078125-4.3291016-.078125-5.5380859-.0390625-1.2089844-.4287109-1.8720703-.8183594-2.2231445-.3515625-.3120117-.7021484-.8969727-.5859375-1.2094727Zm20.1640625,3.8222656c.0390625-.3115234.2734375-.3896484.8974609-.3115234.7021484.0385742,1.9501953.2333984,2.8857422.8188477,1.5214844.9360352,2.2617188,1.9887695,2.7304688,3.0419922.4287109,1.0141602.5068359,2.612793.3896484,3.4321289-.0771484.8193359-.5849609,1.1699219-1.2871094,1.1308594-.6630859,0-1.2480469-.3505859-1.4423828-.9355469-.1953125-.5854492.0390625-1.7553711.078125-3.003418.0390625-1.2871094-.46875-2.105957-1.3261719-2.7299805-.8583984-.5458984-1.8339844-.8583984-2.3398438-.9360352-.46875-.078125-.625-.2729492-.5859375-.5073242Z"/>
        <path d="m319.6227386,123.0379496c4.2509766,4.9140625,9.2822266,8.5805664,15.171875,11.0766602-.7421875.5458984-1.3261719,1.2089844-1.7558594,1.9887695-5.7714844-3.0810547-10.4521484-7.137207-14.0019531-12.1293945-3.3925781,5.8891602-8.5019531,10.4130859-15.2880859,13.4946289l-.5458984-.7412109c6.6689453-3.8608398,11.5839844-9.1264648,14.703125-15.6782227,2.1455078.3896484,3.2373047.7797852,3.2373047,1.2089844,0,.2338867-.4677734.4677734-1.5205078.7407227v.0390625Zm6.3574219,16.8876953l1.4033203-1.6772461c1.5214844,1.2089844,2.3017578,1.9501953,2.3017578,2.2231445,0,.1171875-.078125.2338867-.3125.3901367l-.9355469.6630859v10.8422852h-2.0673828v-2.4179688h-15.3662109v2.4179688h-2.0673828v-13.5336914c.6240234.1953125,1.4814453.5849609,2.5732422,1.0922852h14.4707031Zm-2.8476562-5.8110352l1.6777344-2.1455078c.6230469.5458984,1.3642578,1.1699219,2.0664062,1.9501953l.3515625.3901367-.4296875.6630859h-15.8730469l-.46875-.8579102h12.6757812Zm-12.1289062,6.7080078v8.2294922h15.3662109v-8.2294922h-15.3662109Z"/>
        <path d="m371.4928558,134.4651957c.8583984,2.1064453.9365234,4.2124023.078125,6.5136719-.8974609,2.3398438-2.4179688,4.2509766-4.953125,5.8110352-2.5742188,1.5600586-5.265625,2.612793-6.4746094,2.9643555-1.1699219.3505859-1.7548828.5068359-1.8330078.1948242-.1171875-.3120117.6630859-.5854492,1.5214844-.9360352,2.3789062-.8583984,3.8613281-1.9111328,5.9667969-3.5102539,2.1064453-1.5600586,3.1982422-4.1342773,3.5878906-6.2402344.390625-2.105957.2734375-4.7973633-2.1835938-6.9423828-1.9501953-1.6772461-5.1484375-1.5600409-7.4492188-.6625977-2.1455078.8188477-4.2519531,1.8330078-5.8115234,3.2368164-.1552734.1166992-.2724609.2729492-.4287109.4291992v3.9780273c0,2.690918.1171875,5.0698242.2734375,6.5522461.1162109,1.4819336.1943359,2.8081055-.0390625,3.5097656-.2734375.7412109-.9365234,1.3652344-1.4042969,1.3652344-.5078125.0390625-1.2480469-.3896484-1.5214844-1.7548828-.2734375-1.4042969-.7402344-2.5351562-1.2871094-4.0561523-.3896484-1.0141602-.8183594-2.262207-1.3261719-3.4711914-.3115234.4287109-.5849609.8193359-.8574219,1.1699219-.7412109.9750977-1.0917969,1.8330078-1.2871094,2.6132812-.234375.8188477-.546875,1.6376953-1.0527344,1.6767578-.4296875.078125-.9365234-.3896484-1.3652344-1.0917969-.390625-.7021484.3505859-1.8330078.6621094-2.2231445.3515625-.3901367.9365234-1.2871094,1.5996094-2.184082.390625-.5068359.8964844-1.2480469,1.4042969-1.9501953-.5859375-1.3261719-.8974609-2.1835938-1.3261719-2.8857422-.5078125-.7802734-.7021484-1.3652344-.6240234-2.1064453.1162109-.6240234,1.0527344-1.1699219,1.9892578-1.7158203.9746094-.5849609,2.0273438-1.3261719,2.8857422-1.9501953.4677734-.3510742,1.1308594-.7802734,1.7548828-1.1308594,0-.0390625.0390625-.1171875.0390625-.15625,0-1.7158203,0-2.5742188-.3125-3.5488281-.2724609-.9750977-.7792969-1.5214844-1.3251953-1.9501953-.4287109-.3510742-.8583984-1.0141602-.5458984-1.3652344.3505859-.5068359,1.5595703-.2338867,2.3789062.3510742.8964844.6240234,1.3652344,1.4428711,1.6767578,2.4960938.234375.7412109,0,2.027832-.1162109,3.7050781.3896484.15625.7402344.6630859,1.0136719,1.2094727.3505859.7407227.1171875,1.6376953-.546875,2.690918,1.5214844-1.2094727,3.5888672-2.262207,4.5253906-2.6132812,2.3007812-.8188477,3.8603516-1.2871094,6.7070312-.7016602,3.3164062.7016602,5.03125,2.2226562,6.0068359,4.6796875Zm-23.4404297,4.0175781c.1171875-.15625.1953125-.3125.3125-.3901367.6630859-.8188477,2.5351562-3.1982422,2.9648438-3.7441406.4667969-.5463867.1552734-1.4428711-.234375-1.1704102-.390625.234375-2.1064453,1.0532227-2.7695312,1.4042969-.6240234.3120117-1.2089844.6240234-1.3652344.8579102s-.15625.6240234.390625,1.6381836c.1953125.3510742.4677734.8579102.7011719,1.4042969Zm3.8222656,6.980957c0-.3510742-.0390625-.9750977-.0390625-1.5991211v-3.7832031c0-.7407227-.0390625-1.9111328-.0390625-3.0419922-.6230469.6630859-1.1699219,1.3261719-1.7539062,2.0283203-.390625.4287109-.78125.8969727-1.0927734,1.3647461.234375.4682617.4287109.8969727.6240234,1.3261719.6630859,1.5991211,1.4042969,3.3149414,1.6777344,3.7441406.2333984.3901367.6230469.3510742.6230469-.0390625Z"/>
        <path d="m411.8971527,132.3983011c.3505859.5073242,0,1.1699219-1.0146484,1.4819336-1.0527344.3120117-2.7294922.15625-3.7441406.078125-1.0136719-.0390625-2.0664062-.078125-3.8222656-.078125-.3115234,0-.6230469.0390625-.9355469.0390625-.078125,1.4433594-.1953125,3.2373047-.1953125,3.4711914,0,.2729492.0390625,1.4819336-.15625,1.9111328-.1552734.4682617-.6621094,1.0922852-1.4423828,1.7548828-.7802734.6630859-1.3652344.8579102-1.8330078.4682617-.390625-.3510742-.6630859-1.2871094-.9355469-1.8720703-.2734375-.6240234-.859375-1.2480469-1.2871094-1.5600586-.3515625-.2729492-.5859375-.5854492-.5859375-.8188477.0390625-.234375.390625-.390625.8583984-.1953125.4287109.2338867,1.5595703.9750977,1.8720703,1.2480469s.5849609.3901367.8574219.15625c.2734375-.234375.625-.5849609.8193359-1.3652344.15625-.5849609.234375-1.7939453.3125-3.1201172-1.2480469.078125-2.5351562.15625-3.5107422.2338867-1.6376953.078125-4.0947266.3901367-5.4208984.4682617,0,0-.078125,0-.1552734.0390625-.0390625.6240234-.0390625,1.1699219-.078125,1.4819336-.0390625.8188477-.390625,3.7827148-.390625,5.0307617,0,1.2871094.5068359,2.8867188,1.2871094,3.7832031.7412109.8583984,2.4179688,1.4824219,3.7050781,1.6381836,1.3261719.15625,3.0029297.2338867,4.0566406.15625,1.0527344-.078125,2.0664062.0385742,2.5742188.3120117.5449219.2729492.8964844.9360352.7011719,1.3652344-.1171875.4677734-.7792969.6240234-1.9882812.5849609-1.2480469-.0390625-2.7695312-.1171875-4.1347656-.3125-1.4042969-.1557617-2.8476562-.4677734-3.8613281-.8964844-.9746094-.4291992-2.1835938-1.2094727-2.8076172-2.1455078-.5849609-.8579102-.9755859-2.027832-1.0146484-3.1201172-.078125-1.1308594-.078125-3.4321289-.0390625-4.4072266v-3.2368164c-1.1699219.1948242-2.3789062.3901367-3.2753906.4677734-1.5605469.15625-2.9257812.1171875-3.7050781-.3510742-.8583984-.4677734-1.1308594-1.8330078-.7412109-2.1450195.2724609-.2338867.4287109-.2729492.7412109-.2729492.234375.0390625.9746094.3510742,1.5595703.5849609.5849609.234375,1.0537109.3901367,1.7939453.3510742.7412109,0,2.1845703-.0390625,3.6269531-.1557617-.0390625-.15625-.0390625-.2734375-.0390625-.3901367,0-1.1704102-.0390625-3.003418-.1943359-3.9780273-.15625-.9750977-.6240234-2.0283203-1.1318359-2.340332-.4277344-.3120117-.7792969-.7797852-.6230469-1.0922852.3896484-.7407227,1.6767578-.1557617,2.3398438.078125.7021484.234375,1.3652344.8193359,1.6386719,1.6772461.3115234.8969727.0771484,2.690918.1162109,3.8999023,0,.4682617,0,1.1704102-.0390625,1.9111328,1.5214844-.1948242,3.3935547-.4677734,4.5634766-.5458984,1.3261719-.078125,3.3144531-.4287109,4.6015625-.5849609,0-1.5600586-.078125-3.4321289-.1943359-4.1342773-.1171875-.8579102-.4677734-1.7158203-.8583984-2.2231445-.4287109-.5458984-.5849609-1.2089844-.3505859-1.5209961.2724609-.3901367.8583984-.1166992,1.4033203.078125.5078125.1948242,1.0537109.8188477,1.4433594,1.6381836.4296875.8579102.390625,1.5986328.3515625,2.3789062v.2729492c.2724609.3120117.6230469.7021484.9355469.9750977.6630859.5849609,1.5605469,1.1308594,1.9501953,1.4042969.4677734.2729492,1.1308594.4287109,1.5986328.4287109.46875-.0390625,1.6777344-.1557617,2.7304688-.1171875,1.0136719.0390625,1.7167969.5854492,2.0673828,1.1313477Zm-7.1767578-.6630859c-.7011719-.4291992-1.5986328-1.2089844-2.1835938-1.949707-.0390625.6240234-.078125,1.4038086-.078125,2.1054688.9355469-.0776367,2.2617188-.1557617,2.2617188-.1557617Z"/>
        <path d="m429.2907074,135.3235941c-.1953125.4287109-.703125,2.105957-1.1318359,3.1982422-.4287109,1.0917969-1.0527344,3.3535156-1.5595703,5.0307617-.46875,1.6381836-.234375,3.2763672-.0390625,4.0561523.234375.8583984.15625,1.9501953-.4296875,2.0673828-.6230469.078125-1.1308594-.0390625-1.7158203-1.0922852-.5458984-1.0922852-.8193359-2.8081055-.9365234-4.5629883-.1162109-1.7548828.0390625-3.4321289.1953125-4.9140625.15625-1.4824219.546875-3.1201172.8974609-4.6806641.3505859-1.5595703.5849609-3.0029297.6240234-4.4458008s-.3125-2.262207-.7021484-2.8081055c-.3505859-.5458984-.5068359-.9360352-.2333984-1.2870915.2724609-.351092.9746094-.1172053,1.3642578.3119939.3896484.3901367.8974609,1.0141602,1.3652344,2.105957.3896484.9360352.3115234,2.262207-.0390625,3.3544922-.3115234,1.0527344-.9365234,2.8466797-1.4814453,4.8359375-.5078125,2.0283203-.5078125,4.4462891-.5078125,5.109375s.46875.5458984.546875.1948242c.2724609-.7797852.8964844-2.6132812,1.4033203-3.6665039.5068359-1.0527344.8193359-1.4814453,1.5986328-3.1201172.1953125-.4287109.5078125-.7797852.78125-.6240234.1552734.078125.1552734.4682617,0,.9365234Zm19.0712891,13.4160156c-.1953125.4291992-1.0146484.4682617-1.5214844-.0776367-.5068359-.4682617-1.6376953-1.4428711-2.6904297-2.184082-.3515625-.3120117-.8193359-.5849609-1.2871094-.8583984,0,.3515625-.0390625.6240234-.0390625.8583984-.1171875,1.1699219-1.1699219,2.8857422-3.0429688,3.1982422-2.1445312.3505859-3.8994141.1948242-5.4208984-.5458984-1.5205078-.7412109-2.1455078-1.8720703-2.0283203-2.9643555.1171875-1.0141602.7421875-2.1450195,2.2626953-2.6518555,1.4814453-.5073242,2.8857422-.6630859,4.5634766-.4682617.6230469.0390625,1.2871094.1557617,1.9492188.3120117,0-.9360352-.0390625-1.9111328-.0390625-2.7304688,0-1.2866211-.078125-2.8076172-.078125-4.5629883,0-.7797852.0390625-1.7158203.0390625-2.534668-1.0917969.0385742-2.2617188,0-3.2753906-.2734375-1.0917969-.2729492-1.9892578-.7021484-2.6914062-1.4038086-.7021484-.6630859-.7402344-1.4428711-.5458984-1.5209961.3505859-.1953125.7412109.1948242,1.2871094.5458984.5068359.3510742,1.2871094.6240234,1.8330078.7412109,1.1699219.2338867,2.0664062.3896484,3.4316406.3115234.0390625-.3505859.0390625-.6630859,0-.9355469,0-1.4042969-.078125-2.7304688-.2333984-3.9394531-.15625-1.169904-.2724609-1.5600586-.7412109-2.0283203-.5068359-.5068359-.6630859-.9355469-.4287109-1.3256836.1943359-.3120117.6240234-.3901367,1.4814453-.0390625.8583984.3120117,1.5605469.8579102,1.9501953,2.0668945.3125.8193359.234375,2.0283203.078125,3.1982422.6240234.3510742,1.3261719.6240234,1.9501953.7802734.7412109.1948242,1.6777344.2338867,2.0664062.5849609.3515625.3120117.2734375,1.2871094-.6621094,1.9501953-.8193359.6240234-2.3007812.9355469-3.8222656,1.0917969-.0390625.9750977-.078125,1.9501953-.0390625,2.4960938.0390625,1.2480469.1171875,3.4321289.234375,5.4208984.0390625.8193359.0390625,1.7163086.0390625,2.5351562.4677734.15625.9746094.3125,1.4423828.5073242,1.4824219.5458984,2.6132812,1.1699219,3.4326172,2.105957.8183594.9360352.7792969,1.9111328.5458984,2.3398438Zm-7.2939453-3.9775391c-.1552734-.078125-.3896484-.15625-.5839844-.234375-1.3261719-.4677734-3.0820312-.5068359-4.2910156-.3510742-1.1699219.15625-2.4179688.7802734-2.5351562,1.9501953-.1171875,1.1313477.546875,1.7939453,2.1845703,2.1450195,1.6767578.3120117,2.7685547.078125,3.6269531-.4677734,1.0927734-.7412109,1.5986328-1.8330078,1.5986328-3.003418v-.0385742Zm2.0283203-15.171875c-.0380859.2338867-.0771484.4677734-.0771484.7412109-.078125.3896484-.078125.8188477-.15625,1.3647461.5839844-.1557617,1.0917969-.3120117,1.4814453-.4291992.3896484-.1166992.3896484-.3505859.1171875-.5068182-.1943359-.1948419-.8193359-.7021661-1.3652344-1.1699396Z"/>
        <path d="m466.7301605,143.2405863c1.0527344.8974609,2.3007812,1.3652344,3.6269531,1.7548828,2.1835938.6240234,4.8359375.9365234,6.5136719.8193359,1.6767578-.15625,3.7832031-.7802734,4.5234375-1.0527344.7021484-.3125,1.6386719-.2734375,2.1845703,0,.5458984.2333984,1.0917969.7016602,1.2089844,1.0917969.078125.4287109-.1953125.8969727-1.7158203,1.3652344-1.5605469.4287109-4.0957031.7797852-6.6308594.6630859-2.4570312-.1171875-4.3291016-.4291992-6.6298828-1.1313477-1.8330078-.5849609-3.1201172-1.2871094-3.7832031-1.9501953-.6630859-.7016602-.9365234-1.6772461-1.0537109-2.3789062-.1162109-.7412109.0390625-1.2089844.2734375-1.2089844.3515625-.0390625.546875.4291992.6630859.7797852.15625.3120117.3115234.8193359.8193359,1.2480469Zm9.828125-14.9765625c-.8574219-.0390625-1.7158203-.1557617-3.0810547-.3505859-1.3261719-.1953125-2.7294922-.4291992-3.5107422-.6630859-.7792969-.2734375-1.1699219-.8583984-.9355469-1.0922852.3125-.3510742.7802734-.2338867,1.2480469-.0390625.4296875.1557617,1.4042969.3120117,2.1835938.3120117.78125,0,1.8730469-.15625,3.0429688-.3510742,1.1699219-.1948064,2.7304688-.7797852,3.6660156-.8579102s1.2871094.1953125,1.4433594.8579102c.1953125.7021484-.4296875.9360352-1.0917969,1.2871094-.5078125.2729492-.703125.4682617-1.2480469.8969727-.46875.3510742-1.2480469.8583984-1.6777344,1.1699219-.4677734.3515625-.7412109.3515625-.8964844.234375-.234375-.1953125-.15625-.4291992,0-.6240234.1943359-.1171875.8574219-.7802734.8574219-.7802734Z"/>
        <path d="m505.8082855,130.95543c.8183594.0390625,1.3652344-.0390625,2.0664062-.15625.2734375-1.6376953.390625-3.0029297.4296875-3.9003906,0-1.013654-.3125-1.8330078-.6630859-2.2617188-.3896484-.4677734-.5458984-1.0532227-.234375-1.4042969.3505859-.3896484,1.6376953-.078125,2.2626953.5458984.6230469.6630859,1.0136719,1.5214844,1.0527344,2.4575195,0,.4677734-.15625,1.0141602-.3125,1.4428711.1171875.1171875.3125.1953125.5078125.3120117.7011719.3901367,1.8320312.8579102,2.3789062.9750977.6240234.1171875,1.3652344.2338867,1.6767578.7412109.2724609.5068359-.3115234,1.0527521-.8583984,1.2871094-.9746094.3896484-2.9248047.8188477-4.328125,1.0917969-.15625.078125-.3515625.078125-.5859375.078125-.078125.3505859-.1171875.6240234-.1171875.8579102-.1552734,1.1313477-.4287109,2.8862305-.4287109,3.8222656s.234375,1.7158203.6630859,2.262207c.2734375.3505859.5849609.4287109.8583984.1948242.3115234-.1948242,1.0917969-.6240234,2.0673828-1.1313477,1.4423828-.7407227,2.9628906-1.2089844,4.4453125-1.4819336,1.4433594-.3120117,3.2373047-.3510742,4.875.15625,1.6777344.5068359,2.6523438,1.4428711,3.1992188,2.925293.4667969,1.2480469.4277344,3.0810547-.15625,4.2509766-.546875,1.1308594-1.6777344,2.3398438-2.6914062,3.1201172-1.0136719.7797852-2.1054688,1.4038086-3.3925781,1.8720703-1.2871094.4287109-3.3164062.7412109-4.4863281.8579102-1.1308594.1166992-1.9882812.1948242-2.4570312.1948242-.4677734-.0390625-.5839844-.2338867-.5839844-.3115234,0-.078125.078125-.3515625.5058594-.3515625.390625,0,.8583984,0,1.4433594-.1166992,1.0917969-.2338867,2.4960938-.5849609,3.9394531-1.1313477,1.7548828-.6630859,3.5488281-1.7158203,5.0703125-3.3540039,1.1699219-1.2866211,1.2089844-3.3540039.8183594-4.7583008-.4287109-1.3647461-1.5205078-2.105957-2.4570312-2.3398438-.9746094-.2338867-2.4179688-.2729492-3.7441406.078125-1.3261719.3120117-2.8857422.9746094-3.8613281,1.5600586-1.0136719.6240234-1.6367188,1.3256836-2.0664062,1.949707s-.5849609,1.4042969-.8964844,2.1064453c-.3515625.6630859-.5859375.8969727-1.0537109,1.0527344-.4677734.1171875-.9365234.078125-1.2089844-.3115234-.4287109-.6240234-.7021484-1.9501953-.7412109-3.4326172,0-1.5209961.1953125-3.0810547.3125-4.6796875.1171875-1.1704102.3115234-2.4575195.5458984-3.7441406-.6630859,0-1.3261719-.0390625-1.8330078-.1171875-1.0136719-.1171875-1.9501953-.3510742-2.4960938-.7021484-.4296875-.1953125-.8193359-.6630859-.5078125-.9360352.2734375-.2729492.625-.078125,1.0537109.1166992.4287109.15625.9365234.234375,1.9892578.3125Zm4.2509766-2.3793945c-.078125.15625-.15625.3510742-.1953125.5073242-.0771484.3115234-.1943359.7797852-.3115234,1.3261719.6240234-.1953125,1.0917969-.3515625,1.3652344-.5073242.3505859-.1948242.3115234-.5073242.1943359-.5458984-.1552734-.0390625-.5068359-.2729492-.8974609-.5854492-.0380859-.0776367-.0771484-.1166992-.1552734-.1948242Z"/>
        <path d="m561.0719574,141.8367777c.1171875-1.6381836-.2734375-3.1201172-1.7949219-4.0561523-1.6767578-.9750977-3.6660156-1.0532227-5.2646484-.5849609-1.4042969.4287109-3.1591797,1.6376953-4.6025391,2.8466797-1.2089844.9755859-2.6523438,2.340332-3.1582031,2.8862305-.546875.5073242-1.1318359.5463867-1.9121094.5463867-.8183594,0-.9355469-.3515625-1.4423828-1.2089844-.5068359-.8583984-.8583984-1.6772461-.6630859-2.5742188.1953125-.8583984.4287109-2.3012695.7402344-3.9785156.3125-1.5986328.4296875-3.5878906.5859375-4.9531073.1953125-1.3652521.5458984-2.0278497,1.4042969-2.457049.8574219-.3896484,2.5351562-.7802734,3.2363281-.8579102.7412109-.078125,1.7949219-.1948242,1.9501953-.5849609.15625-.4291992-.2724609-1.1313477-1.0136719-1.7163086-.6240234-.5068359-1.4824219-.8969727-2.2236328-1.1699219-.3896484-.15625-.8964844-.3510742-.8183594-.6630859.078125-.3510742.4287109-.3510742.8183594-.3896484.3515625-.0390625.8974609-.078125,1.4824219.0385742,1.0917969.15625,2.1835938.7021484,2.9638672,1.3261719.8583984.6630859,1.4433594,1.4428711,1.8330078,2.4960938.3125.8969727.1171875,1.5600586-.1953125,1.8330078-.2724609.2338867-.6621094.3901367-1.0917969.2729492-.4677734-.1557617-1.3261719-.4677734-2.2226562-.5849609-.8964844-.15625-2.3007812,0-3.0029297.234375-.7021484.1948242-1.2099609.5458984-1.2871094,1.1308594-.078125.5458984-.2734375,1.6376953-.4677734,3.2373047-.15625,1.5986328-.390625,3.7050781-.5078125,4.5629883-.1171875.9360352-.3115234,1.949707.234375,2.2231445.5849609.2729492,1.0917969.1948242,2.0283203-.3901367,1.0136719-.5849609,2.4179688-1.5991211,4.0556641-2.4960938,1.5996094-.8579102,2.9648438-1.3261719,4.3681641-1.4428711,3.1591797-.1953125,5.1875.3505859,6.9033203,2.1445312,1.5605469,1.6386719,1.9111328,4.0957031,1.1308594,5.8115234-1.2089844,2.5742188-3.1191406,3.9394531-4.9140625,4.9140625-1.8330078.9750977-4.71875,1.6381836-6.6689453,1.8330078-1.9892578.1953125-3.5107422.15625-4.0556641.1171875-.5078125-.0390625-1.1318359-.15625-1.1318359-.5068359.0390625-.3125.5458984-.3510742,1.0927734-.3125.9746094.0390625,2.4179688-.0776367,3.9384766-.3505859,2.2626953-.4682617,4.2119141-1.2089844,6.0068359-2.3012695,2.3398438-1.4428711,3.5097656-3.0029297,3.6660156-4.875Z"/>
      </g>
      <polyline points="389.2065287 189.3689792 375.6086039 202.966904 362.0106791 189.3689792"/>
    </g>
  </g>
</svg>