<?xml version="1.0" encoding="UTF-8"?>
<svg id="_レイヤー_2" data-name="レイヤー 2" xmlns="http://www.w3.org/2000/svg" xmlns:xlink="http://www.w3.org/1999/xlink" viewBox="0 0 749.9996536 140.157402">
  <defs>
    <style>
      .cls-1 {
        fill: #fff;
      }

      .cls-2 {
        fill: #e8c416;
      }

      .cls-3 {
        clip-path: url(#clippath);
      }

      .cls-4 {
        fill: none;
      }

      .cls-5 {
        fill: #ae8f36;
      }
    </style>
    <clipPath id="clippath">
      <rect class="cls-4" width="749.9996536" height="140.157402"/>
    </clipPath>
  </defs>
  <g id="_レイヤー_1-2" data-name="レイヤー 1">
    <g class="cls-3">
      <g>
        <path class="cls-1" d="m215.6563484,96.0549597c.0410156-.5595703,1.4404297-.3999023,2.5205078-.3598633,1.0791016.0800781,2.2392578.2001953,3.359375.6796875.9990234.4799805,1.4394531.7602539,2.0791016,1.4399414.640625.6401367.9199219,1.7998047.1201172,2.3999023-.7197266.5195312-1.6796875.1196289-2.2792969-.6000977-.6396484-.7597656-1.2802734-1.3198242-2.1201172-1.8798828-.5595703-.3999023-1.4394531-.9199219-2.6796875-1.159668-.7597656-.1601562-1.0390625-.2001953-1-.5200195Zm11.1191406-4.3193359c.6796875.7202148.8789062,1.6401367.3193359,2.2797852-.5195312.5600586-1.2792969.5600586-2.1191406.0800781-.8398438-.5200195-1.4794922-1.159668-2.1601562-1.9199219-.9990234-1.159668-2.0400391-1.7993164-3.6396484-2.1196289-.5996094-.1196289-.8789062-.2797852-.8789062-.5195312,0-.3603516.5996094-.4399414,1.0791016-.4399414.4003906,0,.9199219,0,1.7998047.1196289,1.1201172.2001953,1.8398438.3999023,2.9199219.7998047,1.0800781.4399414,1.8789062.8798828,2.6796875,1.7197266Zm16.1171875.3999023c-.8007812,1.2402344-2.4003906,3.5195312-4.0390625,5.2792969-1.6005859,1.7597656-2.4404297,2.5996094-4.9199219,4.9589844-2.4394531,2.3198242-5.3183594,4.359375-7.6787109,5.7592773-1.7597656,1-2.9589844,1.6396484-4.3193359,1.6396484-1.3193359,0-2.0390625-.8798828-2.4794922-1.7197266-.3994141-.8398438-.5195312-1.7998047-.0400391-2.0395508.3603516-.2797852.7597656-.0800781,1.2802734.3198242.4794922.3598633,1.0400391.6000977,1.8798828.6401367,1.0390625.0400391,2.5585938-.7602539,5.1992188-2.3198242,1.5585938-.9199219,3.0390625-1.9995117,5.078125-3.5991211,2-1.5200195,3.8398438-3.159668,5.2392578-4.7192383,1.4404297-1.6401367,3.1201172-3.8793945,3.7597656-4.7993164.5595703-.7998047,1.359375-1.8798828,1.7197266-1.6396484.4003906.199707.2001953.9199219-.6796875,2.2392578Z"/>
        <path class="cls-1" d="m254.9375984,110.9324012c-.0800781-.2397461.4394531-.5595703.8398438-.7597656,1.6386719-.7597656,2.8789062-1.4394531,4.1191406-2.2397461,1.2392578-.7597656,2.5195312-1.7592773,4.1992188-3.2792969,1.7197266-1.5195312,2.8398438-2.7197266,4.0390625-4.0791016,1.2402344-1.3598633,2.8398438-3.6396484,3.9199219-5.3193359,1.0791016-1.7197266,1.7587891-2.9194336,1.9990234-3.8793945.2402344-.9199219-.3603516-1.3598633-1.5195312-.9995117-.7597656.2397461-1.2402344.3198242-2.6396484.6396484-1.4003906.3198242-2.359375.5200195-3.6396484.5600586-1.2792969,0-2.5195312-.4399414-3.2392578-1-.9599609-.8398438-1.1601562-1.7597656-.7197266-2.199707.3603516-.3999023,1.0791016-.4399414,1.5996094-.1196289.5595703.3598633,1.2392578.6396484,1.9599609.8398438,1.1992188.2797852,3.0390625.2397461,4.8789062-.0800781,1.8398438-.3203125,3.0791016-.7202148,3.5996094-.9199219.5595703-.2001953,1.2792969-.6796875,2.0791016-.2402344.8398438.4399414,1.3603516,1.2001953,1.5205078,2.5996094.1591797,1.4399414-.3603516,2.0800781-1.1601562,2.7197266-.640625.5200195-1.1601562,1-2.1601562,2.2797852-.7998047,1.1196289-1.8789062,2.5996094-3.359375,4.3989258,1.3203125.3603516,2.9599609.9199219,4.359375,1.8398438,1.6796875,1.0400391,2.8798828,2.199707,3.6396484,3.199707.7998047.9594727,1.5195312,3.0791016.3603516,3.7993164-1.2402344.7597656-2.4394531-.5600586-3.0400391-1.6401367-.6396484-1.1196289-1.2802734-2.3994141-2.3994141-3.8393555-1.0400391-1.3193359-2.1601562-2.1196289-3.5195312-2.7192383-.0400391.0400391-.0800781.1201172-.0800781.159668-1.9199219,2.159668-3.359375,3.5195312-4.9990234,4.9194336-1.5996094,1.3999023-2.9990234,2.359375-4.8388672,3.3994141-1.2402344.7597656-3.2792969,1.6396484-4.5996094,2.0795898-.6396484.2001953-1.1201172.1601562-1.1992188-.1201172Z"/>
        <path class="cls-1" d="m321.8526375,93.5754676c-.4404297.2797852-1.0400391,0-1.8798828-.1201172-.7597656-.159668-2.1591797-.3999023-3.359375-.3198242-1.0400391.0400391-3.3994141.2402344-5.1992188.3598633.640625.3598633,1.2802734.8398438,1.7197266,1.3598633.6005859.6401367.4794922,1.2797852.3603516,1.5195312-.0800781.2802734-.4404297.6000977-.5205078,1.1601562-.0791016.5996094-.1201172,1.5996094-.6796875,3.6391602s-1.2802734,3.4394531-2.3193359,5.0390625c-1,1.5600586-2.1992188,2.7597656-3.5195312,3.7597656-1.2792969.9594727-2.9589844,1.8793945-4.4794922,2.5195312-1.4794922.5996094-3.0791016.9199219-3.6396484.9995117-.5996094.0800781-.9990234.0400391-1.0390625-.159668,0-.1601562.2402344-.3999023.6396484-.4799805.4404297-.1201172,1.1591797-.2402344,1.9199219-.5200195,1.359375-.4799805,2.3994141-.9599609,3.8789062-2.0795898,1.4404297-1.0800781,3.2001953-2.9995117,4.1191406-4.5991211.9199219-1.6000977,1.9199219-3.6796875,2.2402344-5.0390625.3193359-1.3598633.4794922-3.159668.5195312-4.5595703.0800781-1.1196289-.2802734-1.8793945-.7197266-2.4394531-1.6796875.1601562-3.4794922.2797852-4.359375.3999023-1.0400391.1601562-2.3193359.3198242-3.2392578.3198242-1.2402344,0-1.9599609-.4399414-2.5195312-.9199219-.5205078-.5195312-.6005859-1.4794922-.2402344-1.7197266.4794922-.2797852,1,.1201172,1.9199219.3603516.8798828.199707,1.9189453.3198242,3.6396484.3198242,1.6796875,0,2.9589844-.1201172,4.5185547-.2402344,1.5205078-.1196289,3.7597656-.3598633,5.2792969-.5595703,1.5195312-.2402344,2.7597656-.3999023,3.7597656-.4399414,1.3193359-.0800781,2.2392578.3198242,2.6787109.7597656.7597656.7597656,1,1.4399414.5205078,1.6796875Zm-18.9970703-5.4790039c-.6396484-.4399414-.9199219-1.3598633-.5595703-1.7197266.3193359-.3598633.9599609-.0800781,1.359375.0400391.4003906.159668,1,.3598633,1.6796875.3999023,1.3203125.0800781,2.8798828-.2001953,3.4394531-.2797852,1-.1601562,2.4404297-.5200195,3.3994141-.800293.9599609-.2797852,1.7998047-.5195312,2.7197266-.3999023.9199219.1201172,1.7197266.6401367,2,1.2397461.3193359.6000977-.2402344,1.1201172-1.5205078,1.0400391-1.2392578-.0800781-2.1591797,0-3.5585938.0400391-1.3603516.0400391-2.4003906.1601562-3.7197266.3198242-1.2392578.1601562-2.0791016.4799805-3.0791016.6000977-.9199219.1196289-1.5605469-.0800781-2.1601562-.4799805Z"/>
        <path class="cls-1" d="m361.7325203,104.7336707c1.1601562,1.8793945,1.8398438,4.359375.2802734,4.8393555-1.6796875.4794922-2.5195312-1.2402344-3.3193359-3.5996094-.0800781-.2797852-.2001953-.5600586-.3203125-.8398438-1.3203125.3198242-4.7597656,1.159668-6.359375,1.5595703-1.7597656.4399414-6.0390625,1.4399414-7.3183594,1.6796875-1.3203125.2402344-2.0800781.5200195-3.1191406,1.6401367-.4404297.4399414-1.0800781.7597656-1.5605469.7597656-.5195312,0-1.5195312-.3198242-2.3994141-1.0400391-.8798828-.7197266-1.1591797-1.7998047-1.0791016-2.3994141.1191406-.6401367.7998047-.5600586,1.71875-.6401367.8808594-.0800781,1.4003906-.8798828,2.4003906-2.6396484,1.0390625-1.7993164,1.8789062-3.3994141,3.3193359-5.8789062,1.4394531-2.5595703,3.0390625-5.4790039,3.5195312-6.8388672.5195312-1.359375-.0800781-2.5195312-.4404297-3.1191406-.359375-.5600586-.7197266-1.1201172-.359375-1.3598633.6396484-.4399414,1.5195312-.2402344,2.5996094.5200195.7197266.5595703,1.1992188,1.199707,1.3193359,2.5195312.1201172.8398438-.3994141,1.6396484-1.1201172,2.5996094-.6396484.9594727-2.8789062,4.6391602-4.0791016,6.5986328-1.1201172,1.7998047-3.7587891,6.3588867-3.9990234,6.7988281s-.0800781.6000977.2792969.6000977c.3603516-.0400391,1.3203125-.1201172,2.7597656-.3999023,1.5605469-.3598633,5.2792969-.9199219,7.1191406-1.2397461,1.6396484-.3203125,4.0791016-.800293,6.1591797-1.1201172-.6806641-1.199707-1.3994141-2.1196289-2.2802734-2.9594727-.5195312-.4799805-.8789062-.9199219-.6396484-1.159668.2802734-.3198242.7998047-.1201172,1.7998047.4799805,2.3994141,1.5195312,4.1191406,3.0795898,5.1191406,4.6391602Z"/>
        <path class="cls-1" d="m396.6534187,90.656034c.9199219.1201172,1.8398438.5600586,2.2001953.9599609.3994141.3598633.5595703,1.1196289-.1601562,1.3994141-.7207031.2802734-1.640625,0-2.5195312-.1196289-.8808594-.1201172-2.4804688,0-4.1992188.3198242-.8007812.1601562-1.640625.3598633-2.4804688.5600586.2402344,1.2397461.5605469,2.7192383.9599609,4.4790039.1201172.6000977.2802734,1.3598633.4804688,2.159668.8398438-.1601562,1.7597656-.3598633,2.5996094-.5200195,1.8388672-.3598633,4.1591797-.9599609,5.1591797-1.3598633.9589844-.3598633,1.9990234-.5595703,2.5585938-.3999023.5605469.1201172,1.3603516.5600586,1.5205078,1.1201172.1601562.6396484,0,1.0395508-.8398438,1.0795898-.8398438,0-1.6396484-.0800781-2.5195312-.0800781-1.0800781-.0395508-2.2001953.1601562-4.5195312.6801758-1.2392578.2797852-2.5195312.5200195-3.6787109.8398438.1591797.7998047.3193359,1.6396484.4794922,2.2792969.4394531,1.6000977,1.0791016,3.6796875,1.4794922,4.7192383.4003906,1.0400391.7197266,1.7597656.7597656,2.6796875.0400391.6801758-.0800781,1.199707-.7197266,1.4399414-.5195312.159668-1.1591797-.1201172-1.4794922-.6000977-.4404297-.6796875-.7207031-1.4394531-.9199219-2.7993164-.2001953-1.3598633-.4404297-2.9995117-.8798828-5.0390625-.1601562-.8398438-.3203125-1.6000977-.4794922-2.3198242-.3203125.0800781-.6806641.1601562-1.0400391.2397461-2.1201172.4399414-4.3193359,1.1601562-5.7587891,1.5600586-1.4003906.4399414-2.2402344.6396484-3.2402344.5595703-1-.0795898-1.6396484-.5195312-2.1992188-1.2397461-.640625-.7597656-.7207031-1.3994141-.4404297-1.5996094.3203125-.2397461.7607422.0400391,1.0800781.2001953.3603516.199707.6396484.4799805,1.4394531.6396484.7998047.1201172,2.0400391-.159668,3.1601562-.3598633,1.8798828-.3598633,3.4794922-.6796875,5.4384766-1.0795898.4804688-.1201172.8798828-.2001953,1.2802734-.2802734-.1201172-.6796875-.2802734-1.3598633-.4404297-2.199707-.359375-1.5996094-.6396484-2.9995117-.9199219-4.3989258-.4794922.1196289-1,.2797852-1.4794922.3999023-1.6796875.3999023-3.8388672.9594727-5.1992188,1.159668-1.3994141.2001953-2.3994141.2001953-3.0791016-.2001953-.7998047-.4794922-1-1.2397461-.7197266-1.4794922.359375-.2797852.8798828-.1601562,1.5195312.0400391.6796875.159668,1.6796875.0800781,3.4394531-.2001953,1.4394531-.199707,3.5195312-.6796875,5.2392578-1.1196289-.0400391-.2001953-.0800781-.3999023-.1201172-.6401367-.4003906-2.0795898-.6806641-3.1191406-.9599609-4.0390625-.3203125-.9199219-.7197266-1.3598633-1.4794922-1.7597656-.7197266-.3598633-1.0800781-.9199219-.8798828-1.3598633.1992188-.5595703,1.1992188-.5996094,2.0390625-.3198242.8798828.2797852,1.5605469.6000977,1.9199219,1.8398438.4003906,1.199707.7197266,2.8793945.9199219,4.3588867.0400391.4399414.1601562.9599609.2402344,1.5600586,1.6396484-.3598633,3.1992188-.7597656,4.3193359-1.1201172,1.2792969-.4399414,2.1591797-.7597656,3.1191406-.6396484Z"/>
        <path class="cls-1" d="m420.9356453,112.6120887c.640625-.1196289,1.2402344-.199707,2.5996094-.7197266,1.9599609-.6796875,3.4794922-1.5195312,4.8798828-2.5996094,1.3994141-1.1196289,2.6396484-2.6796875,3.6787109-3.9990234,1.0400391-1.3198242,2.1201172-3.0395508,2.7998047-4.7993164.6396484-1.7998047.9599609-3.0795898,1.1601562-4.2792969.2001953-1.2397461-.0400391-2.4794922-.4404297-3.159668-.4394531-.7197266-.7597656-1.3994141-.3994141-1.7197266.5996094-.5195312,1.8798828.2402344,2.4394531.7202148.5595703.3999023,1,.9594727,1.359375,1.6796875.3603516.7197266.0400391,1.4794922-.2802734,2.0795898-.2792969.5595703-.8398438,2.7192383-1.7597656,4.7192383-.9589844,1.9995117-1.9189453,3.6391602-3.2792969,5.3188477-1.4394531,1.7998047-2.8789062,3.0395508-4.1191406,3.9594727-1.1591797.9199219-2.5996094,1.8398438-4.3984375,2.5595703-1.4804688.6000977-2.5996094.9599609-4.0800781,1-.4394531.0400391-.8398438-.0400391-.8398438-.3203125,0-.2397461.2001953-.3198242.6796875-.4399414Zm.3203125-16.0371094c-.2792969-.2797852-.6796875-.7597656-.4804688-.9599609.4003906-.4399414,1.1201172-.0800781,1.8007812.4399414.9199219.7597656,1.5195312,1.6396484,1.8789062,2.7197266.3603516,1.0795898,0,1.7597656-.5996094,1.9194336-.5595703.1201172-1.1201172-.2397461-1.359375-.6796875-.2402344-.3999023-.2802734-1.1196289-.4404297-1.7998047-.1201172-.7197266-.5195312-1.3999023-.7998047-1.6396484Zm5.6796875-2.1196289c-.1601562-.4799805-.3203125-.8798828-.6005859-1.159668-.2802734-.2802734-.7197266-.6801758-.4404297-.9199219.3203125-.2797852,1,.0800781,1.4404297.3999023.5195312.3999023,1.3193359,1.0795898,1.7998047,2.2797852.3203125.6796875.3994141,1.9594727-.3203125,2.2392578-.7597656.3203125-1.4394531-.0795898-1.5595703-.9199219-.1201172-.6796875-.2001953-1.4394531-.3193359-1.9194336Z"/>
        <path class="cls-1" d="m482.9727547,97.4548621c-.4404297.4399414-1.8398438.1601562-3.0400391.0800781-1.2792969-.0800781-2.3994141-.1201172-3.9189453-.0800781-1.2802734,0-3,.2397461-5.1992188.4799805-.0400391.2397461-.0400391.4399414-.0800781.6796875-.1601562,2.199707-.6796875,3.9594727-1.6396484,6.0390625-1,2.0395508-1.7998047,3.199707-3.2392578,4.6791992-1.4003906,1.3999023-3,2.3994141-4.3193359,2.9594727-.7197266.3198242-1.9599609.9199219-2.1601562.3999023-.2001953-.4799805.7998047-1.0395508,1.6005859-1.4394531,1.9990234-1,3.7988281-2.7197266,5.1582031-4.8393555,1.3203125-2.0795898,2-4.6791992,2.2802734-6.9990234.0400391-.4799805.0400391-.8798828.0791016-1.2397461-1.7988281.1601562-3.4785156.2402344-4.2382812.3598633-.9199219.0800781-1.4804688.2402344-2.1201172.3999023-.5996094.1601562-1.1591797.4003906-1.8798828.3603516-1.1992188-.0400391-2.1992188-.3999023-3.0390625-1.0400391-.8798828-.6396484-1.2802734-1.7197266-.6796875-2.0395508.4394531-.2402344,1.1992188-.1201172,2.2792969.2797852s2.1601562.5200195,3.8398438.6000977c1.5585938.0400391,3.6386719-.2001953,5.9179688-.5200195,0-1.5595703-.1591797-2.6396484-.3193359-3.5996094-.1601562-.9594727-.7197266-1.8793945-1.3603516-2.359375-1.1591797.2001953-2.2792969.3999023-3.1992188.5600586-1.4794922.199707-3.4794922.3999023-4.2792969.3999023-.7597656-.0400391-1.2792969-.0800781-1.2792969-.5600586,0-.3999023.7998047-.5200195,1.4794922-.5600586,2.0400391-.199707,3.4394531-.4794922,5.5595703-.9194336,2.1591797-.4799805,3.2392578-.840332,5.1582031-1.5200195,2.0400391-.7197266,2.8398438-1.159668,3.4003906-1.4399414.5595703-.3198242.7988281-.6396484.71875-.9594727-.0390625-.2402344-.1992188-.9199219.4003906-1.0400391s1.7597656.4799805,2.1601562,1.5200195c.359375,1.0395508.3994141,1.8793945-.0410156,2.5195312-.4794922.6396484-1.359375.5996094-1.9189453.4799805-.5205078-.1601562-.9599609-.2001953-1.5996094-.0400391-1.0800781.2797852-2.9599609.7197266-4.6396484,1.1196289h-.0800781c.7597656.2397461,1.2802734.6401367,1.8798828,1.3198242.7597656.8398438.6796875,1.4399414.5205078,1.9995117-.2001953.5200195-.2802734.9199219-.2402344,1.7998047.0400391.2797852.0400391.6000977,0,.9199219,1.3994141-.2001953,2.5595703-.4399414,3.6386719-.5600586,1.5605469-.2397461,3.5595703-.5595703,4.8398438-.6796875,1.3193359-.1201172,2.2392578.3598633,2.9990234.8798828.7197266.5195312,1.0400391,1.199707.6005859,1.5996094Z"/>
        <path class="cls-1" d="m497.4571297,91.1760535c-.9199219-.4799805-1.4003906-.7202148-1.2802734-1.1201172.2001953-.3999023.7998047-.3198242,1.6396484-.199707.8798828.0800781,1.7998047.3198242,2.9199219.7597656,1.1191406.4799805,1.7597656.8398438,2.7597656,1.7597656.9589844.8398438,1.5585938,2.359375.5595703,2.9594727-.7998047.4799805-1.9599609-.0800781-3-1.2397461-1.359375-1.5595703-2.359375-2.3198242-3.5986328-2.9194336Zm25.6347656-.5600586c-.4794922.7998047-1.2392578,1.9995117-2.7988281,4.1992188-1.4003906,1.9995117-2.8798828,3.9194336-5.0390625,5.9589844-2.1601562,2.0795898-4.359375,3.7192383-6.7597656,5.3193359-2.359375,1.5595703-4.5585938,2.5195312-6.1982422,2.9194336-1.6796875.4399414-2.3994141.1201172-3.1201172-.6801758-.7197266-.7998047-.8789062-2.2392578-.4794922-2.5991211l1.3193359.3198242c.4003906.2397461,1.0800781.2797852,1.8798828.2397461,1.3603516-.0800781,3.9599609-.9594727,5.7998047-2.199707,1.8789062-1.2397461,4.3984375-3.1591797,6.2382812-4.8388672,1.8398438-1.6396484,3.1191406-2.7597656,5.0791016-5.1191406,2-2.3999023,2.9599609-3.6396484,3.2001953-3.9995117.2792969-.3598633.5996094-.5600586.8398438-.4399414.2392578.1201172.3193359.3999023.0390625.9199219Z"/>
      </g>
      <g>
        <circle class="cls-5" cx="97.7354385" cy="70.078701" r="70.078701"/>
        <g>
          <path class="cls-1" d="m58.4922859,53.2380652c.4306641.6162109.9550781,1.1396484,1.6015625,1.5712891,2.0644531-.8012695,3.7890625-1.9101562,5.2685547-3.3271484,1.2626953.6157227,1.9091797,1.1088867,1.9091797,1.3862305,0,.1845703-.2763672.2773438-.8310547.2773438h-.4628906c-1.6328125.9238281-3.3271484,1.6635742-5.1132812,2.1870117,1.8173828.9243164,4.8671875,1.3867188,9.0878906,1.3867188,2.3105469,0,5.0214844-.0927734,8.1025391-.3388672-.3701172.5541992-.6162109,1.1704102-.8320312,1.7866211h-6.1308594c-4.5595703,0-7.7011719-.3388672-9.3652344-1.078125-1.8173828-.8012695-3.0810547-1.8486328-3.7587891-3.1733398-.8935547,1.3554688-1.8789062,2.6186523-2.9267578,3.8203125,0,.6777344-.0917969,1.0473633-.3388672,1.0473633-.3388672,0-.8935547-.6777344-1.7246094-2.0639648,1.4169922-.8012695,2.7109375-1.7255859,3.9433594-2.8344727v-7.4248047h-3.6972656l-.2773438-.7084961h3.7890625l1.0166016-1.2631836c1.109375.8935547,1.6953125,1.4482422,1.6953125,1.6943359,0,.1235352-.0927734.246582-.3085938.3081055l-.6464844.4316406v6.3154297Zm-4.0673828-18.2070312c2.8964844,1.324707,4.3447266,2.7109375,4.3447266,4.1894531,0,.7084961-.3388672,1.0786133-1.0175781,1.0786133-.4306641,0-.7695312-.3388672-1.0166016-1.0170898-.4619141-1.3554688-1.3857422-2.5874023-2.7724609-3.7275391l.4619141-.5234375Zm16.1123047,11.1831055v-2.5571289c1.7871094.0615234,2.6494141.2773438,2.6494141.6162109,0,.1845703-.3388672.4003906-1.046875.6469727v1.2939453h2.1259766l1.1396484-1.6020508c.0917969.0615234.1230469.1230469.1845703.215332.5546875.4931641,1.0166016.9858398,1.4482422,1.5097656l-.3085938.5546875h-4.5898438v3.1420898h3.0185547l1.2636719-1.6328125.2460938.246582.2158203.1538086c.4619141.4008789.8320312.862793,1.1708984,1.324707l-.2773438.5854492h-17.9609375l-.3076172-.6777344h4.9902344v-3.1420898h-3.9121094l-.2773438-.6777344h4.1894531v-2.5878906c1.7255859.0307617,2.6191406.2460938,2.6191406.6469727,0,.215332-.3701172.4311523-1.0478516.6469727v1.2939453h4.4667969Zm-8.0712891-7.2397461v2.0947266c0,.3081055.0615234.5234375.2158203.6469727.1542969.1230469.8320312.1538086,1.9716797.1538086,1.2939453,0,2.0029297-.1230469,2.2177734-.3696289.1542969-.246582.3085938-.7392578.4003906-1.4477539l.6162109.1845703c0,.1235352-.0302734.2158203-.0302734.3701172,0,.6464844.2773438.9853516.8320312.9545898v.0307617c0,.6469727-.2158203,1.0786133-.6474609,1.2631836-.4619141.1850586-1.4785156.3081055-3.0810547.3081055-1.9091797,0-3.0498047-.1230469-3.4189453-.3081055-.3388672-.1845703-.4931641-.6777344-.4931641-1.4169922v-3.8818359c.2773438.0922852.8320312.3388672,1.6943359.7084961h3.265625v-2.1870117h-5.453125l-.2773438-.6777344h5.484375l.9238281-1.1401367c1.0166016.7705078,1.4785156,1.2324219,1.4785156,1.4169922,0,.1542969-.0615234.2773438-.2158203.3393555l-.4921875.3388672v3.234375h-1.4482422v-.6157227h-3.5429688Zm8.0712891,11.0595703v-3.1420898h-4.4667969v3.1420898h4.4667969Zm.5244141-11.0595703v1.9404297c0,.3388672.0302734.5854492.1533203.6777344.1542969.1850586.8632812.2158203,2.0644531.2158203,1.3554688,0,2.1259766-.1538086,2.3105469-.4619141.2158203-.3388672.3701172-.8012695.4619141-1.4174805l.6162109.2158203c0,.5546875.0615234.9550781.1542969,1.1708984.1230469.1845703.3388672.2768555.7089844.3081055,0,.6777344-.3085938,1.078125-.8320312,1.2626953-.4619141.1850586-1.5410156.2773438-3.265625.2773438-1.8486328,0-2.9882812-.1538086-3.3886719-.4003906-.2773438-.1845703-.4316406-.5854492-.4316406-1.1708984v-4.0048828c.5234375.2158203,1.078125.4316406,1.6328125.6777344h3.3271484v-2.1870117h-5.2988281l-.3076172-.6777344h5.3603516l.9550781-1.1401367c1.0166016.7705078,1.4785156,1.2631836,1.4785156,1.4482422,0,.1230469-.0927734.215332-.2460938.3388672l-.5244141.3696289v3.2348633h-1.4169922v-.6777344h-3.5117188Zm-.9550781,12.7231445c4.2822266.7397461,6.3769531,1.7250977,6.3769531,2.8652344,0,.6162109-.2773438.9243164-.8320312.9243164-.2773438,0-.5849609-.1235352-.8935547-.4316406-1.1083984-1.1088867-2.7724609-2.0332031-5.0214844-2.7724609l.3701172-.5854492Z"/>
          <path class="cls-1" d="m107.4717781,51.0813269c.0615234.4931641-.3076172,1.109375-1.2626953,1.2324219-1.2939453.1235352-2.5576172-.4926758-3.8203125-1.4477539-1.3251953-1.0166016-2.9882812-2.8652344-4.2509766-4.375-1.2636719-1.5400391-2.4345703-3.019043-2.9267578-3.6044922-.6162109-.7084961-1.140625-1.2626953-1.6640625-1.2626953-.5546875,0-.9853516.4311523-1.3867188.9858398-.4306641.5541992-1.4785156,2.1870117-1.9404297,2.8955078-.4003906.6777344-1.3867188,1.9716797-2.2177734,2.2182617-.8632812.246582-1.6328125,0-2.21875-.2773438-.6162109-.2773438-.9550781-.8007812-.8007812-1.1704102.1230469-.2773438.5546875-.246582.9238281-.2158203.3388672.0307617.7705078-.0307617,1.2324219-.1845703.4628906-.1850586.9550781-.6162109,1.6025391-1.1708984.6162109-.5239258,1.2939453-1.2324219,1.8173828-1.7866211.5546875-.5854492.7705078-.862793,1.3554688-1.5405273s.9550781-.9858398,1.5400391-1.0166016c.5859375-.0615234,1.140625.5541992,1.6953125,1.1088867.5234375.5239258,1.6015625,1.4790039,2.5253906,2.4956055.9248047,1.0166016,2.1875,2.15625,3.5126953,3.3886719.8007812.7700195,2.125,1.8486328,3.1416016,2.402832.9863281.5239258,1.7568359.6777344,2.21875.7089844.4003906.0307617.8935547.1538086.9238281.6157227Zm-4.7753906-7.9174805c-.4619141-.4311523-1.046875-.8623047-1.8173828-1.3862305-.2460938-.1850586-.4003906-.4003906-.2460938-.6162109.1230469-.1538086.3691406-.1230469.5234375-.1230469.4619141.0307617,1.0166016.1538086,1.6640625.4003906.6464844.2158203,1.5712891.7084961,1.8476562,1.2016602.3085938.5234375.03125,1.0166016-.4306641,1.1396484-.4316406.1235352-1.109375-.1538086-1.5410156-.6162109Zm2.4345703-1.2319336c-.4628906-.5546875-1.0166016-.8935547-1.9101562-1.2631836-.2470703-.1235352-.4003906-.4008789-.2773438-.5854492.0927734-.1850586.3388672-.1542969.5234375-.1542969.4619141-.0307617,1.0478516.0927734,1.6943359.2773438.6162109.1850586,1.5410156.6469727,1.8798828,1.1708984.3076172.4926758.0615234.9858398-.3701172,1.1396484-.4316406.1542969-1.1396484-.1230469-1.5400391-.5849609Z"/>
          <path class="cls-1" d="m134.6407234,53.8850379c-1.140625,1.2939453-2.5263672,2.0332031-4.0976562,2.4335938-1.5712891.4316406-3.0810547.3696289-4.9296875.0307617-1.8789062-.4003906-2.6181641-1.0473633-2.6181641-1.9716797-.03125-.9238281,1.1708984-1.6635742,2.1875-1.8481445,1.046875-.2158203,2.2792969-.1542969,3.2041016.5854492.8007812.6469727.7695312,1.3862305.4003906,2.1254883,1.4785156-.1850586,2.8652344-.6162109,3.8505859-1.4169922,1.2011719-.9858398,1.7558594-2.3725586,1.7558594-3.7895508.03125-1.4169922-1.0166016-3.1420898-2.7412109-3.9125977-1.7255859-.7392578-3.5742188-.8007812-5.484375-.1845703-1.9404297.6162109-3.1728516,1.5708008-4.0966797,2.8032227-.9248047,1.2016602-1.6025391,2.6494141-1.8486328,3.4506836-.2470703.8007812-.5244141,1.2319336-.9248047,1.4477539-.1845703.0922852-.5234375.246582-1.0166016-.1538086-.3388672-.2773438-.3691406-.9243164-.3388672-1.3554688.03125-.4008789.8017578-1.3867188,1.3554688-2.0952148.5859375-.7392578,1.3867188-1.8793945,2.4345703-3.019043,1.046875-1.1396484,2.7109375-3.1733398,3.3886719-3.9433594.6464844-.8007812,2.7724609-3.3579102,3.1113281-3.8203125.3388672-.4311523.4931641-.7700195.3388672-.8930664-.1542969-.1542969-.6777344.0615234-.9863281.2460938-.3388672.2158203-1.8476562,1.109375-2.7109375,1.6020508-.8925781.4624023-1.5400391.6777344-2.3105469.6777344-.7695312,0-1.2939453-.4003906-1.6015625-.6777344-.3085938-.3081055-.4316406-.7700195-.3388672-.9858398.1230469-.3081055.4316406-.3388672.6777344-.2460938.2773438.0615234.6464844.1845703,1.0478516.1845703.4003906.0307617.7695312-.0307617,1.7246094-.4311523.9248047-.3696289,2.15625-.9550781,3.2041016-1.5097656,1.0478516-.5541992,1.6943359-.9550781,2.2792969-.9858398.6162109-.0307617,1.2324219.3388672,1.6328125.8012695.4013672.4311523.4316406.7084961.3701172.9858398-.0615234.2768555-.2158203.4311523-.6464844.7084961-.4316406.246582-1.3564453,1.0473633-2.1875,1.8793945-.8320312.8623047-1.8486328,2.1254883-2.5878906,2.9262695,0,0-.7392578.8012695-2.1875,2.3105469.4316406-.3081055.8623047-.5541992,1.6943359-.8623047,1.2011719-.4311523,2.4648438-.6777344,4.0361328-.5239258,1.6015625.1542969,2.8955078.6469727,4.0664062,1.4790039,1.1708984.831543,2.0947266,2.0639648,2.2490234,3.8505859.1542969,1.6948242-.3085938,2.9267578-1.3554688,4.0976562Zm-8.8730469-.4931641c-.9853516.0307617-1.6015625.6162109-1.1708984,1.2324219.2470703.3388672,1.0166016.6469727,2.3105469.6777344,1.2021484-1.078125.1240234-1.9101562-1.1396484-1.9101562Z"/>
        </g>
        <g>
          <g>
            <path class="cls-1" d="m80.2178719,87.7746863c.4238281-.5776367.7705078-1.1362305,1.1171875-1.7138672-.0390625-.0576172-.0966797-.1157227-.1542969-.1733398-.4619141-.5004883-1.0009766-.9243164-1.65625-1.4057617-.2119141-.1347656-.5195312-.3466797-.4238281-.5004883.1162109-.1733398.3085938-.0961914.8095703.1152344.5195312.2119141.9814453.5009766,1.9248047,1.0786133.1347656-.2119141.2509766-.4428711.3662109-.6933594.6738281-1.2514648.9628906-2.0605469,1.078125-2.5996094.1162109-.5585938.0390625-1.0014648-.1728516-1.2709961-.1923828-.25-.4238281-.5390625-.2890625-.7314453.1738281-.2504883.5009766-.1542969.9248047.019043.5.1733398.8662109.5004883,1.1162109.8857422.2509766.4042969.1542969.7319336.0195312.8666992-.1542969.1347656-.3085938.2504883-.3662109.5004883-.0771484.230957-.1923828.6547852-.4423828,1.1748047-.3085938.6738281-.7705078,1.5209961-1.3671875,2.4458008.5585938.4042969,1.0400391.8276367,1.3476562,1.1357422.6162109.6743164.8085938,1.5214844.2314453,1.8295898-.5585938.3081055-1.1552734-.1347656-1.6181641-.8666992-.2304688-.3466797-.4619141-.6933594-.6738281-1.0014648-.7509766,1.0786133-1.1748047,1.6948242-2.1376953,2.7539062s-1.6748047,1.6948242-2.9462891,2.5805664c-.4814453.3271484-.7509766.3847656-.8085938.2695312-.0771484-.1157227.1162109-.2890625.3466797-.5009766.5009766-.4233398.9824219-.8276367,1.7138672-1.5981445.7128906-.7895508,1.3095703-1.5405273,2.0605469-2.5996094Z"/>
            <path class="cls-1" d="m107.0762703,86.5232215c-.0380859.230957-.3085938.3081055-.7128906.230957-.3847656-.0581055-1.4824219-.1928711-2.1757812-.2504883s-2.2138672-.1347656-2.9267578-.0961914c-.6933594.0576172-2.0986328.0961914-3.0039062.1923828-.7128906.0771484-1.5410156.2695312-2.2148438.2890625-.6933594,0-1.3476562-.2119141-1.7333984-.5004883-.3847656-.2890625-.5390625-.7319336-.3271484-.8862305.3271484-.25.8857422-.019043,1.3671875.1157227.4433594.1347656,1.3486328.230957,2.0996094.2119141.7890625-.0385742,2.4257812-.1157227,3.2539062-.1347656.8085938-.0385742,3.0615234-.1157227,3.8320312-.1347656.7900391,0,1.5791016.019043,1.9833984.1923828s.5966797.5004883.5585938.7705078Z"/>
            <path class="cls-1" d="m113.3301765,93.0700965c.3271484-.2119141.7705078-.5581055,1.0976562-.847168,1.0009766-.8666992,1.7910156-1.675293,2.4257812-2.5996094.6162109-.9433594,1.0976562-1.8486328,1.4833984-2.8886719.2695312-.6738281.4814453-1.4057617.6738281-2.0795898-.5390625.0576172-1.0019531.1157227-1.3095703.1542969-.4238281.0380859-.9628906.1538086-1.3671875.1347656-.4433594-.0195312-1.078125-.1347656-1.5019531-.4814453-.3857422-.3466797-.5205078-.6933594-.4042969-.8666992.1542969-.2695312.6933594-.0961914,1.0400391.019043.3466797.0966797.9238281.2119141,1.7714844.2314453.7314453.019043,1.328125-.0385742,1.9638672-.0771484,0,0,.0195312-.019043.0195312-.0385742.1533203-.828125.2695312-1.7524414.2890625-2.1953125.0380859-.4233398-.1542969-.8857422-.328125-1.1362305-.1923828-.2695312-.2880859-.5195312-.2119141-.6738281.1162109-.1733398.3662109-.1538086.7900391-.019043.4042969.1347656.6542969.2885742.8857422.5581055.2119141.2314453.2695312.5395508.1728516.7509766-.0576172.1347656-.1347656.3662109-.1728516.6743164-.1347656.6738281-.2119141,1.309082-.3466797,1.9638672.4814453-.0385742.9628906-.1152344,1.4638672-.1923828.7509766-.0961914,1.1357422-.1923828,1.4824219-.2890625.3466797-.0961914.6357422-.2885742.8085938-.4233398.1738281-.1542969.4433594-.1733398.7705078.0771484.3271484.25.6162109.5776367.7119141.8085938.0966797.230957,0,.4619141-.1152344.5585938-.0957031.0766602-.1923828.3271484-.2304688.5004883-.0390625.3081055-.0966797.7895508-.1933594,1.5791016-.1152344.8085938-.2695312,1.5981445-.5195312,2.715332-.2695312,1.078125-.5009766,1.7138672-.8085938,2.1757812-.2890625.4428711-.5585938.5585938-.8671875.4814453-.2304688-.0576172-.3457031-.2119141-.4619141-.5585938-.1152344-.3466797-.2890625-.6162109-.5585938-.8857422-.25-.2885742-.5771484-.5004883-.9042969-.6933594-.1738281-.0961914-.2705078-.230957-.2314453-.3271484.0380859-.0961914.1923828-.1157227.4042969-.0385742.3271484.0961914.6933594.230957,1.2128906.3852539.5009766.1538086.828125.0961914,1.0019531-.2695312.1923828-.3662109.3076172-.7895508.4814453-1.675293.1728516-.9052734.25-1.637207.3466797-2.7729492.0185547-.3662109.0380859-.578125-.0390625-.6357422-.0576172-.0576172-.2304688-.1152344-.3652344-.1538086-.1357422-.0385742-.2705078,0-.4052734,0-.1152344.019043-.3076172.0766602-.9042969.1733398-.5585938.0961914-1.1943359.1538086-2.3115234.3081055-.0576172.1538086-.1152344.3081055-.1728516.5004883-.4238281,1.1166992-.7900391,1.9643555-1.2714844,2.8500977-.4814453.9047852-.9042969,1.6176758-1.5976562,2.4838867-.6738281.847168-1.4248047,1.5791016-2.234375,2.1762695-.4042969.3081055-.9042969.5966797-1.2900391.7895508-.2695312.1347656-.4238281-.0771484-.1728516-.2314453Z"/>
            <path class="cls-1" d="m145.5801765,86.5232215c-.0380859.230957-.3085938.3081055-.7128906.230957-.3847656-.0581055-1.4824219-.1928711-2.1757812-.2504883s-2.2138672-.1347656-2.9267578-.0961914c-.6933594.0576172-2.0986328.0961914-3.0039062.1923828-.7128906.0771484-1.5410156.2695312-2.2148438.2890625-.6933594,0-1.3476562-.2119141-1.7333984-.5004883-.3847656-.2890625-.5390625-.7319336-.3271484-.8862305.3271484-.25.8857422-.019043,1.3671875.1157227.4433594.1347656,1.3486328.230957,2.0996094.2119141.7890625-.0385742,2.4257812-.1157227,3.2539062-.1347656.8085938-.0385742,3.0615234-.1157227,3.8320312-.1347656.7900391,0,1.5791016.019043,1.9833984.1923828s.5966797.5004883.5585938.7705078Z"/>
          </g>
          <path class="cls-2" d="m54.9356453,85.1076941h2.3574219c2.1855469,0,3.8535156-.8051758,5.1191406-2.5878906,1.0927734-1.4379883,1.6669922-3.2207031,1.6669922-5.4633789,0-1.4956055-.3447266-2.8754883-.8623047-3.9682617-1.0927734-2.1855469-2.5878906-3.2783203-4.7158203-3.2783203-3.0478516,0-4.8310547,1.2651367-5.4638672,3.8535156,1.1503906.4023438,1.6679688,1.1499023,1.6679688,2.3579102,0,1.6103516-.8046875,2.3579102-2.3574219,2.3579102-1.6679688,0-2.5878906-.9780273-2.5878906-2.9331055,0-1.3227539.4599609-2.4731445,1.3222656-3.6806641,1.7832031-2.3579102,4.2558594-3.5083008,7.4189453-3.5083008,2.5302734,0,4.5429688.7475586,6.2109375,2.2431641,1.7832031,1.6098633,2.703125,3.737793,2.703125,6.440918,0,4.9458008-2.4150391,7.9941406-7.3037109,9.0869141,5.5205078,1.0351562,8.28125,4.2553711,8.28125,9.6616211,0,2.9331055-.8623047,5.3481445-2.5878906,7.3037109-1.7822266,2.0703125-4.3134766,3.1630859-7.4765625,3.1630859-2.4726562,0-4.6582031-.6899414-6.4980469-2.0126953-2.0126953-1.3803711-3.1054688-3.1630859-3.1054688-5.2333984,0-.9204102.3447266-1.6679688.9199219-2.1855469.5175781-.5175781,1.0927734-.8051758,1.6679688-.8051758.9775391,0,1.6679688.4599609,2.2421875,1.2075195.3457031.402832.4033203.9204102.4033203,1.3803711,0,.9775391-.5175781,1.7255859-1.5527344,2.1855469.171875.7475586.4599609,1.3227539.9775391,1.7827148,1.1503906,1.3803711,2.8173828,2.1279297,4.7734375,2.1279297,1.6103516,0,3.0478516-.6328125,4.1982422-1.8979492,1.7246094-1.7827148,2.5302734-4.140625,2.5302734-7.0737305,0-5.6362305-2.5302734-8.5117188-7.5917969-8.5117188h-2.3574219v-2.0126953Z"/>
        </g>
      </g>
      <g>
        <path class="cls-1" d="m324.6280281,49.9592566c.5576172-.5400391,3.0068359-3.1147461,4.1044922-4.2495117,1.0810547-1.1162109,1.1523438-1.2963867,1.1523438-1.512207,0-.144043-.0898438-.2880859-.2333984-.3422852-.1259766-.0537109-.1621094-.0898438-.1621094-.1621094,0-.0717773.1083984-.1079102.2705078-.1079102.5214844,0,.4677734.0541992,1.0800781.0541992.5585938,0,1.6201172-.0541992,1.9082031-.0541992.2519531,0,.3066406.0541992.3066406.1259766,0,.0722656-.0361328.1079102-.1982422.1259766-.3427734.0361328-.6669922.1083984-.9189453.2163086-.4492188.1801758-.7919922.3959961-1.8720703,1.4404297-1.5849609,1.5302734-3.6376953,3.5649414-4.1054688,4.0869141,1.1347656,1.2426758,4.4111328,4.5737305,5.2578125,5.3657227,1.4765625,1.3867188,2.1064453,1.7827148,2.9707031,1.9448242.1621094.0361328.3427734.0537109.5224609.0537109.1445312,0,.2519531.0361328.2519531.1259766,0,.090332-.0722656.1264648-.2695312.1264648h-1.3330078c-1.5664062,0-1.9804688-.1982422-2.8271484-.8642578-1.0800781-.8461914-4.3203125-4.3212891-5.9052734-6.2119141v1.8544922c0,1.7285156,0,3.1508789.0898438,3.9072266.0537109.5219727.1621094.9179688.7021484.9902344.2519531.0361328.6123047.0717773.7207031.0717773.1621094,0,.2158203.0722656.2158203.1259766,0,.090332-.0722656.1264648-.2705078.1264648-.9902344,0-2.1240234-.0541992-2.2148438-.0541992-.0898438,0-1.1523438.0541992-1.6914062.0541992-.1992188,0-.2890625-.0180664-.2890625-.1264648,0-.0537109.0361328-.1259766.1982422-.1259766.1083984,0,.3056641-.0175781.4677734-.0537109.3603516-.0722656.46875-.4863281.5410156-1.0083008.0898438-.7563477.0898438-2.1787109.0898438-3.9072266v-3.1689453c0-2.809082,0-3.3129883-.0361328-3.8891602-.0361328-.6123047-.2158203-.918457-.6123047-1.0083008-.1982422-.0541992-.5214844-.0722656-.6484375-.0722656-.1435547,0-.1972656-.0356445-.1972656-.1079102,0-.1079102.0898438-.144043.2871094-.144043.5947266,0,1.8007812.0541992,1.890625.0541992.0908203,0,1.2246094-.0541992,1.765625-.0541992.1972656,0,.2871094.0361328.2871094.1259766,0,.0722656-.0351562.1079102-.1972656.1259766-.1982422.0180664-.2167969.0180664-.3964844.0361328-.4863281.0541992-.6308594.4140625-.6660156,1.0444336-.0361328.5761719-.0361328,1.0800781-.0361328,3.8891602v1.1523438Z"/>
        <path class="cls-1" d="m339.5665047,50.0491004c0-2.3764648,0-2.8085938-.0351562-3.2949219-.0361328-.4858398-.1445312-.7563477-.5224609-.828125-.1806641-.0361328-.3056641-.0361328-.4140625-.0541992-.1259766-.0180664-.1982422-.0537109-.1982422-.1259766,0-.0898438.0722656-.1259766.2705078-.1259766.5576172,0,1.5839844.0541992,1.6376953.0541992.0722656,0,1.1171875-.0541992,1.6210938-.0541992.1796875,0,.2695312.0361328.2695312.1259766,0,.0722656-.0537109.1079102-.1972656.1259766-.1083984.0180664-.1982422.0180664-.3242188.0361328-.5224609.0722656-.5761719.3422852-.6123047.8642578-.0361328.4863281-.0185547.9003906-.0185547,3.2768555v2.7006836c0,1.3867188-.0175781,2.6469727.0722656,3.2954102.0722656.5219727.1445312.7202148.6123047.828125.234375.0541992.6123047.0717773.6845703.0717773.1621094.0180664.1972656.0541992.1972656.1259766,0,.0722656-.0712891.1264648-.2519531.1264648-.9179688,0-1.9619141-.0541992-2.0527344-.0541992-.0537109,0-1.1152344.0541992-1.6201172.0541992-.1621094,0-.2880859-.0361328-.2880859-.1264648,0-.0717773.0722656-.1259766.234375-.1259766.0898438,0,.2880859-.0175781.4316406-.0537109.3066406-.0722656.3603516-.4321289.4140625-.8642578.0898438-.6484375.0898438-1.9267578.0898438-3.2773438v-2.7006836Z"/>
        <path class="cls-1" d="m353.0137703,52.749784c0,1.3867188.0185547,2.6650391.0898438,3.3310547.0546875.4321289.0908203.6845703.5410156.7924805.2158203.0541992.5576172.0717773.7021484.0717773.1435547,0,.2158203.0541992.2158203.1083984,0,.0898438-.0537109.144043-.234375.144043-.9179688,0-1.9804688-.0541992-2.0527344-.0541992-.0712891,0-1.1337891.0541992-1.6015625.0541992-.1982422,0-.2705078-.0361328-.2705078-.1264648,0-.0537109.0537109-.1259766.1982422-.1259766.1435547,0,.2519531,0,.3964844-.0175781.3417969-.0541992.3955078-.2705078.4677734-.8823242.0712891-.6484375.0712891-1.9448242.0712891-3.2954102v-6.4277344c-.59375,0-1.5478516,0-2.2675781.0180664-1.1523438.0180664-1.4052734.1982422-1.6572266.5761719-.1621094.2519531-.2333984.4682617-.2705078.5581055-.0537109.1259766-.0898438.144043-.1621094.144043-.0712891,0-.0898438-.0717773-.0898438-.1621094-.0175781-.1079102.2519531-1.2963867.3603516-1.7822266.0537109-.2163086.1083984-.2880859.1621094-.2880859.1259766,0,.4677734.1616211.7919922.1977539.6308594.0722656,1.1347656.090332,1.1523438.090332h5.90625c.5039062,0,1.0439453-.0361328,1.296875-.090332.2333984-.0537109.2871094-.0717773.3417969-.0717773.0722656,0,.1074219.0898438.1074219.1621094,0,.5039062-.0351562,1.6923828-.0351562,1.8364258,0,.1621094-.0722656.2158203-.1269531.2158203-.0898438,0-.1259766-.0717773-.1259766-.2158203,0-.0541992,0-.0722656-.0175781-.2519531-.0722656-.7202148-.3056641-.9003906-2.125-.918457-.6845703,0-1.2421875-.0180664-1.7646484-.0180664v6.4277344Z"/>
        <path class="cls-1" d="m363.525489,55.7571082c-1.53125-1.3325195-1.9267578-3.097168-1.9267578-4.5913086,0-1.0087891.3955078-2.7910156,1.8183594-4.159668.9716797-.9360352,2.4306641-1.6020508,4.84375-1.6020508.828125,0,1.4941406.0717773,2.3759766.1977539.5761719.090332,1.1523438.1801758,1.5849609.1982422.1435547,0,.1621094.0898438.1621094.1801758,0,.1435547-.0537109.3056641-.0898438.8818359-.0185547.5043945-.0185547,1.4404297-.0361328,1.6567383-.0175781.2519531-.0546875.3422852-.1445312.3422852-.1259766,0-.1435547-.1083984-.1435547-.3422852,0-.5219727-.2519531-1.2246094-.7021484-1.5664062-.5410156-.4682617-1.8007812-.918457-3.1875-.918457-1.9980469,0-2.9160156.5581055-3.4570312,1.0444336-1.1699219,1.0620117-1.4404297,2.3588867-1.4404297,3.9428711,0,2.9892578,2.4306641,5.6181641,5.6005859,5.6181641,1.2236328,0,2.1240234-.1264648,2.7539062-.7382812.3242188-.3422852.5039062-.7924805.5947266-1.2963867.0361328-.1801758.0898438-.2700195.1982422-.2700195.0898438,0,.0898438.1259766.0898438.2519531,0,.144043-.234375,1.6025391-.3603516,1.9985352-.1083984.2880859-.1621094.3422852-.4140625.4501953-.6298828.2700195-1.8369141.3598633-2.8447266.3598633-2.3769531,0-3.9970703-.5400391-5.2753906-1.6381836Z"/>
        <path class="cls-1" d="m387.1436531,50.4450965c.0537109,0,.1083984,0,.1083984-.0898438v-.3242188c0-2.3764648,0-2.7905273-.0361328-3.2768555-.0361328-.4858398-.1083984-.7382812-.7021484-.8461914-.1269531-.0180664-.3066406-.0361328-.4501953-.0361328-.1259766,0-.2158203-.0537109-.2158203-.1259766,0-.1079102.0898438-.1259766.2519531-.1259766.7558594,0,1.8183594.0541992,1.890625.0541992.0712891,0,1.0800781-.0541992,1.6201172-.0541992.1796875,0,.2880859.0180664.2880859.1259766,0,.0541992-.0546875.1259766-.1982422.1259766-.1083984,0-.2519531.0180664-.3603516.0361328-.4863281.0722656-.5576172.3603516-.59375.8642578-.0175781.4863281-.0175781.9003906-.0175781,3.2768555v2.7006836c0,1.4765625,0,2.6469727.0712891,3.2954102.0537109.4321289.1445312.7919922.6123047.8461914.234375.0361328.46875.0537109.6308594.0537109.1435547,0,.2333984.0541992.2333984.1259766,0,.090332-.0898438.1264648-.2705078.1264648-.9003906,0-1.9443359-.0541992-2.0341797-.0541992-.0722656,0-1.1162109.0541992-1.6025391.0541992-.1796875,0-.2695312-.0361328-.2695312-.144043,0-.0541992.0537109-.1083984.1972656-.1083984.1445312,0,.2705078,0,.4140625-.0356445.3066406-.0541992.3964844-.4501953.4511719-.8642578.0898438-.6484375.0898438-1.7827148.0898438-3.2412109v-1.6025391c0-.0717773-.0546875-.1079102-.1083984-.1079102h-6.5361328c-.0537109,0-.0898438.0180664-.0898438.1079102v1.6025391c0,1.4584961,0,2.6289062.0898438,3.2768555.0546875.3964844.1445312.7563477.6123047.8105469.234375.0361328.5039062.0537109.6484375.0537109.1259766,0,.2158203.0541992.2158203.1259766,0,.0722656-.0722656.1264648-.234375.1264648-.9179688,0-1.9804688-.0541992-2.0703125-.0541992-.0537109,0-1.1523438.0541992-1.6210938.0541992-.1796875,0-.2871094-.0361328-.2871094-.1264648,0-.0537109.0351562-.1259766.1972656-.1259766.1445312,0,.2890625-.0175781.4326172-.0537109.3242188-.0722656.3955078-.4140625.4501953-.8105469.1074219-.6479492.0898438-1.8544922.0898438-3.3310547v-2.6645508c0-2.3764648,0-2.8447266-.0361328-3.3310547-.0361328-.4682617-.1621094-.8100586-.6845703-.8642578-.1621094-.0180664-.3417969-.0361328-.4853516-.0361328-.1259766,0-.1982422-.0537109-.1982422-.1079102,0-.1079102.0898438-.1259766.2695312-.1259766.7744141,0,1.6386719.0541992,1.8730469.0541992.0722656,0,1.1162109-.0541992,1.6210938-.0541992.1796875,0,.2695312.0361328.2695312.1259766,0,.0722656-.0722656.1079102-.1796875.1079102-.1083984,0-.1621094,0-.3603516.0361328-.4501953.0722656-.5585938.378418-.5947266.8823242-.0175781.4863281-.0175781.8823242-.0175781,3.2587891v.3242188c0,.0898438.0537109.0898438.1074219.0898438h6.5185547Z"/>
        <path class="cls-1" d="m397.1485359,50.0491004c0-2.3583984,0-2.7905273-.0351562-3.2768555-.0371094-.5039062-.1621094-.7563477-.6845703-.8642578-.1083984-.0180664-.2880859-.0361328-.4326172-.0361328-.1259766,0-.234375-.0537109-.234375-.1079102,0-.1079102.0908203-.144043.2705078-.144043.3603516,0,.8466797.0361328,1.8544922.0541992.0898438,0,3.2949219,0,3.6552734-.0180664s.5576172-.0361328.7021484-.090332c.1083984-.0356445.1259766-.0537109.1982422-.0537109.0361328,0,.0722656.0356445.0722656.1259766,0,.1079102-.1083984.3598633-.1445312.8100586-.0175781.3061523-.0361328.5942383-.0537109.9365234,0,.1621094-.0361328.2700195-.1259766.2700195-.0908203,0-.1259766-.0722656-.1259766-.1982422-.0185547-.2700195-.0722656-.4501953-.1259766-.5761719-.1083984-.3598633-.2705078-.4858398-1.1708984-.5400391-.234375-.0180664-2.0166016-.0361328-2.0527344-.0361328-.0537109,0-.0898438.0361328-.0898438.144043v4.0874023c0,.1079102.0175781.1801758.1083984.1801758.2158203,0,2.0527344-.0180664,2.4306641-.0541992.4140625-.0180664.6835938-.0717773.828125-.2700195.0722656-.1079102.1259766-.144043.1982422-.144043.0361328,0,.0712891.0180664.0712891.1079102s-.0712891.4321289-.125.9541016c-.0546875.5043945-.0546875.8642578-.0722656,1.0986328-.0185547.144043-.0546875.1982422-.1259766.1982422-.0908203,0-.1083984-.1083984-.1083984-.234375,0-.1079102-.0175781-.2880859-.0537109-.4321289-.0722656-.2338867-.1806641-.4858398-.8642578-.5400391-.4140625-.0361328-1.8730469-.0722656-2.1611328-.0722656-.1083984,0-.1259766.0541992-.1259766.1264648v1.3139648c0,.5581055-.0175781,2.1430664,0,2.4487305.0361328.6665039.1259766,1.0083008.5039062,1.1704102.2705078.1259766.703125.1621094,1.3144531.1621094.3427734,0,.9189453.0180664,1.3691406-.1079102.5400391-.1621094.6660156-.5224609.8095703-1.1884766.0361328-.1801758.0908203-.2519531.1621094-.2519531.1083984,0,.1083984.1621094.1083984.2700195,0,.1259766-.1445312,1.2602539-.1982422,1.5664062-.0722656.3603516-.1982422.3959961-.7919922.3959961-1.1884766,0-1.6923828-.0356445-2.3222656-.0356445-.6308594-.0180664-1.4589844-.0541992-2.125-.0541992-.4140625,0-.7558594.0541992-1.1884766.0541992-.1621094,0-.2519531-.0361328-.2519531-.1264648,0-.0717773.0712891-.1259766.1621094-.1259766.1074219,0,.2333984-.0175781.3603516-.0537109.3232422-.0722656.5390625-.3061523.5761719-1.4223633.0175781-.6123047.0351562-1.3505859.0351562-2.7192383v-2.7006836Z"/>
        <path class="cls-1" d="m409.2989265,46.1418738c0-.5581055.0537109-.737793.1972656-.737793.1269531,0,.4326172.3598633.5585938.4858398.1621094.1801758,2.6650391,2.7368164,5.1855469,5.3115234,1.4042969,1.3686523,3.2050781,3.2231445,3.6738281,3.6552734l-.1992188-7.4902344c-.0175781-.972168-.125-1.2963867-.6113281-1.4223633-.3066406-.0541992-.5761719-.0722656-.703125-.0722656-.1796875,0-.2148438-.0717773-.2148438-.144043,0-.0898438.1435547-.1079102.3232422-.1079102.7744141,0,1.5302734.0541992,1.6923828.0541992.1806641,0,.7382812-.0541992,1.4414062-.0541992.1972656,0,.2519531.0180664.2519531.1079102,0,.0722656-.0546875.1259766-.1621094.144043-.1083984.0180664-.2519531.0180664-.4511719.0541992-.4140625.0898438-.5390625.2700195-.5390625,1.3500977l-.0371094,9.0390625c0,.9003906-.0351562.9902344-.1611328.9902344s-.3066406-.1259766-1.1884766-.9541016c-.0722656-.0361328-2.5751953-2.5209961-4.1416016-4.0512695-1.8720703-1.9448242-3.6728516-3.8173828-4.1230469-4.2856445l.234375,7.0400391c.0361328,1.2426758.1435547,1.7109375.59375,1.8188477.2880859.0717773.5947266.0717773.7382812.0717773s.2158203.0541992.2158203.1259766c0,.090332-.0898438.1264648-.2880859.1264648-.9716797,0-1.6201172-.0541992-1.7460938-.0541992s-.7919922.0541992-1.5664062.0541992c-.1621094,0-.2705078-.0180664-.2705078-.1264648,0-.0717773.0722656-.1259766.2519531-.1259766.1269531,0,.3242188,0,.5585938-.0717773.3964844-.1259766.4863281-.6123047.4863281-1.9267578,0-8.5883789.0175781-5.8154297,0-8.8046875Z"/>
      </g>
    </g>
  </g>
</svg>