<?xml version="1.0" encoding="UTF-8"?>
<svg id="_レイヤー_2" data-name="レイヤー 2" xmlns="http://www.w3.org/2000/svg" xmlns:xlink="http://www.w3.org/1999/xlink" viewBox="0 0 749.9996536 140.8208542">
  <defs>
    <style>
      .cls-1 {
        fill: #fff;
      }

      .cls-2 {
        fill: #e8c416;
      }

      .cls-3 {
        clip-path: url(#clippath);
      }

      .cls-4 {
        fill: none;
      }

      .cls-5 {
        fill: #ae8f36;
      }
    </style>
    <clipPath id="clippath">
      <rect class="cls-4" width="749.9996536" height="140.8208542"/>
    </clipPath>
  </defs>
  <g id="_レイヤー_1-2" data-name="レイヤー 1">
    <g class="cls-3">
      <g>
        <path class="cls-1" d="m281.7647751,71.3559046c.359375.6005859.1191406,1.2402344-.3603516,1.7597656-.5205078.5205078-.8398438,1.2402344-1.2001953,2.2001953-.7998047,2.1591797-1.4794922,3.6396484-2.9589844,5.9589844-1.4394531,2.2792969-3.0390625,4.1191406-5.2392578,6.2392578-2.2392578,2.1191406-3.7197266,2.9990234-5.6787109,4.0390625-1.8798828,1.0390625-3.2792969,1.6796875-4.5595703,2.1191406-.6796875.2001953-1.2001953.2001953-1.2802734-.0390625-.1191406-.2802734.0800781-.5605469.5205078-.6806641.3994141-.1591797.9199219-.4794922,2.359375-1.2001953,2.2802734-1.1591797,3.3994141-1.8789062,5.4394531-3.5585938,2.2792969-1.8398438,4.0791016-4,5.2783203-5.8789062,1.2001953-1.8798828,2.2802734-4,2.7998047-5.3994141.5205078-1.4404297.8798828-2.8798828,1.1601562-3.7587891.2001953-.6005859.2802734-1.0800781.0400391-1.3203125-.2802734-.2001953-1-.1201172-1.9199219-.0400391-1.4794922.1201172-3.0791016.2392578-4.7988281.5595703-1.6796875.2802734-3.3994141.8007812-4.8398438,1-1.4394531.2001953-2.2792969-.0400391-3.1992188-.6796875-.9199219-.640625-1.2392578-1.6396484-.8398438-1.9199219.4003906-.359375.9199219-.2402344,1.359375-.0390625.5205078.1992188,1.1601562.4394531,2.3203125.5195312,1.1992188.0800781,2.3193359-.0410156,4.3193359-.2402344,1.8798828-.1601562,4.359375-.4394531,5.5185547-.5996094,1.1201172-.1201172,1.6796875-.2001953,2.2802734-.5605469.5996094-.359375,1.1191406-.5996094,1.8388672-.1992188.7207031.3994141,1.3603516,1.1191406,1.640625,1.71875Z"/>
        <path class="cls-1" d="m322.5245407,72.955514c.4794922.5605469.1601562,1.0800781-.2402344,1.5205078-.4003906.3994141-.7597656.8398438-.8798828,1.2392578-.1601562.4804688-.5205078,2.4003906-.9599609,4.5195312-.3203125,1.6396484-.8798828,4.8398438-1.1191406,6.0791016.2792969.0400391.5595703.1201172.7597656.2392578.8789062.5205078,1.0390625,1.2402344.7988281,1.640625-.2392578.359375-.9990234.4394531-2.6787109.4394531-1.6005859-.0390625-4.7197266-.1992188-6.9189453-.1601562-1.8398438.0410156-3.7197266.1210938-4.9589844.1601562,0,.5605469.0390625,1,0,1.2001953,0,.8798828-.5605469,1.8388672-1.2402344,1.8388672-.7197266,0-.6796875-.8398438-.7998047-2.359375-.1201172-1.5996094-.2802734-3.5996094-.3994141-5.8789062-.1201172-2.3193359-.4003906-5.5986328-.5205078-6.9980469-.1201172-1.3603516-.6796875-2.0800781-1.359375-2.4804688-.6806641-.359375-1.0400391-.7597656-.9199219-1.359375.0800781-.4003906.4394531-.5605469,1.2792969-.5195312,1.0400391,0,1.8398438.2792969,2.5195312.8789062.5605469.4804688,1,1.0410156,1.0400391,1.5205078,1.0800781-.1601562,2.7998047-.3603516,4.2392578-.5205078,2.2392578-.2392578,5.359375-.6396484,6.3193359-.7988281.9599609-.1210938,1.6396484-.2011719,2.2392578-.7597656.6005859-.6005859.9599609-1,1.8398438-.7207031.8398438.2402344,1.5195312.7597656,1.9599609,1.2792969Zm-5.7988281,13.3183594c.3994141-.0400391.8398438-.0800781,1.2792969-.0800781.3203125-3.71875.5996094-6.0390625.7197266-7.7988281.0800781-.9589844.1601562-2.1191406.1601562-2.5996094,0-.4394531-.2802734-.9589844-.7597656-.9199219-.5205078.0410156-3.3994141.2001953-5.0390625.3603516-1.7197266.1601562-3.3994141.3603516-4.6396484.4404297-.7197266.0800781-1.8398438.2392578-2.6396484.359375,0,.2792969,0,.5996094.0400391.9599609.1201172,1.5195312.2802734,4.8789062.3603516,6.8789062.0400391.9599609.0800781,2.2392578.0800781,3.3193359,1.0400391-.0800781,3.1191406-.2402344,4.5185547-.359375,1.9199219-.2011719,4.7197266-.4404297,5.9199219-.5605469Z"/>
        <path class="cls-1" d="m365.6036423,82.4340296c-.0800781.4804688-.6396484.640625-1.4794922.4804688-.7998047-.1201172-3.0800781-.4003906-4.5195312-.5195312-1.4394531-.1210938-4.5996094-.2802734-6.0791016-.2001953-1.4394531.1201172-4.359375.2001953-6.2392578.3994141-1.4794922.1601562-3.1992188.5605469-4.5986328.5996094-1.4404297,0-2.7998047-.4394531-3.5996094-1.0390625s-1.1201172-1.5195312-.6796875-1.8398438c.6796875-.5195312,1.8398438-.0400391,2.8388672.2402344.9199219.2792969,2.7998047.4794922,4.359375.4394531,1.640625-.0800781,5.0390625-.2402344,6.7597656-.2792969,1.6796875-.0800781,6.3583984-.2402344,7.9580078-.2802734,1.6396484,0,3.2802734.0400391,4.1201172.3994141.8398438.3603516,1.2392578,1.0400391,1.1591797,1.5996094Z"/>
        <path class="cls-1" d="m383.4874313,95.3129359c.7197266-.2402344,1.5996094-.5205078,3.6396484-1.4804688,2.0390625-.9199219,3.8388672-2.1992188,5.5185547-3.9990234,1.6796875-1.8398438,2.6796875-3.7197266,3.359375-6.1191406.5605469-1.8798828.8007812-4.3994141.8398438-6.9189453.0800781-2.5195312-.1992188-4.5585938-.2792969-5.7587891-.0800781-1.1591797-.5205078-1.6396484-1.0800781-2.1201172-.5605469-.4794922-1-.9199219-.5996094-1.3994141.3193359-.3994141,1-.5205078,2.359375-.0400391.5195312.2001953,1.0400391.4003906,1.6396484.9599609.5996094.4794922.8798828,1.1201172.7597656,1.5195312-.0800781.3603516-.1601562,1.0400391-.1601562,1.4794922,0,.9199219.1201172,2.6796875.1201172,5.1191406s-.2001953,5.1191406-1.2402344,7.71875c-.9990234,2.4804688-1.9189453,4-3.5585938,5.71875-1.5605469,1.640625-3.1191406,2.7597656-4.9589844,3.7597656-1.7597656.9599609-4.1601562,1.7207031-6.0791016,2.1992188-.6005859.1601562-1,.0800781-1.0800781-.1591797-.0400391-.2001953.3603516-.3193359.7998047-.4794922Zm6.3984375-22.5166016c-.1191406.6796875-.0390625,2.2392578,0,4.4384766,0,2.2402344.1201172,4.5195312.2001953,5.6396484s-.2802734,1.9599609-.6796875,2.5595703c-.4404297.640625-1.0400391.5195312-1.3994141.2001953-.3203125-.3603516-.4804688-.8798828-.4003906-2.2802734.0800781-1.4394531.1201172-3.5585938.2001953-5.7988281.1201172-2.2792969.0400391-3.359375.0400391-4.6386719,0-1.2402344-.2802734-1.640625-.9199219-2.1601562-.5195312-.4003906-1.0400391-.7597656-.8798828-1.1992188.1201172-.4003906.5996094-.4404297,1.5595703-.2802734.9599609.2001953,1.8398438.6396484,2.359375,1.3193359.5605469.640625.0800781,1.4394531-.0800781,2.2001953Z"/>
        <path class="cls-1" d="m419.6475876,74.0766077c-.9199219-.4804688-1.3994141-.7207031-1.2792969-1.1210938.2001953-.3994141.7998047-.3193359,1.6396484-.1992188.8798828.0800781,1.7998047.3203125,2.9199219.7597656,1.1191406.4804688,1.7587891.8398438,2.7587891,1.7597656.9599609.8398438,1.5605469,2.359375.5605469,2.9589844-.7998047.4804688-1.9599609-.0800781-3-1.2392578-1.359375-1.5595703-2.359375-2.3193359-3.5996094-2.9189453Zm25.6367188-.5605469c-.4804688.7998047-1.2402344,2-2.7998047,4.1992188-1.3994141,2-2.8798828,3.9199219-5.0390625,5.9589844-2.1601562,2.0800781-4.359375,3.71875-6.7587891,5.3193359-2.3603516,1.5595703-4.5595703,2.5195312-6.1992188,2.9189453-1.6796875.4404297-2.3994141.1210938-3.1191406-.6796875-.7207031-.7998047-.8808594-2.2392578-.4804688-2.5996094l1.3203125.3203125c.3994141.2402344,1.0791016.2792969,1.8789062.2402344,1.3603516-.0800781,3.9599609-.9599609,5.7988281-2.2001953,1.8798828-1.2392578,4.3994141-3.1591797,6.2392578-4.8388672,1.8398438-1.6396484,3.1201172-2.7597656,5.0791016-5.1191406,2-2.4003906,2.9599609-3.6396484,3.1992188-4,.2802734-.359375.6005859-.5595703.8398438-.4394531.2402344.1201172.3203125.4003906.0410156.9199219Z"/>
        <path class="cls-1" d="m482.9639938,73.4359827c.4804688.4394531.640625.8398438.5996094,1.1601562-.0390625.359375-.4794922.6796875-1.0390625,1.0390625-.5996094.3203125-1.0400391,1.4804688-1.5195312,2.5605469-.6806641,1.3994141-1.7597656,3.1591797-3.4003906,5.3583984-1.6386719,2.2001953-2.7587891,3.5595703-4.2792969,4.9599609-1.5195312,1.3994141-3.5195312,2.9189453-5.8388672,4.078125-2.3193359,1.2001953-3.5986328,1.8808594-6.1591797,2.7207031-.4394531.1601562-.8398438.0390625-.8789062-.2402344-.0410156-.2402344.2792969-.4003906.5996094-.5195312,1.9199219-.6806641,3.0390625-1.2802734,4.8388672-2.4003906,1.7597656-1.1191406,3.5996094-2.6796875,4.8798828-3.8398438,1.6796875-1.4785156,3.2392578-3.3183594,4.3984375-5.0390625,1.1601562-1.71875,1.9599609-3.1191406,2.6796875-4.7587891.7597656-1.7197266.9599609-2.7998047,1.0400391-3.1992188.1201172-.4794922,0-.9199219-.0800781-1.0400391-.1601562-.0400391-.6796875-.0800781-.9599609-.0800781-.5996094,0-2.4794922,0-3.359375.0400391h-1.9589844c-.4003906.7607422-.8398438,1.5595703-1.2802734,2.2802734-1.2802734,1.9990234-2.5195312,3.359375-4.1591797,4.71875-1.6396484,1.4003906-2.9599609,2.1992188-4.8789062,2.9589844-.3603516.1210938-.7597656.1210938-.8808594-.1191406-.1191406-.2802734.2802734-.5205078.5605469-.6796875,1.5996094-.8808594,2.8789062-1.8007812,4.0791016-3.0400391,1.2802734-1.2001953,2.5996094-2.9189453,3.3994141-4.2792969.7998047-1.3193359,1.359375-2.5595703,1.7197266-3.6396484.3603516-1,.3603516-1.6796875.3203125-2.1191406-.0400391-.4003906-.4404297-.8398438-.7998047-1.1601562-.2802734-.359375-.6005859-.8398438-.3203125-1.1601562.3203125-.359375,1.0400391-.1601562,1.7597656.1210938.7197266.2392578,1.4794922.6386719,1.9199219,1.0791016.4394531.4794922.3193359,1.2001953,0,2.1201172-.1201172.3193359-.3603516.7988281-.640625,1.4794922.2802734,0,.6806641.0800781,1.0400391.1201172.7998047.0800781,1.7998047.0800781,2.7197266,0,.9599609-.0800781,1.5595703-.4003906,2.1601562-.7597656.5996094-.3203125,1.1591797-.3203125,1.9589844.0390625.7998047.3603516,1.2802734.7597656,1.7597656,1.2402344Zm-1.3994141-2.6796875c-.5595703-.5996094-1.3203125-1.1601562-2.3193359-1.8398438-.3603516-.1992188-.5205078-.4794922-.3603516-.7988281.1601562-.1601562.4794922-.1210938.7197266-.1210938.5996094,0,1.3203125.2001953,2.1601562.4804688.7998047.3203125,2.0390625.9599609,2.3994141,1.5996094.3994141.6796875,0,1.3203125-.6005859,1.4804688-.5595703.1591797-1.3994141-.2011719-1.9990234-.8007812Zm3.1591797-1.5996094c-.5996094-.7597656-1.2792969-1.1601562-2.4794922-1.6796875-.3193359-.1201172-.5205078-.5195312-.3603516-.7597656.1601562-.2001953.4804688-.1601562.6806641-.1601562.6396484-.0400391,1.359375.1201172,2.1992188.359375.8398438.2402344,2.0400391.8007812,2.4394531,1.5205078.4003906.6396484.0800781,1.2802734-.4394531,1.4794922-.6005859.2001953-1.5205078-.1601562-2.0400391-.7597656Z"/>
      </g>
      <g>
        <path class="cls-1" d="m317.7999313,31.7074671c0-2.8095703,0-3.3134766-.0361328-3.8896484-.0361328-.6123047-.1796875-.9003906-.7744141-1.0263672-.1074219-.0175781-.2871094-.0175781-.4492188-.0361328s-.3066406-.0361328-.3066406-.1259766c0-.1074219.0898438-.1445312.2880859-.1445312.7021484,0,1.3867188.0546875,2.0341797.0546875.3603516,0,4.015625,0,4.4296875-.0175781.4140625-.0185547.7382812-.0185547.8828125-.1083984.0537109-.0361328.125-.0722656.1621094-.0722656.0712891,0,.1074219.0722656.1074219.1621094s-.0722656.3427734-.1074219.5576172c-.0722656.5224609-.0722656.8105469-.1083984,1.3144531,0,.2167969-.0898438.3603516-.1621094.3603516-.0898438,0-.1083984-.0712891-.1259766-.2333984-.0175781-.2519531-.0898438-.6845703-.3417969-.9003906-.2167969-.1796875-.5410156-.3242188-1.0625-.3417969-.9179688-.0185547-1.8369141-.0371094-2.7548828-.0546875-.1083984,0-.1621094.0546875-.1621094.1982422v4.9697266c0,.1074219.0175781.1621094.1259766.1621094.7382812,0,1.7646484,0,2.5029297-.0185547.9541016-.0185547,1.1884766-.0361328,1.4404297-.3417969.0898438-.1083984.1259766-.1806641.1972656-.1806641.0722656,0,.0908203.0546875.0908203.1445312,0,.1074219-.0908203.4140625-.1445312,1.0078125-.0537109.5410156-.0537109.9726562-.0712891,1.2421875-.0185547.1992188-.0371094.3066406-.1269531.3066406-.1074219,0-.125-.1259766-.1435547-.3066406-.0361328-.3955078-.0898438-1.0253906-1.0263672-1.1523438-.4501953-.0527344-2.4121094-.0527344-2.71875-.0527344-.0898438,0-.1259766.0351562-.1259766.1611328v1.5302734c0,1.53125,0,2.8085938.0537109,3.6376953.0546875.8095703.2519531,1.2060547.7382812,1.2607422.234375.0351562.5400391.0537109.7382812.0712891.1621094.0185547.2158203.0537109.2158203.1259766,0,.0898438-.0898438.1269531-.2880859.1269531-1.0078125,0-2.1240234-.0546875-2.2148438-.0546875h-.1621094c-.359375.0175781-1.1699219.0546875-1.6015625.0546875-.1982422,0-.2890625-.0371094-.2890625-.1445312,0-.0546875.0371094-.0898438.1992188-.1083984.1796875-.0175781.3417969-.0361328.4677734-.0712891.3779297-.1083984.5039062-.3789062.5576172-1.1708984.0546875-.7744141.0722656-2.0341797.0722656-3.7275391v-3.1679688Z"/>
        <path class="cls-1" d="m332.3985641,35.6859827c0,2.0703125.0712891,3.1152344.3779297,3.4033203.2880859.2519531.6484375.3603516,1.890625.3603516.7919922,0,1.5117188,0,1.9082031-.5039062.1796875-.2705078.3066406-.6308594.3417969-.9003906.0185547-.1445312.0546875-.2167969.1445312-.2167969.0722656,0,.1074219.0546875.1074219.234375s-.1074219,1.2060547-.2148438,1.6201172c-.1083984.3603516-.0908203.4501953-.9550781.4501953-1.2246094,0-2.5742188-.0898438-4.375-.0898438-.59375,0-.9541016.0546875-1.5839844.0546875-.1806641,0-.2890625-.0371094-.2890625-.1445312,0-.0546875.0546875-.1083984.1982422-.1083984.1445312,0,.2880859,0,.4326172-.0361328.3056641-.0537109.4140625-.4140625.4677734-.8457031.1083984-.6845703.0722656-1.9267578.0722656-3.3134766v-2.7001953c0-2.3769531,0-2.7734375-.0361328-3.2597656-.0361328-.5039062-.1083984-.828125-.7207031-.9003906-.1074219-.0175781-.3056641-.0175781-.4492188-.0175781-.1269531,0-.1982422-.0537109-.1982422-.1259766,0-.0898438.0898438-.1259766.2695312-.1259766.7568359,0,1.8369141.0546875,1.8730469.0546875.2519531,0,1.3505859-.0546875,1.8544922-.0546875.1796875,0,.234375.0546875.234375.1259766,0,.0722656-.0908203.1259766-.1982422.1259766-.1259766,0-.3066406.0175781-.4863281.0361328-.5048828.0722656-.6123047.3603516-.6484375.8818359-.0361328.4863281-.0175781.8828125-.0175781,3.2597656v2.7363281Z"/>
        <path class="cls-1" d="m341.4327438,34.2816859c0-2.3945312,1.8554688-5.9775391,6.3027344-5.9775391,3.5644531,0,6.2832031,2.1240234,6.2832031,5.7431641,0,3.4394531-2.5390625,6.2480469-6.3740234,6.2480469-4.4111328,0-6.2119141-3.2773438-6.2119141-6.0136719Zm10.8935547.2158203c0-3.6181641-2.2324219-5.6357422-4.6992188-5.6357422-2.5029297,0-4.5195312,1.5488281-4.5195312,4.9511719,0,3.5292969,1.9628906,5.8701172,4.9873047,5.8701172,1.2070312,0,4.2314453-.6123047,4.2314453-5.1855469Z"/>
        <path class="cls-1" d="m358.8927048,34.2816859c0-2.3945312,1.8544922-5.9775391,6.3017578-5.9775391,3.5654297,0,6.2841797,2.1240234,6.2841797,5.7431641,0,3.4394531-2.5380859,6.2480469-6.3740234,6.2480469-4.4111328,0-6.2119141-3.2773438-6.2119141-6.0136719Zm10.8935547.2158203c0-3.6181641-2.2324219-5.6357422-4.6992188-5.6357422-2.5029297,0-4.5195312,1.5488281-4.5195312,4.9511719,0,3.5292969,1.9628906,5.8701172,4.9873047,5.8701172,1.2060547,0,4.2314453-.6123047,4.2314453-5.1855469Z"/>
        <path class="cls-1" d="m378.1720016,32.9496546c0-2.3769531,0-2.8085938-.0361328-3.2949219s-.1621094-.7568359-.7207031-.8652344c-.1074219-.0175781-.2871094-.0351562-.4316406-.0351562-.1259766,0-.1982422-.0361328-.1982422-.1083984,0-.0712891.0537109-.1259766.2158203-.1259766.7744141,0,1.8730469.0546875,1.9091797.0546875.1611328,0,1.3857422-.0546875,1.8896484-.0546875,1.0087891,0,2.1074219.0898438,2.953125.6835938.3427734.2529297,1.0800781.9726562,1.0800781,2.1972656,0,.9902344-.4853516,2.25-1.9082031,3.4023438,1.3144531,1.6210938,2.3945312,2.953125,3.3134766,3.9082031.8642578.8818359,1.4042969,1.0253906,1.9082031,1.0976562.1259766.0185547.5048828.0361328.5585938.0361328.1435547,0,.1982422.0537109.1982422.1259766,0,.0898438-.0722656.1269531-.3242188.1269531h-1.2607422c-.8466797,0-1.2421875-.0546875-1.6386719-.2167969-.7558594-.3242188-1.2958984-1.1347656-2.2324219-2.3408203-.7021484-.8642578-1.4228516-1.8369141-1.7285156-2.2138672-.0722656-.0722656-.1083984-.1083984-.2158203-.1083984l-1.8554688-.0185547c-.0712891,0-.0898438.0185547-.0898438.0898438v.2519531c0,1.4414062,0,2.7558594.0898438,3.4042969.0546875.4316406.1083984.7910156.703125.8632812.1796875.0185547.3779297.0361328.5214844.0361328.1621094,0,.234375.0537109.234375.1083984,0,.0898438-.0722656.1445312-.2519531.1445312-.9365234,0-1.9443359-.0546875-2.0166016-.0546875-.2880859,0-1.0800781.0546875-1.5664062.0546875-.1806641,0-.2519531-.0371094-.2519531-.1445312,0-.0546875.1083984-.1083984.2158203-.1083984.1259766,0,.2519531,0,.3964844-.0361328.3056641-.0537109.4140625-.2519531.4677734-.6835938.0898438-.6484375.0722656-2.125.0722656-3.4755859v-2.7001953Zm1.3857422,1.2773438c0,.0908203.0185547.1806641.0898438.2167969.234375.1259766.9550781.234375,1.6035156.234375.3779297,0,.828125-.0185547,1.2060547-.2705078.5400391-.3417969.9003906-1.1337891.9003906-2.2861328,0-1.9628906-1.0439453-3.0429688-2.6474609-3.0429688-.4492188,0-.828125.0351562-1.0439453.0898438-.0537109.0175781-.1083984.0722656-.1083984.1621094v4.8964844Z"/>
        <path class="cls-1" d="m393.0391891,32.9496546c0-2.3769531,0-2.8085938-.0361328-3.2949219-.0351562-.4863281-.1435547-.7568359-.5214844-.828125-.1796875-.0371094-.3066406-.0371094-.4140625-.0546875-.1269531-.0175781-.1982422-.0537109-.1982422-.1259766,0-.0898438.0712891-.1259766.2705078-.1259766.5576172,0,1.5839844.0546875,1.6376953.0546875.0722656,0,1.1162109-.0546875,1.6201172-.0546875.1806641,0,.2705078.0361328.2705078.1259766,0,.0722656-.0537109.1083984-.1982422.1259766-.1074219.0175781-.1972656.0175781-.3242188.0361328-.5214844.0722656-.5761719.3427734-.6113281.8642578-.0361328.4863281-.0185547.9003906-.0185547,3.2773438v2.7001953c0,1.3867188-.0175781,2.6474609.0722656,3.2958984.0722656.5214844.1435547.7197266.6123047.828125.234375.0537109.6123047.0712891.6835938.0712891.1621094.0185547.1982422.0537109.1982422.1259766s-.0712891.1269531-.2519531.1269531c-.9179688,0-1.9619141-.0546875-2.0527344-.0546875-.0537109,0-1.1162109.0546875-1.6201172.0546875-.1621094,0-.2880859-.0371094-.2880859-.1269531,0-.0722656.0712891-.1259766.2333984-.1259766.0908203,0,.2890625-.0175781.4326172-.0537109.3056641-.0722656.3603516-.4316406.4140625-.8642578.0898438-.6484375.0898438-1.9267578.0898438-3.2773438v-2.7001953Z"/>
        <path class="cls-1" d="m402.4893844,29.0414515c0-.5576172.0537109-.7373047.1982422-.7373047.1259766,0,.4316406.3603516.5576172.4853516.1621094.1806641,2.6650391,2.7373047,5.1855469,5.3125,1.4042969,1.3681641,3.2050781,3.2226562,3.6738281,3.6542969l-.1982422-7.4902344c-.0185547-.9716797-.1259766-1.2958984-.6123047-1.421875-.3066406-.0546875-.5761719-.0722656-.7021484-.0722656-.1806641,0-.2158203-.0722656-.2158203-.1445312,0-.0898438.1435547-.1074219.3242188-.1074219.7734375,0,1.5302734.0546875,1.6914062.0546875.1806641,0,.7382812-.0546875,1.4414062-.0546875.1972656,0,.2519531.0175781.2519531.1074219,0,.0722656-.0546875.1269531-.1621094.1445312-.1083984.0175781-.2519531.0175781-.4501953.0546875-.4140625.0898438-.5400391.2695312-.5400391,1.3496094l-.0361328,9.0390625c0,.9003906-.0361328.9902344-.1621094.9902344s-.3056641-.1259766-1.1884766-.9541016c-.0722656-.0361328-2.5742188-2.5205078-4.140625-4.0517578-1.8730469-1.9443359-3.6738281-3.8164062-4.1240234-4.2851562l.234375,7.0400391c.0361328,1.2431641.1435547,1.7109375.5947266,1.8193359.2871094.0712891.59375.0712891.7373047.0712891.1445312,0,.2158203.0537109.2158203.1259766,0,.0898438-.0898438.1269531-.2871094.1269531-.9726562,0-1.6210938-.0546875-1.7470703-.0546875s-.7919922.0546875-1.5664062.0546875c-.1621094,0-.2705078-.0185547-.2705078-.1269531,0-.0722656.0722656-.1259766.2519531-.1259766.1269531,0,.3242188,0,.5585938-.0712891.3964844-.1269531.4863281-.6132812.4863281-1.9277344,0-8.5878906.0175781-5.8144531,0-8.8046875Z"/>
        <path class="cls-1" d="m429.9054001,38.7650843c0,.7197266-.0175781.7382812-.2158203.8466797-.9902344.5039062-2.4306641.6835938-3.3125.6835938-1.1708984,0-3.4394531-.0898438-5.2763672-1.6201172-.9716797-.8105469-1.9443359-2.3232422-1.9443359-4.3759766,0-2.4482422,1.2431641-4.1953125,2.7197266-5.0771484,1.3857422-.8095703,2.9160156-.9179688,4.0146484-.9179688,1.1523438,0,1.9267578.1435547,2.5751953.2519531.2871094.0537109.9902344.1435547,1.3681641.1621094.1435547,0,.1435547.0712891.1435547.1435547,0,.2167969-.1259766.7558594-.1259766,2.3408203,0,.2529297-.0175781.3242188-.1435547.3242188-.0898438,0-.1083984-.1083984-.1269531-.2158203,0-.1621094-.0712891-.7207031-.3417969-1.1171875-.4140625-.59375-1.7099609-1.2597656-3.7265625-1.2597656-.9726562,0-2.1074219.0361328-3.3134766.9541016-.9179688.7021484-1.5126953,2.0712891-1.5126953,3.8535156,0,2.1425781,1.1708984,3.7275391,1.6386719,4.1767578,1.1884766,1.1523438,2.5214844,1.6748047,4.0878906,1.6748047.5039062,0,1.2958984-.0898438,1.7099609-.3056641.1806641-.1083984.3056641-.2890625.3056641-.5410156v-2.5917969c0-1.1894531-.0898438-1.4228516-.7197266-1.5126953-.1083984-.0185547-.2880859-.0361328-.4326172-.0361328-.1435547,0-.2148438-.0722656-.2148438-.1259766,0-.0908203.0712891-.1259766.2695312-.1259766.7207031,0,1.7646484.0351562,1.8359375.0351562.0722656,0,1.1347656-.0351562,1.6210938-.0351562.1796875,0,.2519531.0351562.2519531.1259766,0,.0537109-.0537109.1259766-.2158203.1259766-.1259766,0-.1621094,0-.3056641.0175781-.4326172.0546875-.5410156.3789062-.5761719.9003906-.0371094.5224609-.0371094.9726562-.0371094,1.6210938v1.6201172Z"/>
      </g>
      <g>
        <circle class="cls-5" cx="99.6107983" cy="70.4938475" r="70.4104271"/>
        <g>
          <path class="cls-1" d="m60.1798141,53.5746546c.4335938.6191406.9599609,1.1455078,1.609375,1.578125,2.0732422-.8046875,3.8066406-1.9179688,5.2919922-3.3417969,1.2685547.6191406,1.9179688,1.1142578,1.9179688,1.3925781,0,.1855469-.2783203.2783203-.8349609.2783203h-.4648438c-1.6396484.9287109-3.3417969,1.6708984-5.1367188,2.1972656,1.8261719.9287109,4.8896484,1.3925781,9.1289062,1.3925781,2.3212891,0,5.0439453-.0927734,8.1386719-.3408203-.3710938.5576172-.6191406,1.1757812-.8359375,1.7949219h-6.1572266c-4.5800781,0-7.7363281-.3398438-9.4072266-1.0830078-1.8261719-.8037109-3.0947266-1.8564453-3.7753906-3.1865234-.8974609,1.3613281-1.8876953,2.6298828-2.9404297,3.8369141,0,.6806641-.0927734,1.0517578-.3398438,1.0517578-.3408203,0-.8974609-.6806641-1.7333984-2.0732422,1.4238281-.8046875,2.7236328-1.7333984,3.9609375-2.8466797v-7.4580078h-3.7128906l-.2783203-.7119141h3.8056641l1.0214844-1.2685547c1.1142578.8974609,1.7021484,1.4541016,1.7021484,1.7021484,0,.1240234-.0927734.2480469-.3095703.3095703l-.6503906.4326172v6.34375Zm-4.0839844-18.2880859c2.9082031,1.3310547,4.3632812,2.7236328,4.3632812,4.2080078,0,.7128906-.3408203,1.0839844-1.0214844,1.0839844-.4335938,0-.7734375-.3408203-1.0214844-1.0214844-.4638672-1.3613281-1.3925781-2.5996094-2.7851562-3.7441406l.4648438-.5263672Zm16.1835938,11.2333984v-2.5683594c1.7949219.0615234,2.6611328.2783203,2.6611328.6181641,0,.1865234-.3398438.4023438-1.0517578.6503906v1.2998047h2.1347656l1.1455078-1.609375c.0927734.0615234.1240234.1230469.1855469.2167969.5566406.4951172,1.0214844.9902344,1.4541016,1.515625l-.3095703.5576172h-4.6103516v3.15625h3.0322266l1.2695312-1.6396484.2470703.2470703.2167969.1552734c.4638672.4013672.8349609.8652344,1.1757812,1.3300781l-.2783203.5878906h-18.0410156l-.3095703-.6806641h5.0126953v-3.15625h-3.9296875l-.2783203-.6806641h4.2080078v-2.5996094c1.7333984.03125,2.6308594.2480469,2.6308594.6494141,0,.2167969-.3710938.4335938-1.0527344.6503906v1.2998047h4.4873047Zm-8.1074219-7.2724609v2.1044922c0,.3095703.0615234.5253906.2167969.6494141.1542969.1240234.8349609.1552734,1.9804688.1552734,1.2998047,0,2.0117188-.1240234,2.2275391-.3710938.1552734-.2480469.3095703-.7431641.4023438-1.4550781l.6191406.1855469c0,.1240234-.03125.2167969-.03125.3710938,0,.6503906.2792969.9902344.8359375.9599609v.0302734c0,.6503906-.2167969,1.0839844-.6503906,1.2695312-.4638672.1855469-1.484375.3085938-3.09375.3085938-1.9189453,0-3.0634766-.1230469-3.4355469-.3085938-.3398438-.1855469-.4951172-.6816406-.4951172-1.4238281v-3.8984375c.2792969.0917969.8359375.3398438,1.7021484.7109375h3.2802734v-2.1972656h-5.4775391l-.2783203-.6806641h5.5087891l.9277344-1.1445312c1.0214844.7734375,1.4853516,1.2373047,1.4853516,1.4228516,0,.1552734-.0615234.2792969-.2167969.3408203l-.4951172.3408203v3.2490234h-1.4541016v-.6191406h-3.5585938Zm8.1074219,11.109375v-3.15625h-4.4873047v3.15625h4.4873047Zm.5263672-11.109375v1.9501953c0,.3398438.03125.5878906.1542969.6796875.1552734.1855469.8671875.2167969,2.0732422.2167969,1.3623047,0,2.1357422-.1542969,2.3212891-.4638672.2167969-.3408203.3710938-.8046875.4638672-1.4228516l.6191406.2158203c0,.5576172.0615234.9599609.1542969,1.1757812.1240234.1865234.3408203.2783203.7119141.3095703,0,.6806641-.3095703,1.0830078-.8349609,1.2695312-.4648438.1855469-1.5478516.2773438-3.2802734.2773438-1.8564453,0-3.0019531-.1542969-3.4042969-.4023438-.2783203-.1855469-.4326172-.5878906-.4326172-1.1757812v-4.0224609c.5253906.2167969,1.0830078.4335938,1.6396484.6806641h3.3417969v-2.1972656h-5.3222656l-.3095703-.6806641h5.3847656l.9589844-1.1445312c1.0214844.7734375,1.4853516,1.2685547,1.4853516,1.4541016,0,.1240234-.0927734.2167969-.2470703.3408203l-.5263672.3710938v3.2490234h-1.4238281v-.6806641h-3.5273438Zm-.9589844,12.7802734c4.3007812.7421875,6.4052734,1.7324219,6.4052734,2.8779297,0,.6191406-.2783203.9287109-.8359375.9287109-.2783203,0-.5878906-.1240234-.8974609-.4335938-1.1132812-1.1142578-2.7851562-2.0429688-5.0439453-2.7851562l.3720703-.5878906Z"/>
          <path class="cls-1" d="m109.3868454,51.408639c.0615234.4951172-.3095703,1.1142578-1.2685547,1.2382812-1.2998047.1230469-2.5683594-.4951172-3.8369141-1.4550781-1.3310547-1.0205078-3.0019531-2.8769531-4.2705078-4.3935547-1.2695312-1.5478516-2.4453125-3.0322266-2.9404297-3.6201172-.6181641-.7128906-1.1445312-1.2695312-1.6708984-1.2695312-.5566406,0-.9902344.4335938-1.3925781.9902344-.4326172.5566406-1.4853516,2.1972656-1.9492188,2.9091797-.4023438.6806641-1.3925781,1.9804688-2.2285156,2.2275391-.8662109.2480469-1.6396484,0-2.2275391-.2783203-.6191406-.2783203-.9589844-.8046875-.8046875-1.1757812.1240234-.2783203.5576172-.2470703.9287109-.2167969.3398438.03125.7734375-.0302734,1.2373047-.1855469.4648438-.1855469.9599609-.6191406,1.609375-1.1757812.6191406-.5263672,1.2998047-1.2373047,1.8261719-1.7949219.5566406-.5878906.7734375-.8662109,1.3613281-1.546875s.9589844-.9902344,1.546875-1.0214844c.5878906-.0615234,1.1455078.5576172,1.7021484,1.1142578.5263672.5253906,1.609375,1.4853516,2.5371094,2.5058594.9287109,1.0214844,2.1972656,2.1660156,3.5283203,3.4042969.8046875.7734375,2.1347656,1.8564453,3.15625,2.4140625.9902344.5253906,1.7636719.6806641,2.2275391.7109375.4023438.03125.8974609.1552734.9287109.6191406Zm-4.796875-7.953125c-.4638672-.4326172-1.0517578-.8662109-1.8251953-1.3925781-.2480469-.1855469-.4023438-.4013672-.2480469-.6181641.1240234-.1552734.3720703-.1240234.5263672-.1240234.4638672.03125,1.0214844.1542969,1.6708984.4023438.6503906.2167969,1.578125.7119141,1.8564453,1.2070312.3095703.5253906.03125,1.0214844-.4326172,1.1445312-.4335938.1240234-1.1142578-.1542969-1.5478516-.6191406Zm2.4453125-1.2373047c-.4648438-.5566406-1.0214844-.8974609-1.9189453-1.2685547-.2470703-.1240234-.4023438-.4023438-.2783203-.5878906.0927734-.1855469.3408203-.1542969.5263672-.1542969.4638672-.03125,1.0517578.0917969,1.7011719.2773438.6191406.1865234,1.5478516.6503906,1.8876953,1.1767578.3095703.4951172.0625.9902344-.3710938,1.1445312-.4326172.1552734-1.1445312-.1240234-1.546875-.5878906Z"/>
          <path class="cls-1" d="m136.6846969,54.2250452c-1.1455078,1.2998047-2.5371094,2.0419922-4.1162109,2.4443359-1.578125.4335938-3.09375.3720703-4.9511719.03125-1.8876953-.4023438-2.6298828-1.0517578-2.6298828-1.9804688-.03125-.9287109,1.1757812-1.6708984,2.1972656-1.8564453,1.0517578-.2167969,2.2900391-.1552734,3.2177734.5878906.8046875.6494141.7744141,1.3925781.4023438,2.1347656,1.4853516-.1855469,2.8779297-.6191406,3.8681641-1.4238281,1.2070312-.9902344,1.7636719-2.3828125,1.7636719-3.8056641.03125-1.4238281-1.0205078-3.15625-2.7539062-3.9306641-1.7324219-.7421875-3.5898438-.8037109-5.5078125-.1855469-1.9492188.6191406-3.1875,1.578125-4.1162109,2.8164062-.9277344,1.2070312-1.6083984,2.6611328-1.8564453,3.4658203-.2470703.8046875-.5263672,1.2373047-.9277344,1.4541016-.1865234.09375-.5263672.2480469-1.0214844-.1542969-.3408203-.2783203-.3710938-.9287109-.3408203-1.3613281.03125-.4023438.8046875-1.3925781,1.3623047-2.1044922.5878906-.7431641,1.3916016-1.8876953,2.4443359-3.0322266,1.0517578-1.1455078,2.7226562-3.1875,3.4033203-3.9609375.6503906-.8046875,2.7851562-3.3730469,3.1259766-3.8378906.3398438-.4335938.4951172-.7734375.3398438-.8974609-.1542969-.1542969-.6806641.0625-.9902344.2480469-.3398438.2158203-1.8564453,1.1142578-2.7226562,1.6083984-.8974609.4648438-1.546875.6816406-2.3212891.6816406-.7734375,0-1.2988281-.4023438-1.6083984-.6816406-.3095703-.3085938-.4335938-.7734375-.3408203-.9902344.1240234-.3085938.4335938-.3398438.6806641-.2470703.2783203.0615234.6503906.1855469,1.0527344.1855469.4013672.03125.7734375-.0302734,1.7324219-.4326172.9287109-.3720703,2.1660156-.9599609,3.21875-1.5166016,1.0517578-.5576172,1.7011719-.9599609,2.2890625-.9902344.6191406-.03125,1.2382812.3408203,1.640625.8046875.4023438.4326172.4326172.7119141.3710938.9902344s-.2167969.4326172-.6494141.7119141c-.4335938.2470703-1.3623047,1.0517578-2.1972656,1.8867188-.8359375.8671875-1.8564453,2.1357422-2.5996094,2.9404297,0,0-.7421875.8046875-2.1972656,2.3212891.4335938-.3105469.8671875-.5576172,1.7021484-.8671875,1.2070312-.4335938,2.4755859-.6806641,4.0537109-.5253906,1.609375.1542969,2.9091797.6494141,4.0849609,1.484375,1.1757812.8359375,2.1044922,2.0742188,2.2587891,3.8691406.1552734,1.7011719-.3095703,2.9394531-1.3613281,4.1152344Zm-8.9121094-.4951172c-.9902344.0302734-1.609375.6181641-1.1757812,1.2373047.2470703.3408203,1.0205078.6503906,2.3203125.6816406,1.2070312-1.0839844.1240234-1.9189453-1.1445312-1.9189453Z"/>
        </g>
        <g>
          <g>
            <path class="cls-1" d="m82.0118454,88.2738734c.4257812-.5800781.7744141-1.1416016,1.1220703-1.7216797-.0380859-.0585938-.0966797-.1162109-.1542969-.1748047-.4648438-.5029297-1.0058594-.9277344-1.6640625-1.4121094-.2128906-.1347656-.5224609-.3476562-.4257812-.5029297.1162109-.1748047.3095703-.0966797.8125.1162109.5224609.2128906.9873047.5029297,1.9355469,1.0830078.1347656-.2119141.2509766-.4443359.3671875-.6962891.6777344-1.2578125.9677734-2.0703125,1.0839844-2.6113281.1152344-.5615234.0380859-1.0068359-.1748047-1.2773438-.1933594-.2519531-.4257812-.5419922-.2900391-.7353516.1738281-.2519531.5029297-.1552734.9287109.0195312.5029297.1738281.8710938.5029297,1.1220703.8896484.2519531.40625.1552734.7353516.0195312.8710938-.1542969.1347656-.3095703.2509766-.3671875.5029297-.078125.2314453-.1943359.6572266-.4453125,1.1796875-.3095703.6777344-.7744141,1.5283203-1.3740234,2.4580078.5615234.40625,1.0449219.8320312,1.3544922,1.140625.6191406.6777344.8125,1.5292969.2324219,1.8378906-.5615234.3105469-1.1611328-.1347656-1.625-.8701172-.2324219-.3486328-.4648438-.6962891-.6777344-1.0058594-.7548828,1.0830078-1.1796875,1.7021484-2.1474609,2.7666016s-1.6835938,1.703125-2.9599609,2.5927734c-.484375.3291016-.7548828.3867188-.8125.2705078-.078125-.1152344.1152344-.2900391.3476562-.5029297.5029297-.4257812.9873047-.8320312,1.7216797-1.6054688.7158203-.7939453,1.3164062-1.5478516,2.0703125-2.6123047Z"/>
            <path class="cls-1" d="m108.9981735,87.0160609c-.0380859.2324219-.3095703.3095703-.7158203.2324219-.3867188-.0585938-1.4892578-.1933594-2.1865234-.2519531-.6962891-.0576172-2.2246094-.1347656-2.9404297-.0966797-.6962891.0585938-2.109375.0966797-3.0185547.1943359-.7158203.0771484-1.5478516.2705078-2.2246094.2890625-.6962891,0-1.3544922-.2119141-1.7412109-.5019531-.3876953-.2910156-.5419922-.7363281-.3291016-.890625.3291016-.2519531.8896484-.0195312,1.3740234.1162109.4443359.1357422,1.3535156.2324219,2.1083984.2128906.7929688-.0390625,2.4375-.1162109,3.2695312-.1357422.8134766-.0390625,3.0771484-.1152344,3.8505859-.1347656.7929688,0,1.5869141.0195312,1.9931641.1933594s.5996094.5029297.5605469.7734375Z"/>
            <path class="cls-1" d="m115.2823532,93.5941859c.3291016-.2128906.7734375-.5605469,1.1025391-.8505859,1.0058594-.8710938,1.7998047-1.6835938,2.4384766-2.6123047.6191406-.9482422,1.1025391-1.8574219,1.4892578-2.9023438.2705078-.6767578.4833984-1.4121094.6777344-2.0898438-.5419922.0585938-1.0068359.1162109-1.3164062.1552734-.4257812.0380859-.9667969.1552734-1.3730469.1357422-.4453125-.0195312-1.0839844-.1357422-1.5097656-.484375-.3867188-.3476562-.5224609-.6962891-.40625-.8701172.1552734-.2714844.6962891-.0966797,1.0449219.0185547.3486328.0976562.9287109.2128906,1.7802734.2324219.7353516.0195312,1.3349609-.0390625,1.9736328-.0771484,0,0,.0185547-.0195312.0185547-.0380859.1552734-.8320312.2714844-1.7617188.2910156-2.2060547.0380859-.4257812-.1552734-.8896484-.3291016-1.1416016-.1933594-.2714844-.2900391-.5224609-.2128906-.6777344.1162109-.1738281.3671875-.1542969.7929688-.0195312.40625.1357422.6582031.2910156.890625.5615234.2128906.2324219.2705078.5419922.1738281.7548828-.0576172.1347656-.1357422.3671875-.1738281.6767578-.1357422.6777344-.2128906,1.3154297-.3486328,1.9736328.4833984-.0390625.9677734-.1162109,1.4707031-.1933594.7539062-.0966797,1.1416016-.1933594,1.4892578-.2900391.3486328-.0966797.6386719-.2900391.8125-.4257812.1748047-.1552734.4453125-.1748047.7744141.0771484s.6191406.5800781.7158203.8125,0,.4648438-.1162109.5615234c-.0966797.0771484-.1933594.3291016-.2324219.5029297-.0380859.3095703-.0966797.7929688-.1933594,1.5859375-.1162109.8134766-.2705078,1.6064453-.5224609,2.7285156-.2705078,1.0839844-.5029297,1.7226562-.8125,2.1865234-.2900391.4453125-.5605469.5615234-.8701172.4833984-.2324219-.0576172-.3486328-.2128906-.4648438-.5605469-.1162109-.3486328-.2900391-.6191406-.5605469-.890625-.2519531-.2900391-.5810547-.5029297-.9101562-.6962891-.1738281-.0966797-.2705078-.2314453-.2314453-.3291016.0380859-.0966797.1933594-.1152344.40625-.0380859.3291016.0966797.6962891.2314453,1.21875.3867188.5029297.1552734.8320312.0966797,1.0058594-.2705078.1933594-.3681641.3095703-.7939453.4833984-1.6835938.1748047-.9091797.2519531-1.6445312.3486328-2.7861328.0195312-.3681641.0390625-.5810547-.0390625-.6386719-.0576172-.0576172-.2314453-.1162109-.3671875-.1552734-.1357422-.0380859-.2705078,0-.40625,0-.1162109.0195312-.3095703.078125-.9091797.1748047-.5615234.0966797-1.2001953.1552734-2.3222656.3095703-.0576172.1542969-.1162109.3095703-.1738281.5029297-.4257812,1.1220703-.7929688,1.9736328-1.2773438,2.8632812-.4833984.9091797-.9091797,1.6259766-1.6054688,2.4960938-.6777344.8515625-1.4316406,1.5869141-2.2441406,2.1865234-.40625.3095703-.9101562.5996094-1.296875.7929688-.2705078.1357422-.4257812-.0771484-.1738281-.2324219Z"/>
            <path class="cls-1" d="m147.6856735,87.0160609c-.0380859.2324219-.3095703.3095703-.7158203.2324219-.3867188-.0585938-1.4892578-.1933594-2.1865234-.2519531-.6962891-.0576172-2.2246094-.1347656-2.9404297-.0966797-.6962891.0585938-2.109375.0966797-3.0185547.1943359-.7158203.0771484-1.5478516.2705078-2.2246094.2890625-.6962891,0-1.3544922-.2119141-1.7412109-.5019531-.3876953-.2910156-.5419922-.7363281-.3291016-.890625.3291016-.2519531.8896484-.0195312,1.3740234.1162109.4443359.1357422,1.3535156.2324219,2.1083984.2128906.7929688-.0390625,2.4375-.1162109,3.2695312-.1357422.8134766-.0390625,3.0771484-.1152344,3.8505859-.1347656.7929688,0,1.5869141.0195312,1.9931641.1933594s.5996094.5029297.5605469.7734375Z"/>
          </g>
          <path class="cls-2" d="m50.6573532,105.7602015v-2.0800781c2.0224609-3.4667969,5.2587891-8.1474609,9.5927734-14.0419922,3.9287109-5.4316406,5.8359375-9.5927734,5.8359375-12.4814453,0-1.6757812-.4042969-3.2363281-1.1552734-4.4492188-1.0986328-1.6757812-2.6005859-2.484375-4.6230469-2.484375-1.5605469,0-2.8310547.4619141-3.8720703,1.4443359-1.0976562.9814453-1.7333984,2.3115234-1.90625,3.9287109,1.2128906.3476562,1.7910156,1.0976562,1.7910156,2.3691406,0,1.6757812-.8085938,2.4853516-2.4267578,2.4853516-1.7910156,0-2.6582031-1.0986328-2.6582031-3.1787109,0-2.1953125.8085938-4.2177734,2.484375-5.8935547,1.7919922-1.8496094,4.0449219-2.7158203,6.7617188-2.7158203,2.3691406,0,4.3916016.578125,6.0087891,1.7910156,2.1386719,1.6181641,3.1787109,3.8710938,3.1787109,6.7607422,0,2.5429688-.9248047,5.1435547-2.8320312,7.9169922-.8662109,1.2714844-2.2529297,3.0625-4.2753906,5.3740234-3.5253906,4.1025391-6.703125,8.1474609-9.4765625,12.3662109h11.4414062c1.90625,0,3.1201172-.8095703,3.7558594-2.4277344.3466797-.9824219.6357422-2.4267578.8085938-4.2753906h1.2138672v9.5917969h-19.6474609Z"/>
        </g>
      </g>
    </g>
  </g>
</svg>