<?xml version="1.0" encoding="utf-8"?>
<!-- Generator: Adobe Illustrator 27.5.0, SVG Export Plug-In . SVG Version: 6.00 Build 0)  -->
<svg version="1.1" id="_レイヤー_2" xmlns="http://www.w3.org/2000/svg" xmlns:xlink="http://www.w3.org/1999/xlink" x="0px"
	 y="0px" viewBox="0 0 750 113" style="enable-background:new 0 0 750 113;" xml:space="preserve">
<style type="text/css">
	.st0{clip-path:url(#SVGID_00000171721852236476248050000013214586543573947536_);}
	.st1{fill:#FFFFFF;}
</style>
<g id="_レイヤー_1-2">
	<g>
		<defs>
			<rect id="SVGID_1_" width="750" height="149.3"/>
		</defs>
		<clipPath id="SVGID_00000039856395886879164850000009690619793778274748_">
			<use xlink:href="#SVGID_1_"  style="overflow:visible;"/>
		</clipPath>
		<g style="clip-path:url(#SVGID_00000039856395886879164850000009690619793778274748_);">
			<g>
				<path class="st1" d="M292.7,19.2c0-2.8,0-3.3,0-3.9c0-0.6-0.1-0.9-0.7-1c-0.1,0-0.4-0.1-0.6-0.1c-0.1,0-0.2,0-0.2-0.1
					c0-0.1,0.1-0.1,0.3-0.1c0.8,0,1.9,0.1,2,0.1c0.2,0,1.4-0.1,2.4-0.1c1.8,0,5.1-0.2,7.2,2.1c0.9,0.9,1.7,2.4,1.7,4.6
					c0,2.3-0.9,4-1.9,5.1c-0.8,0.8-2.4,2.1-5.5,2.1c-0.8,0-1.7-0.1-2.5-0.1c-0.8-0.1-1.4-0.1-1.5-0.1c0,0-0.3,0-0.7,0
					c-0.4,0-0.8,0-1,0c-0.2,0-0.3,0-0.3-0.1c0-0.1,0-0.1,0.2-0.1c0.2,0,0.3,0,0.5-0.1c0.4-0.1,0.5-0.5,0.5-1
					c0.1-0.8,0.1-2.2,0.1-3.9V19.2z M294.2,21.1c0,1.9,0,3.6,0,3.9c0,0.5,0.1,1.2,0.2,1.4c0.2,0.3,0.9,0.7,3.1,0.7
					c1.7,0,3.2-0.6,4.3-1.7c0.9-0.9,1.4-2.6,1.4-4.3c0-2.3-1-3.8-1.7-4.5c-1.7-1.8-3.7-2-5.9-2c-0.4,0-1,0.1-1.2,0.1
					c-0.2,0.1-0.2,0.2-0.2,0.4c0,0.6,0,2.4,0,3.8V21.1z"/>
				<path class="st1" d="M311.7,20.4c0-2.4,0-2.8,0-3.3c0-0.5-0.2-0.8-0.7-0.9c-0.1,0-0.3,0-0.4,0c-0.1,0-0.2-0.1-0.2-0.1
					c0-0.1,0.1-0.1,0.3-0.1c0.4,0,0.8,0,1.9,0.1c0.1,0,3.3,0,3.7,0c0.4,0,0.6,0,0.7-0.1c0.1,0,0.1-0.1,0.2-0.1c0,0,0.1,0,0.1,0.1
					c0,0.1-0.1,0.4-0.1,0.8c0,0.3,0,0.6-0.1,0.9c0,0.2,0,0.3-0.1,0.3s-0.1-0.1-0.1-0.2c0-0.3-0.1-0.4-0.1-0.6
					c-0.1-0.4-0.3-0.5-1.2-0.5c-0.2,0-2,0-2.1,0c-0.1,0-0.1,0-0.1,0.1v4.1c0,0.1,0,0.2,0.1,0.2c0.2,0,2.1,0,2.4-0.1
					c0.4,0,0.7-0.1,0.8-0.3c0.1-0.1,0.1-0.1,0.2-0.1c0,0,0.1,0,0.1,0.1c0,0.1-0.1,0.4-0.1,1c-0.1,0.5-0.1,0.9-0.1,1.1
					c0,0.1-0.1,0.2-0.1,0.2c-0.1,0-0.1-0.1-0.1-0.2c0-0.1,0-0.3-0.1-0.4c-0.1-0.2-0.2-0.5-0.9-0.5c-0.4,0-1.9-0.1-2.2-0.1
					c-0.1,0-0.1,0.1-0.1,0.1v1.3c0,0.6,0,2.1,0,2.4c0,0.7,0.1,1,0.5,1.2c0.3,0.1,0.7,0.2,1.3,0.2c0.3,0,0.9,0,1.4-0.1
					c0.5-0.2,0.7-0.5,0.8-1.2c0-0.2,0.1-0.3,0.2-0.3c0.1,0,0.1,0.2,0.1,0.3c0,0.1-0.1,1.3-0.2,1.6c-0.1,0.4-0.2,0.4-0.8,0.4
					c-1.2,0-1.7,0-2.3,0c-0.6,0-1.5-0.1-2.1-0.1c-0.4,0-0.8,0.1-1.2,0.1c-0.2,0-0.3,0-0.3-0.1c0-0.1,0.1-0.1,0.2-0.1
					c0.1,0,0.2,0,0.4-0.1c0.3-0.1,0.5-0.3,0.6-1.4c0-0.6,0-1.4,0-2.7V20.4z"/>
				<path class="st1" d="M325.8,23.2c0,2.1,0.1,3.1,0.4,3.4c0.3,0.3,0.6,0.4,1.9,0.4c0.8,0,1.5,0,1.9-0.5c0.2-0.3,0.3-0.6,0.3-0.9
					c0-0.1,0.1-0.2,0.1-0.2c0.1,0,0.1,0.1,0.1,0.2c0,0.2-0.1,1.2-0.2,1.6c-0.1,0.4-0.1,0.5-1,0.5c-1.2,0-2.6-0.1-4.4-0.1
					c-0.6,0-1,0.1-1.6,0.1c-0.2,0-0.3,0-0.3-0.1c0-0.1,0.1-0.1,0.2-0.1c0.1,0,0.3,0,0.4,0c0.3-0.1,0.4-0.4,0.5-0.8
					c0.1-0.7,0.1-1.9,0.1-3.3v-2.7c0-2.4,0-2.8,0-3.3c0-0.5-0.1-0.8-0.7-0.9c-0.1,0-0.3,0-0.4,0c-0.1,0-0.2-0.1-0.2-0.1
					c0-0.1,0.1-0.1,0.3-0.1c0.8,0,1.8,0.1,1.9,0.1c0.3,0,1.4-0.1,1.9-0.1c0.2,0,0.2,0.1,0.2,0.1s-0.1,0.1-0.2,0.1
					c-0.1,0-0.3,0-0.5,0c-0.5,0.1-0.6,0.4-0.6,0.9c0,0.5,0,0.9,0,3.3V23.2z"/>
				<path class="st1" d="M336.6,20.4c0-2.4,0-2.8,0-3.3c0-0.5-0.1-0.8-0.5-0.8c-0.2,0-0.3,0-0.4-0.1c-0.1,0-0.2-0.1-0.2-0.1
					c0-0.1,0.1-0.1,0.3-0.1c0.6,0,1.6,0.1,1.6,0.1c0.1,0,1.1-0.1,1.6-0.1c0.2,0,0.3,0,0.3,0.1c0,0.1-0.1,0.1-0.2,0.1
					c-0.1,0-0.2,0-0.3,0c-0.5,0.1-0.6,0.3-0.6,0.9c0,0.5,0,0.9,0,3.3v2.7c0,1.4,0,2.6,0.1,3.3c0.1,0.5,0.1,0.7,0.6,0.8
					c0.2,0.1,0.6,0.1,0.7,0.1c0.2,0,0.2,0.1,0.2,0.1s-0.1,0.1-0.3,0.1c-0.9,0-2-0.1-2.1-0.1c-0.1,0-1.1,0.1-1.6,0.1
					c-0.2,0-0.3,0-0.3-0.1c0-0.1,0.1-0.1,0.2-0.1c0.1,0,0.3,0,0.4-0.1c0.3-0.1,0.4-0.4,0.4-0.9c0.1-0.6,0.1-1.9,0.1-3.3V20.4z"/>
				<path class="st1" d="M345.2,17.5c-0.4-0.8-0.5-1.1-1.1-1.2c-0.3,0-0.5-0.1-0.5-0.1c-0.1,0-0.2-0.1-0.2-0.1
					c0-0.1,0.1-0.1,0.3-0.1c0.8,0,1.9,0.1,2.1,0.1c0.2,0,1-0.1,1.7-0.1c0.2,0,0.3,0,0.3,0.1c0,0.1-0.1,0.1-0.3,0.1
					c-0.3,0-0.4,0-0.6,0.1c-0.2,0.1-0.2,0.2-0.2,0.3c0,0.1,0.1,0.5,0.3,0.9l3.2,8c0.9-2,3-7.2,3.3-8.3c0.1-0.2,0.1-0.5,0.1-0.6
					c0-0.1,0-0.2-0.2-0.3c-0.1-0.1-0.4-0.1-0.6-0.1c-0.1,0-0.2,0-0.2-0.1c0-0.1,0.1-0.1,0.3-0.1c0.6,0,1.5,0.1,1.7,0.1
					c0.1,0,0.8-0.1,1.2-0.1c0.2,0,0.3,0,0.3,0.1c0,0.1-0.1,0.1-0.2,0.1c-0.2,0-0.5,0-0.8,0.2c-0.2,0.1-0.4,0.4-0.8,1.4
					c-0.1,0.2-1,2.3-1.8,4.1c-1,2.2-1.7,3.9-2,4.5c-0.5,1-0.5,1.3-0.7,1.3c-0.2,0-0.3-0.2-0.6-1L345.2,17.5z"/>
				<path class="st1" d="M361.2,20.4c0-2.4,0-2.8,0-3.3c0-0.5-0.2-0.8-0.7-0.9c-0.1,0-0.3,0-0.4,0c-0.1,0-0.2-0.1-0.2-0.1
					c0-0.1,0.1-0.1,0.3-0.1c0.4,0,0.8,0,1.9,0.1c0.1,0,3.3,0,3.7,0c0.4,0,0.6,0,0.7-0.1c0.1,0,0.1-0.1,0.2-0.1c0,0,0.1,0,0.1,0.1
					c0,0.1-0.1,0.4-0.1,0.8c0,0.3,0,0.6-0.1,0.9c0,0.2,0,0.3-0.1,0.3s-0.1-0.1-0.1-0.2c0-0.3-0.1-0.4-0.1-0.6
					c-0.1-0.4-0.3-0.5-1.2-0.5c-0.2,0-2,0-2.1,0c-0.1,0-0.1,0-0.1,0.1v4.1c0,0.1,0,0.2,0.1,0.2c0.2,0,2.1,0,2.4-0.1
					c0.4,0,0.7-0.1,0.8-0.3c0.1-0.1,0.1-0.1,0.2-0.1c0,0,0.1,0,0.1,0.1c0,0.1-0.1,0.4-0.1,1c-0.1,0.5-0.1,0.9-0.1,1.1
					c0,0.1-0.1,0.2-0.1,0.2c-0.1,0-0.1-0.1-0.1-0.2c0-0.1,0-0.3-0.1-0.4c-0.1-0.2-0.2-0.5-0.9-0.5c-0.4,0-1.9-0.1-2.2-0.1
					c-0.1,0-0.1,0.1-0.1,0.1v1.3c0,0.6,0,2.1,0,2.4c0,0.7,0.1,1,0.5,1.2c0.3,0.1,0.7,0.2,1.3,0.2c0.3,0,0.9,0,1.4-0.1
					c0.5-0.2,0.7-0.5,0.8-1.2c0-0.2,0.1-0.3,0.2-0.3c0.1,0,0.1,0.2,0.1,0.3c0,0.1-0.1,1.3-0.2,1.6c-0.1,0.4-0.2,0.4-0.8,0.4
					c-1.2,0-1.7,0-2.3,0c-0.6,0-1.5-0.1-2.1-0.1c-0.4,0-0.8,0.1-1.2,0.1c-0.2,0-0.3,0-0.3-0.1c0-0.1,0.1-0.1,0.2-0.1
					c0.1,0,0.2,0,0.4-0.1c0.3-0.1,0.5-0.3,0.6-1.4c0-0.6,0-1.4,0-2.7V20.4z"/>
				<path class="st1" d="M373.9,20.4c0-2.4,0-2.8,0-3.3c0-0.5-0.2-0.8-0.7-0.9c-0.1,0-0.3,0-0.4,0c-0.1,0-0.2,0-0.2-0.1
					s0.1-0.1,0.2-0.1c0.8,0,1.9,0.1,1.9,0.1c0.2,0,1.4-0.1,1.9-0.1c1,0,2.1,0.1,3,0.7c0.3,0.3,1.1,1,1.1,2.2c0,1-0.5,2.3-1.9,3.4
					c1.3,1.6,2.4,3,3.3,3.9c0.9,0.9,1.4,1,1.9,1.1c0.1,0,0.5,0,0.6,0c0.1,0,0.2,0.1,0.2,0.1c0,0.1-0.1,0.1-0.3,0.1H383
					c-0.8,0-1.2-0.1-1.6-0.2c-0.8-0.3-1.3-1.1-2.2-2.3c-0.7-0.9-1.4-1.8-1.7-2.2c-0.1-0.1-0.1-0.1-0.2-0.1l-1.9,0
					c-0.1,0-0.1,0-0.1,0.1V23c0,1.4,0,2.8,0.1,3.4c0.1,0.4,0.1,0.8,0.7,0.9c0.2,0,0.4,0,0.5,0c0.2,0,0.2,0.1,0.2,0.1
					c0,0.1-0.1,0.1-0.3,0.1c-0.9,0-1.9-0.1-2-0.1c-0.3,0-1.1,0.1-1.6,0.1c-0.2,0-0.3,0-0.3-0.1c0-0.1,0.1-0.1,0.2-0.1
					c0.1,0,0.3,0,0.4,0c0.3-0.1,0.4-0.3,0.5-0.7c0.1-0.6,0.1-2.1,0.1-3.5V20.4z M375.3,21.7c0,0.1,0,0.2,0.1,0.2
					c0.2,0.1,1,0.2,1.6,0.2c0.4,0,0.8,0,1.2-0.3c0.5-0.3,0.9-1.1,0.9-2.3c0-2-1-3-2.6-3c-0.5,0-0.8,0-1,0.1c-0.1,0-0.1,0.1-0.1,0.2
					V21.7z"/>
				<path class="st1" d="M390.5,23.7c0-0.9-0.1-1.2-0.4-1.7c-0.1-0.2-2.2-3.6-2.8-4.4c-0.5-0.7-0.7-0.9-0.9-1.1
					c-0.3-0.2-0.5-0.3-0.8-0.3c-0.1,0-0.2-0.1-0.2-0.1c0-0.1,0.1-0.1,0.2-0.1c0.3,0,1.7,0.1,1.7,0.1c0.1,0,0.7-0.1,1.4-0.1
					c0.2,0,0.2,0.1,0.2,0.1c0,0.1-0.1,0.1-0.2,0.1c-0.3,0.1-0.3,0.1-0.3,0.3c0,0.2,0.1,0.4,0.2,0.6c0.2,0.5,2.6,4.3,2.9,4.7
					c0.3-0.6,2.3-3.9,2.6-4.4c0.3-0.6,0.4-0.8,0.4-1c0-0.2-0.2-0.2-0.4-0.3c-0.1,0-0.2-0.1-0.2-0.1c0-0.1,0-0.1,0.2-0.1
					c0.4,0,0.8,0.1,1.1,0.1c0.2,0,1.3-0.1,1.6-0.1c0.2,0,0.2,0.1,0.2,0.1c0,0.1-0.1,0.1-0.2,0.1c-0.4,0-0.6,0.1-0.9,0.2
					c-0.3,0.2-0.4,0.3-0.7,0.7c-1,1.4-2.8,4.4-3.1,5c-0.2,0.6-0.2,1-0.2,1.4V25c0,0.1,0,0.8,0,1.4c0,0.4,0.1,0.7,0.6,0.8
					c0.2,0.1,0.5,0.1,0.7,0.1c0.1,0,0.2,0.1,0.2,0.1c0,0.1-0.1,0.1-0.2,0.1c-0.9,0-2-0.1-2.1-0.1c0,0-1.1,0.1-1.6,0.1
					c-0.2,0-0.3-0.1-0.3-0.1c0-0.1,0.1-0.1,0.2-0.1c0.1,0,0.3,0,0.5-0.1c0.3-0.1,0.4-0.4,0.5-0.9c0.1-0.6,0.1-1.3,0.1-1.4V23.7z"/>
				<path class="st1" d="M411.2,19.2c0-2.8,0-3.3,0-3.9c0-0.6-0.2-0.9-0.8-1c-0.1,0-0.5-0.1-0.5-0.1c-0.2,0-0.2,0-0.2-0.1
					c0-0.1,0.1-0.1,0.3-0.1c0.8,0,1.9,0.1,2,0.1c0.4,0,1.1-0.1,2-0.1c3,0,3.6,1.8,3.6,2.7c0,1.5-0.8,2.4-1.7,3.2
					c1.3,0.4,3.1,1.7,3.1,3.8c0,1.9-1.5,3.9-4.6,3.9c-0.2,0-0.8,0-1.3-0.1c-0.5,0-1-0.1-1.1-0.1c-0.6,0-1.1,0.1-1.8,0.1
					c-0.2,0-0.3,0-0.3-0.1c0-0.1,0-0.1,0.3-0.1c0.1,0,0.3,0,0.4-0.1c0.4-0.1,0.4-0.5,0.5-1c0.1-0.8,0.1-2.2,0.1-3.9V19.2z
					 M412.6,19.6c0,0.1,0,0.2,0.1,0.2c0.1,0,0.4,0.1,1.1,0.1c1,0,1.3,0,1.6-0.5c0.4-0.4,0.6-1.1,0.6-1.8c0-1.5-0.7-3.1-2.4-3.1
					c-0.2,0-0.6,0-0.9,0.1c-0.2,0-0.2,0.1-0.2,0.2V19.6z M412.6,21.5c0,1.4,0,3.6,0,3.9c0.1,0.9,0.1,1.1,0.6,1.4
					c0.5,0.2,1.3,0.3,1.6,0.3c1,0,2.5-0.5,2.5-2.6c0-1.1-0.4-2.6-1.7-3.6c-0.6-0.4-1.1-0.5-1.5-0.5c-0.2,0-1.1,0-1.4,0
					c-0.1,0-0.1,0-0.1,0.1V21.5z"/>
				<path class="st1" d="M424.2,21.8c0-2.4,1.9-6,6.3-6c3.6,0,6.3,2.1,6.3,5.7c0,3.4-2.5,6.2-6.4,6.2
					C426,27.8,424.2,24.5,424.2,21.8z M435.1,22c0-3.6-2.2-5.6-4.7-5.6c-2.5,0-4.5,1.5-4.5,5c0,3.5,2,5.9,5,5.9
					C432,27.2,435.1,26.6,435.1,22z"/>
				<path class="st1" d="M445.3,21.7l-2.6-4.1c-0.4-0.7-0.6-1-1.2-1.2c-0.3-0.1-0.5-0.1-0.6-0.1c-0.2,0-0.2-0.1-0.2-0.1
					c0-0.1,0.1-0.1,0.3-0.1c0.4,0,1.8,0.1,1.9,0.1c0.1,0,1-0.1,1.5-0.1c0.2,0,0.3,0,0.3,0.1c0,0.1-0.1,0.1-0.2,0.1
					c-0.1,0-0.3,0-0.4,0.1c-0.1,0-0.2,0.1-0.2,0.2c0,0.2,0.1,0.3,0.2,0.6c0.7,1.4,1.3,2.2,2.1,3.5c0.5-0.7,2.1-3.2,2.3-3.5
					c0.1-0.2,0.2-0.3,0.2-0.5c0-0.1-0.1-0.3-0.3-0.3c-0.1,0-0.3,0-0.4,0c-0.1,0-0.2-0.1-0.2-0.1c0-0.1,0.1-0.1,0.3-0.1
					c0.6,0,1.4,0.1,1.5,0.1c0.1,0,0.8-0.1,1.4-0.1c0.2,0,0.2,0.1,0.2,0.1c0,0.1-0.1,0.1-0.2,0.1c-0.2,0-0.4,0-0.6,0.1
					c-0.4,0.1-0.8,0.6-1.2,1.2l-2.5,3.7c0.3,0.5,3,4.9,3.3,5.3c0.2,0.3,0.4,0.6,0.9,0.7c0.2,0.1,0.4,0.1,0.5,0.1
					c0.2,0,0.2,0.1,0.2,0.1c0,0.1-0.1,0.1-0.2,0.1c-1,0-2,0-2.9,0c-0.3,0-0.3-0.1-0.3-0.2c0-0.1,0.1-0.1,0.2-0.1
					c0.2-0.1,0.1-0.2,0-0.4c-0.8-1.5-1.7-3-2.6-4.5l-2.4,4c-0.1,0.2-0.3,0.5-0.3,0.7c0,0.1,0.1,0.3,0.3,0.3c0.1,0,0.1,0,0.2,0
					c0.2,0,0.2,0.1,0.2,0.1s-0.1,0.1-0.2,0.1c-0.4,0-1.4-0.1-1.6-0.1c-0.1,0-0.8,0.1-1.4,0.1c-0.2,0-0.2-0.1-0.2-0.1
					c0-0.1,0.1-0.1,0.2-0.1c0.1,0,0.3,0,0.5-0.1c0.5-0.1,0.8-0.5,1.3-1.2L445.3,21.7z"/>
			</g>
			<g>
				<path class="st1" d="M267.3,62v-5.8c2.5,0,3.7,0.3,3.7,0.9c0,0.3-0.6,0.6-1.6,1V62h11l1.5-1.8c1.8,1.7,2.7,2.8,2.7,3.3
					c0,0.3-0.2,0.4-0.5,0.4l-1.2,0.2c-1,1.2-2,2.4-3.4,3.6l-0.7-0.5c0.7-1.4,1.3-2.8,1.7-4.3h-23.6v0.7c0,1.7-0.3,3.1-0.9,4.2
					c-0.5,1-1.1,1.4-1.8,1.4c-0.3,0-0.7-0.2-1-0.5c-0.3-0.2-0.4-0.5-0.4-0.8c0-0.4,0.2-0.8,0.7-1.3c1.3-1.3,2-3.4,2.2-6.2l0.9,0.1
					c0.1,0.6,0.2,1,0.2,1.4H267.3z M265.5,69.9c-3.6,0.9-7.1,1.6-10.5,2.1l-0.5-0.9c8.1-1.6,14.6-3.7,19.6-6.4
					c1.8,1,2.7,1.8,2.7,2.2c0,0.2-0.3,0.3-0.8,0.3c-0.4,0-0.8-0.1-1.3-0.2c-2.4,0.9-4.8,1.6-7.2,2.2v6.7l11.4-1.6l1.8-2.8
					c1,0.6,2,1.4,3.2,2.4l-0.4,0.8l-15.9,2.2v7c0,0.6,0.2,1,0.6,1.2c0.5,0.1,2.3,0.2,5.5,0.2c3.1,0,5-0.1,5.6-0.3
					c0.8-0.3,1.5-2.2,1.9-5.8l1,0.4c0,0.5,0,1,0,1.6c0,1.6,0.2,2.7,0.4,3.1c0.2,0.3,0.5,0.4,1.1,0.4c-0.1,1.3-0.8,2-1.9,2.1
					c-1.2,0.2-3.7,0.3-7.4,0.3c-4.6,0-7.2-0.2-7.9-0.6c-0.6-0.4-0.9-1.1-0.9-2.3v-7.2l-12.2,1.7l-0.5-1l12.7-1.7V69.9z"/>
				<path class="st1" d="M297.8,65.2v-5.5h-5.5l-0.3-0.9h13.4l1.8-2.4c0.9,0.8,1.6,1.6,2.3,2.6l-0.4,0.6h-5.7v5.5h2.2l1.3-1.6
					c1.4,1.2,2.1,1.9,2.1,2.1c0,0.2-0.1,0.4-0.3,0.5l-0.8,0.5v21.8h-2v-2.7h-10.2v2.7h-2V64.1c1.3,0.6,2.1,0.9,2.3,1.1H297.8z
					 M295.6,66.1v13.5h10.2v-4.2h-1.9c-1.1,0-1.8-0.2-2.1-0.7c-0.1-0.2-0.2-0.7-0.2-1.3v-7.3h-1.9c0,5-1.1,8.8-3.1,11.5l-0.8-0.5
					c1.3-2.8,2-6.4,2-11H295.6z M305.8,84.9v-4.5h-10.2v4.5H305.8z M301.6,65.2v-5.5h-1.9v5.5H301.6z M303.4,66.1V73
					c0,0.5,0.2,0.8,0.8,0.8h1.6v-7.7H303.4z M312.9,71.2v13.6c0,0.5,0.2,0.9,0.5,1c0.3,0.2,1.4,0.3,3.3,0.3c2.1,0,3.4-0.1,4-0.3
					c1-0.3,1.5-2.6,1.6-6.6l1,0.4c0,2.6,0.1,4.2,0.2,4.9c0.2,0.8,0.7,1.2,1.4,1.2c0,1.2-0.6,1.9-1.6,2.1c-1,0.2-2.9,0.3-5.7,0.3
					c-3.3,0-5.3-0.2-5.9-0.4c-0.6-0.3-1-1-1-2.1V69.1c0.6,0.2,1.4,0.6,2.4,1.2h7.1V59.7h-9.8l-0.4-0.9h9.7l1.5-1.8
					c1.4,1.2,2.2,2,2.2,2.3c0,0.2-0.1,0.3-0.3,0.4l-0.9,0.6v13.3h-2v-2.3H312.9z"/>
				<path class="st1" d="M334.6,81.2c-0.4-0.8,0-1.6,0.9-2c0.7-0.3,1.3-0.8,2.4-1.7c1-0.9,1.5-1.7,1.7-2.1c0.2-0.4,0.4-0.9,0.8-0.8
					c0.4,0,0.6,0.4,0.6,1c0,1-0.2,2.2-1,3.5c-0.8,1.3-1.6,2.2-2.6,2.6C336.4,82.1,335.2,82.2,334.6,81.2z M335.1,66.3
					c0.4-0.4,1.6,0.2,2.6,0.4c1,0.2,2.1,0.3,3.4,0.2c1.3,0,4.3-0.2,6.4-0.2c0-1.3,0-2.3-0.1-3c-0.1-1-0.5-1.9-0.9-2.4
					c-0.5-0.6-1-1.3-0.8-1.8c0.1-0.4,0.7-0.6,1.4-0.4c0.7,0.2,1.4,0.4,2.3,1.3c0.9,0.8,0.8,1.8,0.6,2.3c-0.2,0.4-0.3,1.1-0.3,2.2
					v1.6c1.3-0.1,2.5-0.2,3.6-0.2c1.6-0.2,3.4-0.5,4.6-0.7c1.2-0.2,2-0.2,2.6,0.2s1.2,0.9,1.1,1.5c-0.1,0.6-0.8,0.8-1.8,0.6
					c-0.9-0.2-1.9-0.3-3.6-0.3c-1.6,0-4.6,0.2-6.5,0.4c0,1-0.1,2.1-0.1,3c0,2.1-0.1,4.7,0,6.1c0.1,1.5,0.3,3.5,0.3,4.6
					c0,1.1-0.1,2.4-0.6,3.1s-1.1,0.7-1.8,0.3c-0.6-0.4-0.7-1.5-1-2.4c-0.3-0.9-1-1.8-1.8-2.1c-0.6-0.2-0.4-0.8,0-0.7
					c0.4,0.1,0.7,0.1,1.5,0.2c0.8,0.1,1.2-0.4,1.2-1.1c0-0.8,0-1.9,0.1-3.9c0-2,0.1-3.3,0.1-5.9v-1c-1.3,0.1-2.7,0.3-4.2,0.4
					c-2,0.2-3.4,0.4-4.6,0.4c-1.2,0-2.1,0-3-0.7C334.9,67.5,334.6,66.8,335.1,66.3z M359.2,61.4c-0.6-0.6-1.3-1.2-2.3-1.8
					c-0.4-0.2-0.5-0.5-0.4-0.8c0.2-0.2,0.5-0.1,0.7-0.1c0.6,0,1.3,0.2,2.2,0.5c0.8,0.3,2,0.9,2.4,1.6c0.4,0.7,0,1.3-0.6,1.4
					C360.7,62.3,359.8,62,359.2,61.4z M362.3,78.7c0.8,1.9,0.4,2.8-0.6,3.2c-0.8,0.4-1.7,0-2.2-0.7c-0.4-0.6-0.7-1.6-1-2.9
					c-0.2-1.2-0.8-2.4-1.5-3.2c-0.4-0.5-0.6-0.8-0.4-1.1c0.2-0.3,0.6-0.2,1.1,0c0.5,0.2,1,0.4,2,1.2C360.9,76,361.5,77,362.3,78.7z
					 M362.4,59.7c-0.6-0.8-1.3-1.1-2.5-1.6c-0.3-0.2-0.5-0.5-0.4-0.8c0.2-0.2,0.5-0.2,0.7-0.2c0.6,0,1.4,0.2,2.2,0.4s2,0.8,2.4,1.5
					c0.4,0.7,0.1,1.3-0.4,1.5C363.8,60.7,362.9,60.4,362.4,59.7z"/>
				<path class="st1" d="M379.7,86.1c0.6-0.1,1.2-0.2,2.6-0.7c2-0.7,3.5-1.5,4.9-2.6c1.4-1.1,2.6-2.7,3.7-4s2.1-3,2.8-4.8
					c0.6-1.8,1-3.1,1.2-4.3c0.2-1.2,0-2.5-0.4-3.2c-0.4-0.7-0.8-1.4-0.4-1.7c0.6-0.5,1.9,0.2,2.4,0.7c0.6,0.4,1,1,1.4,1.7
					c0.4,0.7,0,1.5-0.3,2.1c-0.3,0.6-0.8,2.7-1.8,4.7c-1,2-1.9,3.6-3.3,5.3c-1.4,1.8-2.9,3-4.1,4c-1.2,0.9-2.6,1.8-4.4,2.6
					c-1.5,0.6-2.6,1-4.1,1c-0.4,0-0.8,0-0.8-0.3C379,86.3,379.2,86.3,379.7,86.1z M380,70.1c-0.3-0.3-0.7-0.8-0.5-1
					c0.4-0.4,1.1-0.1,1.8,0.4c0.9,0.8,1.5,1.6,1.9,2.7s0,1.8-0.6,1.9c-0.6,0.1-1.1-0.2-1.4-0.7c-0.2-0.4-0.3-1.1-0.4-1.8
					C380.7,71,380.3,70.3,380,70.1z M385.7,68c-0.2-0.5-0.3-0.9-0.6-1.2c-0.3-0.3-0.7-0.7-0.4-0.9c0.3-0.3,1,0.1,1.4,0.4
					c0.5,0.4,1.3,1.1,1.8,2.3c0.3,0.7,0.4,2-0.3,2.2c-0.8,0.3-1.4-0.1-1.6-0.9C385.9,69.2,385.8,68.5,385.7,68z"/>
				<path class="st1" d="M439.4,64.1c0.5,0.4,0.7,0.8,0.6,1.2c-0.1,0.3-0.5,0.7-1,1c-0.6,0.3-1.1,1.5-1.6,2.5
					c-0.6,1.4-1.7,3.2-3.4,5.4c-1.6,2.2-2.8,3.6-4.3,5c-1.5,1.4-3.5,2.9-5.8,4.1c-2.3,1.2-3.6,1.8-6.1,2.7c-0.5,0.2-0.8,0-0.9-0.2
					c0-0.2,0.3-0.4,0.6-0.5c1.9-0.7,3-1.3,4.8-2.4c1.8-1.1,3.6-2.7,4.9-3.8c1.7-1.5,3.2-3.3,4.4-5c1.2-1.7,2-3.1,2.7-4.8
					c0.8-1.7,0.9-2.8,1-3.2s0-0.9-0.1-1c-0.2-0.1-0.7-0.1-0.9-0.1h-3.4c-0.6,0-1.4,0-2,0c-0.4,0.8-0.8,1.6-1.3,2.3
					c-1.2,2-2.5,3.3-4.1,4.7c-1.6,1.4-3,2.2-4.9,3c-0.3,0.1-0.7,0.1-0.8-0.1c-0.1-0.3,0.2-0.5,0.5-0.7c1.6-0.9,2.9-1.8,4.2-3
					c1.2-1.2,2.5-2.9,3.3-4.3c0.8-1.3,1.4-2.6,1.7-3.6c0.4-1,0.4-1.7,0.4-2.1c0-0.4-0.4-0.8-0.8-1.2c-0.4-0.3-0.6-0.9-0.3-1.2
					c0.3-0.4,1-0.2,1.7,0.1c0.7,0.3,1.5,0.7,1.9,1.1c0.4,0.5,0.3,1.2,0,2.1c-0.1,0.3-0.4,0.8-0.6,1.4c0.3,0,0.7,0.1,1,0.2
					c0.8,0.1,1.8,0.1,2.8,0c1-0.1,1.6-0.4,2.2-0.8c0.6-0.3,1.2-0.3,1.9,0C438.5,63.2,439,63.7,439.4,64.1z"/>
				<path class="st1" d="M453.7,84.5c-0.1-0.2,0.4-0.6,0.8-0.8c1.6-0.8,2.9-1.4,4.1-2.2c1.2-0.8,2.5-1.8,4.2-3.3
					c1.7-1.5,2.8-2.7,4-4.1c1.2-1.4,2.8-3.6,3.9-5.3c1.1-1.7,1.8-2.9,2-3.9c0.2-0.9-0.4-1.4-1.5-1c-0.8,0.2-1.2,0.3-2.6,0.6
					c-1.4,0.3-2.4,0.5-3.6,0.6c-1.3,0-2.5-0.4-3.2-1c-1-0.8-1.2-1.8-0.7-2.2c0.4-0.4,1.1-0.4,1.6-0.1c0.6,0.4,1.2,0.6,2,0.8
					c1.2,0.3,3,0.2,4.9-0.1c1.8-0.3,3.1-0.7,3.6-0.9c0.6-0.2,1.3-0.7,2.1-0.2c0.8,0.4,1.4,1.2,1.5,2.6c0.2,1.4-0.4,2.1-1.2,2.7
					c-0.6,0.5-1.2,1-2.2,2.3c-0.8,1.1-1.9,2.6-3.4,4.4c1.3,0.4,3,0.9,4.4,1.8c1.7,1,2.9,2.2,3.6,3.2c0.8,1,1.5,3.1,0.4,3.8
					c-1.2,0.8-2.4-0.6-3-1.6c-0.6-1.1-1.3-2.4-2.4-3.8c-1-1.3-2.2-2.1-3.5-2.7c0,0-0.1,0.1-0.1,0.2c-1.9,2.2-3.4,3.5-5,4.9
					c-1.6,1.4-3,2.4-4.8,3.4c-1.2,0.8-3.3,1.6-4.6,2.1C454.3,84.8,453.8,84.7,453.7,84.5z"/>
			</g>
		</g>
	</g>
</g>
</svg>
