<?xml version="1.0" encoding="UTF-8"?>
<svg id="_レイヤー_2" data-name="レイヤー 2" xmlns="http://www.w3.org/2000/svg" viewBox="0 0 1280.0000558 155.1470413">
  <defs>
    <style>
      .cls-1 {
        fill: #fff;
      }

      .cls-2 {
        fill: #e8c416;
      }

      .cls-3 {
        fill: none;
      }

      .cls-4 {
        fill: #ae8f36;
      }
    </style>
  </defs>
  <g id="_レイヤー_1-2" data-name="レイヤー 1">
    <g>
      <g>
        <path class="cls-1" d="m484.6188007,93.9323947c.0400391-.5595703,1.4399414-.3999023,2.5197754-.3598633,1.079834.0800781,2.239502.2001953,3.359375.6796875.9997559.4799805,1.4396973.7602539,2.0795898,1.4399414.6398926.6401367.9199219,1.7998047.1201172,2.3999023-.7199707.5195312-1.6799316.1196289-2.2797852-.6000977-.6398926-.7597656-1.2797852-1.3198242-2.1196289-1.8798828-.5598145-.3999023-1.4396973-.9199219-2.6794434-1.159668-.7600098-.1601562-1.0397949-.2001953-1-.5200195Zm11.1181641-4.3193359c.6799316.7202148.8798828,1.6401367.3200684,2.2797852-.5200195.5600586-1.2797852.5600586-2.1196289.0800781-.8398438-.5200195-1.4797363-1.159668-2.159668-1.9199219-.9997559-1.159668-2.0397949-1.7993164-3.6394043-2.1196289-.5998535-.1196289-.8798828-.2797852-.8798828-.5195312,0-.3603516.5998535-.4399414,1.079834-.4399414.3999023,0,.9199219,0,1.7998047.1196289,1.1196289.2001953,1.8395996.3999023,2.9194336.7998047,1.079834.4399414,1.8796387.8798828,2.6794434,1.7197266Zm16.1174316.3999023c-.8000488,1.2402344-2.3996582,3.5195312-4.0393066,5.2792969-1.5998535,1.7597656-2.4396973,2.5996094-4.9191895,4.9589844-2.4396973,2.3198242-5.3190918,4.359375-7.6787109,5.7592773-1.7597656,1-2.9594727,1.6396484-4.3193359,1.6396484-1.3198242,0-2.0395508-.8798828-2.4794922-1.7197266-.4001465-.8398438-.5200195-1.7998047-.0400391-2.0395508.3598633-.2797852.7597656-.0800781,1.2797852.3198242.4799805.3598633,1.0397949.6000977,1.8796387.6401367,1.0397949.0400391,2.5595703-.7602539,5.1992188-2.3198242,1.5595703-.9199219,3.0393066-1.9995117,5.0791016-3.5991211,1.9995117-1.5200195,3.8393555-3.159668,5.2390137-4.7192383,1.4396973-1.6401367,3.1196289-3.8793945,3.7595215-4.7993164.5598145-.7998047,1.3596191-1.8798828,1.7197266-1.6396484.3999023.199707.1999512.9199219-.6799316,2.2392578Z"/>
        <path class="cls-1" d="m523.8990742,108.8098361c-.0800781-.2397461.4399414-.5595703.8398438-.7597656,1.6396484-.7597656,2.8793945-1.4394531,4.1193848-2.2397461,1.2397461-.7597656,2.5195312-1.7592773,4.1992188-3.2792969,1.7197266-1.5195312,2.8395996-2.7197266,4.0393066-4.0791016,1.2397461-1.3598633,2.8395996-3.6396484,3.9194336-5.3193359,1.0795898-1.7197266,1.7595215-2.9194336,1.9995117-3.8793945.2399902-.9199219-.3598633-1.3598633-1.5197754-.9995117-.7597656.2397461-1.2397461.3198242-2.6394043.6396484-1.3999023.3198242-2.3596191.5200195-3.6394043.5600586-1.2797852,0-2.5195312-.4399414-3.239502-1-.9599609-.8398438-1.1599121-1.7597656-.7199707-2.199707.3601074-.3999023,1.079834-.4399414,1.5998535-.1196289.5598145.3598633,1.2397461.6396484,1.9597168.8398438,1.199707.2797852,3.0393066.2397461,4.8791504-.0800781,1.8395996-.3203125,3.0793457-.7202148,3.5993652-.9199219.5598145-.2001953,1.2797852-.6796652,2.0795898-.2402344.8398438.4399414,1.3598633,1.2001953,1.5197754,2.5996094.1599121,1.4399414-.3598633,2.0800781-1.1599121,2.7197266-.6398926.5200195-1.159668,1-2.1594238,2.2797852-.8000488,1.1196289-1.8798828,2.5996094-3.3596191,4.3989258,1.3198242.3603516,2.9594727.9199219,4.359375,1.8398438,1.6796875,1.0400391,2.8793945,2.199707,3.6394043,3.199707.7998047.9594727,1.5197754,3.0791016.3598633,3.7993164-1.2397461.7597656-2.4394531-.5600586-3.0395508-1.6401367-.6398926-1.1196289-1.2797852-2.3994141-2.3994141-3.8393555-1.0400391-1.3193359-2.159668-2.1196289-3.5195312-2.7192383-.0400391.0400391-.0800781.1201172-.0800781.159668-1.9194336,2.159668-3.359375,3.5195312-4.9990234,4.9194336-1.5998535,1.3999023-2.9995117,2.359375-4.8391113,3.3994141-1.2399902.7597656-3.279541,1.6396484-4.5993652,2.0795898-.6398926.2001953-1.119873.1601562-1.199707-.1201172Z"/>
        <path class="cls-1" d="m590.8146015,91.4529025c-.4399414.2797852-1.0400391,0-1.8798828-.1201172-.7597656-.159668-2.1594238-.3999023-3.359375-.3198242-1.0397949.0400391-3.3994141.2402344-5.1989746.3598633.6398926.3598633,1.2797852.8398438,1.7194824,1.3598633.6000977.6401367.4799805,1.2797852.3601074,1.5195312-.0800781.2802734-.4399414.6000977-.5200195,1.1601562-.079834.5996094-.119873,1.5996094-.6799316,3.6391602-.5598145,2.0395508-1.2797852,3.4394531-2.3195801,5.0390625-.9997559,1.5600586-2.1994629,2.7597656-3.5192871,3.7597656-1.2797852.9594727-2.9594727,1.8793945-4.479248,2.5195312-1.4797363.5996094-3.0795898.9199219-3.6394043.9995117-.5998535.0800781-.9997559.0400391-1.0397949-.159668,0-.1601562.2399902-.3999023.6398926-.4799805.4399414-.1201172,1.159668-.2402344,1.9196777-.5200195,1.3596191-.4799805,2.3996582-.9599609,3.8793945-2.0795898,1.4396973-1.0800781,3.1994629-2.9995117,4.1191406-4.5991211.9199219-1.6000977,1.9196777-3.6796875,2.2397461-5.0390625.3198242-1.3598633.4797363-3.159668.5197754-4.5595703.0800781-1.1196289-.2797852-1.8793945-.7197266-2.4394531-1.6796875.1601562-3.4794922.2797852-4.359375.3999023-1.0397949.1601562-2.3195801.3198242-3.239502.3198242-1.2397461,0-1.9597168-.4399414-2.5195312-.9199219-.5197754-.5195312-.5998535-1.4794922-.2399902-1.7197266.4799805-.2797852,1,.1201172,1.9196777.3603516.8798828.199707,1.9196777.3198242,3.6394043.3198242,1.6796875,0,2.9594727-.1201172,4.5192871-.2402344,1.5197754-.1196289,3.7592773-.3598633,5.2790527-.5595703,1.5197754-.2402344,2.7595215-.3999023,3.7595215-.4399414,1.3195801-.0800781,2.239502.3198242,2.6794434.7597656.7597656.7597656.9997559,1.4399414.5200195,1.6796875Zm-18.9968262-5.4790039c-.6398926-.4399414-.9199219-1.3598633-.5600586-1.7197266.3200684-.3598633.9599609-.0800781,1.3598633.0400614.3999023.1596456.9997559.3598409,1.6796875.39988,1.3198242.0800781,2.8796387-.2001953,3.4394531-.2797852.9997559-.1601562,2.4396973-.5200195,3.3994141-.800293.9597168-.2797852,1.7998047-.5195312,2.7194824-.3999023.9199219.1201172,1.7197266.6401367,1.9997559,1.2397461.3198242.6000977-.2399902,1.1201172-1.5197754,1.0400391-1.2397461-.0800781-2.159668,0-3.5593262.0400391-1.3598633.0400391-2.3996582.1601562-3.7194824.3198242-1.2397461.1601562-2.0795898.4799805-3.0793457.6000977-.9199219.1196289-1.5598145-.0800781-2.159668-.4799805Z"/>
        <path class="cls-1" d="m630.6944843,102.6111056c1.1599121,1.8793945,1.8398438,4.359375.2800293,4.8393555-1.6796875.4794922-2.5195312-1.2402344-3.3195801-3.5996094-.079834-.2797852-.1999512-.5600586-.3198242-.8398438-1.3198242.3198242-4.7592773,1.159668-6.3588867,1.5595703-1.7597656.4399414-6.0390625,1.4399414-7.3188477,1.6796875-1.3198242.2402344-2.0795898.5200195-3.1193848,1.6401367-.4399414.4399414-1.079834.7597656-1.5598145.7597656-.5200195,0-1.5197754-.3198242-2.3996582-1.0400391-.8798828-.7197266-1.159668-1.7998047-1.079834-2.3994141.1201172-.6401367.8000488-.5600586,1.7197266-.6401367.8798828-.0800781,1.3999023-.8798828,2.3996582-2.6396484,1.0397949-1.7993164,1.8796387-3.3994141,3.3193359-5.8789062,1.4399414-2.5595703,3.0395508-5.4790039,3.5195312-6.8388672.5197754-1.359375-.0800781-2.5195312-.4399414-3.1191406-.3598633-.5600586-.7199707-1.1201172-.3598633-1.3598633.6398926-.439919,1.5197754-.2402344,2.5993652.5200195.7199707.5595703,1.1999512,1.199707,1.3198242,2.5195312.1201172.8398438-.3999023,1.6396484-1.1196289,2.5996094-.6398926.9594727-2.8796387,4.6391602-4.0793457,6.5986328-1.119873,1.7998047-3.7595215,6.3588867-3.9995117,6.7988281-.2397461.4399414-.079834.6000977.2800293.6000977.3598633-.0400391,1.3198242-.1201172,2.7595215-.3999023,1.5598145-.3598633,5.2790527-.9199219,7.1188965-1.2397461,1.6396484-.3203125,4.0793457-.800293,6.1589355-1.1201172-.6799316-1.199707-1.3996582-2.1196289-2.279541-2.9594727-.5200195-.4799805-.8798828-.9199219-.6398926-1.159668.2797852-.3198242.7998047-.1201172,1.7995605.4799805,2.3996582,1.5195312,4.1193848,3.0795898,5.1191406,4.6391602Z"/>
        <path class="cls-1" d="m665.6153828,88.5334689c.9199219.1201172,1.8395996.5600586,2.199707.9599609.3999023.3598633.5598145,1.1196289-.1601562,1.3994141-.7197266.2802734-1.6396484,0-2.5195312-.1196289-.8798828-.1201172-2.4794922,0-4.1992188.3198242-.7998047.1601562-1.6396484.3598633-2.4794922.5600586.2397461,1.2397461.5598145,2.7192383.9597168,4.4790039.119873.6000977.2800293,1.3598633.4799805,2.159668.8398438-.1601562,1.7597656-.3598633,2.5996094-.5200195,1.8395996-.3598633,4.1591797-.9599609,5.1589355-1.3598633.9599609-.3598633,1.9997559-.5595703,2.5595703-.3999023.5600586.1201172,1.3598633.5600586,1.5197754,1.1201172.1601562.6396484,0,1.0395508-.8398438,1.0795898-.8398438,0-1.6396484-.0800781-2.5195312-.0800781-1.079834-.0395508-2.199707.1601562-4.5192871.6801758-1.2397461.2797852-2.5195312.5200195-3.6791992.8398438.1599121.7998047.3198242,1.6396484.4797363,2.2792969.4399414,1.6000977,1.079834,3.6796875,1.4797363,4.7192383.3999023,1.0400391.7199707,1.7597656.7600098,2.6796875.0400391.6801758-.0800781,1.199707-.7199707,1.4399414-.5197754.159668-1.159668-.1201172-1.4797363-.6000977-.4399414-.6796875-.7199707-1.4394531-.9199219-2.7993164-.1999512-1.3598633-.4399414-2.9995117-.8796387-5.0390625-.1601562-.8398438-.3200684-1.6000977-.4799805-2.3198242-.3200684.0800781-.6799316.1601562-1.0397949.2397461-2.1196289.4399414-4.3193359,1.1601562-5.7590332,1.5600586-1.3999023.4399414-2.2397461.6396484-3.239502.5595703-.9997559-.0795898-1.6398926-.5195312-2.199707-1.2397461-.6398926-.7597656-.7199707-1.3994141-.4399414-1.5996094.3200684-.2397461.7600098.0400391,1.079834.2001953.3598633.199707.6398926.4799805,1.4396973.6396484.8000488.1201172,2.0397949-.159668,3.159668-.3598633,1.8796387-.3598633,3.479248-.6796875,5.4389648-1.0795898.4799805-.1201172.8798828-.2001953,1.2797852-.2802734-.119873-.6796875-.2800293-1.3598633-.4399414-2.199707-.3598633-1.5996094-.6398926-2.9995117-.9199219-4.3989258-.4797363.1196289-.9997559.2797852-1.4797363.3999023-1.6796875.3999023-3.8393555.9594727-5.1989746,1.159668-1.3999023.2001953-2.3996582.2001953-3.0795898-.2001953-.7998047-.4794922-.9997559-1.2397461-.7197266-1.4794922.3598633-.2797852.8796387-.1601562,1.5195312.0400391.6799316.159668,1.6799316.0800781,3.4394531-.2001953,1.4399414-.199707,3.5195312-.6796875,5.2392578-1.1196289-.0400391-.2001953-.0800781-.3999023-.1201172-.6401367-.3999023-2.0795898-.6799316-3.1191406-.9597168-4.0390625-.3200684-.9199219-.7199707-1.3598633-1.4797363-1.7597656-.7199707-.3598633-1.079834-.9198995-.8798828-1.3598633.1999512-.5595703,1.199707-.5996094,2.0395508-.3198242.8798828.2797852,1.5598145.6000977,1.9196777,1.8398438.3999023,1.199707.7199707,2.8793945.9199219,4.3588867.0400391.4399414.1599121.9599609.2399902,1.5600586,1.6396484-.3598633,3.1994629-.7597656,4.3193359-1.1201172,1.2797852-.4399414,2.1594238-.7597656,3.1193848-.6396484Z"/>
        <path class="cls-1" d="m689.8980976,110.4895236c.6398926-.1196289,1.2397461-.199707,2.5996094-.7197266,1.9594727-.6796875,3.479248-1.5195312,4.8791504-2.5996094,1.3996582-1.1196289,2.6394043-2.6796875,3.6791992-3.9990234,1.0397949-1.3198242,2.1196289-3.0395508,2.7995605-4.7993164.6398926-1.7998047.9599609-3.0795898,1.1599121-4.2792969.1999512-1.2397461-.0400391-2.4794922-.4399414-3.159668-.4399414-.7197266-.7600098-1.3994141-.3999023-1.7197266.5998535-.5195312,1.8796387.2402344,2.4394531.7202148.5600586.3999023,1,.9594727,1.3598633,1.6796875.3598633.7197266.0400391,1.4794922-.2800293,2.0795898-.2797852.5595703-.8398438,2.7192383-1.7597656,4.7192383-.9597168,1.9995117-1.9194336,3.6391602-3.2792969,5.3188477-1.4396973,1.7998047-2.8796387,3.0395508-4.1193848,3.9594727-1.159668.9199219-2.5996094,1.8398438-4.3991699,2.5595703-1.4797363.6000977-2.5996094.9599609-4.0793457,1-.4399414.0400391-.8398438-.0400391-.8398438-.3203125,0-.2397461.1999512-.3198242.6799316-.4399414Zm.3198242-16.0371094c-.2797852-.2797852-.6799316-.7597656-.4799805-.9599609.4001465-.4399414,1.119873-.0800781,1.7998047.4399414.9199219.7597656,1.5197754,1.6396484,1.8796387,2.7197266.3601074,1.0795898,0,1.7597656-.5998535,1.9194336-.5598145.1201172-1.119873-.2397461-1.3598633-.6796875-.2397461-.3999023-.2797852-1.1196289-.4399414-1.7998047-.119873-.7197266-.5197754-1.3999023-.7998047-1.6396484Zm5.6791992-2.1196289c-.1601562-.4799805-.3200684-.8798828-.6000977-1.159668-.2797852-.2802734-.7197266-.6801758-.4399414-.9199219.3200684-.2797852,1,.0800781,1.4399414.3999023.5197754.3999023,1.3198242,1.0795898,1.7995605,2.2797852.3200684.6796875.3999023,1.9594727-.3198242,2.2392578-.7600098.3203125-1.4396973-.0795898-1.5598145-.9199219-.119873-.6796875-.1999512-1.4394531-.3198242-1.9194336Z"/>
        <path class="cls-1" d="m751.9342304,95.332297c-.4399414.4399414-1.8395996.1601562-3.0393066.0800781-1.2797852-.0800781-2.3996582-.1201172-3.9194336-.0800781-1.2797852,0-2.9995117.2397461-5.1992188.4799805-.0397949.2397461-.0397949.4399414-.079834.6796875-.1601562,2.199707-.6799316,3.9594727-1.6398926,6.0390625-.9997559,2.0395508-1.7995605,3.199707-3.2392578,4.6791992-1.3999023,1.3999023-2.9995117,2.3994141-4.3193359,2.9594727-.7199707.3198242-1.9597168.9199219-2.159668.3999023-.1999512-.4799805.7998047-1.0395508,1.5998535-1.4394531,1.9995117-1,3.7993164-2.7197266,5.1589355-4.8393555,1.3198242-2.0795898,1.9997559-4.6791992,2.2797852-6.9990234.0397949-.4799805.0397949-.8798828.079834-1.2397461-1.7995605.1601562-3.479248.2402344-4.2392578.3598633-.9199219.0800781-1.4797363.2402344-2.1196289.3999023-.5998535.1601562-1.159668.4003906-1.8796387.3603516-1.1999512-.0400391-2.199707-.3999023-3.0395508-1.0400391-.8798828-.6396484-1.2797852-1.7197266-.6799316-2.0395508.4399414-.2402344,1.1999512-.1201172,2.2797852.2797852s2.159668.5200195,3.8393555.6000977c1.5595703.0400391,3.6394043-.2001953,5.9189453-.5200195,0-1.5595703-.1599121-2.6396484-.3200684-3.5996094-.1599121-.9594727-.7197266-1.8793945-1.3596191-2.359375-1.1599121.2001953-2.2797852.3999023-3.1994629.5600586-1.4797363.199707-3.4794922.3999023-4.2792969.3999023-.7600098-.0400391-1.2797852-.0800781-1.2797852-.5600586,0-.3999023.7998047-.5200195,1.4797363-.5600586,2.0395508-.199707,3.4394531-.4794922,5.559082-.9194336,2.159668-.4799805,3.239502-.840332,5.1591797-1.5200195,2.0395508-.7197266,2.8393555-1.159668,3.3994141-1.4399414.5598145-.3198242.7998047-.6396484.7197266-.9594727-.0400391-.2402344-.1999512-.9199219.3999023-1.0400391.6000977-.1201172,1.7597656.4799805,2.159668,1.5200195.3601074,1.0395508.3999023,1.8793945-.0400391,2.5195312-.4797363.6396484-1.3596191.5996094-1.9194336.4799805-.5200195-.1601562-.9599609-.2001953-1.5998535-.0400391-1.079834.2797852-2.9594727.7197266-4.6391602,1.1196289h-.0800781c.7600098.2397461,1.2797852.6401367,1.8796387,1.3198242.7600098.8398438.6799316,1.4399414.5200195,1.9995117-.1999512.5200195-.2800293.9199219-.2399902,1.7998047.0400391.2797852.0400391.6000977,0,.9199219,1.3996582-.2001953,2.5595703-.4399414,3.6394043-.5600586,1.5598145-.2397461,3.5593262-.5595703,4.8391113-.6796875,1.3198242-.1201172,2.2397461.3598633,2.9995117.8798828.7199707.5195312,1.0397949,1.199707.5998535,1.5996094Z"/>
        <path class="cls-1" d="m766.4186054,89.0534884c-.9199219-.4799805-1.3996582-.7202148-1.2797852-1.1201172.1999512-.3999023.7998047-.3198242,1.6396484-.199707.8798828.0800781,1.7998047.3198242,2.9196777.7597656,1.1196289.4799805,1.7595215.8398438,2.7595215,1.7597656.9597168.8398438,1.5595703,2.359375.5598145,2.9594727-.7998047.4799805-1.9597168-.0800781-2.9995117-1.2397461-1.3596191-1.5595703-2.3596191-2.3198242-3.5993652-2.9194336Zm25.6357422-.5600586c-.4799805.7998047-1.2397461,1.9995117-2.7995605,4.1992188-1.3996582,1.9995117-2.8796387,3.9194336-5.0390625,5.9589844-2.159668,2.0795898-4.359375,3.7192383-6.7590332,5.3193359-2.3596191,1.5595703-4.559082,2.5195312-6.1989746,2.9194336-1.6796875.4399414-2.3994141.1201172-3.1193848-.6801758-.7199707-.7998047-.8798828-2.2392578-.4799805-2.5991211l1.3198242.3198242c.3999023.2397461,1.079834.2797852,1.8796387.2397461,1.3598633-.0800781,3.9594727-.9594727,5.7990723-2.199707,1.8796387-1.2397461,4.3991699-3.1591797,6.2390137-4.8388672,1.8395996-1.6396484,3.1193848-2.7597656,5.0791016-5.1191406,1.9997559-2.3999023,2.9594727-3.6396484,3.1994629-3.9995117.2800293-.3598633.5998535-.5600586.8398438-.4399414s.3198242.3999023.0400391.9199219Z"/>
      </g>
      <circle class="cls-4" cx="147.1826935" cy="77.5735207" r="77.5735207"/>
      <g>
        <path class="cls-1" d="m103.7428242,58.9319064c.4775391.6821289,1.057373,1.262207,1.7734375,1.7392578,2.2849121-.8862305,4.1948242-2.1142578,5.8317871-3.6831055,1.3981934.6821289,2.1142578,1.2280273,2.1142578,1.534668,0,.2045898-.3068848.3071289-.9206543.3071289h-.5117188c-1.807373,1.0229492-3.6831055,1.8413086-5.6611328,2.4213867,2.012207,1.0229492,5.3884277,1.534668,10.0605469,1.534668,2.5578613,0,5.5588379-.1025391,8.9692383-.3754883-.4091797.6142578-.6821289,1.2963867-.9208984,1.9780273h-6.786377c-5.0473633,0-8.5258789-.375-10.3674316-1.1933594-2.012207-.8867188-3.4104004-2.0463867-4.1606445-3.5126953-.9890137,1.5004883-2.0803223,2.8989258-3.2399902,4.2290039,0,.75-.1022949,1.1591797-.375,1.1591797-.3752441,0-.9890137-.75-1.9099121-2.284668,1.5688477-.8867188,3.0012207-1.909668,4.3652344-3.1376953v-8.21875h-4.0922852l-.3068848-.784668h4.1945801l1.1254883-1.3979492c1.2277832.9887695,1.8757324,1.6025391,1.8757324,1.8754883,0,.1367188-.1022949.2729492-.3410645.3413086l-.7163086.4770508v6.9912109Zm-4.5014648-20.1547852c3.2055664,1.4663086,4.8085938,3.0009766,4.8085938,4.6381836,0,.7841797-.3752441,1.1933594-1.1254883,1.1933594-.4775391,0-.8525391-.375-1.1254883-1.1254883-.5114746-1.5004883-1.534668-2.8647461-3.0693359-4.1264648l.5117188-.5795898Zm17.8359375,12.3793945v-2.8305664c1.9780273.0683594,2.9328613.3071289,2.9328613.6821289,0,.2045898-.375.4433594-1.1594238.7163086v1.4321289h2.3530273l1.2619629-1.7734375c.1022949.0683594.1364746.1367188.2045898.2387695.6137695.5458984,1.1254883,1.0913086,1.6027832,1.6708984l-.3410645.6142578h-5.0812988v3.4785156h3.342041l1.3984375-1.8076172.2727051.2729492.2387695.1704102c.5114746.4433594.9206543.9550781,1.2958984,1.4663086l-.3068848.6479492h-19.8823242l-.3410645-.75h5.5246582v-3.4785156h-4.3310547l-.3068848-.7504883h4.6379395v-2.8647461c1.9099121.0341797,2.8989258.2729492,2.8989258.7163086,0,.2387695-.4091797.4775391-1.159668.7163086v1.4321289h4.9450684Zm-8.9350586-8.0141602v2.3188477c0,.3413086.0681152.5800781.2387695.7163086.1704102.1362305.9206543.1704102,2.1826172.1704102,1.432373,0,2.2167969-.1362305,2.4553223-.4091797.1706543-.2729492.3410645-.8183594.4433594-1.6030273l.6821289.2045898c0,.1367188-.0341797.2387695-.0341797.4091797,0,.7163086.3071289,1.0917969.9208984,1.0576172v.0341797c0,.7158203-.2387695,1.1933594-.7163086,1.3979492-.5114746.2045898-1.6367188.3413086-3.4101562.3413086-2.114502,0-3.3762207-.1367188-3.7856445-.3413086-.375-.2045898-.5456543-.75-.5456543-1.5688477v-4.296875c.3071289.1025391.9208984.375,1.8757324.7841797h3.6149902v-2.4213867h-6.036377l-.3068848-.75h6.0705566l1.0229492-1.2617188c1.1254883.8525391,1.6369629,1.3637695,1.6369629,1.5688477,0,.1704102-.0681152.3066406-.2387695.375l-.5456543.375v3.5810547h-1.6027832v-.6821289h-3.921875Zm8.9350586,12.2431641v-3.4785156h-4.9450684v3.4785156h4.9450684Zm.579834-12.2431641v2.1484375c0,.375.0341797.6479492.1704102.7504883.1706543.2045898.9550781.2382812,2.2849121.2382812,1.5007324,0,2.3532715-.1704102,2.5578613-.5112305.2387695-.3754883.4091797-.8867188.5114746-1.5688477l.6821289.2387695c0,.6137695.0681152,1.0571289.1704102,1.2958984.1364746.2045898.3752441.3071289.7844238.3408203,0,.7504883-.3410645,1.1938477-.9206543,1.3984375-.5117188.2045898-1.7053223.3071289-3.6149902.3071289-2.0461426,0-3.3081055-.1708984-3.7514648-.4433594-.3068848-.2050781-.4772949-.6479492-.4772949-1.2958984v-4.4335938c.5795898.2387695,1.1936035.4775391,1.807373.75h3.6831055v-2.4213867h-5.8657227l-.3410645-.75h5.934082l1.0571289-1.2617188c1.1254883.8525391,1.6369629,1.3979492,1.6369629,1.6025391,0,.1367188-.1022949.2387695-.2727051.3754883l-.579834.4091797v3.5805664h-1.5688477v-.75h-3.8876953Zm-1.0571289,14.0844727c4.7402344.8183594,7.0593262,1.9101562,7.0593262,3.171875,0,.6821289-.3068848,1.0229492-.9208984,1.0229492-.3068848,0-.6479492-.1362305-.9890137-.4775391-1.2275391-1.2275391-3.0693359-2.2504883-5.5588379-3.0693359l.4094238-.6479492Z"/>
        <path class="cls-1" d="m157.9620624,56.5446994c.0681152.5458984-.3410645,1.2280273-1.3981934,1.3642578-1.432373.1362305-2.8305664-.5454102-4.2287598-1.6030273-1.4665527-1.125-3.3081055-3.1713867-4.7062988-4.8422852-1.3984375-1.7055664-2.6943359-3.3422852-3.2399902-3.9902344-.6818848-.7841797-1.2617188-1.3984375-1.8415527-1.3984375-.6137695,0-1.0913086.4775391-1.534668,1.0913086-.4772949.6142578-1.6369629,2.4213867-2.1484375,3.2060547-.4433594.75-1.534668,2.1826172-2.4555664,2.4550781-.954834.2729492-1.807373,0-2.4553223-.3066406-.6821289-.3071289-1.0571289-.8867188-.8867188-1.2958984.1364746-.3071289.6140137-.2729492,1.0231934-.2387695.375.0341797.8525391-.0341797,1.3640137-.2045898.5117188-.2045898,1.057373-.6821289,1.7734375-1.2958984.6821289-.5800781,1.432373-1.3642578,2.012207-1.9780273.6137695-.6479492.8525391-.9550781,1.5004883-1.7050781.6479492-.7504883,1.0571289-1.0913086,1.7050781-1.1254883.6479492-.0683594,1.2619629.6137695,1.8757324,1.2275391.579834.5795898,1.7734375,1.637207,2.7963867,2.762207,1.0231934,1.1254883,2.4213867,2.3876953,3.8879395,3.7514648.8867188.8525391,2.3530273,2.0463867,3.4785156,2.6601562,1.0913086.5795898,1.9438477.7504883,2.4553223.7841797.4433594.0341797.9890137.1708984,1.0231934.6821289Zm-5.2861328-8.7641602c-.5114746-.4775391-1.1594238-.9550781-2.0119629-1.534668-.2729492-.2045898-.4433594-.4433594-.2729492-.6821289.1364746-.1708984.4094238-.1367188.579834-.1367188.5114746.0341797,1.1254883.1708984,1.8415527.4433594.7163086.2387695,1.7392578.784668,2.0461426,1.3300781.3410645.5800781.0341797,1.1254883-.4772949,1.2617188-.4775391.1367188-1.2277832-.1704102-1.7053223-.6816406Zm2.6943359-1.3642578c-.5117188-.6137695-1.1254883-.9892578-2.114502-1.3984375-.2727051-.1362305-.4433594-.4433594-.3068848-.6479492.1022949-.2045898.3752441-.1704102.579834-.1704102.5114746-.0341797,1.1594238.1020508,1.8754883.3071289.6821289.2045898,1.7053223.7158203,2.0803223,1.2958984.3410645.5454102.0683594,1.0913086-.4091797,1.2617188-.4772949.1704102-1.2617188-.1367188-1.7050781-.6479492Z"/>
        <path class="cls-1" d="m188.0360371,59.648215c-1.2619629,1.4326172-2.7963867,2.2509766-4.5358887,2.6943359-1.7392578.4775391-3.4101562.4091797-5.456543.0341797-2.0803223-.4433594-2.8986816-1.159668-2.8986816-2.1826172-.0341797-1.0234375,1.2958984-1.8417969,2.4213867-2.0463867,1.1594238-.2387695,2.5236816-.1704102,3.5466309.6479492.8867188.7163086.8527832,1.534668.4433594,2.3530273,1.6369629-.2045898,3.1716309-.6821289,4.2629395-1.5688477,1.3300781-1.0913086,1.9438477-2.6254883,1.9438477-4.1943359.0341797-1.5688477-1.1252441-3.4785156-3.0351562-4.3310547-1.909668-.8188477-3.9560547-.8867188-6.0703125-.2050781-2.1484375.6821289-3.5126953,1.7397461-4.5358887,3.1035156-1.0229492,1.3300781-1.7731934,2.9331055-2.0461426,3.8198242-.2727051.8867188-.579834,1.3642578-1.0229492,1.6025391-.204834.1025391-.579834.2729492-1.1254883-.1704102-.3752441-.3066406-.4091797-1.0229492-.3752441-1.5004883.0341797-.4433594.8867188-1.534668,1.5007324-2.3188477.6479492-.8188477,1.5344238-2.0805664,2.6940918-3.3422852,1.1594238-1.2617188,3.0009766-3.5126953,3.7512207-4.3652344.7163086-.8867188,3.0693359-3.7172852,3.4445801-4.2290039.375-.4770508.5456543-.8525391.375-.9887695-.1704102-.1704102-.7502441.0683594-1.0913086.2729492-.375.2387695-2.0461426,1.2275391-3.0009766,1.7734375-.9890137.5112305-1.7050781.75-2.5578613.75-.8525391,0-1.4321289-.4433594-1.7731934-.75-.3410645-.3413086-.4775391-.8530273-.3752441-1.0913086.1364746-.3413086.4775391-.3754883.7502441-.2729492.3068848.0678711.7163086.2045898,1.159668.2045898.4431152.0341797.8525391-.0341797,1.909668-.4775391,1.0231934-.4091797,2.387207-1.0571289,3.546875-1.6708984,1.1594238-.6142578,1.8754883-1.0571289,2.5234375-1.0913086.6821289-.0341797,1.3642578.375,1.8076172.8867188.4433594.4770508.4772949.7841797.4091797,1.0913086-.0681152.3066406-.2387695.4770508-.7160645.7841797-.4775391.2729492-1.5007324,1.159668-2.4213867,2.0800781-.9208984.9550781-2.0461426,2.3535156-2.8647461,3.2402344,0,0-.8183594.8867188-2.4213867,2.5576172.4775391-.3408203.9550781-.6137695,1.8757324-.9550781,1.3300781-.4775391,2.7282715-.75,4.4675293-.5795898,1.7734375.1704102,3.2058105.7163086,4.501709,1.6367188,1.2958984.9208984,2.3190918,2.2851562,2.489502,4.2631836.1706543,1.8754883-.3410645,3.2397461-1.5004883,4.5356445Zm-9.8217773-.5454102c-1.0913086.0341797-1.7734375.6821289-1.2958984,1.3637695.2727051.3754883,1.1252441.7163086,2.5576172.7504883,1.3300781-1.1938477.1364746-2.1142578-1.2617188-2.1142578Z"/>
      </g>
      <g>
        <g>
          <path class="cls-1" d="m127.792873,97.1623751c.4689941-.6396484.8527832-1.2578125,1.2363281-1.8969727-.0424805-.0639648-.1064453-.1279297-.1704102-.1918945-.5117188-.5541992-1.1083984-1.0234375-1.833252-1.5561523-.234375-.1494141-.5754395-.3837891-.4689941-.5541992.1279297-.1918945.3410645-.1069336.8952637.1279297.5756836.234375,1.0871582.5541992,2.1318359,1.1933594.1491699-.234375.2770996-.4902123.4050293-.7670898.7460938-1.3857422,1.0656738-2.2807617,1.1936035-2.8779297.1279297-.6181641.0427246-1.1083984-.1918945-1.4067383-.2131348-.2773438-.4689941-.5966797-.3195801-.8100586.1916504-.2773438.5541992-.1704102,1.0231934.0214844.5541992.1918945.9592285.5541992,1.2363281.9804688.2770996.4477539.1704102.8100586.0212402.9589844-.1704102.1494141-.3410645.2773438-.4050293.5541992-.0852051.2558594-.2131348.7250977-.4902344,1.300293-.3410645.7460938-.8527832,1.684082-1.5134277,2.7075195.6181641.4477539,1.151123.9165039,1.4921875,1.2573242.6821289.7460938.8952637,1.684082.2556152,2.0253906-.6181641.3408203-1.2788086-.1494141-1.7905273-.9594727-.2558594-.3837891-.5114746-.7670898-.7460938-1.1083984-.8312988,1.1938477-1.300293,1.8759766-2.3662109,3.0483398-1.0656738,1.1723633-1.8544922,1.8759766-3.2612305,2.8564453-.532959.3623047-.831543.4262695-.8952637.2983398-.0854492-.1279297.1276855-.3198242.3835449-.5541992.5541992-.46875,1.0871582-.9165039,1.8972168-1.769043.7885742-.8740234,1.4494629-1.7055664,2.2807617-2.8779297Z"/>
          <path class="cls-1" d="m157.5245624,95.7766329c-.0427246.2558594-.3410645.3413086-.7888184.2558594-.4262695-.0639648-1.6413574-.2128906-2.4086914-.2768555s-2.451416-.1494141-3.2402344-.1069336c-.767334.0639648-2.3234863.1069336-3.3251953.2133789-.7888184.0854492-1.7053223.2983398-2.451416.3198242-.767334,0-1.4921875-.234375-1.918457-.5541992-.4265137-.3198242-.5969238-.8100586-.3625488-.9804688.3625488-.2773438.9807129-.0214844,1.5136719.1274414.4902344.1494141,1.4919434.2558594,2.3234863.2348633.8737793-.0429688,2.685791-.1279297,3.6022949-.1494141.8955078-.0424805,3.3894043-.1279297,4.2421875-.1489258.8737793,0,1.7478027.0209961,2.1955566.2128906.4475098.1918945.6606445.5541992.6181641.8525391Z"/>
          <path class="cls-1" d="m164.447414,103.0241915c.3623047-.234375.8525391-.6181641,1.2150879-.9375,1.1083984-.9594727,1.9824219-1.8549805,2.685791-2.8779297.6821289-1.0444336,1.2150879-2.0463867,1.6413574-3.1972656.2983398-.7460938.532959-1.5561523.7460938-2.3022461-.5969238.0639648-1.1083984.1279297-1.4494629.1704102-.4689941.0424805-1.065918.1704102-1.5134277.1494141-.4904785-.0214844-1.1938477-.1494141-1.6628418-.5332031-.4262695-.3837891-.5754395-.7670898-.4475098-.9589844.1704102-.2988281.767334-.1069336,1.151123.0209961.3835449.1069336,1.0231934.234375,1.9609375.2558594.8100586.0214844,1.4709473-.0424805,2.1743164-.0849609,0,0,.0212402-.0214844.0212402-.0429688.1706543-.9165039.298584-1.9399414.3198242-2.4301758.0427246-.46875-.1704102-.9804688-.3623047-1.2573242-.2131348-.2988281-.3198242-.5756836-.2346191-.7460938.1279297-.1918945.4050293-.1708984.8740234-.0214844.4477539.1494141.7248535.3198242.9807129.6181641.234375.2558594.2983398.5966797.1916504.831543-.0637207.1489258-.1491699.4047852-.1916504.7460938-.1494141.7460938-.2346191,1.4492188-.3837891,2.1743164.532959-.0429688,1.065918-.1279297,1.6201172-.2133789.8312988-.1064453,1.2575684-.2133789,1.6413574-.3198242.3835449-.1064453.7033691-.3198242.8952637-.46875.1918945-.1708984.4902344-.1918945.8525391.0849609.3625488.2773438.6821289.6396484.7888184.8955078s0,.5117188-.1279297.6181641c-.1064453.0854492-.2131348.3623047-.2558594.5541992-.0424805.3413086-.1064453.8740234-.2131348,1.7480469-.1279297.8950195-.2983398,1.769043-.5754395,3.0053711-.298584,1.1938477-.5541992,1.8974609-.8952637,2.4091797-.3198242.4902344-.6181641.6181641-.9592285.5327148-.2558594-.0639648-.3837891-.234375-.5117188-.6181641s-.3198242-.6821289-.6181641-.9804688c-.2770996-.3198242-.6394043-.5541772-1.0019531-.7675781-.1916504-.1064453-.2983398-.2558594-.2556152-.3623047.0424805-.1064453.2131348-.1279297.4475098-.0424805.3625488.1064453.767334.2553711,1.3430176.4262695.5541992.1704102.9165039.1064453,1.1083984-.2983398.2131348-.4052734.3410645-.8740234.532959-1.8549805.1918945-1.0014648.2770996-1.8115234.3837891-3.0693359.0212402-.4052734.0424805-.6396484-.0427246-.7036133-.0639648-.0639648-.2558594-.1279297-.4050293-.1704102s-.2983398,0-.4477539,0c-.1276855.0214844-.3410645.0854492-1.001709.1918945-.6181641.1064453-1.3217773.1704102-2.5581055.3408203-.0639648.1708984-.1279297.3413086-.1918945.5546875-.46875,1.2363281-.8737793,2.1738281-1.4067383,3.1547852-.532959,1.0014648-1.0019531,1.7905273-1.7692871,2.7495117-.7460938.9379883-1.5773926,1.7480469-2.4726562,2.4086914-.4477539.3413086-1.0019531.6611328-1.4282227.8740234-.298584.1494141-.4689941-.0849609-.1918945-.2558594Z"/>
          <path class="cls-1" d="m200.1476093,95.7766329c-.0427246.2558594-.3410645.3413086-.7888184.2558594-.4262695-.0639648-1.6413574-.2128906-2.4086914-.2768555s-2.451416-.1494141-3.2402344-.1069336c-.767334.0639648-2.3234863.1069336-3.3251953.2133789-.7888184.0854492-1.7053223.2983398-2.451416.3198242-.767334,0-1.4921875-.234375-1.918457-.5541992-.4265137-.3198242-.5969238-.8100586-.3625488-.9804688.3625488-.2773438.9807129-.0214844,1.5136719.1274414.4902344.1494141,1.4919434.2558594,2.3234863.2348633.8737793-.0429688,2.685791-.1279297,3.6022949-.1494141.8955078-.0424805,3.3894043-.1279297,4.2421875-.1489258.8737793,0,1.7478027.0209961,2.1955566.2128906.4475098.1918945.6606445.5541992.6181641.8525391Z"/>
        </g>
        <path class="cls-2" d="m99.8055683,94.210715h2.6098633c2.4191895,0,4.2653809-.8911133,5.6657715-2.8647461,1.2097168-1.5917969,1.8461914-3.5649414,1.8461914-6.0478516,0-1.6552734-.3820801-3.1826172-.954834-4.3925781-1.2094727-2.4189453-2.8647461-3.628418-5.2202148-3.628418-3.3740234,0-5.3474121,1.4003906-6.0476074,4.2651367,1.2731934.4458008,1.8461914,1.2734375,1.8461914,2.6103516,0,1.7822266-.8913574,2.6098633-2.6101074,2.6098633-1.8461914,0-2.8647461-1.0825195-2.8647461-3.246582,0-1.4643555.5092773-2.7373047,1.4643555-4.0742188,1.9733887-2.6103516,4.7106934-3.8833008,8.2119141-3.8833008,2.8010254,0,5.0292969.8276367,6.8752441,2.4829102,1.9733887,1.7822266,2.9919434,4.1376953,2.9919434,7.1298828,0,5.4746094-2.673584,8.8486328-8.0847168,10.0581055,6.1113281,1.1459961,9.1669922,4.7104492,9.1669922,10.6948242,0,3.246582-.954834,5.9204102-2.864502,8.0844727-1.9736328,2.2919922-4.7746582,3.5014648-8.2758789,3.5014648-2.7373047,0-5.1564941-.7636719-7.1936035-2.2280273-2.2280273-1.527832-3.4375-3.5014648-3.4375-5.7929688,0-1.0185547.3818359-1.8461914,1.0185547-2.4194336.572998-.5727539,1.2094727-.8911133,1.8459473-.8911133,1.0822754,0,1.8461914.5092773,2.4829102,1.3369141.3818359.4458008.4455566,1.0185547.4455566,1.527832,0,1.0820312-.572998,1.909668-1.71875,2.4189453.190918.8276367.5092773,1.4643555,1.0822754,1.9736328,1.2729492,1.527832,3.1191406,2.3554688,5.2836914,2.3554688,1.7824707,0,3.3740234-.7001953,4.6469727-2.1005859,1.9099121-1.9736328,2.8012695-4.5839844,2.8012695-7.8305664,0-6.2382812-2.8012695-9.4213867-8.4033203-9.4213867h-2.6098633v-2.2280273Z"/>
      </g>
      <g>
        <path class="cls-1" d="m593.5890156,47.8366915c.5581055-.5400391,3.0068359-3.1147461,4.1049805-4.2495117,1.0805664-1.1162109,1.1523438-1.2963867,1.1523438-1.512207,0-.144043-.0898438-.2880859-.2338867-.3422852-.1259766-.0537109-.1621094-.0898438-.1621094-.1621094,0-.0717773.1079102-.1079102.2700195-.1079102.5222168,0,.4682617.0541992,1.0803223.0541992.5583496,0,1.6206055-.0541992,1.9086914-.0541992.2519531,0,.3059082.0541992.3059082.1259766,0,.0722656-.0358887.1079102-.197998.1259766-.342041.0361328-.6662598.1083984-.9182129.2163086-.4501953.1801758-.7922363.3959961-1.8725586,1.4404297-1.5844727,1.5302734-3.637207,3.5649414-4.1052246,4.0869141,1.1342773,1.2426758,4.411377,4.5737305,5.2575684,5.3657227,1.4765625,1.3867188,2.1066895,1.7827148,2.9709473,1.9448242.1618652.0361328.342041.0537109.5222168.0537109.144043,0,.2519531.0361328.2519531.1259766,0,.090332-.0720215.1264648-.2700195.1264648h-1.3325195c-1.5664062,0-1.9804688-.1982422-2.8266602-.8642578-1.0805664-.8461914-4.3212891-4.3212891-5.9057617-6.2119141v1.8544922c0,1.7285156,0,3.1508789.0898438,3.9072266.0541992.5219727.1621094.9179688.7021484.9902344.2521973.0361328.6123047.0717773.7202148.0717773.1621094,0,.2163086.0722656.2163086.1259766,0,.090332-.0722656.1264648-.2702637.1264648-.9902344,0-2.1245117-.0541992-2.2145996-.0541992s-1.1523438.0541992-1.6923828.0541992c-.1982422,0-.2880859-.0180664-.2880859-.1264648,0-.0537109.0358887-.1259766.197998-.1259766.1079102,0,.3059082-.0175781.4680176-.0537109.3601074-.0722656.4682617-.4863281.5402832-1.0083008.0900879-.7563477.0900879-2.1787109.0900879-3.9072266v-3.1689453c0-2.809082,0-3.3129883-.0361328-3.8891602-.0361328-.6123047-.2160645-.918457-.6123047-1.0083008-.197998-.0541992-.5219727-.0722656-.6479492-.0722656-.144043,0-.1982422-.0356445-.1982422-.1079102,0-.1079102.0900879-.144043.2880859-.144043.5942383,0,1.8005371.0541992,1.890625.0541992s1.2243652-.0541992,1.7646484-.0541992c.197998,0,.2880859.0361328.2880859.1259766,0,.0722656-.0361328.1079102-.1982422.1259766-.197998.0180664-.2160645.0180664-.3959961.0361328-.4863281.0541992-.6303711.4140625-.6662598,1.0444336-.0358887.5761719-.0358887,1.0800781-.0358887,3.8891602v1.1523438Z"/>
        <path class="cls-1" d="m608.5279804,47.9265353c0-2.3764648,0-2.8085938-.0358887-3.2949219-.0361328-.4858398-.144043-.7563477-.5222168-.828125-.1801758-.0361328-.3061523-.0361328-.4140625-.0541992-.1259766-.0180664-.1982422-.0537109-.1982422-.1259766,0-.0898438.0722656-.1259766.2702637-.1259766.5581055,0,1.5844727.0541992,1.6384277.0541992.0720215,0,1.1162109-.0541992,1.6206055-.0541992.1799316,0,.2700195.0361328.2700195.1259766,0,.0722656-.0541992.1079102-.1982422.1259766-.1079102.0180664-.197998.0180664-.3239746.0361328-.5222168.0722656-.5761719.3422852-.6120605.8642578-.0361328.4863281-.0180664.9003906-.0180664,3.2768555v2.7006836c0,1.3867188-.0180664,2.6469727.0720215,3.2954102.0720215.5219727.144043.7202148.6120605.828125.2341309.0541992.6123047.0717773.6843262.0717773.1618652.0180664.197998.0541992.197998.1259766,0,.0722656-.0720215.1264648-.2519531.1264648-.918457,0-1.9626465-.0541992-2.0527344-.0541992-.0539551,0-1.1162109.0541992-1.6206055.0541992-.1618652,0-.2880859-.0361328-.2880859-.1264648,0-.0717773.0722656-.1259766.2341309-.1259766.0900879,0,.2880859-.0175781.4321289-.0537109.3061523-.0722656.3601074-.4321289.4143066-.8642578.0898438-.6484375.0898438-1.9267578.0898438-3.2773438v-2.7006836Z"/>
        <path class="cls-1" d="m621.975246,50.6272189c0,1.3867188.0178223,2.6650391.0898438,3.3310547.0541992.4321289.0900879.6845703.5402832.7924805.2160645.0541992.5581055.0717773.7021484.0717773s.2160645.0541992.2160645.1083984c0,.0898438-.0539551.144043-.2341309.144043-.9182129,0-1.9804688-.0541992-2.0524902-.0541992s-1.1342773.0541992-1.6025391.0541992c-.197998,0-.2700195-.0361328-.2700195-.1264648,0-.0537109.0539551-.1259766.197998-.1259766s.2521973,0,.3962402-.0175781c.342041-.0541992.3959961-.2705078.4680176-.8823242.0720215-.6484375.0720215-1.9448242.0720215-3.2954102v-6.4277344c-.5942383,0-1.5483398,0-2.2685547.0180664-1.1523438.0180664-1.404541.1982422-1.6567383.5761719-.1618652.2519531-.2338867.4682617-.2700195.5581055-.0539551.1259766-.0898438.144043-.1621094.144043-.0717773,0-.0898438-.0717773-.0898438-.1621094-.0180664-.1079102.2519531-1.2963867.3601074-1.7822266.0539551-.2163086.1079102-.2880859.1618652-.2880859.1262207,0,.4682617.1616211.7924805.1977539.630127.0722656,1.1342773.090332,1.1523438.090332h5.9057617c.5039062,0,1.0441895-.0361328,1.2963867-.090332.2338867-.0537109.2880859-.0717773.342041-.0717773.0720215,0,.1079102.0898438.1079102.1621094,0,.5039062-.0358887,1.6923828-.0358887,1.8364258,0,.1621094-.0720215.2158203-.1259766.2158203-.0900879,0-.1262207-.0717773-.1262207-.2158203,0-.0541992,0-.0722656-.0178223-.2519531-.0722656-.7202148-.3061523-.9003906-2.1247559-.918457-.6843262,0-1.2424316-.0180664-1.7644043-.0180664v6.4277344Z"/>
        <path class="cls-1" d="m632.4859882,53.6345431c-1.5302734-1.3325195-1.9265137-3.097168-1.9265137-4.5913086,0-1.0087891.3962402-2.7910156,1.8186035-4.159668.972168-.9360352,2.4306641-1.6020508,4.8435059-1.6020508.828125,0,1.4943848.0717773,2.376709.1977539.5761719.090332,1.1523438.1801758,1.5844727.1982422.144043,0,.1621094.0898438.1621094.1801758,0,.1435547-.0541992.3056641-.0900879.8818359-.0180664.5043945-.0180664,1.4404297-.0361328,1.6567383-.0178223.2519531-.0539551.3422852-.144043.3422852-.1259766,0-.144043-.1083984-.144043-.3422852,0-.5219727-.2519531-1.2246094-.7021484-1.5664062-.5402832-.4682617-1.8005371-.918457-3.1870117-.918457-1.9985352,0-2.916748.5581055-3.4570312,1.0444336-1.170166,1.0620117-1.4404297,2.3588867-1.4404297,3.9428711,0,2.9892578,2.4309082,5.6181641,5.5998535,5.6181641,1.2241211,0,2.1245117-.1264648,2.7546387-.7382812.3242188-.3422852.5041504-.7924805.5942383-1.2963867.0358887-.1801758.0900879-.2700195.197998-.2700195.0900879,0,.0900879.1259766.0900879.2519531,0,.144043-.2341309,1.6025391-.3601074,1.9985352-.1079102.2880859-.1621094.3422852-.4140625.4501953-.6303711.2700195-1.8366699.3598633-2.8449707.3598633-2.376709,0-3.9970703-.5400391-5.2756348-1.6381836Z"/>
        <path class="cls-1" d="m656.1046406,48.3225314c.0539551,0,.1079102,0,.1079102-.0898438v-.3242188c0-2.3764648,0-2.7905273-.0358887-3.2768555-.0361328-.4858398-.1081543-.7382812-.7023926-.8461914-.1259766-.0180664-.3059082-.0361328-.4499512-.0361328-.1262207,0-.2160645-.0537109-.2160645-.1259766,0-.1079102.0898438-.1259766.2519531-.1259766.7563477,0,1.8186035.0541992,1.890625.0541992s1.0803223-.0541992,1.6206055-.0541992c.1799316,0,.2880859.0180664.2880859.1259766,0,.0541992-.0541992.1259766-.1982422.1259766-.1079102,0-.2519531.0180664-.3601074.0361328-.486084.0722656-.5581055.3603516-.5939941.8642578-.0180664.4863281-.0180664.9003906-.0180664,3.2768555v2.7006836c0,1.4765625,0,2.6469727.0720215,3.2954102.0539551.4321289.144043.7919922.6120605.8461914.2341309.0361328.4682617.0537109.6303711.0537109.144043,0,.2338867.0541992.2338867.1259766,0,.090332-.0898438.1264648-.2700195.1264648-.9003906,0-1.9445801-.0541992-2.034668-.0541992-.0720215,0-1.1162109.0541992-1.6025391.0541992-.1799316,0-.2700195-.0361328-.2700195-.144043,0-.0541992.0541992-.1083984.1982422-.1083984s.2700195,0,.4140625-.0356445c.3061523-.0541992.3959961-.4501953.4501953-.8642578.0898438-.6484375.0898438-1.7827148.0898438-3.2412109v-1.6025391c0-.0717773-.0539551-.1079102-.1079102-.1079102h-6.5361328c-.0539551,0-.0898438.0180664-.0898438.1079102v1.6025391c0,1.4584961,0,2.6289062.0898438,3.2768555.0541992.3964844.144043.7563477.6123047.8105469.2341309.0361328.5041504.0537109.6481934.0537109.1259766,0,.2160645.0541992.2160645.1259766,0,.0722656-.0720215.1264648-.2341309.1264648-.9182129,0-1.9804688-.0541992-2.0705566-.0541992-.0539551,0-1.1523438.0541992-1.6206055.0541992-.1799316,0-.2880859-.0361328-.2880859-.1264648,0-.0537109.0361328-.1259766.1982422-.1259766.144043,0,.2880859-.0175781.4321289-.0537109.3239746-.0722656.3959961-.4140625.4501953-.8105469.1079102-.6479492.0898438-1.8544922.0898438-3.3310547v-2.6645508c0-2.3764648,0-2.8447266-.0358887-3.3310547-.0361328-.4682617-.1621094-.8100586-.6843262-.8642578-.1621094-.0180664-.342041-.0361328-.486084-.0361328-.1259766,0-.197998-.0537109-.197998-.1079102,0-.1079102.0898438-.1259766.2700195-.1259766.7741699,0,1.6384277.0541992,1.8725586.0541992.0720215,0,1.1162109-.0541992,1.6206055-.0541992.1799316,0,.2700195.0361328.2700195.1259766,0,.0722656-.0720215.1079102-.1801758.1079102-.1079102,0-.1621094,0-.3601074.0361328-.4499512.0722656-.5581055.378418-.5939941.8823242-.0180664.4863281-.0180664.8823242-.0180664,3.2587891v.3242188c0,.0898438.0539551.0898438.1079102.0898438h6.5180664Z"/>
        <path class="cls-1" d="m666.1097675,47.9265353c0-2.3583984,0-2.7905273-.0358887-3.2768555-.0361328-.5039062-.1621094-.7563477-.6843262-.8642578-.1079102-.0180664-.2880859-.0361328-.4321289-.0361328-.1259766,0-.2341309-.0537109-.2341309-.1079102,0-.1079102.0900879-.144043.2702637-.144043.3601074,0,.8461914.0361328,1.8544922.0541992.0900879,0,3.2949219,0,3.6550293-.0180664s.5581055-.0361328.7021484-.090332c.1081543-.0356445.1262207-.0537109.1982422-.0537109.0358887,0,.0720215.0356445.0720215.1259766,0,.1079102-.1081543.3598633-.144043.8100586-.0180664.3061523-.0361328.5942383-.0539551.9365234,0,.1621094-.0361328.2700195-.1262207.2700195s-.1259766-.0722656-.1259766-.1982422c-.0180664-.2700195-.0720215-.4501953-.1259766-.5761719-.1081543-.3598633-.2702637-.4858398-1.1704102-.5400391-.2341309-.0180664-2.0166016-.0361328-2.0524902-.0361328-.0541992,0-.0900879.0361328-.0900879.144043v4.0874023c0,.1079102.0178223.1801758.1079102.1801758.2160645,0,2.0527344-.0180664,2.4309082-.0541992.4140625-.0180664.684082-.0717773.828125-.2700195.0720215-.1079102.1259766-.144043.197998-.144043.0361328,0,.0720215.0180664.0720215.1079102s-.0720215.4321289-.1259766.9541016c-.0539551.5043945-.0539551.8642578-.0720215,1.0986328-.0180664.144043-.0539551.1982422-.1259766.1982422-.0900879,0-.1081543-.1083984-.1081543-.234375,0-.1079102-.0180664-.2880859-.0539551-.4321289-.0720215-.2338867-.1799316-.4858398-.8642578-.5400391-.4140625-.0361328-1.8725586-.0722656-2.1606445-.0722656-.1081543,0-.1259766.0541992-.1259766.1264648v1.3139648c0,.5581055-.0180664,2.1430664,0,2.4487305.0358887.6665039.1259766,1.0083008.5041504,1.1704102.2700195.1259766.7021484.1621094,1.3144531.1621094.342041,0,.9182129.0180664,1.3681641-.1079102.5402832-.1621094.6662598-.5224609.8103027-1.1884766.0361328-.1801758.0900879-.2519531.1621094-.2519531.1081543,0,.1081543.1621094.1081543.2700195,0,.1259766-.144043,1.2602539-.1982422,1.5664062-.0720215.3603516-.197998.3959961-.7922363.3959961-1.1882324,0-1.6923828-.0356445-2.3225098-.0356445-.6303711-.0180664-1.4584961-.0541992-2.1247559-.0541992-.4140625,0-.7561035.0541992-1.1882324.0541992-.1621094,0-.2521973-.0361328-.2521973-.1264648,0-.0717773.0720215-.1259766.1621094-.1259766.1079102,0,.2341309-.0175781.3601074-.0537109.3239746-.0722656.5400391-.3061523.5761719-1.4223633.0180664-.6123047.0358887-1.3505859.0358887-2.7192383v-2.7006836Z"/>
        <path class="cls-1" d="m678.2596699,44.0193087c0-.5581055.0539551-.737793.197998-.737793.1259766,0,.4321289.3598633.5581055.4858398.1621094.1801758,2.6650391,2.7368164,5.1855469,5.3115234,1.404541,1.3686523,3.2050781,3.2231445,3.6733398,3.6552734l-.1982422-7.4902344c-.0180664-.972168-.1259766-1.2963867-.6120605-1.4223633-.3061523-.0541992-.5761719-.0722656-.7023926-.0722656-.1799316,0-.2158203-.0717773-.2158203-.144043,0-.0898438.144043-.1079102.3239746-.1079102.7741699,0,1.5305176.0541992,1.692627.0541992.1799316,0,.7380371-.0541992,1.4404297-.0541992.197998,0,.2519531.0180664.2519531.1079102,0,.0722656-.0539551.1259766-.1621094.144043-.1079102.0180664-.2519531.0180664-.4501953.0541992-.4140625.0898438-.5400391.2700195-.5400391,1.3500977l-.0361328,9.0390625c0,.9003906-.0358887.9902344-.1618652.9902344-.1262207,0-.3061523-.1259766-1.1884766-.9541016-.0720215-.0361328-2.574707-2.5209961-4.1411133-4.0512695-1.8725586-1.9448242-3.6730957-3.8173828-4.123291-4.2856445l.2341309,7.0400391c.0358887,1.2426758.144043,1.7109375.5939941,1.8188477.2880859.0717773.5942383.0717773.7382812.0717773s.2160645.0541992.2160645.1259766c0,.090332-.0900879.1264648-.2880859.1264648-.972168,0-1.6203613-.0541992-1.7463379-.0541992-.1262207,0-.7924805.0541992-1.5666504.0541992-.1618652,0-.2700195-.0180664-.2700195-.1264648,0-.0717773.0720215-.1259766.2521973-.1259766.1259766,0,.3239746,0,.5581055-.0717773.3959961-.1259766.486084-.6123047.486084-1.9267578,0-8.5883789.0180664-5.8154297,0-8.8046875Z"/>
      </g>
      <rect class="cls-3" x="0" width="1280.0000558" height="155.1470413"/>
    </g>
  </g>
</svg>