<?xml version="1.0" encoding="UTF-8"?>
<svg id="_レイヤー_2" data-name="レイヤー 2" xmlns="http://www.w3.org/2000/svg" xmlns:xlink="http://www.w3.org/1999/xlink" viewBox="0 0 749.9996536 107.7678958">
  <defs>
    <style>
      .cls-1 {
        fill: #fff;
      }

      .cls-2 {
        clip-path: url(#clippath);
      }

      .cls-3 {
        fill: none;
      }
    </style>
    <clipPath id="clippath">
      <rect class="cls-3" y="0" width="749.9996536" height="107.7678958"/>
    </clipPath>
  </defs>
  <g id="_レイヤー_1-2" data-name="レイヤー 1">
    <g class="cls-2">
      <g>
        <path class="cls-1" d="m276.3292282,79.4368411c3.0400391,1,4.5595703,2.3994141,4.5595703,4.0395508,0,.9194336-.3603516,1.359375-1.1591797,1.359375-.640625,0-1-.4399414-1.2001953-1.2797852-.2802734-1.3198242-1.1601562-2.4394531-2.6396484-3.4794922l.4394531-.6396484Zm10.1191406-1.5195312l-5.2392578,15.8369141c-.4003906,1.1201172-.6005859,1.9199219-.6005859,2.4399414,0,.3198242.0800781.7597656.2402344,1.3198242.3603516,1.4794922.5195312,2.6391602.5195312,3.519043,0,1.4799805-.5195312,2.2397461-1.6386719,2.2397461-.8398438,0-1.2402344-.3999023-1.2402344-1.2397461,0-.0400391.0400391-.5200195.1992188-1.4799805.1601562-1.199707.2011719-2.1591797.2011719-2.9594727,0-1.3193359-.2402344-2.1992188-.7607422-2.7192383-.3994141-.3999023-1.0400391-.6401367-1.9990234-.7597656v-.9599609c.6396484.1201172,1.0791016.199707,1.3193359.199707.9599609,0,1.7597656-.5996094,2.359375-1.7597656,2-3.8789062,3.9199219-8.5981445,5.7197266-14.1572266l.9199219.4799805Zm-7.6796875-6.1591797c3.2402344,1,4.8798828,2.2797852,4.8798828,3.8793945,0,.9199219-.4003906,1.3999023-1.2402344,1.3999023-.4794922,0-.8398438-.2802734-.9990234-.800293-.5205078-1.5595703-1.5205078-2.7993164-3.0400391-3.8393555l.3994141-.6396484Zm21.3164062,16.2373047v11.3178711c0,.5200195.2001953.8798828.6005859.9599609.2392578.0800781,1,.1601562,2.2392578.1601562,1.3203125,0,2.0400391-.2802734,2.2792969-.8798828.3203125-.7998047.5205078-2.5595703.640625-5.2392578l.9599609.3198242c0,.4799805-.0400391.9599609-.0400391,1.5200195,0,1.9995117.1601562,3.2392578.4794922,3.6391602.2402344.2001953.5205078.2802734.9199219.2802734,0,1.0395508-.2802734,1.6796875-.8798828,1.9594727-.5595703.3198242-1.9199219.4399414-4.0390625.4399414-2.6796875,0-4.2792969-.2001953-4.71875-.6401367-.3603516-.3198242-.5205078-.9995117-.5205078-1.9594727v-11.8779297h-3.7197266c-.0800781,3.8793945-.7597656,6.8789062-1.9199219,9.0786133-1.4394531,2.6791992-4.078125,4.7587891-7.9179688,6.3188477l-.5605469-.8398438c3.7998047-1.9599609,6.2392578-4.7192383,7.359375-8.2788086.5195312-1.6796875.7998047-3.7592773.8398438-6.2788086h-6.5195312l-.359375-.9199219h10.1982422v-7.4389648h-5.1992188c-.8798828,2.0400391-1.9189453,3.8793945-3.1591797,5.4794922l-.7197266-.4799805c1.7197266-3.1196289,2.8388672-7.0390625,3.3994141-11.6782227,2.2792969.4799805,3.3994141.9599609,3.3994141,1.3598633,0,.3198242-.4804688.6000977-1.4404297.8798828-.2392578.8798828-.5996094,2.0395508-1.1191406,3.5195312h4.8388672v-7.519043c2.3994141.0800781,3.5996094.3598633,3.5996094.9199219,0,.3598633-.4794922.6801758-1.5595703,1v5.5991211h4.6787109l1.7597656-2.4399414c.9199219.9199219,1.7197266,1.7597656,2.3193359,2.6396484l-.3994141.7197266h-8.3583984v7.4389648h6.1582031l1.8798828-2.5195312c.9599609.9599609,1.7197266,1.8398438,2.3603516,2.6796875l-.4003906.7597656h-7.359375Z"/>
        <path class="cls-1" d="m328.7677048,80.7967044c.5595703-2.0795898,1-3.9594727,1.2001953-5.7192383h-13.9980469l-.2402344-.8798828h27.6357422l1.9599609-2.5195312c.7988281.7197266,1.5996094,1.4399414,2.2392578,2.199707l.4394531.4799805-.3994141.7197266h-14.6777344c-.9199219,2.0395508-1.9599609,3.9194336-3.0390625,5.7192383h12.5976562l1.3994141-1.7597656c1.5195312,1.2397461,2.2802734,1.9995117,2.2802734,2.2797852,0,.199707-.1210938.3598633-.3603516.5195312l-.8798828.5600586v20.956543h-2.0800781v-2.3198242h-22.1962891v2.3198242h-2.1591797v-23.6362305c.6796875.2001953,1.5195312.6000977,2.5195312,1.0800781h7.7587891Zm-2.4794922.8798828h-5.6396484v18.4765625h5.6396484v-18.4765625Zm2.0390625,0v5.4389648h6.5996094v-5.4389648h-6.5996094Zm6.5996094,6.3188477h-6.5996094v5.559082h6.5996094v-5.559082Zm0,6.4790039h-6.5996094v5.6787109h6.5996094v-5.6787109Zm7.9179688,5.6787109v-18.4765625h-5.8789062v18.4765625h5.8789062Z"/>
        <path class="cls-1" d="m365.8878219,82.5965091c0,.3598633-.4794922.6796875-1.4394531.9995117v19.7568359h-2.1201172v-18.9169922c-1.7197266,2.7998047-3.5986328,5.2792969-5.6386719,7.519043l-.7597656-.6000977c4.2792969-5.6791992,7.5185547-12.3979492,9.6787109-20.1567383,2.2792969.6000977,3.4394531,1.1601562,3.4394531,1.6796875,0,.3603516-.5605469.6000977-1.6796875.7602539-1.1601562,3.0791016-2.3203125,5.7587891-3.5195312,8.0385742,1.359375.199707,2.0390625.4799805,2.0390625.9199219Zm8.5185547,4.0791016c.0400391,0,.2001953-.0400391.4404297-.2001953,3.4785156-2.1992188,6.5185547-4.8789062,9.0380859-8.0786133,1.7998047,1.2397461,2.6796875,2.159668,2.6796875,2.6396484,0,.2802734-.2402344.3999023-.7597656.3999023-.3203125,0-.6796875-.0800781-1.1201172-.159668-2.8789062,2.5195312-6.2792969,4.6791992-10.2783203,6.6787109v11.1181641c0,.6396484.2001953,1.0395508.6005859,1.2397461.4394531,0,1.7988281.1201172,4.2382812.1201172,2.5195312,0,3.9599609-.1201172,4.4003906-.2402344,1.0791016-.3598633,1.71875-2.8793945,1.9990234-7.4785156l.9599609.4399414c0,3.2792969.1201172,5.2788086.4003906,5.9189453.1992188.4799805.5595703.7197266,1.1191406.7197266-.0400391,1.1601562-.5195312,1.8798828-1.5595703,2.199707-1,.2797852-3.5195312.3598633-7.5585938.3598633-3.4794922,0-5.5195312-.2397461-6.1591797-.7597656-.4003906-.3598633-.5996094-1.1196289-.5996094-2.199707v-27.875c2.4794922.1196289,3.71875.4394531,3.71875.9995117,0,.2802734-.5195312.6401367-1.5595703,1.0400391v13.1176758Z"/>
        <path class="cls-1" d="m400.6886032,90.9148685c-1.2392578,2.8793945-2.9189453,5.7988281-5.1591797,8.7983398l-.7597656-.5595703c2.6796875-4.3193359,4.5996094-8.6386719,5.7197266-12.8378906l.0390625-.2402344h-4.9189453l-.2802734-.9194336h5.359375v-14.0380859c2.2792969.0400391,3.3994141.3203125,3.3994141.800293,0,.2797852-.4394531.5996094-1.3994141.9594727v12.2783203h2.1191406l1.4804688-2.0800781c.5996094.6000977,1.2392578,1.3598633,1.9199219,2.3198242l-.4003906.6796875h-5.1191406v2.6396484c3.4394531,1.8398438,5.1591797,3.6396484,5.1591797,5.359375,0,.8398438-.3603516,1.2797852-1.1201172,1.2797852-.4394531,0-.8398438-.4399414-1.1601562-1.2397461-.5195312-1.3198242-1.4394531-2.7197266-2.8789062-4.159668v13.3979492h-2v-12.4379883Zm-4.5986328-16.637207c1.9599609,2.4794922,2.9990234,4.8793945,2.9990234,7.1586914,0,1.2397461-.4394531,1.8798828-1.2792969,1.8798828-.5205078,0-.8398438-.6000977-.8798828-1.7998047-.0400391-2.3193359-.5205078-4.5991211-1.5205078-6.8388672l.6806641-.3999023Zm7.6386719,8.918457c.9599609-2.7993164,1.7197266-5.8789062,2.3193359-9.1982422,2,.5595703,2.9589844,1.0395508,2.9589844,1.5195312,0,.2802734-.4394531.5600586-1.3193359.7197266-.7998047,2.4399414-1.8398438,4.9194336-3.1992188,7.3188477l-.7597656-.3598633Zm8.5986328-5.3989258h5.2792969v-6.6391602c2.359375.0800781,3.5585938.3603516,3.5585938.9199219,0,.2402344-.4794922.5600586-1.4794922.8798828v4.8393555h4.6787109l1.6796875-2.199707c.7207031.5600586,1.4804688,1.3999023,2.2402344,2.3994141l-.3603516.6801758h-15.9169922v8.4785156c0,6.7988281-1.6796875,12.1577148-4.9990234,16.1171875l-.7197266-.5600586c2.4394531-3.9589844,3.5996094-9.1582031,3.5996094-15.5170898v-10.6782227s.359375.199707.9589844.4799805c.1201172.0400391.4804688.2797852,1.1201172.5996094l.3603516.2001953Zm8.0380859,11.6777344v11.6381836h3.8398438l1.7197266-2.4394531c.8798828.8798828,1.6396484,1.7597656,2.2792969,2.5996094l-.4394531.7197266h-16.3173828l-.4804688-.8798828h7.2792969v-11.6381836h-4.7597656l-.359375-.8793945h5.1191406v-8.0390625c2.359375.1601562,3.5185547.4799805,3.5185547.9599609,0,.3198242-.4394531.6401367-1.3994141.9599609v6.1191406h2.4794922l1.5996094-2.2797852c.7597656.7597656,1.4804688,1.5595703,2.1601562,2.3994141l-.4003906.7597656h-5.8388672Z"/>
        <path class="cls-1" d="m443.3682907,83.3562747c2-3.159668,3.9589844-7.1586914,5.71875-11.9179688,2.2402344.7597656,3.359375,1.4394531,3.359375,1.9594727,0,.3598633-.5595703.5600586-1.71875.6401367-1.5996094,3.1191406-3.6396484,6.1987305-6.1191406,9.2783203l2.1992188-.0400391c3.2792969-.1201172,6.5996094-.3198242,9.8789062-.5600586l4.5986328-.3598633c-1.5996094-1.7998047-3.4794922-3.5595703-5.6386719-5.2392578l.5195312-.7597656c6.9990234,4.2792969,10.4785156,7.519043,10.4785156,9.7182617,0,.8398438-.4003906,1.2797852-1.2001953,1.2797852-.4394531,0-.9589844-.4794922-1.5195312-1.4394531-.4804688-.7597656-1.0800781-1.5996094-1.8398438-2.5996094l-.9199219.1201172c-6.0390625.7197266-13.3173828,1.5996094-21.8759766,2.2392578-.3203125.9199219-.6396484,1.3999023-.9199219,1.3999023-.5205078,0-.9199219-1.199707-1.2392578-3.5595703.359375,0,.9199219-.0395508,1.71875-.0395508.6806641,0,1.2402344-.0400391,1.640625-.0400391l2.8789062-.0800781Zm16.4775391,6.2387695l1.359375-1.6396484c1.5595703,1.159668,2.3193359,1.9194336,2.3193359,2.3198242,0,.159668-.1191406.3198242-.3193359.4794922l-.9199219.5600586v11.7182617h-2.1591797v-2.7197266h-16.4775391v2.7197266h-2.2001953v-14.6777344c1.0400391.3999023,1.9599609.8398438,2.7197266,1.2397461h15.6777344Zm-16.1972656.9199219v8.918457h16.4775391v-8.918457h-16.4775391Z"/>
      </g>
      <g>
        <path class="cls-1" d="m305.3087204,33.7307864c-.2880859-.9545898-.5224609-1.2246094-.9902344-1.4042969-.234375-.090332-.6845703-.1083984-.8105469-.1083984-.0898438,0-.1621094-.0180664-.1621094-.1259766,0-.0898438.1083984-.1259766.2880859-.1259766.9365234,0,1.9267578.0541992,2.125.0541992.1621094,0,.9541016-.0541992,1.8544922-.0541992.2519531,0,.3242188.0541992.3242188.1259766,0,.1079102-.0908203.1259766-.1806641.1259766-.1435547,0-.4863281,0-.7021484.1083984-.1074219.0537109-.2333984.1977539-.2333984.4321289,0,.2338867.1621094.8642578.3417969,1.65625.2695312,1.1523438,2.1425781,7.7602539,2.4306641,8.7685547l3.8349609-10.3168945c.2705078-.7382812.3417969-.828125.4501953-.828125.1259766,0,.234375.2338867.4501953.8461914l3.6191406,10.3168945c.5224609-1.7646484,2.1787109-6.9858398,2.8085938-9.2905273.1796875-.6665039.1982422-.918457.1982422-1.1523438,0-.3242188-.1982422-.5405273-1.0263672-.5405273-.0898438,0-.1621094-.0537109-.1621094-.1259766,0-.0898438.0898438-.1259766.3066406-.1259766.9179688,0,1.6738281.0541992,1.8359375.0541992.1259766,0,.9003906-.0541992,1.4589844-.0541992.1621094,0,.2519531.0361328.2519531.1079102,0,.090332-.0546875.144043-.1621094.144043-.0722656,0-.4140625.0180664-.6123047.090332-.5400391.1977539-.828125.9541016-1.1708984,1.9443359-.7919922,2.2866211-2.6103516,8.0126953-3.3125,10.0292969-.4677734,1.3320312-.5585938,1.5483398-.7558594,1.5483398-.1806641,0-.2880859-.2338867-.5410156-.9365234l-3.546875-10.0649414c-.6660156,1.7827148-3.1328125,8.3725586-3.78125,10.046875-.2871094.7563477-.4140625.9545898-.59375.9545898s-.2695312-.1982422-.6298828-1.4223633l-3.2050781-10.6772461Z"/>
        <path class="cls-1" d="m329.8067673,41.184888c-.0898438,0-.1435547.0541992-.1796875.144043l-.7919922,2.2509766c-.1806641.5039062-.3066406.9902344-.3066406,1.2783203,0,.3237305.1982422.4677734.59375.4677734h.1269531c.1621094,0,.2158203.0541992.2158203.1259766,0,.090332-.1445312.1264648-.2705078.1264648-.3964844,0-1.2246094-.0541992-1.421875-.0541992-.1806641,0-.9726562.0541992-1.7285156.0541992-.1982422,0-.2890625-.0361328-.2890625-.1264648,0-.0717773.0722656-.1259766.2167969-.1259766.0898438,0,.2519531,0,.359375-.0175781.7753906-.0722656,1.0810547-.6665039,1.3867188-1.4228516l3.6015625-9.4887695c.1972656-.5219727.2519531-.6118164.3779297-.6118164.0898438,0,.1621094.0717773.3603516.5761719.2519531.59375,2.7011719,6.8779297,3.6542969,9.128418.5947266,1.4223633,1.1171875,1.6567383,1.3691406,1.746582.234375.0898438.4863281.0898438.6123047.0898438s.2158203.0361328.2158203.1259766c0,.090332-.0722656.1264648-.2695312.1264648-.1806641,0-1.53125,0-2.7373047-.0361328-.3427734-.0180664-.4501953-.0361328-.4501953-.1259766,0-.0541992.0537109-.1079102.1259766-.1259766.0722656-.0361328.1806641-.1264648.0722656-.3964844l-1.4228516-3.6186523c-.0361328-.0541992-.0722656-.090332-.1435547-.090332h-3.2773438Zm3.0615234-.6303711c.0712891,0,.0712891-.0537109.0537109-.1079102l-1.4228516-3.9790039c-.0898438-.2519531-.1074219-.2519531-.1972656,0l-1.3515625,3.9790039c-.0351562.0722656,0,.1079102.0371094.1079102h2.8808594Z"/>
        <path class="cls-1" d="m342.0821579,45.3802005c-.2333984-.1079102-.2333984-.1801758-.2333984-.6123047,0-.828125.0537109-1.4404297.0712891-1.6923828.0185547-.1621094.0537109-.2519531.1445312-.2519531.0898438,0,.1259766.0537109.1259766.1801758,0,.1079102,0,.3237305.0537109.5400391.234375,1.1704102,1.2958984,1.6201172,2.3408203,1.6201172,1.4941406,0,2.2148438-1.0258789,2.2148438-1.9262695,0-1.0263672-.46875-1.6567383-1.7832031-2.71875l-.7197266-.5581055c-1.7285156-1.3867188-2.0888672-2.3408203-2.0888672-3.4033203,0-1.65625,1.3144531-2.7724609,3.3310547-2.7724609.6298828,0,1.0625.0537109,1.4580078.1435547.3427734.0722656.4863281.090332.6132812.090332.125,0,.1621094.0361328.1621094.1079102,0,.0722656-.0722656.7021484-.0722656,1.746582,0,.2700195-.0361328.3779297-.1269531.3779297-.0898438,0-.1074219-.0717773-.125-.1977539-.0185547-.1621094-.0546875-.5400391-.2167969-.8461914-.0898438-.1621094-.5039062-.8461914-2.0166016-.8461914-1.0800781,0-1.8896484.6479492-1.8896484,1.7285156,0,.8461914.4316406,1.3681641,1.9257812,2.5024414l.4140625.3242188c1.8730469,1.4404297,2.359375,2.3945312,2.359375,3.6728516,0,.6484375-.2705078,1.8007812-1.3691406,2.5571289-.7021484.4501953-1.5664062.6298828-2.4306641.6298828-.7558594,0-1.4580078-.0898438-2.1425781-.3959961Z"/>
        <path class="cls-1" d="m363.1807907,38.8260013c.0537109,0,.1074219,0,.1074219-.0898438v-.3242188c0-2.3764648,0-2.7905273-.0351562-3.2768555-.0361328-.4858398-.1083984-.7382812-.703125-.8461914-.125-.0180664-.3056641-.0361328-.4492188-.0361328-.1269531,0-.2167969-.0537109-.2167969-.1259766,0-.1079102.0898438-.1259766.2519531-.1259766.7568359,0,1.8193359.0541992,1.890625.0541992.0722656,0,1.0810547-.0541992,1.6210938-.0541992.1796875,0,.2880859.0180664.2880859.1259766,0,.0541992-.0537109.1259766-.1982422.1259766-.1074219,0-.2519531.0180664-.3603516.0361328-.4853516.0722656-.5576172.3603516-.59375.8642578-.0185547.4863281-.0185547.9003906-.0185547,3.2768555v2.7006836c0,1.4765625,0,2.6469727.0722656,3.2954102.0546875.4321289.1445312.7919922.6123047.8461914.234375.0361328.4677734.0537109.6298828.0537109.1445312,0,.234375.0541992.234375.1259766,0,.090332-.0898438.1264648-.2695312.1264648-.9003906,0-1.9453125-.0541992-2.0351562-.0541992-.0722656,0-1.1162109.0541992-1.6025391.0541992-.1796875,0-.2705078-.0361328-.2705078-.144043,0-.0541992.0546875-.1083984.1992188-.1083984.1435547,0,.2695312,0,.4140625-.0356445.3056641-.0541992.3955078-.4501953.4492188-.8642578.0898438-.6484375.0898438-1.7827148.0898438-3.2412109v-1.6025391c0-.0717773-.0537109-.1079102-.1074219-.1079102h-6.5361328c-.0537109,0-.0898438.0180664-.0898438.1079102v1.6025391c0,1.4584961,0,2.6289062.0898438,3.2768555.0537109.3964844.1435547.7563477.6123047.8105469.234375.0361328.5039062.0537109.6484375.0537109.1259766,0,.2158203.0541992.2158203.1259766,0,.0722656-.0722656.1264648-.234375.1264648-.9179688,0-1.9804688-.0541992-2.0703125-.0541992-.0537109,0-1.1523438.0541992-1.6201172.0541992-.1806641,0-.2890625-.0361328-.2890625-.1264648,0-.0537109.0371094-.1259766.1992188-.1259766.1435547,0,.2871094-.0175781.4316406-.0537109.3242188-.0722656.3964844-.4140625.4501953-.8105469.1083984-.6479492.0898438-1.8544922.0898438-3.3310547v-2.6645508c0-2.3764648,0-2.8447266-.0361328-3.3310547-.0361328-.4682617-.1621094-.8100586-.6835938-.8642578-.1621094-.0180664-.3427734-.0361328-.4863281-.0361328-.1259766,0-.1982422-.0537109-.1982422-.1079102,0-.1079102.0898438-.1259766.2705078-.1259766.7734375,0,1.6376953.0541992,1.8720703.0541992.0722656,0,1.1162109-.0541992,1.6201172-.0541992.1806641,0,.2705078.0361328.2705078.1259766,0,.0722656-.0722656.1079102-.1806641.1079102-.1074219,0-.1621094,0-.359375.0361328-.4501953.0722656-.5585938.378418-.59375.8823242-.0185547.4863281-.0185547.8823242-.0185547,3.2587891v.3242188c0,.0898438.0537109.0898438.1083984.0898438h6.5175781Z"/>
        <path class="cls-1" d="m372.2862594,45.3802005c-.234375-.1079102-.234375-.1801758-.234375-.6123047,0-.828125.0537109-1.4404297.0722656-1.6923828.0175781-.1621094.0537109-.2519531.1435547-.2519531.0908203,0,.1259766.0537109.1259766.1801758,0,.1079102,0,.3237305.0546875.5400391.2333984,1.1704102,1.2958984,1.6201172,2.3398438,1.6201172,1.4951172,0,2.2148438-1.0258789,2.2148438-1.9262695,0-1.0263672-.4677734-1.6567383-1.7822266-2.71875l-.7197266-.5581055c-1.7285156-1.3867188-2.0888672-2.3408203-2.0888672-3.4033203,0-1.65625,1.3144531-2.7724609,3.3310547-2.7724609.6298828,0,1.0625.0537109,1.4580078.1435547.3427734.0722656.4863281.090332.6123047.090332s.1621094.0361328.1621094.1079102c0,.0722656-.0722656.7021484-.0722656,1.746582,0,.2700195-.0361328.3779297-.1259766.3779297s-.1083984-.0717773-.1259766-.1977539c-.0175781-.1621094-.0537109-.5400391-.2158203-.8461914-.0908203-.1621094-.5048828-.8461914-2.0166016-.8461914-1.0800781,0-1.890625.6479492-1.890625,1.7285156,0,.8461914.4316406,1.3681641,1.9267578,2.5024414l.4140625.3242188c1.8720703,1.4404297,2.3583984,2.3945312,2.3583984,3.6728516,0,.6484375-.2695312,1.8007812-1.3681641,2.5571289-.7021484.4501953-1.5664062.6298828-2.4306641.6298828-.7558594,0-1.4589844-.0898438-2.1425781-.3959961Z"/>
        <path class="cls-1" d="m388.7930954,41.1306888c0,1.3867188.0175781,2.6650391.0898438,3.3310547.0537109.4321289.0898438.6845703.5400391.7924805.2167969.0541992.5585938.0717773.7021484.0717773.1445312,0,.2158203.0541992.2158203.1083984,0,.0898438-.0537109.144043-.2333984.144043-.9189453,0-1.9804688-.0541992-2.0527344-.0541992s-1.1337891.0541992-1.6025391.0541992c-.1982422,0-.2695312-.0361328-.2695312-.1264648,0-.0537109.0537109-.1259766.1972656-.1259766.1445312,0,.2519531,0,.3964844-.0175781.3417969-.0541992.3964844-.2705078.4677734-.8823242.0722656-.6484375.0722656-1.9448242.0722656-3.2954102v-6.4277344c-.5947266,0-1.5478516,0-2.2685547.0180664-1.1523438.0180664-1.4042969.1982422-1.65625.5761719-.1621094.2519531-.234375.4682617-.2705078.5581055-.0537109.1259766-.0898438.144043-.1621094.144043-.0712891,0-.0898438-.0717773-.0898438-.1621094-.0185547-.1079102.2519531-1.2963867.3603516-1.7822266.0537109-.2163086.1074219-.2880859.1621094-.2880859.1259766,0,.4677734.1616211.7919922.1977539.6298828.0722656,1.1337891.090332,1.1523438.090332h5.9052734c.5039062,0,1.0449219-.0361328,1.296875-.090332.234375-.0537109.2880859-.0717773.3417969-.0717773.0722656,0,.1083984.0898438.1083984.1621094,0,.5039062-.0361328,1.6923828-.0361328,1.8364258,0,.1621094-.0722656.2158203-.1259766.2158203-.0898438,0-.1259766-.0717773-.1259766-.2158203,0-.0541992,0-.0722656-.0175781-.2519531-.0722656-.7202148-.3066406-.9003906-2.125-.918457-.6845703,0-1.2421875-.0180664-1.7646484-.0180664v6.4277344Z"/>
        <path class="cls-1" d="m399.9698532,41.184888c-.0898438,0-.1435547.0541992-.1796875.144043l-.7919922,2.2509766c-.1806641.5039062-.3066406.9902344-.3066406,1.2783203,0,.3237305.1982422.4677734.5947266.4677734h.1259766c.1621094,0,.2158203.0541992.2158203.1259766,0,.090332-.1445312.1264648-.2695312.1264648-.3964844,0-1.2246094-.0541992-1.4228516-.0541992-.1806641,0-.9726562.0541992-1.7285156.0541992-.1982422,0-.2880859-.0361328-.2880859-.1264648,0-.0717773.0722656-.1259766.2158203-.1259766.0898438,0,.2519531,0,.3603516-.0175781.7744141-.0722656,1.0800781-.6665039,1.3867188-1.4228516l3.6005859-9.4887695c.1982422-.5219727.2519531-.6118164.3779297-.6118164.0898438,0,.1621094.0717773.3603516.5761719.2519531.59375,2.7001953,6.8779297,3.6552734,9.128418.59375,1.4223633,1.1162109,1.6567383,1.3681641,1.746582.234375.0898438.4863281.0898438.6123047.0898438s.2158203.0361328.2158203.1259766c0,.090332-.0712891.1264648-.2705078.1264648-.1796875,0-1.5292969,0-2.7363281-.0361328-.3417969-.0180664-.4501953-.0361328-.4501953-.1259766,0-.0541992.0537109-.1079102.1259766-.1259766.0722656-.0361328.1796875-.1264648.0722656-.3964844l-1.421875-3.6186523c-.0371094-.0541992-.0722656-.090332-.1445312-.090332h-3.2773438Zm3.0615234-.6303711c.0712891,0,.0712891-.0537109.0537109-.1079102l-1.421875-3.9790039c-.0908203-.2519531-.1083984-.2519531-.1992188,0l-1.3496094,3.9790039c-.0361328.0722656,0,.1079102.0361328.1079102h2.8808594Z"/>
        <path class="cls-1" d="m412.6593063,34.5227786c0-.5581055.0546875-.737793.1982422-.737793.1259766,0,.4326172.3598633.5576172.4858398.1621094.1801758,2.6660156,2.7368164,5.1855469,5.3115234,1.4052734,1.3686523,3.2050781,3.2231445,3.6738281,3.6552734l-.1982422-7.4902344c-.0185547-.972168-.1259766-1.2963867-.6123047-1.4223633-.3056641-.0541992-.5761719-.0722656-.7021484-.0722656-.1796875,0-.2158203-.0717773-.2158203-.144043,0-.0898438.1445312-.1079102.3242188-.1079102.7734375,0,1.5302734.0541992,1.6923828.0541992.1796875,0,.7382812-.0541992,1.4404297-.0541992.1982422,0,.2519531.0180664.2519531.1079102,0,.0722656-.0537109.1259766-.1621094.144043-.1074219.0180664-.2519531.0180664-.4501953.0541992-.4140625.0898438-.5400391.2700195-.5400391,1.3500977l-.0361328,9.0390625c0,.9003906-.0361328.9902344-.1621094.9902344s-.3056641-.1259766-1.1884766-.9541016c-.0722656-.0361328-2.5742188-2.5209961-4.140625-4.0512695-1.8730469-1.9448242-3.6738281-3.8173828-4.1230469-4.2856445l.2333984,7.0400391c.0361328,1.2426758.1445312,1.7109375.5947266,1.8188477.2871094.0717773.59375.0717773.7382812.0717773.1435547,0,.2158203.0541992.2158203.1259766,0,.090332-.0908203.1264648-.2880859.1264648-.9726562,0-1.6210938-.0541992-1.7460938-.0541992-.1269531,0-.7929688.0541992-1.5673828.0541992-.1611328,0-.2695312-.0180664-.2695312-.1264648,0-.0717773.0712891-.1259766.2519531-.1259766.1259766,0,.3242188,0,.5576172-.0717773.3964844-.1259766.4863281-.6123047.4863281-1.9267578,0-8.5883789.0185547-5.8154297,0-8.8046875Z"/>
        <path class="cls-1" d="m431.1280563,38.4300052c0-2.3764648,0-2.8266602-.0361328-3.2949219-.0361328-.4858398-.1806641-.7382812-.7021484-.8461914-.1083984-.0180664-.3789062-.0361328-.5224609-.0361328-.0898438,0-.1806641-.0537109-.1806641-.1079102,0-.1079102.1083984-.144043.2705078-.144043.7382812,0,1.8720703.0541992,1.9267578.0541992.1259766,0,1.0625-.0541992,2.0703125-.0541992,1.5849609,0,4.5371094-.1621094,6.4462891,1.7646484.7919922.7919922,1.5302734,2.0527344,1.5302734,3.8710938,0,1.9086914-.828125,3.402832-1.7109375,4.3032227-.7011719.7021484-2.0703125,1.7646484-4.8066406,1.7646484-.6845703,0-1.5664062-.0361328-2.2509766-.090332-.6845703-.0356445-1.2421875-.0898438-1.2958984-.0898438-.0371094,0-.2705078,0-.6132812.0180664-.3417969,0-.7734375.0361328-1.0439453.0361328-.1621094,0-.2519531-.0361328-.2519531-.1264648,0-.0537109.0537109-.1259766.1982422-.1259766s.2695312-.0175781.4140625-.0537109c.3066406-.0541992.4140625-.4321289.46875-.828125.1074219-.6665039.0898438-1.890625.0898438-3.3491211v-2.6650391Zm1.4765625,1.5307617c0,1.6201172.0175781,3.0249023.0175781,3.2949219.0175781.5581055.0537109,1.0439453.1796875,1.2060547.1982422.3061523.7744141.6845703,2.6464844.6845703,1.4765625,0,2.8095703-.4682617,3.7460938-1.4047852.7919922-.7919922,1.1699219-2.1425781,1.1699219-3.5830078,0-2.034668-.9365234-3.2768555-1.5488281-3.8710938-1.5302734-1.5302734-3.2949219-1.7104492-5.0771484-1.7104492-.2519531,0-.8105469.0541992-.9179688.1259766-.1445312.0722656-.1982422.144043-.1982422.3061523-.0175781.5219727-.0175781,2.0527344-.0175781,3.1328125v1.8188477Z"/>
      </g>
    </g>
  </g>
</svg>