<?xml version="1.0" encoding="utf-8"?>
<!-- Generator: Adobe Illustrator 27.5.0, SVG Export Plug-In . SVG Version: 6.00 Build 0)  -->
<svg version="1.1" id="_レイヤー_2" xmlns="http://www.w3.org/2000/svg" xmlns:xlink="http://www.w3.org/1999/xlink" x="0px"
	 y="0px" viewBox="0 0 1279.2 175.9" style="enable-background:new 0 0 1279.2 175.9;" xml:space="preserve">
<style type="text/css">
	.st0{clip-path:url(#SVGID_00000169537445412734960800000011149077299244148381_);}
	.st1{fill:#FFFFFF;}
	.st2{fill:#AE8F36;}
	.st3{fill:#E8C416;}
</style>
<g id="_レイヤー_1-2">
	<g>
		<defs>
			<rect id="SVGID_1_" width="1279.2" height="175.9"/>
		</defs>
		<clipPath id="SVGID_00000091738135711495683850000007217942707290300551_">
			<use xlink:href="#SVGID_1_"  style="overflow:visible;"/>
		</clipPath>
		<g style="clip-path:url(#SVGID_00000091738135711495683850000007217942707290300551_);">
			<g>
				<path class="st1" d="M548.5,86.3c0.4,0.6,0.1,1.2-0.4,1.8c-0.5,0.5-0.8,1.2-1.2,2.2c-0.8,2.2-1.5,3.6-3,6
					c-1.4,2.3-3,4.1-5.2,6.2c-2.2,2.1-3.7,3-5.7,4c-1.9,1-3.3,1.7-4.6,2.1c-0.7,0.2-1.2,0.2-1.3,0c-0.1-0.3,0.1-0.6,0.5-0.7
					c0.4-0.2,0.9-0.5,2.4-1.2c2.3-1.2,3.4-1.9,5.4-3.6c2.3-1.8,4.1-4,5.3-5.9c1.2-1.9,2.3-4,2.8-5.4c0.5-1.4,0.9-2.9,1.2-3.8
					c0.2-0.6,0.3-1.1,0-1.3c-0.3-0.2-1-0.1-1.9,0c-1.5,0.1-3.1,0.2-4.8,0.6c-1.7,0.3-3.4,0.8-4.8,1c-1.4,0.2-2.3,0-3.2-0.7
					c-0.9-0.6-1.2-1.6-0.8-1.9c0.4-0.4,0.9-0.2,1.4,0c0.5,0.2,1.2,0.4,2.3,0.5c1.2,0.1,2.3,0,4.3-0.2c1.9-0.2,4.4-0.4,5.5-0.6
					c1.1-0.1,1.7-0.2,2.3-0.6c0.6-0.4,1.1-0.6,1.8-0.2C547.6,85,548.3,85.7,548.5,86.3z"/>
				<path class="st1" d="M589.3,87.9c0.5,0.6,0.2,1.1-0.2,1.5c-0.4,0.4-0.8,0.8-0.9,1.2c-0.2,0.5-0.5,2.4-1,4.5
					c-0.3,1.6-0.9,4.8-1.1,6.1c0.3,0,0.6,0.1,0.8,0.2c0.9,0.5,1,1.2,0.8,1.6c-0.2,0.4-1,0.4-2.7,0.4c-1.6,0-4.7-0.2-6.9-0.2
					c-1.8,0-3.7,0.1-5,0.2c0,0.6,0,1,0,1.2c0,0.9-0.6,1.8-1.2,1.8c-0.7,0-0.7-0.8-0.8-2.4c-0.1-1.6-0.3-3.6-0.4-5.9
					c-0.1-2.3-0.4-5.6-0.5-7c-0.1-1.4-0.7-2.1-1.4-2.5c-0.7-0.4-1-0.8-0.9-1.4c0.1-0.4,0.4-0.6,1.3-0.5c1,0,1.8,0.3,2.5,0.9
					c0.6,0.5,1,1,1,1.5c1.1-0.2,2.8-0.4,4.2-0.5c2.2-0.2,5.4-0.6,6.3-0.8c1-0.1,1.6-0.2,2.2-0.8c0.6-0.6,1-1,1.8-0.7
					C588.2,86.9,588.9,87.4,589.3,87.9z M583.5,101.3c0.4,0,0.8-0.1,1.3-0.1c0.3-3.7,0.6-6,0.7-7.8c0.1-1,0.2-2.1,0.2-2.6
					c0-0.4-0.3-1-0.8-0.9c-0.5,0-3.4,0.2-5,0.4c-1.7,0.2-3.4,0.4-4.6,0.4c-0.7,0.1-1.8,0.2-2.6,0.4c0,0.3,0,0.6,0,1
					c0.1,1.5,0.3,4.9,0.4,6.9c0,1,0.1,2.2,0.1,3.3c1-0.1,3.1-0.2,4.5-0.4C579.5,101.6,582.3,101.4,583.5,101.3z"/>
				<path class="st1" d="M632.4,97.4c-0.1,0.5-0.6,0.6-1.5,0.5c-0.8-0.1-3.1-0.4-4.5-0.5c-1.4-0.1-4.6-0.3-6.1-0.2
					c-1.4,0.1-4.4,0.2-6.2,0.4c-1.5,0.2-3.2,0.6-4.6,0.6c-1.4,0-2.8-0.4-3.6-1c-0.8-0.6-1.1-1.5-0.7-1.8c0.7-0.5,1.8,0,2.8,0.2
					c0.9,0.3,2.8,0.5,4.4,0.4c1.6-0.1,5-0.2,6.8-0.3c1.7-0.1,6.4-0.2,8-0.3c1.6,0,3.3,0,4.1,0.4C632.1,96.2,632.5,96.9,632.4,97.4z"
					/>
				<path class="st1" d="M650.3,110.3c0.7-0.2,1.6-0.5,3.6-1.5c2-0.9,3.8-2.2,5.5-4c1.7-1.8,2.7-3.7,3.4-6.1
					c0.6-1.9,0.8-4.4,0.8-6.9c0.1-2.5-0.2-4.6-0.3-5.8c-0.1-1.2-0.5-1.6-1.1-2.1c-0.6-0.5-1-0.9-0.6-1.4c0.3-0.4,1-0.5,2.4,0
					c0.5,0.2,1,0.4,1.6,1c0.6,0.5,0.9,1.1,0.8,1.5c-0.1,0.4-0.2,1-0.2,1.5c0,0.9,0.1,2.7,0.1,5.1s-0.2,5.1-1.2,7.7
					c-1,2.5-1.9,4-3.6,5.7c-1.6,1.6-3.1,2.8-5,3.8c-1.8,1-4.2,1.7-6.1,2.2c-0.6,0.2-1,0.1-1.1-0.2
					C649.4,110.6,649.8,110.4,650.3,110.3z M656.7,87.8c-0.1,0.7,0,2.2,0,4.4c0,2.2,0.1,4.5,0.2,5.6c0.1,1.1-0.3,2-0.7,2.6
					c-0.4,0.6-1,0.5-1.4,0.2c-0.3-0.4-0.5-0.9-0.4-2.3c0.1-1.4,0.1-3.6,0.2-5.8c0.1-2.3,0-3.4,0-4.6c0-1.2-0.3-1.6-0.9-2.2
					c-0.5-0.4-1-0.8-0.9-1.2c0.1-0.4,0.6-0.4,1.6-0.3c1,0.2,1.8,0.6,2.4,1.3C657.3,86.2,656.8,87,656.7,87.8z"/>
				<path class="st1" d="M686.4,89.1c-0.9-0.5-1.4-0.7-1.3-1.1c0.2-0.4,0.8-0.3,1.6-0.2c0.9,0.1,1.8,0.3,2.9,0.8
					c1.1,0.5,1.8,0.8,2.8,1.8c1,0.8,1.6,2.4,0.6,3c-0.8,0.5-2-0.1-3-1.2C688.7,90.4,687.7,89.7,686.4,89.1z M712.1,88.5
					c-0.5,0.8-1.2,2-2.8,4.2c-1.4,2-2.9,3.9-5,6c-2.2,2.1-4.4,3.7-6.8,5.3c-2.4,1.6-4.6,2.5-6.2,2.9c-1.7,0.4-2.4,0.1-3.1-0.7
					c-0.7-0.8-0.9-2.2-0.5-2.6l1.3,0.3c0.4,0.2,1.1,0.3,1.9,0.2c1.4-0.1,4-1,5.8-2.2c1.9-1.2,4.4-3.2,6.2-4.8
					c1.8-1.6,3.1-2.8,5.1-5.1c2-2.4,3-3.6,3.2-4c0.3-0.4,0.6-0.6,0.8-0.4S712.3,88,712.1,88.5z"/>
				<path class="st1" d="M749.7,88.4c0.5,0.4,0.6,0.8,0.6,1.2c0,0.4-0.5,0.7-1,1c-0.6,0.3-1,1.5-1.5,2.6c-0.7,1.4-1.8,3.2-3.4,5.4
					c-1.6,2.2-2.8,3.6-4.3,5c-1.5,1.4-3.5,2.9-5.8,4.1c-2.3,1.2-3.6,1.9-6.2,2.7c-0.4,0.2-0.8,0-0.9-0.2c0-0.2,0.3-0.4,0.6-0.5
					c1.9-0.7,3-1.3,4.8-2.4c1.8-1.1,3.6-2.7,4.9-3.8c1.7-1.5,3.2-3.3,4.4-5c1.2-1.7,2-3.1,2.7-4.8c0.8-1.7,1-2.8,1-3.2
					c0.1-0.5,0-0.9-0.1-1c-0.2,0-0.7-0.1-1-0.1c-0.6,0-2.5,0-3.4,0h-2c-0.4,0.8-0.8,1.6-1.3,2.3c-1.3,2-2.5,3.4-4.2,4.7
					c-1.6,1.4-3,2.2-4.9,3c-0.4,0.1-0.8,0.1-0.9-0.1c-0.1-0.3,0.3-0.5,0.6-0.7c1.6-0.9,2.9-1.8,4.1-3c1.3-1.2,2.6-2.9,3.4-4.3
					c0.8-1.3,1.4-2.6,1.7-3.6c0.4-1,0.4-1.7,0.3-2.1c0-0.4-0.4-0.8-0.8-1.2c-0.3-0.4-0.6-0.8-0.3-1.2c0.3-0.4,1-0.2,1.8,0.1
					c0.7,0.2,1.5,0.6,1.9,1.1c0.4,0.5,0.3,1.2,0,2.1c-0.1,0.3-0.4,0.8-0.6,1.5c0.3,0,0.7,0.1,1,0.1c0.8,0.1,1.8,0.1,2.7,0
					c1-0.1,1.6-0.4,2.2-0.8c0.6-0.3,1.2-0.3,2,0C748.8,87.5,749.3,87.9,749.7,88.4z M748.3,85.7c-0.6-0.6-1.3-1.2-2.3-1.8
					c-0.4-0.2-0.5-0.5-0.4-0.8c0.2-0.2,0.5-0.1,0.7-0.1c0.6,0,1.3,0.2,2.2,0.5c0.8,0.3,2,1,2.4,1.6c0.4,0.7,0,1.3-0.6,1.5
					C749.8,86.7,748.9,86.3,748.3,85.7z M751.5,84.1c-0.6-0.8-1.3-1.2-2.5-1.7c-0.3-0.1-0.5-0.5-0.4-0.8c0.2-0.2,0.5-0.2,0.7-0.2
					c0.6,0,1.4,0.1,2.2,0.4s2,0.8,2.4,1.5c0.4,0.6,0.1,1.3-0.4,1.5C752.9,85.1,752,84.7,751.5,84.1z"/>
			</g>
			<circle class="st2" cx="147.2" cy="77.6" r="77.6"/>
			<g>
				<path class="st1" d="M103.7,58.9c0.5,0.7,1.1,1.3,1.8,1.7c2.3-0.9,4.2-2.1,5.8-3.7c1.4,0.7,2.1,1.2,2.1,1.5
					c0,0.2-0.3,0.3-0.9,0.3H112c-1.8,1-3.7,1.8-5.7,2.4c2,1,5.4,1.5,10.1,1.5c2.6,0,5.6-0.1,9-0.4c-0.4,0.6-0.7,1.3-0.9,2h-6.8
					c-5,0-8.5-0.4-10.4-1.2c-2-0.9-3.4-2-4.2-3.5c-1,1.5-2.1,2.9-3.2,4.2c0,0.8-0.1,1.2-0.4,1.2c-0.4,0-1-0.8-1.9-2.3
					c1.6-0.9,3-1.9,4.4-3.1v-8.2h-4.1l-0.3-0.8h4.2l1.1-1.4c1.2,1,1.9,1.6,1.9,1.9c0,0.1-0.1,0.3-0.3,0.3l-0.7,0.5V58.9z M99.2,38.8
					c3.2,1.5,4.8,3,4.8,4.6c0,0.8-0.4,1.2-1.1,1.2c-0.5,0-0.9-0.4-1.1-1.1c-0.5-1.5-1.5-2.9-3.1-4.1L99.2,38.8z M117.1,51.2v-2.8
					c2,0.1,2.9,0.3,2.9,0.7c0,0.2-0.4,0.4-1.2,0.7v1.4h2.4l1.3-1.8c0.1,0.1,0.1,0.1,0.2,0.2c0.6,0.5,1.1,1.1,1.6,1.7l-0.3,0.6h-5.1
					v3.5h3.3l1.4-1.8l0.3,0.3l0.2,0.2c0.5,0.4,0.9,1,1.3,1.5l-0.3,0.6h-19.9l-0.3-0.8h5.5v-3.5h-4.3l-0.3-0.8h4.6v-2.9
					c1.9,0,2.9,0.3,2.9,0.7c0,0.2-0.4,0.5-1.2,0.7v1.4H117.1z M108.1,43.1v2.3c0,0.3,0.1,0.6,0.2,0.7c0.2,0.1,0.9,0.2,2.2,0.2
					c1.4,0,2.2-0.1,2.5-0.4c0.2-0.3,0.3-0.8,0.4-1.6l0.7,0.2c0,0.1,0,0.2,0,0.4c0,0.7,0.3,1.1,0.9,1.1v0c0,0.7-0.2,1.2-0.7,1.4
					c-0.5,0.2-1.6,0.3-3.4,0.3c-2.1,0-3.4-0.1-3.8-0.3c-0.4-0.2-0.5-0.8-0.5-1.6v-4.3c0.3,0.1,0.9,0.4,1.9,0.8h3.6v-2.4h-6l-0.3-0.8
					h6.1l1-1.3c1.1,0.9,1.6,1.4,1.6,1.6c0,0.2-0.1,0.3-0.2,0.4l-0.5,0.4v3.6h-1.6v-0.7H108.1z M117.1,55.4v-3.5h-4.9v3.5H117.1z
					 M117.7,43.1v2.1c0,0.4,0,0.6,0.2,0.8c0.2,0.2,1,0.2,2.3,0.2c1.5,0,2.4-0.2,2.6-0.5c0.2-0.4,0.4-0.9,0.5-1.6l0.7,0.2
					c0,0.6,0.1,1.1,0.2,1.3c0.1,0.2,0.4,0.3,0.8,0.3c0,0.8-0.3,1.2-0.9,1.4c-0.5,0.2-1.7,0.3-3.6,0.3c-2,0-3.3-0.2-3.8-0.4
					c-0.3-0.2-0.5-0.6-0.5-1.3v-4.4c0.6,0.2,1.2,0.5,1.8,0.8h3.7v-2.4h-5.9l-0.3-0.8h5.9l1.1-1.3c1.1,0.9,1.6,1.4,1.6,1.6
					c0,0.1-0.1,0.2-0.3,0.4l-0.6,0.4v3.6h-1.6v-0.8H117.7z M116.6,57.2c4.7,0.8,7.1,1.9,7.1,3.2c0,0.7-0.3,1-0.9,1
					c-0.3,0-0.6-0.1-1-0.5c-1.2-1.2-3.1-2.3-5.6-3.1L116.6,57.2z"/>
				<path class="st1" d="M158,56.5c0.1,0.5-0.3,1.2-1.4,1.4c-1.4,0.1-2.8-0.5-4.2-1.6c-1.5-1.1-3.3-3.2-4.7-4.8
					c-1.4-1.7-2.7-3.3-3.2-4c-0.7-0.8-1.3-1.4-1.8-1.4c-0.6,0-1.1,0.5-1.5,1.1c-0.5,0.6-1.6,2.4-2.1,3.2c-0.4,0.8-1.5,2.2-2.5,2.5
					c-1,0.3-1.8,0-2.5-0.3c-0.7-0.3-1.1-0.9-0.9-1.3c0.1-0.3,0.6-0.3,1-0.2c0.4,0,0.9,0,1.4-0.2c0.5-0.2,1.1-0.7,1.8-1.3
					c0.7-0.6,1.4-1.4,2-2c0.6-0.6,0.9-1,1.5-1.7c0.6-0.8,1.1-1.1,1.7-1.1c0.6-0.1,1.3,0.6,1.9,1.2c0.6,0.6,1.8,1.6,2.8,2.8
					c1,1.1,2.4,2.4,3.9,3.8c0.9,0.9,2.4,2,3.5,2.7c1.1,0.6,1.9,0.8,2.5,0.8C157.4,55.9,157.9,56,158,56.5z M152.7,47.8
					c-0.5-0.5-1.2-1-2-1.5c-0.3-0.2-0.4-0.4-0.3-0.7c0.1-0.2,0.4-0.1,0.6-0.1c0.5,0,1.1,0.2,1.8,0.4c0.7,0.2,1.7,0.8,2,1.3
					c0.3,0.6,0,1.1-0.5,1.3C153.9,48.6,153.2,48.3,152.7,47.8z M155.4,46.4c-0.5-0.6-1.1-1-2.1-1.4c-0.3-0.1-0.4-0.4-0.3-0.6
					c0.1-0.2,0.4-0.2,0.6-0.2c0.5,0,1.2,0.1,1.9,0.3c0.7,0.2,1.7,0.7,2.1,1.3c0.3,0.5,0.1,1.1-0.4,1.3
					C156.6,47.2,155.8,46.9,155.4,46.4z"/>
				<path class="st1" d="M188,59.6c-1.3,1.4-2.8,2.3-4.5,2.7c-1.7,0.5-3.4,0.4-5.5,0c-2.1-0.4-2.9-1.2-2.9-2.2c0-1,1.3-1.8,2.4-2
					c1.2-0.2,2.5-0.2,3.5,0.6c0.9,0.7,0.9,1.5,0.4,2.4c1.6-0.2,3.2-0.7,4.3-1.6c1.3-1.1,1.9-2.6,1.9-4.2c0-1.6-1.1-3.5-3-4.3
					c-1.9-0.8-4-0.9-6.1-0.2c-2.1,0.7-3.5,1.7-4.5,3.1c-1,1.3-1.8,2.9-2,3.8c-0.3,0.9-0.6,1.4-1,1.6c-0.2,0.1-0.6,0.3-1.1-0.2
					c-0.4-0.3-0.4-1-0.4-1.5c0-0.4,0.9-1.5,1.5-2.3c0.6-0.8,1.5-2.1,2.7-3.3c1.2-1.3,3-3.5,3.8-4.4c0.7-0.9,3.1-3.7,3.4-4.2
					c0.4-0.5,0.5-0.9,0.4-1c-0.2-0.2-0.8,0.1-1.1,0.3c-0.4,0.2-2,1.2-3,1.8c-1,0.5-1.7,0.8-2.6,0.8c-0.9,0-1.4-0.4-1.8-0.8
					c-0.3-0.3-0.5-0.9-0.4-1.1c0.1-0.3,0.5-0.4,0.8-0.3c0.3,0.1,0.7,0.2,1.2,0.2c0.4,0,0.9,0,1.9-0.5c1-0.4,2.4-1.1,3.5-1.7
					c1.2-0.6,1.9-1.1,2.5-1.1c0.7,0,1.4,0.4,1.8,0.9c0.4,0.5,0.5,0.8,0.4,1.1s-0.2,0.5-0.7,0.8c-0.5,0.3-1.5,1.2-2.4,2.1
					c-0.9,1-2,2.4-2.9,3.2c0,0-0.8,0.9-2.4,2.6c0.5-0.3,1-0.6,1.9-1c1.3-0.5,2.7-0.8,4.5-0.6c1.8,0.2,3.2,0.7,4.5,1.6
					s2.3,2.3,2.5,4.3C189.7,57,189.2,58.4,188,59.6z M178.2,59.1c-1.1,0-1.8,0.7-1.3,1.4c0.3,0.4,1.1,0.7,2.6,0.8
					C180.8,60,179.6,59.1,178.2,59.1z"/>
			</g>
			<g>
				<g>
					<path class="st1" d="M127.8,97.2c0.5-0.6,0.9-1.3,1.2-1.9c0-0.1-0.1-0.1-0.2-0.2c-0.5-0.6-1.1-1-1.8-1.6
						c-0.2-0.1-0.6-0.4-0.5-0.6c0.1-0.2,0.3-0.1,0.9,0.1c0.6,0.2,1.1,0.6,2.1,1.2c0.1-0.2,0.3-0.5,0.4-0.8c0.7-1.4,1.1-2.3,1.2-2.9
						c0.1-0.6,0-1.1-0.2-1.4c-0.2-0.3-0.5-0.6-0.3-0.8c0.2-0.3,0.6-0.2,1,0c0.6,0.2,1,0.6,1.2,1c0.3,0.4,0.2,0.8,0,1
						c-0.2,0.1-0.3,0.3-0.4,0.6c-0.1,0.3-0.2,0.7-0.5,1.3c-0.3,0.7-0.9,1.7-1.5,2.7c0.6,0.4,1.2,0.9,1.5,1.3c0.7,0.7,0.9,1.7,0.3,2
						c-0.6,0.3-1.3-0.1-1.8-1c-0.3-0.4-0.5-0.8-0.7-1.1c-0.8,1.2-1.3,1.9-2.4,3c-1.1,1.2-1.9,1.9-3.3,2.9c-0.5,0.4-0.8,0.4-0.9,0.3
						c-0.1-0.1,0.1-0.3,0.4-0.6c0.6-0.5,1.1-0.9,1.9-1.8C126.3,99.2,127,98.3,127.8,97.2z"/>
					<path class="st1" d="M157.5,95.8c0,0.3-0.3,0.3-0.8,0.3c-0.4-0.1-1.6-0.2-2.4-0.3c-0.8-0.1-2.5-0.1-3.2-0.1
						c-0.8,0.1-2.3,0.1-3.3,0.2c-0.8,0.1-1.7,0.3-2.5,0.3c-0.8,0-1.5-0.2-1.9-0.6c-0.4-0.3-0.6-0.8-0.4-1c0.4-0.3,1,0,1.5,0.1
						c0.5,0.1,1.5,0.3,2.3,0.2c0.9,0,2.7-0.1,3.6-0.1c0.9,0,3.4-0.1,4.2-0.1c0.9,0,1.7,0,2.2,0.2C157.4,95.1,157.6,95.5,157.5,95.8z
						"/>
					<path class="st1" d="M164.4,103c0.4-0.2,0.9-0.6,1.2-0.9c1.1-1,2-1.9,2.7-2.9c0.7-1,1.2-2,1.6-3.2c0.3-0.7,0.5-1.6,0.7-2.3
						c-0.6,0.1-1.1,0.1-1.4,0.2c-0.5,0-1.1,0.2-1.5,0.1c-0.5,0-1.2-0.1-1.7-0.5c-0.4-0.4-0.6-0.8-0.4-1c0.2-0.3,0.8-0.1,1.2,0
						c0.4,0.1,1,0.2,2,0.3c0.8,0,1.5,0,2.2-0.1c0,0,0,0,0,0c0.2-0.9,0.3-1.9,0.3-2.4c0-0.5-0.2-1-0.4-1.3c-0.2-0.3-0.3-0.6-0.2-0.7
						c0.1-0.2,0.4-0.2,0.9,0c0.4,0.1,0.7,0.3,1,0.6c0.2,0.3,0.3,0.6,0.2,0.8c-0.1,0.1-0.1,0.4-0.2,0.7c-0.1,0.7-0.2,1.4-0.4,2.2
						c0.5,0,1.1-0.1,1.6-0.2c0.8-0.1,1.3-0.2,1.6-0.3c0.4-0.1,0.7-0.3,0.9-0.5c0.2-0.2,0.5-0.2,0.9,0.1c0.4,0.3,0.7,0.6,0.8,0.9
						s0,0.5-0.1,0.6c-0.1,0.1-0.2,0.4-0.3,0.6c0,0.3-0.1,0.9-0.2,1.7c-0.1,0.9-0.3,1.8-0.6,3c-0.3,1.2-0.6,1.9-0.9,2.4
						c-0.3,0.5-0.6,0.6-1,0.5c-0.3-0.1-0.4-0.2-0.5-0.6s-0.3-0.7-0.6-1c-0.3-0.3-0.6-0.6-1-0.8c-0.2-0.1-0.3-0.3-0.3-0.4
						c0-0.1,0.2-0.1,0.4,0c0.4,0.1,0.8,0.3,1.3,0.4c0.6,0.2,0.9,0.1,1.1-0.3c0.2-0.4,0.3-0.9,0.5-1.9c0.2-1,0.3-1.8,0.4-3.1
						c0-0.4,0-0.6,0-0.7c-0.1-0.1-0.3-0.1-0.4-0.2c-0.1,0-0.3,0-0.4,0c-0.1,0-0.3,0.1-1,0.2c-0.6,0.1-1.3,0.2-2.6,0.3
						c-0.1,0.2-0.1,0.3-0.2,0.6c-0.5,1.2-0.9,2.2-1.4,3.2c-0.5,1-1,1.8-1.8,2.7c-0.7,0.9-1.6,1.7-2.5,2.4c-0.4,0.3-1,0.7-1.4,0.9
						C164.3,103.4,164.2,103.2,164.4,103z"/>
					<path class="st1" d="M200.1,95.8c0,0.3-0.3,0.3-0.8,0.3c-0.4-0.1-1.6-0.2-2.4-0.3c-0.8-0.1-2.5-0.1-3.2-0.1
						c-0.8,0.1-2.3,0.1-3.3,0.2c-0.8,0.1-1.7,0.3-2.5,0.3c-0.8,0-1.5-0.2-1.9-0.6c-0.4-0.3-0.6-0.8-0.4-1c0.4-0.3,1,0,1.5,0.1
						c0.5,0.1,1.5,0.3,2.3,0.2c0.9,0,2.7-0.1,3.6-0.1c0.9,0,3.4-0.1,4.2-0.1c0.9,0,1.7,0,2.2,0.2C200,95.1,200.2,95.5,200.1,95.8z"
						/>
				</g>
				<path class="st3" d="M93.2,116.4v-2.3c2.2-3.8,5.8-9,10.6-15.5c4.3-6,6.4-10.6,6.4-13.8c0-1.8-0.4-3.6-1.3-4.9
					c-1.2-1.8-2.9-2.7-5.1-2.7c-1.7,0-3.1,0.5-4.3,1.6c-1.2,1.1-1.9,2.5-2.1,4.3c1.3,0.4,2,1.2,2,2.6c0,1.8-0.9,2.7-2.7,2.7
					c-2,0-2.9-1.2-2.9-3.5c0-2.4,0.9-4.6,2.7-6.5c2-2,4.5-3,7.4-3c2.6,0,4.8,0.6,6.6,2c2.4,1.8,3.5,4.3,3.5,7.4c0,2.8-1,5.7-3.1,8.7
					c-1,1.4-2.5,3.4-4.7,5.9c-3.9,4.5-7.4,9-10.4,13.6h12.6c2.1,0,3.4-0.9,4.1-2.7c0.4-1.1,0.7-2.7,0.9-4.7h1.3v10.6H93.2z"/>
			</g>
			<g>
				<path class="st1" d="M584.6,46.7c0-2.8,0-3.3,0-3.9c0-0.6-0.2-0.9-0.8-1c-0.1,0-0.3,0-0.5,0c-0.2,0-0.3,0-0.3-0.1
					c0-0.1,0.1-0.1,0.3-0.1c0.7,0,1.4,0.1,2,0.1c0.4,0,4,0,4.4,0c0.4,0,0.7,0,0.9-0.1c0.1,0,0.1-0.1,0.2-0.1c0.1,0,0.1,0.1,0.1,0.2
					s-0.1,0.3-0.1,0.6c-0.1,0.5-0.1,0.8-0.1,1.3c0,0.2-0.1,0.4-0.2,0.4c-0.1,0-0.1-0.1-0.1-0.2c0-0.3-0.1-0.7-0.3-0.9
					c-0.2-0.2-0.5-0.3-1.1-0.3c-0.9,0-1.8,0-2.8-0.1c-0.1,0-0.2,0.1-0.2,0.2v5c0,0.1,0,0.2,0.1,0.2c0.7,0,1.8,0,2.5,0
					c1,0,1.2,0,1.4-0.3c0.1-0.1,0.1-0.2,0.2-0.2s0.1,0.1,0.1,0.1c0,0.1-0.1,0.4-0.1,1c-0.1,0.5-0.1,1-0.1,1.2c0,0.2,0,0.3-0.1,0.3
					c-0.1,0-0.1-0.1-0.1-0.3c0-0.4-0.1-1-1-1.2c-0.5-0.1-2.4-0.1-2.7-0.1c-0.1,0-0.1,0-0.1,0.2v1.5c0,1.5,0,2.8,0.1,3.6
					c0.1,0.8,0.3,1.2,0.7,1.3c0.2,0,0.5,0.1,0.7,0.1c0.2,0,0.2,0.1,0.2,0.1c0,0.1-0.1,0.1-0.3,0.1c-1,0-2.1-0.1-2.2-0.1h-0.2
					c-0.4,0-1.2,0.1-1.6,0.1c-0.2,0-0.3,0-0.3-0.1c0-0.1,0-0.1,0.2-0.1c0.2,0,0.3,0,0.5-0.1c0.4-0.1,0.5-0.4,0.6-1.2
					c0.1-0.8,0.1-2,0.1-3.7V46.7z"/>
				<path class="st1" d="M599.2,50.7c0,2.1,0.1,3.1,0.4,3.4c0.3,0.3,0.6,0.4,1.9,0.4c0.8,0,1.5,0,1.9-0.5c0.2-0.3,0.3-0.6,0.3-0.9
					c0-0.1,0.1-0.2,0.1-0.2c0.1,0,0.1,0.1,0.1,0.2s-0.1,1.2-0.2,1.6c-0.1,0.4-0.1,0.5-1,0.5c-1.2,0-2.6-0.1-4.4-0.1
					c-0.6,0-1,0.1-1.6,0.1c-0.2,0-0.3,0-0.3-0.1c0-0.1,0.1-0.1,0.2-0.1s0.3,0,0.4,0c0.3-0.1,0.4-0.4,0.5-0.8
					c0.1-0.7,0.1-1.9,0.1-3.3v-2.7c0-2.4,0-2.8,0-3.3c0-0.5-0.1-0.8-0.7-0.9c-0.1,0-0.3,0-0.5,0c-0.1,0-0.2-0.1-0.2-0.1
					c0-0.1,0.1-0.1,0.3-0.1c0.8,0,1.8,0.1,1.9,0.1c0.3,0,1.4-0.1,1.9-0.1c0.2,0,0.2,0.1,0.2,0.1c0,0.1-0.1,0.1-0.2,0.1
					c-0.1,0-0.3,0-0.5,0c-0.5,0.1-0.6,0.4-0.6,0.9c0,0.5,0,0.9,0,3.3V50.7z"/>
				<path class="st1" d="M608.2,49.3c0-2.4,1.9-6,6.3-6c3.6,0,6.3,2.1,6.3,5.7c0,3.4-2.5,6.2-6.4,6.2C610,55.3,608.2,52,608.2,49.3z
					 M619.1,49.5c0-3.6-2.2-5.6-4.7-5.6c-2.5,0-4.5,1.5-4.5,5c0,3.5,2,5.9,5,5.9C616.1,54.7,619.1,54,619.1,49.5z"/>
				<path class="st1" d="M625.7,49.3c0-2.4,1.9-6,6.3-6c3.6,0,6.3,2.1,6.3,5.7c0,3.4-2.5,6.2-6.4,6.2
					C627.5,55.3,625.7,52,625.7,49.3z M636.6,49.5c0-3.6-2.2-5.6-4.7-5.6c-2.5,0-4.5,1.5-4.5,5c0,3.5,2,5.9,5,5.9
					C633.5,54.7,636.6,54,636.6,49.5z"/>
				<path class="st1" d="M644.9,47.9c0-2.4,0-2.8,0-3.3c0-0.5-0.2-0.8-0.7-0.9c-0.1,0-0.3,0-0.4,0c-0.1,0-0.2,0-0.2-0.1
					c0-0.1,0.1-0.1,0.2-0.1c0.8,0,1.9,0.1,1.9,0.1c0.2,0,1.4-0.1,1.9-0.1c1,0,2.1,0.1,3,0.7c0.3,0.3,1.1,1,1.1,2.2
					c0,1-0.5,2.3-1.9,3.4c1.3,1.6,2.4,3,3.3,3.9c0.9,0.9,1.4,1,1.9,1.1c0.1,0,0.5,0,0.6,0c0.1,0,0.2,0.1,0.2,0.1
					c0,0.1-0.1,0.1-0.3,0.1h-1.3c-0.8,0-1.2-0.1-1.6-0.2c-0.8-0.3-1.3-1.1-2.2-2.3c-0.7-0.9-1.4-1.8-1.7-2.2
					c-0.1-0.1-0.1-0.1-0.2-0.1l-1.9,0c-0.1,0-0.1,0-0.1,0.1v0.3c0,1.4,0,2.8,0.1,3.4c0.1,0.4,0.1,0.8,0.7,0.9c0.2,0,0.4,0,0.5,0
					c0.2,0,0.2,0.1,0.2,0.1c0,0.1-0.1,0.1-0.3,0.1c-0.9,0-1.9-0.1-2-0.1c-0.3,0-1.1,0.1-1.6,0.1c-0.2,0-0.3,0-0.3-0.1
					c0-0.1,0.1-0.1,0.2-0.1c0.1,0,0.3,0,0.4,0c0.3-0.1,0.4-0.3,0.5-0.7c0.1-0.6,0.1-2.1,0.1-3.5V47.9z M646.3,49.2
					c0,0.1,0,0.2,0.1,0.2c0.2,0.1,1,0.2,1.6,0.2c0.4,0,0.8,0,1.2-0.3c0.5-0.3,0.9-1.1,0.9-2.3c0-2-1-3-2.6-3c-0.5,0-0.8,0-1,0.1
					c-0.1,0-0.1,0.1-0.1,0.2V49.2z"/>
				<path class="st1" d="M659.8,47.9c0-2.4,0-2.8,0-3.3c0-0.5-0.1-0.8-0.5-0.8c-0.2,0-0.3,0-0.4-0.1c-0.1,0-0.2-0.1-0.2-0.1
					c0-0.1,0.1-0.1,0.3-0.1c0.6,0,1.6,0.1,1.6,0.1c0.1,0,1.1-0.1,1.6-0.1c0.2,0,0.3,0,0.3,0.1c0,0.1-0.1,0.1-0.2,0.1
					c-0.1,0-0.2,0-0.3,0c-0.5,0.1-0.6,0.3-0.6,0.9c0,0.5,0,0.9,0,3.3v2.7c0,1.4,0,2.6,0.1,3.3c0.1,0.5,0.1,0.7,0.6,0.8
					c0.2,0.1,0.6,0.1,0.7,0.1c0.2,0,0.2,0.1,0.2,0.1c0,0.1-0.1,0.1-0.3,0.1c-0.9,0-2-0.1-2.1-0.1c-0.1,0-1.1,0.1-1.6,0.1
					c-0.2,0-0.3,0-0.3-0.1c0-0.1,0.1-0.1,0.2-0.1c0.1,0,0.3,0,0.4-0.1c0.3-0.1,0.4-0.4,0.4-0.9c0.1-0.6,0.1-1.9,0.1-3.3V47.9z"/>
				<path class="st1" d="M669.3,44c0-0.6,0.1-0.7,0.2-0.7c0.1,0,0.4,0.4,0.6,0.5c0.2,0.2,2.7,2.7,5.2,5.3c1.4,1.4,3.2,3.2,3.7,3.7
					l-0.2-7.5c0-1-0.1-1.3-0.6-1.4c-0.3-0.1-0.6-0.1-0.7-0.1c-0.2,0-0.2-0.1-0.2-0.1c0-0.1,0.1-0.1,0.3-0.1c0.8,0,1.5,0.1,1.7,0.1
					c0.2,0,0.7-0.1,1.4-0.1c0.2,0,0.3,0,0.3,0.1c0,0.1-0.1,0.1-0.2,0.1c-0.1,0-0.3,0-0.4,0.1c-0.4,0.1-0.5,0.3-0.5,1.3l0,9
					c0,0.9,0,1-0.2,1s-0.3-0.1-1.2-1c-0.1,0-2.6-2.5-4.1-4.1c-1.9-1.9-3.7-3.8-4.1-4.3l0.2,7c0,1.2,0.1,1.7,0.6,1.8
					c0.3,0.1,0.6,0.1,0.7,0.1s0.2,0.1,0.2,0.1c0,0.1-0.1,0.1-0.3,0.1c-1,0-1.6-0.1-1.7-0.1c-0.1,0-0.8,0.1-1.6,0.1
					c-0.2,0-0.3,0-0.3-0.1c0-0.1,0.1-0.1,0.3-0.1c0.1,0,0.3,0,0.6-0.1c0.4-0.1,0.5-0.6,0.5-1.9C669.3,44.2,669.3,47,669.3,44z"/>
				<path class="st1" d="M696.7,53.7c0,0.7,0,0.7-0.2,0.8c-1,0.5-2.4,0.7-3.3,0.7c-1.2,0-3.4-0.1-5.3-1.6c-1-0.8-1.9-2.3-1.9-4.4
					c0-2.4,1.2-4.2,2.7-5.1c1.4-0.8,2.9-0.9,4-0.9c1.2,0,1.9,0.1,2.6,0.3c0.3,0.1,1,0.1,1.4,0.2c0.1,0,0.1,0.1,0.1,0.1
					c0,0.2-0.1,0.8-0.1,2.3c0,0.3,0,0.3-0.1,0.3c-0.1,0-0.1-0.1-0.1-0.2c0-0.2-0.1-0.7-0.3-1.1c-0.4-0.6-1.7-1.3-3.7-1.3
					c-1,0-2.1,0-3.3,1c-0.9,0.7-1.5,2.1-1.5,3.9c0,2.1,1.2,3.7,1.6,4.2c1.2,1.2,2.5,1.7,4.1,1.7c0.5,0,1.3-0.1,1.7-0.3
					c0.2-0.1,0.3-0.3,0.3-0.5v-2.6c0-1.2-0.1-1.4-0.7-1.5c-0.1,0-0.3,0-0.4,0s-0.2-0.1-0.2-0.1c0-0.1,0.1-0.1,0.3-0.1
					c0.7,0,1.8,0,1.8,0s1.1,0,1.6,0c0.2,0,0.3,0,0.3,0.1c0,0.1-0.1,0.1-0.2,0.1c-0.1,0-0.2,0-0.3,0c-0.4,0.1-0.5,0.4-0.6,0.9
					c0,0.5,0,1,0,1.6V53.7z"/>
			</g>
		</g>
	</g>
</g>
</svg>
