<?xml version="1.0" encoding="UTF-8"?>
<svg id="_レイヤー_2" data-name="レイヤー 2" xmlns="http://www.w3.org/2000/svg" xmlns:xlink="http://www.w3.org/1999/xlink" viewBox="0 0 749.9996536 140.157402">
  <defs>
    <style>
      .cls-1 {
        fill: #fff;
      }

      .cls-2 {
        fill: #e8c416;
      }

      .cls-3 {
        clip-path: url(#clippath);
      }

      .cls-4 {
        fill: none;
      }

      .cls-5 {
        fill: #ae8f36;
      }
    </style>
    <clipPath id="clippath">
      <rect class="cls-4" width="749.9996536" height="140.157402"/>
    </clipPath>
  </defs>
  <g id="_レイヤー_1-2" data-name="レイヤー 1">
    <g class="cls-3">
      <g>
        <path class="cls-1" d="m260.3545906,105.6134699c0-.2402344.5195312-.3999023.9990234-.4799805,1.2001953-.2001953,1.9599609-.5200195,3.3203125-1.199707,2.1591797-1.0400391,3.71875-2.1196289,5.3984375-3.6396484,2.1601562-1.9594727,3.3203125-3.6391602,4.5195312-5.6787109.2802734-.4799805.5605469-1.1201172.1601562-1.4399414-.4804688-.4399414-.9199219-.6396484-1.4394531-.8398438-.4404297-.2001953-.6796875-.4799805-.6796875-.7197266.0390625-.2802734.3193359-.4399414,1.0390625-.4399414s1.3203125.0795898,2.4394531.5195312c1.1601562.4799805,2.5195312,2.0800781,1.4003906,3.9594727-1.1201172,1.9599609-3.5996094,4.2392578-6.3994141,6.2392578-2.0400391,1.4394531-2.9589844,1.9194336-4.9990234,2.7592773-1.5996094.6801758-2.8398438,1.0800781-4.4794922,1.2797852-.7998047.0800781-1.2792969-.0400391-1.2792969-.3198242Zm24.9951172-16.2773438c-.5595703-.5600586-1.3193359-1.199707-2.3193359-1.8398438-.359375-.199707-.4794922-.5195312-.359375-.7998047.1591797-.159668.4794922-.159668.7197266-.1201172.5996094,0,1.359375.1601562,2.1591797.4399414.8398438.3203125,2,.9599609,2.3994141,1.6401367.3603516.6796875,0,1.2797852-.5996094,1.4394531-.5595703.1601562-1.4394531-.199707-2-.7597656Zm6.3994141,9.5585938c1,1.5195312,1.0800781,3.1191406-.0400391,3.5991211-1.0800781.4799805-2.3193359-.2397461-2.7998047-1.5195312-.5195312-1.4399414-1.0791016-2.3999023-1.9189453-3.9194336-.8808594-1.5200195-1.5996094-2.3994141-2.9199219-3.5195312-.5996094-.4799805-1-.7998047-.7197266-1.1196289s.7998047-.0800781,1.4794922.2397461c1.2792969.5600586,2.3994141,1.3598633,3.7998047,2.5595703,1.3994141,1.159668,2.1591797,2.159668,3.1191406,3.6796875Zm-3.2392578-11.1982422c-.5996094-.7597656-1.2802734-1.1201172-2.4394531-1.6396484-.3603516-.1601562-.5205078-.4799805-.3603516-.7998047.1201172-.1601562.4404297-.1601562.6396484-.1601562.640625,0,1.3603516.1201172,2.2001953.3999023.8398438.2397461,2.0390625.7998047,2.4394531,1.4799805.4404297.6796875.0800781,1.2797852-.4404297,1.4794922-.5996094.1601562-1.5195312-.1201172-2.0390625-.7597656Z"/>
        <path class="cls-1" d="m302.353614,110.9323176c-.0800781-.2397461.4404297-.5595703.8398438-.7597656,1.640625-.7597656,2.8798828-1.4394531,4.1201172-2.2397461,1.2392578-.7597656,2.5195312-1.7592773,4.1992188-3.2792969,1.7197266-1.5195312,2.8388672-2.7197266,4.0390625-4.0791016,1.2392578-1.3598633,2.8398438-3.6396484,3.9189453-5.3193359,1.0800781-1.7197266,1.7597656-2.9194336,2-3.8793945.2402344-.9199219-.359375-1.3598633-1.5195312-.9995117-.7597656.2397461-1.2402344.3198242-2.6396484.6396484s-2.359375.5200195-3.6396484.5600586c-1.2792969,0-2.5195312-.4399414-3.2392578-1-.9599609-.8398438-1.1601562-1.7597656-.7197266-2.199707.359375-.3999023,1.0800781-.4399414,1.5996094-.1196289.5595703.3598633,1.2402344.6396484,1.9599609.8398438,1.1992188.2797852,3.0390625.2397461,4.8789062-.0800781,1.8398438-.3203125,3.0791016-.7202148,3.5996094-.9199219.5595703-.2001953,1.2792969-.6796875,2.0791016-.2402344.8398438.4399414,1.3603516,1.2001953,1.5195312,2.5996094.1601562,1.4399414-.359375,2.0800781-1.1591797,2.7197266-.6396484.5200195-1.1601562,1-2.1591797,2.2797852-.8007812,1.1196289-1.8808594,2.5996094-3.3603516,4.3989258,1.3203125.3603516,2.9599609.9199219,4.359375,1.8398438,1.6796875,1.0400391,2.8798828,2.199707,3.6396484,3.199707.7998047.9594727,1.5195312,3.0791016.359375,3.7993164-1.2392578.7597656-2.4394531-.5600586-3.0390625-1.6401367-.6396484-1.1196289-1.2792969-2.3994141-2.3994141-3.8393555-1.0400391-1.3193359-2.1591797-2.1196289-3.5195312-2.7192383-.0400391.0400391-.0800781.1201172-.0800781.159668-1.9189453,2.159668-3.359375,3.5195312-4.9990234,4.9194336-1.5996094,1.3999023-3,2.359375-4.8388672,3.3994141-1.2402344.7597656-3.2802734,1.6396484-4.5996094,2.0795898-.6396484.2001953-1.1201172.1601562-1.2001953-.1201172Z"/>
        <path class="cls-1" d="m346.313575,108.9728449c-1.3603516,1.2397461-2.3603516,1.9194336-3.5595703,2.5195312-.5996094.2397461-1.0800781.3999023-1.2402344.1601562-.1601562-.2402344.2402344-.4799805.640625-.7602539.9589844-.5595703,1.7197266-1.0795898,2.8388672-2.1591797,1.4003906-1.3999023,2.4404297-2.7998047,3.3193359-4.5195312.9199219-1.7597656,1.5205078-3.359375,2-5.2792969.4804688-1.8793945.6796875-3.1591797.8398438-5.0791016.1201172-1.9194336-.0400391-2.8393555-.9199219-3.5991211-.5195312-.3999023-.8798828-1-.5996094-1.3598633.2792969-.3598633.7197266-.3999023,1.6396484-.1601562.7998047.2001953,1.6796875.6000977,2.4394531,1.5200195.7597656.8398438.7197266,1.4394531.4794922,1.7998047-.1992188.2397461-.359375.5996094-.3994141,1.1196289-.0400391,1-.2001953,2.5195312-.5195312,4.3193359-.5205078,2.5996094-1.4003906,4.7592773-2.6396484,6.6787109-1.2402344,1.9199219-2.6796875,3.3193359-4.3193359,4.7993164Zm11.5175781-5.6391602c.3603516-.3999023.4804688-.7998047.4804688-2.0395508-.0400391-1.2397461-.0400391-3.6391602,0-5.8388672.0400391-2.2397461.0800781-3.8393555.0800781-5.1591797.0400391-1.3198242-.1601562-2.0795898-1.0400391-2.7197266-.7998047-.5996094-1.0400391-1.2397461-.7998047-1.5996094.2392578-.3198242.7597656-.3598633,1.3193359-.2402344.7207031.1601562,1.3603516.3203125,2.359375,1,1,.6801758,1.1201172,1.6396484.8007812,2.199707-.3203125.6000977-.3203125,1.4794922-.4404297,4.9189453-.0800781,3.3598633-.1601562,6.1992188-.2001953,7.1191406-.0400391.8798828.1201172,1.159668.5996094,1.159668.5205078,0,1.2001953-.2797852,2.5605469-1.1196289,1.3994141-.9199219,2.359375-1.5200195,3.7988281-2.8398438,1.5195312-1.3198242,2.8798828-2.5195312,3.6396484-3.3193359.7998047-.7998047,1.4794922-1.2797852,1.7197266-1,.2001953.2001953,0,.7602539-.8798828,1.7597656-1.0400391,1.1601562-2.9599609,3.2797852-4.8798828,5.1191406-1.9990234,1.8798828-3.5585938,3.159668-4.9179688,4.1196289-1.3603516.9995117-2,1.3198242-2.640625,1.359375-.6796875.0400391-1.359375-.5195312-1.7597656-1.1196289-.4794922-.6396484-.3193359-1.159668.2001953-1.7597656Z"/>
        <path class="cls-1" d="m410.8292,99.5343684c-.0800781.4799805-.6396484.6401367-1.4794922.4799805-.7998047-.1201172-3.0800781-.3999023-4.5195312-.5200195s-4.5996094-.2797852-6.0791016-.199707c-1.4394531.1196289-4.359375.199707-6.2392578.3999023-1.4794922.159668-3.1992188.5595703-4.5986328.5996094-1.4404297,0-2.7998047-.4399414-3.5996094-1.0395508-.7998047-.6000977-1.1201172-1.5200195-.6796875-1.8398438.6796875-.5200195,1.8398438-.0400391,2.8388672.2402344.9199219.2797852,2.7998047.4794922,4.359375.4394531,1.640625-.0795898,5.0390625-.2397461,6.7597656-.2797852,1.6796875-.0800781,6.3583984-.2397461,7.9580078-.2797852,1.6396484,0,3.2802734.0400391,4.1201172.3999023s1.2392578,1.0395508,1.1591797,1.5996094Z"/>
        <path class="cls-1" d="m449.1495125,104.7335871c1.1601562,1.8793945,1.8398438,4.359375.2802734,4.8393555-1.6796875.4794922-2.5195312-1.2402344-3.3203125-3.5996094-.0791016-.2797852-.1992188-.5600586-.3193359-.8398438-1.3193359.3198242-4.7587891,1.159668-6.3583984,1.5595703-1.7597656.4399414-6.0390625,1.4399414-7.3193359,1.6796875-1.3193359.2402344-2.0791016.5200195-3.1191406,1.6401367-.4404297.4399414-1.0800781.7597656-1.5595703.7597656-.5205078,0-1.5205078-.3198242-2.4003906-1.0400391-.8798828-.7197266-1.1591797-1.7998047-1.0800781-2.3994141.1210938-.6401367.8007812-.5600586,1.7207031-.6401367.8789062-.0800781,1.3994141-.8798828,2.3994141-2.6396484,1.0400391-1.7993164,1.8798828-3.3994141,3.3193359-5.8789062,1.4394531-2.5595703,3.0390625-5.4790039,3.5195312-6.8388672.5195312-1.359375-.0800781-2.5195312-.4404297-3.1191406-.359375-.5600586-.7197266-1.1201172-.359375-1.3598633.6396484-.4399414,1.5195312-.2402344,2.5986328.5200195.7207031.5595703,1.2001953,1.199707,1.3203125,2.5195312.1201172.8398438-.4003906,1.6396484-1.1191406,2.5996094-.640625.9594727-2.8798828,4.6391602-4.0800781,6.5986328-1.1191406,1.7998047-3.7597656,6.3588867-3.9990234,6.7988281-.2402344.4399414-.0800781.6000977.2802734.6000977.359375-.0400391,1.3193359-.1201172,2.7587891-.3999023,1.5595703-.3598633,5.2792969-.9199219,7.1191406-1.2397461,1.6396484-.3203125,4.0791016-.800293,6.1591797-1.1201172-.6796875-1.199707-1.4003906-2.1196289-2.2792969-2.9594727-.5205078-.4799805-.8808594-.9199219-.640625-1.159668.2802734-.3198242.7998047-.1201172,1.7998047.4799805,2.3994141,1.5195312,4.1191406,3.0795898,5.1191406,4.6391602Z"/>
      </g>
      <g>
        <circle class="cls-5" cx="85.1488717" cy="70.078701" r="70.078701"/>
        <g>
          <path class="cls-1" d="m45.9063484,53.2379816c.4306641.6162109.9550781,1.1396484,1.6015625,1.5712891,2.0644531-.8012695,3.7890625-1.9101562,5.2685547-3.3271484,1.2626953.6157227,1.9091797,1.1088867,1.9091797,1.3862305,0,.1845703-.2763672.2773438-.8310547.2773438h-.4628906c-1.6328125.9238281-3.3271484,1.6635742-5.1132812,2.1870117,1.8173828.9243164,4.8671875,1.3867188,9.0878906,1.3867188,2.3105469,0,5.0214844-.0927734,8.1025391-.3388672-.3701172.5541992-.6162109,1.1704102-.8320312,1.7866211h-6.1308594c-4.5595703,0-7.7011719-.3388672-9.3652344-1.078125-1.8173828-.8012695-3.0810547-1.8486328-3.7587891-3.1733398-.8935547,1.3554688-1.8789062,2.6186523-2.9267578,3.8203125,0,.6777344-.0917969,1.0473633-.3388672,1.0473633-.3388672,0-.8935547-.6777344-1.7246094-2.0639648,1.4169922-.8012695,2.7109375-1.7255859,3.9433594-2.8344727v-7.4248047h-3.6972656l-.2773438-.7084961h3.7890625l1.0166016-1.2631836c1.109375.8935547,1.6953125,1.4482422,1.6953125,1.6943359,0,.1235352-.0927734.246582-.3085938.3081055l-.6464844.4316406v6.3154297Zm-4.0673828-18.2070312c2.8964844,1.324707,4.3447266,2.7109375,4.3447266,4.1894531,0,.7084961-.3388672,1.0786133-1.0175781,1.0786133-.4306641,0-.7695312-.3388672-1.0166016-1.0170898-.4619141-1.3554688-1.3857422-2.5874023-2.7724609-3.7275391l.4619141-.5234375Zm16.1123047,11.1831055v-2.5571289c1.7871094.0615234,2.6494141.2773438,2.6494141.6162109,0,.1845703-.3388672.4003906-1.046875.6469727v1.2939453h2.1259766l1.1396484-1.6020508c.0917969.0615234.1230469.1230469.1845703.215332.5546875.4931641,1.0166016.9858398,1.4482422,1.5097656l-.3085938.5546875h-4.5898438v3.1420898h3.0185547l1.2636719-1.6328125.2460938.246582.2158203.1538086c.4619141.4008789.8320312.862793,1.1708984,1.324707l-.2773438.5854492h-17.9609375l-.3076172-.6777344h4.9902344v-3.1420898h-3.9121094l-.2773438-.6777344h4.1894531v-2.5878906c1.7255859.0307617,2.6191406.2460938,2.6191406.6469727,0,.215332-.3701172.4311523-1.0478516.6469727v1.2939453h4.4667969Zm-8.0712891-7.2397461v2.0947266c0,.3081055.0615234.5234375.2158203.6469727.1542969.1230469.8320312.1538086,1.9716797.1538086,1.2939453,0,2.0029297-.1230469,2.2177734-.3696289.1542969-.246582.3085938-.7392578.4003906-1.4477539l.6162109.1845703c0,.1235352-.0302734.2158203-.0302734.3701172,0,.6464844.2773438.9853516.8320312.9545898v.0307617c0,.6469727-.2158203,1.0786133-.6474609,1.2631836-.4619141.1850586-1.4785156.3081055-3.0810547.3081055-1.9091797,0-3.0498047-.1230469-3.4189453-.3081055-.3388672-.1845703-.4931641-.6777344-.4931641-1.4169922v-3.8818359c.2773438.0922852.8320312.3388672,1.6943359.7084961h3.265625v-2.1870117h-5.453125l-.2773438-.6777344h5.484375l.9238281-1.1401367c1.0166016.7705078,1.4785156,1.2324219,1.4785156,1.4169922,0,.1542969-.0615234.2773438-.2158203.3393555l-.4921875.3388672v3.234375h-1.4482422v-.6157227h-3.5429688Zm8.0712891,11.0595703v-3.1420898h-4.4667969v3.1420898h4.4667969Zm.5244141-11.0595703v1.9404297c0,.3388672.0302734.5854492.1533203.6777344.1542969.1850586.8632812.2158203,2.0644531.2158203,1.3554688,0,2.1259766-.1538086,2.3105469-.4619141.2158203-.3388672.3701172-.8012695.4619141-1.4174805l.6162109.2158203c0,.5546875.0615234.9550781.1542969,1.1708984.1230469.1845703.3388672.2768555.7089844.3081055,0,.6777344-.3085938,1.078125-.8320312,1.2626953-.4619141.1850586-1.5410156.2773438-3.265625.2773438-1.8486328,0-2.9882812-.1538086-3.3886719-.4003906-.2773438-.1845703-.4316406-.5854492-.4316406-1.1708984v-4.0048828c.5234375.2158203,1.078125.4316406,1.6328125.6777344h3.3271484v-2.1870117h-5.2988281l-.3076172-.6777344h5.3603516l.9550781-1.1401367c1.0166016.7705078,1.4785156,1.2631836,1.4785156,1.4482422,0,.1230469-.0927734.215332-.2460938.3388672l-.5244141.3696289v3.2348633h-1.4169922v-.6777344h-3.5117188Zm-.9550781,12.7231445c4.2822266.7397461,6.3769531,1.7250977,6.3769531,2.8652344,0,.6162109-.2773438.9243164-.8320312.9243164-.2773438,0-.5849609-.1235352-.8935547-.4316406-1.1083984-1.1088867-2.7724609-2.0332031-5.0214844-2.7724609l.3701172-.5854492Z"/>
          <path class="cls-1" d="m94.8858406,51.0812434c.0615234.4931641-.3076172,1.109375-1.2626953,1.2324219-1.2939453.1235352-2.5576172-.4926758-3.8203125-1.4477539-1.3251953-1.0166016-2.9882812-2.8652344-4.2509766-4.375-1.2636719-1.5400391-2.4345703-3.019043-2.9267578-3.6044922-.6162109-.7084961-1.140625-1.2626953-1.6640625-1.2626953-.5546875,0-.9853516.4311523-1.3867188.9858398-.4306641.5541992-1.4785156,2.1870117-1.9404297,2.8955078-.4003906.6777344-1.3867188,1.9716797-2.2177734,2.2182617-.8632812.246582-1.6328125,0-2.21875-.2773438-.6162109-.2773438-.9550781-.8007812-.8007812-1.1704102.1230469-.2773438.5546875-.246582.9238281-.2158203.3388672.0307617.7705078-.0307617,1.2324219-.1845703.4628906-.1850586.9550781-.6162109,1.6025391-1.1708984.6162109-.5239258,1.2939453-1.2324219,1.8173828-1.7866211.5546875-.5854492.7705078-.862793,1.3554688-1.5405273s.9550781-.9858398,1.5400391-1.0166016c.5859375-.0615234,1.140625.5541992,1.6953125,1.1088867.5234375.5239258,1.6015625,1.4790039,2.5253906,2.4956055.9248047,1.0166016,2.1875,2.15625,3.5126953,3.3886719.8007812.7700195,2.125,1.8486328,3.1416016,2.402832.9863281.5239258,1.7568359.6777344,2.21875.7089844.4003906.0307617.8935547.1538086.9238281.6157227Zm-4.7753906-7.9174805c-.4619141-.4311523-1.046875-.8623047-1.8173828-1.3862305-.2460938-.1850586-.4003906-.4003906-.2460938-.6162109.1230469-.1538086.3691406-.1230469.5234375-.1230469.4619141.0307617,1.0166016.1538086,1.6640625.4003906.6464844.2158203,1.5712891.7084961,1.8476562,1.2016602.3085938.5234375.03125,1.0166016-.4306641,1.1396484-.4316406.1235352-1.109375-.1538086-1.5410156-.6162109Zm2.4345703-1.2319336c-.4628906-.5546875-1.0166016-.8935547-1.9101562-1.2631836-.2470703-.1235352-.4003906-.4008789-.2773438-.5854492.0927734-.1850586.3388672-.1542969.5234375-.1542969.4619141-.0307617,1.0478516.0927734,1.6943359.2773438.6162109.1850586,1.5410156.6469727,1.8798828,1.1708984.3076172.4926758.0615234.9858398-.3701172,1.1396484-.4316406.1542969-1.1396484-.1230469-1.5400391-.5849609Z"/>
          <path class="cls-1" d="m122.0547859,53.8849543c-1.140625,1.2939453-2.5263672,2.0332031-4.0976562,2.4335938-1.5712891.4316406-3.0810547.3696289-4.9296875.0307617-1.8789062-.4003906-2.6181641-1.0473633-2.6181641-1.9716797-.03125-.9238281,1.1708984-1.6635742,2.1875-1.8481445,1.046875-.2158203,2.2792969-.1542969,3.2041016.5854492.8007812.6469727.7695312,1.3862305.4003906,2.1254883,1.4785156-.1850586,2.8652344-.6162109,3.8505859-1.4169922,1.2011719-.9858398,1.7558594-2.3725586,1.7558594-3.7895508.03125-1.4169922-1.0166016-3.1420898-2.7412109-3.9125977-1.7255859-.7392578-3.5742188-.8007812-5.484375-.1845703-1.9404297.6162109-3.1728516,1.5708008-4.0966797,2.8032227-.9248047,1.2016602-1.6025391,2.6494141-1.8486328,3.4506836-.2470703.8007812-.5244141,1.2319336-.9248047,1.4477539-.1845703.0922852-.5234375.246582-1.0166016-.1538086-.3388672-.2773438-.3691406-.9243164-.3388672-1.3554688.03125-.4008789.8017578-1.3867188,1.3554688-2.0952148.5859375-.7392578,1.3867188-1.8793945,2.4345703-3.019043,1.046875-1.1396484,2.7109375-3.1733398,3.3886719-3.9433594.6464844-.8007812,2.7724609-3.3579102,3.1113281-3.8203125.3388672-.4311523.4931641-.7700195.3388672-.8930664-.1542969-.1542969-.6777344.0615234-.9863281.2460938-.3388672.2158203-1.8476562,1.109375-2.7109375,1.6020508-.8925781.4624023-1.5400391.6777344-2.3105469.6777344-.7695312,0-1.2939453-.4003906-1.6015625-.6777344-.3085938-.3081055-.4316406-.7700195-.3388672-.9858398.1230469-.3081055.4316406-.3388672.6777344-.2460938.2773438.0615234.6464844.1845703,1.0478516.1845703.4003906.0307617.7695312-.0307617,1.7246094-.4311523.9248047-.3696289,2.15625-.9550781,3.2041016-1.5097656,1.0478516-.5541992,1.6943359-.9550781,2.2792969-.9858398.6162109-.0307617,1.2324219.3388672,1.6328125.8012695.4013672.4311523.4316406.7084961.3701172.9858398-.0615234.2768555-.2158203.4311523-.6464844.7084961-.4316406.246582-1.3564453,1.0473633-2.1875,1.8793945-.8320312.8623047-1.8486328,2.1254883-2.5878906,2.9262695,0,0-.7392578.8012695-2.1875,2.3105469.4316406-.3081055.8623047-.5541992,1.6943359-.8623047,1.2011719-.4311523,2.4648438-.6777344,4.0361328-.5239258,1.6015625.1542969,2.8955078.6469727,4.0664062,1.4790039,1.1708984.831543,2.0947266,2.0639648,2.2490234,3.8505859.1542969,1.6948242-.3085938,2.9267578-1.3554688,4.0976562Zm-8.8730469-.4931641c-.9853516.0307617-1.6015625.6162109-1.1708984,1.2324219.2470703.3388672,1.0166016.6469727,2.3105469.6777344,1.2021484-1.078125.1240234-1.9101562-1.1396484-1.9101562Z"/>
        </g>
        <g>
          <g>
            <path class="cls-1" d="m67.6319344,87.7746027c.4238281-.5776367.7705078-1.1362305,1.1171875-1.7138672-.0390625-.0576172-.0966797-.1157227-.1542969-.1733398-.4619141-.5004883-1.0009766-.9243164-1.65625-1.4057617-.2119141-.1347656-.5195312-.3466797-.4238281-.5004883.1162109-.1733398.3085938-.0961914.8095703.1152344.5195312.2119141.9814453.5009766,1.9248047,1.0786133.1347656-.2119141.2509766-.4428711.3662109-.6933594.6738281-1.2514648.9628906-2.0605469,1.078125-2.5996094.1162109-.5585938.0390625-1.0014648-.1728516-1.2709961-.1923828-.25-.4238281-.5390625-.2890625-.7314453.1738281-.2504883.5009766-.1542969.9248047.019043.5.1733398.8662109.5004883,1.1162109.8857422.2509766.4042969.1542969.7319336.0195312.8666992-.1542969.1347656-.3085938.2504883-.3662109.5004883-.0771484.230957-.1923828.6547852-.4423828,1.1748047-.3085938.6738281-.7705078,1.5209961-1.3671875,2.4458008.5585938.4042969,1.0400391.8276367,1.3476562,1.1357422.6162109.6743164.8085938,1.5214844.2314453,1.8295898-.5585938.3081055-1.1552734-.1347656-1.6181641-.8666992-.2304688-.3466797-.4619141-.6933594-.6738281-1.0014648-.7509766,1.0786133-1.1748047,1.6948242-2.1376953,2.7539062s-1.6748047,1.6948242-2.9462891,2.5805664c-.4814453.3271484-.7509766.3847656-.8085938.2695312-.0771484-.1157227.1162109-.2890625.3466797-.5009766.5009766-.4233398.9824219-.8276367,1.7138672-1.5981445.7128906-.7895508,1.3095703-1.5405273,2.0605469-2.5996094Z"/>
            <path class="cls-1" d="m94.4903328,86.5231379c-.0380859.230957-.3085938.3081055-.7128906.230957-.3847656-.0581055-1.4824219-.1928711-2.1757812-.2504883s-2.2138672-.1347656-2.9267578-.0961914c-.6933594.0576172-2.0986328.0961914-3.0039062.1923828-.7128906.0771484-1.5410156.2695312-2.2148438.2890625-.6933594,0-1.3476562-.2119141-1.7333984-.5004883-.3847656-.2890625-.5390625-.7319336-.3271484-.8862305.3271484-.25.8857422-.019043,1.3671875.1157227.4433594.1347656,1.3486328.230957,2.0996094.2119141.7890625-.0385742,2.4257812-.1157227,3.2539062-.1347656.8085938-.0385742,3.0615234-.1157227,3.8320312-.1347656.7900391,0,1.5791016.019043,1.9833984.1923828s.5966797.5004883.5585938.7705078Z"/>
            <path class="cls-1" d="m100.744239,93.0700129c.3271484-.2119141.7705078-.5581055,1.0976562-.847168,1.0009766-.8666992,1.7910156-1.675293,2.4257812-2.5996094.6162109-.9433594,1.0976562-1.8486328,1.4833984-2.8886719.2695312-.6738281.4814453-1.4057617.6738281-2.0795898-.5390625.0576172-1.0019531.1157227-1.3095703.1542969-.4238281.0380859-.9628906.1538086-1.3671875.1347656-.4433594-.0195312-1.078125-.1347656-1.5019531-.4814453-.3857422-.3466797-.5205078-.6933594-.4042969-.8666992.1542969-.2695312.6933594-.0961914,1.0400391.019043.3466797.0966797.9238281.2119141,1.7714844.2314453.7314453.019043,1.328125-.0385742,1.9638672-.0771484,0,0,.0195312-.019043.0195312-.0385742.1533203-.828125.2695312-1.7524414.2890625-2.1953125.0380859-.4233398-.1542969-.8857422-.328125-1.1362305-.1923828-.2695312-.2880859-.5195312-.2119141-.6738281.1162109-.1733398.3662109-.1538086.7900391-.019043.4042969.1347656.6542969.2885742.8857422.5581055.2119141.2314453.2695312.5395508.1728516.7509766-.0576172.1347656-.1347656.3662109-.1728516.6743164-.1347656.6738281-.2119141,1.309082-.3466797,1.9638672.4814453-.0385742.9628906-.1152344,1.4638672-.1923828.7509766-.0961914,1.1357422-.1923828,1.4824219-.2890625.3466797-.0961914.6357422-.2885742.8085938-.4233398.1738281-.1542969.4433594-.1733398.7705078.0771484.3271484.25.6162109.5776367.7119141.8085938.0966797.230957,0,.4619141-.1152344.5585938-.0957031.0766602-.1923828.3271484-.2304688.5004883-.0390625.3081055-.0966797.7895508-.1933594,1.5791016-.1152344.8085938-.2695312,1.5981445-.5195312,2.715332-.2695312,1.078125-.5009766,1.7138672-.8085938,2.1757812-.2890625.4428711-.5585938.5585938-.8671875.4814453-.2304688-.0576172-.3457031-.2119141-.4619141-.5585938-.1152344-.3466797-.2890625-.6162109-.5585938-.8857422-.25-.2885742-.5771484-.5004883-.9042969-.6933594-.1738281-.0961914-.2705078-.230957-.2314453-.3271484.0380859-.0961914.1923828-.1157227.4042969-.0385742.3271484.0961914.6933594.230957,1.2128906.3852539.5009766.1538086.828125.0961914,1.0019531-.2695312.1923828-.3662109.3076172-.7895508.4814453-1.675293.1728516-.9052734.25-1.637207.3466797-2.7729492.0185547-.3662109.0380859-.578125-.0390625-.6357422-.0576172-.0576172-.2304688-.1152344-.3652344-.1538086-.1357422-.0385742-.2705078,0-.4052734,0-.1152344.019043-.3076172.0766602-.9042969.1733398-.5585938.0961914-1.1943359.1538086-2.3115234.3081055-.0576172.1538086-.1152344.3081055-.1728516.5004883-.4238281,1.1166992-.7900391,1.9643555-1.2714844,2.8500977-.4814453.9047852-.9042969,1.6176758-1.5976562,2.4838867-.6738281.847168-1.4248047,1.5791016-2.234375,2.1762695-.4042969.3081055-.9042969.5966797-1.2900391.7895508-.2695312.1347656-.4238281-.0771484-.1728516-.2314453Z"/>
            <path class="cls-1" d="m132.994239,86.5231379c-.0380859.230957-.3085938.3081055-.7128906.230957-.3847656-.0581055-1.4824219-.1928711-2.1757812-.2504883s-2.2138672-.1347656-2.9267578-.0961914c-.6933594.0576172-2.0986328.0961914-3.0039062.1923828-.7128906.0771484-1.5410156.2695312-2.2148438.2890625-.6933594,0-1.3476562-.2119141-1.7333984-.5004883-.3847656-.2890625-.5390625-.7319336-.3271484-.8862305.3271484-.25.8857422-.019043,1.3671875.1157227.4433594.1347656,1.3486328.230957,2.0996094.2119141.7890625-.0385742,2.4257812-.1157227,3.2539062-.1347656.8085938-.0385742,3.0615234-.1157227,3.8320312-.1347656.7900391,0,1.5791016.019043,1.9833984.1923828s.5966797.5004883.5585938.7705078Z"/>
          </g>
          <path class="cls-2" d="m36.4258797,105.1788996v-2.0703125c2.0126953-3.4506836,5.2333984-8.109375,9.546875-13.9750977,3.9111328-5.40625,5.8085938-9.546875,5.8085938-12.4223633,0-1.6679688-.4023438-3.2207031-1.1503906-4.4282227-1.0927734-1.6679688-2.5878906-2.4731445-4.6005859-2.4731445-1.5527344,0-2.8183594.4604492-3.8535156,1.4379883-1.0927734.9775391-1.7255859,2.300293-1.8974609,3.9106445,1.2070312.3452148,1.7822266,1.0927734,1.7822266,2.3579102,0,1.6679688-.8046875,2.4731445-2.4150391,2.4731445-1.7832031,0-2.6455078-1.0927734-2.6455078-3.1630859,0-2.1855469.8046875-4.1982422,2.4726562-5.8662109,1.7832031-1.840332,4.0263672-2.703125,6.7285156-2.703125,2.3583984,0,4.3710938.5751953,5.9814453,1.7827148,2.1279297,1.6103516,3.1630859,3.8535156,3.1630859,6.7290039,0,2.5302734-.9199219,5.1181641-2.8183594,7.8789062-.8623047,1.2651367-2.2421875,3.0478516-4.2548828,5.3481445-3.5087891,4.0834961-6.671875,8.109375-9.4326172,12.3076172h11.3876953c1.8974609,0,3.1054688-.8051758,3.7382812-2.4155273.3447266-.9775391.6328125-2.4155273.8046875-4.2558594h1.2080078v9.546875h-19.5537109Z"/>
        </g>
      </g>
      <g>
        <path class="cls-1" d="m297.8516609,48.8068293c0-2.809082,0-3.3129883-.0361328-3.8891602-.0361328-.6123047-.1806641-.9003906-.7744141-1.0263672-.1445312-.0361328-.4501953-.0541992-.5224609-.0541992-.1621094,0-.2333984-.0356445-.2333984-.1079102,0-.1079102.0898438-.144043.2871094-.144043.8105469,0,1.9453125.0541992,2.0351562.0541992.4316406,0,1.1347656-.0541992,1.9628906-.0541992,2.953125,0,3.6005859,1.8007812,3.6005859,2.7006836,0,1.4765625-.8466797,2.3588867-1.6923828,3.2412109,1.3320312.4140625,3.1152344,1.6923828,3.1152344,3.7988281,0,1.9267578-1.5126953,3.925293-4.5917969,3.925293-.1972656,0-.7734375-.0356445-1.2958984-.0537109-.5224609-.0361328-1.0263672-.0541992-1.0986328-.0541992-.5761719,0-1.1347656.0541992-1.7646484.0541992-.1982422,0-.2880859-.0361328-.2880859-.1264648,0-.0537109.0361328-.1259766.2705078-.1259766.1435547,0,.2695312-.0175781.4316406-.0537109.3603516-.0722656.4326172-.4863281.5048828-1.0083008.0898438-.7563477.0898438-2.1787109.0898438-3.9072266v-3.1689453Zm1.4394531.3959961c0,.1259766.0371094.1621094.1269531.1982422.1074219.0180664.4316406.0717773,1.0976562.0717773,1.0087891,0,1.2607422-.0356445,1.6386719-.4682617.3789062-.4316406.6484375-1.0800781.6484375-1.8183594,0-1.4941406-.6660156-3.0966797-2.4306641-3.0966797-.1982422,0-.5761719.0175781-.8642578.0898438-.1621094.0361328-.2167969.0898438-.2167969.1982422v4.8251953Zm0,1.9086914c0,1.3862305,0,3.6191406.0185547,3.8891602.0537109.8823242.0537109,1.1342773.6123047,1.4042969.4863281.234375,1.2597656.2700195,1.5839844.2700195.9726562,0,2.5390625-.5219727,2.5390625-2.5566406,0-1.0805664-.359375-2.6469727-1.7460938-3.6010742-.6123047-.4140625-1.0625-.4682617-1.4941406-.5219727-.234375-.0361328-1.1347656-.0361328-1.4052734-.0361328-.0712891,0-.1083984.0361328-.1083984.1259766v1.0263672Z"/>
        <path class="cls-1" d="m313.4395515,52.8038996c-.0898438,0-.1445312.0541992-.1806641.144043l-.7919922,2.2509766c-.1796875.5039062-.3066406.9902344-.3066406,1.2783203,0,.3237305.1982422.4677734.5947266.4677734h.1259766c.1621094,0,.2158203.0541992.2158203.1259766,0,.090332-.1435547.1264648-.2695312.1264648-.3964844,0-1.2246094-.0541992-1.4228516-.0541992-.1796875,0-.9726562.0541992-1.7285156.0541992-.1982422,0-.2880859-.0361328-.2880859-.1264648,0-.0717773.0722656-.1259766.2158203-.1259766.0898438,0,.2519531,0,.3603516-.0175781.7744141-.0722656,1.0810547-.6665039,1.3867188-1.4228516l3.6005859-9.4887695c.1982422-.5219727.2519531-.6118164.3789062-.6118164.0898438,0,.1621094.0717773.359375.5761719.2519531.59375,2.7011719,6.8779297,3.6552734,9.128418.5947266,1.4223633,1.1162109,1.6567383,1.3681641,1.746582.234375.0898438.4863281.0898438.6123047.0898438s.2158203.0361328.2158203.1259766c0,.090332-.0712891.1264648-.2695312.1264648-.1796875,0-1.5302734,0-2.7363281-.0361328-.3427734-.0180664-.4511719-.0361328-.4511719-.1259766,0-.0541992.0546875-.1079102.1269531-.1259766.0712891-.0361328.1796875-.1264648.0712891-.3964844l-1.421875-3.6186523c-.0361328-.0541992-.0722656-.090332-.1445312-.090332h-3.2763672Zm3.0605469-.6303711c.0722656,0,.0722656-.0537109.0537109-.1079102l-1.421875-3.9790039c-.0908203-.2519531-.1083984-.2519531-.1982422,0l-1.3505859,3.9790039c-.0361328.0722656,0,.1079102.0361328.1079102h2.8808594Z"/>
        <path class="cls-1" d="m330.126075,52.7497004c0,1.3867188.0175781,2.6650391.0898438,3.3310547.0537109.4321289.0898438.6845703.5400391.7924805.2167969.0541992.5585938.0717773.7021484.0717773.1445312,0,.2158203.0541992.2158203.1083984,0,.0898438-.0537109.144043-.2333984.144043-.9189453,0-1.9804688-.0541992-2.0527344-.0541992s-1.1337891.0541992-1.6025391.0541992c-.1982422,0-.2695312-.0361328-.2695312-.1264648,0-.0537109.0537109-.1259766.1972656-.1259766.1445312,0,.2519531,0,.3964844-.0175781.3417969-.0541992.3964844-.2705078.4677734-.8823242.0722656-.6484375.0722656-1.9448242.0722656-3.2954102v-6.4277344c-.5947266,0-1.5478516,0-2.2685547.0180664-1.1523438.0180664-1.4042969.1982422-1.65625.5761719-.1621094.2519531-.234375.4682617-.2705078.5581055-.0537109.1259766-.0898438.144043-.1621094.144043-.0712891,0-.0898438-.0717773-.0898438-.1621094-.0185547-.1079102.2519531-1.2963867.3603516-1.7822266.0537109-.2163086.1074219-.2880859.1621094-.2880859.1259766,0,.4677734.1616211.7919922.1977539.6298828.0722656,1.1337891.090332,1.1523438.090332h5.9052734c.5039062,0,1.0449219-.0361328,1.296875-.090332.234375-.0537109.2880859-.0717773.3417969-.0717773.0722656,0,.1083984.0898438.1083984.1621094,0,.5039062-.0361328,1.6923828-.0361328,1.8364258,0,.1621094-.0722656.2158203-.1259766.2158203-.0898438,0-.1259766-.0717773-.1259766-.2158203,0-.0541992,0-.0722656-.0175781-.2519531-.0722656-.7202148-.3066406-.9003906-2.125-.918457-.6845703,0-1.2421875-.0180664-1.7646484-.0180664v6.4277344Z"/>
        <path class="cls-1" d="m348.6133797,50.4450129c.0537109,0,.1074219,0,.1074219-.0898438v-.3242188c0-2.3764648,0-2.7905273-.0351562-3.2768555-.0361328-.4858398-.1083984-.7382812-.703125-.8461914-.125-.0180664-.3056641-.0361328-.4492188-.0361328-.1269531,0-.2167969-.0537109-.2167969-.1259766,0-.1079102.0898438-.1259766.2519531-.1259766.7568359,0,1.8193359.0541992,1.890625.0541992.0722656,0,1.0810547-.0541992,1.6210938-.0541992.1796875,0,.2880859.0180664.2880859.1259766,0,.0541992-.0537109.1259766-.1982422.1259766-.1074219,0-.2519531.0180664-.3603516.0361328-.4853516.0722656-.5576172.3603516-.59375.8642578-.0185547.4863281-.0185547.9003906-.0185547,3.2768555v2.7006836c0,1.4765625,0,2.6469727.0722656,3.2954102.0546875.4321289.1445312.7919922.6123047.8461914.234375.0361328.4677734.0537109.6298828.0537109.1445312,0,.234375.0541992.234375.1259766,0,.090332-.0898438.1264648-.2695312.1264648-.9003906,0-1.9453125-.0541992-2.0351562-.0541992-.0722656,0-1.1162109.0541992-1.6025391.0541992-.1796875,0-.2705078-.0361328-.2705078-.144043,0-.0541992.0546875-.1083984.1992188-.1083984.1435547,0,.2695312,0,.4140625-.0356445.3056641-.0541992.3955078-.4501953.4492188-.8642578.0898438-.6484375.0898438-1.7827148.0898438-3.2412109v-1.6025391c0-.0717773-.0537109-.1079102-.1074219-.1079102h-6.5361328c-.0537109,0-.0898438.0180664-.0898438.1079102v1.6025391c0,1.4584961,0,2.6289062.0898438,3.2768555.0537109.3964844.1435547.7563477.6123047.8105469.234375.0361328.5039062.0537109.6484375.0537109.1259766,0,.2158203.0541992.2158203.1259766,0,.0722656-.0722656.1264648-.234375.1264648-.9179688,0-1.9804688-.0541992-2.0703125-.0541992-.0537109,0-1.1523438.0541992-1.6201172.0541992-.1806641,0-.2890625-.0361328-.2890625-.1264648,0-.0537109.0371094-.1259766.1992188-.1259766.1435547,0,.2871094-.0175781.4316406-.0537109.3242188-.0722656.3964844-.4140625.4501953-.8105469.1083984-.6479492.0898438-1.8544922.0898438-3.3310547v-2.6645508c0-2.3764648,0-2.8447266-.0361328-3.3310547-.0361328-.4682617-.1621094-.8100586-.6835938-.8642578-.1621094-.0180664-.3427734-.0361328-.4863281-.0361328-.1259766,0-.1982422-.0537109-.1982422-.1079102,0-.1079102.0898438-.1259766.2705078-.1259766.7734375,0,1.6376953.0541992,1.8720703.0541992.0722656,0,1.1162109-.0541992,1.6201172-.0541992.1806641,0,.2705078.0361328.2705078.1259766,0,.0722656-.0722656.1079102-.1806641.1079102-.1074219,0-.1621094,0-.359375.0361328-.4501953.0722656-.5585938.378418-.59375.8823242-.0185547.4863281-.0185547.8823242-.0185547,3.2587891v.3242188c0,.0898438.0537109.0898438.1083984.0898438h6.5175781Z"/>
        <path class="cls-1" d="m358.6368172,50.0490168c0-2.3764648,0-2.8085938-.0361328-3.2949219-.0361328-.4858398-.1621094-.7563477-.7197266-.8642578-.1083984-.0180664-.2890625-.0361328-.4326172-.0361328-.1259766,0-.1982422-.0356445-.1982422-.1079102,0-.0717773.0546875-.1259766.2167969-.1259766.7734375,0,1.8720703.0541992,1.9082031.0541992.1621094,0,1.3867188-.0541992,1.890625-.0541992,1.0078125,0,2.1064453.0898438,2.953125.684082.3417969.2524414,1.0800781.972168,1.0800781,2.1967773,0,.9902344-.4863281,2.2504883-1.9082031,3.402832,1.3144531,1.6206055,2.3945312,2.953125,3.3125,3.9072266.8642578.8823242,1.4042969,1.0263672,1.9082031,1.0986328.1269531.0180664.5039062.0356445.5585938.0356445.1445312,0,.1982422.0541992.1982422.1259766,0,.090332-.0722656.1264648-.3242188.1264648h-1.2607422c-.8457031,0-1.2421875-.0541992-1.6386719-.2163086-.7558594-.3242188-1.2958984-1.1342773-2.2324219-2.3408203-.7021484-.8642578-1.421875-1.8364258-1.7285156-2.2143555-.0722656-.0722656-.1074219-.1079102-.2158203-.1079102l-1.8544922-.0180664c-.0722656,0-.0898438.0180664-.0898438.0898438v.2519531c0,1.4404297,0,2.7548828.0898438,3.4033203.0537109.4321289.1074219.7919922.7021484.8642578.1796875.0180664.3779297.0356445.5224609.0356445.1621094,0,.2333984.0541992.2333984.1083984,0,.0898438-.0712891.144043-.2519531.144043-.9365234,0-1.9443359-.0541992-2.0166016-.0541992-.2880859,0-1.0800781.0541992-1.5664062.0541992-.1796875,0-.2519531-.0361328-.2519531-.144043,0-.0541992.1074219-.1083984.2158203-.1083984.1259766,0,.2529297,0,.3964844-.0356445.3056641-.0541992.4140625-.2524414.4677734-.6845703.0898438-.6479492.0722656-2.1245117.0722656-3.4750977v-2.7006836Zm1.3867188,1.2783203c0,.090332.0175781.1801758.0898438.2163086.234375.1259766.9541016.2338867,1.6025391.2338867.3779297,0,.828125-.0180664,1.2060547-.2700195.5400391-.3417969.9003906-1.1342773.9003906-2.2866211,0-1.9624023-1.0449219-3.0429688-2.6464844-3.0429688-.4501953,0-.828125.0361328-1.0449219.090332-.0537109.0175781-.1074219.0717773-.1074219.1616211v4.8974609Z"/>
        <path class="cls-1" d="m371.7042,51.3815363c0-2.3945312,1.8544922-5.9775391,6.3017578-5.9775391,3.5644531,0,6.2832031,2.1245117,6.2832031,5.7436523,0,3.4389648-2.5380859,6.2475586-6.3730469,6.2475586-4.4121094,0-6.2119141-3.2768555-6.2119141-6.0136719Zm10.8935547.2158203c0-3.6186523-2.2333984-5.6352539-4.7001953-5.6352539-2.5029297,0-4.5185547,1.5483398-4.5185547,4.9511719,0,3.5292969,1.9619141,5.8696289,4.9873047,5.8696289,1.2060547,0,4.2314453-.6118164,4.2314453-5.1855469Z"/>
        <path class="cls-1" d="m389.1641609,51.3815363c0-2.3945312,1.8544922-5.9775391,6.3017578-5.9775391,3.5654297,0,6.2841797,2.1245117,6.2841797,5.7436523,0,3.4389648-2.5390625,6.2475586-6.3740234,6.2475586-4.4111328,0-6.2119141-3.2768555-6.2119141-6.0136719Zm10.8925781.2158203c0-3.6186523-2.2324219-5.6352539-4.6992188-5.6352539-2.5019531,0-4.5195312,1.5483398-4.5195312,4.9511719,0,3.5292969,1.9628906,5.8696289,4.9882812,5.8696289,1.2060547,0,4.2304688-.6118164,4.2304688-5.1855469Z"/>
        <path class="cls-1" d="m420.3077156,55.2164973c.0537109.4321289.1621094,1.4404297.8642578,1.6025391.3066406.0722656.6660156.1083984.9179688.1259766.0722656,0,.234375.0180664.234375.1083984,0,.0898438-.0722656.144043-.2695312.144043-.3242188,0-2.2695312-.0722656-2.8457031-.1083984-.3955078-.0356445-.5390625-.0717773-.5390625-.1616211,0-.0541992.0712891-.1264648.1621094-.1621094.0898438-.0361328.1435547-.2524414.1074219-.5043945l-.7919922-7.7060547-3.8173828,7.7421875c-.3417969.7021484-.3964844.8642578-.5585938.8642578-.1074219,0-.1972656-.1621094-.5390625-.7744141-.2890625-.5219727-1.7285156-3.402832-1.8369141-3.5649414-.1083984-.2158203-1.8730469-3.7089844-2.0166016-4.0874023l-.6660156,6.9321289c-.0185547.2519531-.0185547.4140625-.0185547.6845703,0,.1977539.0898438.4677734.4501953.5400391.1982422.0361328.3242188.0361328.5039062.0537109.1445312.0180664.1806641.0722656.1806641.1083984,0,.1259766-.1083984.144043-.3066406.144043-.5761719,0-1.3505859-.0541992-1.4941406-.0541992-.1806641,0-.9365234.0541992-1.3867188.0541992-.1621094,0-.2695312-.0180664-.2695312-.144043,0-.0361328.0712891-.1083984.2333984-.1083984.1269531,0,.1445312,0,.3427734-.0175781.4316406-.0361328.59375-.4682617.6835938-1.1884766l1.2060547-9.8852539c.0371094-.3061523.1083984-.449707.1992188-.449707.0898438,0,.1435547.0537109.2695312.2880859l4.8251953,9.3447266,4.5917969-9.3271484c.0898438-.1977539.1621094-.3056641.2705078-.3056641.1074219,0,.1611328.1616211.1796875.449707l1.1337891,9.362793Z"/>
      </g>
    </g>
  </g>
</svg>