<?xml version="1.0" encoding="UTF-8"?>
<svg id="_レイヤー_2" data-name="レイヤー 2" xmlns="http://www.w3.org/2000/svg" xmlns:xlink="http://www.w3.org/1999/xlink" viewBox="0 0 1278.8988335 155.1470413">
  <defs>
    <style>
      .cls-1 {
        fill: #fff;
      }

      .cls-2 {
        fill: #e8c416;
      }

      .cls-3 {
        clip-path: url(#clippath);
      }

      .cls-4 {
        fill: none;
      }

      .cls-5 {
        fill: #ae8f36;
      }
    </style>
    <clipPath id="clippath">
      <rect class="cls-4" x="0" y="0" width="1278.8988335" height="155.1470413"/>
    </clipPath>
  </defs>
  <g id="_レイヤー_1-2" data-name="レイヤー 1">
    <g class="cls-3">
      <g>
        <path class="cls-1" d="m540.7980297,103.490694c0-.2402344.5200195-.3999023.9997559-.4799805,1.1999512-.2001953,1.9597168-.5200195,3.3195801-1.199707,2.159668-1.0400391,3.7194824-2.1196289,5.3991699-3.6396484,2.159668-1.9594727,3.3193359-3.6391602,4.519043-5.6787109.2800293-.4799805.5600586-1.1201172.1601562-1.4399414-.4799805-.4399414-.9199219-.6396484-1.4399414-.8398438-.4399414-.2001953-.6796875-.4799805-.6796875-.7197266.0397949-.2802734.3198242-.4399414,1.0397949-.4399414.7197266,0,1.3198242.0795898,2.4394531.5195312,1.1599121.4799805,2.5197754,2.0800781,1.3999023,3.9594727-1.119873,1.9599609-3.5993652,4.2392578-6.3989258,6.2392578-2.0397949,1.4394531-2.9594727,1.9194336-4.9992676,2.7592773-1.5996094.6801758-2.8393555,1.0800781-4.479248,1.2797852-.7998047.0800781-1.2797852-.0400391-1.2797852-.3198242Zm24.9958496-16.2773438c-.5598145-.5600586-1.3198242-1.199707-2.3195801-1.8398438-.3598633-.199707-.4799805-.5195312-.3598633-.7998047.1599121-.159668.4797363-.159668.7197266-.1201172.5998535,0,1.3598633.1601562,2.159668.4399414.8398438.3203125,1.9997559.9599609,2.3996582,1.6401367.3598633.6796875,0,1.2797852-.5998535,1.4394531-.5600586.1601562-1.4399414-.199707-1.9997559-.7597656Zm6.3989258,9.5585938c.9997559,1.5195312,1.079834,3.1191406-.0400391,3.5991211-1.079834.4799805-2.3195801-.2397461-2.7995605-1.5195312-.5197754-1.4399414-1.079834-2.3999023-1.9196777-3.9194336-.8798828-1.5200195-1.5996094-2.3994141-2.9194336-3.5195312-.5998535-.4799805-.9997559-.7998047-.7199707-1.1196289.2800293-.3198242.8000488-.0800781,1.4797363.2397461,1.2797852.5600586,2.3996582,1.3598633,3.7995605,2.5595703,1.3996582,1.159668,2.1594238,2.159668,3.1193848,3.6796875Zm-3.239502-11.1982422c-.5998535-.7597656-1.2797852-1.1201172-2.4394531-1.6396484-.3601074-.1601562-.5200195-.4799805-.3601074-.7998047.1201172-.1601562.4399414-.1601562.6398926-.1601562.6398926,0,1.3598633.1201172,2.199707.3999023.8398438.2397461,2.0395508.7998047,2.4396973,1.4799805.4399414.6796875.079834,1.2797852-.4399414,1.4794922-.6000977.1601562-1.5197754-.1201172-2.0397949-.7597656Z"/>
        <path class="cls-1" d="m582.7977856,108.8095416c-.0800781-.2397461.4399414-.5595703.8398438-.7597656,1.6396484-.7597656,2.8793945-1.4394531,4.1193848-2.2397461,1.2397461-.7597656,2.5195312-1.7592773,4.1992188-3.2792969,1.7197266-1.5195312,2.8395996-2.7197266,4.0393066-4.0791016,1.2397461-1.3598633,2.8395996-3.6396484,3.9194336-5.3193359,1.0795898-1.7197266,1.7595215-2.9194336,1.9995117-3.8793945.2399902-.9199219-.3598633-1.3598633-1.5197754-.9995117-.7597656.2397461-1.2397461.3198242-2.6394043.6396484-1.3999023.3198242-2.3596191.5200195-3.6394043.5600586-1.2797852,0-2.5195312-.4399414-3.239502-1-.9599609-.8398438-1.1599121-1.7597656-.7199707-2.199707.3601074-.3999023,1.079834-.4399414,1.5998535-.1196289.5598145.3598633,1.2397461.6396484,1.9597168.8398438,1.199707.2797852,3.0393066.2397461,4.8791504-.0800781,1.8395996-.3203125,3.0793457-.7202148,3.5993652-.9199219.5598145-.2001953,1.2797852-.6796875,2.0795898-.2402344.8398438.4399414,1.3598633,1.2001953,1.5197754,2.5996094.1599121,1.4399414-.3598633,2.0800781-1.1599121,2.7197266-.6398926.5200195-1.159668,1-2.1594238,2.2797852-.8000488,1.1196289-1.8798828,2.5996094-3.3596191,4.3989258,1.3198242.3603516,2.9594727.9199219,4.359375,1.8398438,1.6796875,1.0400391,2.8793945,2.199707,3.6394043,3.199707.7998047.9594727,1.5197754,3.0791016.3598633,3.7993164-1.2397461.7597656-2.4394531-.5600586-3.0395508-1.6401367-.6398926-1.1196289-1.2797852-2.3994141-2.3994141-3.8393555-1.0400391-1.3193359-2.159668-2.1196289-3.5195312-2.7192383-.0400391.0400391-.0800781.1201172-.0800781.159668-1.9194336,2.159668-3.359375,3.5195312-4.9990234,4.9194336-1.5998535,1.3999023-2.9995117,2.359375-4.8391113,3.3994141-1.2399902.7597656-3.279541,1.6396484-4.5993652,2.0795898-.6398926.2001953-1.119873.1601562-1.199707-.1201172Z"/>
        <path class="cls-1" d="m626.7570141,106.850069c-1.3596191,1.2397461-2.3596191,1.9194336-3.5593262,2.5195312-.5998535.2397461-1.079834.3999023-1.2397461.1601562-.1601562-.2402344.2399902-.4799805.6398926-.7602539.9597168-.5595703,1.7197266-1.0795898,2.8393555-2.1591797,1.3999023-1.3999023,2.4396973-2.7998047,3.3195801-4.5195312.9199219-1.7597656,1.5197754-3.359375,1.9995117-5.2792969.4799805-1.8793945.6799316-3.1591797.8400879-5.0791016.119873-1.9194336-.0400391-2.8393555-.9199219-3.5991211-.5200195-.3999023-.8798828-1-.5998535-1.3598633.2797852-.3598633.7197266-.3999023,1.6396484-.1601562.7998047.2001953,1.6796875.6000977,2.4396973,1.5200195.7597656.8398438.7197266,1.4394531.4797363,1.7998047-.1999512.2397461-.3598633.5996094-.3999023,1.1196289-.0400391,1-.1999512,2.5195312-.5197754,4.3193359-.5200195,2.5996094-1.3999023,4.7592773-2.6396484,6.6787109-1.2397461,1.9199219-2.6794434,3.3193359-4.3193359,4.7993164Zm11.5180664-5.6391602c.3601074-.3999023.4799805-.7998047.4799805-2.0395508-.0400391-1.2397461-.0400391-3.6391602,0-5.8388672.0400391-2.2397461.0800781-3.8393555.0800781-5.1591797.0397949-1.3198242-.1601562-2.0795898-1.0397949-2.7197266-.8000488-.5996094-1.0400391-1.2397461-.8000488-1.5996094.2399902-.3198242.7600098-.3598633,1.3198242-.2402344.7199707.1601562,1.3598633.3203125,2.3596191,1,.9997559.6801758,1.119873,1.6396484.7998047,2.199707-.3198242.6000977-.3198242,1.4794922-.4399414,4.9189453-.079834,3.3598633-.1599121,6.1992188-.1999512,7.1191406-.0400391.8798828.1201172,1.159668.5998535,1.159668.5200195,0,1.1999512-.2797852,2.5595703-1.1196289,1.3999023-.9199219,2.3596191-1.5200195,3.7995605-2.8398438,1.5197754-1.3198242,2.8793945-2.5195312,3.6394043-3.3193359.7998047-.7998047,1.4797363-1.2797852,1.7197266-1,.1999512.2001953,0,.7602539-.8798828,1.7597656-1.0400391,1.1601562-2.9594727,3.2797852-4.8793945,5.1191406-1.9995117,1.8798828-3.5593262,3.159668-4.9189453,4.1196289-1.3598633.9995117-1.9997559,1.3198242-2.6396484,1.359375-.6799316.0400391-1.3598633-.5195312-1.7597656-1.1196289-.4799805-.6396484-.3198242-1.159668.1999512-1.7597656Z"/>
        <path class="cls-1" d="m691.2728832,97.4115924c-.079834.4799805-.6398926.6401367-1.4797363.4799805-.7998047-.1201172-3.0793457-.3999023-4.5192871-.5200195-1.4396973-.1201172-4.5991211-.2797852-6.0788574-.199707-1.4396973.1196289-4.359375.199707-6.2390137.3999023-1.4797363.159668-3.1994629.5595703-4.5991211.5996094-1.4399414,0-2.7995605-.4399414-3.5993652-1.0395508-.8000488-.6000977-1.119873-1.5200195-.6799316-1.8398438.6799316-.5200195,1.8395996-.0400391,2.8393555.2402344.9199219.2797852,2.7995605.4794922,4.359375.4394531,1.6396484-.0795898,5.0390625-.2397461,6.7587891-.2797852,1.6796875-.0800781,6.3591309-.2397461,7.9587402-.2797852,1.6396484,0,3.279541.0400391,4.1193848.3999023s1.2397461,1.0395508,1.159668,1.5996094Z"/>
        <path class="cls-1" d="m729.5931957,102.6108112c1.1599121,1.8793945,1.8398438,4.359375.2800293,4.8393555-1.6796875.4794922-2.5195312-1.2402344-3.3195801-3.5996094-.079834-.2797852-.1999512-.5600586-.3198242-.8398438-1.3198242.3198242-4.7592773,1.159668-6.3588867,1.5595703-1.7597656.4399414-6.0390625,1.4399414-7.3188477,1.6796875-1.3198242.2402344-2.0795898.5200195-3.1193848,1.6401367-.4399414.4399414-1.079834.7597656-1.5598145.7597656-.5200195,0-1.5197754-.3198242-2.3996582-1.0400391-.8798828-.7197266-1.159668-1.7998047-1.079834-2.3994141.1201172-.6401367.8000488-.5600586,1.7197266-.6401367.8798828-.0800781,1.3999023-.8798828,2.3996582-2.6396484,1.0397949-1.7993164,1.8796387-3.3994141,3.3193359-5.8789062,1.4399414-2.5595703,3.0395508-5.4790039,3.5195312-6.8388672.5197754-1.359375-.0800781-2.5195312-.4399414-3.1191406-.3598633-.5600586-.7199707-1.1201172-.3598633-1.3598633.6398926-.4399414,1.5197754-.2402344,2.5993652.5200195.7199707.5595703,1.1999512,1.199707,1.3198242,2.5195312.1201172.8398438-.3999023,1.6396484-1.1196289,2.5996094-.6398926.9594727-2.8796387,4.6391602-4.0793457,6.5986328-1.119873,1.7998047-3.7595215,6.3588867-3.9995117,6.7988281-.2397461.4399414-.079834.6000977.2800293.6000977.3598633-.0400391,1.3198242-.1201172,2.7595215-.3999023,1.5598145-.3598633,5.2790527-.9199219,7.1188965-1.2397461,1.6396484-.3203125,4.0793457-.800293,6.1589355-1.1201172-.6799316-1.199707-1.3996582-2.1196289-2.279541-2.9594727-.5200195-.4799805-.8798828-.9199219-.6398926-1.159668.2797852-.3198242.7998047-.1201172,1.7995605.4799805,2.3996582,1.5195312,4.1193848,3.0795898,5.1191406,4.6391602Z"/>
      </g>
      <circle class="cls-5" cx="146.0814049" cy="77.5735207" r="77.5735207"/>
      <g>
        <path class="cls-1" d="m102.6415356,58.931612c.4775391.6821289,1.057373,1.262207,1.7734375,1.7392578,2.2849121-.8862305,4.1948242-2.1142578,5.8317871-3.6831055,1.3981934.6821289,2.1142578,1.2280273,2.1142578,1.534668,0,.2045898-.3068848.3071289-.9206543.3071289h-.5117188c-1.807373,1.0229492-3.6831055,1.8413086-5.6611328,2.4213867,2.012207,1.0229492,5.3884277,1.534668,10.0605469,1.534668,2.5578613,0,5.5588379-.1025391,8.9692383-.3754883-.4091797.6142578-.6821289,1.2963867-.9208984,1.9780273h-6.786377c-5.0473633,0-8.5258789-.375-10.3674316-1.1933594-2.012207-.8867188-3.4104004-2.0463867-4.1606445-3.5126953-.9890137,1.5004883-2.0803223,2.8989258-3.2399902,4.2290039,0,.75-.1022949,1.1591797-.375,1.1591797-.3752441,0-.9890137-.75-1.9099121-2.284668,1.5688477-.8867188,3.0012207-1.909668,4.3652344-3.1376953v-8.21875h-4.0922852l-.3068848-.784668h4.1945801l1.1254883-1.3979492c1.2277832.9887695,1.8757324,1.6025391,1.8757324,1.8754883,0,.1367188-.1022949.2729492-.3410645.3413086l-.7163086.4770508v6.9912109Zm-4.5014648-20.1547852c3.2055664,1.4663086,4.8085938,3.0009766,4.8085938,4.6381836,0,.7841797-.3752441,1.1933594-1.1254883,1.1933594-.4775391,0-.8525391-.375-1.1254883-1.1254883-.5114746-1.5004883-1.534668-2.8647461-3.0693359-4.1264648l.5117188-.5795898Zm17.8359375,12.3793945v-2.8305664c1.9780273.0683594,2.9328613.3071289,2.9328613.6821289,0,.2045898-.375.4433594-1.1594238.7163086v1.4321289h2.3530273l1.2619629-1.7734375c.1022949.0683594.1364746.1367188.2045898.2387695.6137695.5458984,1.1254883,1.0913086,1.6027832,1.6708984l-.3410645.6142578h-5.0812988v3.4785156h3.342041l1.3984375-1.8076172.2727051.2729492.2387695.1704102c.5114746.4433594.9206543.9550781,1.2958984,1.4663086l-.3068848.6479492h-19.8823242l-.3410645-.75h5.5246582v-3.4785156h-4.3310547l-.3068848-.7504883h4.6379395v-2.8647461c1.9099121.0341797,2.8989258.2729492,2.8989258.7163086,0,.2387695-.4091797.4775391-1.159668.7163086v1.4321289h4.9450684Zm-8.9350586-8.0141602v2.3188477c0,.3413086.0681152.5800781.2387695.7163086.1704102.1362305.9206543.1704102,2.1826172.1704102,1.432373,0,2.2167969-.1362305,2.4553223-.4091797.1706543-.2729492.3410645-.8183594.4433594-1.6030273l.6821289.2045898c0,.1367188-.0341797.2387695-.0341797.4091797,0,.7163086.3071289,1.0917969.9208984,1.0576172v.0341797c0,.7158203-.2387695,1.1933594-.7163086,1.3979492-.5114746.2045898-1.6367188.3413086-3.4101562.3413086-2.114502,0-3.3762207-.1367188-3.7856445-.3413086-.375-.2045898-.5456543-.75-.5456543-1.5688477v-4.296875c.3071289.1025391.9208984.375,1.8757324.7841797h3.6149902v-2.4213867h-6.036377l-.3068848-.75h6.0705566l1.0229492-1.2617188c1.1254883.8525391,1.6369629,1.3637695,1.6369629,1.5688477,0,.1704102-.0681152.3066406-.2387695.375l-.5456543.375v3.5810547h-1.6027832v-.6821289h-3.921875Zm8.9350586,12.2431641v-3.4785156h-4.9450684v3.4785156h4.9450684Zm.579834-12.2431641v2.1484375c0,.375.0341797.6479492.1704102.7504883.1706543.2045898.9550781.2382812,2.2849121.2382812,1.5007324,0,2.3532715-.1704102,2.5578613-.5112305.2387695-.3754883.4091797-.8867188.5114746-1.5688477l.6821289.2387695c0,.6137695.0681152,1.0571289.1704102,1.2958984.1364746.2045898.3752441.3071289.7844238.3408203,0,.7504883-.3410645,1.1938477-.9206543,1.3984375-.5117188.2045898-1.7053223.3071289-3.6149902.3071289-2.0461426,0-3.3081055-.1708984-3.7514648-.4433594-.3068848-.2050781-.4772949-.6479492-.4772949-1.2958984v-4.4335938c.5795898.2387695,1.1936035.4775391,1.807373.75h3.6831055v-2.4213867h-5.8657227l-.3410645-.75h5.934082l1.0571289-1.2617188c1.1254883.8525391,1.6369629,1.3979492,1.6369629,1.6025391,0,.1367188-.1022949.2387695-.2727051.3754883l-.579834.4091797v3.5805664h-1.5688477v-.75h-3.8876953Zm-1.0571289,14.0844727c4.7402344.8183594,7.0593262,1.9101562,7.0593262,3.171875,0,.6821289-.3068848,1.0229492-.9208984,1.0229492-.3068848,0-.6479492-.1362305-.9890137-.4775391-1.2275391-1.2275391-3.0693359-2.2504883-5.5588379-3.0693359l.4094238-.6479492Z"/>
        <path class="cls-1" d="m156.8607739,56.5444049c.0681152.5458984-.3410645,1.2280273-1.3981934,1.3642578-1.432373.1362305-2.8305664-.5454102-4.2287598-1.6030273-1.4665527-1.125-3.3081055-3.1713867-4.7062988-4.8422852-1.3984375-1.7055664-2.6943359-3.3422852-3.2399902-3.9902344-.6818848-.7841797-1.2617188-1.3984375-1.8415527-1.3984375-.6137695,0-1.0913086.4775391-1.534668,1.0913086-.4772949.6142578-1.6369629,2.4213867-2.1484375,3.2060547-.4433594.75-1.534668,2.1826172-2.4555664,2.4550781-.954834.2729492-1.807373,0-2.4553223-.3066406-.6821289-.3071289-1.0571289-.8867188-.8867188-1.2958984.1364746-.3071289.6140137-.2729492,1.0231934-.2387695.375.0341797.8525391-.0341797,1.3640137-.2045898.5117188-.2045898,1.057373-.6821289,1.7734375-1.2958984.6821289-.5800781,1.432373-1.3642578,2.012207-1.9780273.6137695-.6479492.8525391-.9550781,1.5004883-1.7050781.6479492-.7504883,1.0571289-1.0913086,1.7050781-1.1254883.6479492-.0683594,1.2619629.6137695,1.8757324,1.2275391.579834.5795898,1.7734375,1.637207,2.7963867,2.762207,1.0231934,1.1254883,2.4213867,2.3876953,3.8879395,3.7514648.8867188.8525391,2.3530273,2.0463867,3.4785156,2.6601562,1.0913086.5795898,1.9438477.7504883,2.4553223.7841797.4433594.0341797.9890137.1708984,1.0231934.6821289Zm-5.2861328-8.7641602c-.5114746-.4775391-1.1594238-.9550781-2.0119629-1.534668-.2729492-.2045898-.4433594-.4433594-.2729492-.6821289.1364746-.1708984.4094238-.1367188.579834-.1367188.5114746.0341797,1.1254883.1708984,1.8415527.4433594.7163086.2387695,1.7392578.784668,2.0461426,1.3300781.3410645.5800781.0341797,1.1254883-.4772949,1.2617188-.4775391.1367188-1.2277832-.1704102-1.7053223-.6816406Zm2.6943359-1.3642578c-.5117188-.6137695-1.1254883-.9892578-2.114502-1.3984375-.2727051-.1362305-.4433594-.4433594-.3068848-.6479492.1022949-.2045898.3752441-.1704102.579834-.1704102.5114746-.0341797,1.1594238.1020508,1.8754883.3071289.6821289.2045898,1.7053223.7158203,2.0803223,1.2958984.3410645.5454102.0683594,1.0913086-.4091797,1.2617188-.4772949.1704102-1.2617188-.1367188-1.7050781-.6479492Z"/>
        <path class="cls-1" d="m186.9347485,59.6479205c-1.2619629,1.4326172-2.7963867,2.2509766-4.5358887,2.6943359-1.7392578.4775391-3.4101562.4091797-5.456543.0341797-2.0803223-.4433594-2.8986816-1.159668-2.8986816-2.1826172-.0341797-1.0234375,1.2958984-1.8417969,2.4213867-2.0463867,1.1594238-.2387695,2.5236816-.1704102,3.5466309.6479492.8867188.7163086.8527832,1.534668.4433594,2.3530273,1.6369629-.2045898,3.1716309-.6821289,4.2629395-1.5688477,1.3300781-1.0913086,1.9438477-2.6254883,1.9438477-4.1943359.0341797-1.5688477-1.1252441-3.4785156-3.0351562-4.3310547-1.909668-.8188477-3.9560547-.8867188-6.0703125-.2050781-2.1484375.6821289-3.5126953,1.7397461-4.5358887,3.1035156-1.0229492,1.3300781-1.7731934,2.9331055-2.0461426,3.8198242-.2727051.8867188-.579834,1.3642578-1.0229492,1.6025391-.204834.1025391-.579834.2729492-1.1254883-.1704102-.3752441-.3066406-.4091797-1.0229492-.3752441-1.5004883.0341797-.4433594.8867188-1.534668,1.5007324-2.3188477.6479492-.8188477,1.5344238-2.0805664,2.6940918-3.3422852,1.1594238-1.2617188,3.0009766-3.5126953,3.7512207-4.3652344.7163086-.8867188,3.0693359-3.7172852,3.4445801-4.2290039.375-.4770508.5456543-.8525391.375-.9887695-.1704102-.1704102-.7502441.0683594-1.0913086.2729492-.375.2387695-2.0461426,1.2275391-3.0009766,1.7734375-.9890137.5112305-1.7050781.75-2.5578613.75-.8525391,0-1.4321289-.4433594-1.7731934-.75-.3410645-.3413086-.4775391-.8530273-.3752441-1.0913086.1364746-.3413086.4775391-.3754883.7502441-.2729492.3068848.0678711.7163086.2045898,1.159668.2045898.4431152.0341797.8525391-.0341797,1.909668-.4775391,1.0231934-.4091797,2.387207-1.0571289,3.546875-1.6708984,1.1594238-.6142578,1.8754883-1.0571289,2.5234375-1.0913086.6821289-.0341797,1.3642578.375,1.8076172.8867188.4433594.4770508.4772949.7841797.4091797,1.0913086-.0681152.3066406-.2387695.4770508-.7160645.7841797-.4775391.2729492-1.5007324,1.159668-2.4213867,2.0800781-.9208984.9550781-2.0461426,2.3535156-2.8647461,3.2402344,0,0-.8183594.8867188-2.4213867,2.5576172.4775391-.3408203.9550781-.6137695,1.8757324-.9550781,1.3300781-.4775391,2.7282715-.75,4.4675293-.5795898,1.7734375.1704102,3.2058105.7163086,4.501709,1.6367188,1.2958984.9208984,2.3190918,2.2851562,2.489502,4.2631836.1706543,1.8754883-.3410645,3.2397461-1.5004883,4.5356445Zm-9.8217773-.5454102c-1.0913086.0341797-1.7734375.6821289-1.2958984,1.3637695.2727051.3754883,1.1252441.7163086,2.5576172.7504883,1.3300781-1.1938477.1364746-2.1142578-1.2617188-2.1142578Z"/>
      </g>
      <g>
        <g>
          <path class="cls-1" d="m126.6915844,97.1620807c.4689941-.6396484.8527832-1.2578125,1.2363281-1.8969727-.0424805-.0639648-.1064453-.1279297-.1704102-.1918945-.5117188-.5541992-1.1083984-1.0234375-1.833252-1.5561523-.234375-.1494141-.5754395-.3837891-.4689941-.5541992.1279297-.1918945.3410645-.1069336.8952637.1279297.5756836.234375,1.0871582.5541992,2.1318359,1.1933594.1491699-.234375.2770996-.4902344.4050293-.7670898.7460938-1.3857422,1.0656738-2.2807617,1.1936035-2.8779297.1279297-.6181641.0427246-1.1083984-.1918945-1.4067383-.2131348-.2773438-.4689941-.5966797-.3195801-.8100586.1916504-.2773438.5541992-.1704102,1.0231934.0214844.5541992.1918945.9592285.5541992,1.2363281.9804688.2770996.4477539.1704102.8100586.0212402.9589844-.1704102.1494141-.3410645.2773438-.4050293.5541992-.0852051.2558594-.2131348.7250977-.4902344,1.300293-.3410645.7460938-.8527832,1.684082-1.5134277,2.7075195.6181641.4477539,1.151123.9165039,1.4921875,1.2573242.6821289.7460938.8952637,1.684082.2556152,2.0253906-.6181641.3408203-1.2788086-.1494141-1.7905273-.9594727-.2558594-.3837891-.5114746-.7670898-.7460938-1.1083984-.8312988,1.1938477-1.300293,1.8759766-2.3662109,3.0483398-1.0656738,1.1723633-1.8544922,1.8759766-3.2612305,2.8564453-.532959.3623047-.831543.4262695-.8952637.2983398-.0854492-.1279297.1276855-.3198242.3835449-.5541992.5541992-.46875,1.0871582-.9165039,1.8972168-1.769043.7885742-.8740234,1.4494629-1.7055664,2.2807617-2.8779297Z"/>
          <path class="cls-1" d="m156.4232739,95.7763385c-.0427246.2558594-.3410645.3413086-.7888184.2558594-.4262695-.0639648-1.6413574-.2128906-2.4086914-.2768555s-2.451416-.1494141-3.2402344-.1069336c-.767334.0639648-2.3234863.1069336-3.3251953.2133789-.7888184.0854492-1.7053223.2983398-2.451416.3198242-.767334,0-1.4921875-.234375-1.918457-.5541992-.4265137-.3198242-.5969238-.8100586-.3625488-.9804688.3625488-.2773438.9807129-.0214844,1.5136719.1274414.4902344.1494141,1.4919434.2558594,2.3234863.2348633.8737793-.0429688,2.685791-.1279297,3.6022949-.1494141.8955078-.0424805,3.3894043-.1279297,4.2421875-.1489258.8737793,0,1.7478027.0209961,2.1955566.2128906.4475098.1918945.6606445.5541992.6181641.8525391Z"/>
          <path class="cls-1" d="m163.3461254,103.0238971c.3623047-.234375.8525391-.6181641,1.2150879-.9375,1.1083984-.9594727,1.9824219-1.8549805,2.685791-2.8779297.6821289-1.0444336,1.2150879-2.0463867,1.6413574-3.1972656.2983398-.7460938.532959-1.5561523.7460938-2.3022461-.5969238.0639648-1.1083984.1279297-1.4494629.1704102-.4689941.0424805-1.065918.1704102-1.5134277.1494141-.4904785-.0214844-1.1938477-.1494141-1.6628418-.5332031-.4262695-.3837891-.5754395-.7670898-.4475098-.9589844.1704102-.2988281.767334-.1069336,1.151123.0209961.3835449.1069336,1.0231934.234375,1.9609375.2558594.8100586.0214844,1.4709473-.0424805,2.1743164-.0849609,0,0,.0212402-.0214844.0212402-.0429688.1706543-.9165039.298584-1.9399414.3198242-2.4301758.0427246-.46875-.1704102-.9804688-.3623047-1.2573242-.2131348-.2988281-.3198242-.5756836-.2346191-.7460938.1279297-.1918945.4050293-.1708984.8740234-.0214844.4477539.1494141.7248535.3198242.9807129.6181641.234375.2558594.2983398.5966797.1916504.831543-.0637207.1489258-.1491699.4047852-.1916504.7460938-.1494141.7460938-.2346191,1.4492188-.3837891,2.1743164.532959-.0429688,1.065918-.1279297,1.6201172-.2133789.8312988-.1064453,1.2575684-.2133789,1.6413574-.3198242.3835449-.1064453.7033691-.3198242.8952637-.46875.1918945-.1708984.4902344-.1918945.8525391.0849609.3625488.2773438.6821289.6396484.7888184.8955078s0,.5117188-.1279297.6181641c-.1064453.0854492-.2131348.3623047-.2558594.5541992-.0424805.3413086-.1064453.8740234-.2131348,1.7480469-.1279297.8950195-.2983398,1.769043-.5754395,3.0053711-.298584,1.1938477-.5541992,1.8974609-.8952637,2.4091797-.3198242.4902344-.6181641.6181641-.9592285.5327148-.2558594-.0639648-.3837891-.234375-.5117188-.6181641s-.3198242-.6821289-.6181641-.9804688c-.2770996-.3198242-.6394043-.5541992-1.0019531-.7675781-.1916504-.1064453-.2983398-.2558594-.2556152-.3623047.0424805-.1064453.2131348-.1279297.4475098-.0424805.3625488.1064453.767334.2553711,1.3430176.4262695.5541992.1704102.9165039.1064453,1.1083984-.2983398.2131348-.4052734.3410645-.8740234.532959-1.8549805.1918945-1.0014648.2770996-1.8115234.3837891-3.0693359.0212402-.4052734.0424805-.6396484-.0427246-.7036133-.0639648-.0639648-.2558594-.1279297-.4050293-.1704102s-.2983398,0-.4477539,0c-.1276855.0214844-.3410645.0854492-1.001709.1918945-.6181641.1064453-1.3217773.1704102-2.5581055.3408203-.0639648.1708984-.1279297.3413086-.1918945.5546875-.46875,1.2363281-.8737793,2.1738281-1.4067383,3.1547852-.532959,1.0014648-1.0019531,1.7905273-1.7692871,2.7495117-.7460938.9379883-1.5773926,1.7480469-2.4726562,2.4086914-.4477539.3413086-1.0019531.6611328-1.4282227.8740234-.298584.1494141-.4689941-.0849609-.1918945-.2558594Z"/>
          <path class="cls-1" d="m199.0463207,95.7763385c-.0427246.2558594-.3410645.3413086-.7888184.2558594-.4262695-.0639648-1.6413574-.2128906-2.4086914-.2768555s-2.451416-.1494141-3.2402344-.1069336c-.767334.0639648-2.3234863.1069336-3.3251953.2133789-.7888184.0854492-1.7053223.2983398-2.451416.3198242-.767334,0-1.4921875-.234375-1.918457-.5541992-.4265137-.3198242-.5969238-.8100586-.3625488-.9804688.3625488-.2773438.9807129-.0214844,1.5136719.1274414.4902344.1494141,1.4919434.2558594,2.3234863.2348633.8737793-.0429688,2.685791-.1279297,3.6022949-.1494141.8955078-.0424805,3.3894043-.1279297,4.2421875-.1489258.8737793,0,1.7478027.0209961,2.1955566.2128906.4475098.1918945.6606445.5541992.6181641.8525391Z"/>
        </g>
        <path class="cls-2" d="m92.1471508,116.4277057v-2.2919922c2.2282715-3.8193359,5.7932129-8.9760742,10.567627-15.4692383,4.3288574-5.9838867,6.4296875-10.5673828,6.4296875-13.7504883,0-1.8461914-.4455566-3.5649414-1.2731934-4.9018555-1.2094727-1.8461914-2.8647461-2.7373047-5.0927734-2.7373047-1.71875,0-3.1193848.5092773-4.2651367,1.5913086-1.2097168,1.0825195-1.9099121,2.5463867-2.1008301,4.3291016,1.3366699.3818359,1.9733887,1.2094727,1.9733887,2.6098633,0,1.8461914-.8911133,2.7373047-2.6738281,2.7373047-1.9733887,0-2.9282227-1.2094727-2.9282227-3.5009766,0-2.4194336.8911133-4.6474609,2.7373047-6.4936523,1.9736328-2.0371094,4.4562988-2.9916992,7.4482422-2.9916992,2.6101074,0,4.8381348.6367188,6.6206055,1.9731445,2.3554688,1.7827148,3.5012207,4.265625,3.5012207,7.4482422,0,2.8012695-1.0185547,5.6660156-3.1193848,8.7216797-.954834,1.4003906-2.482666,3.3740234-4.7106934,5.9204102-3.8833008,4.5195312-7.3845215,8.9760742-10.4401855,13.6230469h12.6044922c2.1008301,0,3.4377441-.8911133,4.1379395-2.6738281.3820801-1.0820312.7004395-2.6738281.8913574-4.7109375h1.3369141v10.5678711h-21.6445312Z"/>
      </g>
      <g>
        <path class="cls-1" d="m578.2938793,46.6840534c0-2.809082,0-3.3129883-.0358887-3.8891602-.0358887-.6123047-.1799316-.9003906-.7741699-1.0263672-.144043-.0361328-.4501953-.0541992-.5222168-.0541992-.1621094,0-.2341309-.0356445-.2341309-.1079102,0-.1079102.0900879-.144043.2880859-.144043.8103027,0,1.9445801.0541992,2.034668.0541992.4321289,0,1.1342773-.0541992,1.9626465-.0541992,2.9528809,0,3.6010742,1.8007812,3.6010742,2.7006836,0,1.4765625-.8464355,2.3588867-1.692627,3.2412109,1.3325195.4140625,3.1149902,1.6923828,3.1149902,3.7988281,0,1.9267578-1.5124512,3.925293-4.5913086,3.925293-.197998,0-.7741699-.0356445-1.2963867-.0537109-.5222168-.0361328-1.0263672-.0541992-1.0983887-.0541992-.5761719,0-1.1342773.0541992-1.7646484.0541992-.197998,0-.2880859-.0361328-.2880859-.1264648,0-.0537109.0361328-.1259766.2702637-.1259766.144043,0,.2700195-.0175781.4321289-.0537109.3601074-.0722656.4321289-.4863281.5041504-1.0083008.0898438-.7563477.0898438-2.1787109.0898438-3.9072266v-3.1689453Zm1.4404297.3959961c0,.1259766.0361328.1621094.1262207.1982422.1079102.0180664.4321289.0717773,1.0983887.0717773,1.0083008,0,1.2602539-.0356445,1.6384277-.4682617.3781738-.4316406.6481934-1.0800781.6481934-1.8183594,0-1.4941406-.6662598-3.0966797-2.4306641-3.0966797-.1982422,0-.5761719.0175781-.8642578.0898438-.1621094.0361328-.2163086.0898438-.2163086.1982422v4.8251953Zm0,1.9086914c0,1.3862305,0,3.6191406.0180664,3.8891602.0541992.8823242.0541992,1.1342773.6123047,1.4042969.486084.234375,1.2602539.2700195,1.5844727.2700195.972168,0,2.5385742-.5219727,2.5385742-2.5566406,0-1.0805664-.3598633-2.6469727-1.7463379-3.6010742-.6123047-.4140625-1.0622559-.4682617-1.4943848-.5219727-.2341309-.0361328-1.1345215-.0361328-1.404541-.0361328-.0720215,0-.1081543.0361328-.1081543.1259766v1.0263672Z"/>
        <path class="cls-1" d="m593.88177,50.6811237c-.0898438,0-.144043.0541992-.1799316.144043l-.7922363,2.2509766c-.1801758.5039062-.3061523.9902344-.3061523,1.2783203,0,.3237305.197998.4677734.5942383.4677734h.1259766c.1621094,0,.2160645.0541992.2160645.1259766,0,.090332-.144043.1264648-.2700195.1264648-.3962402,0-1.2243652-.0541992-1.4226074-.0541992-.1799316,0-.972168.0541992-1.7285156.0541992-.197998,0-.2880859-.0361328-.2880859-.1264648,0-.0717773.0722656-.1259766.2163086-.1259766.0898438,0,.2519531,0,.3598633-.0175781.7744141-.0722656,1.0805664-.6665039,1.3864746-1.4228516l3.6010742-9.4887695c.197998-.5219727.2521973-.6118164.3781738-.6118164.0900879,0,.1621094.0717773.3601074.5761719.2521973.59375,2.7009277,6.8779297,3.6550293,9.128418.5942383,1.4223633,1.1164551,1.6567383,1.3684082,1.746582.2341309.0898438.486084.0898438.6123047.0898438.1259766,0,.2160645.0361328.2160645.1259766,0,.090332-.0720215.1264648-.2700195.1264648-.1801758,0-1.5305176,0-2.7368164-.0361328-.3422852-.0180664-.4501953-.0361328-.4501953-.1259766,0-.0541992.0539551-.1079102.1259766-.1259766.0720215-.0361328.1801758-.1264648.0720215-.3964844l-1.4223633-3.6186523c-.0361328-.0541992-.0720215-.090332-.144043-.090332h-3.2770996Zm3.0610352-.6303711c.0720215,0,.0720215-.0537109.0539551-.1079102l-1.4223633-3.9790039c-.0900879-.2519531-.1081543-.2519531-.197998,0l-1.3505859,3.9790039c-.0358887.0722656,0,.1079102.0361328.1079102h2.8808594Z"/>
        <path class="cls-1" d="m610.5687817,50.6269245c0,1.3867188.0178223,2.6650391.0898438,3.3310547.0541992.4321289.0900879.6845703.5402832.7924805.2160645.0541992.5581055.0717773.7021484.0717773s.2160645.0541992.2160645.1083984c0,.0898438-.0539551.144043-.2341309.144043-.9182129,0-1.9804688-.0541992-2.0524902-.0541992s-1.1342773.0541992-1.6025391.0541992c-.197998,0-.2700195-.0361328-.2700195-.1264648,0-.0537109.0539551-.1259766.197998-.1259766s.2521973,0,.3962402-.0175781c.342041-.0541992.3959961-.2705078.4680176-.8823242.0720215-.6484375.0720215-1.9448242.0720215-3.2954102v-6.4277344c-.5942383,0-1.5483398,0-2.2685547.0180664-1.1523438.0180664-1.404541.1982422-1.6567383.5761719-.1618652.2519531-.2338867.4682617-.2700195.5581055-.0539551.1259766-.0898438.144043-.1621094.144043-.0717773,0-.0898438-.0717773-.0898438-.1621094-.0180664-.1079102.2519531-1.2963867.3601074-1.7822266.0539551-.2163086.1079102-.2880859.1618652-.2880859.1262207,0,.4682617.1616211.7924805.1977539.630127.0722656,1.1342773.090332,1.1523438.090332h5.9057617c.5039062,0,1.0441895-.0361328,1.2963867-.090332.2338867-.0537109.2880859-.0717773.342041-.0717773.0720215,0,.1079102.0898438.1079102.1621094,0,.5039062-.0358887,1.6923828-.0358887,1.8364258,0,.1621094-.0720215.2158203-.1259766.2158203-.0900879,0-.1262207-.0717773-.1262207-.2158203,0-.0541992,0-.0722656-.0178223-.2519531-.0722656-.7202148-.3061523-.9003906-2.1247559-.918457-.6843262,0-1.2424316-.0180664-1.7644043-.0180664v6.4277344Z"/>
        <path class="cls-1" d="m629.0560864,48.322237c.0539551,0,.1079102,0,.1079102-.0898438v-.3242188c0-2.3764648,0-2.7905273-.0358887-3.2768555-.0361328-.4858398-.1081543-.7382812-.7023926-.8461914-.1259766-.0180664-.3059082-.0361328-.4499512-.0361328-.1262207,0-.2160645-.0537109-.2160645-.1259766,0-.1079102.0898438-.1259766.2519531-.1259766.7563477,0,1.8186035.0541992,1.890625.0541992s1.0803223-.0541992,1.6206055-.0541992c.1799316,0,.2880859.0180664.2880859.1259766,0,.0541992-.0541992.1259766-.1982422.1259766-.1079102,0-.2519531.0180664-.3601074.0361328-.486084.0722656-.5581055.3603516-.5939941.8642578-.0180664.4863281-.0180664.9003906-.0180664,3.2768555v2.7006836c0,1.4765625,0,2.6469727.0720215,3.2954102.0539551.4321289.144043.7919922.6120605.8461914.2341309.0361328.4682617.0537109.6303711.0537109.144043,0,.2338867.0541992.2338867.1259766,0,.090332-.0898438.1264648-.2700195.1264648-.9003906,0-1.9445801-.0541992-2.034668-.0541992-.0720215,0-1.1162109.0541992-1.6025391.0541992-.1799316,0-.2700195-.0361328-.2700195-.144043,0-.0541992.0541992-.1083984.1982422-.1083984s.2700195,0,.4140625-.0356445c.3061523-.0541992.3959961-.4501953.4501953-.8642578.0898438-.6484375.0898438-1.7827148.0898438-3.2412109v-1.6025391c0-.0717773-.0539551-.1079102-.1079102-.1079102h-6.5361328c-.0539551,0-.0898438.0180664-.0898438.1079102v1.6025391c0,1.4584961,0,2.6289062.0898438,3.2768555.0541992.3964844.144043.7563477.6123047.8105469.2341309.0361328.5041504.0537109.6481934.0537109.1259766,0,.2160645.0541992.2160645.1259766,0,.0722656-.0720215.1264648-.2341309.1264648-.9182129,0-1.9804688-.0541992-2.0705566-.0541992-.0539551,0-1.1523438.0541992-1.6206055.0541992-.1799316,0-.2880859-.0361328-.2880859-.1264648,0-.0537109.0361328-.1259766.1982422-.1259766.144043,0,.2880859-.0175781.4321289-.0537109.3239746-.0722656.3959961-.4140625.4501953-.8105469.1079102-.6479492.0898438-1.8544922.0898438-3.3310547v-2.6645508c0-2.3764648,0-2.8447266-.0358887-3.3310547-.0361328-.4682617-.1621094-.8100586-.6843262-.8642578-.1621094-.0180664-.342041-.0361328-.486084-.0361328-.1259766,0-.197998-.0537109-.197998-.1079102,0-.1079102.0898438-.1259766.2700195-.1259766.7741699,0,1.6384277.0541992,1.8725586.0541992.0720215,0,1.1162109-.0541992,1.6206055-.0541992.1799316,0,.2700195.0361328.2700195.1259766,0,.0722656-.0720215.1079102-.1801758.1079102-.1079102,0-.1621094,0-.3601074.0361328-.4499512.0722656-.5581055.378418-.5939941.8823242-.0180664.4863281-.0180664.8823242-.0180664,3.2587891v.3242188c0,.0898438.0539551.0898438.1079102.0898438h6.5180664Z"/>
        <path class="cls-1" d="m639.0795239,47.9262409c0-2.3764648,0-2.8085938-.0361328-3.2949219-.0358887-.4858398-.1618652-.7563477-.7202148-.8642578-.1079102-.0180664-.2880859-.0361328-.4321289-.0361328-.1259766,0-.197998-.0356445-.197998-.1079102,0-.0717773.0539551-.1259766.2160645-.1259766.7744141,0,1.8725586.0541992,1.9086914.0541992.1621094,0,1.3862305-.0541992,1.890625-.0541992,1.0083008,0,2.1064453.0898438,2.9526367.684082.3422852.2524414,1.0805664.972168,1.0805664,2.1967773,0,.9902344-.4863281,2.2504883-1.9086914,3.402832,1.3144531,1.6206055,2.3947754,2.953125,3.3129883,3.9072266.8642578.8823242,1.4042969,1.0263672,1.9086914,1.0986328.1259766.0180664.5039062.0356445.5581055.0356445.144043,0,.197998.0541992.197998.1259766,0,.090332-.0720215.1264648-.3239746.1264648h-1.260498c-.8461914,0-1.2424316-.0541992-1.6384277-.2163086-.7563477-.3242188-1.2963867-1.1342773-2.232666-2.3408203-.7023926-.8642578-1.4226074-1.8364258-1.7285156-2.2143555-.0720215-.0722656-.1081543-.1079102-.2160645-.1079102l-1.8544922-.0180664c-.0722656,0-.0900879.0180664-.0900879.0898438v.2519531c0,1.4404297,0,2.7548828.0900879,3.4033203.0539551.4321289.1079102.7919922.7021484.8642578.1799316.0180664.3779297.0356445.5219727.0356445.1621094,0,.2341309.0541992.2341309.1083984,0,.0898438-.0720215.144043-.2519531.144043-.9362793,0-1.9445801-.0541992-2.0166016-.0541992-.2880859,0-1.0803223.0541992-1.5666504.0541992-.1799316,0-.2519531-.0361328-.2519531-.144043,0-.0541992.1079102-.1083984.2160645-.1083984.1259766,0,.2521973,0,.3962402-.0356445.3059082-.0541992.4140625-.2524414.4680176-.6845703.0900879-.6479492.0720215-2.1245117.0720215-3.4750977v-2.7006836Zm1.3864746,1.2783203c0,.090332.0178223.1801758.0900879.2163086.2338867.1259766.9541016.2338867,1.6022949.2338867.3781738,0,.8283691-.0180664,1.2062988-.2700195.5402832-.3417969.9003906-1.1342773.9003906-2.2866211,0-1.9624023-1.0444336-3.0429688-2.6467285-3.0429688-.4501953,0-.8283691.0361328-1.0444336.090332-.0539551.0175781-.1079102.0717773-.1079102.1616211v4.8974609Z"/>
        <path class="cls-1" d="m652.1466625,49.2587604c0-2.3945312,1.8547363-5.9775391,6.302002-5.9775391,3.5649414,0,6.2836914,2.1245117,6.2836914,5.7436523,0,3.4389648-2.5385742,6.2475586-6.3737793,6.2475586-4.411377,0-6.2119141-3.2768555-6.2119141-6.0136719Zm10.8933105.2158203c0-3.6186523-2.232666-5.6352539-4.6994629-5.6352539-2.5026855,0-4.5192871,1.5483398-4.5192871,4.9511719,0,3.5292969,1.9626465,5.8696289,4.9875488,5.8696289,1.2062988,0,4.2312012-.6118164,4.2312012-5.1855469Z"/>
        <path class="cls-1" d="m669.6066235,49.2587604c0-2.3945312,1.8547363-5.9775391,6.302002-5.9775391,3.5649414,0,6.2836914,2.1245117,6.2836914,5.7436523,0,3.4389648-2.5385742,6.2475586-6.3737793,6.2475586-4.411377,0-6.2119141-3.2768555-6.2119141-6.0136719Zm10.8933105.2158203c0-3.6186523-2.232666-5.6352539-4.6994629-5.6352539-2.5026855,0-4.5192871,1.5483398-4.5192871,4.9511719,0,3.5292969,1.9626465,5.8696289,4.9875488,5.8696289,1.2062988,0,4.2312012-.6118164,4.2312012-5.1855469Z"/>
        <path class="cls-1" d="m700.7506665,53.0937213c.0539551.4321289.1621094,1.4404297.8642578,1.6025391.3061523.0722656.6662598.1083984.9182129.1259766.0722656,0,.2341309.0180664.2341309.1083984,0,.0898438-.0720215.144043-.2700195.144043-.3239746,0-2.2687988-.0722656-2.8449707-.1083984-.3959961-.0356445-.5400391-.0717773-.5400391-.1616211,0-.0541992.0720215-.1264648.1621094-.1621094.0898438-.0361328.144043-.2524414.1079102-.5043945l-.7922363-7.7060547-3.8171387,7.7421875c-.342041.7021484-.3959961.8642578-.5581055.8642578-.1079102,0-.197998-.1621094-.5400391-.7744141-.2880859-.5219727-1.7285156-3.402832-1.8366699-3.5649414-.1081543-.2158203-1.8725586-3.7089844-2.0166016-4.0874023l-.6662598,6.9321289c-.0180664.2519531-.0180664.4140625-.0180664.6845703,0,.1977539.0900879.4677734.4501953.5400391.1982422.0361328.3242188.0361328.5041504.0537109.144043.0180664.1801758.0722656.1801758.1083984,0,.1259766-.1081543.144043-.3061523.144043-.5761719,0-1.3503418-.0541992-1.4943848-.0541992-.1801758,0-.9362793.0541992-1.3864746.0541992-.1621094,0-.2700195-.0180664-.2700195-.144043,0-.0361328.0720215-.1083984.2341309-.1083984.1259766,0,.144043,0,.342041-.0175781.4321289-.0361328.5939941-.4682617.684082-1.1884766l1.2062988-9.8852539c.0361328-.3061523.1081543-.449707.1982422-.449707.0898438,0,.144043.0537109.2700195.2880859l4.8254395,9.3447266,4.5913086-9.3271484c.0900879-.1977539.1621094-.3056641.2702637-.3056641.1079102,0,.1618652.1616211.1799316.449707l1.1342773,9.362793Z"/>
      </g>
    </g>
  </g>
</svg>