<?xml version="1.0" encoding="UTF-8"?>
<svg id="_レイヤー_2" data-name="レイヤー 2" xmlns="http://www.w3.org/2000/svg" xmlns:xlink="http://www.w3.org/1999/xlink" viewBox="0 0 1279.0026592 163">
  <defs>
    <style>
      .cls-1 {
        fill: #fff;
      }

      .cls-2 {
        clip-path: url(#clippath);
      }

      .cls-3 {
        fill: none;
      }
    </style>
    <clipPath id="clippath">
      <rect class="cls-3" width="1279.0026592" height="163"/>
    </clipPath>
  </defs>
  <g id="_レイヤー_1-2" data-name="レイヤー 1">
    <g class="cls-2">
      <g>
        <path class="cls-1" d="m378.3393555,153.2177734c.1918945-.2402344.3359375-.4794922.4638672-.4794922.1923828,0,1.3125.9433594,1.3125,1.1835938-.0478516.1601562-.1918945.2402344-.3999023.2402344h-6.0024414c1.1523438,2.0332031,3.4091797,2.8808594,6.4985352,3.2177734v.1757812c-.4160156.0957031-.7202148.4326172-.8325195.9599609-3.1049805-.6240234-4.9936523-1.7919922-6.0180664-4.3535156h-.2563477c-.5283203,2.0009766-1.96875,3.4257812-7.0107422,4.4179688l-.1279297-.3046875c4.0493164-1.0878906,5.4741211-2.3359375,6.0024414-4.1132812h-3.2016602c-.8320312.015625-1.6005859.0957031-2.4008789.2246094l-.3999023-.8164062c.7041016.0800781,1.4082031.1113281,2.1289062.1279297h4.0014648c.1118164-.6083984.144043-1.4091797.0800781-1.953125,1.7285156.1601562,1.7285156.3203125,1.456543.4960938l-.2563477.1767578c-.0478516.4472656-.0957031.8798828-.159668,1.2802734h4.7856445l.3364258-.4804688Zm-.2241211-2.5449219c.1757812-.2402344.3198242-.4804688.4482422-.4804688.1918945,0,1.2802734.9130859,1.2802734,1.1533203-.0478516.1757812-.1918945.2558594-.4160156.2558594h-10.3081055c-.8325195.015625-1.6005859.0957031-2.4013672.2236328l-.4321289-.8164062c.7045898.0800781,1.4086914.1123047,2.1289062.1279297h4.081543v-1.9042969h-1.9042969c-.8325195.015625-1.6010742.0957031-2.4013672.2236328l-.4160156-.8320312c.7041016.0800781,1.4086914.1123047,2.1289062.1279297h2.5927734v-1.7929688h-2.6728516c-.8325195.0166016-1.6005859.0966797-2.4008789.2246094l-.4321289-.8320312c.7041016.0800781,1.4082031.1113281,2.1289062.1279297h2.0327148c-.1123047,0-.2402344-.0478516-.3842773-.1601562-.1279297-.7529297-.7363281-1.6806641-1.2646484-2.2255859l.1762695-.1113281c2.480957.7675781,2.2407227,2.4648438,1.5205078,2.4970703h3.0092773c.4804688-.8164062.9125977-1.9697266,1.0722656-2.7529297,1.6650391.6240234,1.6650391.7832031,1.3608398.8798828l-.2880859.0800781c-.4003906.5439453-1.0566406,1.2158203-1.6806641,1.7929688h2.6088867l.3203125-.4648438c.1757812-.2236328.3198242-.4638672.4482422-.4638672.1918945,0,1.2963867.9121094,1.2963867,1.1523438-.0322266.1757812-.1918945.2558594-.4160156.2558594h-5.3945312v1.7929688h3.0732422l.3203125-.4316406c.1762695-.2246094.3041992-.4482422.4321289-.4482422.1918945,0,1.2324219.8642578,1.2324219,1.1044922-.0478516.1757812-.1918945.2558594-.3999023.2558594h-4.6582031v1.9042969h4.2578125l.3203125-.4638672Z"/>
        <path class="cls-1" d="m387.9365234,156.2753906c.1601562-.1923828.2719727-.4003906.4003906-.4003906.1918945,0,1.0883789.7841797,1.0883789,1.0244141-.0483398.1757812-.1762695.2558594-.4003906.2558594h-4.5776367v.7841797c0,.0800781-.3041992.3681641-.800293.3681641-.144043,0-.3203125-.1591797-.3203125-.3193359.0961914-1.3769531.144043-2.0810547.1762695-4.1621094v-2.4970703c-.4804688.5126953-1.0083008.9921875-1.5527344,1.4091797l-.1762695-.1923828c1.1044922-1.1367188,2.0332031-2.5927734,2.6733398-4.1142578h-.7685547c-.4799805.0166016-.8959961.0966797-1.3442383.2246094l-.4003906-.8320312c.6083984.0800781,1.2167969.1113281,1.8569336.1269531h.8642578c.2241211-.5917969.4003906-1.2001953.5444336-1.7919922h-1.168457c-.4003906.5917969-.8803711,1.1044922-1.3769531,1.4726562l-.2397461-.1601562c.1279297-.1601562.2397461-.3203125.3520508-.4960938.5600586-.8964844.9604492-2.3212891,1.0083008-3.2177734,1.6484375.5449219,1.6484375.7050781,1.3603516.8164062l-.2880859.1123047c-.159668.3525391-.3198242.6884766-.512207,1.0087891h2.8334961l.2880859-.4326172c.1601562-.2236328.2880859-.4482422.4160156-.4482422.1918945,0,1.2163086.8642578,1.2163086,1.1044922-.0478516.1601562-.1918945.2402344-.4160156.2402344h-2.2729492c-.1918945.6083984-.3999023,1.2158203-.6723633,1.7919922h1.8730469l.2880859-.4316406c.1601562-.2080078.2880859-.4316406.4160156-.4316406.1918945,0,1.168457.8476562,1.168457,1.0878906-.0478516.1757812-.1918945.2558594-.3999023.2558594h-3.5854492c-.3364258.6884766-.7524414,1.3447266-1.2167969,1.953125l.3842773.1601562h1.1044922c.144043-.5917969.2719727-1.3447266.2880859-1.8886719,1.5205078.4316406,1.5205078.5917969,1.2324219.7041016l-.2719727.1123047c-.2241211.3359375-.512207.7197266-.8325195,1.0722656h1.3125l.2563477-.3525391c.144043-.1757812.2558594-.3681641.3842773-.3681641.1918945,0,1.0083008.6884766,1.0083008.9287109-.0322266.1757812-.1762695.2558594-.3842773.2558594h-1.9848633v1.5527344h.8164062l.2241211-.3525391c.1279297-.1757812.2241211-.3515625.3520508-.3515625.1918945,0,.9125977.65625.9125977.8964844-.0483398.1757812-.1923828.2558594-.3842773.2558594h-1.9208984v1.5683594h.8164062l.2241211-.3359375c.1279297-.1757812.2241211-.3515625.3520508-.3515625.1918945,0,.9125977.65625.9125977.8964844-.0483398.1757812-.1923828.2558594-.3842773.2558594h-1.9208984v1.6328125h.8964844l.2719727-.4003906Zm-2.0805664-5.2666016h-1.4086914v1.5527344h1.4086914v-1.5527344Zm0,3.5693359v-1.5683594h-1.4086914v1.5683594h1.4086914Zm0,2.0976562v-1.6328125h-1.4086914v1.6328125h1.4086914Zm8.4672852-11.9892578c.1279297-.1923828.2241211-.3837891.3520508-.3837891.1918945,0,1.0883789.7998047,1.0883789,1.0400391-.1118164.1123047-.3041992.2236328-.6240234.2724609v4.0976562c.0317383,1.9199219.0639648,2.5605469.1279297,3.7607422-.1279297.1601562-.4960938.4169922-.9604492.4169922h-.144043v-.5927734h-.512207v3.8251953c0,.1767578.0322266.2246094.3041992.2246094h1.2006836c.1118164-.015625.159668-.0478516.2080078-.1757812.0800781-.2402344.2397461-1.1367188.3999023-1.9853516h.1923828l.0478516,2.0166016c.2719727.1289062.3041992.2558594.3041992.4648438,0,.4003906-.3364258.6396484-1.7446289.6396484h-.8486328c-.8642578,0-.9921875-.2714844-.9921875-.9277344v-4.0820312h-.7685547c-.3359375,2.8974609-1.5366211,4.4013672-4.5136719,5.2978516l-.0961914-.2558594c2.5292969-1.1367188,3.3457031-2.5771484,3.5693359-5.0419922h-.1757812v.5761719c0,.0800781-.3203125.3037109-.8164062.3037109-.1601562,0-.3203125-.1591797-.3203125-.3193359.0800781-1.3125.128418-1.96875.1601562-3.9541016v-2.1445312c0-1.0888672-.0639648-2.4013672-.2080078-3.28125l1.3603516.5761719h3.1694336l.2402344-.3681641Zm-.1601562.8320312h-3.425293v2.0810547h3.425293v-2.0810547Zm0,4.6738281v-2.1123047h-3.425293v2.1123047h3.425293Zm-3.425293.4804688v2.1611328h3.425293v-2.1611328h-3.425293Z"/>
        <path class="cls-1" d="m399.4067383,156.2910156c-.4160156-.5117188-.9121094-.9921875-1.1206055-1.1367188-.1757812-.1279297-.2880859-.1914062-.2719727-.2714844.0322266-.1123047.1918945-.0644531.4003906,0,.1918945.0478516,2.7368164.8964844,3.3291016,2.3369141.1762695.3994141.0322266,1.0400391-.5439453,1.1679688-.2402344.0478516-.5283203-.0957031-.8007812-.5439453-.0639648-.1279297-.6401367-1.1201172-.9921875-1.5527344Z"/>
        <path class="cls-1" d="m417.7275391,147.2148437c.1601562-.2236328.2724609-.4638672.4003906-.4638672.1918945,0,1.0561523.8964844,1.0561523,1.1367188-.0317383.1757812-.1757812.2558594-.3837891.2558594h-1.7607422v1.3769531c2.6889648,1.4248047,1.8886719,3.3291016,1.0244141,2.5927734-.1123047-.6884766-.5605469-1.5839844-1.0244141-2.2246094v4.4492188c.0317383,1.9208984.0639648,2.5615234.1279297,3.7617188-.1279297.2246094-.512207.4482422-.8803711.4482422-.1918945,0-.3681641-.1601562-.3681641-.3193359.0961914-1.3769531.144043-2.0820312.1762695-4.1621094v-2.9130859c-.5283203,1.3925781-1.2167969,2.6572266-2.112793,3.7773438l-.2241211-.2080078c1.0561523-1.8574219,1.7285156-4.2421875,2.112793-6.5791016h-.5605469c-.3520508.0166016-.6401367.0966797-.9604492.2246094l-.3999023-.8330078c.4799805.0800781.9604492.1123047,1.4726562.1289062h.6723633v-.5283203c0-1.0888672-.0639648-2.4013672-.2080078-3.2822266,1.7124023.4970703,1.7124023.65625,1.4243164.8486328l-.2719727.1767578v2.7851562h.4160156l.2719727-.4492188Zm8.9316406,4.6425781c.1601562-.2246094.2880859-.4482422.4165039-.4482422.1918945,0,1.1523438.8642578,1.1523438,1.1044922-.0478516.1601562-.1762695.2402344-.3842773.2402344h-3.5693359c.1757812.7519531.4321289,1.4238281.7363281,2.0332031.4321289-.5449219.8320312-1.3291016,1.0083008-1.9052734,1.3925781.7197266,1.3925781.8798828,1.1044922.9287109l-.2880859.0478516c-.3681641.65625-.8164062,1.2480469-1.3286133,1.7763672.3681641.5117188.7841797.9443359,1.2807617,1.2802734.2558594.2080078.3520508.2080078.4960938-.1123047.1601562-.3837891.4321289-1.1523438.5922852-1.8085938l.2080078.0322266-.2402344,2.3857422c.4160156.5439453.4643555.7675781.3520508.9433594-.3198242.4804688-1.1845703.0800781-1.8408203-.4472656-.6079102-.4326172-1.1201172-.9609375-1.5522461-1.6015625-1.2329102,1.0253906-2.6733398,1.7294922-4.1616211,2.1132812l-.1123047-.2558594c1.4086914-.5605469,2.7050781-1.4082031,3.8095703-2.59375-.4160156-.8164062-.7685547-1.7597656-1.0244141-2.8164062h-2.3046875c-.0161133.3837891-.0644531.7675781-.128418,1.1679688,2.6889648.6728516,2.0009766,2.6416016.9926758,2.0009766-.128418-.5126953-.5922852-1.1201172-1.0566406-1.5849609-.3203125,1.5214844-1.0244141,3.0253906-2.769043,4.2099609l-.2241211-.2402344c1.824707-1.7119141,2.0966797-3.7773438,2.1611328-5.5537109h-.3681641c-.1923828.015625-.3681641.0957031-.5444336.2236328l-.4160156-.7998047c.7041016.0800781,1.4082031.1113281,2.1289062.1279297h2.4326172c-.3681641-1.6650391-.527832-3.5693359-.5922852-5.6503906-.1118164.0957031-.2558594.1601562-.4960938.1435547-.5600586,1.1054688-1.2802734,2.3535156-1.9526367,3.2978516.4799805-.0322266,1.0244141-.0966797,1.5527344-.1435547-.144043-.3847656-.3525391-.7529297-.5444336-1.0410156l.1762695-.1123047c2.3530273,1.2802734,1.4882812,3.0097656.6723633,2.2890625,0-.2558594-.0800781-.5439453-.1762695-.8164062-.5600586.1923828-1.3125.4482422-2.2729492.7529297-.0800781.2080078-.2080078.2871094-.3520508.3203125l-.5761719-1.1367188c.2719727,0,.6401367-.0322266,1.0722656-.0644531.144043-.3203125.3041992-.671875.4643555-1.0566406.3999023-.9765625.8642578-2.3691406,1.0244141-3.2490234l1.3925781.65625c-.0161133-.8164062-.0322266-1.6484375-.0322266-2.4970703,1.5366211.1279297,1.5366211.2880859,1.2646484.4804688l-.2724609.1757812c-.015625,2.7695312.0800781,5.4423828.5922852,7.6513672h2.2089844l.2880859-.4482422Zm-6.4663086-7.9707031c1.4882812.5595703,1.4882812.7197266,1.2163086.8320312l-.2719727.0957031c-.3681641.6240234-.7685547,1.3125-1.168457,1.8730469,1.1523438.8320312.5600586,1.8886719-.128418,1.4082031-.144043-.5917969-.6879883-1.3603516-1.168457-1.7929688l.1762695-.1279297c.2880859.0800781.5283203.1923828.7524414.2880859.2558594-.8164062.5283203-1.8408203.5922852-2.5761719Zm5.0898438-.0166016c1.4887695.5761719,1.4887695.7363281,1.2006836.8320312l-.2724609.0966797c-.3999023.6396484-.8803711,1.3603516-1.328125,1.8886719,1.184082.8476562.5761719,1.9199219-.0961914,1.4082031-.1123047-.5917969-.5922852-1.3447266-1.0244141-1.7763672l.1918945-.1123047c.2402344.0957031.4482422.1923828.6401367.2880859.3041992-.7998047.5922852-1.8886719.6884766-2.625Zm1.6806641,5.5703125c-.1918945-.4326172-.4321289-.8486328-.6723633-1.1523438l.2080078-.0966797c2.465332,1.3925781,1.5849609,3.265625.8007812,2.4980469-.0161133-.2724609-.0961914-.5927734-.2084961-.8964844-.5922852.1757812-1.3603516.4160156-2.3525391.7041016-.0644531.2080078-.2084961.2880859-.3681641.3193359l-.4165039-1.1357422c.1923828-.0166016.4643555-.0322266.800293-.0478516.144043-.2568359.2880859-.5449219.4321289-.8486328.4804688-.9443359.9765625-2.3046875,1.1845703-3.1689453,1.440918.6396484,1.440918.7998047,1.1367188.8964844l-.2880859.0800781c-.5766602,1.0234375-1.296875,2.1279297-1.96875,3.0087891.512207-.0478516,1.1040039-.0966797,1.7124023-.1601562Zm-2.0327148,1.2490234c2.1928711.1757812,1.6005859,1.7919922.7680664,1.2802734-.144043-.4169922-.527832-.8808594-.9121094-1.1367188l.144043-.1435547Z"/>
        <path class="cls-1" d="m435.5205078,147.0078125c-.3681641-.5449219-.8164062-1.0722656-1.2006836-1.4570312l.1923828-.1279297c3.5214844,1.4248047,2.769043,3.7451172,1.6962891,2.9775391-.0957031-.3203125-.2719727-.6884766-.4799805-1.0566406-1.2163086.2558594-2.8330078.5917969-4.9458008.9765625-.0644531.2080078-.2241211.3037109-.3842773.3359375l-.4804688-1.296875c.4321289,0,1.0888672-.0322266,1.8891602-.0957031.0317383-.0957031.0639648-.1923828.0800781-.2880859.3198242-1.0087891.5917969-2.3369141.6079102-3.2177734,1.8569336.4326172,1.8569336.5927734,1.5849609.7207031l-.2724609.1279297c-.3681641.7519531-.9282227,1.7607422-1.5043945,2.625.9604492-.0478516,2.0649414-.1435547,3.2172852-.2236328Zm-3.5214844,8.8193359c.0322266,1.1679688.0478516,1.5683594.0961914,2.2568359-.0961914.1914062-.4804688.4482422-.8964844.4482422-.144043,0-.3041992-.1601562-.3041992-.3203125.0800781-1.296875.1279297-1.9365234.1601562-3.8896484v-2.1132812c0-1.0878906-.0639648-2.4003906-.2080078-3.28125l1.2324219.5927734h2.9291992l.2080078-.3203125c.1279297-.1601562.2080078-.3359375.3359375-.3359375.1923828,0,1.2485352.7841797,1.2485352,1.0244141-.0957031.1113281-.3520508.2558594-.65625.3037109v6.8671875c0,.8486328-.1279297,1.3603516-1.3925781,1.4882812-.015625-.3193359-.0957031-.6083984-.2397461-.7685547-.1923828-.1757812-.4643555-.3037109-.9765625-.3837891v-.2558594s1.0722656.0957031,1.3447266.0957031c.2241211,0,.2880859-.0800781.2880859-.3037109v-2.2890625h-3.1694336v1.1845703Zm3.1694336-5.8271484h-3.1694336v1.8251953h3.1694336v-1.8251953Zm-3.1694336,4.1777344h3.1694336v-1.8886719h-3.1694336v1.8886719Zm8.003418-.1757812c.9121094-.5439453,1.8725586-1.3603516,2.3525391-2.1123047,1.4248047,1.0078125,1.4248047,1.1679688,1.0566406,1.1845703h-.3681641c-.9604492.6240234-2.5771484,1.3925781-4.1137695,1.8398438v2.0654297c0,.2558594.0639648.3359375.6401367.3359375h1.5209961c.65625,0,1.1845703,0,1.4082031-.015625.1601562-.0166016.2402344-.0644531.2885742-.1923828.1279297-.2246094.2880859-.9921875.4638672-1.8242188h.1762695l.0639648,1.8720703c.3359375.1445312.4321289.2568359.4321289.4638672,0,.4804688-.512207.65625-2.8813477.65625h-1.6484375c-1.2163086,0-1.456543-.2558594-1.456543-1.0878906v-2.9453125c0-.9765625-.0639648-2.2089844-.1923828-3.0087891,1.6650391.4960938,1.6650391.65625,1.4248047.8154297l-.2402344.1601562v2.3691406c.3520508-.1757812.7202148-.3681641,1.0727539-.5761719Zm-.144043-7.2509766c.9282227-.5117188,1.9365234-1.2802734,2.480957-1.984375,1.2963867,1.0087891,1.2963867,1.1689453.9282227,1.1689453h-.3681641c-.9282227.5117188-2.5131836,1.2158203-3.9697266,1.5996094v1.953125c0,.2558594.0483398.3359375.6245117.3359375h1.456543c.6401367,0,1.1845703,0,1.3603516-.03125.1762695-.0166016.2563477-.0488281.3041992-.1601562.1123047-.2089844.2880859-.9287109.4321289-1.6816406h.2080078l.0483398,1.7294922c.3359375.1123047.4321289.2236328.4321289.4160156,0,.4960938-.4960938.65625-2.8334961.65625h-1.6005859c-1.2001953,0-1.4243164-.2402344-1.4243164-1.0400391v-2.8339844c0-.9599609-.0483398-2.1123047-.1762695-2.8964844,1.6166992.4960938,1.6166992.65625,1.3925781.8164062l-.2241211.1601562v2.2558594c.3041992-.1435547.6245117-.2871094.9287109-.4638672Z"/>
        <path class="cls-1" d="m447.4389648,147.1835937c.3999023,1.6806641.0957031,2.9931641-.2880859,3.5849609-.2563477.4003906-.8007812.5605469-1.0405273.2724609-.1762695-.2724609-.0639648-.640625.1918945-.9287109.4321289-.4960938.8803711-1.7919922.8642578-2.9287109h.2724609Zm.8642578-.0800781c0-1.0566406-.0639648-2.4013672-.2080078-3.28125,1.7446289.5117188,1.7446289.671875,1.456543.8642578l-.2724609.1757812v9.4755859c.0322266,1.9208984.0644531,2.5615234.128418,3.7617188-.128418.2402344-.5444336.4804688-.8964844.4804688-.2080078,0-.3842773-.1601562-.3842773-.3203125.0961914-1.3769531.144043-2.0800781.1762695-4.1621094v-6.9941406Zm1.4404297-.4482422c2.3530273,1.4882812,1.3925781,3.3447266.5761719,2.5292969-.0161133-.7685547-.4160156-1.8251953-.7841797-2.4335938l.2080078-.0957031Zm8.0834961,5.2177734c.1757812-.2402344.3198242-.4804688.4482422-.4804688.1918945,0,1.2324219.9453125,1.2324219,1.1855469-.0322266.1601562-.1762695.2392578-.4003906.2392578h-3.3134766v4.7216797h2.5454102l.3198242-.4794922c.1762695-.2402344.3203125-.4804688.4482422-.4804688.1923828,0,1.2807617.9287109,1.2807617,1.1689453-.0322266.1601562-.1923828.2402344-.3842773.2402344h-6.8989258c-.8320312.015625-1.6005859.0957031-2.4008789.2236328l-.4160156-.7998047c.7041016.0800781,1.4082031.1113281,2.1289062.1269531h2.3847656v-4.7216797h-1.0244141c-.6401367.0166016-1.2646484.0966797-1.8886719.2246094l-.4003906-.8164062c.7045898.0800781,1.4086914.1123047,2.1289062.1279297h1.1845703v-3.8730469h-2.3530273c-.4638672,1.1835938-1.0244141,2.2246094-1.6806641,3.0410156l-.2402344-.1601562c.4165039-.8320312.800293-1.8730469,1.1206055-3.0253906.2719727-1.0244141.512207-2.5771484.4804688-3.4892578,1.6962891.4316406,1.6962891.5917969,1.4243164.7363281l-.2719727.1279297c-.1762695.7841797-.4003906,1.5527344-.6723633,2.2890625h2.1928711v-.7685547c0-1.0888672-.0639648-2.4013672-.2080078-3.28125,1.6806641.4804688,1.6806641.6396484,1.4404297.8164062l-.2402344.1601562v3.0732422h2.1132812l.3359375-.4648438c.1762695-.2402344.3203125-.4794922.4482422-.4794922.1918945,0,1.2485352.9287109,1.2485352,1.1679688-.0483398.1767578-.1762695.2568359-.4003906.2568359h-3.7456055v3.8730469h1.7128906l.3203125-.4804688Z"/>
        <path class="cls-1" d="m463.4067383,156.2910156c-.4160156-.5117188-.9121094-.9921875-1.1206055-1.1367188-.1757812-.1279297-.2880859-.1914062-.2719727-.2714844.0322266-.1123047.1918945-.0644531.4003906,0,.1918945.0478516,2.7368164.8964844,3.3291016,2.3369141.1762695.3994141.0322266,1.0400391-.5439453,1.1679688-.2402344.0478516-.5283203-.0957031-.8007812-.5439453-.0639648-.1279297-.6401367-1.1201172-.9921875-1.5527344Z"/>
        <path class="cls-1" d="m482.015625,154.2744141c-.2080078.4326172-.3999023.8320312-.5761719,1.1845703-.2397461.1279297-.6723633.1113281-1.0722656-.0800781.6240234-1.0722656,1.4887695-2.9775391,2.2250977-4.7695312h-1.7768555c-.8325195.015625-1.6005859.0957031-2.4008789.2236328l-.4321289-.8330078c.7041016.0800781,1.4082031.1123047,2.128418.1289062h2.6894531c.3837891-.9609375.800293-2.2089844.8959961-3.0732422,1.6650391.3681641,1.6650391.5283203,1.3608398.671875l-.3041992.1279297c-.2080078.5605469-.5283203,1.3769531-.8964844,2.2734375h6.0507812l.3520508-.4804688c.1918945-.2402344.3359375-.4960938.4638672-.4960938.1923828,0,1.3286133.9599609,1.3286133,1.2001953-.0161133.1767578-.1918945.2568359-.3999023.2568359h-2.9775391c-.3999023,1.8398438-1.0083008,3.3125-1.9365234,4.4648438,5.105957,1.7285156,4.7216797,3.9375,3.5214844,3.4101562-.800293-.8164062-2.2729492-1.8085938-4.1938477-2.7216797-1.6328125,1.5205078-4.1293945,2.3857422-8.019043,2.7851562l-.0639648-.3037109c3.3452148-.5605469,5.6181641-1.4414062,7.1386719-2.8974609-.9443359-.3837891-1.9848633-.7519531-3.1054688-1.0722656Zm-1.7446289-7.5712891c0,1.0244141-.3837891,1.6972656-.8164062,2.0009766-.3837891.2880859-.9443359.3203125-1.1362305-.0478516-.144043-.3525391.0639648-.7050781.3842773-.8964844.6240234-.3681641,1.168457-1.3447266,1.0722656-2.4169922l.2719727-.0166016c.0961914.3203125.1601562.625.2080078.8964844h4.2900391c0-.7841797-.0483398-1.7763672-.144043-2.4326172,1.7285156.4960938,1.7285156.65625,1.456543.8486328l-.2719727.1757812v1.4082031h4.6738281l.2880859-.3359375c.1601562-.1601562.2880859-.3359375.4160156-.3359375.1923828,0,1.1367188.9443359,1.1367188,1.1845703-.0961914.1123047-.2880859.1435547-.5766602.1601562-.4321289.5595703-1.184082,1.3447266-1.7763672,1.7919922l-.1923828-.1113281c.2402344-.4960938.5444336-1.2646484.7363281-1.8730469h-10.0200195Zm3.3935547,3.90625c-.4804688,1.1201172-1.0244141,2.3203125-1.5048828,3.3769531,1.3608398.2236328,2.5292969.4804688,3.5214844.7675781.8964844-1.0878906,1.4726562-2.4326172,1.809082-4.1445312h-3.8256836Z"/>
        <path class="cls-1" d="m494.078125,151.3613281l-.1279297-.2246094c1.7446289-1.0722656,3.7456055-2.9765625,5.105957-4.8173828.6401367-.8330078,1.1206055-1.7929688,1.2963867-2.6728516l2.0009766.6396484c-.0317383.1923828-.2402344.2568359-.6240234.3037109,1.3925781,2.0810547,3.9536133,3.8740234,6.6586914,5.0908203l-.0322266.2236328c-.4643555.0957031-.8481445.4648438-.9443359.8642578-2.4970703-1.3925781-4.8500977-3.6005859-5.9545898-5.9863281-1.472168,2.3857422-4.5136719,5.1386719-7.3789062,6.5791016Zm10.5161133,1.8242188c.1923828-.2236328.3364258-.4638672.4643555-.4638672.1923828,0,1.2963867.8798828,1.2963867,1.1201172-.0478516.1601562-.1918945.2402344-.4160156.2402344h-4.3857422v3.4414062h4.1616211l.3520508-.4960938c.1923828-.2558594.3525391-.5117188.4804688-.5117188.1918945,0,1.3764648.9765625,1.3764648,1.2158203-.0478516.1767578-.2080078.2402344-.4321289.2402344h-10.3881836c-.8325195.0166016-1.6005859.0966797-2.4008789.2236328l-.4321289-.7998047c.7041016.0800781,1.4082031.1123047,2.128418.1279297h4.1137695v-3.4414062h-1.456543c-.8320312.015625-1.6005859.0957031-2.4008789.2246094l-.4160156-.8007812c.7041016.0800781,1.4082031.1123047,2.1289062.1279297h2.1445312v-3.0410156h-1.2641602c-.8007812.0166016-1.5849609.0966797-2.3691406.2236328l-.3842773-.8164062c.7045898.0800781,1.4086914.1123047,2.1289062.1289062h5.1699219l.3203125-.4326172c.1762695-.2080078.3041992-.4326172.4321289-.4326172.1923828,0,1.2485352.8330078,1.2485352,1.0732422-.0317383.1757812-.2080078.2558594-.3999023.2558594h-3.8417969v3.0410156h2.7050781l.3359375-.4482422Z"/>
        <path class="cls-1" d="m511.4389648,147.1835937c.3999023,1.6806641.0957031,2.9931641-.2880859,3.5849609-.2563477.4003906-.8007812.5605469-1.0405273.2724609-.1762695-.2724609-.0639648-.640625.1918945-.9287109.4321289-.4960938.8803711-1.7919922.8642578-2.9287109h.2724609Zm.8642578-.0800781c0-1.0566406-.0639648-2.4013672-.2080078-3.28125,1.7446289.5117188,1.7446289.671875,1.456543.8642578l-.2724609.1757812v9.4755859c.0322266,1.9208984.0644531,2.5615234.128418,3.7617188-.128418.2402344-.5444336.4804688-.8964844.4804688-.2080078,0-.3842773-.1601562-.3842773-.3203125.0961914-1.3769531.144043-2.0800781.1762695-4.1621094v-6.9941406Zm1.4404297-.4482422c2.3530273,1.4882812,1.3925781,3.3447266.5761719,2.5292969-.0161133-.7685547-.4160156-1.8251953-.7841797-2.4335938l.2080078-.0957031Zm8.0834961,5.2177734c.1757812-.2402344.3198242-.4804688.4482422-.4804688.1918945,0,1.2324219.9453125,1.2324219,1.1855469-.0322266.1601562-.1762695.2392578-.4003906.2392578h-3.3134766v4.7216797h2.5454102l.3198242-.4794922c.1762695-.2402344.3203125-.4804688.4482422-.4804688.1923828,0,1.2807617.9287109,1.2807617,1.1689453-.0322266.1601562-.1923828.2402344-.3842773.2402344h-6.8989258c-.8320312.015625-1.6005859.0957031-2.4008789.2236328l-.4160156-.7998047c.7041016.0800781,1.4082031.1113281,2.1289062.1269531h2.3847656v-4.7216797h-1.0244141c-.6401367.0166016-1.2646484.0966797-1.8886719.2246094l-.4003906-.8164062c.7045898.0800781,1.4086914.1123047,2.1289062.1279297h1.1845703v-3.8730469h-2.3530273c-.4638672,1.1835938-1.0244141,2.2246094-1.6806641,3.0410156l-.2402344-.1601562c.4165039-.8320312.800293-1.8730469,1.1206055-3.0253906.2719727-1.0244141.512207-2.5771484.4804688-3.4892578,1.6962891.4316406,1.6962891.5917969,1.4243164.7363281l-.2719727.1279297c-.1762695.7841797-.4003906,1.5527344-.6723633,2.2890625h2.1928711v-.7685547c0-1.0888672-.0639648-2.4013672-.2080078-3.28125,1.6806641.4804688,1.6806641.6396484,1.4404297.8164062l-.2402344.1601562v3.0732422h2.1132812l.3359375-.4648438c.1762695-.2402344.3203125-.4794922.4482422-.4794922.1918945,0,1.2485352.9287109,1.2485352,1.1679688-.0483398.1767578-.1762695.2568359-.4003906.2568359h-3.7456055v3.8730469h1.7128906l.3203125-.4804688Z"/>
        <path class="cls-1" d="m530.2397461,156.1953125c0,1.1679688-.9282227,2.0966797-2.0805664,2.0966797s-2.097168-.9287109-2.097168-2.0966797c0-1.1523438.9448242-2.0810547,2.097168-2.0810547s2.0805664.9287109,2.0805664,2.0810547Zm-.3837891,0c0-.9287109-.7685547-1.6806641-1.6967773-1.6806641-.9287109,0-1.6967773.7519531-1.6967773,1.6806641,0,.9443359.7680664,1.6962891,1.6967773,1.6962891.9282227,0,1.6967773-.7519531,1.6967773-1.6962891Z"/>
        <path class="cls-1" d="m542.0942383,152.2089844l-.2241211-.1601562c.8803711-1.2324219,1.7768555-2.9443359,2.5288086-4.8339844.4003906-.9755859.8325195-2.5449219.9125977-3.4248047,1.7929688.5761719,1.7929688.7363281,1.4887695.8486328l-.3041992.1113281c-.512207,1.4570312-1.1523438,2.8339844-1.8569336,4.0664062.8964844.5917969.8964844.7519531.65625.8642578l-.2397461.0957031v4.6103516c.0317383,1.9199219.0639648,2.5605469.1279297,3.7617188-.144043.1591797-.5283203.4316406-.9287109.4316406-.1918945,0-.3676758-.1601562-.3676758-.3203125.0957031-1.3769531.144043-2.0800781.1757812-4.1621094v-4.3535156c-.6083984.9453125-1.2802734,1.7773438-1.96875,2.4648438Zm11.7646484-.5761719c.1762695-.2236328.3203125-.4638672.4482422-.4638672.1918945,0,1.2646484.8964844,1.2646484,1.1367188-.0322266.1757812-.1762695.2558594-.4003906.2558594h-3.9213867v4.8339844h2.8330078l.3520508-.5126953c.1923828-.2558594.3364258-.5117188.4643555-.5117188.1918945,0,1.3925781,1.0087891,1.3925781,1.2480469-.0478516.1767578-.1762695.2568359-.4003906.2568359h-7.4907227c-.8325195.015625-1.6005859.0957031-2.4008789.2236328l-.4003906-.8320312c.7041016.0800781,1.4086914.1123047,2.1289062.1279297h2.480957v-4.8339844h-1.2001953c-.7363281.0166016-1.4570312.0966797-2.1772461.2236328l-.3999023-.8154297c.7041016.0791016,1.4082031.1123047,2.1289062.1279297h1.6484375v-4.0664062h-1.456543c-.8325195.0166016-1.6005859.0966797-2.4008789.2246094l-.4003906-.8164062c.7045898.0800781,1.4086914.1123047,2.1289062.1279297h5.7304688l.3359375-.4794922c.1923828-.2402344.3364258-.4960938.4643555-.4960938.1918945,0,1.3286133.9433594,1.3286133,1.1835938-.0483398.1757812-.1923828.2558594-.4165039.2558594h-4.2734375v4.0664062h2.2890625l.3198242-.4648438Zm-4.9458008-7.5703125c3.8896484,1.0722656,3.3613281,3.5693359,2.2089844,2.9130859-.3525391-.9443359-1.4726562-2.1132812-2.3691406-2.7695312l.1601562-.1435547Z"/>
        <path class="cls-1" d="m568.1621094,157.6191406c-.2241211.0966797-.4960938-.1269531-.6879883-.3037109-.1923828-.1757812-.8325195-.8486328-1.7290039-1.4082031-.159668.8320312-.7519531,1.9042969-2.5449219,1.8886719-1.2485352,0-2.4008789-.5761719-2.4008789-1.5849609,0-.9921875,1.1845703-1.6640625,2.5771484-1.6484375.3842773,0,.9121094.0478516,1.5043945.1757812-.0957031-.9121094-.1601562-1.8242188-.1918945-2.7529297-.7363281.1435547-1.4887695.2236328-2.0810547.1601562-1.2641602-.1435547-1.7763672-.8798828-1.9526367-1.2324219-.0639648-.1445312-.0639648-.2080078-.0322266-.2402344.0644531-.0478516.1601562.0322266.2563477.0957031.1601562.1123047,1.1044922.7207031,2.2890625.6240234.4160156-.03125.9604492-.0800781,1.5043945-.1757812,0-.9277344.0161133-1.8564453.0800781-2.7851562-.3842773.0322266-.7524414,0-1.0566406-.1279297-.4477539-.1757812-.9760742-.6396484-1.168457-.8964844-.0639648-.0957031-.144043-.2236328-.0957031-.2880859.0317383-.03125.1279297-.0634766.3041992.0488281.2397461.1757812.5761719.4472656,1.168457.4960938.2241211.015625.5600586-.0322266.9443359-.1123047.1118164-.7041016.2558594-1.4570312-.0322266-2.1132812-.1279297-.2880859-.5439453-.6396484-.512207-.7841797.0322266-.1757812.2719727-.2558594.5444336-.2080078.2880859.0634766,1.0722656.4003906,1.0722656,1.1044922,0,.4482422-.2880859,1.2646484-.3842773,1.6972656-.0161133.046875-.0161133.0957031-.0317383.1435547.4160156-.1123047.7841797-.2236328.9282227-.2724609.3681641-.1113281.6245117,0,.6723633.1923828.0317383.1923828-.0478516.4804688-.4643555.65625-.2719727.1123047-.7363281.2724609-1.2646484.3837891-.0639648.625-.0795898,1.4248047-.0639648,2.5292969v.1923828c.4804688-.1279297.9287109-.2880859,1.2324219-.4960938.5766602-.4003906,0-.7841797-.2397461-1.1845703-.0322266-.0488281-.0483398-.0957031-.0639648-.1601562-.1123047-.2880859.159668-.0800781.2880859.0478516.2558594.2236328.5283203.3359375.8642578.4160156.3041992.0800781.5761719.0478516.7524414.2246094.1757812.1914062.2080078.8642578-.5444336,1.2158203-.3842773.1757812-1.2646484.4804688-2.2407227.7050781.0957031,1.34375.3198242,2.4160156.3999023,3.1367188.9443359.3046875,1.9047852.8164062,2.465332,1.6328125.4321289.6240234.0317383.9765625-.0644531,1.0078125Zm-3.2490234-2.1601562c-.512207-.2246094-1.0727539-.3681641-1.6806641-.3847656-1.2167969-.015625-1.8569336.4804688-1.8569336,1.1689453,0,.3203125.65625.7519531,1.6489258.7519531.65625,0,1.8085938-.2880859,1.8886719-1.5361328Z"/>
        <path class="cls-1" d="m575.5029297,147.0712891c.0800781-.1757812.8803711.0800781,1.2802734.4326172.3203125.3037109.4321289.5595703.4165039.8964844-.0161133.65625-.6723633,2.3525391-.4804688,3.8085938.2080078,1.5048828,1.0883789,2.1933594,1.3286133,2.3691406.2558594.1757812.4160156.2402344.4960938.2402344.0800781-.015625.1762695.015625.2563477-.3203125.2241211-1.0244141.4799805-1.7128906.5600586-1.9042969.0639648-.1757812.1762695-.3046875.2402344-.2880859.0639648.015625.0317383.2080078,0,.3681641-.2241211,1.0400391-.144043,1.9042969-.1123047,2.2402344.0322266.3369141.2724609.7529297.2880859.9287109.0161133.1767578.0322266.4160156-.1918945.5439453-.2080078.1445312-1.0244141.0322266-2.1289062-.9599609-.3999023-.3681641-1.3764648-1.4882812-1.5527344-3.1533203-.1601562-1.6640625.1762695-2.9296875.1923828-3.3457031.0317383-.3994141.1118164-.6875.015625-.9599609-.0957031-.2724609-.2880859-.5126953-.5439453-.7363281-.0478516-.0322266-.0961914-.0800781-.0639648-.1601562Zm7.2509766,1.9365234c0-.0634766.0317383-.0957031.144043-.1279297.0957031-.0322266,1.5366211-.5439453,2.8168945.65625.6401367.6083984.9604492,1.4091797.9765625,1.8095703.0317383.4160156-.144043.9755859-.7685547.8320312-.3041992-.0800781-.3520508-.3203125-.3999023-.4648438-.0639648-.1435547-.5761719-1.984375-1.4404297-2.4160156-.496582-.2402344-1.1044922-.1923828-1.2006836-.1923828-.0639648,0-.1279297-.0478516-.1279297-.0966797Z"/>
        <path class="cls-1" d="m603.2197266,152.0332031c-.5444336,5.1542969-6.8027344,5.2021484-7.1552734,5.25-.512207.0488281-.800293.0488281-.815918-.0634766-.0322266-.0966797.4160156-.1445312.6240234-.1767578,1.7768555-.2871094,5.890625-1.5039062,6.2104492-5.2333984.3364258-3.7294922-2.3208008-5.234375-4.5620117-5.3623047-.2080078-.015625-.4160156-.015625-.6240234,0,.2563477.5283203.9443359,2.2089844-.2241211,4.9619141-1.2963867,3.0576172-3.1694336,4.4980469-3.8256836,4.4179688-.671875-.0800781-1.8085938-1.3447266-1.9365234-3.3291016-.2719727-4.0175781,3.0571289-6.1308594,5.3623047-6.4990234,2.5766602-.4160156,7.4746094.8486328,6.9467773,6.0341797Zm-6.5947266-5.5703125c-1.96875.2246094-3.9057617,1.5214844-4.6582031,3.8095703-.8642578,2.6416016.4804688,4.0654297.800293,4.2255859.3041992.1601562.7045898-.1601562.7045898-.1601562,1.8564453-1.3603516,2.8969727-3.9853516,3.1049805-4.7216797.2084961-.7519531.3203125-2.2568359.0483398-3.1533203Z"/>
        <path class="cls-1" d="m611.5844727,148.8164062c.1601562-.2089844.2719727-.4160156.4003906-.4160156.1918945,0,1.1201172.8164062,1.1201172,1.0556641-.0317383.1767578-.1918945.2568359-.3999023.2568359h-5.0581055v1.2802734c0,1.9208984-.0961914,5.0419922-1.6166992,7.2822266l-.2080078-.1914062c.8959961-2.2568359.9121094-4.8984375.9121094-7.0908203v-1.1367188c0-.4003906-.0161133-.8642578-.0639648-1.2158203l1.168457.5917969h2.097168c.3198242-.8964844.6079102-2.0488281.6240234-2.8330078,1.6005859.5283203,1.6005859.6884766,1.3125.7998047l-.2719727.0957031c-.3041992.5605469-.7524414,1.296875-1.2646484,1.9375h.9604492l.2880859-.4160156Zm.1118164-3.2333984c.1762695-.2246094.3041992-.4482422.4326172-.4482422.1918945,0,1.168457.8642578,1.168457,1.1044922-.0322266.1757812-.1762695.2558594-.4003906.2558594h-4.1137695c-.8320312.0166016-1.6005859.0966797-2.4008789.2236328l-.3999023-.8164062c.671875.0800781,1.3442383.1123047,2.0166016.1289062h.9604492c0-.6728516-.0322266-1.4882812-.1279297-2.0654297,1.6484375.4970703,1.6484375.65625,1.3603516.8330078l-.2880859.1757812v1.0566406h1.4887695l.3037109-.4482422Zm1.0888672,9.6513672l-.2885742.0166016c-1.456543,1.6005859-3.3291016,2.6572266-5.4897461,3.3134766l-.144043-.2890625c.9443359-.4160156,1.840332-.9277344,2.640625-1.5517578.8325195-.640625,1.7451172-1.7451172,2.1132812-2.5458984l.800293.5605469c.671875.3046875.671875.4648438.3681641.4960938Zm-5.1064453-8.5957031c2.3369141,1.296875,1.3125,3.1220703.512207,2.2734375.0161133-.7041016-.3359375-1.6171875-.6879883-2.1933594l.1757812-.0800781Zm4.5942383,6.2431641l-.2563477.015625c-1.0883789.9765625-2.6088867,1.8564453-4.0976562,2.4169922l-.1762695-.2714844c.4165039-.2402344.8325195-.5126953,1.2329102-.8007812.8481445-.6240234,1.824707-1.6162109,2.2568359-2.4003906l.7041016.5595703c.6083984.2880859.6083984.4482422.3364258.4804688Zm-.2563477-2.2412109l-.2719727.015625c-.9604492.8007812-2.3212891,1.5849609-3.6176758,2.0654297l-.2080078-.2724609c.2563477-.1601562.5283203-.3203125.7841797-.5117188.8647461-.6083984,1.8408203-1.5849609,2.2890625-2.3535156l.7041016.5761719c.5922852.2890625.5922852.4492188.3203125.4804688Zm4.1455078,5.6982422h-.2397461c-.9287109.8964844-2.7050781,1.8095703-4.2416992,2.2734375l-.144043-.2246094c.3999023-.2080078.815918-.4794922,1.2324219-.7685547.8642578-.5917969,1.824707-1.5517578,2.1928711-2.3525391l.7841797.5927734c.6723633.3203125.6723633.4794922.4160156.4794922Zm2.1772461-9.203125c.1279297-.1767578.2241211-.3525391.3520508-.3525391.1918945,0,1.0722656.7685547,1.0722656,1.0087891-.0800781.1123047-.3198242.2236328-.5761719.2714844v3.3291016c.0322266,1.921875.0639648,2.5615234.1279297,3.7617188-.144043.1767578-.6079102.4326172-.9443359.4326172h-.1279297v-.5927734h-3.7294922v.4160156c0,.1123047-.3681641.3525391-.800293.3525391-.1279297,0-.2719727-.1601562-.2719727-.3193359.0795898-1.1210938.1118164-1.6972656.144043-3.3945312v-1.8720703c0-1.0888672-.0644531-2.4013672-.2084961-3.28125l1.2167969.5761719h.8964844c.0795898-.5126953.2080078-1.2490234.2880859-1.8564453h-.8803711c-.5444336.015625-1.0727539.0957031-1.6005859.2236328l-.4165039-.8164062c.7045898.0800781,1.4086914.1123047,2.1289062.1279297h3.1855469l.3198242-.4804688c.1762695-.2392578.3203125-.4794922.4482422-.4794922.1923828,0,1.2807617.9287109,1.2807617,1.1679688-.0322266.1767578-.1762695.2568359-.3842773.2568359h-2.9130859c-.2880859.6396484-.640625,1.34375-.9604492,1.8564453h2.112793l.2402344-.3359375Zm-.0961914.7998047h-3.7294922v1.8408203h3.7294922v-1.8408203Zm-3.7294922,2.2890625v1.9042969h3.7294922v-1.9042969h-3.7294922Zm0,4.3056641h3.7294922v-1.9365234h-3.7294922v1.9365234Zm2.4487305,1.0087891c3.7456055,1.1523438,3.1694336,3.5849609,2.0649414,2.8964844-.3198242-.9121094-1.4086914-2.0800781-2.2246094-2.7529297l.159668-.1435547Z"/>
        <path class="cls-1" d="m623.4067383,156.2910156c-.4160156-.5117188-.9121094-.9921875-1.1206055-1.1367188-.1757812-.1279297-.2880859-.1914062-.2719727-.2714844.0322266-.1123047.1918945-.0644531.4003906,0,.1918945.0478516,2.7368164.8964844,3.3291016,2.3369141.1762695.3994141.0322266,1.0400391-.5439453,1.1679688-.2402344.0478516-.5283203-.0957031-.8007812-.5439453-.0639648-.1279297-.6401367-1.1201172-.9921875-1.5527344Z"/>
        <path class="cls-1" d="m644.3686523,146.6708984l.2724609-.3193359c.144043-.1601562.2558594-.3369141.3837891-.3369141.1923828,0,1.0883789.8486328,1.0883789,1.0888672-.1118164.1445312-.2719727.1914062-.5922852.2236328-.8320312,4.5302734-2.5449219,8.8037109-7.362793,11.2207031l-.1757812-.2402344c3.9213867-2.4648438,5.7460938-6.6259766,6.4501953-11.15625h-2.6411133c-.3198242.8486328-.6879883,1.6328125-1.0883789,2.3525391,3.137207,1.1523438,2.465332,3.28125,1.4248047,2.59375-.2241211-.7363281-.9443359-1.6005859-1.6166992-2.2412109-.6884766,1.1689453-1.4887695,2.1611328-2.4008789,2.9287109l-.1923828-.1591797c1.0405273-1.296875,2.0009766-3.0898438,2.7050781-5.1542969.3364258-.9921875.6723633-2.6728516.6884766-3.5537109,1.7929688.4482422,1.7929688.6083984,1.5043945.7363281l-.2880859.1279297c-.1757812.65625-.3520508,1.2802734-.5600586,1.8886719h2.4008789Zm3.3935547.65625c0-1.0556641-.0639648-2.4003906-.2080078-3.28125,1.7763672.5126953,1.7763672.6728516,1.4882812.8486328l-.2880859.1757812v6.3867188c1.0883789.9443359,2.3369141,1.6650391,3.7138672,2.0644531l-.0322266.1767578c-.4003906.0634766-.7363281.3681641-.8803711.8798828-1.0566406-.4472656-1.9848633-1.0566406-2.8012695-1.8242188v1.8085938c.0322266,1.8085938.0639648,2.4169922.128418,3.5371094-.128418.2402344-.5444336.4648438-.9287109.4648438-.1918945,0-.3681641-.1601562-.3681641-.3203125.0961914-1.3769531.144043-2.0810547.1762695-4.1621094v-2.4326172c-.8325195-1.0566406-1.4887695-2.3525391-1.9526367-3.8251953l.2558594-.1289062c.4003906,1.0087891.9926758,1.9375,1.6967773,2.7539062v-3.1220703Z"/>
        <path class="cls-1" d="m658.0317383,147.2636719c.1601562-.2246094.2880859-.4648438.4160156-.4648438.1923828,0,1.1689453.8808594,1.1689453,1.1210938-.0483398.1757812-.2084961.2558594-.4003906.2558594h-1.9848633v1.3603516c2.8974609,1.3769531,2.0966797,3.265625,1.2006836,2.5458984-.1923828-.6894531-.7202148-1.5849609-1.2006836-2.2255859v4.4814453c.0322266,1.9208984.0639648,2.5615234.1279297,3.7617188-.1279297.2246094-.527832.4482422-.8803711.4482422-.2080078,0-.3837891-.1601562-.3837891-.3193359.0957031-1.3769531.144043-2.0820312.1757812-4.1621094v-2.9130859c-.5283203,1.3925781-1.2485352,2.6728516-2.1928711,3.7929688l-.2241211-.2080078c1.1367188-1.8408203,1.809082-4.1933594,2.1928711-6.5625h-.65625c-.3837891.015625-.7519531.0957031-1.1201172.2246094l-.4003906-.8164062c.5444336.0800781,1.0883789.1113281,1.6328125.1279297h.7680664v-.5761719c0-1.0888672-.0639648-2.4013672-.2080078-3.2822266,1.7285156.5126953,1.7285156.6728516,1.4404297.8652344l-.2719727.1757812v2.8173828h.4960938l.3041992-.4482422Zm7.8754883,3.296875c.1279297-.1757812.2080078-.3681641.3359375-.3681641.1918945,0,1.1845703.8164062,1.1845703,1.0566406-.0961914.1123047-.3520508.2402344-.65625.3037109v3.5380859h.0317383l.2563477-.4160156c.144043-.2080078.2402344-.4169922.3681641-.4169922.1918945,0,.9282227.7851562.9282227,1.0253906-.0317383.1757812-.1757812.2558594-.3681641.2558594h-1.2163086v1.6162109c0,.7841797-.128418,1.2646484-1.4248047,1.4091797-.0317383-.3046875-.1118164-.5605469-.2880859-.7050781-.2080078-.1435547-.5439453-.2880859-1.1206055-.3515625v-.2558594s1.296875.0957031,1.5688477.0957031c.2563477,0,.3359375-.0800781.3359375-.3203125v-1.4882812h-5.2978516v.8964844c.0317383.8798828.0317383,1.1835938.0800781,1.6806641-.0800781.1914062-.4482422.4316406-.8486328.4316406-.144043,0-.2397461-.1601562-.2397461-.3193359.0478516-.5605469.0639648-.8330078.0957031-1.6816406v-1.0078125h-.4321289c-.2558594.015625-.4799805.0957031-.7041016.2236328l-.4160156-.7998047c.3520508.0800781.7041016.1113281,1.0561523.1279297h.4960938v-1.4892578c0-1.0878906-.0639648-2.4003906-.2080078-3.28125l1.2006836.5927734h2.0649414v-1.1845703h-1.3447266c-.8325195.015625-1.6005859.0957031-2.4008789.2246094l-.4165039-.8330078c.5766602.0800781,1.152832.1123047,1.7607422.1279297h.8164062v-1.3759766h-.4799805c-.2880859.015625-.5444336.0957031-.800293.2236328l-.4165039-.8320312c.3842773.0800781.7685547.1113281,1.152832.1279297h.5439453v-1.296875h-.6723633c-.4160156.0166016-.800293.0966797-1.184082.2246094l-.4165039-.8007812c.512207.0800781,1.0244141.1123047,1.5366211.1279297h.7363281c0-.5595703-.0317383-1.2480469-.0957031-1.7285156,1.5522461.4960938,1.5522461.65625,1.2802734.8320312l-.2558594.1601562v.7363281h2.0966797c0-.5595703-.0322266-1.2480469-.0961914-1.7285156,1.5366211.4960938,1.5366211.65625,1.2807617.8320312l-.2563477.1767578v.7197266h1.0727539l.2880859-.4160156c.159668-.2080078.2719727-.4316406.3999023-.4316406.1918945,0,1.1367188.8164062,1.1367188,1.0566406-.0483398.1757812-.1762695.2392578-.4003906.2392578h-2.4970703v1.296875h.8164062l.2563477-.3837891c.144043-.1923828.2558594-.4003906.3837891-.4003906.1923828,0,1.0727539.7675781,1.0727539,1.0078125-.0322266.1767578-.1762695.2568359-.4003906.2568359h-2.1289062v1.3759766h1.2807617l.2880859-.4003906c.1601562-.2070312.2880859-.4160156.4160156-.4160156.1918945,0,1.1044922.8007812,1.1044922,1.0410156-.0322266.1757812-.1762695.2558594-.3681641.2558594h-4.1777344v1.1845703h2.0810547l.2241211-.3525391Zm-3.2172852.8007812h-2.1450195v1.5527344h2.1450195v-1.5527344Zm-2.1450195,2.0166016v1.7128906h2.1450195v-1.7128906h-2.1450195Zm1.4887695-7.2832031v1.296875h2.0966797v-1.296875h-2.0966797Zm0,1.7773438v1.3759766h2.0966797v-1.3759766h-2.0966797Zm3.809082,3.4892578h-2.2407227v1.5527344h2.2407227v-1.5527344Zm-2.2407227,3.7294922h2.2407227v-1.7128906h-2.2407227v1.7128906Z"/>
        <path class="cls-1" d="m682.3232422,150.2402344c-.4804688.65625-1.3125,1.0888672-2.0488281,1.3925781-.6083984.2724609-1.7290039.6728516-2.7851562,1.1367188-.0961914.8808594-.0322266,2.0644531-.0478516,2.3212891-.0322266.3359375-.3364258.5917969-.5922852.5761719-.2563477-.0166016-.4643555-.2568359-.4804688-.5761719,0-.1767578.0961914-1.0244141.1601562-1.8408203-.3041992.1445312-.5922852.3203125-.8325195.4804688-.800293.5595703-1.2163086,1.4238281-1.1362305,2.0166016.0800781.6396484.9121094.9121094,1.4404297.9765625,1.2646484.1123047,1.7128906.0322266,2.7050781-.2080078.8642578-.2089844,1.2167969-.1289062,1.3447266.2236328.1762695.4960938-.8642578.8164062-1.3603516.8798828-.6083984.0966797-1.4726562.1445312-2.5131836.0322266-1.824707-.2080078-2.1450195-1.0556641-2.2089844-1.7763672-.0478516-.4804688.1279297-1.5205078,1.3447266-2.4169922.3198242-.2236328.7519531-.4638672,1.2485352-.7041016.015625-.3681641.015625-.6884766-.0161133-.9121094-.1123047-.8652344-.3681641-1.2011719-.9282227-1.2490234-.6884766-.0634766-1.6010742.9921875-2.1132812,1.6962891-.1279297.1767578-.2397461.3369141-.3681641.4960938-.159668.2089844-.512207.7363281-.6879883.8652344-.1762695.1279297-.5444336-.0644531-.65625-.3046875-.1123047-.2558594-.0483398-.7197266.1279297-.9277344.2402344-.2724609,1.2324219-1.0087891,1.824707-2.0175781.4482422-.7675781.9765625-1.8720703,1.3125-2.9765625-.5439453.1435547-1.1362305.2236328-1.6806641.1435547-.5439453-.0800781-1.0561523-.4794922-1.3286133-.7041016-.0478516-.0478516-.0800781-.1123047-.0478516-.1445312.0478516-.0800781.2080078-.015625.2880859.0166016.0961914.0322266.65625.2236328,1.3125.1923828.3681641-.0322266,1.0244141-.1123047,1.6967773-.3525391.0317383-.1923828.0639648-.3681641.0961914-.5605469.0478516-.3994141,0-.8955078-.4804688-1.2802734-.0800781-.0644531-.0961914-.0644531-.0639648-.2080078s.1601562-.1435547.2402344-.1435547c.0957031,0,.8964844.1113281,1.0405273.3037109.0795898.1435547.0957031.3837891.0639648.65625.1757812.1757812.5600586.2402344.9282227.1923828.144043-.0644531.6884766-.1601562.7524414.1113281.0957031.3203125-.3525391.7363281-.8486328,1.0087891-.2241211.1123047-.7202148.3681641-1.3286133.5761719-.2880859.9287109-.65625,2.0166016-1.1201172,3.0576172.512207-.2724609,1.0722656-.2724609,1.5366211-.1445312.9121094.2402344,1.168457,1.5527344,1.168457,1.5527344.2397461-.5605469.5283203-1.2480469,1.4404297-2.1933594.6401367-.671875,1.7929688-1.3925781,2.7529297-1.2636719,1.0405273.1435547,1.440918,1.2001953.8486328,2Zm-6.3544922-3.96875c.1757812-.0800781.3359375-.1923828.4960938-.3046875-.0161133-.0644531-.0478516-.1279297-.1601562-.1914062-.0639648-.0488281-.1279297-.0644531-.1918945-.0800781-.0322266.1757812-.0800781.3671875-.144043.5761719Zm5.5703125,2.5605469c-.5283203-.4160156-1.6967773.0957031-2.5292969.9287109-.6723633.671875-1.0244141,1.2158203-1.4086914,2.4482422,0,.0166016-.015625.0322266-.015625.0322266.7519531-.3515625,1.5683594-.7363281,2.3046875-1.1845703,1.3608398-.7998047,2.0488281-1.8886719,1.6489258-2.2246094Z"/>
        <path class="cls-1" d="m697.0908203,157.1074219c-.1923828.2558594-.496582.3046875-1.0727539-.1123047-.6879883-.4794922-1.328125-.8642578-1.9047852-1.1523438-.015625.0966797-.015625.1767578-.0317383.2724609-.1923828,1.8242188-2.4169922,1.6806641-3.0415039,1.6962891-.6240234.0166016-2.9291992-.4160156-2.9291992-1.6806641,0-1.2802734,1.6166992-1.6962891,2.7211914-1.7607422.784668-.0634766,1.5366211.0166016,2.2250977.1601562-.144043-1.0244141-.6083984-2.9931641-.5922852-5.1064453.0161133-1.4882812.3520508-2.7685547.2402344-3.4882812-.128418-.7207031-.496582-.7851562-.9604492-.9453125-.144043-.0478516-.3364258-.0634766-.2563477-.2236328.0639648-.1445312.6245117-.1445312.8164062-.1445312.6083984.0322266,1.2485352.0966797,1.5205078.8164062.2724609.6728516-.2558594,1.1845703-.4321289,1.953125-.0317383.1757812-.0957031.5927734-.144043,1.0722656.5922852.0322266,1.7290039-.0957031,2.1767578-.2724609.496582-.2070312,1.1206055-.0634766,1.2646484.3369141.144043.3994141-.1757812.5283203-.4482422.6083984-.2719727.0800781-1.7124023.5117188-3.0410156-.2402344,0,.2236328-.0161133.4638672-.0161133.6875.0322266.9130859.1123047,1.7451172.3681641,2.9453125.1762695.8164062.4003906,1.5048828.512207,2.2578125,1.2485352.3837891,2.1611328.9277344,2.5131836,1.1357422.5922852.3837891.7202148.9287109.512207,1.1845703Zm-4.0019531-1.6806641c-.9921875-.3525391-1.7763672-.4160156-2.2407227-.3837891-.5600586.03125-2.1450195.1757812-2.112793.9921875.0317383.8164062,1.7446289.9921875,2.2568359.9765625,2.1289062-.0488281,2.0810547-.9609375,2.0966797-1.5849609Z"/>
        <path class="cls-1" d="m708.1767578,145.3583984c.1601562,1.0566406-.4643555,2.7050781-.7363281,3.4580078-.0322266.1113281-.0639648.2080078-.0961914.3203125.4482422-.7851562,1.2167969-1.5693359,2.1767578-1.5214844,1.2006836.0644531,2.8496094,1.5527344,2.1772461,5.4267578-.6723633,3.8730469-4.0498047,4.7539062-4.4819336,4.8818359-.0961914.015625-.1762695,0-.2080078-.0800781-.0161133-.0644531,0-.1123047.0800781-.1445312,2.3686523-.9921875,3.2973633-2.8652344,3.6333008-5.0097656.3681641-2.3369141-.4799805-4.5136719-1.5043945-4.5136719-1.0405273-.015625-1.6650391,1.0566406-1.8730469,2.0644531-.2719727,1.4248047.0322266,1.6972656.2402344,2.1611328.1279297.2880859.4482422.8007812.2402344,1.0566406-.144043.1601562-.3681641.1923828-.6083984.0634766-.5283203-.2558594-.800293-.8955078-.9125977-1.5839844-.3037109-1.7607422,1.1044922-4.8339844,1.2329102-5.9550781.0478516-.4794922.0639648-.7363281-.1923828-1.0078125-.1601562-.1923828-.4321289-.3203125-.3681641-.4160156.0800781-.0957031.4165039-.0644531.7202148.1113281.2885742.1767578.4326172.4169922.4804688.6884766Z"/>
        <path class="cls-1" d="m730.3393555,153.2177734c.1918945-.2402344.3359375-.4794922.4638672-.4794922.1923828,0,1.3125.9433594,1.3125,1.1835938-.0478516.1601562-.1918945.2402344-.3999023.2402344h-6.0024414c1.1523438,2.0332031,3.4091797,2.8808594,6.4985352,3.2177734v.1757812c-.4160156.0957031-.7202148.4326172-.8325195.9599609-3.1049805-.6240234-4.9936523-1.7919922-6.0180664-4.3535156h-.2563477c-.5283203,2.0009766-1.96875,3.4257812-7.0107422,4.4179688l-.1279297-.3046875c4.0493164-1.0878906,5.4741211-2.3359375,6.0024414-4.1132812h-3.2016602c-.8320312.015625-1.6005859.0957031-2.4008789.2246094l-.3999023-.8164062c.7041016.0800781,1.4082031.1113281,2.1289062.1279297h4.0014648c.1118164-.6083984.144043-1.4091797.0800781-1.953125,1.7285156.1601562,1.7285156.3203125,1.456543.4960938l-.2563477.1767578c-.0478516.4472656-.0957031.8798828-.159668,1.2802734h4.7856445l.3364258-.4804688Zm-.2241211-2.5449219c.1757812-.2402344.3198242-.4804688.4482422-.4804688.1918945,0,1.2802734.9130859,1.2802734,1.1533203-.0478516.1757812-.1918945.2558594-.4160156.2558594h-10.3081055c-.8325195.015625-1.6005859.0957031-2.4013672.2236328l-.4321289-.8164062c.7045898.0800781,1.4086914.1123047,2.1289062.1279297h4.081543v-1.9042969h-1.9042969c-.8325195.015625-1.6010742.0957031-2.4013672.2236328l-.4160156-.8320312c.7041016.0800781,1.4086914.1123047,2.1289062.1279297h2.5927734v-1.7929688h-2.6728516c-.8325195.0166016-1.6005859.0966797-2.4008789.2246094l-.4321289-.8320312c.7041016.0800781,1.4082031.1113281,2.1289062.1279297h2.0327148c-.1123047,0-.2402344-.0478516-.3842773-.1601562-.1279297-.7529297-.7363281-1.6806641-1.2646484-2.2255859l.1762695-.1113281c2.480957.7675781,2.2407227,2.4648438,1.5205078,2.4970703h3.0092773c.4804688-.8164062.9125977-1.9697266,1.0722656-2.7529297,1.6650391.6240234,1.6650391.7832031,1.3608398.8798828l-.2880859.0800781c-.4003906.5439453-1.0566406,1.2158203-1.6806641,1.7929688h2.6088867l.3203125-.4648438c.1757812-.2236328.3198242-.4638672.4482422-.4638672.1918945,0,1.2963867.9121094,1.2963867,1.1523438-.0322266.1757812-.1918945.2558594-.4160156.2558594h-5.3945312v1.7929688h3.0732422l.3203125-.4316406c.1762695-.2246094.3041992-.4482422.4321289-.4482422.1918945,0,1.2324219.8642578,1.2324219,1.1044922-.0478516.1757812-.1918945.2558594-.3999023.2558594h-4.6582031v1.9042969h4.2578125l.3203125-.4638672Z"/>
        <path class="cls-1" d="m746.3071289,154.1943359c-1.6645508,1.8730469-4.1455078,3.4248047-6.4985352,2.9453125-1.5366211-.3203125-2.4331055-1.2802734-2.480957-3.5537109-.0961914-3.5214844.4160156-5.2021484.3041992-6.7705078-.0961914-1.0888672-.3681641-1.2324219-.65625-1.3925781-.128418-.0800781-.1923828-.2880859.1118164-.3359375s.6245117.015625.9125977.1591797c.6240234.2890625.7841797,1.28125.7202148,1.8417969-.0322266.2871094-.0961914.7363281-.1279297,1.1523438-.2402344,2.2402344-.4482422,3.7929688-.3364258,5.5537109.1123047,1.8564453.8642578,2.2255859,2.0810547,2.4492188.800293.1601562,2.5449219.2558594,5.7944336-2.2568359.1279297-.0957031.3037109-.2246094.3676758-.1601562.0644531.0800781-.0639648.2246094-.1918945.3681641Z"/>
        <path class="cls-1" d="m757.3769531,156.6591797c-1.1040039-2.8007812-1.6962891-3.2011719-2.1445312-3.7939453-.4804688-.671875-.7524414-1.0234375-.800293-1.5195312-.0483398-.4970703.2397461-.9931641.65625-1.6650391,1.1044922-1.7763672,2.2407227-3.2978516,2.3530273-3.5693359.2719727-.625.159668-.9609375,0-1.1044922-.144043-.1279297-.5444336-.3203125-.4165039-.4804688.128418-.1279297.9125977.0800781,1.456543.4638672.512207.3681641.3681641.9121094.2241211,1.1689453-.2719727.5439453-.8481445,1.0244141-1.7285156,2.0966797-.7524414.8964844-1.5048828,1.9042969-1.8725586,2.4335938-.2724609.3994141-.2241211.7353516.0478516,1.0234375.6723633.7363281,3.3613281,3.4101562,3.6015625,5.4589844.0800781.6396484-.0961914.8798828-.4165039.9121094-.512207.0478516-.7363281-.8486328-.9604492-1.4248047Z"/>
        <path class="cls-1" d="m767.4067383,156.2910156c-.4160156-.5117188-.9121094-.9921875-1.1206055-1.1367188-.1757812-.1279297-.2880859-.1914062-.2719727-.2714844.0322266-.1123047.1918945-.0644531.4003906,0,.1918945.0478516,2.7368164.8964844,3.3291016,2.3369141.1762695.3994141.0322266,1.0400391-.5439453,1.1679688-.2402344.0478516-.5283203-.0957031-.8007812-.5439453-.0639648-.1279297-.6401367-1.1201172-.9921875-1.5527344Z"/>
        <path class="cls-1" d="m793.0908203,157.1074219c-.1923828.2558594-.496582.3046875-1.0727539-.1123047-.6879883-.4794922-1.328125-.8642578-1.9047852-1.1523438-.015625.0966797-.015625.1767578-.0317383.2724609-.1923828,1.8242188-2.4169922,1.6806641-3.0415039,1.6962891-.6240234.0166016-2.9291992-.4160156-2.9291992-1.6806641,0-1.2802734,1.6166992-1.6962891,2.7211914-1.7607422.784668-.0634766,1.5366211.0166016,2.2250977.1601562-.144043-1.0244141-.6083984-2.9931641-.5922852-5.1064453.0161133-1.4882812.3520508-2.7685547.2402344-3.4882812-.128418-.7207031-.496582-.7851562-.9604492-.9453125-.144043-.0478516-.3364258-.0634766-.2563477-.2236328.0639648-.1445312.6245117-.1445312.8164062-.1445312.6083984.0322266,1.2485352.0966797,1.5205078.8164062.2724609.6728516-.2558594,1.1845703-.4321289,1.953125-.0317383.1757812-.0957031.5927734-.144043,1.0722656.5922852.0322266,1.7290039-.0957031,2.1767578-.2724609.496582-.2070312,1.1206055-.0634766,1.2646484.3369141.144043.3994141-.1757812.5283203-.4482422.6083984-.2719727.0800781-1.7124023.5117188-3.0410156-.2402344,0,.2236328-.0161133.4638672-.0161133.6875.0322266.9130859.1123047,1.7451172.3681641,2.9453125.1762695.8164062.4003906,1.5048828.512207,2.2578125,1.2485352.3837891,2.1611328.9277344,2.5131836,1.1357422.5922852.3837891.7202148.9287109.512207,1.1845703Zm-4.0019531-1.6806641c-.9921875-.3525391-1.7763672-.4160156-2.2407227-.3837891-.5600586.03125-2.1450195.1757812-2.112793.9921875.0317383.8164062,1.7446289.9921875,2.2568359.9765625,2.1289062-.0488281,2.0810547-.9609375,2.0966797-1.5849609Z"/>
        <path class="cls-1" d="m804.1767578,145.3583984c.1601562,1.0566406-.4643555,2.7050781-.7363281,3.4580078-.0322266.1113281-.0639648.2080078-.0961914.3203125.4482422-.7851562,1.2167969-1.5693359,2.1767578-1.5214844,1.2006836.0644531,2.8496094,1.5527344,2.1772461,5.4267578-.6723633,3.8730469-4.0498047,4.7539062-4.4819336,4.8818359-.0961914.015625-.1762695,0-.2080078-.0800781-.0161133-.0644531,0-.1123047.0800781-.1445312,2.3686523-.9921875,3.2973633-2.8652344,3.6333008-5.0097656.3681641-2.3369141-.4799805-4.5136719-1.5043945-4.5136719-1.0405273-.015625-1.6650391,1.0566406-1.8730469,2.0644531-.2719727,1.4248047.0322266,1.6972656.2402344,2.1611328.1279297.2880859.4482422.8007812.2402344,1.0566406-.144043.1601562-.3681641.1923828-.6083984.0634766-.5283203-.2558594-.800293-.8955078-.9125977-1.5839844-.3037109-1.7607422,1.1044922-4.8339844,1.2329102-5.9550781.0478516-.4794922.0639648-.7363281-.1923828-1.0078125-.1601562-.1923828-.4321289-.3203125-.3681641-.4160156.0800781-.0957031.4165039-.0644531.7202148.1113281.2885742.1767578.4326172.4169922.4804688.6884766Z"/>
        <path class="cls-1" d="m826.4511719,151.7929687c.1762695-.2236328.3041992-.4472656.4321289-.4472656.1923828,0,1.2646484.8476562,1.2646484,1.0878906-.0478516.1757812-.1762695.2402344-.4003906.2402344h-4.2416992c1.1845703.9443359,3.1533203,1.6806641,4.7861328,2.0166016l-.0161133.1757812c-.3842773.0800781-.6401367.3847656-.7680664.8642578-.8647461-.3203125-1.7446289-.7363281-2.5292969-1.2636719v1.2480469c.0322266,1.2324219.0483398,1.6484375.0961914,2.3847656-.1123047.1923828-.6245117.4326172-.9282227.4326172h-.1601562v-.8007812h-5.7944336v.4970703c0,.0957031-.3203125.3671875-.800293.3671875-.1601562,0-.2880859-.1601562-.2880859-.3203125.0639648-.8320312.0961914-1.2480469.1279297-2.4960938v-1.4248047c-.9121094.671875-1.9365234,1.2646484-3.1049805,1.6806641l-.144043-.2402344c1.6005859-.8007812,2.9770508-1.9208984,3.9853516-3.1210938h-1.2802734c-.8325195.015625-1.6010742.0957031-2.4013672.2236328l-.4160156-.7998047c.7041016.0800781,1.4086914.1113281,2.1289062.1279297h2.3369141c.2880859-.3837891.5444336-.7685547.7685547-1.1523438h-1.4248047v.2880859c0,.0957031-.4321289.3203125-.8481445.3203125-.1601562,0-.2402344-.1601562-.2402344-.3203125.0478516-.4326172.0478516-.65625.0800781-1.328125v-.8330078c0-.8486328-.0483398-1.8730469-.1601562-2.5615234l1.2646484.5927734h6.4663086l.2241211-.3037109c.1279297-.1445312.2241211-.3046875.3520508-.3046875.1923828,0,1.1206055.6884766,1.1206055.9287109-.0800781.1123047-.3203125.2236328-.5600586.2724609v1.1679688c.0317383,1.1523438.0478516,1.5371094.0957031,2.2246094-.0957031.1757812-.6079102.4326172-.9443359.4326172h-.159668v-.5761719h-3.5058594c-.0639648.1601562-.2558594.2392578-.65625.2392578-.2080078.3046875-.4477539.609375-.7041016.9130859h6.6425781l.3041992-.4326172Zm-.0961914-6.8183594c.1762695-.2246094.3203125-.4648438.4482422-.4648438.1923828,0,1.2324219.8964844,1.2324219,1.1367188-.015625.1767578-.1757812.2558594-.3999023.2558594h-3.9858398v.8007812c0,.0800781-.3359375.2558594-.8320312.2724609-.1601562,0-.2241211-.1601562-.2241211-.3203125.0317383-.1279297.0317383-.1923828.0639648-.3837891v-.3691406h-3.2333984v.2890625c.0322266.2880859.0161133.3837891.0478516.4960938-.0478516.1914062-.4799805.3359375-.8798828.3359375-.1445312,0-.2084961-.1601562-.2084961-.3203125.0322266-.1279297.0322266-.2080078.0639648-.4160156v-.3847656h-1.6806641c-.8320312.0166016-1.6005859.0966797-2.4008789.2246094l-.3837891-.8164062c.7041016.0800781,1.4082031.1123047,2.128418.1279297h2.3369141c0-.5283203-.0317383-1.1523438-.0957031-1.6005859,1.6166992.4804688,1.6166992.640625,1.3442383.8164062l-.2719727.1757812v.6083984h3.2333984c0-.5283203-.0322266-1.1523438-.0961914-1.6005859,1.6489258.4804688,1.6489258.640625,1.3608398.8164062l-.2724609.1757812v.6083984h2.3691406l.3359375-.4638672Zm-1.984375,2.7207031h-6.690918v1.2167969h6.690918v-1.2167969Zm-6.690918,1.6972656v1.2001953h6.690918v-1.2001953h-6.690918Zm.7041016,4.4658203h5.5224609l.0961914-.1123047c-.3842773-.3359375-.7207031-.6884766-.9926758-1.0722656h-3.9052734c-.3203125.3515625-.6723633.7041016-1.0566406,1.0244141l.3359375.1601562Zm5.6025391,1.6962891v-1.2324219h-5.7944336v1.2324219h5.7944336Zm-5.7944336,1.7128906h5.7944336v-1.2324219h-5.7944336v1.2324219Z"/>
        <path class="cls-1" d="m841.4106445,154.5947266c-.159668,1.5361328-1.7124023,2.7373047-6.3383789,3.3134766-.144043.015625-.2563477.015625-.2563477-.1123047-.015625-.1279297.1923828-.1445312.3525391-.1601562.1918945-.0322266,4.4975586-.5439453,5.1220703-3.1210938.0957031-.4482422.2719727-2.1611328-1.0405273-2.5292969-1.3286133-.3525391-2.1928711.6728516-3.2495117,2.2412109-.2080078.3203125-.6723633.5761719-.8803711.5761719-.1918945-.015625-1.3764648-.1123047-1.456543-1.28125-.0639648-.9277344.0961914-2.8964844.2563477-4.4814453.0478516-.5761719-.1923828-.8642578-.0639648-1.2646484.0957031-.3203125.4160156-.5761719.5761719-.7041016.5283203-.4638672,1.8725586-.9443359,2.0004883-1.0400391.144043-.1123047.2724609-.2246094.0800781-.4482422-.2558594-.3203125-.4482422-.4638672-.7363281-.6083984-.1118164-.0644531-.2397461-.1279297-.2241211-.1757812.0161133-.0800781.4003906-.0966797.496582-.0800781.2719727,0,1.5366211-.0644531,2.0004883,1.328125.2080078.6083984-.2880859.9443359-.3837891.9609375-.0961914.015625-.2402344-.0166016-.4003906-.1123047-.144043-.1123047-.7524414-.7685547-2.4008789.2880859-.2402344.1435547-.3364258.3515625-.3842773.640625-.0639648.3515625.3203125.4794922.2719727,1.1679688-.0317383.3046875-.3359375,2.3369141-.3359375,3.2011719,0,.3847656.0639648.640625.1762695.8808594.1118164.2236328.1757812.2871094.3037109.2871094.128418.0166016.3364258-.046875.5922852-.2558594.2563477-.2080078,2.5454102-1.984375,3.9858398-1.5361328,1.4404297.4326172,2.0966797,1.6328125,1.9365234,3.0253906Z"/>
        <path class="cls-1" d="m858.3071289,154.1943359c-1.6645508,1.8730469-4.1455078,3.4248047-6.4985352,2.9453125-1.5366211-.3203125-2.4331055-1.2802734-2.480957-3.5537109-.0961914-3.5214844.4160156-5.2021484.3041992-6.7705078-.0961914-1.0888672-.3681641-1.2324219-.65625-1.3925781-.128418-.0800781-.1923828-.2880859.1118164-.3359375s.6245117.015625.9125977.1591797c.6240234.2890625.7841797,1.28125.7202148,1.8417969-.0322266.2871094-.0961914.7363281-.1279297,1.1523438-.2402344,2.2402344-.4482422,3.7929688-.3364258,5.5537109.1123047,1.8564453.8642578,2.2255859,2.0810547,2.4492188.800293.1601562,2.5449219.2558594,5.7944336-2.2568359.1279297-.0957031.3037109-.2246094.3676758-.1601562.0644531.0800781-.0639648.2246094-.1918945.3681641Z"/>
        <path class="cls-1" d="m874.6591797,151.4570312c-.8320312,1.0244141-3.3452148,2.2246094-5.8901367-.9277344-.2241211-.3046875-.2563477-.3525391-.2080078-.4326172.0639648-.0800781.2080078.1123047.4160156.2724609.2241211.1601562,2.2890625,1.5527344,3.6816406,1.1201172,1.3925781-.4482422,1.4726562-1.2490234,1.5366211-1.5849609s-.0483398-1.7763672-1.7607422-2.0488281c-1.7290039-.2714844-3.5375977.4003906-4.7382812,1.2646484-.3837891.2724609-.8320312.6240234-1.2641602.9921875.0478516.0644531.0957031.1279297.1279297.1923828.6884766,1.0566406,1.2646484,2.2734375,1.8408203,3.3769531.65625,1.2324219,1.0244141,1.9853516,1.3442383,3.28125.1123047.4326172-.1118164.9931641-.6879883.9130859-.4804688-.0644531-.5922852-.7041016-.6723633-1.0888672-.1762695-.8642578-.3681641-1.7128906-.6723633-2.5449219-.4799805-1.2802734-1.1201172-2.5126953-1.824707-3.6972656-.6879883.5761719-1.2802734,1.0878906-1.4404297,1.2001953-.2719727.2080078-.7685547.1923828-1.1523438-.0322266-.2724609-.1601562-.4804688-.4160156-.65625-.6396484-.1123047-.1445312-.2084961-.3681641-.0961914-.4960938.0639648-.0800781.2080078.0478516.3999023.1591797.1601562.1123047.3681641.1923828.7363281.0800781.4482422-.1435547.7202148-.4472656,1.3608398-.8632812.0800781-.0488281.1918945-.1289062.3359375-.2246094-.2241211-.3681641-.4638672-.7207031-.7041016-1.0878906-.6723633-1.0087891-.7045898-1.7617188-.1601562-2.3212891.5600586-.5605469,1.3764648-.5283203,2.4648438-.3681641.5605469.0957031,1.7607422.3515625,1.9208984.1279297.1762695-.2236328-.3359375-.6728516-.4321289-.7685547-.1123047-.1113281-.3041992-.1914062-.2719727-.3037109.0317383-.1279297.3681641-.0166016.5761719.0957031.1918945.0966797.8964844.4638672,1.1201172.7998047.2084961.3369141.512207.8486328.0483398,1.1855469-.4482422.3515625-1.1367188.0634766-1.4726562-.1445312-.3520508-.2080078-2.7050781-1.1845703-3.3452148-.0644531-.3842773.6884766.2080078,1.6972656.7841797,2.5136719,1.5683594-1.0087891,4.7700195-2.8007812,7.0585938-2.0332031,2.5932617.8486328,2.5292969,3.0898438,1.6967773,4.0976562Z"/>
        <path class="cls-1" d="m891.2675781,147.9199219c-.0478516.4638672-.6884766.3515625-.9282227.3203125-.2080078-.0322266-2.4331055-.3681641-4.4179688-.1767578-.0322266.9765625-.0639648,2.0966797-.0478516,2.8974609.3359375.640625.4799805,1.6328125.4638672,2.8808594-.0478516,3.1699219-2.9931641,4.1464844-3.3452148,4.2578125-.1118164.0488281-.2080078.0644531-.2402344,0-.0317383-.0800781,0-.1601562.144043-.2236328,2.480957-1.1044922,2.625-3.6816406,2.625-3.6816406-.1118164.2080078-.6079102.6083984-.9760742.5927734-.7363281,0-1.1044922-.8164062-1.2485352-1.1210938s-.4160156-.65625-.5283203-1.5205078c-.0800781-.5283203.1123047-1.7451172,1.3764648-2.0009766.4165039-.0957031.7685547-.0478516,1.0566406.0957031.0478516-.3515625.0800781-.9765625.0639648-2.0966797-1.9208984.2724609-2.4648438.5605469-3.6176758,1.0566406-.3198242.1435547-1.2641602.65625-2.1606445.0966797-.3842773-.2246094-.7041016-.5771484-.800293-.6894531-.1279297-.1269531-.1762695-.2714844-.1123047-.3359375.144043-.1435547.4003906.0644531.8164062.1123047.4321289.0322266,1.0405273.0478516,1.6806641-.0957031.4482422-.0966797,2.5454102-.4960938,4.1777344-.7529297,0-.3837891-.0317383-.8164062-.0478516-1.2958984-.0322266-.5761719-.3041992-1.0566406-.512207-1.2324219-.1601562-.1279297-.3681641-.1767578-.3520508-.3046875.015625-.1123047.0800781-.1591797.2080078-.2080078.144043-.0478516.5283203-.0957031.9443359.0957031.4643555.2089844.6083984.3691406.6723633.640625.0478516.2402344-.0161133.3847656-.0639648.5605469.4960938.3037109,1.6484375.9765625,2.4326172,1.1845703,1.0087891.2880859,1.6328125.2236328,1.96875.3037109.3842773.0644531.8325195.1757812.7685547.640625Zm-6.1464844,4.2734375c-.0161133-1.1044922-.3681641-1.6162109-.7841797-1.6005859-.1923828.0166016-1.3447266.4160156-1.0883789,1.4560547.2397461,1.0410156.7680664,1.5214844,1.2802734,1.5214844.3203125,0,.6245117-.2724609.5922852-1.3769531Zm2.1928711-5.2177734c-.1279297-.0800781-.8481445-.6083984-1.2646484-.9130859-.0317383.2568359-.0639648.7685547-.0957031,1.3769531.4799805-.0644531.8803711-.1123047,1.1044922-.1123047.1757812,0,.4960938-.0322266.5117188-.0957031.0161133-.0478516-.1118164-.1601562-.2558594-.2558594Z"/>
        <path class="cls-1" d="m901.3769531,156.6591797c-1.1040039-2.8007812-1.6962891-3.2011719-2.1445312-3.7939453-.4804688-.671875-.7524414-1.0234375-.800293-1.5195312-.0483398-.4970703.2397461-.9931641.65625-1.6650391,1.1044922-1.7763672,2.2407227-3.2978516,2.3530273-3.5693359.2719727-.625.159668-.9609375,0-1.1044922-.144043-.1279297-.5444336-.3203125-.4165039-.4804688.128418-.1279297.9125977.0800781,1.456543.4638672.512207.3681641.3681641.9121094.2241211,1.1689453-.2719727.5439453-.8481445,1.0244141-1.7285156,2.0966797-.7524414.8964844-1.5048828,1.9042969-1.8725586,2.4335938-.2724609.3994141-.2241211.7353516.0478516,1.0234375.6723633.7363281,3.3613281,3.4101562,3.6015625,5.4589844.0800781.6396484-.0961914.8798828-.4165039.9121094-.512207.0478516-.7363281-.8486328-.9604492-1.4248047Z"/>
        <path class="cls-1" d="m914.2397461,156.1953125c0,1.1679688-.9282227,2.0966797-2.0805664,2.0966797s-2.097168-.9287109-2.097168-2.0966797c0-1.1523438.9448242-2.0810547,2.097168-2.0810547s2.0805664.9287109,2.0805664,2.0810547Zm-.3837891,0c0-.9287109-.7685547-1.6806641-1.6967773-1.6806641-.9287109,0-1.6967773.7519531-1.6967773,1.6806641,0,.9443359.7680664,1.6962891,1.6967773,1.6962891.9282227,0,1.6967773-.7519531,1.6967773-1.6962891Z"/>
      </g>
      <g>
        <path class="cls-1" d="m565.2541504,10.4033203c0-2.8085938,0-3.3134766-.0361328-3.8896484-.0361328-.6113281-.1259766-.9003906-.7207031-1.0253906-.1435547-.0371094-.4492188-.0546875-.6113281-.0546875-.1259766,0-.1982422-.0361328-.1982422-.1074219,0-.1083984.0898438-.1445312.2880859-.1445312.8105469,0,1.9443359.0546875,2.0341797.0546875.2158203,0,1.3505859-.0546875,2.4306641-.0546875,1.7832031,0,5.078125-.1621094,7.2207031,2.0527344.9003906.9365234,1.7460938,2.4306641,1.7460938,4.5732422,0,2.2685547-.9365234,4.0146484-1.9443359,5.0771484-.7744141.8105469-2.3945312,2.0712891-5.4560547,2.0712891-.7734375,0-1.7285156-.0537109-2.5019531-.1083984-.7929688-.0537109-1.4052734-.1074219-1.4951172-.1074219-.0361328,0-.3417969,0-.7197266.0175781-.3603516,0-.7744141.0361328-1.0449219.0361328-.1972656,0-.2880859-.0361328-.2880859-.1445312,0-.0537109.0361328-.1074219.1806641-.1074219.1982422-.0185547.3417969-.0361328.5039062-.0722656.3603516-.0722656.4501953-.4677734.5224609-.9902344.0898438-.7568359.0898438-2.1787109.0898438-3.9072266v-3.1689453Zm1.5126953,1.9443359c0,1.9082031.0175781,3.5654297.0351562,3.9072266.0185547.4501953.0546875,1.1708984.1982422,1.3681641.234375.3427734.9365234.7207031,3.0615234.7207031,1.6738281,0,3.2226562-.6123047,4.2851562-1.6748047.9365234-.9179688,1.4404297-2.6464844,1.4404297-4.3037109,0-2.2861328-.9902344-3.7626953-1.7285156-4.5371094-1.6923828-1.7822266-3.7451172-2.0341797-5.8876953-2.0341797-.3603516,0-1.0263672.0537109-1.1708984.1259766-.1621094.0722656-.2158203.1621094-.2158203.3603516-.0175781.6123047-.0175781,2.4482422-.0175781,3.8349609v2.2324219Z"/>
        <path class="cls-1" d="m584.2258301,11.6455078c0-2.3583984,0-2.7910156-.0361328-3.2763672-.0361328-.5048828-.1621094-.7568359-.6845703-.8652344-.1074219-.0175781-.2880859-.0351562-.4316406-.0351562-.1259766,0-.234375-.0546875-.234375-.1083984,0-.1083984.0898438-.1435547.2705078-.1435547.359375,0,.8457031.0351562,1.8544922.0537109.0898438,0,3.2949219,0,3.6552734-.0185547.359375-.0175781.5576172-.0351562.7021484-.0898438.1074219-.0361328.1259766-.0537109.1972656-.0537109.0361328,0,.0722656.0361328.0722656.1259766,0,.1074219-.1074219.3603516-.1435547.8105469-.0185547.3056641-.0361328.59375-.0546875.9355469,0,.1621094-.0361328.2705078-.1259766.2705078s-.1259766-.0722656-.1259766-.1982422c-.0175781-.2695312-.0712891-.4501953-.1259766-.5761719-.1074219-.359375-.2695312-.4863281-1.1699219-.5400391-.234375-.0185547-2.0166016-.0361328-2.0527344-.0361328-.0537109,0-.0898438.0361328-.0898438.1445312v4.0869141c0,.1083984.0175781.1796875.1074219.1796875.2167969,0,2.0527344-.0175781,2.4306641-.0537109.4140625-.0175781.6845703-.0722656.8291016-.2695312.0712891-.1083984.1259766-.1445312.1972656-.1445312.0361328,0,.0722656.0175781.0722656.1074219,0,.0908203-.0722656.4326172-.1259766.9550781-.0537109.5039062-.0537109.8642578-.0722656,1.0976562-.0175781.1445312-.0537109.1982422-.1259766.1982422-.0898438,0-.1074219-.1083984-.1074219-.2333984,0-.1083984-.0185547-.2890625-.0546875-.4326172-.0722656-.2333984-.1796875-.4863281-.8642578-.5400391-.4140625-.0361328-1.8720703-.0722656-2.1601562-.0722656-.1083984,0-.1259766.0546875-.1259766.1259766v1.3144531c0,.5585938-.0185547,2.1425781,0,2.4492188.0361328.6660156.1259766,1.0078125.5039062,1.1699219.2695312.1259766.7021484.1621094,1.3144531.1621094.3417969,0,.9179688.0185547,1.3681641-.1083984.5400391-.1621094.6660156-.5214844.8105469-1.1875.0361328-.1806641.0898438-.2519531.1621094-.2519531.1074219,0,.1074219.1621094.1074219.2695312,0,.1259766-.1435547,1.2597656-.1972656,1.5664062-.0722656.3603516-.1982422.3964844-.7929688.3964844-1.1884766,0-1.6923828-.0361328-2.3222656-.0361328-.6298828-.0185547-1.4589844-.0537109-2.125-.0537109-.4140625,0-.7558594.0537109-1.1884766.0537109-.1621094,0-.2519531-.0361328-.2519531-.1259766,0-.0722656.0722656-.1259766.1621094-.1259766.1083984,0,.234375-.0185547.3603516-.0537109.3242188-.0722656.5400391-.3066406.5761719-1.4228516.0175781-.6123047.0361328-1.3505859.0361328-2.71875v-2.7011719Z"/>
        <path class="cls-1" d="m598.3381348,14.3828125c0,2.0703125.0712891,3.1142578.3779297,3.4023438.2880859.2519531.6484375.3603516,1.890625.3603516.7919922,0,1.5126953,0,1.9082031-.5039062.1806641-.2705078.3066406-.6298828.3417969-.9003906.0185547-.1435547.0546875-.2158203.1445312-.2158203.0722656,0,.1083984.0537109.1083984.234375,0,.1796875-.1083984,1.2060547-.2167969,1.6201172-.1074219.3603516-.0898438.4501953-.9541016.4501953-1.2246094,0-2.5742188-.0898438-4.375-.0898438-.5947266,0-.9541016.0537109-1.5849609.0537109-.1796875,0-.2880859-.0361328-.2880859-.1445312,0-.0537109.0546875-.1074219.1982422-.1074219.1445312,0,.2880859,0,.4326172-.0361328.3056641-.0546875.4140625-.4140625.4677734-.8466797.1083984-.6845703.0722656-1.9267578.0722656-3.3125v-2.7011719c0-2.3759766,0-2.7724609-.0361328-3.2587891-.0361328-.5039062-.1083984-.828125-.7207031-.9003906-.1074219-.0175781-.3056641-.0175781-.4492188-.0175781-.1269531,0-.1982422-.0546875-.1982422-.1269531,0-.0898438.0898438-.125.2695312-.125.7568359,0,1.8369141.0537109,1.8730469.0537109.2519531,0,1.3505859-.0537109,1.8544922-.0537109.1796875,0,.234375.0537109.234375.125,0,.0722656-.0908203.1269531-.1982422.1269531-.1259766,0-.3066406.0175781-.4863281.0351562-.5039062.0722656-.6123047.3603516-.6484375.8828125-.0361328.4863281-.0175781.8828125-.0175781,3.2587891v2.7373047Z"/>
        <path class="cls-1" d="m609.1730957,11.6455078c0-2.3759766,0-2.8085938-.0361328-3.2949219s-.1445312-.7558594-.5224609-.828125c-.1796875-.0361328-.3056641-.0361328-.4140625-.0537109-.1259766-.0185547-.1982422-.0546875-.1982422-.1269531,0-.0898438.0722656-.125.2705078-.125.5585938,0,1.5839844.0537109,1.6386719.0537109.0722656,0,1.1162109-.0537109,1.6201172-.0537109.1806641,0,.2705078.0351562.2705078.125,0,.0722656-.0546875.1083984-.1982422.1269531-.1083984.0175781-.1982422.0175781-.3242188.0351562-.5224609.0722656-.5761719.3427734-.6123047.8652344-.0361328.4853516-.0175781.9003906-.0175781,3.2763672v2.7011719c0,1.3857422-.0185547,2.6464844.0712891,3.2949219.0722656.5224609.1445312.7197266.6123047.828125.234375.0537109.6123047.0722656.6845703.0722656.1621094.0175781.1982422.0537109.1982422.1259766s-.0722656.1259766-.2519531.1259766c-.9189453,0-1.9628906-.0537109-2.0527344-.0537109-.0546875,0-1.1162109.0537109-1.6210938.0537109-.1621094,0-.2880859-.0361328-.2880859-.1259766,0-.0722656.0722656-.1259766.234375-.1259766.0898438,0,.2880859-.0185547.4326172-.0537109.3056641-.0722656.359375-.4326172.4140625-.8652344.0898438-.6484375.0898438-1.9257812.0898438-3.2763672v-2.7011719Z"/>
        <path class="cls-1" d="m617.7580566,8.6933594c-.3603516-.8466797-.4863281-1.0625-1.1347656-1.1708984-.2519531-.0361328-.4501953-.0537109-.5400391-.0537109-.1435547,0-.2158203-.0546875-.2158203-.1269531,0-.0898438.1259766-.125.2880859-.125.828125,0,1.8730469.0537109,2.0527344.0537109.1621094,0,1.0078125-.0537109,1.6748047-.0537109.2158203,0,.2880859.0351562.2880859.1074219,0,.0898438-.0722656.1445312-.2705078.1445312-.2519531,0-.4140625.0351562-.5576172.0898438-.1621094.0898438-.1621094.1972656-.1621094.3056641,0,.1259766.1074219.4677734.2880859.9003906l3.1689453,7.9580078c.8994141-1.9980469,2.9707031-7.2197266,3.2949219-8.2998047.0898438-.234375.1435547-.4677734.1435547-.5947266,0-.1074219-.0175781-.2333984-.1621094-.2871094-.1435547-.0546875-.3779297-.0722656-.5761719-.0722656-.1259766,0-.2333984-.0361328-.2333984-.1083984,0-.0898438.0537109-.1435547.2695312-.1435547.6484375,0,1.5126953.0537109,1.7109375.0537109.0712891,0,.7919922-.0537109,1.2421875-.0537109.1796875,0,.2695312.0351562.2695312.1074219,0,.0898438-.0712891.1445312-.1972656.1445312-.2167969,0-.4501953,0-.7744141.1796875-.1982422.1445312-.4140625.3603516-.8466797,1.4042969-.0898438.2167969-.9902344,2.2871094-1.8007812,4.1416016-.9541016,2.2324219-1.6923828,3.9248047-1.9980469,4.5371094-.4863281.9902344-.5400391,1.2607422-.7207031,1.2607422-.2158203,0-.3056641-.2167969-.6113281-1.0087891l-3.8896484-9.2900391Z"/>
        <path class="cls-1" d="m633.7609863,11.6455078c0-2.3583984,0-2.7910156-.0361328-3.2763672-.0361328-.5048828-.1621094-.7568359-.6845703-.8652344-.1074219-.0175781-.2880859-.0351562-.4316406-.0351562-.1259766,0-.234375-.0546875-.234375-.1083984,0-.1083984.0898438-.1435547.2705078-.1435547.359375,0,.8457031.0351562,1.8544922.0537109.0898438,0,3.2949219,0,3.6552734-.0185547.359375-.0175781.5576172-.0351562.7021484-.0898438.1074219-.0361328.1259766-.0537109.1972656-.0537109.0361328,0,.0722656.0361328.0722656.1259766,0,.1074219-.1074219.3603516-.1435547.8105469-.0185547.3056641-.0361328.59375-.0546875.9355469,0,.1621094-.0361328.2705078-.1259766.2705078s-.1259766-.0722656-.1259766-.1982422c-.0175781-.2695312-.0712891-.4501953-.1259766-.5761719-.1074219-.359375-.2695312-.4863281-1.1699219-.5400391-.234375-.0185547-2.0166016-.0361328-2.0527344-.0361328-.0537109,0-.0898438.0361328-.0898438.1445312v4.0869141c0,.1083984.0175781.1796875.1074219.1796875.2167969,0,2.0527344-.0175781,2.4306641-.0537109.4140625-.0175781.6845703-.0722656.8291016-.2695312.0712891-.1083984.1259766-.1445312.1972656-.1445312.0361328,0,.0722656.0175781.0722656.1074219,0,.0908203-.0722656.4326172-.1259766.9550781-.0537109.5039062-.0537109.8642578-.0722656,1.0976562-.0175781.1445312-.0537109.1982422-.1259766.1982422-.0898438,0-.1074219-.1083984-.1074219-.2333984,0-.1083984-.0185547-.2890625-.0546875-.4326172-.0722656-.2333984-.1796875-.4863281-.8642578-.5400391-.4140625-.0361328-1.8720703-.0722656-2.1601562-.0722656-.1083984,0-.1259766.0546875-.1259766.1259766v1.3144531c0,.5585938-.0185547,2.1425781,0,2.4492188.0361328.6660156.1259766,1.0078125.5039062,1.1699219.2695312.1259766.7021484.1621094,1.3144531.1621094.3417969,0,.9179688.0185547,1.3681641-.1083984.5400391-.1621094.6660156-.5214844.8105469-1.1875.0361328-.1806641.0898438-.2519531.1621094-.2519531.1074219,0,.1074219.1621094.1074219.2695312,0,.1259766-.1435547,1.2597656-.1972656,1.5664062-.0722656.3603516-.1982422.3964844-.7929688.3964844-1.1884766,0-1.6923828-.0361328-2.3222656-.0361328-.6298828-.0185547-1.4589844-.0537109-2.125-.0537109-.4140625,0-.7558594.0537109-1.1884766.0537109-.1621094,0-.2519531-.0361328-.2519531-.1259766,0-.0722656.0722656-.1259766.1621094-.1259766.1083984,0,.234375-.0185547.3603516-.0537109.3242188-.0722656.5400391-.3066406.5761719-1.4228516.0175781-.6123047.0361328-1.3505859.0361328-2.71875v-2.7011719Z"/>
        <path class="cls-1" d="m646.4143066,11.6455078c0-2.3759766,0-2.8085938-.0361328-3.2949219-.0351562-.4863281-.1621094-.7558594-.7197266-.8642578-.1083984-.0175781-.2880859-.0361328-.4326172-.0361328-.1259766,0-.1972656-.0361328-.1972656-.1083984,0-.0712891.0537109-.125.2158203-.125.7744141,0,1.8720703.0537109,1.9082031.0537109.1621094,0,1.3867188-.0537109,1.890625-.0537109,1.0087891,0,2.1064453.0898438,2.953125.6835938.3417969.2519531,1.0800781.9726562,1.0800781,2.1972656,0,.9902344-.4863281,2.25-1.9082031,3.4023438,1.3144531,1.6210938,2.3945312,2.953125,3.3125,3.9072266.8642578.8818359,1.4042969,1.0263672,1.9091797,1.0986328.1259766.0175781.5039062.0361328.5576172.0361328.1445312,0,.1982422.0537109.1982422.1259766,0,.0898438-.0722656.1259766-.3242188.1259766h-1.2597656c-.8466797,0-1.2431641-.0537109-1.6386719-.2158203-.7568359-.3242188-1.296875-1.1347656-2.2333984-2.3408203-.7021484-.8642578-1.421875-1.8369141-1.7285156-2.2148438-.0712891-.0722656-.1074219-.1083984-.2158203-.1083984l-1.8544922-.0175781c-.0722656,0-.0898438.0175781-.0898438.0898438v.2519531c0,1.4404297,0,2.7548828.0898438,3.4033203.0537109.4316406.1083984.7919922.7021484.8642578.1806641.0175781.3779297.0361328.5224609.0361328.1621094,0,.234375.0537109.234375.1074219,0,.0908203-.0722656.1445312-.2529297.1445312-.9355469,0-1.9443359-.0537109-2.0166016-.0537109-.2880859,0-1.0800781.0537109-1.5664062.0537109-.1796875,0-.2519531-.0361328-.2519531-.1445312,0-.0537109.1083984-.1074219.2158203-.1074219.1269531,0,.2529297,0,.3964844-.0361328.3066406-.0546875.4140625-.2519531.46875-.6845703.0898438-.6474609.0712891-2.1240234.0712891-3.4746094v-2.7011719Zm1.3867188,1.2783203c0,.0898438.0175781.1796875.0898438.2167969.234375.125.9541016.2333984,1.6025391.2333984.3779297,0,.828125-.0175781,1.2060547-.2705078.5400391-.3417969.9003906-1.1337891.9003906-2.2861328,0-1.9628906-1.0439453-3.0429688-2.6464844-3.0429688-.4501953,0-.828125.0361328-1.0439453.0898438-.0546875.0185547-.1083984.0722656-.1083984.1621094v4.8974609Z"/>
        <path class="cls-1" d="m663.0285645,14.8691406c0-.8652344-.1259766-1.1894531-.3955078-1.6572266-.1083984-.1982422-2.1972656-3.6005859-2.7548828-4.375-.4863281-.6845703-.6660156-.9003906-.9189453-1.0986328-.2519531-.1796875-.4853516-.2519531-.8457031-.2695312-.1083984,0-.1982422-.0546875-.1982422-.1445312,0-.0537109.0722656-.1074219.2158203-.1074219.2880859,0,1.6572266.0537109,1.6923828.0537109.1083984,0,.7021484-.0537109,1.3691406-.0537109.1796875,0,.2333984.0537109.2333984.1074219,0,.0722656-.0537109.1083984-.1982422.1445312-.2519531.0537109-.2871094.1435547-.2871094.2871094,0,.1806641.1074219.3613281.2333984.5947266.234375.4501953,2.6113281,4.2675781,2.8808594,4.7177734.2880859-.6308594,2.3046875-3.9257812,2.5566406-4.375.3427734-.5947266.4140625-.7568359.4140625-.9550781,0-.234375-.2158203-.234375-.4140625-.2695312-.1435547-.0185547-.1982422-.0722656-.1982422-.1445312,0-.0537109.0361328-.1074219.2167969-.1074219.4316406,0,.8095703.0537109,1.0976562.0537109.234375,0,1.2792969-.0537109,1.5849609-.0537109.1621094,0,.2158203.0537109.2158203.1074219,0,.0898438-.0898438.1445312-.2158203.1445312-.3779297.0175781-.6484375.0537109-.9003906.2333984-.2705078.1806641-.3779297.3427734-.6660156.7382812-1.0439453,1.4404297-2.7910156,4.3759766-3.0615234,5.0058594-.2158203.5576172-.1796875.9541016-.1796875,1.4228516v1.3144531c0,.125,0,.7910156.0361328,1.4394531.0361328.4326172.0722656.7382812.6298828.8466797.234375.0537109.5400391.0722656.6660156.0722656.1445312,0,.1982422.0537109.1982422.1074219,0,.0908203-.0537109.1445312-.2158203.1445312-.9003906,0-2.0166016-.0537109-2.0703125-.0537109-.0361328,0-1.1162109.0537109-1.6210938.0537109-.1796875,0-.2519531-.0537109-.2519531-.1445312,0-.0537109.0546875-.1074219.1806641-.1074219.1435547,0,.3056641-.0185547.4501953-.0537109.3056641-.0546875.4316406-.4326172.4677734-.8652344.0537109-.6484375.0537109-1.2958984.0537109-1.4394531v-1.3144531Z"/>
        <path class="cls-1" d="m683.7277832,10.4033203c0-2.8085938,0-3.3134766-.0361328-3.8896484-.0361328-.6113281-.1796875-.9003906-.7744141-1.0253906-.1435547-.0371094-.4501953-.0546875-.5214844-.0546875-.1621094,0-.234375-.0361328-.234375-.1074219,0-.1083984.0898438-.1445312.2880859-.1445312.8095703,0,1.9443359.0546875,2.0341797.0546875.4326172,0,1.1347656-.0546875,1.9628906-.0546875,2.953125,0,3.6005859,1.8007812,3.6005859,2.7011719,0,1.4765625-.8457031,2.3583984-1.6923828,3.2402344,1.3330078.4140625,3.1152344,1.6933594,3.1152344,3.7998047,0,1.9267578-1.5126953,3.9248047-4.5917969,3.9248047-.1972656,0-.7734375-.0361328-1.2958984-.0537109-.5224609-.0361328-1.0263672-.0537109-1.0986328-.0537109-.5761719,0-1.1337891.0537109-1.7646484.0537109-.1972656,0-.2880859-.0361328-.2880859-.1259766,0-.0546875.0361328-.1259766.2705078-.1259766.1435547,0,.2705078-.0185547.4316406-.0537109.3603516-.0722656.4326172-.4863281.5048828-1.0087891.0898438-.7568359.0898438-2.1787109.0898438-3.9072266v-3.1689453Zm1.4404297.3955078c0,.1269531.0361328.1621094.1259766.1992188.1083984.0175781.4316406.0712891,1.0986328.0712891,1.0078125,0,1.2597656-.0361328,1.6376953-.4677734.3789062-.4326172.6484375-1.0800781.6484375-1.8183594,0-1.4951172-.6660156-3.0976562-2.4306641-3.0976562-.1982422,0-.5761719.0185547-.8642578.0898438-.1621094.0371094-.2158203.0908203-.2158203.1982422v4.8251953Zm0,1.9091797c0,1.3857422,0,3.6191406.0175781,3.8896484.0546875.8818359.0546875,1.1337891.6123047,1.4042969.4863281.2333984,1.2607422.2695312,1.5849609.2695312.9716797,0,2.5380859-.5214844,2.5380859-2.5566406,0-1.0800781-.359375-2.6464844-1.7460938-3.6015625-.6123047-.4140625-1.0625-.4677734-1.4941406-.5214844-.234375-.0361328-1.1347656-.0361328-1.4042969-.0361328-.0722656,0-.1083984.0361328-.1083984.1259766v1.0263672Z"/>
        <path class="cls-1" d="m696.7229004,12.9785156c0-2.3955078,1.8544922-5.9785156,6.3017578-5.9785156,3.5654297,0,6.2841797,2.125,6.2841797,5.7441406,0,3.4394531-2.5390625,6.2480469-6.3740234,6.2480469-4.4111328,0-6.2119141-3.2773438-6.2119141-6.0136719Zm10.8935547.2158203c0-3.6191406-2.2324219-5.6357422-4.6992188-5.6357422-2.5029297,0-4.5195312,1.5488281-4.5195312,4.9511719,0,3.5292969,1.9619141,5.8701172,4.9873047,5.8701172,1.2060547,0,4.2314453-.6123047,4.2314453-5.1855469Z"/>
        <path class="cls-1" d="m717.8381348,12.90625l-2.5566406-4.1416016c-.4326172-.6845703-.6484375-1.0263672-1.1708984-1.1884766-.2695312-.0898438-.5400391-.1074219-.6298828-.1074219-.1796875,0-.234375-.0722656-.234375-.1269531,0-.0712891.0546875-.125.2705078-.125.4140625,0,1.8359375.0537109,1.9443359.0537109.1445312,0,.9902344-.0537109,1.5488281-.0537109.2333984,0,.2880859.0351562.2880859.1074219,0,.0898438-.0722656.1445312-.2167969.1445312-.0898438,0-.3232422.0175781-.4316406.0537109-.1259766.0361328-.1796875.1259766-.1796875.2158203,0,.1621094.0712891.3066406.2158203.5585938.7382812,1.3496094,1.2607422,2.2324219,2.0888672,3.546875.4677734-.6660156,2.1240234-3.1689453,2.2685547-3.5117188.1259766-.2333984.1982422-.3417969.1982422-.5390625,0-.1083984-.0546875-.2519531-.3242188-.2890625-.1259766-.0175781-.3066406-.0351562-.3964844-.0351562-.1259766,0-.2158203-.0546875-.2158203-.1445312,0-.0537109.0537109-.1074219.2519531-.1074219.6484375,0,1.3681641.0537109,1.4941406.0537109.1445312,0,.8466797-.0537109,1.4228516-.0537109.1621094,0,.2158203.0537109.2158203.1074219,0,.0898438-.0898438.1445312-.1982422.1445312-.1621094,0-.3779297.0351562-.5761719.0898438-.4316406.1259766-.7558594.6484375-1.1699219,1.2246094l-2.5390625,3.6542969c.3242188.5039062,3.0068359,4.9160156,3.3496094,5.3300781.2158203.2695312.4492188.59375.8994141.7021484.234375.0537109.4140625.0722656.4863281.0722656.1806641,0,.2158203.0712891.2158203.1259766,0,.0898438-.0712891.1259766-.2333984.1259766-1.0087891,0-2.0166016.0175781-2.8994141-.0361328-.2880859-.0175781-.2695312-.0722656-.2695312-.1621094,0-.0537109.0722656-.0722656.1796875-.1074219.1796875-.0546875.1259766-.1992188-.0175781-.4326172-.828125-1.4951172-1.7285156-2.9707031-2.6474609-4.4658203l-2.4306641,3.9609375c-.1259766.2167969-.2695312.5048828-.2695312.6669922,0,.1435547.1074219.2705078.3242188.3056641.1074219.0185547.1259766.0185547.2158203.0185547.1621094,0,.2158203.0537109.2158203.1259766s-.0537109.1259766-.1982422.1259766c-.3779297,0-1.4404297-.0537109-1.5839844-.0537109-.1083984,0-.828125.0537109-1.3867188.0537109-.1796875,0-.234375-.0722656-.234375-.1259766,0-.0722656.0722656-.1259766.1982422-.1259766.1083984,0,.2705078-.0185547.5224609-.0722656.4677734-.1259766.8105469-.4677734,1.3144531-1.2246094l2.8808594-4.3388672Z"/>
      </g>
      <g>
        <path class="cls-1" d="m539.8000488,53.234375v-5.7587891c2.4794922.0400391,3.7197266.3203125,3.7197266.8798828,0,.2802734-.5595703.640625-1.5996094,1v3.8789062h10.9980469l1.5195312-1.8388672c1.7998047,1.6796875,2.7197266,2.7587891,2.7197266,3.2792969,0,.2802734-.1601562.3994141-.5195312.4394531l-1.2001953.2001953c-.9599609,1.2001953-2.0400391,2.4394531-3.3994141,3.6396484l-.6796875-.5205078c.7197266-1.359375,1.3193359-2.7597656,1.6796875-4.2792969h-23.6367188v.6796875c0,1.7207031-.3193359,3.1201172-.8789062,4.2402344-.5205078.9589844-1.0800781,1.4394531-1.7998047,1.4394531-.3203125,0-.6806641-.1601562-1-.4804688-.2802734-.2392578-.4003906-.5195312-.4003906-.8398438,0-.3994141.2402344-.7988281.6796875-1.2792969,1.3203125-1.3203125,2-3.3994141,2.2001953-6.1591797l.9199219.0800781c.1201172.6005859.1601562,1.0400391.2001953,1.3994141h10.4775391Zm-1.7197266,7.9189453c-3.5986328.8798828-7.078125,1.5996094-10.4775391,2.1201172l-.4804688-.8798828c8.0791016-1.5595703,14.6376953-3.6796875,19.5966797-6.3994141,1.7998047,1.0400391,2.7197266,1.7998047,2.7197266,2.2402344,0,.1992188-.2802734.3193359-.7597656.3193359-.3603516,0-.7998047-.0800781-1.2802734-.1591797-2.3994141.8789062-4.7988281,1.6386719-7.1582031,2.2392578v6.71875l11.3574219-1.5595703,1.7597656-2.7597656c1,.6396484,2.0400391,1.4394531,3.1601562,2.3994141l-.4003906.7597656-15.8769531,2.1601562v7.0380859c0,.640625.2001953,1,.5996094,1.2001953.4804688.1201172,2.3193359.2402344,5.4794922.2402344,3.1191406,0,4.9589844-.1201172,5.5585938-.3203125.8398438-.3193359,1.5195312-2.2392578,1.8798828-5.7587891l.9599609.4394531c-.0400391.4804688-.0400391,1.0400391-.0400391,1.5996094,0,1.640625.1601562,2.6796875.3994141,3.0800781.1601562.3203125.5205078.4394531,1.1201172.4394531-.1201172,1.2802734-.7597656,1.9599609-1.9199219,2.1201172-1.2392578.2001953-3.71875.3193359-7.3583984.3193359-4.5996094,0-7.2392578-.1591797-7.9189453-.5595703-.6396484-.359375-.9199219-1.1201172-.9199219-2.3193359v-7.1992188l-12.2373047,1.6796875-.4804688-.9589844,12.7177734-1.7207031v-6.5185547Z"/>
        <path class="cls-1" d="m570.3615723,56.4345703v-5.5195312h-5.5185547l-.2802734-.9199219h13.3974609l1.8398438-2.359375c.8798828.7998047,1.6396484,1.6396484,2.3203125,2.6396484l-.4404297.6396484h-5.71875v5.5195312h2.1591797l1.2802734-1.6396484c1.3994141,1.1591797,2.0791016,1.8789062,2.0791016,2.1191406,0,.2001953-.1201172.3603516-.3193359.5195312l-.7597656.5205078v21.7568359h-2.0400391v-2.6796875h-10.2382812v2.6796875h-2.0400391v-24.3564453c1.3203125.5996094,2.1201172.9199219,2.3203125,1.0800781h1.9589844Zm-2.2392578.8798828v13.4775391h10.2382812v-4.1591797h-1.8798828c-1.0800781,0-1.8398438-.2402344-2.1191406-.7207031-.1201172-.2392578-.2402344-.71875-.2402344-1.2792969v-7.3183594h-1.9199219c-.0400391,4.9589844-1.1191406,8.7988281-3.0791016,11.5175781l-.7597656-.5195312c1.2792969-2.7998047,1.9589844-6.4394531,1.9990234-10.9980469h-2.2392578Zm10.2382812,18.8359375v-4.4785156h-10.2382812v4.4785156h10.2382812Zm-4.2392578-19.7158203v-5.5195312h-1.9199219v5.5195312h1.9199219Zm1.8398438.8798828v6.8789062c0,.5195312.2402344.7998047.7998047.7998047h1.5996094v-7.6787109h-2.3994141Zm9.4785156,5.1191406v13.5576172c0,.5195312.1601562.8798828.4794922,1,.3203125.1591797,1.4394531.2792969,3.3193359.2792969,2.1201172,0,3.4394531-.1201172,3.9599609-.3193359.9589844-.3203125,1.4794922-2.5595703,1.6396484-6.5996094l.9599609.3603516c0,2.5996094.0791016,4.1992188.2392578,4.8789062.2001953.7998047.6796875,1.2001953,1.4404297,1.2001953-.0400391,1.1992188-.5605469,1.8798828-1.6396484,2.0800781-1.0400391.1992188-2.9199219.2792969-5.6796875.2792969-3.3193359,0-5.2792969-.1601562-5.8789062-.4394531-.5996094-.3203125-.9599609-1.0400391-.9599609-2.1201172v-16.2373047c.6396484.2402344,1.4394531.640625,2.4394531,1.1601562h7.1191406v-10.5986328h-9.7587891l-.359375-.9199219h9.7177734l1.4804688-1.8388672c1.4394531,1.2392578,2.1591797,1.9990234,2.1591797,2.3193359,0,.2001953-.1201172.3193359-.2792969.4394531l-.9199219.5595703v13.2783203h-2.0400391v-2.3193359h-7.4384766Z"/>
        <path class="cls-1" d="m607.1223145,72.4316406c-.4394531-.7597656.0400391-1.6396484.8798828-2.0390625.6796875-.3203125,1.3203125-.7607422,2.359375-1.7207031,1-.9199219,1.5205078-1.6796875,1.7197266-2.1191406.1601562-.4003906.4003906-.8798828.8398438-.8398438.4003906,0,.5605469.4394531.5605469,1.0400391,0,.9599609-.2402344,2.1992188-.9599609,3.4794922-.7597656,1.3193359-1.5996094,2.1591797-2.5595703,2.5996094-1.0400391.4394531-2.2402344.5595703-2.8398438-.4003906Zm.5205078-14.9179688c.4394531-.3994141,1.5996094.1601562,2.5996094.3603516.9990234.2402344,2.0791016.2802734,3.3994141.2402344,1.2792969-.0400391,4.2792969-.1601562,6.4384766-.2402344,0-1.2802734-.0400391-2.2792969-.1201172-2.9599609-.1201172-1.0390625-.4794922-1.8789062-.9199219-2.359375-.5195312-.5996094-1.0400391-1.2792969-.7998047-1.7988281.1201172-.4404297.7197266-.6005859,1.4394531-.4404297.6806641.1601562,1.4003906.4404297,2.2802734,1.2802734.8798828.7988281.7597656,1.8388672.5996094,2.2792969-.2001953.3994141-.2802734,1.0800781-.3203125,2.1992188v1.6396484c1.3203125-.0800781,2.4804688-.1591797,3.5996094-.2392578,1.6396484-.1601562,3.3994141-.4804688,4.5595703-.6806641,1.1992188-.2392578,1.9599609-.1591797,2.6396484.2402344s1.1992188.8798828,1.0800781,1.4794922c-.0800781.5605469-.7607422.7597656-1.7597656.5996094-.9199219-.1591797-1.8798828-.3193359-3.6396484-.3193359-1.6396484,0-4.5996094.2001953-6.4794922.3603516-.0390625,1.0390625-.0791016,2.1191406-.0791016,3.0390625-.0400391,2.1191406-.1201172,4.6796875-.0400391,6.1191406.0800781,1.4794922.2792969,3.4794922.3193359,4.5996094.0400391,1.1191406-.0800781,2.4394531-.6396484,3.0791016s-1.0800781.7197266-1.7597656.2802734c-.6396484-.4003906-.6796875-1.4804688-1-2.3603516-.2792969-.9199219-1.0400391-1.7998047-1.8398438-2.1191406-.5996094-.2402344-.359375-.8398438,0-.7197266.4404297.0800781.7207031.0800781,1.5205078.1601562.8398438.1191406,1.1591797-.4003906,1.1992188-1.1201172.0400391-.7607422.0400391-1.8798828.0800781-3.9199219,0-2.0390625.0800781-3.2792969.0800781-5.9189453v-.9599609c-1.3193359.1201172-2.7197266.2802734-4.1992188.4003906-2.0400391.2392578-3.4394531.3603516-4.5996094.3603516-1.1591797.0390625-2.0791016,0-2.9990234-.7207031-.8398438-.6796875-1.1201172-1.359375-.6396484-1.8398438Zm24.1152344-4.9189453c-.5595703-.5595703-1.3193359-1.1591797-2.3193359-1.8388672-.3603516-.2011719-.5195312-.5205078-.3603516-.8007812.1601562-.1601562.4804688-.1191406.7207031-.1191406.5996094,0,1.3193359.1591797,2.1591797.4794922.7998047.2802734,2,.9199219,2.3994141,1.5996094.3603516.6796875,0,1.2802734-.5996094,1.4394531-.5595703.1601562-1.4394531-.1591797-2-.7597656Zm3.0400391,17.3574219c.7597656,1.9199219.3994141,2.7597656-.5605469,3.1992188-.7998047.3603516-1.7197266,0-2.2392578-.7197266-.4394531-.6396484-.7197266-1.5996094-.9599609-2.8798828-.2402344-1.2392578-.7597656-2.359375-1.4794922-3.1992188-.4404297-.5195312-.5996094-.7597656-.4003906-1.1201172.2001953-.3193359.640625-.1992188,1.1201172,0,.5195312.2001953.9599609.4404297,2,1.1601562,1.1591797.7998047,1.7998047,1.7998047,2.5195312,3.5595703Zm.1201172-18.9970703c-.6005859-.7597656-1.2802734-1.1191406-2.4794922-1.6396484-.3203125-.1601562-.4804688-.4794922-.3603516-.7998047.1601562-.1601562.4794922-.1601562.6796875-.1601562.6396484,0,1.3603516.1601562,2.2001953.4003906s2.0390625.8398438,2.4394531,1.4794922c.4394531.6796875.0800781,1.2802734-.4404297,1.4794922-.5996094.1601562-1.5195312-.1191406-2.0390625-.7597656Z"/>
        <path class="cls-1" d="m652.2414551,77.3505859c.6396484-.1201172,1.2402344-.2001953,2.5996094-.7197266,1.9599609-.6796875,3.4794922-1.5195312,4.8789062-2.5996094,1.4003906-1.1191406,2.6396484-2.6796875,3.6796875-3.9990234,1.0400391-1.3203125,2.1201172-3.0400391,2.7998047-4.7998047.6396484-1.7988281.9599609-3.0791016,1.1591797-4.2792969.2001953-1.2392578-.0390625-2.4794922-.4394531-3.1591797-.4404297-.7197266-.7597656-1.3994141-.4003906-1.7197266.6005859-.5195312,1.8798828.2402344,2.4404297.7197266.5595703.4003906.9990234.9599609,1.359375,1.6796875s.0400391,1.4794922-.2802734,2.0800781c-.2792969.5595703-.8398438,2.7197266-1.7597656,4.7197266-.9589844,1.9990234-1.9189453,3.6386719-3.2792969,5.3183594-1.4394531,1.7998047-2.8789062,3.0390625-4.1191406,3.9589844-1.1601562.9199219-2.5996094,1.8398438-4.3994141,2.5605469-1.4794922.5996094-2.5996094.9589844-4.0791016.9990234-.4394531.0400391-.8398438-.0400391-.8398438-.3193359,0-.2402344.2001953-.3203125.6796875-.4404297Zm.3203125-16.0371094c-.2802734-.2802734-.6796875-.7597656-.4804688-.9599609.4003906-.4394531,1.1201172-.0800781,1.7998047.4394531.9199219.7607422,1.5195312,1.640625,1.8798828,2.7207031.3603516,1.0791016,0,1.7597656-.5996094,1.9189453-.5605469.1201172-1.1201172-.2392578-1.3603516-.6796875-.2392578-.3994141-.2792969-1.1201172-.4394531-1.7998047-.1201172-.7197266-.5205078-1.3994141-.7998047-1.6396484Zm5.6787109-2.1201172c-.1601562-.4794922-.3193359-.8789062-.5996094-1.1591797s-.7197266-.6796875-.4404297-.9199219c.3203125-.2802734,1,.0800781,1.4404297.3994141.5195312.4003906,1.3193359,1.0800781,1.7998047,2.2802734.3193359.6796875.3994141,1.9599609-.3203125,2.2392578-.7597656.3203125-1.4394531-.0800781-1.5595703-.9199219-.1201172-.6796875-.2001953-1.4394531-.3203125-1.9199219Z"/>
        <path class="cls-1" d="m711.958252,55.3144531c.5195312.4394531.7197266.8398438.6396484,1.1601562-.0800781.3193359-.4794922.6796875-1.0390625,1.0390625-.640625.3203125-1.0800781,1.4804688-1.5605469,2.5195312-.6396484,1.4003906-1.7197266,3.1601562-3.359375,5.3994141-1.5996094,2.2001953-2.7988281,3.5595703-4.3193359,4.9599609-1.5195312,1.3994141-3.4794922,2.9189453-5.8388672,4.078125-2.3193359,1.2001953-3.5595703,1.8398438-6.1191406,2.7207031-.4794922.1591797-.8398438.0390625-.9199219-.2402344-.0400391-.2402344.2802734-.4003906.6005859-.5205078,1.9199219-.6796875,3.0390625-1.2792969,4.8388672-2.3994141,1.7597656-1.1191406,3.6396484-2.7197266,4.8789062-3.8398438,1.7197266-1.4794922,3.2402344-3.3183594,4.3994141-5.0390625,1.2001953-1.71875,1.9599609-3.1191406,2.7197266-4.7587891.7597656-1.7197266.9199219-2.7998047,1.0400391-3.2392578s0-.8798828-.1201172-1c-.1601562-.0800781-.6796875-.0800781-.8798828-.0800781h-3.4394531c-.5595703.0400391-1.3994141.0400391-1.9599609.0400391-.359375.7597656-.8398438,1.5595703-1.2792969,2.2802734-1.2402344,1.9589844-2.4794922,3.3183594-4.1191406,4.71875-1.6396484,1.3994141-2.9599609,2.1601562-4.9199219,2.9589844-.3193359.1201172-.7197266.1201172-.8398438-.1191406-.1191406-.2802734.2402344-.5205078.5205078-.6796875,1.5996094-.8808594,2.8789062-1.8007812,4.1591797-3.0400391,1.1992188-1.2001953,2.5195312-2.9199219,3.3193359-4.2792969.7998047-1.3193359,1.359375-2.5996094,1.7197266-3.6396484.4003906-1,.4003906-1.6796875.3603516-2.1191406-.0400391-.4003906-.4404297-.8398438-.8007812-1.1601562-.359375-.3203125-.5996094-.8798828-.3193359-1.1601562.3193359-.359375,1-.1601562,1.7197266.0800781.7197266.2802734,1.5195312.6796875,1.9199219,1.1201172.4394531.4794922.3193359,1.2001953,0,2.1201172-.0800781.3193359-.3603516.7988281-.640625,1.4394531.2802734.0400391.6806641.1201172,1.0400391.1601562.7998047.0800781,1.7998047.0800781,2.7597656,0s1.5595703-.4003906,2.1591797-.7597656c.5605469-.3203125,1.1601562-.3203125,1.9199219.0390625.7998047.3603516,1.3203125.8007812,1.7597656,1.2402344Z"/>
        <path class="cls-1" d="m726.2424316,75.6708984c-.0800781-.2392578.4404297-.5595703.8398438-.7597656,1.6396484-.7597656,2.8798828-1.4394531,4.1191406-2.2392578,1.2402344-.7597656,2.5195312-1.7597656,4.1992188-3.2792969,1.7197266-1.5205078,2.8398438-2.7197266,4.0400391-4.0800781,1.2392578-1.359375,2.8388672-3.6386719,3.9189453-5.3183594,1.0800781-1.7207031,1.7597656-2.9199219,2-3.8798828.2402344-.9199219-.3603516-1.359375-1.5195312-1-.7607422.2402344-1.2402344.3203125-2.6396484.6396484-1.4003906.3203125-2.3603516.5205078-3.6396484.5605469-1.2802734,0-2.5195312-.4394531-3.2392578-1-.9599609-.8398438-1.1601562-1.7597656-.7197266-2.1992188.359375-.4003906,1.0791016-.4404297,1.5996094-.1201172.5595703.359375,1.2392578.6396484,1.9589844.8398438,1.2001953.2802734,3.0400391.2392578,4.8798828-.0800781,1.8398438-.3203125,3.0791016-.7197266,3.5986328-.9199219.5605469-.2001953,1.2802734-.6796875,2.0800781-.2402344.8398438.4404297,1.359375,1.2001953,1.5195312,2.5996094.1601562,1.4404297-.359375,2.0800781-1.1591797,2.7197266-.640625.5195312-1.1601562,1-2.1601562,2.2792969-.7998047,1.1201172-1.8798828,2.5996094-3.359375,4.3994141,1.3203125.3603516,2.9599609.9199219,4.359375,1.8398438,1.6796875,1.0400391,2.8798828,2.2001953,3.6396484,3.1992188.7998047.9599609,1.5195312,3.0800781.359375,3.7998047-1.2392578.7597656-2.4394531-.5605469-3.0390625-1.6396484-.6396484-1.1201172-1.2802734-2.3994141-2.3994141-3.8398438-1.0400391-1.3193359-2.1601562-2.1191406-3.5195312-2.7197266-.0400391.0410156-.0800781.1201172-.0800781.1601562-1.9199219,2.1601562-3.359375,3.5195312-4.9990234,4.9199219-1.5996094,1.3994141-3,2.359375-4.8398438,3.3984375-1.2392578.7597656-3.2792969,1.640625-4.5986328,2.0800781-.6396484.2001953-1.1201172.1601562-1.2001953-.1201172Z"/>
      </g>
    </g>
  </g>
</svg>