<?xml version="1.0" encoding="UTF-8"?>
<svg id="_レイヤー_2" data-name="レイヤー 2" xmlns="http://www.w3.org/2000/svg" viewBox="0 0 237.7600098 16.1972656">
  <defs>
    <style>
      .cls-1 {
        fill: #fff;
      }
    </style>
  </defs>
  <g id="_レイヤー_1-2" data-name="レイヤー 1">
    <g>
      <path class="cls-1" d="m3.6015625,15.4619141h-.864502V6.3232422c-.3840332.5595703-.9924316,1.4082031-1.6486816,2.0800781l-.6081543-.8164062C1.8408203,6.2431641,3.8095703,3.0888672,4.4018555.6884766l.8803711.2402344c-.1281738.5117188-.4001465,1.6328125-1.6806641,3.953125v10.5800781ZM10.4841309.7685547v4.6738281h4.8500977v.8320312h-4.8500977v7.6035156h4.4179688v.8320312H5.2341309v-.8320312h4.3376465v-7.6035156h-4.8659668v-.8320312h4.8659668V.7685547h.9123535Z"/>
      <path class="cls-1" d="m21.8259277,9.4111328c-.7363281-.9921875-1.1843262-2.0322266-1.2644043-2.2080078v8.2431641h-.8322754V7.3466797c-.7844238,2.4970703-1.6486816,3.7304688-2.0168457,4.2421875l-.5283203-.9443359c1.1206055-1.3925781,2.0168457-3.6494141,2.480957-5.6826172h-2.3208008v-.7841797h2.3850098V.7685547h.8322754v3.4091797h1.8566895v.7841797h-1.8566895v.4960938c.5441895,1.4082031,1.2004395,2.3535156,1.8566895,3.25l-.5922852.703125Zm-.1760254,4.7070312c1.1044922-.4960938,2.625-1.3925781,3.9375-2.4179688l.208252.8330078c-.8964844.7041016-2.6252441,1.8408203-3.7937012,2.3681641l-.3520508-.7832031Zm10.0361328.6875c-.8483887-.4804688-2.7531738-1.6328125-4.0656738-4.0175781v3.4902344c0,.3515625,0,1.1679688-1.0725098,1.1679688h-1.6645508l-.144043-.9609375,1.6164551.0332031c.2402344,0,.432373.015625.432373-.4326172v-5.6181641h-4.1298828v-.7685547h4.1298828v-1.7451172h-3.5214844v-.7519531h3.5214844v-1.6484375h-3.9057617v-.7685547h2.4650879c-.2722168-.7685547-.7043457-1.5361328-.8483887-1.8085938l.800293-.1601562c.144043.2558594.5922852,1.0087891.9443359,1.96875h1.9047852c.5603027-.7841797.8964844-1.6650391,1.0085449-1.96875l.8322754.1923828c-.3681641.9433594-.7363281,1.5361328-.8962402,1.7763672h2.5930176v.7685547h-4.0656738v1.6484375h3.6494141v.7519531h-3.6494141v1.7451172h4.3537598v.7685547h-4.3537598v.6240234c1.2324219,3.0576172,3.4733887,4.3212891,4.5297852,4.8496094l-.4641113.8642578Zm-8.2753906-5.7773438c.800293.5117188,1.3764648,1.0078125,1.96875,1.6484375l-.6081543.5439453c-.6723633-.7363281-1.1525879-1.1367188-1.888916-1.6650391l.5283203-.5273438Zm5.9223633,1.7119141c.6081543-.5283203,1.1203613-1.1201172,1.5686035-1.7763672l.7043457.5273438c-.3681641.4970703-.9443359,1.2011719-1.6325684,1.7773438l-.6403809-.5283203Z"/>
      <path class="cls-1" d="m40.7070312,1.6806641v-.9121094h.8483887v.9121094h5.5703125v1.7607422h1.4885254v.6884766h-1.4885254v1.7441406h-5.5703125v1.0722656h6.0825195v.6894531h-6.0825195v1.0878906h7.0588379v.6875h-14.6618652v-.6875h6.7546387v-1.0878906h-5.7783203v-.6894531h5.7783203v-1.0722656h-5.5383301v-.7041016h5.5383301v-1.0400391h-6.7546387v-.6884766h6.7546387v-1.0400391h-5.5383301v-.7207031h5.5383301Zm6.2744141,8.8203125v4.6894531h-11.4125977v-4.6894531h11.4125977Zm-10.5322266.6875v1.3125h9.6679688v-1.3125h-9.6679688Zm0,1.953125v1.3603516h9.6679688v-1.3603516h-9.6679688Zm9.828125-10.7402344h-4.7219238v1.0400391h4.7219238v-1.0400391Zm0,1.7285156h-4.7219238v1.0400391h4.7219238v-1.0400391Z"/>
      <path class="cls-1" d="m57.9072266,13.6855469c1.824707-.2236328,5.8903809-.7197266,5.8903809-5.4902344,0-1.0888672-.2722168-5.3300781-5.4101562-5.3779297-.2561035,2.8007812-.5603027,6.1621094-2.1608887,8.7070312-.8803711,1.3925781-1.7768555,1.8574219-2.5131836,1.8574219-1.5524902,0-2.7370605-1.9052734-2.7370605-4.3701172,0-4.0976562,2.8652344-7.0751953,7.3469238-7.0751953,5.3781738,0,6.482666,3.8896484,6.482666,6.2109375,0,4.7382812-3.5373535,6.1621094-6.5786133,6.4667969l-.3200684-.9287109Zm-3.4733887-9.7958984c-1.9528809,1.3603516-2.5290527,3.3769531-2.5290527,5.1220703,0,1.3125.4960938,3.3613281,1.7766113,3.3613281.512207,0,1.0883789-.3037109,1.7607422-1.3759766,1.5847168-2.5449219,1.8408203-6.4833984,1.9528809-8.1318359-1.1364746.0966797-2.0488281.3837891-2.9611816,1.0244141Z"/>
      <path class="cls-1" d="m70.6416016,8.4833984c-.7683105.9609375-.8803711,1.8242188-.8803711,2.2734375,0,.8320312.4802246,1.6162109,1.088623,2,.9123535.5761719,1.8405762.7207031,3.793457.7207031,2.625,0,4.1936035-.1923828,5.6022949-.3515625l.0800781,1.0390625c-1.1364746.0966797-2.9931641.2402344-5.458252.2402344-2.1289062,0-3.3933105-.1757812-4.449707-.7832031-.9924316-.5761719-1.5688477-1.6816406-1.5688477-2.8652344,0-1.2324219.576416-2.1777344,1.0244141-2.8339844l.7683105.5605469Zm7.4750977-5.0742188c-1.0725098.3359375-2.3850098.8007812-4.1135254,1.96875l-.720459-.640625c.8803711-.6230469,1.520752-.9277344,2.4331055-1.2792969-2.545166.015625-4.2416992.046875-6.0024414.1113281v-1.0078125c1.1843262.015625,1.9047852.015625,8.4033203.015625v.8320312Zm.9604492-2.7851562c.4802246.7363281,1.0083008,1.6328125,1.5686035,3.0576172l-.8642578.4794922c-.4963379-1.3125-.8964844-2.1445312-1.4887695-3.0888672l.7844238-.4482422Zm2.1289062-.6240234c.8161621,1.2001953,1.2963867,2.2568359,1.6166992,3.0253906l-.864502.4960938c-.5441895-1.4091797-1.0083008-2.2568359-1.5366211-3.0732422l.7844238-.4482422Z"/>
      <path class="cls-1" d="m89.1862793,3.5693359v.7685547h-5.3139648v-.7685547h5.3139648Zm-.4960938-2.2402344v.7519531h-4.369873v-.7519531h4.369873Zm0,4.4970703v.7841797h-4.369873v-.7841797h4.369873Zm0,2.2568359v.7685547h-4.369873v-.7685547h4.369873Zm0,2.2412109v4.8339844h-4.3217773v-4.8339844h4.3217773Zm-.8164062.7363281h-2.6730957v3.3291016h2.6730957v-3.3291016Zm10.6604004-5.1865234v.7685547h-9.1396484v-.7685547h4.1455078v-1.296875h-3.4733887v-.7353516h3.4733887v-1.1533203h-3.8894043v-.7675781h3.8894043V.7529297h.8803711v1.1679688h3.8256836v.7675781h-3.8256836v1.1533203h3.5214844v.7353516h-3.5214844v1.296875h4.1137695Zm-.7844238,8.3398438c0,1.1367188-.65625,1.2324219-1.2805176,1.2324219h-1.6806641l-.2399902-.9277344,1.7446289.046875c.3681641.0166016.6403809-.0957031.6403809-.4960938v-1.5195312h-5.8903809v2.8964844h-.864502v-7.4589844h7.5710449v6.2265625Zm-.8161621-5.4746094h-5.8903809v1.1523438h5.8903809v-1.1523438Zm0,1.9052734h-5.8903809v1.1689453h5.8903809v-1.1689453Z"/>
      <path class="cls-1" d="m113.9418945,6.1142578c-1.0244141,1.3613281-2.2890625,2.5136719-3.6176758,3.5703125,1.2646484,1.984375,3.345459,3.3613281,4.7861328,4.2568359l-.5603027.7685547c-3.7456055-2.4648438-5.2822266-4.609375-6.2746582-7.3310547v6.6103516c0,1.1523438-.4001465,1.4570312-1.3603516,1.4570312h-2.5131836l-.1599121-.9609375,2.5769043.0332031c.5761719,0,.5761719-.1933594.5761719-.5292969V4.4658203h-6.8986816v-.8164062h6.8986816V.7529297h.8803711v2.8964844h6.9147949v.8164062h-6.8986816c.4321289,2.1933594,1.0883789,3.5859375,1.5686035,4.4492188.1281738-.1113281,2.0808105-1.6162109,3.3293457-3.3925781l.7524414.5917969Zm-13.4135742,7.1074219c2.7211914-1.1367188,4.5939941-2.3691406,5.970459-3.3457031l.3681641.7207031c-2.3210449,1.7128906-4.3217773,2.7363281-5.9064941,3.4892578l-.4321289-.8642578Zm3.6015625-3.9863281c-1.168457-1.8886719-1.9367676-2.7363281-2.3369141-3.1689453l.6882324-.5595703c1.168457,1.2480469,1.7766113,2.0800781,2.4489746,3.1210938l-.800293.6074219Zm8.2111816-5.8261719c-.8322754-.8320312-1.4885254-1.3769531-2.3688965-1.953125l.512207-.6396484c.9604492.6083984,1.6806641,1.1523438,2.4650879,1.8720703l-.6083984.7207031Z"/>
      <path class="cls-1" d="m124.7260742,15.7021484c-2.2570801-2.5927734-2.8813477-5.6503906-2.8652344-7.5869141,0-1.96875.6401367-5.0263672,2.8652344-7.5869141h.9282227c-1.7766113,2.2890625-2.7050781,4.7216797-2.7209473,7.5869141,0,4.0654297,2.0488281,6.7226562,2.7209473,7.5869141h-.9282227Z"/>
      <path class="cls-1" d="m141.3659668,2.1923828v.7851562h-1.3605957v2.9287109h2.0327148v.7841797h-2.0327148v3.265625h1.6166992v.7519531h-13.8137207v-.7519531h1.96875v-3.265625h-2.3688965v-.7841797h2.3688965v-2.3046875c-.7521973.6884766-1.392334,1.1044922-1.8085938,1.3603516l-.6403809-.640625c1.2485352-.7363281,2.689209-1.8085938,3.7456055-3.6328125l.8642578.2080078c-.2719727.4794922-.4799805.7998047-.8481445,1.2958984h10.276123Zm-13.909668,12.6621094c1.1523438-1.1523438,1.8085938-2.4648438,2.2409668-3.4902344l.8803711.2890625c-.512207,1.2792969-1.2165527,2.65625-2.2409668,3.7285156l-.8803711-.5273438Zm5.394043-11.8769531h-2.2248535v2.9287109h2.2248535v-2.9287109Zm0,3.7128906h-2.2248535v3.265625h2.2248535v-3.265625Zm-.3039551,8.515625c.0478516-.3681641.0800781-.7207031.0800781-1.3769531,0-1.0078125-.0961914-1.8085938-.1601562-2.3046875h.8803711c.0639648.4482422.2719727,2.0175781.1921387,3.6816406h-.9924316Zm3.4094238-12.2285156h-2.2570801v2.9287109h2.2570801v-2.9287109Zm0,3.7128906h-2.2570801v3.265625h2.2570801v-3.265625Zm.5600586,8.515625c-.2719727-1.7285156-.5922852-2.7695312-.9282227-3.6816406l.8481445-.0800781c.6403809,1.6484375.8964844,2.609375,1.088623,3.6337891l-1.0085449.1279297Zm2.6411133-12.2285156h-2.3530273v2.9287109h2.3530273v-2.9287109Zm0,3.7128906h-2.3530273v3.265625h2.3530273v-3.265625Zm1.8728027,8.7236328c-.7363281-1.5849609-1.4406738-2.7373047-2.3530273-3.7939453l.800293-.3671875c1.2165527,1.34375,2.1289062,2.9765625,2.5131836,3.6650391l-.9604492.4960938Z"/>
      <path class="cls-1" d="m149.7307129,10.8369141c-.7524414-.8808594-1.1525879-1.4257812-1.7126465-2.3056641v6.9150391h-.8325195v-6.9785156c-.4799805,1.1035156-1.2324219,2.4326172-2.6569824,3.96875l-.4802246-.7832031c1.9208984-1.7617188,2.8491211-4.2109375,3.1052246-4.8671875h-3.0732422v-.7675781h3.1052246V.7685547h.8325195v5.25h2.769043v.7675781h-2.769043v.2890625c.7683105,1.4082031,1.5844727,2.3525391,2.2407227,3.0566406l-.5280762.7050781Zm-4.4658203-5.6191406c-.2722168-1.3759766-.5761719-2.2890625-.9924316-3.265625l.7363281-.2871094c.5283203,1.1523438.8322754,2.0800781,1.0725098,3.28125l-.8164062.2714844Zm3.6013184-.2871094c.5603027-1.0566406.8803711-1.9853516,1.1525879-3.2177734l.7683105.2080078c-.2722168,1.2480469-.6081543,2.2246094-1.2165527,3.3457031l-.7043457-.3359375Zm9.7319336,4.4970703l.1281738.8164062-1.6486816.3203125v4.8818359h-.9284668v-4.6894531l-5.762207,1.1357422-.144043-.7519531,5.90625-1.2001953V.7685547h.9284668v8.9794922l1.5205078-.3203125Zm-4.449707-.6884766c-1.1364746-1.1835938-2.0168457-1.8242188-2.8811035-2.3691406l.4802246-.6396484c1.2644043.7197266,2.0808105,1.4248047,3.0092773,2.3212891l-.6083984.6875Zm.4963379-4.3378906c-.864502-.9121094-1.6486816-1.5996094-2.7531738-2.3525391l.4960938-.5927734c.6403809.3847656,1.5366211.9453125,2.8171387,2.2734375l-.5600586.671875Z"/>
      <path class="cls-1" d="m160.4321289,15.7021484c.7524414-.9765625,2.7050781-3.5859375,2.7050781-7.5869141,0-4.0810547-2.0168457-6.7060547-2.7050781-7.5869141h.9284668c2.2087402,2.5126953,2.8649902,5.5859375,2.8811035,7.5869141,0,1.9853516-.65625,5.0419922-2.8811035,7.5869141h-.9284668Z"/>
      <path class="cls-1" d="m174.5773926,1.5361328c-.2880859,1.6328125-.7043457,3.9375-.7043457,7.5234375,0,3.296875.3361816,4.7226562.4960938,5.3623047l-.9602051.1601562c-.4001465-1.8730469-.4643555-3.7783203-.4643555-5.6826172,0-2.5927734.1921387-4.8818359.6083984-7.4433594l1.0244141.0800781Zm11.076416,2.7695312v.9287109h-3.1533203l.0639648,4.609375c1.7927246.8964844,2.8491211,1.953125,3.2973633,2.4326172l-.6721191.9130859c-.6242676-.8798828-1.6008301-1.7451172-2.6252441-2.3369141v.7363281c0,1.2324219,0,2.9296875-2.9611816,2.9296875-2.5449219,0-3.3132324-1.4892578-3.3132324-2.609375,0-1.6328125,1.4726562-2.7216797,3.4572754-2.7216797.1921387,0,.9924316,0,1.9047852.2880859l-.0959473-4.2412109h-5.0581055v-.9287109h5.0419922l-.0478516-2.8496094h.9763184l.0319824,2.8496094h3.1533203Zm-4.0175781,6.0986328c-.4162598-.1767578-.9284668-.4003906-1.8569336-.4003906-1.3603516,0-2.6088867.5439453-2.6088867,1.8886719,0,1.6806641,1.8886719,1.7929688,2.3530273,1.7929688,2.112793,0,2.112793-1.1845703,2.112793-2.1611328v-1.1201172Z"/>
      <path class="cls-1" d="m191.857666,8.6113281c-.7841797.9599609-.8803711,1.8251953-.8803711,2.2724609,0,.8330078.4802246,1.6171875,1.088623,2.0019531.8642578.5439453,1.7126465.7197266,3.793457.7197266,2.8010254,0,4.4978027-.1923828,5.9863281-.3525391l.0800781,1.0410156c-1.3125.0957031-3.2492676.2402344-5.8422852.2402344-2.7531738,0-3.7294922-.3691406-4.4499512-.7851562-.9924316-.5761719-1.5686035-1.6796875-1.5686035-2.8652344,0-1.2324219.5761719-2.1757812,1.0244141-2.8320312l.7683105.5595703Zm8.9956055-5.2666016c-1.5205078.1767578-3.7773438,1.0888672-5.2661133,1.9853516l-.6081543-.7197266c1.5524902-.8007812,2.0007324-.9921875,2.9450684-1.28125-1.3764648.015625-6.0024414.0957031-7.0107422.1289062v-1.0087891c2.2089844.015625,7.8271484.015625,9.9399414,0v.8955078Z"/>
      <path class="cls-1" d="m219.013916,3.3134766v.8964844h-8.5153809c-.1921387,1.296875-.3361816,2.2724609-.8164062,3.6328125,1.3125-.9433594,2.9450684-1.328125,4.5617676-1.328125,3.28125,0,4.2097168,2.1289062,4.2097168,3.7929688,0,4.2109375-4.7219238,4.3222656-7.6191406,4.3222656-1.1203613,0-1.6166992-.03125-2.1289062-.0800781l-.223877-.9609375c.7841797.0644531,1.6965332.1289062,2.7370605.1289062,3.5373535,0,6.1623535-.5449219,6.1623535-3.3769531,0-2.5292969-1.8886719-2.9785156-3.3452148-2.9785156-.4963379,0-2.7851562,0-4.6738281,1.8730469-.0961914.2246094-.1601562.3525391-.3522949.6884766l-.9604492-.3193359c.6884766-1.4726562,1.1044922-2.9941406,1.4726562-5.3945312h-3.793457v-.8964844h3.9055176c.0639648-.5761719.0959473-.9609375.1120605-1.953125l1.0563965.015625c-.0639648.8007812-.0959473,1.1367188-.1921387,1.9375h8.4035645Z"/>
      <path class="cls-1" d="m225.4255371,3.6494141c-.4160156,1.2324219-.5441895,2.2568359-.5280762,4.9619141,1.6645508-1.4560547,3.6494141-2.2080078,5.8742676-2.2080078,3.3774414,0,4.3537598,1.9521484,4.3537598,3.5849609,0,2.1279297-1.1523438,3.6972656-3.8896484,4.3212891-1.0083008.2246094-2.0166016.3203125-3.0571289.3203125-1.4406738,0-2.3850098-.1601562-3.0732422-.2714844l-.0800781-.9453125c1.0405273.2089844,2.032959.3046875,3.0893555.3046875s3.9375-.1123047,5.2980957-1.6015625c.6882324-.7519531.6882324-1.96875.6882324-2.1123047,0-.6083984-.2241211-2.7207031-3.3132324-2.7207031-2.833252,0-5.2182617,1.4404297-5.8583984,2.7529297l-.9604492-.015625c.0161133-.5126953.0161133-2.7851562.0319824-3.25.0639648-1.8242188.2880859-2.7207031.4802246-3.3925781l.9443359.2714844Zm7.2509766-.2714844c-1.4084473-.5605469-3.3933105-1.0087891-6.2104492-1.0888672l.1921387-.9599609c1.3283691.0634766,3.9213867.2236328,6.3383789,1.0234375l-.3200684,1.0253906Z"/>
      <path class="cls-1" d="m0,16.1972656v-.7998047h237.7600098v.7998047H0Z"/>
    </g>
  </g>
</svg>