<?xml version="1.0" encoding="utf-8"?>
<!-- Generator: Adobe Illustrator 27.5.0, SVG Export Plug-In . SVG Version: 6.00 Build 0)  -->
<svg version="1.1" id="_レイヤー_2" xmlns="http://www.w3.org/2000/svg" xmlns:xlink="http://www.w3.org/1999/xlink" x="0px"
	 y="0px" viewBox="0 0 1279.9 155.1" style="enable-background:new 0 0 1279.9 155.1;" xml:space="preserve">
<style type="text/css">
	.st0{fill:#FFFFFF;}
	.st1{fill:#AE8F36;}
	.st2{fill:#E8C416;}
	.st3{fill:none;}
</style>
<g id="_レイヤー_1-2">
	<g>
		<path class="st0" d="M595.6,95c0,0.7,0,3.8,0,5.2c0,1.4,0,3.7,0.2,5c0.2,1.3,0.5,2.4,0.7,3.5c0.2,1.1,0.1,2.6-0.9,2.7
			c-0.9,0.1-1.9-0.7-2.3-1.6c-0.5-1-0.5-2.3-0.3-3.4s0.4-2.6,0.5-4.3c0.2-1.8,0.2-4.3,0.3-6.4c0.1-2.2,0.2-4,0.3-5.8
			c0-1.7,0-2.8-0.2-4c-0.2-1.1-0.5-1.8-1.2-2.4c-0.6-0.5-0.9-1.2-0.6-1.6c0.3-0.5,1-0.4,1.6-0.2c0.6,0.2,1.5,0.6,1.9,1.3
			s0.2,1.6,0.2,2.2c-0.1,0.6-0.2,1.7-0.3,3c0,1.2-0.1,2.7,0,4.2c0,0.5,0.5,0.5,0.8,0.6c1.8,0.1,2.8,0.2,4.4,0.9
			c1.6,0.7,2.7,1.5,3.9,2.8c1.2,1.2,1.9,3.4,0.3,4c-1.6,0.6-2.4-1.2-3.3-2.7c-0.8-1.5-1.8-2.5-2.8-3.1c-0.9-0.6-1.7-0.8-2.7-1
			C595.8,93.9,595.6,94.3,595.6,95z"/>
		<path class="st0" d="M625.1,100.4c0.8-0.4,1.4-0.6,2.6-1.3c2.2-1.2,3.7-2.3,6.1-4.1c2.3-1.9,4.5-3.8,6.3-5.6
			c1.8-1.8,2.9-3.1,3.6-4s0.7-1.4,0.4-1.8c-0.3-0.4-0.3-1,0-1.2c0.8-0.5,2.4,0.4,2.9,1c0.5,0.6,0.6,1.4,0.4,1.9
			c-0.3,0.6-0.9,1-1.6,1.6c-0.7,0.6-2,1.7-3.4,2.9c-0.6,0.6-1.2,1.2-1.9,1.8c0.4,0.1,1,0.2,1.4,0.4c0.9,0.4,1.5,0.9,1.6,1.5
			c0.2,0.6-0.2,1-0.4,1.6c-0.2,0.6-0.2,2.3-0.2,3.7c-0.1,1.3-0.1,3.1,0,4.8c0,1.7,0.1,3.7,0.1,5.1c0,1.4-0.4,2.4-1.4,2.3
			c-1-0.1-1.4-1.6-1.3-2.3c0.1-0.7,0.3-2.3,0.4-3.9c0-1.6,0.1-3.6,0.2-5.3c0-1.7,0.1-2.8,0-4c0-1.1-0.1-1.9-0.5-2.6
			c-0.2-0.3-0.5-0.5-0.8-0.6c-0.4,0.3-0.8,0.6-1.1,1c-1.4,1.2-3.8,2.8-5.7,4c-1.9,1.2-3,1.7-4.1,2.3c-1.1,0.6-2.1,1-3.4,1.4
			C624.8,101.3,624.5,100.6,625.1,100.4z"/>
		<path class="st0" d="M689.4,90.1c-0.4,0.8-1.4,2.3-2.6,3.7c-1.3,1.6-3.2,3.6-5,5.3c-2,1.9-3.4,2.9-6.2,4.8c-2.1,1.5-3,2.1-4,2.7
			c-0.9,0.6-1.4,0.5-1.8,0c-0.4-0.5-1.2-1.6-1.6-2c-0.4-0.5-0.5-1-0.3-1.4c0.1-0.4,0.2-1.3,0.2-2.4s0-2.8,0.1-5.1v-5
			c0-1,0-1.9-0.6-2.5c-0.5-0.5-1-1-0.8-1.5c0.2-0.4,0.8-0.6,1.4-0.5c0.6,0.1,1.3,0.4,2.1,1c0.8,0.6,0.8,1.3,0.6,1.7
			c-0.2,0.5-0.3,1.7-0.4,3.2c-0.2,2.4-0.2,5.5-0.2,7.3c0,0.9-0.2,2.8,0.6,3.1c0.8,0.3,1.5-0.2,3.7-1.2c2.2-1.1,4.2-2.2,6.3-4
			s3.5-3.1,4.7-4.4c1.3-1.2,2.6-2.7,3-3.2c0.4-0.5,0.8-0.9,1-0.8C689.9,89,689.8,89.3,689.4,90.1z"/>
	</g>
	<circle class="st1" cx="146.8" cy="77.6" r="77.6"/>
	<g>
		<path class="st0" d="M103.4,58.9c0.5,0.7,1.1,1.3,1.8,1.7c2.3-0.9,4.2-2.1,5.8-3.7c1.4,0.7,2.1,1.2,2.1,1.5c0,0.2-0.3,0.3-0.9,0.3
			h-0.5c-1.8,1-3.7,1.8-5.7,2.4c2,1,5.4,1.5,10.1,1.5c2.6,0,5.6-0.1,9-0.4c-0.4,0.6-0.7,1.3-0.9,2h-6.8c-5,0-8.5-0.4-10.4-1.2
			c-2-0.9-3.4-2-4.2-3.5c-1,1.5-2.1,2.9-3.2,4.2c0,0.8-0.1,1.2-0.4,1.2c-0.4,0-1-0.8-1.9-2.3c1.6-0.9,3-1.9,4.4-3.1v-8.2h-4.1
			l-0.3-0.8h4.2l1.1-1.4c1.2,1,1.9,1.6,1.9,1.9c0,0.1-0.1,0.3-0.3,0.3l-0.7,0.5V58.9z M98.9,38.8c3.2,1.5,4.8,3,4.8,4.6
			c0,0.8-0.4,1.2-1.1,1.2c-0.5,0-0.9-0.4-1.1-1.1c-0.5-1.5-1.5-2.9-3.1-4.1L98.9,38.8z M116.7,51.2v-2.8c2,0.1,2.9,0.3,2.9,0.7
			c0,0.2-0.4,0.4-1.2,0.7v1.4h2.4l1.3-1.8c0.1,0.1,0.1,0.1,0.2,0.2c0.6,0.5,1.1,1.1,1.6,1.7l-0.3,0.6h-5.1v3.5h3.3l1.4-1.8l0.3,0.3
			l0.2,0.2c0.5,0.4,0.9,1,1.3,1.5l-0.3,0.6h-19.9l-0.3-0.8h5.5v-3.5h-4.3l-0.3-0.8h4.6v-2.9c1.9,0,2.9,0.3,2.9,0.7
			c0,0.2-0.4,0.5-1.2,0.7v1.4H116.7z M107.8,43.1v2.3c0,0.3,0.1,0.6,0.2,0.7c0.2,0.1,0.9,0.2,2.2,0.2c1.4,0,2.2-0.1,2.5-0.4
			c0.2-0.3,0.3-0.8,0.4-1.6l0.7,0.2c0,0.1,0,0.2,0,0.4c0,0.7,0.3,1.1,0.9,1.1v0c0,0.7-0.2,1.2-0.7,1.4c-0.5,0.2-1.6,0.3-3.4,0.3
			c-2.1,0-3.4-0.1-3.8-0.3c-0.4-0.2-0.5-0.8-0.5-1.6v-4.3c0.3,0.1,0.9,0.4,1.9,0.8h3.6v-2.4h-6l-0.3-0.8h6.1l1-1.3
			c1.1,0.9,1.6,1.4,1.6,1.6c0,0.2-0.1,0.3-0.2,0.4l-0.5,0.4v3.6h-1.6v-0.7H107.8z M116.7,55.4v-3.5h-4.9v3.5H116.7z M117.3,43.1v2.1
			c0,0.4,0,0.6,0.2,0.8c0.2,0.2,1,0.2,2.3,0.2c1.5,0,2.4-0.2,2.6-0.5c0.2-0.4,0.4-0.9,0.5-1.6l0.7,0.2c0,0.6,0.1,1.1,0.2,1.3
			c0.1,0.2,0.4,0.3,0.8,0.3c0,0.8-0.3,1.2-0.9,1.4c-0.5,0.2-1.7,0.3-3.6,0.3c-2,0-3.3-0.2-3.8-0.4c-0.3-0.2-0.5-0.6-0.5-1.3v-4.4
			c0.6,0.2,1.2,0.5,1.8,0.8h3.7v-2.4h-5.9l-0.3-0.8h5.9l1.1-1.3c1.1,0.9,1.6,1.4,1.6,1.6c0,0.1-0.1,0.2-0.3,0.4l-0.6,0.4v3.6h-1.6
			v-0.8H117.3z M116.2,57.2c4.7,0.8,7.1,1.9,7.1,3.2c0,0.7-0.3,1-0.9,1c-0.3,0-0.6-0.1-1-0.5c-1.2-1.2-3.1-2.3-5.6-3.1L116.2,57.2z"
			/>
		<path class="st0" d="M157.6,56.5c0.1,0.5-0.3,1.2-1.4,1.4c-1.4,0.1-2.8-0.5-4.2-1.6c-1.5-1.1-3.3-3.2-4.7-4.8
			c-1.4-1.7-2.7-3.3-3.2-4c-0.7-0.8-1.3-1.4-1.8-1.4c-0.6,0-1.1,0.5-1.5,1.1c-0.5,0.6-1.6,2.4-2.1,3.2c-0.4,0.8-1.5,2.2-2.5,2.5
			c-1,0.3-1.8,0-2.5-0.3c-0.7-0.3-1.1-0.9-0.9-1.3c0.1-0.3,0.6-0.3,1-0.2c0.4,0,0.9,0,1.4-0.2c0.5-0.2,1.1-0.7,1.8-1.3
			c0.7-0.6,1.4-1.4,2-2c0.6-0.6,0.9-1,1.5-1.7s1.1-1.1,1.7-1.1c0.6-0.1,1.3,0.6,1.9,1.2c0.6,0.6,1.8,1.6,2.8,2.8
			c1,1.1,2.4,2.4,3.9,3.8c0.9,0.9,2.4,2,3.5,2.7c1.1,0.6,1.9,0.8,2.5,0.8C157,55.9,157.6,56,157.6,56.5z M152.3,47.8
			c-0.5-0.5-1.2-1-2-1.5c-0.3-0.2-0.4-0.4-0.3-0.7c0.1-0.2,0.4-0.1,0.6-0.1c0.5,0,1.1,0.2,1.8,0.4c0.7,0.2,1.7,0.8,2,1.3
			c0.3,0.6,0,1.1-0.5,1.3C153.5,48.6,152.8,48.3,152.3,47.8z M155,46.4c-0.5-0.6-1.1-1-2.1-1.4c-0.3-0.1-0.4-0.4-0.3-0.6
			c0.1-0.2,0.4-0.2,0.6-0.2c0.5,0,1.2,0.1,1.9,0.3c0.7,0.2,1.7,0.7,2.1,1.3c0.3,0.5,0.1,1.1-0.4,1.3C156.2,47.2,155.5,46.9,155,46.4
			z"/>
		<path class="st0" d="M187.7,59.6c-1.3,1.4-2.8,2.3-4.5,2.7c-1.7,0.5-3.4,0.4-5.5,0c-2.1-0.4-2.9-1.2-2.9-2.2c0-1,1.3-1.8,2.4-2
			c1.2-0.2,2.5-0.2,3.5,0.6c0.9,0.7,0.9,1.5,0.4,2.4c1.6-0.2,3.2-0.7,4.3-1.6c1.3-1.1,1.9-2.6,1.9-4.2c0-1.6-1.1-3.5-3-4.3
			c-1.9-0.8-4-0.9-6.1-0.2c-2.1,0.7-3.5,1.7-4.5,3.1c-1,1.3-1.8,2.9-2,3.8c-0.3,0.9-0.6,1.4-1,1.6c-0.2,0.1-0.6,0.3-1.1-0.2
			c-0.4-0.3-0.4-1-0.4-1.5c0-0.4,0.9-1.5,1.5-2.3c0.6-0.8,1.5-2.1,2.7-3.3c1.2-1.3,3-3.5,3.8-4.4c0.7-0.9,3.1-3.7,3.4-4.2
			c0.4-0.5,0.5-0.9,0.4-1c-0.2-0.2-0.8,0.1-1.1,0.3c-0.4,0.2-2,1.2-3,1.8c-1,0.5-1.7,0.8-2.6,0.8c-0.9,0-1.4-0.4-1.8-0.8
			c-0.3-0.3-0.5-0.9-0.4-1.1c0.1-0.3,0.5-0.4,0.8-0.3c0.3,0.1,0.7,0.2,1.2,0.2c0.4,0,0.9,0,1.9-0.5c1-0.4,2.4-1.1,3.5-1.7
			c1.2-0.6,1.9-1.1,2.5-1.1c0.7,0,1.4,0.4,1.8,0.9c0.4,0.5,0.5,0.8,0.4,1.1c-0.1,0.3-0.2,0.5-0.7,0.8c-0.5,0.3-1.5,1.2-2.4,2.1
			c-0.9,1-2,2.4-2.9,3.2c0,0-0.8,0.9-2.4,2.6c0.5-0.3,1-0.6,1.9-1c1.3-0.5,2.7-0.8,4.5-0.6c1.8,0.2,3.2,0.7,4.5,1.6
			c1.3,0.9,2.3,2.3,2.5,4.3C189.4,57,188.8,58.4,187.7,59.6z M177.9,59.1c-1.1,0-1.8,0.7-1.3,1.4c0.3,0.4,1.1,0.7,2.6,0.8
			C180.4,60,179.3,59.1,177.9,59.1z"/>
	</g>
	<g>
		<g>
			<path class="st0" d="M127.4,97.2c0.5-0.6,0.9-1.3,1.2-1.9c0-0.1-0.1-0.1-0.2-0.2c-0.5-0.6-1.1-1-1.8-1.6
				c-0.2-0.1-0.6-0.4-0.5-0.6c0.1-0.2,0.3-0.1,0.9,0.1c0.6,0.2,1.1,0.6,2.1,1.2c0.1-0.2,0.3-0.5,0.4-0.8c0.7-1.4,1.1-2.3,1.2-2.9
				c0.1-0.6,0-1.1-0.2-1.4c-0.2-0.3-0.5-0.6-0.3-0.8c0.2-0.3,0.6-0.2,1,0c0.6,0.2,1,0.6,1.2,1c0.3,0.4,0.2,0.8,0,1
				c-0.2,0.1-0.3,0.3-0.4,0.6c-0.1,0.3-0.2,0.7-0.5,1.3c-0.3,0.7-0.9,1.7-1.5,2.7c0.6,0.4,1.2,0.9,1.5,1.3c0.7,0.7,0.9,1.7,0.3,2
				c-0.6,0.3-1.3-0.1-1.8-1c-0.3-0.4-0.5-0.8-0.7-1.1c-0.8,1.2-1.3,1.9-2.4,3c-1.1,1.2-1.9,1.9-3.3,2.9c-0.5,0.4-0.8,0.4-0.9,0.3
				c-0.1-0.1,0.1-0.3,0.4-0.6c0.6-0.5,1.1-0.9,1.9-1.8C125.9,99.2,126.6,98.3,127.4,97.2z"/>
			<path class="st0" d="M157.2,95.8c0,0.3-0.3,0.3-0.8,0.3c-0.4-0.1-1.6-0.2-2.4-0.3s-2.5-0.1-3.2-0.1c-0.8,0.1-2.3,0.1-3.3,0.2
				c-0.8,0.1-1.7,0.3-2.5,0.3c-0.8,0-1.5-0.2-1.9-0.6c-0.4-0.3-0.6-0.8-0.4-1c0.4-0.3,1,0,1.5,0.1c0.5,0.1,1.5,0.3,2.3,0.2
				c0.9,0,2.7-0.1,3.6-0.1c0.9,0,3.4-0.1,4.2-0.1c0.9,0,1.7,0,2.2,0.2C157,95.1,157.2,95.5,157.2,95.8z"/>
			<path class="st0" d="M164.1,103c0.4-0.2,0.9-0.6,1.2-0.9c1.1-1,2-1.9,2.7-2.9c0.7-1,1.2-2,1.6-3.2c0.3-0.7,0.5-1.6,0.7-2.3
				c-0.6,0.1-1.1,0.1-1.4,0.2c-0.5,0-1.1,0.2-1.5,0.1c-0.5,0-1.2-0.1-1.7-0.5c-0.4-0.4-0.6-0.8-0.4-1c0.2-0.3,0.8-0.1,1.2,0
				c0.4,0.1,1,0.2,2,0.3c0.8,0,1.5,0,2.2-0.1c0,0,0,0,0,0c0.2-0.9,0.3-1.9,0.3-2.4c0-0.5-0.2-1-0.4-1.3c-0.2-0.3-0.3-0.6-0.2-0.7
				c0.1-0.2,0.4-0.2,0.9,0c0.4,0.2,0.7,0.3,1,0.6c0.2,0.3,0.3,0.6,0.2,0.8c-0.1,0.1-0.1,0.4-0.2,0.7c-0.1,0.7-0.2,1.4-0.4,2.2
				c0.5,0,1.1-0.1,1.6-0.2c0.8-0.1,1.3-0.2,1.6-0.3c0.4-0.1,0.7-0.3,0.9-0.5c0.2-0.2,0.5-0.2,0.9,0.1c0.4,0.3,0.7,0.6,0.8,0.9
				s0,0.5-0.1,0.6c-0.1,0.1-0.2,0.4-0.3,0.6c0,0.3-0.1,0.9-0.2,1.7c-0.1,0.9-0.3,1.8-0.6,3c-0.3,1.2-0.6,1.9-0.9,2.4
				c-0.3,0.5-0.6,0.6-1,0.5c-0.3-0.1-0.4-0.2-0.5-0.6s-0.3-0.7-0.6-1c-0.3-0.3-0.6-0.6-1-0.8c-0.2-0.1-0.3-0.3-0.3-0.4
				c0-0.1,0.2-0.1,0.4,0c0.4,0.1,0.8,0.3,1.3,0.4c0.6,0.2,0.9,0.1,1.1-0.3c0.2-0.4,0.3-0.9,0.5-1.9c0.2-1,0.3-1.8,0.4-3.1
				c0-0.4,0-0.6,0-0.7c-0.1-0.1-0.3-0.1-0.4-0.2s-0.3,0-0.4,0c-0.1,0-0.3,0.1-1,0.2c-0.6,0.1-1.3,0.2-2.6,0.3
				c-0.1,0.2-0.1,0.3-0.2,0.6c-0.5,1.2-0.9,2.2-1.4,3.2c-0.5,1-1,1.8-1.8,2.8c-0.7,0.9-1.6,1.7-2.5,2.4c-0.4,0.3-1,0.7-1.4,0.9
				C164,103.4,163.8,103.2,164.1,103z"/>
			<path class="st0" d="M199.8,95.8c0,0.3-0.3,0.3-0.8,0.3c-0.4-0.1-1.6-0.2-2.4-0.3s-2.5-0.1-3.2-0.1c-0.8,0.1-2.3,0.1-3.3,0.2
				c-0.8,0.1-1.7,0.3-2.5,0.3c-0.8,0-1.5-0.2-1.9-0.6c-0.4-0.3-0.6-0.8-0.4-1c0.4-0.3,1,0,1.5,0.1c0.5,0.1,1.5,0.3,2.3,0.2
				c0.9,0,2.7-0.1,3.6-0.1c0.9,0,3.4-0.1,4.2-0.1c0.9,0,1.7,0,2.2,0.2C199.6,95.1,199.8,95.5,199.8,95.8z"/>
		</g>
		<path class="st2" d="M92.9,116.4v-2.3c2.2-3.8,5.8-9,10.6-15.5c4.3-6,6.4-10.6,6.4-13.8c0-1.8-0.4-3.6-1.3-4.9
			c-1.2-1.8-2.9-2.7-5.1-2.7c-1.7,0-3.1,0.5-4.3,1.6c-1.2,1.1-1.9,2.5-2.1,4.3c1.3,0.4,2,1.2,2,2.6c0,1.8-0.9,2.7-2.7,2.7
			c-2,0-2.9-1.2-2.9-3.5c0-2.4,0.9-4.6,2.7-6.5c2-2,4.5-3,7.4-3c2.6,0,4.8,0.6,6.6,2c2.4,1.8,3.5,4.3,3.5,7.4c0,2.8-1,5.7-3.1,8.7
			c-1,1.4-2.5,3.4-4.7,5.9c-3.9,4.5-7.4,9-10.4,13.6h12.6c2.1,0,3.4-0.9,4.1-2.7c0.4-1.1,0.7-2.7,0.9-4.7h1.3v10.6H92.9z"/>
	</g>
	<g>
		<path class="st0" d="M607.3,49.9c0,1.7,0,3.2,0.1,3.9c0.1,0.5,0.2,0.9,0.7,1c0.3,0,0.6,0.1,0.8,0.1c0.1,0,0.1,0.1,0.1,0.1
			c0,0.1-0.1,0.1-0.3,0.1c-1,0-2.1-0.1-2.2-0.1c-0.1,0-1.2,0.1-1.8,0.1c-0.2,0-0.3,0-0.3-0.1c0-0.1,0-0.1,0.1-0.1
			c0.2,0,0.4,0,0.5-0.1c0.4-0.1,0.4-0.5,0.5-1c0.1-0.8,0.1-2.2,0.1-3.9v-7.6c-0.9,0-1.8,0-2.7,0c-1.1,0-1.5,0.1-1.8,0.6
			c-0.2,0.3-0.3,0.4-0.3,0.6c-0.1,0.1-0.1,0.2-0.2,0.2c-0.1,0-0.1-0.1-0.1-0.2c0-0.2,0.4-1.7,0.4-1.9c0-0.1,0.1-0.3,0.2-0.3
			c0.1,0,0.3,0.2,0.8,0.2c0.5,0.1,1.2,0.1,1.4,0.1h6.8c0.6,0,1,0,1.3-0.1c0.3,0,0.4-0.1,0.5-0.1c0.1,0,0.1,0.1,0.1,0.2
			c0,0.5-0.1,1.8-0.1,2c0,0.2-0.1,0.2-0.1,0.2c-0.1,0-0.1-0.1-0.1-0.3c0-0.1,0-0.1,0-0.2c-0.1-0.5-0.5-1-2.2-1c-0.8,0-1.5,0-2.3,0
			V49.9z"/>
		<path class="st0" d="M616.6,49.3c0-2.4,1.9-6,6.3-6c3.6,0,6.3,2.1,6.3,5.7c0,3.4-2.5,6.2-6.4,6.2C618.4,55.3,616.6,52,616.6,49.3z
			 M627.5,49.5c0-3.6-2.2-5.6-4.7-5.6c-2.5,0-4.5,1.5-4.5,5c0,3.5,2,5.9,5,5.9C624.5,54.7,627.5,54,627.5,49.5z"/>
		<path class="st0" d="M635.9,47.9c0-2.4,0-2.8,0-3.3c0-0.5-0.1-0.8-0.5-0.8c-0.2,0-0.3,0-0.4-0.1c-0.1,0-0.2-0.1-0.2-0.1
			c0-0.1,0.1-0.1,0.3-0.1c0.6,0,1.6,0.1,1.6,0.1c0.1,0,1.1-0.1,1.6-0.1c0.2,0,0.3,0,0.3,0.1c0,0.1-0.1,0.1-0.2,0.1
			c-0.1,0-0.2,0-0.3,0c-0.5,0.1-0.6,0.3-0.6,0.9c0,0.5,0,0.9,0,3.3v2.7c0,1.4,0,2.6,0.1,3.3c0.1,0.5,0.1,0.7,0.6,0.8
			c0.2,0.1,0.6,0.1,0.7,0.1c0.2,0,0.2,0.1,0.2,0.1s-0.1,0.1-0.3,0.1c-0.9,0-2-0.1-2.1-0.1c-0.1,0-1.1,0.1-1.6,0.1
			c-0.2,0-0.3,0-0.3-0.1c0-0.1,0.1-0.1,0.2-0.1c0.1,0,0.3,0,0.4-0.1c0.3-0.1,0.4-0.4,0.4-0.9c0.1-0.6,0.1-1.9,0.1-3.3V47.9z"/>
		<path class="st0" d="M647.3,50.7c0,2.1,0.1,3.1,0.4,3.4c0.3,0.3,0.6,0.4,1.9,0.4c0.8,0,1.5,0,1.9-0.5c0.2-0.3,0.3-0.6,0.3-0.9
			c0-0.1,0.1-0.2,0.1-0.2c0.1,0,0.1,0.1,0.1,0.2c0,0.2-0.1,1.2-0.2,1.6c-0.1,0.4-0.1,0.5-1,0.5c-1.2,0-2.6-0.1-4.4-0.1
			c-0.6,0-1,0.1-1.6,0.1c-0.2,0-0.3,0-0.3-0.1c0-0.1,0.1-0.1,0.2-0.1s0.3,0,0.4,0c0.3-0.1,0.4-0.4,0.5-0.8c0.1-0.7,0.1-1.9,0.1-3.3
			v-2.7c0-2.4,0-2.8,0-3.3c0-0.5-0.1-0.8-0.7-0.9c-0.1,0-0.3,0-0.5,0c-0.1,0-0.2-0.1-0.2-0.1c0-0.1,0.1-0.1,0.3-0.1
			c0.8,0,1.8,0.1,1.9,0.1c0.3,0,1.4-0.1,1.9-0.1c0.2,0,0.2,0.1,0.2,0.1c0,0.1-0.1,0.1-0.2,0.1c-0.1,0-0.3,0-0.5,0
			c-0.5,0.1-0.6,0.4-0.6,0.9c0,0.5,0,0.9,0,3.3V50.7z"/>
		<path class="st0" d="M658.1,47.9c0-2.4,0-2.8,0-3.3c0-0.5-0.2-0.8-0.7-0.9c-0.1,0-0.3,0-0.4,0c-0.1,0-0.2-0.1-0.2-0.1
			c0-0.1,0.1-0.1,0.3-0.1c0.4,0,0.8,0,1.9,0.1c0.1,0,3.3,0,3.7,0c0.4,0,0.6,0,0.7-0.1c0.1,0,0.1-0.1,0.2-0.1c0,0,0.1,0,0.1,0.1
			c0,0.1-0.1,0.4-0.1,0.8c0,0.3,0,0.6-0.1,0.9c0,0.2,0,0.3-0.1,0.3s-0.1-0.1-0.1-0.2c0-0.3-0.1-0.5-0.1-0.6
			c-0.1-0.4-0.3-0.5-1.2-0.5c-0.2,0-2,0-2.1,0c-0.1,0-0.1,0-0.1,0.1v4.1c0,0.1,0,0.2,0.1,0.2c0.2,0,2.1,0,2.4-0.1
			c0.4,0,0.7-0.1,0.8-0.3c0.1-0.1,0.1-0.1,0.2-0.1c0,0,0.1,0,0.1,0.1s-0.1,0.4-0.1,1c-0.1,0.5-0.1,0.9-0.1,1.1
			c0,0.1-0.1,0.2-0.1,0.2c-0.1,0-0.1-0.1-0.1-0.2c0-0.1,0-0.3-0.1-0.4c-0.1-0.2-0.2-0.5-0.9-0.5c-0.4,0-1.9-0.1-2.2-0.1
			c-0.1,0-0.1,0.1-0.1,0.1v1.3c0,0.6,0,2.1,0,2.4c0,0.7,0.1,1,0.5,1.2c0.3,0.1,0.7,0.2,1.3,0.2c0.3,0,0.9,0,1.4-0.1
			c0.5-0.2,0.7-0.5,0.8-1.2c0-0.2,0.1-0.3,0.2-0.3c0.1,0,0.1,0.2,0.1,0.3c0,0.1-0.1,1.3-0.2,1.6c-0.1,0.4-0.2,0.4-0.8,0.4
			c-1.2,0-1.7,0-2.3,0c-0.6,0-1.5-0.1-2.1-0.1c-0.4,0-0.8,0.1-1.2,0.1c-0.2,0-0.3,0-0.3-0.1c0-0.1,0.1-0.1,0.2-0.1
			c0.1,0,0.2,0,0.4-0.1c0.3-0.1,0.5-0.3,0.6-1.4c0-0.6,0-1.4,0-2.7V47.9z"/>
		<path class="st0" d="M674.3,50.6c0,1.4,0,2.7,0.1,3.3c0.1,0.4,0.1,0.7,0.5,0.8c0.2,0.1,0.6,0.1,0.7,0.1s0.2,0.1,0.2,0.1
			c0,0.1-0.1,0.1-0.2,0.1c-0.9,0-2-0.1-2.1-0.1s-1.1,0.1-1.6,0.1c-0.2,0-0.3,0-0.3-0.1c0-0.1,0.1-0.1,0.2-0.1s0.3,0,0.4,0
			c0.3-0.1,0.4-0.3,0.5-0.9c0.1-0.6,0.1-1.9,0.1-3.3v-6.4c-0.6,0-1.5,0-2.3,0c-1.2,0-1.4,0.2-1.7,0.6c-0.2,0.3-0.2,0.5-0.3,0.6
			c-0.1,0.1-0.1,0.1-0.2,0.1c-0.1,0-0.1-0.1-0.1-0.2c0-0.1,0.3-1.3,0.4-1.8c0.1-0.2,0.1-0.3,0.2-0.3c0.1,0,0.5,0.2,0.8,0.2
			c0.6,0.1,1.1,0.1,1.2,0.1h5.9c0.5,0,1,0,1.3-0.1c0.2-0.1,0.3-0.1,0.3-0.1c0.1,0,0.1,0.1,0.1,0.2c0,0.5,0,1.7,0,1.8
			c0,0.2-0.1,0.2-0.1,0.2c-0.1,0-0.1-0.1-0.1-0.2c0-0.1,0-0.1,0-0.3c-0.1-0.7-0.3-0.9-2.1-0.9c-0.7,0-1.2,0-1.8,0V50.6z"/>
	</g>
	<rect class="st3" width="1279.9" height="178.3"/>
</g>
</svg>
