<?xml version="1.0" encoding="UTF-8"?>
<svg id="_レイヤー_2" data-name="レイヤー 2" xmlns="http://www.w3.org/2000/svg" xmlns:xlink="http://www.w3.org/1999/xlink" viewBox="0 0 1279.6430217 155.1470413">
  <defs>
    <style>
      .cls-1 {
        fill: #fff;
      }

      .cls-2 {
        clip-path: url(#clippath);
      }

      .cls-3 {
        fill: none;
      }
    </style>
    <clipPath id="clippath">
      <rect class="cls-3" x="0" width="1279.6430217" height="155.1470413"/>
    </clipPath>
  </defs>
  <g id="_レイヤー_1-2" data-name="レイヤー 1">
    <g class="cls-2">
      <g>
        <path class="cls-1" d="m542.7421691,89.5238971c3.0393066,1,4.559082,2.3994141,4.559082,4.0400391,0,.9189453-.3598633,1.359375-1.159668,1.359375-.6398926,0-1-.4404297-1.1999512-1.2802734-.2797852-1.3193359-1.159668-2.4394531-2.6394043-3.4794922l.4399414-.6396484Zm10.1181641-1.5195312l-5.2390137,15.8369141c-.3999023,1.1201172-.5998535,1.9199219-.5998535,2.4404297,0,.3193359.079834.7597656.2397461,1.3193359.3601074,1.4794922.5200195,2.6396484.5200195,3.5195312,0,1.4794922-.5200195,2.2392578-1.6396484,2.2392578-.8398438,0-1.2399902-.3994141-1.2399902-1.2392578,0-.0400391.0400391-.5205078.1999512-1.4804688.1601562-1.1992188.2001953-2.1591797.2001953-2.9589844,0-1.3193359-.2399902-2.1992188-.7600098-2.7197266-.3999023-.3994141-1.0397949-.6396484-1.9997559-.7597656v-.9599609c.6401367.1201172,1.079834.2001953,1.3198242.2001953.9599609,0,1.7597656-.5996094,2.3596191-1.7597656,1.9997559-3.8789062,3.9194336-8.5986328,5.7189941-14.1572266l.9199219.4794922Zm-7.6787109-6.1591797c3.239502,1,4.8791504,2.2802734,4.8791504,3.8798828,0,.9199219-.3999023,1.3994141-1.2397461,1.3994141-.4799805,0-.8398438-.2802734-.9997559-.7998047-.5200195-1.5595703-1.5197754-2.7998047-3.0395508-3.8398438l.3999023-.6396484Zm21.3164062,16.2373047v11.3183594c0,.5195312.1999512.8798828.5998535.9599609.2399902.0800781,1,.1601562,2.2397461.1601562,1.3198242,0,2.0395508-.2802734,2.279541-.8798828.3200684-.7998047.5200195-2.5595703.6398926-5.2392578l.9599609.3193359c0,.4804688-.0400391.9599609-.0400391,1.5205078,0,1.9990234.1599121,3.2392578.4799805,3.6386719.2399902.2001953.5197754.2802734.9196777.2802734,0,1.0400391-.2797852,1.6796875-.8798828,1.9599609-.5598145.3193359-1.9196777.4394531-4.0393066.4394531-2.6794434,0-4.2792969-.2001953-4.7189941-.6396484-.3601074-.3203125-.5200195-1-.5200195-1.9599609v-11.8779297h-3.7194824c-.079834,3.8798828-.7597656,6.8789062-1.9196777,9.0791016-1.4396973,2.6787109-4.0791016,4.7587891-7.918457,6.3183594l-.5600586-.8398438c3.7993164-1.9599609,6.2390137-4.71875,7.3588867-8.2783203.5197754-1.6796875.7998047-3.7597656.8398438-6.2792969h-6.519043l-.3598633-.9199219h10.1982422v-7.4384766h-5.1992188c-.8796387,2.0400391-1.9194336,3.8789062-3.1594238,5.4794922l-.7197266-.4804688c1.7197266-3.1191406,2.8393555-7.0390625,3.3994141-11.6777344,2.279541.4794922,3.3994141.9599609,3.3994141,1.359375,0,.3203125-.4799805.6005859-1.4396973.8798828-.2399902.8798828-.6000977,2.0400391-1.119873,3.5195312h4.8391113v-7.5185547c2.3996582.0800781,3.5993652.359375,3.5993652.9199219,0,.359375-.4797363.6796875-1.5595703,1v5.5986328h4.6791992l1.7595215-2.4394531c.9199219.9199219,1.7197266,1.7597656,2.3198242,2.6396484l-.4001465.7197266h-8.3583984v7.4384766h6.1589355l1.8796387-2.5195312c.9597168.9599609,1.7197266,1.8398438,2.3596191,2.6796875l-.3999023.7597656h-7.3588867Z"/>
        <path class="cls-1" d="m595.1799133,90.8842487c.5600586-2.0800781,1-3.9599609,1.1999512-5.7197266h-13.9978027l-.2399902-.8798828h27.635498l1.9597168-2.5195312c.7998047.7197266,1.5996094,1.4404297,2.239502,2.2001953l.4399414.4794922-.3999023.7197266h-14.6774902c-.9199219,2.0400391-1.9597168,3.9199219-3.0395508,5.7197266h12.5979004l1.3996582-1.7597656c1.5197754,1.2392578,2.2797852,1.9990234,2.2797852,2.2792969,0,.2001953-.1201172.3603516-.3601074.5195312l-.8796387.5605469v20.9560547h-2.079834v-2.3193359h-22.1962891v2.3193359h-2.159668v-23.6357422c.6799316.2001953,1.5197754.5996094,2.5197754,1.0800781h7.7585449Zm-2.4794922.8798828h-5.6391602v18.4765625h5.6391602v-18.4765625Zm2.0395508,0v5.4384766h6.598877v-5.4384766h-6.598877Zm6.598877,6.3183594h-6.598877v5.5595703h6.598877v-5.5595703Zm0,6.4794922h-6.598877v5.6787109h6.598877v-5.6787109Zm7.9187012,5.6787109v-18.4765625h-5.8789062v18.4765625h5.8789062Z"/>
        <path class="cls-1" d="m632.3005187,92.6840534c0,.359375-.4799805.6796875-1.4396973.9990234v19.7568359h-2.119873v-18.9169922c-1.7194824,2.7998047-3.5993652,5.2792969-5.638916,7.5195312l-.7600098-.6005859c4.2792969-5.6787109,7.5187988-12.3974609,9.6784668-20.15625,2.279541.5996094,3.4394531,1.1601562,3.4394531,1.6796875,0,.3603516-.5598145.5996094-1.6796875.7597656-1.1599121,3.0791016-2.3195801,5.7587891-3.5195312,8.0390625,1.3598633.1992188,2.0397949.4794922,2.0397949.9199219Zm8.5185547,4.0791016c.0400391,0,.1999512-.0400391.4399414-.2001953,3.479248-2.1992188,6.5187988-4.8789062,9.0383301-8.0791016,1.7998047,1.2402344,2.6796875,2.1601562,2.6796875,2.6396484,0,.2802734-.2399902.4003906-.7600098.4003906-.3198242,0-.6796875-.0800781-1.1196289-.1601562-2.8796387,2.5195312-6.2790527,4.6796875-10.2783203,6.6787109v11.1181641c0,.6396484.1999512,1.0400391.5998535,1.2402344.4399414,0,1.7998047.1201172,4.2392578.1201172,2.5195312,0,3.9594727-.1201172,4.3994141-.2402344,1.0795898-.3603516,1.7194824-2.8798828,1.9995117-7.4785156l.9599609.4394531c0,3.2792969.119873,5.2792969.3999023,5.9189453.1999512.4804688.5598145.7197266,1.1196289.7197266-.0397949,1.1601562-.5197754,1.8798828-1.5595703,2.2001953-1,.2792969-3.5195312.359375-7.5588379.359375-3.479248,0-5.519043-.2392578-6.1589355-.7597656-.3999023-.359375-.5998535-1.1191406-.5998535-2.1992188v-27.875c2.4794922.1191406,3.7194824.4394531,3.7194824.9990234,0,.2802734-.5200195.640625-1.5598145,1.0400391v13.1181641Z"/>
        <path class="cls-1" d="m667.1013,101.0024127c-1.2397461,2.8789062-2.9194336,5.7988281-5.1591797,8.7978516l-.7597656-.5595703c2.6794434-4.3193359,4.5991211-8.6386719,5.7189941-12.8378906l.0400391-.2402344h-4.9191895l-.2800293-.9189453h5.3591309v-14.0380859c2.279541.0400391,3.3994141.3203125,3.3994141.7998047,0,.2802734-.4399414.5996094-1.3996582.9599609v12.2783203h2.1196289l1.4797363-2.0800781c.5998535.5996094,1.2397461,1.359375,1.9196777,2.3193359l-.3999023.6796875h-5.1191406v2.6396484c3.4394531,1.8398438,5.1591797,3.6396484,5.1591797,5.359375,0,.8398438-.3601074,1.2802734-1.119873,1.2802734-.4399414,0-.8398438-.4404297-1.1599121-1.2402344-.5197754-1.3193359-1.4396973-2.7197266-2.8793945-4.1591797v13.3974609h-1.9997559v-12.4375Zm-4.5991211-16.6376953c1.9597168,2.4794922,2.9995117,4.8798828,2.9995117,7.1591797,0,1.2392578-.4399414,1.8798828-1.2797852,1.8798828-.5200195,0-.8398438-.6005859-.8798828-1.7998047-.0400391-2.3193359-.5200195-4.5996094-1.5197754-6.8388672l.6799316-.4003906Zm7.6386719,8.9189453c.9597168-2.7998047,1.7197266-5.8789062,2.3195801-9.1982422,1.9997559.5595703,2.9594727,1.0390625,2.9594727,1.5195312,0,.2802734-.4399414.5595703-1.3198242.7197266-.7998047,2.4394531-1.8395996,4.9189453-3.1994629,7.3183594l-.7597656-.359375Zm8.5986328-5.3994141h5.2790527v-6.6386719c2.3596191.0800781,3.5593262.3603516,3.5593262.9199219,0,.2402344-.4799805.5595703-1.4797363.8798828v4.8388672h4.6791992l1.6796875-2.1992188c.7199707.5595703,1.4797363,1.3994141,2.2397461,2.3994141l-.3601074.6796875h-15.9172363v8.4785156c0,6.7988281-1.6796875,12.1582031-4.9990234,16.1171875l-.7199707-.5595703c2.4394531-3.9589844,3.5993652-9.1582031,3.5993652-15.5175781v-10.6777344s.3598633.1992188.9599609.4794922c.119873.0400391.4797363.2802734,1.1196289.5996094l.3601074.2001953Zm8.0385742,11.6777344v11.6386719h3.8393555l1.7197266-2.4394531c.8798828.8798828,1.6396484,1.7597656,2.279541,2.5996094l-.4399414.7197266h-16.3171387l-.4799805-.8798828h7.2788086v-11.6386719h-4.7592773l-.3598633-.8789062h5.1191406v-8.0390625c2.3596191.1601562,3.5192871.4794922,3.5192871.9599609,0,.3193359-.4399414.6396484-1.3996582.9599609v6.1191406h2.4794922l1.5998535-2.2802734c.7597656.7597656,1.4797363,1.5595703,2.159668,2.3994141l-.3999023.7597656h-5.8391113Z"/>
        <path class="cls-1" d="m709.7809875,93.443819c1.9995117-3.1601562,3.9592285-7.1591797,5.7189941-11.9179688,2.239502.7597656,3.359375,1.4394531,3.359375,1.9589844,0,.3603516-.5598145.5605469-1.7197266.640625-1.5996094,3.1191406-3.6394043,6.1982422-6.1188965,9.2783203l2.1994629-.0400391c3.279541-.1201172,6.5991211-.3203125,9.878418-.5605469l4.5993652-.359375c-1.5998535-1.7998047-3.4794922-3.5595703-5.6391602-5.2392578l.5200195-.7597656c6.9987793,4.2792969,10.4780273,7.5185547,10.4780273,9.7177734,0,.8398438-.3999023,1.2802734-1.199707,1.2802734-.4399414,0-.9597168-.4794922-1.5197754-1.4394531-.4799805-.7597656-1.079834-1.5996094-1.8395996-2.5996094l-.9199219.1201172c-6.0390625.7197266-13.317627,1.5996094-21.8762207,2.2392578-.3200684.9199219-.6398926,1.3994141-.9199219,1.3994141-.5200195,0-.9199219-1.1992188-1.2397461-3.5595703.3598633,0,.9199219-.0390625,1.7197266-.0390625.6799316,0,1.2397461-.0400391,1.6396484-.0400391l2.8796387-.0800781Zm16.4770508,6.2382812l1.3598633-1.6396484c1.5598145,1.1601562,2.3195801,1.9199219,2.3195801,2.3203125,0,.1591797-.119873.3193359-.3198242.4794922l-.9199219.5595703v11.71875h-2.159668v-2.7197266h-16.4772949v2.7197266h-2.1994629v-14.6777344c1.0397949.3994141,1.9594727.8398438,2.7194824,1.2392578h15.6772461Zm-16.1972656.9199219v8.9189453h16.4772949v-8.9189453h-16.4772949Z"/>
      </g>
      <g>
        <path class="cls-1" d="m571.721173,43.8178424c-.2880859-.9541016-.5222168-1.2246094-.9904785-1.4042969-.2341309-.0898438-.684082-.1083984-.8103027-.1083984-.0898438,0-.1618652-.0175781-.1618652-.1259766,0-.0898438.1079102-.1259766.2880859-.1259766.9362793,0,1.9265137.0546875,2.1245117.0546875.1621094,0,.9543457-.0546875,1.8547363-.0546875.2519531,0,.3239746.0546875.3239746.1259766,0,.1083984-.0900879.1259766-.1799316.1259766-.144043,0-.4863281,0-.7023926.1083984-.1079102.0537109-.2341309.1982422-.2341309.4326172,0,.2333984.1621094.8642578.3422852,1.65625.2700195,1.1523438,2.1425781,7.7597656,2.4306641,8.7685547l3.8352051-10.3173828c.2700195-.7382812.342041-.828125.4499512-.828125.1262207,0,.2341309.234375.4501953.8466797l3.6191406,10.3164062c.5222168-1.7646484,2.1787109-6.9853516,2.8088379-9.2900391.1799316-.6669922.197998-.9189453.197998-1.1523438,0-.3242188-.197998-.5410156-1.0263672-.5410156-.0898438,0-.1618652-.0537109-.1618652-.1259766,0-.0898438.0900879-.1259766.3059082-.1259766.918457,0,1.6745605.0546875,1.8366699.0546875.1259766,0,.9001465-.0546875,1.4584961-.0546875.1618652,0,.2519531.0361328.2519531.1083984,0,.0898438-.0539551.1435547-.1618652.1435547-.0722656,0-.4143066.0185547-.6123047.0908203-.5400391.1972656-.828125.9541016-1.1704102,1.9443359-.7922363,2.2861328-2.6108398,8.0126953-3.3129883,10.0292969-.4680176,1.3320312-.5581055,1.5478516-.7561035,1.5478516-.1801758,0-.2880859-.2333984-.5402832-.9365234l-3.546875-10.0644531c-.6662598,1.7822266-3.1330566,8.3720703-3.78125,10.046875-.2880859.7558594-.4140625.9541016-.5942383.9541016-.1799316,0-.2700195-.1982422-.630127-1.421875l-3.204834-10.6777344Z"/>
        <path class="cls-1" d="m596.2192199,51.271944c-.0898438,0-.144043.0546875-.1799316.1445312l-.7922363,2.2509766c-.1801758.5039062-.3061523.9902344-.3061523,1.2783203,0,.3232422.197998.4677734.5942383.4677734h.1259766c.1621094,0,.2160645.0537109.2160645.1259766,0,.0898438-.144043.1259766-.2700195.1259766-.3962402,0-1.2243652-.0537109-1.4226074-.0537109-.1799316,0-.972168.0537109-1.7285156.0537109-.197998,0-.2880859-.0361328-.2880859-.1259766,0-.0722656.0722656-.1259766.2163086-.1259766.0898438,0,.2519531,0,.3598633-.0175781.7744141-.0722656,1.0805664-.6669922,1.3864746-1.4228516l3.6010742-9.4892578c.197998-.5214844.2521973-.6113281.3781738-.6113281.0900879,0,.1621094.0712891.3601074.5761719.2521973.59375,2.7009277,6.8779297,3.6550293,9.1279297.5942383,1.4228516,1.1164551,1.6572266,1.3684082,1.7470703.2341309.0898438.486084.0898438.6123047.0898438.1259766,0,.2160645.0361328.2160645.1259766s-.0720215.1259766-.2700195.1259766c-.1801758,0-1.5305176,0-2.7368164-.0361328-.3422852-.0175781-.4501953-.0361328-.4501953-.1259766,0-.0537109.0539551-.1074219.1259766-.1259766.0720215-.0361328.1801758-.1259766.0720215-.3964844l-1.4223633-3.6181641c-.0361328-.0546875-.0720215-.0908203-.144043-.0908203h-3.2770996Zm3.0610352-.6298828c.0720215,0,.0720215-.0537109.0539551-.1083984l-1.4223633-3.9785156c-.0900879-.2519531-.1081543-.2519531-.197998,0l-1.3505859,3.9785156c-.0358887.0722656,0,.1083984.0361328.1083984h2.8808594Z"/>
        <path class="cls-1" d="m608.4948547,55.4672565c-.2341309-.1074219-.2341309-.1796875-.2341309-.6123047,0-.828125.0539551-1.4404297.0720215-1.6923828.0180664-.1621094.0539551-.2519531.144043-.2519531s.1259766.0537109.1259766.1806641c0,.1074219,0,.3232422.0539551.5400391.2341309,1.1699219,1.2963867,1.6201172,2.3408203,1.6201172,1.4943848,0,2.2145996-1.0263672,2.2145996-1.9267578,0-1.0263672-.4680176-1.65625-1.7824707-2.71875l-.7202148-.5576172c-1.7285156-1.3867188-2.088623-2.3408203-2.088623-3.4033203,0-1.65625,1.3144531-2.7724609,3.3310547-2.7724609.630127,0,1.0622559.0537109,1.458252.1435547.3422852.0722656.4863281.0898438.6123047.0898438s.1621094.0361328.1621094.1083984-.0720215.7021484-.0720215,1.7460938c0,.2705078-.0361328.3779297-.1262207.3779297-.0898438,0-.1079102-.0712891-.1259766-.1972656-.0180664-.1621094-.0539551-.5400391-.2160645-.8466797-.0900879-.1621094-.5041504-.8457031-2.0166016-.8457031-1.0803223,0-1.8903809.6474609-1.8903809,1.7285156,0,.8457031.4321289,1.3681641,1.9265137,2.5019531l.4140625.3242188c1.8725586,1.4404297,2.3586426,2.3945312,2.3586426,3.6728516,0,.6484375-.2700195,1.8007812-1.3684082,2.5576172-.7021484.4501953-1.5664062.6298828-2.4306641.6298828-.7561035,0-1.4584961-.0898438-2.1425781-.3964844Z"/>
        <path class="cls-1" d="m629.5932433,48.9135455c.0539551,0,.1079102,0,.1079102-.0898438v-.3242188c0-2.3769531,0-2.7910156-.0358887-3.2773438-.0361328-.4853516-.1081543-.7382812-.7023926-.8457031-.1259766-.0185547-.3059082-.0361328-.4499512-.0361328-.1262207,0-.2160645-.0537109-.2160645-.1259766,0-.1083984.0898438-.1259766.2519531-.1259766.7563477,0,1.8186035.0537109,1.890625.0537109s1.0803223-.0537109,1.6206055-.0537109c.1799316,0,.2880859.0175781.2880859.1259766,0,.0537109-.0541992.1259766-.1982422.1259766-.1079102,0-.2519531.0175781-.3601074.0361328-.486084.0722656-.5581055.3603516-.5939941.8642578-.0180664.4863281-.0180664.9003906-.0180664,3.2763672v2.7011719c0,1.4765625,0,2.6464844.0720215,3.2949219.0539551.4326172.144043.7919922.6120605.8466797.2341309.0361328.4682617.0537109.6303711.0537109.144043,0,.2338867.0537109.2338867.1259766,0,.0898438-.0898438.1259766-.2700195.1259766-.9003906,0-1.9445801-.0537109-2.034668-.0537109-.0720215,0-1.1162109.0537109-1.6025391.0537109-.1799316,0-.2700195-.0361328-.2700195-.1435547,0-.0546875.0541992-.1083984.1982422-.1083984s.2700195,0,.4140625-.0361328c.3061523-.0537109.3959961-.4501953.4501953-.8642578.0898438-.6484375.0898438-1.7822266.0898438-3.2412109v-1.6025391c0-.0712891-.0539551-.1074219-.1079102-.1074219h-6.5361328c-.0539551,0-.0898438.0175781-.0898438.1074219v1.6025391c0,1.4589844,0,2.6289062.0898438,3.2773438.0541992.3964844.144043.7558594.6123047.8105469.2341309.0361328.5041504.0537109.6481934.0537109.1259766,0,.2160645.0537109.2160645.1259766s-.0720215.1259766-.2341309.1259766c-.9182129,0-1.9804688-.0537109-2.0705566-.0537109-.0539551,0-1.1523438.0537109-1.6206055.0537109-.1799316,0-.2880859-.0361328-.2880859-.1259766,0-.0537109.0361328-.1259766.1982422-.1259766.144043,0,.2880859-.0175781.4321289-.0537109.3239746-.0722656.3959961-.4140625.4501953-.8105469.1079102-.6484375.0898438-1.8544922.0898438-3.3310547v-2.6650391c0-2.3759766,0-2.8447266-.0358887-3.3310547-.0361328-.4677734-.1621094-.8095703-.6843262-.8642578-.1621094-.0175781-.342041-.0361328-.486084-.0361328-.1259766,0-.197998-.0537109-.197998-.1074219,0-.1083984.0898438-.1259766.2700195-.1259766.7741699,0,1.6384277.0537109,1.8725586.0537109.0720215,0,1.1162109-.0537109,1.6206055-.0537109.1799316,0,.2700195.0361328.2700195.1259766,0,.0722656-.0720215.1074219-.1801758.1074219-.1079102,0-.1621094,0-.3601074.0361328-.4499512.0722656-.5581055.3789062-.5939941.8828125-.0180664.4863281-.0180664.8818359-.0180664,3.2587891v.3242188c0,.0898438.0539551.0898438.1079102.0898438h6.5180664Z"/>
        <path class="cls-1" d="m638.698468,55.4672565c-.2341309-.1074219-.2341309-.1796875-.2341309-.6123047,0-.828125.0539551-1.4404297.0720215-1.6923828.0180664-.1621094.0539551-.2519531.144043-.2519531s.1259766.0537109.1259766.1806641c0,.1074219,0,.3232422.0539551.5400391.2341309,1.1699219,1.2963867,1.6201172,2.3408203,1.6201172,1.4943848,0,2.2145996-1.0263672,2.2145996-1.9267578,0-1.0263672-.4680176-1.65625-1.7824707-2.71875l-.7202148-.5576172c-1.7285156-1.3867188-2.088623-2.3408203-2.088623-3.4033203,0-1.65625,1.3144531-2.7724609,3.3310547-2.7724609.630127,0,1.0622559.0537109,1.458252.1435547.3422852.0722656.4863281.0898438.6123047.0898438s.1621094.0361328.1621094.1083984-.0720215.7021484-.0720215,1.7460938c0,.2705078-.0361328.3779297-.1262207.3779297-.0898438,0-.1079102-.0712891-.1259766-.1972656-.0180664-.1621094-.0539551-.5400391-.2160645-.8466797-.0900879-.1621094-.5041504-.8457031-2.0166016-.8457031-1.0803223,0-1.8903809.6474609-1.8903809,1.7285156,0,.8457031.4321289,1.3681641,1.9265137,2.5019531l.4140625.3242188c1.8725586,1.4404297,2.3586426,2.3945312,2.3586426,3.6728516,0,.6484375-.2700195,1.8007812-1.3684082,2.5576172-.7021484.4501953-1.5664062.6298828-2.4306641.6298828-.7561035,0-1.4584961-.0898438-2.1425781-.3964844Z"/>
        <path class="cls-1" d="m655.205548,51.218233c0,1.3867188.0178223,2.6650391.0898438,3.3310547.0541992.4316406.0900879.6845703.5402832.7919922.2160645.0546875.5581055.0722656.7021484.0722656s.2160645.0537109.2160645.1083984c0,.0898438-.0539551.1435547-.2341309.1435547-.9182129,0-1.9804688-.0537109-2.0524902-.0537109s-1.1342773.0537109-1.6025391.0537109c-.197998,0-.2700195-.0361328-.2700195-.1259766,0-.0537109.0539551-.1259766.197998-.1259766s.2521973,0,.3962402-.0175781c.342041-.0546875.3959961-.2705078.4680176-.8828125.0720215-.6484375.0720215-1.9443359.0720215-3.2949219v-6.4277344c-.5942383,0-1.5483398,0-2.2685547.0175781-1.1523438.0185547-1.404541.1982422-1.6567383.5761719-.1618652.2519531-.2338867.46875-.2700195.5585938-.0539551.1259766-.0898438.1435547-.1621094.1435547-.0717773,0-.0898438-.0712891-.0898438-.1621094-.0180664-.1074219.2519531-1.2958984.3601074-1.7822266.0539551-.2158203.1079102-.2880859.1618652-.2880859.1262207,0,.4682617.1621094.7924805.1982422.630127.0722656,1.1342773.0898438,1.1523438.0898438h5.9057617c.5039062,0,1.0441895-.0361328,1.2963867-.0898438.2338867-.0537109.2880859-.0722656.342041-.0722656.0720215,0,.1079102.0898438.1079102.1621094,0,.5039062-.0358887,1.6923828-.0358887,1.8369141,0,.1621094-.0720215.2158203-.1259766.2158203-.0900879,0-.1262207-.0722656-.1262207-.2158203,0-.0546875,0-.0722656-.0178223-.2519531-.0722656-.7207031-.3061523-.9003906-2.1247559-.9189453-.6843262,0-1.2424316-.0175781-1.7644043-.0175781v6.4277344Z"/>
        <path class="cls-1" d="m666.38255,51.271944c-.0900879,0-.144043.0546875-.1799316.1445312l-.7922363,2.2509766c-.1801758.5039062-.3061523.9902344-.3061523,1.2783203,0,.3232422.197998.4677734.5942383.4677734h.1259766c.1621094,0,.2160645.0537109.2160645.1259766,0,.0898438-.144043.1259766-.2700195.1259766-.3962402,0-1.2243652-.0537109-1.4223633-.0537109-.1801758,0-.9724121.0537109-1.7285156.0537109-.1982422,0-.2880859-.0361328-.2880859-.1259766,0-.0722656.0717773-.1259766.2158203-.1259766.0900879,0,.2521973,0,.3603516-.0175781.7741699-.0722656,1.0800781-.6669922,1.3862305-1.4228516l3.6010742-9.4892578c.1982422-.5214844.2521973-.6113281.3781738-.6113281.0900879,0,.1621094.0712891.3601074.5761719.2519531.59375,2.7006836,6.8779297,3.6550293,9.1279297.5942383,1.4228516,1.1164551,1.6572266,1.3684082,1.7470703.2341309.0898438.4863281.0898438.6123047.0898438s.2160645.0361328.2160645.1259766-.0720215.1259766-.2702637.1259766c-.1799316,0-1.5302734,0-2.7368164-.0361328-.342041-.0175781-.4499512-.0361328-.4499512-.1259766,0-.0537109.0539551-.1074219.1259766-.1259766.0720215-.0361328.1799316-.1259766.0720215-.3964844l-1.4223633-3.6181641c-.0361328-.0546875-.0720215-.0908203-.144043-.0908203h-3.2770996Zm3.0610352-.6298828c.0720215,0,.0720215-.0537109.0539551-.1083984l-1.4223633-3.9785156c-.0900879-.2519531-.1081543-.2519531-.1982422,0l-1.3503418,3.9785156c-.0358887.0722656,0,.1083984.0361328.1083984h2.8808594Z"/>
        <path class="cls-1" d="m679.0720031,44.6098346c0-.5576172.0539551-.7373047.197998-.7373047.1259766,0,.4321289.359375.5581055.4853516.1621094.1806641,2.6650391,2.7373047,5.1855469,5.3115234,1.404541,1.3691406,3.2050781,3.2236328,3.6733398,3.6552734l-.1982422-7.4902344c-.0180664-.9716797-.1259766-1.2958984-.6120605-1.421875-.3061523-.0546875-.5761719-.0722656-.7023926-.0722656-.1799316,0-.2158203-.0722656-.2158203-.1445312,0-.0898438.144043-.1074219.3239746-.1074219.7741699,0,1.5305176.0537109,1.692627.0537109.1799316,0,.7380371-.0537109,1.4404297-.0537109.197998,0,.2519531.0175781.2519531.1074219,0,.0722656-.0539551.1259766-.1621094.1445312-.1079102.0175781-.2519531.0175781-.4501953.0537109-.4140625.0898438-.5400391.2705078-.5400391,1.3505859l-.0361328,9.0390625c0,.9003906-.0358887.9902344-.1618652.9902344-.1262207,0-.3061523-.1259766-1.1884766-.9541016-.0720215-.0361328-2.574707-2.5214844-4.1411133-4.0517578-1.8725586-1.9443359-3.6730957-3.8173828-4.123291-4.2851562l.2341309,7.0400391c.0358887,1.2421875.144043,1.7109375.5939941,1.8183594.2880859.0722656.5942383.0722656.7382812.0722656s.2160645.0537109.2160645.1259766c0,.0898438-.0900879.1259766-.2880859.1259766-.972168,0-1.6203613-.0537109-1.7463379-.0537109-.1262207,0-.7924805.0537109-1.5666504.0537109-.1618652,0-.2700195-.0175781-.2700195-.1259766,0-.0722656.0720215-.1259766.2521973-.1259766.1259766,0,.3239746,0,.5581055-.0722656.3959961-.1259766.486084-.6123047.486084-1.9267578,0-8.5878906.0180664-5.8154297,0-8.8046875Z"/>
        <path class="cls-1" d="m697.5400207,48.5170612c0-2.3759766,0-2.8261719-.0358887-3.2949219-.0361328-.4853516-.1801758-.7382812-.7023926-.8457031-.1079102-.0185547-.3779297-.0361328-.5219727-.0361328-.0900879,0-.1801758-.0537109-.1801758-.1083984,0-.1074219.1081543-.1435547.2700195-.1435547.7382812,0,1.8725586.0537109,1.9267578.0537109.1259766,0,1.0622559-.0537109,2.0705566-.0537109,1.5844727,0,4.5373535-.1621094,6.4460449,1.7646484.7919922.7919922,1.5302734,2.0527344,1.5302734,3.8710938,0,1.9082031-.828125,3.4023438-1.7104492,4.3027344-.7021484.7021484-2.0705566,1.7646484-4.807373,1.7646484-.6843262,0-1.5666504-.0361328-2.2507324-.0898438-.684082-.0361328-1.2424316-.0898438-1.2963867-.0898438-.0361328,0-.2700195,0-.6123047.0175781-.342041,0-.7741699.0361328-1.0441895.0361328-.1621094,0-.2521973-.0361328-.2521973-.1259766,0-.0537109.0541992-.1259766.1982422-.1259766s.2700195-.0175781.4140625-.0537109c.3061523-.0546875.4140625-.4326172.4682617-.828125.1079102-.6669922.0898438-1.890625.0898438-3.3496094v-2.6650391Zm1.4765625,1.53125c0,1.6201172.0180664,3.0244141.0180664,3.2949219.0178223.5576172.0539551,1.0439453.1799316,1.2060547.197998.3056641.7741699.6845703,2.6467285.6845703,1.4765625,0,2.8088379-.46875,3.7451172-1.4052734.7922363-.7919922,1.1704102-2.1425781,1.1704102-3.5830078,0-2.0341797-.9362793-3.2763672-1.5483398-3.8710938-1.5305176-1.5302734-3.295166-1.7099609-5.0776367-1.7099609-.2519531,0-.8103027.0537109-.9182129.1259766-.144043.0722656-.197998.1435547-.197998.3056641-.0180664.5224609-.0180664,2.0527344-.0180664,3.1328125v1.8193359Z"/>
      </g>
    </g>
  </g>
</svg>