<?xml version="1.0" encoding="UTF-8"?>
<svg id="_レイヤー_2" data-name="レイヤー 2" xmlns="http://www.w3.org/2000/svg" viewBox="0 0 1279.94646 178.3273835">
  <defs>
    <style>
      .cls-1 {
        fill: #fff;
      }

      .cls-2 {
        fill: #e8c416;
      }

      .cls-3 {
        fill: none;
      }

      .cls-4 {
        fill: #ae8f36;
      }
    </style>
  </defs>
  <g id="_レイヤー_1-2" data-name="レイヤー 1">
    <g>
      <path class="cls-1" d="m595.6198547,95.0119538c0,.7197266.0400391,3.8388672,0,5.2392578,0,1.3994141,0,3.6796875.1999512,5.0390625.1999512,1.3203125.4799805,2.4394531.7199707,3.5195312.2399902,1.1191406.119873,2.5996094-.8798828,2.6796875-.9199219.1191406-1.8796387-.6796875-2.3195801-1.640625-.4799805-.9589844-.4799805-2.2792969-.2800293-3.359375s.3601074-2.5585938.5200195-4.3183594c.1599121-1.8007812.2399902-4.2792969.2797852-6.4394531.0800781-2.1992188.1999512-4.0390625.2800293-5.7587891.0400391-1.6806641.0400391-2.7998047-.1599121-3.9990234-.1599121-1.1201172-.5200195-1.8398438-1.1599121-2.3603516-.5998535-.5195312-.9196777-1.2001953-.5998535-1.5996094.3200684-.4794922,1.0397949-.3603516,1.6396484-.2001953.6398926.1601562,1.4797363.5605469,1.9196777,1.2802734s.2399902,1.6396484.1601562,2.2001953c-.1201172.6386719-.1999512,1.71875-.2800293,2.9589844-.0400391,1.2402344-.0800781,2.6796875-.0400391,4.2392578.0400391.5195312.4799805.5195312.8398438.5595703,1.7998047.0800781,2.7995605.2402344,4.3994141.9199219,1.5595703.6796875,2.7194824,1.4804688,3.8791504,2.7597656,1.1599121,1.2402344,1.8798828,3.359375.3200684,3.9589844-1.5598145.5605469-2.3996582-1.2402344-3.279541-2.71875-.8398438-1.4804688-1.7595215-2.4804688-2.7595215-3.0800781-.8798828-.5605469-1.6796875-.8398438-2.6794434-.9599609-.5600586-.0400391-.7199707.3193359-.7199707,1.0800781Z"/>
      <path class="cls-1" d="m625.1415832,100.3703523c.8000488-.359375,1.3999023-.6386719,2.5595703-1.3193359,2.159668-1.2001953,3.7194824-2.2792969,6.0791016-4.1191406,2.3195801-1.8798828,4.5192871-3.7587891,6.3188477-5.5595703,1.7998047-1.7988281,2.9194336-3.1191406,3.6394043-3.9990234s.6799316-1.3994141.4399414-1.8388672c-.2800293-.4404297-.3198242-1.0410156,0-1.2011719.8398438-.5195312,2.3596191.4003906,2.8796387,1.0410156.4797363.5996094.6398926,1.3994141.3598633,1.9199219-.3200684.5996094-.8798828,1.0390625-1.5598145,1.6386719-.7197266.5996094-2.0395508,1.6796875-3.359375,2.9199219-.5998535.5605469-1.2397461,1.1601562-1.8796387,1.7597656.4399414.0800781.9597168.1601562,1.4396973.4003906.8798828.3994141,1.4797363.8789062,1.5998535,1.5195312.1599121.6396484-.2399902.9589844-.4001465,1.5996094-.1599121.6396484-.1599121,2.3193359-.1999512,3.6796875-.079834,1.2792969-.079834,3.1191406-.0400391,4.7988281,0,1.6796875.1201172,3.6796875.1201172,5.1191406.0400391,1.4394531-.3999023,2.359375-1.4396973,2.3193359-.9599609-.0800781-1.3999023-1.5996094-1.2797852-2.3193359.119873-.7207031.3198242-2.3203125.3598633-3.9199219.0400391-1.5595703.119873-3.5585938.1999512-5.3183594.0400391-1.7207031.0800781-2.8398438.0400391-3.9589844,0-1.1210938-.1201172-1.9199219-.4799805-2.5605469-.1599121-.2792969-.4799805-.4794922-.7998047-.5595703-.3999023.3193359-.7600098.6396484-1.119873.9599609-1.3596191,1.1992188-3.7993164,2.8398438-5.6789551,4.0390625-1.9196777,1.1992188-2.9995117,1.7197266-4.1193848,2.2792969-1.079834.5605469-2.1196289,1-3.4394531,1.4003906-.5598145.1601562-.8398438-.5195312-.2399902-.7207031Z"/>
      <path class="cls-1" d="m689.3776672,90.132071c-.4399414.8007812-1.4399414,2.2802734-2.6396484,3.7197266-1.3198242,1.6005859-3.1594238,3.5996094-4.9592285,5.2792969-1.9594727,1.8798828-3.4394531,2.8798828-6.1989746,4.8388672-2.0795898,1.4804688-2.9995117,2.0800781-3.9592285,2.6796875-.8798828.5996094-1.4396973.4804688-1.8395996-.0390625-.4399414-.5205078-1.1599121-1.5605469-1.5598145-2.0410156-.3999023-.4794922-.4799805-.9990234-.2800293-1.3984375.1201172-.4404297.1999512-1.3203125.2399902-2.4404297s.0400391-2.7587891.0800781-5.0791016v-5.0390625c-.0400391-1.0400391,0-1.9199219-.5600586-2.4794922-.5197754-.5205078-.9597168-1-.7597656-1.4794922.1599121-.4003906.7597656-.5996094,1.3996582-.4804688.6398926.1201172,1.3198242.4394531,2.1196289,1.0400391.8398438.6396484.8000488,1.2802734.6000977,1.7197266-.1999512.4804688-.3200684,1.7197266-.4399414,3.1601562-.1601562,2.3984375-.1601562,5.5185547-.2399902,7.3183594-.0400391.9199219-.1999512,2.7597656.5998535,3.1191406.7597656.3203125,1.5197754-.1601562,3.6794434-1.2402344,2.1994629-1.0791016,4.1591797-2.1992188,6.3188477-4.0390625s3.5195312-3.1191406,4.7192383-4.3984375c1.2797852-1.2402344,2.5996094-2.6796875,2.9594727-3.1601562.3999023-.5195312.8398438-.8798828.9997559-.7998047.1999512.0800781.1601562.4404297-.2797852,1.2392578Z"/>
    </g>
    <circle class="cls-4" cx="146.8255931" cy="77.5735207" r="77.5735207"/>
    <g>
      <path class="cls-1" d="m370.7873351,163.7033601c.2080078-.2724609.3842773-.5595703.512207-.5595703.1923828,0,1.456543,1.0722656,1.456543,1.3125-.0317383.1757812-.1757812.2558594-.3999023.2558594h-6.1303711c.5439453,3.0253906,2.1767578,6.2578125,6.7387695,8.4355469l-.0322266.1757812c-.5283203.0644531-.8964844.2714844-1.0566406.8798828-4.2734375-2.4482422-5.5058594-6.2744141-5.9541016-9.4755859-.4165039,3.7294922-1.8408203,7.0429688-7.1069336,9.4599609l-.1762695-.2880859c4.4980469-2.4970703,5.8105469-5.6181641,6.2104492-9.1875h-3.3452148c-.8320312.015625-1.6005859.0957031-2.4008789.2236328l-.4321289-.8164062c.7041016.0800781,1.4086914.1123047,2.1289062.1279297h4.0976562c.0478516-.4794922.0639648-.9599609.0800781-1.4404297.0478516-1.0556641-.0161133-2.4482422-.1601562-3.3291016,1.8569336.1757812,1.8569336.3359375,1.5844727.5283203l-.2558594.1923828c-.0322266,1.3759766-.0483398,2.7363281-.1762695,4.0488281h4.434082l.3837891-.5439453Z"/>
      <path class="cls-1" d="m385.682843,165.288321c-.1279297.1113281-.800293.4960938-1.6962891.8320312.671875,1.1367188,1.2163086,2.0488281,1.328125,2.2568359.3203125.5605469.4643555.8642578.4165039,1.3291016-.0483398.4638672-.512207,1.0234375-.7363281,1.1357422s-.4321289-.0957031-.7045898-.3515625c-1.1201172-1.0566406-2.6088867-1.1845703-3.4091797-1.1689453-.8164062.0322266-2.2407227.625-1.9370117,1.9052734.3203125,1.2958984,2.0810547,1.1357422,2.6572266,1.0400391.5761719-.1123047,1.2324219,0,1.5688477.2402344.3198242.2080078.2558594.8164062-.2080078.8808594-4.0976562.4960938-4.6743164-1.4570312-4.722168-1.9853516-.144043-1.9365234,1.4887695-2.3691406,2.5292969-2.5292969,1.0561523-.1435547,2.0805664.1123047,2.5610352.2246094.4799805.1279297.7680664.1435547,1.0083008.0478516.2397461-.0957031.1118164-.4160156.0478516-.6884766-.0478516-.1601562-.4960938-1.0087891-1.0722656-2.0966797-.5444336.1757812-1.152832.3203125-1.7290039.3681641-.800293.0634766-2.1289062.1601562-3.3613281-.9921875-.2558594-.2246094-.4321289-.4970703-.4160156-.5761719.0161133-.1123047.1918945-.0166016.3041992.0478516.1118164.0800781,1.3286133.8164062,2.5927734.7519531.7524414-.03125,1.5527344-.2080078,2.1928711-.4003906-.3037109-.5595703-.6240234-1.1523438-.9282227-1.7285156-.0639648-.1279297-.1279297-.2402344-.2080078-.3681641-.6401367.2080078-1.3925781.3837891-1.8725586.2568359-.7363281-.2089844-1.1206055-.640625-1.4570312-1.0888672-.1279297-.1435547-.1757812-.2402344-.144043-.2880859.0644531-.0800781.3364258.0957031.512207.2080078.144043.0800781.9125977.5283203,1.6010742.3837891.2397461-.0478516.5439453-.1601562.8481445-.2558594-.8642578-1.2001953-1.6645508-1.6484375-2.0488281-1.7929688-.1601562-.0634766-.4160156-.1435547-.4321289-.3203125-.0161133-.1914062.3359375-.2871094.512207-.3037109.800293-.1279297,1.2001953.1767578,1.4887695.5283203.0957031.1123047.4960938.7841797,1.0400391,1.6806641.3203125-.1279297.5761719-.2236328.6884766-.2402344.3041992-.0322266.5761719.0644531.7041016.3037109.128418.2089844-.0800781.3525391-.2558594.4648438-.0639648.0322266-.3041992.1601562-.6401367.2880859.1118164.1923828.2397461.4003906.3681641.6083984.0478516.015625.1118164.03125.159668.0478516.2880859.0800781,1.2646484.2724609,2.0170898.1923828.7519531-.0644531,1.3286133-.0488281,1.3442383.3203125.0322266.3515625-.2719727.6240234-.512207.8320312Zm-1.6962891-.7207031c-.2402344-.0800781-.7207031-.2080078-1.1367188-.3515625.2241211.3671875.4482422.7519531.6723633,1.1201172.144043-.0634766.2558594-.1123047.3359375-.1601562.4003906-.2558594.512207-.4804688.128418-.6083984Z"/>
      <path class="cls-1" d="m395.776593,163.0793366c-.7680664,2.1132812-2.4008789,6.1308594-2.625,6.7871094-.144043.3994141-.7202148.6074219-.8803711.3037109-.0639648-.0966797-.1762695-.3525391-.144043-.7841797.0161133-.1923828.1118164-.3359375.4321289-.8642578,0,0,1.6967773-2.9453125,2.4008789-5.1542969-.0317383.015625-.0639648.015625-.0957031.0322266-1.6650391.2880859-2.0488281-.8320312-2.2250977-1.0410156-.0639648-.1113281-.0800781-.2402344-.0639648-.2714844.0317383-.0322266.1279297-.0488281.3041992.1113281.2880859.2890625.8959961.3525391,1.4243164.3203125.2080078-.015625.5605469-.1279297.9287109-.2402344,0-.0478516,0-.0957031.015625-.1279297.0800781-.8164062.0961914-1.0087891-.1118164-1.2958984-.2080078-.2890625-.7045898-.2890625-.5600586-.5449219.0639648-.1113281.3837891-.1601562.7680664-.015625.3359375.1279297,1.1362305.3037109.8164062,1.6328125.1601562-.0644531.2558594-.0957031.2558594-.0957031.0161133,0,.2563477-.1289062.2880859-.2246094.0161133-.015625.0800781-.0957031-.1118164-.2402344-.0161133-.015625-.2719727-.1601562-.2719727-.2080078,0-.1923828.512207-.1435547.65625-.1435547.2558594,0,.3681641,0,.5761719-.0166016.2241211-.015625.3999023.0800781.4960938.2724609.0800781.1757812.0161133.6240234-.2558594.7841797-.8964844.4960938-1.5366211.8164062-2.0170898,1.0244141Zm6.8989258,2.1601562c-.3842773.0332031-.6401367-.2070312-.8642578-.3515625-.2241211-.1601562-.800293-.3515625-1.2167969-.2080078-.2080078.0800781-.9282227.4326172-1.1845703,1.3603516-.144043.4960938.0161133,1.7285156.0161133,1.7285156.0483398.7851562.1923828,1.4570312.2880859,2.4492188,1.2006836.3046875,2.2412109.8486328,2.480957,1.1044922.4321289.4482422.4165039.7685547.2084961.9599609-.2563477.2402344-.5605469.0644531-1.1044922-.2871094-.5283203-.3525391-1.0244141-.5927734-1.5048828-.7685547,0,.1435547.0161133.2880859.0161133.4316406.0161133.8964844-.7041016,1.7763672-2.1450195,1.8251953-1.6166992.0478516-2.3046875-1.0244141-2.3686523-1.5371094-.0639648-.5761719.2241211-1.3925781,1.4243164-1.7929688.65625-.2236328,1.4248047-.2236328,2.1767578-.1113281-.1118164-1.0410156-.159668-2.59375-.144043-2.9775391.0161133-.7363281.144043-1.2001953.4804688-1.7451172.4643555-.7675781,1.6005859-1.1201172,2.0004883-1.2636719.784668-.2880859-.3837891-1.1523438-.4799805-1.296875s.4799805-.0644531.8164062.0644531c.512207.2236328,1.0883789.5761719,1.4887695,1.2158203.3520508.5605469.015625,1.1689453-.3842773,1.2001953Zm-3.793457,5.7304688c-1.2006836-.2558594-2.097168-.0478516-2.3691406.0488281-.4482422.1601562-.5761719.4316406-.6083984.5917969-.0800781.5761719.4804688,1.0087891,1.2485352,1.0410156,1.3447266.0634766,1.5527344-.4970703,1.6806641-1.0888672.0161133-.0966797.0322266-.3203125.0483398-.5927734Z"/>
      <path class="cls-1" d="m418.19505,164.0392976c.1923828-.2392578.3364258-.4960938.4643555-.4960938.1918945,0,1.3603516.9609375,1.3603516,1.2001953-.0317383.1767578-.1918945.2568359-.3999023.2568359h-5.3139648v3.1367188h4.4013672l.3525391-.5117188c.1918945-.2568359.3520508-.5126953.4799805-.5126953.1918945,0,1.3925781.9765625,1.3925781,1.2167969-.0478516.1757812-.1918945.2558594-.4003906.2558594h-6.2260742v3.921875c0,.8642578-.2241211,1.5048828-1.9047852,1.6484375-.0322266-.3359375-.1762695-.6240234-.4326172-.7675781-.3198242-.2089844-.815918-.3525391-1.7285156-.4648438v-.2402344s2.1289062.1757812,2.5610352.1757812c.3359375,0,.4482422-.1269531.4482422-.4160156v-3.8574219h-4.0498047c-.8320312.0166016-1.6005859.0957031-2.4008789.2246094l-.4160156-.8007812c.7041016.0800781,1.4086914.1123047,2.1289062.1279297h4.737793v-3.1367188h-3.0253906c-.8320312.015625-1.6005859.0957031-2.4008789.2236328l-.4160156-.8164062c.7041016.0800781,1.4086914.1123047,2.1289062.1289062h3.7133789v-2.9619141c-1.8408203.2236328-3.8256836.3837891-5.7304688.4160156l-.0639648-.3193359c2.6733398-.2089844,5.7143555-.7363281,8.0991211-1.3447266,1.0244141-.2568359,1.7929688-.5771484,2.5610352-1.0087891,1.168457,1.296875,1.168457,1.4570312.7524414,1.4082031l-.3999023-.0634766c-1.168457.2880859-2.609375.5439453-4.1616211.7685547v3.1054688h3.5371094l.3520508-.4970703Z"/>
      <path class="cls-1" d="m422.6706359,163.0793366c3.2490234.4804688,2.6088867,2.7695312,1.5043945,2.0966797-.1918945-.7041016-.9760742-1.5048828-1.6323242-1.9365234l.1279297-.1601562Zm.8164062,6.5947266c.1918945,0,.2397461-.0166016.3837891-.3203125q.2724609-.5761719,2.9936523-7.0751953l.3037109.0644531c-.671875,2.0166016-1.984375,5.8105469-2.2246094,6.578125-.1279297.5126953-.2402344.9931641-.2241211,1.3925781.0161133.7050781.4482422,1.4414062.3842773,2.7539062-.0322266.671875-.3203125,1.0878906-.8486328,1.0878906-.2719727,0-.4482422-.2880859-.4960938-.7841797.2241211-1.6328125.144043-2.8808594-.2080078-3.1054688-.1923828-.1601562-.4321289-.2080078-.7685547-.2392578v-.3525391h.7045898Zm.3359375-9.9882812c3.3452148.5126953,2.7373047,2.8818359,1.6005859,2.2412109-.2241211-.7363281-1.0722656-1.6171875-1.7446289-2.0976562l.144043-.1435547Zm11.2207031,6.2265625c.1757812-.2402344.3198242-.4804688.4482422-.4804688.1918945,0,1.2963867.9287109,1.2963867,1.1689453-.0478516.1757812-.2080078.2558594-.4003906.2558594h-3.3129883v5.7304688c0,.2402344.0478516.3037109.4799805.3037109h1.0244141c.4960938,0,.8486328,0,1.0083008-.015625.128418-.0166016.1762695-.0478516.2402344-.2080078.1123047-.2724609.2880859-1.3603516.4643555-2.3691406h.1918945l.0478516,2.4492188c.3041992.1279297.3842773.2558594.3842773.4638672,0,.4326172-.4160156.640625-2.3369141.640625h-1.2163086c-1.0566406,0-1.2485352-.2724609-1.2485352-1.0087891v-5.9863281h-1.7768555c-.2558594,3.6494141-1.2963867,5.8583984-4.7060547,7.2988281l-.1118164-.2402344c2.8330078-1.6806641,3.5532227-3.8251953,3.7133789-7.0585938h-.9443359c-.5761719.015625-1.1206055.0957031-1.6645508.2246094l-.4003906-.8164062c.7045898.0800781,1.4086914.1113281,2.1289062.1279297h2.6733398v-3.1689453h-2.3051758c-.4321289.9921875-.9760742,1.8564453-1.6005859,2.5283203l-.2402344-.1435547c.3681641-.6728516.6884766-1.4726562.9604492-2.3691406.3041992-1.0087891.5283203-2.5615234.4804688-3.4570312,1.7924805.3671875,1.7924805.5273438,1.5205078.671875l-.2719727.1435547c-.1762695.7685547-.4003906,1.4892578-.65625,2.1611328h2.112793c0-1.0722656-.0639648-2.4003906-.2080078-3.265625,1.7602539.4960938,1.7602539.65625,1.472168.8486328l-.2880859.1767578v2.2402344h2.2729492l.3203125-.4804688c.1762695-.2402344.3203125-.4804688.4482422-.4804688.1918945,0,1.2641602.9287109,1.2641602,1.1689453-.0317383.1767578-.1918945.2568359-.3999023.2568359h-3.9057617v3.1689453h2.7211914l.3203125-.4804688Z"/>
      <path class="cls-1" d="m440.1432922,162.678946c.0800781-.1757812.8803711.0800781,1.2802734.4326172.3203125.3037109.4321289.5595703.4165039.8955078-.0161133.65625-.6723633,2.3535156-.4804688,3.8105469.2080078,1.5039062,1.0883789,2.1923828,1.3286133,2.3681641.2558594.1767578.4160156.2402344.4960938.2402344.0800781-.015625.1762695.0166016.2563477-.3203125.2241211-1.0244141.4799805-1.7119141.5600586-1.9042969.0639648-.1767578.1762695-.3037109.2402344-.2880859s.0317383.2080078,0,.3681641c-.2241211,1.0400391-.144043,1.9042969-.1123047,2.2412109.0322266.3359375.2724609.7519531.2880859.9277344.0161133.1757812.0322266.4160156-.1918945.5449219-.2080078.1435547-1.0244141.03125-2.1289062-.9609375-.3999023-.3681641-1.3764648-1.4882812-1.5527344-3.1533203-.1601562-1.6650391.1762695-2.9287109.1923828-3.3447266.0317383-.4003906.1118164-.6894531.015625-.9609375-.0957031-.2724609-.2880859-.5117188-.5439453-.7363281-.0478516-.0322266-.0961914-.0800781-.0639648-.1601562Zm7.2509766,1.9375c0-.0644531.0317383-.0966797.144043-.1289062.0957031-.03125,1.5366211-.5439453,2.8168945.65625.6401367.6083984.9604492,1.4091797.9765625,1.8085938.0317383.4160156-.144043.9765625-.7685547.8330078-.3041992-.0800781-.3520508-.3203125-.3999023-.4638672-.0639648-.1445312-.5761719-1.9853516-1.4404297-2.4179688-.496582-.2402344-1.1044922-.1914062-1.2006836-.1914062-.0639648,0-.1279297-.0488281-.1279297-.0957031Z"/>
      <path class="cls-1" d="m456.7033508,170.7785554c-.4160156.2236328-1.1362305.2080078-1.2963867-.2724609-.1923828-.6083984.3999023-.9765625.9604492-1.2324219.5761719-.2558594,1.1523438-.6396484,1.6645508-1.3291016.1118164-.1591797.1918945-.3671875.2880859-.3359375.0961914.0488281.0161133.3203125-.0322266.5449219-.2719727,1.1201172-1.0561523,2.3369141-1.5844727,2.625Zm10.996582-5.5224609c.0161133.3037109-.1762695.4326172-.9125977.3203125-1.0083008-.1601562-2.9130859-.1123047-4.8178711.0800781v.65625c0,2.0810547.3520508,4.2734375.144043,5.3623047-.2080078,1.0878906-.6401367,1.2001953-.8164062,1.2158203-.1918945.0322266-.3520508-.0478516-.4321289-.5283203-.1601562-.9599609-1.3603516-1.6796875-1.4882812-1.7597656-.144043-.0800781-.128418-.2402344.0795898-.1923828.0644531.015625.6884766.2558594,1.2006836.3193359.4799805.0488281.4321289-.4316406.4321289-.671875,0-.8164062-.0161133-2.6572266-.0478516-4.3056641-1.0883789.1435547-2.1289062.3203125-2.9453125.5283203-1.0244141.2558594-1.8725586.2724609-2.2568359-.7041016-.0800781-.2402344-.1601562-.4326172-.0800781-.4960938.0800781-.0644531.2241211.0478516.3842773.1123047.2080078.0800781.8481445.2714844,1.5683594.2558594.3203125,0,1.809082-.0966797,3.3134766-.2402344-.0322266-1.2646484-.0800781-2.3046875-.1762695-2.4492188-.2080078-.3359375-.4160156-.4804688-.6079102-.5605469-.1762695-.0800781-.3520508-.1435547-.2402344-.2558594.1918945-.1914062.4321289-.2880859.7685547-.2880859.3520508,0,1.2001953.5439453,1.3764648.8642578.1918945.3203125.1601562.4804688.0317383.7685547-.1118164.2236328-.1757812.671875-.2080078,1.8408203,1.2006836-.1123047,2.2407227-.2402344,2.5610352-.3359375.800293-.2558594.9282227-.640625,1.6645508-.4648438.7207031.1767578,1.5048828.625,1.5048828.9287109Zm-1.3925781,4.2900391c-.4321289-.625-.8964844-1.1044922-1.6489258-1.5214844-.3359375-.1757812-.2880859-.2070312-.2719727-.2558594.0322266-.0478516.144043-.0634766.3203125-.015625,1.1845703.2246094,3.1210938,1.0078125,3.3613281,2.2568359.2080078.9921875-.4482422,1.0400391-.6245117,1.0087891-.5600586-.1123047-.512207-.5927734-1.1362305-1.4726562Zm1.3125-7.0117188c.0317383.3046875-.0639648.4648438-.2563477.5449219-.1918945.0800781-.5600586,0-.7680664-.3681641-.2080078-.4160156-.7041016-1.0888672-1.2324219-1.4248047-.1601562-.0957031-.3842773-.1914062-.3681641-.3037109.0478516-.1279297.3198242-.0800781.5761719-.0322266.2719727.0644531,1.9848633.5917969,2.0488281,1.5839844Zm1.4726562-1.4238281c.0317383.2880859-.0322266.4316406-.2080078.5117188-.1762695.0644531-.512207.0166016-.7045898-.3203125-.2241211-.3671875-.6879883-.9599609-1.1845703-1.2480469-.144043-.0800781-.3520508-.1601562-.3198242-.2558594.0161133-.1279297.2719727-.0957031.512207-.0488281.2402344.0488281,1.8085938.4648438,1.9047852,1.3613281Z"/>
      <path class="cls-1" d="m472.495343,163.1750398c.0322266-.1601562.2558594-.1601562.4321289-.1601562.1762695-.015625,1.1362305.1445312,1.456543.5126953.0478516.0478516.0961914.1435547.144043.2558594.5283203-.0322266,1.4248047-.1435547,2.3691406-.2558594.0317383-.3837891.0317383-1.0566406-.0161133-1.5205078-.0639648-.6083984-.2241211-.6728516-.4321289-.8486328-.2241211-.1601562-.3681641-.1279297-.3681641-.3037109.0161133-.1767578.5444336-.2890625.9121094-.2724609.3842773.015625.7045898.0957031.9287109.2724609.2241211.1914062.3041992.4316406.2080078.7998047-.0639648.2880859-.2241211.7041016-.2241211,1.1523438,0,.2568359,0,.4482422.0161133.5761719,1.2324219-.1591797,2.3369141-.3359375,2.5610352-.3837891.3359375-.0800781.5439453-.4160156.7363281-.4160156.1918945,0,1.2163086.640625,1.3442383.7998047.144043.1601562.2563477.2246094.2241211.4326172-.0317383.2236328-.3837891.1914062-.5283203.4316406-.159668.2246094-.1918945.3046875-.3520508.7529297-1.3442383,3.8408203-2.9448242,6.5302734-8.2910156,8.4833984-.1123047.0478516-.3203125.0957031-.3364258.03125-.0161133-.0634766.0961914-.1269531.2880859-.2070312,5.2504883-2.6416016,6.7070312-6.515625,7.2509766-9.0917969.0961914-.4326172.0161133-.65625-.3842773-.6083984-.6079102.0634766-4.7216797.65625-5.7460938.8164062.1279297.6884766.1918945,1.5839844.2402344,1.984375.0800781.640625.1279297.9765625.1279297,1.2646484.0161133.2880859-.2241211.6083984-.4482422.671875-.2241211.0644531-.7841797-.4003906-.7363281-1.0400391.1123047-1.1367188-.0961914-3.0732422-.3999023-3.4091797-.3041992-.3359375-.5922852-.5283203-.7363281-.5605469s-.2563477-.0800781-.2402344-.1601562Z"/>
      <path class="cls-1" d="m491.488507,166.1359773c-.65625,2.0175781-3.1533203,5.1708984-4.9458008,6.2910156-.1762695.1123047-.2241211.0800781-.2724609.015625-.0317383-.0634766.0483398-.1435547.1601562-.2558594,2.0327148-1.8730469,3.5537109-4.7060547,4.0336914-6.7871094.1123047-.4794922.1762695-.8798828-.3681641-1.2001953-.2080078-.1279297-.3681641-.2724609-.2880859-.3837891.0639648-.1123047.6723633-.0957031,1.2646484.2236328.3198242.1767578.800293.6083984.8642578,1.0244141.0317383.2558594-.2402344.4326172-.4482422,1.0722656Zm9.3637695-.8632812c-1.2324219,1.4394531-4.4335938,4.2246094-6.3867188,5.2177734-.3359375.1757812-.5761719-.0322266-.7363281-.1923828-.159668-.1601562-.5761719-.5605469-.3520508-.9277344.2080078-.3691406.0483398-1.5048828.1123047-2.7539062.0639648-1.5361328.1918945-2.4492188-.0639648-2.7363281-.4482422-.4970703-.8486328-.3847656-.7524414-.625.0478516-.1279297.3999023-.2080078.7524414-.1757812.4960938.0478516,1.2963867.4003906,1.456543.9599609.0957031.3525391-.1601562.3525391-.2402344.7363281-.1279297.7207031-.2719727,3.7939453-.2719727,3.9853516,0,.2089844.159668.2724609.4160156.1767578,2.2250977-.8642578,4.4018555-2.609375,5.8901367-3.9052734.2563477-.2246094.3041992-.2402344.3842773-.1767578.0800781.0644531-.0161133.1767578-.2080078.4169922Z"/>
      <path class="cls-1" d="m507.3122375,160.0861726c.0483398-.2246094.6884766-.1279297,1.0405273.0322266.4165039.2080078.6245117.4003906.7685547.9599609.1279297.5605469-.0639648,1.1044922-.2080078,1.6005859-.128418.4960938-.3525391,1.0087891-.3525391,1.984375-.015625,1.1054688.2563477,1.5048828.6884766,1.6494141.4482422.1435547,1.6645508-.4169922,2.0966797-.4960938.4321289-.0966797.8164062.1914062.800293.5283203-.015625.3359375-.159668.6074219-.671875.7041016-.8325195.1279297-4.4501953.6240234-3.9858398,3.4091797.2402344,1.4082031,1.9848633,1.6640625,3.7133789,1.296875.6245117-.1289062,1.824707-.3203125,1.9047852.4794922.0483398.6728516-1.2001953.7041016-1.8725586.8007812-.6723633.0800781-4.3540039.3359375-4.578125-2.4013672-.159668-2.0322266,1.6489258-3.3125,2.5610352-3.6816406,0,0-.6079102-.0800781-.9443359-.7519531-.7041016-1.4404297-.2558594-3.6972656-.2397461-4.3378906.0317383-.7675781-.0322266-1.1044922-.3681641-1.4404297-.2241211-.2080078-.3842773-.2236328-.3525391-.3359375Z"/>
      <path class="cls-1" d="m524.656964,164.7756257c.1762695-.2236328.3041992-.4638672.4321289-.4638672.1923828,0,1.2006836.8964844,1.2006836,1.1367188-.0161133.1601562-.1762695.2402344-.3842773.2402344h-4.59375c-.8325195.015625-1.6005859.0957031-2.4008789.2236328l-.4165039-.7998047c.7045898.0800781,1.4086914.1113281,2.1289062.1269531h2.1289062c.3359375-.9921875.5922852-2.2880859.6083984-3.1689453,1.6967773.5126953,1.6967773.6728516,1.4086914.7841797l-.2885742.1123047c-.3359375.65625-.8481445,1.5527344-1.3925781,2.2724609h1.2646484l.3041992-.4638672Zm-.1601562,2.4970703c.1601562-.2080078.2880859-.4316406.4165039-.4316406.1918945,0,1.1362305.8476562,1.1362305,1.0878906-.0478516.1757812-.1762695.2558594-.3999023.2558594h-2.8974609v.7363281l.0161133-.015625c3.3774414.8964844,2.7050781,3.1699219,1.6645508,2.4804688-.2080078-.7675781-.9765625-1.6796875-1.6806641-2.2402344v1.5683594c.0322266,1.5527344.0478516,2.0810547.1123047,3.0253906-.1123047.2080078-.5283203.4482422-.8803711.4482422-.2084961,0-.3364258-.1601562-.3364258-.3203125.0639648-.8964844.0961914-1.3447266.1279297-2.6884766v-1.5214844c-.7519531,1.28125-1.7607422,2.4179688-2.9931641,3.3134766l-.1757812-.2392578c1.2163086-1.2490234,2.1767578-2.8652344,2.7529297-4.546875h-.8164062c-.512207.0166016-.9921875.0966797-1.4726562.2246094l-.4160156-.8320312c.7041016.0800781,1.4086914.1113281,2.112793.1279297h1.0083008c0-.6083984-.0317383-1.3447266-.1118164-1.8730469,1.5688477.4960938,1.5688477.65625,1.3286133.8164062l-.2402344.1601562v.8964844h1.4404297l.3041992-.4326172Zm-.2080078-6.0664062c.1601562-.2236328.2880859-.4638672.4160156-.4638672.1923828,0,1.2006836.8642578,1.2006836,1.1044922-.0478516.1757812-.1918945.2558594-.4003906.2558594h-3.9052734c-.8325195.015625-1.6005859.0957031-2.4008789.2246094l-.4003906-.8007812c.6723633.0800781,1.3447266.1123047,2.0170898.1279297h.9599609c0-.7041016-.0317383-1.5849609-.1279297-2.1923828,1.6328125.4794922,1.6328125.6396484,1.3764648.8164062l-.2558594.1601562v1.2158203h1.2163086l.3041992-.4482422Zm-4.1293945,1.0087891c2.3847656,1.6162109,1.3603516,3.5048828.5600586,2.6572266-.0161133-.8164062-.4003906-1.8886719-.7363281-2.5615234l.1762695-.0957031Zm10.7402344,2.8652344l.3359375-.4804688c.1923828-.2402344.3364258-.4960938.4643555-.4960938.1918945,0,1.2646484.9599609,1.2646484,1.2001953-.0322266.1757812-.1762695.2558594-.3842773.2558594h-1.6806641v4.4335938c.0317383,1.921875.0639648,2.5615234.1279297,3.7617188-.1279297.1601562-.4643555.4326172-.9443359.4326172-.1762695,0-.3520508-.1601562-.3520508-.3203125.0957031-1.3759766.144043-2.0810547.1757812-4.1611328v-4.1464844h-2.2885742v.4804688c0,2.8808594-.3525391,6.0507812-3.4736328,8.1308594l-.2080078-.2070312c2.3369141-2.1611328,2.7211914-4.9140625,2.7211914-7.9238281v-2.625c0-.8964844-.0483398-1.96875-.1601562-2.7050781l1.2963867.4960938c.2402344-.0800781.4804688-.1757812.7363281-.2714844.9765625-.3847656,2.112793-1.0087891,2.7529297-1.6328125,1.2646484,1.1835938,1.2646484,1.34375.8803711,1.3125l-.3676758-.0322266c-1.0405273.3837891-2.7055664.8164062-4.1777344,1.0400391v3.4580078h3.28125Z"/>
      <path class="cls-1" d="m545.250714,163.319571c.1123047-.3681641-.1279297-.3203125-.2080078-.3203125-.2080078,0-4.3378906.7519531-6.1782227,1.3603516-.7207031.2568359-1.2167969.0966797-1.5048828-.1123047-.3842773-.2880859-.7524414-1.0400391-.6240234-1.2001953.0800781-.0800781.2880859-.0322266.527832.0478516.6083984.1923828.9765625.1445312,1.3608398.1123047.65625-.0634766,4.7700195-.5439453,5.4262695-.7519531.4482422-.1445312,1.0561523-.5605469,1.3442383-.5126953s1.4248047.7685547,1.5048828,1.0722656c.144043.5761719-.4643555.8964844-.8964844,1.7451172-2.3208008,4.5458984-5.3139648,6.4189453-9.2998047,8.2431641-.2080078.0957031-.3681641.0800781-.3842773,0-.0317383-.0957031.0961914-.1601562.3203125-.2714844,3.4414062-1.6328125,7.4589844-5.4433594,8.6113281-9.4121094Z"/>
      <path class="cls-1" d="m551.0065734,165.8322663c-.0478516-.1123047-.1118164-.2236328-.0800781-.2880859.0483398-.0644531.1601562,0,.2241211.0322266.128418.0634766.8964844.3037109,1.5048828.3359375.512207.0166016.7363281-.0322266,1.4404297-.1435547.3681641-.0488281,1.8886719-.2089844,3.3295898-.3691406.015625-.3193359.015625-.6396484,0-.9755859,0-.6884766-.4643555-1.0244141-.640625-1.1210938-.0957031-.0478516-.1757812-.0957031-.2397461-.1279297-1.3608398.3359375-3.0576172.6884766-4.3378906.7363281-.0961914,0-.1762695-.03125-.1923828-.0957031-.015625-.0800781.1123047-.0957031.1923828-.1123047,2.9931641-.5283203,4.6416016-1.2158203,5.9223633-2.1611328.1762695-.1279297.4643555-.4160156.0800781-.5917969-.1123047-.0478516-.2080078-.0322266-.2241211-.1123047-.0161133-.1923828.7363281-.1279297,1.1845703-.0322266.4482422.0966797,1.2163086.5283203,1.4404297.9765625.144043.3203125.1123047.3359375-.6884766.4160156-.671875.0800781-.512207.0488281-1.2963867.3525391-.2402344.0957031-.7041016.2402344-1.2963867.4160156.3359375.0966797.7363281.3203125,1.1362305.6884766.3364258.3037109.3842773.5917969.1601562,1.2167969-.0639648.1601562-.0800781.2880859-.0961914.4316406.8803711-.0957031,1.5849609-.1601562,1.7607422-.1601562.5283203-.03125,1.2167969-.1279297,1.4726562-.2402344.2563477-.1113281.3842773-.2236328.65625-.1914062.2724609.03125,1.4887695.7197266,1.4726562,1.1201172-.0161133.4160156-.2719727.3681641-.5922852.3203125-.2558594-.0478516-2.4008789-.4326172-4.8178711-.2402344-.512207,4.4658203-3.2011719,6.4824219-6.1943359,7.5390625-.2402344.0800781-.2880859.0322266-.3041992-.0322266,0-.0634766.0961914-.1113281.1601562-.1601562,3.8574219-2,4.9936523-4.4814453,5.2338867-7.203125-2.6088867.3847656-2.9931641.4804688-3.2651367.5449219-.3520508.0957031-.9604492.3837891-1.456543.4160156-.2563477.015625-1.296875-.4804688-1.6489258-1.1845703Z"/>
      <path class="cls-1" d="m571.776593,163.0793366c-.7680664,2.1132812-2.4008789,6.1308594-2.625,6.7871094-.144043.3994141-.7202148.6074219-.8803711.3037109-.0639648-.0966797-.1762695-.3525391-.144043-.7841797.0161133-.1923828.1118164-.3359375.4321289-.8642578,0,0,1.6967773-2.9453125,2.4008789-5.1542969-.0317383.015625-.0639648.015625-.0957031.0322266-1.6650391.2880859-2.0488281-.8320312-2.2250977-1.0410156-.0639648-.1113281-.0800781-.2402344-.0639648-.2714844.0317383-.0322266.1279297-.0488281.3041992.1113281.2880859.2890625.8959961.3525391,1.4243164.3203125.2080078-.015625.5605469-.1279297.9287109-.2402344,0-.0478516,0-.0957031.015625-.1279297.0800781-.8164062.0961914-1.0087891-.1118164-1.2958984-.2080078-.2890625-.7045898-.2890625-.5600586-.5449219.0639648-.1113281.3837891-.1601562.7680664-.015625.3359375.1279297,1.1362305.3037109.8164062,1.6328125.1601562-.0644531.2558594-.0957031.2558594-.0957031.0161133,0,.2563477-.1289062.2880859-.2246094.0161133-.015625.0800781-.0957031-.1118164-.2402344-.0161133-.015625-.2719727-.1601562-.2719727-.2080078,0-.1923828.512207-.1435547.65625-.1435547.2558594,0,.3681641,0,.5761719-.0166016.2241211-.015625.3999023.0800781.4960938.2724609.0800781.1757812.0161133.6240234-.2558594.7841797-.8964844.4960938-1.5366211.8164062-2.0170898,1.0244141Zm6.8989258,2.1601562c-.3842773.0332031-.6401367-.2070312-.8642578-.3515625-.2241211-.1601562-.800293-.3515625-1.2167969-.2080078-.2080078.0800781-.9282227.4326172-1.1845703,1.3603516-.144043.4960938.0161133,1.7285156.0161133,1.7285156.0483398.7851562.1923828,1.4570312.2880859,2.4492188,1.2006836.3046875,2.2412109.8486328,2.480957,1.1044922.4321289.4482422.4165039.7685547.2084961.9599609-.2563477.2402344-.5605469.0644531-1.1044922-.2871094-.5283203-.3525391-1.0244141-.5927734-1.5048828-.7685547,0,.1435547.0161133.2880859.0161133.4316406.0161133.8964844-.7041016,1.7763672-2.1450195,1.8251953-1.6166992.0478516-2.3046875-1.0244141-2.3686523-1.5371094-.0639648-.5761719.2241211-1.3925781,1.4243164-1.7929688.65625-.2236328,1.4248047-.2236328,2.1767578-.1113281-.1118164-1.0410156-.159668-2.59375-.144043-2.9775391.0161133-.7363281.144043-1.2001953.4804688-1.7451172.4643555-.7675781,1.6005859-1.1201172,2.0004883-1.2636719.784668-.2880859-.3837891-1.1523438-.4799805-1.296875s.4799805-.0644531.8164062.0644531c.512207.2236328,1.0883789.5761719,1.4887695,1.2158203.3520508.5605469.015625,1.1689453-.3842773,1.2001953Zm-3.793457,5.7304688c-1.2006836-.2558594-2.097168-.0478516-2.3691406.0488281-.4482422.1601562-.5761719.4316406-.6083984.5917969-.0800781.5761719.4804688,1.0087891,1.2485352,1.0410156,1.3447266.0634766,1.5527344-.4970703,1.6806641-1.0888672.0161133-.0966797.0322266-.3203125.0483398-.5927734Z"/>
      <path class="cls-1" d="m594.9474914,169.8019929c-1.6645508,1.8730469-4.1455078,3.4257812-6.4985352,2.9453125-1.5366211-.3203125-2.4331055-1.28125-2.480957-3.5537109-.0961914-3.5214844.4160156-5.2021484.3041992-6.7705078-.0961914-1.0888672-.3681641-1.2324219-.65625-1.3925781-.128418-.0800781-.1923828-.2880859.1118164-.3359375.3041992-.0488281.6245117.015625.9125977.1601562.6240234.2871094.7841797,1.2802734.7202148,1.8398438-.0322266.2890625-.0961914.7363281-.1279297,1.1523438-.2402344,2.2412109-.4482422,3.7939453-.3364258,5.5546875.1123047,1.8574219.8642578,2.2246094,2.0810547,2.4492188.800293.1601562,2.5449219.2558594,5.7944336-2.2568359.1279297-.0966797.3037109-.2236328.3676758-.1601562.0644531.0800781-.0639648.2236328-.1918945.3681641Z"/>
      <path class="cls-1" d="m606.0016906,165.1281648c.1757812-.2402344.3041992-.4804688.4321289-.4804688.1918945,0,1.2324219.9121094,1.2324219,1.1523438-.0478516.1757812-.1918945.2558594-.3842773.2558594h-2.1767578v3.8261719c.0317383,1.9208984.0639648,2.5605469.1279297,3.7617188-.144043.1601562-.4638672.4160156-.9604492.4160156-.1601562,0-.3359375-.1601562-.3359375-.3203125.0961914-1.3769531.144043-2.0810547.1757812-4.1621094v-3.5214844h-2.4165039c-.0161133,2.8173828-.3681641,6.0029297-2.8974609,8.1796875l-.2080078-.1757812c1.824707-2.3369141,2.0966797-5.234375,2.1289062-8.0039062h-.65625c-.4160156.0166016-.7685547.0966797-1.1523438.2246094l-.4003906-.8007812c.4960938.0800781.9926758.1123047,1.5043945.1289062h.7045898v-4.2900391h-.5444336c-.3198242.015625-.6079102.0957031-.8959961.2236328l-.4165039-.8164062c.7045898.0800781,1.4086914.1123047,2.1289062.1289062h4.3056641l.3203125-.4648438c.1762695-.2402344.3041992-.4804688.4321289-.4804688.1918945,0,1.2807617.9130859,1.2807617,1.1533203-.0483398.1757812-.1923828.2558594-.4165039.2558594h-1.8085938v4.2900391h.5761719l.3203125-.4804688Zm-4.3056641.4804688h2.4165039v-4.2900391h-2.4165039v4.2900391Zm11.012207,3.2490234l-.2880859.0322266c-1.7285156,2.5761719-3.9697266,4.1933594-6.8349609,5.265625l-.1118164-.2880859c1.5683594-.8164062,2.9609375-1.8085938,4.1293945-3.1376953.7045898-.7832031,1.4726562-2.0957031,1.7451172-2.9443359l.8959961.5595703c.7524414.3046875.7524414.4648438.4643555.5126953Zm-.3359375-4.0175781l-.3041992.0322266c-1.4726562,1.8398438-3.4414062,3.2490234-5.6982422,4.1933594l-.128418-.2724609c1.0727539-.6396484,2.0810547-1.3925781,2.9775391-2.3046875.7519531-.7519531,1.5683594-1.9208984,1.9047852-2.7529297l.8320312.5917969c.7202148.3203125.7202148.4804688.4165039.5126953Zm-.0800781-4.0820312l-.2724609.0166016c-1.2963867,1.5683594-3.0888672,2.9765625-4.9780273,3.9052734l-.1757812-.2558594c.8325195-.5771484,1.6166992-1.2646484,2.3369141-2.0166016.7363281-.7685547,1.5205078-1.9375,1.8569336-2.7695312l.815918.5917969c.7045898.3359375.7045898.4960938.4165039.5283203Z"/>
      <path class="cls-1" d="m615.69505,170.3781648c0,.1923828-.0800781.4003906-.2241211.4960938l-.8325195-1.2480469c.5444336-.3046875,1.824707-1.1523438,3.121582-2.0810547v-4.7539062c0-1.0888672-.0639648-2.4013672-.2080078-3.28125,1.7446289.4960938,1.7446289.65625,1.472168.8486328l-.2719727.1914062v9.3320312c.0322266,1.9208984.0639648,2.5605469.1279297,3.7617188-.1279297.2402344-.5439453.5117188-.9121094.5117188-.2080078,0-.3681641-.1601562-.3681641-.3203125.0800781-1.2480469.1279297-1.8886719.1601562-3.7773438v-2.0488281c-.5283203.625-1.2324219,1.4570312-2.0649414,2.3691406Zm-.5283203-8.2431641c3.2333984,1.5849609,2.1928711,4.0175781,1.2006836,3.0888672-.0639648-.9921875-.7363281-2.2402344-1.3769531-2.9765625l.1762695-.1123047Zm11.940918,1.9521484c.1757812-.2236328.3041992-.4638672.4321289-.4638672.1918945,0,1.2807617.8964844,1.2807617,1.1367188-.0483398.1757812-.1762695.2558594-.3842773.2558594h-4.2416992c.3837891,2.6572266,1.5366211,5.8261719,4.7055664,7.9873047l-.0478516.1923828c-.4799805.0634766-.800293.2724609-.9604492.8642578-2.769043-2.2568359-3.6494141-6.0185547-3.9853516-8.8203125-.2880859,3.890625-1.2324219,6.6914062-4.5141602,8.9316406l-.2241211-.2558594c2.7211914-2.3046875,3.5214844-5.0742188,3.777832-8.8994141h-1.2006836c-.7680664.0166016-1.5043945.0966797-2.2407227.2236328l-.4165039-.8154297c.7045898.0800781,1.4086914.1123047,2.1289062.1279297h1.7607422c.0322266-.5126953.0483398-1.0410156.0639648-1.5849609.0161133-1.0566406-.0478516-2.5126953-.1918945-3.3935547,1.7607422.1757812,1.7607422.3359375,1.4887695.5283203l-.2724609.1923828c-.015625,1.5527344-.0317383,2.9609375-.1118164,4.2578125h2.8330078l.3203125-.4648438Zm-1.7446289-3.7128906c3.1689453.6083984,2.4169922,3.0087891,1.3442383,2.2724609-.1118164-.7998047-.815918-1.6640625-1.4726562-2.1279297l.128418-.1445312Z"/>
      <path class="cls-1" d="m640.3864562,162.5031648c-.8964844-.1279297-1.8085938.2080078-1.96875.3037109-.3041992.1601562-1.168457,1.1201172-1.5844727,2.3691406-1.0405273,3.0732422-.7045898,5.1064453-.1123047,5.9707031.5444336.7841797,1.7929688.5283203,2.4970703.5117188.8164062-.0322266,1.5205078.0800781,1.5048828.5927734-.0161133.4638672-.8647461.5605469-1.1845703.5761719-1.3769531.0957031-2.5610352.1113281-3.3935547-.9287109-.7363281-.9121094-.8481445-1.8720703-.8642578-2.9931641-.0478516-3.7929688,2.4487305-6.0185547,2.4008789-6.1142578-.0317383-.0800781-.2241211.0322266-.3999023.0634766-.6723633.1767578-3.0092773,1.2011719-3.6816406,1.4570312-.2880859.1123047-.9443359.5605469-1.3125.6083984-.7202148.0957031-1.5849609-1.0087891-1.6489258-1.1044922-.0800781-.0957031-.0957031-.2246094-.0317383-.3046875.0957031-.0957031.1757812-.0478516.3198242.0166016.144043.0634766.5766602.3837891,1.1367188.2558594s4.449707-1.5683594,7.0268555-1.96875c.4960938-.0634766.7363281-.3203125,1.4243164-.4638672.496582-.0966797,1.3925781.3037109,1.5527344.6074219.1762695.3203125.2080078.5761719-.1279297.7207031-.1123047.0644531-1.0405273-.1113281-1.5527344-.1757812Zm1.7285156-2.2089844c.2241211.0644531,1.6967773.5117188,1.7128906,1.5039062,0,.3203125-.0961914.4648438-.2880859.5292969-.1918945.0634766-.5600586-.0322266-.7363281-.4169922-.1918945-.4160156-.5444336-1.0556641-.9282227-1.2958984-.1601562-.0957031-.3681641-.2080078-.3364258-.3203125.0483398-.1279297.3525391-.0478516.5761719,0Zm1.6811523-.8320312c.2236328.03125,1.7602539.3994141,1.7924805,1.4238281.0161133.2724609-.1279297.3525391-.2402344.4003906-.1918945.0800781-.512207.015625-.7363281-.3515625-.2241211-.3847656-.6240234-.9609375-1.0244141-1.1523438-.159668-.0800781-.3999023-.1767578-.3681641-.2890625.0322266-.1279297.3525391-.0800781.5766602-.03125Z"/>
      <path class="cls-1" d="m648.0471008,171.8986726c-.4160156-.5126953-.9121094-.9921875-1.1206055-1.1357422-.1757812-.1289062-.2880859-.1923828-.2719727-.2724609.0322266-.1123047.1918945-.0644531.4003906,0,.1918945.0478516,2.7368164.8955078,3.3291016,2.3369141.1762695.4003906.0322266,1.0400391-.5439453,1.1679688-.2402344.0488281-.5283203-.0957031-.8007812-.5439453-.0639648-.1279297-.6401367-1.1201172-.9921875-1.5527344Z"/>
      <path class="cls-1" d="m673.7311828,172.7150788c-.1923828.2558594-.496582.3037109-1.0727539-.1123047-.6879883-.4804688-1.328125-.8642578-1.9047852-1.1523438-.015625.0957031-.015625.1757812-.0317383.2724609-.1923828,1.8242188-2.4169922,1.6806641-3.0415039,1.6962891-.6240234.015625-2.9291992-.4160156-2.9291992-1.6806641,0-1.2802734,1.6166992-1.6962891,2.7211914-1.7607422.784668-.0634766,1.5366211.015625,2.2250977.1601562-.144043-1.0244141-.6083984-2.9931641-.5922852-5.1054688.0161133-1.4892578.3520508-2.7695312.2402344-3.4902344-.128418-.7197266-.496582-.7841797-.9604492-.9443359-.144043-.0478516-.3364258-.0634766-.2563477-.2236328.0639648-.1445312.6245117-.1445312.8164062-.1445312.6083984.0322266,1.2485352.0966797,1.5205078.8164062.2724609.6728516-.2558594,1.1845703-.4321289,1.953125-.0317383.1757812-.0957031.5917969-.144043,1.0722656.5922852.0322266,1.7290039-.0957031,2.1767578-.2714844.496582-.2089844,1.1206055-.0644531,1.2646484.3359375s-.1757812.5273438-.4482422.6074219c-.2719727.0800781-1.7124023.5126953-3.0410156-.2392578,0,.2236328-.0161133.4638672-.0161133.6884766.0322266.9121094.1123047,1.7441406.3681641,2.9443359.1762695.8164062.4003906,1.5048828.512207,2.2568359,1.2485352.3847656,2.1611328.9287109,2.5131836,1.1367188.5922852.3847656.7202148.9287109.512207,1.1845703Zm-4.0019531-1.6806641c-.9921875-.3515625-1.7763672-.4160156-2.2407227-.3837891-.5600586.0322266-2.1450195.1757812-2.112793.9921875.0317383.8164062,1.7446289.9921875,2.2568359.9765625,2.1289062-.0478516,2.0810547-.9609375,2.0966797-1.5849609Z"/>
      <path class="cls-1" d="m684.8171203,160.9660554c.1601562,1.0566406-.4643555,2.7050781-.7363281,3.4580078-.0322266.1123047-.0639648.2080078-.0961914.3193359.4482422-.7841797,1.2167969-1.5683594,2.1767578-1.5195312,1.2006836.0634766,2.8496094,1.5517578,2.1772461,5.4257812-.6723633,3.8730469-4.0498047,4.7539062-4.4819336,4.8818359-.0961914.015625-.1762695,0-.2080078-.0800781-.0161133-.0634766,0-.1123047.0800781-.1435547,2.3686523-.9931641,3.2973633-2.8652344,3.6333008-5.0107422.3681641-2.3369141-.4799805-4.5136719-1.5043945-4.5136719-1.0405273-.015625-1.6650391,1.0566406-1.8730469,2.0654297-.2719727,1.4238281.0322266,1.6962891.2402344,2.1601562.1279297.2880859.4482422.8007812.2402344,1.0566406-.144043.1601562-.3681641.1923828-.6083984.0644531-.5283203-.2568359-.800293-.8964844-.9125977-1.5849609-.3037109-1.7607422,1.1044922-4.8339844,1.2329102-5.9541016.0478516-.4804688.0639648-.7363281-.1923828-1.0087891-.1601562-.1923828-.4321289-.3203125-.3681641-.4160156.0800781-.0966797.4165039-.0644531.7202148.1123047.2885742.1757812.4326172.4160156.4804688.6875Z"/>
      <path class="cls-1" d="m694.7824523,167.7053132l-.2080078-.1601562c.8325195-1.2324219,1.6806641-2.8974609,2.3691406-4.7216797.3842773-.9921875.800293-2.5449219.8642578-3.4257812,1.7768555.5605469,1.7768555.7207031,1.4726562.8320312l-.2880859.1123047c-.4160156,1.2001953-.9125977,2.3525391-1.456543,3.4091797.5922852.4804688.5922852.640625.3681641.7529297l-.2241211.1123047v5.3613281c.0317383,1.9208984.0639648,2.5615234.1279297,3.7617188-.144043.1757812-.5444336.4316406-.9282227.4316406-.1923828,0-.3681641-.1591797-.3681641-.3193359.0957031-1.3769531.144043-2.0810547.1757812-4.1621094v-4.4658203c-.5922852.9443359-1.2324219,1.7929688-1.9047852,2.4814453Zm12.0849609-4.1777344c.144043-.1767578.2402344-.3681641.3681641-.3681641.1923828,0,1.1845703.8476562,1.1845703,1.0878906-.1123047.1123047-.3681641.2402344-.6723633.3046875v1.2167969c.0322266,1.2001953.0483398,1.5996094.0961914,2.3203125-.1123047.1601562-.5922852.4003906-.9282227.4003906-.144043,0-.1923828-.1601562-.1923828-.3203125.0322266-.0644531.0161133-.1123047.0483398-.2246094v-.2871094h-2.6894531c-.0800781,1.4082031-.4160156,2.6083984-1.1201172,3.6015625,1.4882812,1.0556641,3.5371094,1.5996094,6.0180664,1.6962891v.1757812c-.4321289.1279297-.7841797.4960938-.8803711,1.0400391-2.4970703-.3193359-4.3217773-1.0400391-5.6342773-2.3046875-.9443359.9921875-2.3530273,1.7607422-4.4018555,2.3046875l-.1118164-.2714844c1.9047852-.65625,3.1850586-1.5048828,3.9858398-2.609375-.4482422-.5761719-.8325195-1.2636719-1.168457-2.0488281-.2885742.4326172-.6723633.9921875-.8964844,1.3125.0639648.1601562.0161133.2880859-.0639648.3525391l-.6884766-1.0087891c.4321289-.2558594,1.1845703-.7519531,1.6005859-1.1044922l.1923828-.6083984.527832.2568359-.4482422.4960938c.3203125.6884766.7685547,1.2802734,1.3129883,1.7919922.4799805-.8632812.7358398-1.8886719.7841797-3.0722656h-2.6572266v.5917969c0,.0800781-.4321289.3203125-.8320312.3203125-.128418,0-.2241211-.1601562-.2241211-.3203125.0478516-.4638672.0639648-.7041016.0957031-1.4082031v-.8652344c0-.8798828-.0478516-1.9365234-.1601562-2.65625l1.2006836.5761719h2.5932617v-1.7451172h-1.5209961c-.8320312.0166016-1.6005859.0966797-2.4008789.2246094l-.4160156-.8330078c.7041016.0800781,1.4086914.1123047,2.1289062.1289062h2.2089844c0-.7207031-.0322266-1.6015625-.128418-2.2089844,1.6650391.4960938,1.6650391.65625,1.3925781.8476562l-.2558594.1757812v1.1855469h2.625l.3203125-.4804688c.1757812-.2402344.3198242-.4804688.4477539-.4804688.1923828,0,1.3129883.9443359,1.3129883,1.1845703-.0483398.1757812-.1923828.2558594-.4003906.2558594h-4.3056641v1.7451172h2.4970703l.2558594-.3681641Zm-6.4345703,3.6494141h2.6733398v-2.8173828h-2.6733398v2.8173828Zm6.3388672-2.8173828h-2.6572266v2.8173828h2.6572266v-2.8173828Z"/>
      <path class="cls-1" d="m712.1432922,162.678946c.0800781-.1757812.8803711.0800781,1.2802734.4326172.3203125.3037109.4321289.5595703.4165039.8955078-.0161133.65625-.6723633,2.3535156-.4804688,3.8105469.2080078,1.5039062,1.0883789,2.1923828,1.3286133,2.3681641.2558594.1767578.4160156.2402344.4960938.2402344.0800781-.015625.1762695.0166016.2563477-.3203125.2241211-1.0244141.4799805-1.7119141.5600586-1.9042969.0639648-.1767578.1762695-.3037109.2402344-.2880859s.0317383.2080078,0,.3681641c-.2241211,1.0400391-.144043,1.9042969-.1123047,2.2412109.0322266.3359375.2724609.7519531.2880859.9277344.0161133.1757812.0322266.4160156-.1918945.5449219-.2080078.1435547-1.0244141.03125-2.1289062-.9609375-.3999023-.3681641-1.3764648-1.4882812-1.5527344-3.1533203-.1601562-1.6650391.1762695-2.9287109.1923828-3.3447266.0317383-.4003906.1118164-.6894531.015625-.9609375-.0957031-.2724609-.2880859-.5117188-.5439453-.7363281-.0478516-.0322266-.0961914-.0800781-.0639648-.1601562Zm7.2509766,1.9375c0-.0644531.0317383-.0966797.144043-.1289062.0957031-.03125,1.5366211-.5439453,2.8168945.65625.6401367.6083984.9604492,1.4091797.9765625,1.8085938.0317383.4160156-.144043.9765625-.7685547.8330078-.3041992-.0800781-.3520508-.3203125-.3999023-.4638672-.0639648-.1445312-.5761719-1.9853516-1.4404297-2.4179688-.496582-.2402344-1.1044922-.1914062-1.2006836-.1914062-.0639648,0-.1279297-.0488281-.1279297-.0957031Z"/>
      <path class="cls-1" d="m739.2995422,167.0646882c-.8320312,1.0244141-3.3452148,2.2255859-5.8901367-.9287109-.2241211-.3037109-.2563477-.3515625-.2080078-.4316406.0639648-.0800781.2080078.1123047.4160156.2714844.2241211.1601562,2.2890625,1.5527344,3.6816406,1.1210938,1.3925781-.4482422,1.4726562-1.2480469,1.5366211-1.5849609.0639648-.3359375-.0483398-1.7763672-1.7607422-2.0488281-1.7290039-.2724609-3.5375977.4003906-4.7382812,1.2646484-.3837891.2724609-.8320312.6240234-1.2641602.9921875.0478516.0644531.0957031.1289062.1279297.1923828.6884766,1.0566406,1.2646484,2.2724609,1.8408203,3.3779297.65625,1.2324219,1.0244141,1.984375,1.3442383,3.28125.1123047.4316406-.1118164.9921875-.6879883.9121094-.4804688-.0644531-.5922852-.7050781-.6723633-1.0888672-.1762695-.8642578-.3681641-1.7119141-.6723633-2.5449219-.4799805-1.2802734-1.1201172-2.5126953-1.824707-3.6972656-.6879883.5761719-1.2802734,1.0888672-1.4404297,1.2001953-.2719727.2080078-.7685547.1923828-1.1523438-.03125-.2724609-.1601562-.4804688-.4169922-.65625-.640625-.1123047-.1445312-.2084961-.3681641-.0961914-.4960938.0639648-.0800781.2080078.0478516.3999023.1601562.1601562.1113281.3681641.1914062.7363281.0800781.4482422-.1445312.7202148-.4492188,1.3608398-.8652344.0800781-.0478516.1918945-.1279297.3359375-.2236328-.2241211-.3681641-.4638672-.7197266-.7041016-1.0888672-.6723633-1.0078125-.7045898-1.7597656-.1601562-2.3203125.5600586-.5605469,1.3764648-.5283203,2.4648438-.3681641.5605469.0957031,1.7607422.3515625,1.9208984.1279297.1762695-.2246094-.3359375-.671875-.4321289-.7685547-.1123047-.1123047-.3041992-.1923828-.2719727-.3037109.0317383-.1289062.3681641-.0166016.5761719.0957031.1918945.0957031.8964844.4648438,1.1201172.8007812.2084961.3359375.512207.8476562.0483398,1.1835938-.4482422.3525391-1.1367188.0644531-1.4726562-.1435547-.3520508-.2080078-2.7050781-1.1845703-3.3452148-.0634766-.3842773.6875.2080078,1.6962891.7841797,2.5126953,1.5683594-1.0087891,4.7700195-2.8017578,7.0585938-2.0332031,2.5932617.8486328,2.5292969,3.0888672,1.6967773,4.0976562Z"/>
      <path class="cls-1" d="m755.9079406,163.5275788c-.0478516.4638672-.6884766.3525391-.9282227.3193359-.2080078-.03125-2.4331055-.3671875-4.4179688-.1757812-.0322266.9765625-.0639648,2.0976562-.0478516,2.8974609.3359375.640625.4799805,1.6328125.4638672,2.8808594-.0478516,3.1699219-2.9931641,4.1455078-3.3452148,4.2578125-.1118164.0478516-.2080078.0644531-.2402344,0-.0317383-.0800781,0-.1601562.144043-.2236328,2.480957-1.1044922,2.625-3.6816406,2.625-3.6816406-.1118164.2080078-.6079102.6083984-.9760742.5917969-.7363281,0-1.1044922-.8164062-1.2485352-1.1201172s-.4160156-.65625-.5283203-1.5205078c-.0800781-.5283203.1123047-1.7451172,1.3764648-2.0009766.4165039-.0957031.7685547-.0478516,1.0566406.0966797.0478516-.3525391.0800781-.9765625.0639648-2.0976562-1.9208984.2724609-2.4648438.5605469-3.6176758,1.0566406-.3198242.1445312-1.2641602.65625-2.1606445.0957031-.3842773-.2236328-.7041016-.5761719-.800293-.6875-.1279297-.1289062-.1762695-.2724609-.1123047-.3359375.144043-.1445312.4003906.0634766.8164062.1113281.4321289.0322266,1.0405273.0478516,1.6806641-.0957031.4482422-.0957031,2.5454102-.4960938,4.1777344-.7519531,0-.3847656-.0317383-.8164062-.0478516-1.296875-.0322266-.5761719-.3041992-1.0566406-.512207-1.2324219-.1601562-.1289062-.3681641-.1757812-.3520508-.3046875.015625-.1113281.0800781-.1601562.2080078-.2080078.144043-.0478516.5283203-.0957031.9443359.0966797.4643555.2080078.6083984.3671875.6723633.6396484.0478516.2402344-.0161133.3837891-.0639648.5605469.4960938.3037109,1.6484375.9765625,2.4326172,1.1845703,1.0087891.2880859,1.6328125.2236328,1.96875.3037109.3842773.0644531.8325195.1767578.7685547.640625Zm-6.1464844,4.2734375c-.0161133-1.1044922-.3681641-1.6162109-.7841797-1.6005859-.1923828.015625-1.3447266.4160156-1.0883789,1.4570312.2397461,1.0400391.7680664,1.5205078,1.2802734,1.5205078.3203125,0,.6245117-.2724609.5922852-1.3769531Zm2.1928711-5.2177734c-.1279297-.0800781-.8481445-.6083984-1.2646484-.9121094-.0317383.2558594-.0639648.7675781-.0957031,1.3759766.4799805-.0634766.8803711-.1123047,1.1044922-.1123047.1757812,0,.4960938-.03125.5117188-.0957031.0161133-.0478516-.1118164-.1601562-.2558594-.2558594Z"/>
      <path class="cls-1" d="m766.0173156,172.2668366c-1.1040039-2.8007812-1.6962891-3.2011719-2.1445312-3.7929688-.4804688-.6728516-.7524414-1.0253906-.800293-1.5214844-.0483398-.4960938.2397461-.9921875.65625-1.6640625,1.1044922-1.7773438,2.2407227-3.2978516,2.3530273-3.5693359.2719727-.6240234.159668-.9609375,0-1.1044922-.144043-.1289062-.5444336-.3203125-.4165039-.4804688.128418-.1279297.9125977.0800781,1.456543.4638672.512207.3681641.3681641.9130859.2241211,1.1689453-.2719727.5439453-.8481445,1.0244141-1.7285156,2.0966797-.7524414.8964844-1.5048828,1.9052734-1.8725586,2.4326172-.2724609.4003906-.2241211.7363281.0478516,1.0253906.6723633.7353516,3.3613281,3.4082031,3.6015625,5.4570312.0800781.640625-.0961914.8808594-.4165039.9130859-.512207.0478516-.7363281-.8486328-.9604492-1.4248047Z"/>
      <path class="cls-1" d="m774.6706359,163.350821c3.2490234.4169922,2.625,2.7216797,1.5366211,2.0810547-.2241211-.7041016-1.0083008-1.5048828-1.6645508-1.9208984l.1279297-.1601562Zm.9443359,6.3388672c.1601562,0,.2402344-.015625.3842773-.3193359q.2558594-.5771484,2.7851562-6.8027344l.2880859.0791016c-.6245117,1.9208984-1.7929688,5.5703125-2.0009766,6.3066406-.1279297.4960938-.2241211.9765625-.2080078,1.3769531,0,.7041016.4321289,1.4404297.3842773,2.7373047-.0322266.671875-.3364258,1.1035156-.8647461,1.1035156-.2719727,0-.4477539-.2871094-.4799805-.7832031.2080078-1.6328125.1118164-2.8818359-.2080078-3.1220703-.2241211-.1435547-.4321289-.1923828-.7524414-.2236328v-.3525391h.6723633Zm.144043-9.9716797c3.3452148.5117188,2.7373047,2.8808594,1.5844727,2.2402344-.2241211-.7363281-1.0561523-1.6318359-1.7285156-2.0800781l.144043-.1601562Zm10.628418,2.8496094c.1601562-.2089844.2880859-.4326172.4160156-.4326172.1918945,0,1.1845703.8486328,1.1845703,1.0888672-.0322266.1757812-.2080078.2558594-.4160156.2558594h-3.5854492v1.4238281h2.7207031l.3041992-.4316406c.1762695-.2246094.3041992-.4482422.4321289-.4482422.1923828,0,1.2324219.8486328,1.2324219,1.0888672-.0317383.1757812-.2080078.2558594-.4160156.2558594h-6.7387695c-.8320312.015625-1.6005859.0957031-2.4008789.2236328l-.4160156-.8164062c.7041016.0800781,1.4082031.1123047,2.1289062.1279297h2.1767578v-1.4238281h-1.0722656c-.6723633.015625-1.3286133.0957031-1.9848633.2236328l-.4165039-.8320312c.7045898.0800781,1.4086914.1123047,2.1289062.1279297h1.3447266v-1.296875h-1.2006836c-.7680664.0166016-1.4726562.0957031-2.2084961.2246094l-.4165039-.8007812c.7045898.0800781,1.4086914.1123047,2.1289062.1279297h1.6967773c0-.5595703-.0322266-1.2158203-.0961914-1.6962891,1.6489258.4960938,1.6489258.65625,1.3608398.8486328l-.2880859.1757812v.671875h2.4008789l.3041992-.4316406c.1757812-.2246094.3037109-.4482422.4321289-.4482422.1918945,0,1.2001953.8476562,1.2001953,1.0878906-.0478516.1767578-.2080078.2402344-.4160156.2402344h-3.9213867v1.296875h2.0966797l.3041992-.4316406Zm-5.234375,9.3632812c.0322266.9443359.0322266,1.2480469.0800781,1.7929688-.0800781.1914062-.4482422.4472656-.8642578.4472656-.1601562,0-.2880859-.1591797-.2880859-.3193359.0639648-.9609375.0961914-1.4404297.1279297-2.8974609v-1.6171875c0-1.0878906-.0639648-2.4003906-.2080078-3.28125l1.2485352.5761719h4.7216797l.2084961-.3193359c.1279297-.1601562.2080078-.3369141.3359375-.3369141.1918945,0,1.2324219.7529297,1.2324219.9931641-.0800781.1279297-.3359375.2880859-.65625.3359375v5.4267578c0,.7832031-.1757812,1.3125-1.6645508,1.4560547-.0478516-.3037109-.1279297-.5761719-.3681641-.7197266-.2241211-.1767578-.65625-.3046875-1.4248047-.4003906v-.2558594s1.7451172.1269531,2.1132812.1269531c.3037109,0,.3837891-.0957031.3837891-.3515625v-1.6005859h-4.9780273v.9443359Zm4.9780273-4.8496094h-4.9780273v1.4238281h4.9780273v-1.4238281Zm-4.9780273,3.4414062h4.9780273v-1.5371094h-4.9780273v1.5371094Z"/>
      <path class="cls-1" d="m790.7824523,163.1437898c3.0253906.4472656,2.3530273,2.640625,1.296875,1.984375-.1762695-.671875-.8486328-1.4248047-1.440918-1.8408203l.144043-.1435547Zm.6083984,6.5458984c.1762695,0,.2241211,0,.3681641-.3193359q.2402344-.5605469,2.5610352-6.6914062l.2719727.0800781c-.5600586,1.9042969-1.6484375,5.4746094-1.824707,6.2109375-.1279297.4794922-.2241211.9599609-.2241211,1.3603516.0161133.6884766.4321289,1.4560547.3842773,2.7529297-.0161133.671875-.3203125,1.0878906-.800293,1.0878906-.2719727,0-.4321289-.3037109-.4482422-.7998047.1918945-1.6162109.1123047-2.8652344-.2241211-3.1054688-.1918945-.1601562-.3999023-.1923828-.7202148-.2236328v-.3525391h.65625Zm.3359375-9.9873047c3.2016602.5917969,2.5610352,2.8007812,1.4887695,2.1445312-.2558594-.6884766-1.0405273-1.5205078-1.6484375-2.0009766l.159668-.1435547Zm6.0024414,11.8925781l-.2719727.03125c-.7363281.7529297-2.0966797,1.6650391-3.425293,2.1777344l-.1762695-.2402344c.2241211-.1445312.4643555-.3046875.6884766-.4804688.8325195-.640625,1.7285156-1.6806641,2.0649414-2.4970703l.7680664.5439453c.6401367.2724609.6401367.4326172.3520508.4648438Zm.3842773-9.1074219c.1279297-.1923828.2241211-.3847656.3520508-.3847656.1923828,0,.9926758.7207031.9926758.9609375-.0322266.1757812-.1762695.2558594-.4003906.2558594h-1.7285156v1.3603516c.6879883-.1123047,1.4243164-.2402344,2.1606445-.3837891l.0483398.2714844c-1.0727539.3525391-2.5292969.8808594-4.5458984,1.4726562-.0639648.1923828-.1923828.3203125-.3364258.3681641l-.5439453-1.2158203c.4960938-.0644531,1.3125-.1923828,2.3046875-.3525391v-1.5205078h-.4960938c-.2880859.015625-.5600586.0957031-.8325195.2236328l-.3999023-.8164062c.3842773.0800781.7680664.1123047,1.1845703.1279297h.5439453v-1.2958984h-.6079102c-.3525391.015625-.6884766.0957031-1.0244141.2236328l-.4003906-.8320312c.4482422.0800781.8964844.1123047,1.3764648.1279297h.65625c0-.5283203-.0317383-1.1523438-.0957031-1.6005859,1.5205078.4804688,1.5205078.640625,1.2641602.8007812l-.2558594.1435547v.65625h.6083984l.2558594-.3837891c.144043-.1923828.2563477-.3847656.3842773-.3847656.1918945,0,1.0405273.7529297,1.0405273.9921875-.0161133.1767578-.1762695.2568359-.3842773.2568359h-1.9047852v1.2958984h.5439453l.2402344-.3671875Zm4.4819336,6.8183594c-.4003906-.4326172-.8481445-.8486328-1.2485352-1.1367188l.144043-.1445312c3.7133789.9609375,3.2011719,3.3613281,2.0966797,2.7382812-.144043-.3525391-.3837891-.7363281-.6879883-1.1210938-.9125977.0957031-1.9370117.2080078-3.121582.3046875v1.3125c.0322266,1.3125.0483398,1.7597656.0961914,2.5449219-.0961914.1435547-.4321289.3671875-.9604492.3671875-.1757812,0-.2880859-.1591797-.2880859-.3193359.0639648-.8007812.0800781-1.2167969.1123047-2.4326172v-1.3769531c-1.1044922.1113281-2.3530273.2080078-3.7138672.3203125-.0957031.1914062-.2558594.2880859-.4160156.3203125l-.4799805-1.2333984c.815918,0,2.1606445,0,3.7773438-.0322266.2402344-.2714844.512207-.5595703.7685547-.8632812.7041016-.7851562,1.5205078-1.8574219,1.96875-2.625,1.4082031.8320312,1.4082031.9921875,1.0561523,1.0400391l-.3359375.0478516c-.7363281.6884766-1.8408203,1.6171875-2.8652344,2.3847656,1.2646484-.03125,2.6572266-.0478516,4.0976562-.0957031Zm-5.4584961-.4482422c-.3198242-.6083984-1.2480469-1.4248047-1.9204102-1.8408203l.144043-.1445312c.7041016.0966797,1.2485352.2724609,1.6323242.4804688.4003906-.6240234.8325195-1.4570312,1.0727539-2.0332031,1.3286133.8330078,1.3286133.9931641,1.0083008,1.0410156l-.3041992.0478516c-.4482422.4003906-.9282227.8330078-1.3764648,1.2167969.8325195.7041016.4482422,1.5361328-.2563477,1.2324219Zm3.409668-7.8271484c-.2563477.015625-.4804688.0957031-.7041016.2236328l-.4165039-.8154297c.7045898.0800781,1.4086914.1113281,2.1289062.1269531h1.6967773l.2241211-.2871094c.1279297-.1445312.2080078-.3046875.3359375-.3046875.1923828,0,1.0405273.6884766,1.0405273.9287109-.0961914.1279297-.2719727.1923828-.5761719.2236328-.0961914,2.8652344-.3359375,4.2099609-.8642578,4.6738281-.3041992.3046875-.784668.4482422-1.2646484.4482422,0-.2724609-.0322266-.5283203-.2080078-.671875-.1762695-.1279297-.5761719-.2568359-.9604492-.3203125v-.2724609c.4160156.0322266,1.1523438.0800781,1.3925781.0800781s.3520508-.015625.4643555-.1113281c.2880859-.2890625.4638672-1.5214844.5439453-3.921875h-1.4243164c-.1762695,1.6162109-.65625,3.5214844-2.7050781,4.9296875l-.2402344-.2402344c1.5844727-1.4882812,1.8725586-3.2490234,1.96875-4.6894531h-.4321289Zm.3520508,9.9238281c4.2255859.9609375,3.8896484,3.2490234,2.7211914,2.7529297-.5444336-.7998047-1.9047852-1.9521484-2.8652344-2.5927734l.144043-.1601562Z"/>
      <path class="cls-1" d="m811.776593,163.0793366c-.7680664,2.1132812-2.4008789,6.1308594-2.625,6.7871094-.144043.3994141-.7202148.6074219-.8803711.3037109-.0639648-.0966797-.1762695-.3525391-.144043-.7841797.0161133-.1923828.1118164-.3359375.4321289-.8642578,0,0,1.6967773-2.9453125,2.4008789-5.1542969-.0317383.015625-.0639648.015625-.0957031.0322266-1.6650391.2880859-2.0488281-.8320312-2.2250977-1.0410156-.0639648-.1113281-.0800781-.2402344-.0639648-.2714844.0317383-.0322266.1279297-.0488281.3041992.1113281.2880859.2890625.8959961.3525391,1.4243164.3203125.2080078-.015625.5605469-.1279297.9287109-.2402344,0-.0478516,0-.0957031.015625-.1279297.0800781-.8164062.0961914-1.0087891-.1118164-1.2958984-.2080078-.2890625-.7045898-.2890625-.5600586-.5449219.0639648-.1113281.3837891-.1601562.7680664-.015625.3359375.1279297,1.1362305.3037109.8164062,1.6328125.1601562-.0644531.2558594-.0957031.2558594-.0957031.0161133,0,.2563477-.1289062.2880859-.2246094.0161133-.015625.0800781-.0957031-.1118164-.2402344-.0161133-.015625-.2719727-.1601562-.2719727-.2080078,0-.1923828.512207-.1435547.65625-.1435547.2558594,0,.3681641,0,.5761719-.0166016.2241211-.015625.3999023.0800781.4960938.2724609.0800781.1757812.0161133.6240234-.2558594.7841797-.8964844.4960938-1.5366211.8164062-2.0170898,1.0244141Zm6.8989258,2.1601562c-.3842773.0332031-.6401367-.2070312-.8642578-.3515625-.2241211-.1601562-.800293-.3515625-1.2167969-.2080078-.2080078.0800781-.9282227.4326172-1.1845703,1.3603516-.144043.4960938.0161133,1.7285156.0161133,1.7285156.0483398.7851562.1923828,1.4570312.2880859,2.4492188,1.2006836.3046875,2.2412109.8486328,2.480957,1.1044922.4321289.4482422.4165039.7685547.2084961.9599609-.2563477.2402344-.5605469.0644531-1.1044922-.2871094-.5283203-.3525391-1.0244141-.5927734-1.5048828-.7685547,0,.1435547.0161133.2880859.0161133.4316406.0161133.8964844-.7041016,1.7763672-2.1450195,1.8251953-1.6166992.0478516-2.3046875-1.0244141-2.3686523-1.5371094-.0639648-.5761719.2241211-1.3925781,1.4243164-1.7929688.65625-.2236328,1.4248047-.2236328,2.1767578-.1113281-.1118164-1.0410156-.159668-2.59375-.144043-2.9775391.0161133-.7363281.144043-1.2001953.4804688-1.7451172.4643555-.7675781,1.6005859-1.1201172,2.0004883-1.2636719.784668-.2880859-.3837891-1.1523438-.4799805-1.296875s.4799805-.0644531.8164062.0644531c.512207.2236328,1.0883789.5761719,1.4887695,1.2158203.3520508.5605469.015625,1.1689453-.3842773,1.2001953Zm-3.793457,5.7304688c-1.2006836-.2558594-2.097168-.0478516-2.3691406.0488281-.4482422.1601562-.5761719.4316406-.6083984.5917969-.0800781.5761719.4804688,1.0087891,1.2485352,1.0410156,1.3447266.0634766,1.5527344-.4970703,1.6806641-1.0888672.0161133-.0966797.0322266-.3203125.0483398-.5927734Z"/>
      <path class="cls-1" d="m833.0749328,166.888907c.4482422.5917969.2397461,1.2001953-.128418,1.3125s-.815918-.2880859-1.2324219-.8642578c-.6401367-.8642578-1.4882812-1.5527344-2.4648438-2.0644531-.0161133,2.4003906-.0478516,5.6972656.0639648,6.2578125.2080078,1.0888672.3364258,1.4726562-.2558594,1.8730469-.4321289.3203125-.8647461-.8007812-.9926758-1.3925781-.144043-.6083984.0322266-.4003906.1279297-1.5205078.0961914-1.1367188.2563477-7.3310547.0961914-8.6757812-.0800781-.6083984-.4960938-.7998047-.65625-.9443359-.0478516-.0322266-.1279297-.1123047-.1118164-.2080078.0478516-.1279297.144043-.1601562.4321289-.2236328.6723633-.1289062,1.0561523.03125,1.3286133.3037109.2558594.2558594.159668.5283203.1279297.7519531-.0322266.2402344-.1279297.7041016-.1279297,1.2646484,0,.1757812-.0161133,1.0410156-.0161133,2.1445312,1.1362305.2724609,2.8808594.8007812,3.8095703,1.9853516Z"/>
      <path class="cls-1" d="m840.1750305,169.4016023c-.0478516-.0800781.0961914-.1914062.3041992-.3515625,3.0415039-2.2255859,4.8022461-4.2421875,6.418457-7.2519531.144043-.2714844.144043-.671875-.0795898-.8955078-.144043-.1279297-.2563477-.1601562-.2402344-.2402344.0317383-.1123047.1918945-.1279297.4321289-.1279297.2558594.015625.6240234.0957031.9121094.2402344.3203125.1601562.8325195.671875.6884766.9443359-.0800781.1757812-.2719727.1123047-.4643555.4316406-.6079102.9443359-1.2963867,1.8408203-2.0166016,2.6894531.1279297.0478516.2402344.0957031.3681641.1601562.0800781.0322266.1601562.0634766.2241211.1123047.1601562.1113281.2241211.2392578.2241211.5117188,0,.2558594-.0961914.3515625-.1923828,1.0722656-.0317383.2880859-.015625,4.6103516.0644531,5.1699219.0957031.5605469.0639648,1.1044922-.0800781,1.3447266-.1601562.2402344-.4643555.1445312-.640625.0966797-.159668-.0644531-.4638672-.3691406-.4321289-1.0087891.0800781-2.1132812.0639648-4.1455078.0483398-5.7304688,0-.3837891-.0322266-.7998047-.1923828-1.0722656-1.4404297,1.5048828-3.0893555,2.8007812-4.9296875,3.8251953-.2402344.1445312-.3842773.1445312-.4165039.0800781Z"/>
      <path class="cls-1" d="m857.807843,170.4260163c-.0800781-.1757812.0961914-.2080078.1279297-.5595703.1923828-1.8251953.1923828-5.0107422.0639648-5.4746094-.144043-.4648438-.4960938-.4960938-.6401367-.5117188-.1279297-.0332031-.3041992.015625-.2402344-.1445312.0961914-.3203125.5444336-.2880859,1.0087891-.2880859.3198242,0,1.3442383.5117188,1.3442383.8642578,0,.4003906-.3842773.4160156-.4160156,1.1201172-.0322266.6728516-.1918945,3.7617188-.144043,3.9697266.0317383.2080078.0317383.4160156.3520508.3046875,2.4331055-.8486328,5.394043-2.4335938,8.5634766-5.1386719.0322266-.03125.2563477-.2236328.3203125-.1435547.0639648.0634766-.1123047.2714844-.1923828.3681641-3.137207,3.6015625-7.6191406,5.6982422-8.2910156,5.9707031-.3842773.1591797-.5766602.5439453-.9604492.5761719-.3681641.03125-.8164062-.7207031-.8964844-.9130859Z"/>
      <path class="cls-1" d="m881.891339,168.1213288c.1757812-.2236328.3198242-.4638672.4477539-.4638672.1923828,0,1.3125.9121094,1.3125,1.1523438-.0478516.1757812-.2080078.2558594-.3999023.2558594h-5.0102539v3.9853516h4.3701172l.3520508-.4960938c.1918945-.2558594.3359375-.5126953.4643555-.5126953.1918945,0,1.328125.9931641,1.328125,1.2333984-.0317383.1757812-.1757812.2392578-.3837891.2392578h-10.9165039c-.8325195.0166016-1.6005859.0966797-2.4008789.2246094l-.4321289-.8164062c.7041016.0800781,1.4082031.1123047,2.128418.1279297h4.4501953v-3.9853516h-2.3530273c-.8325195.015625-1.6005859.0957031-2.4008789.2246094l-.4326172-.8330078c.7045898.0800781,1.4086914.1123047,2.1289062.1279297h7.4272461l.3203125-.4638672Zm1.2802734-6.7070312c.1601562-.1757812.2880859-.3515625.4160156-.3515625.1923828,0,1.168457.9755859,1.168457,1.2158203-.0957031.1289062-.3037109.1445312-.5922852.1601562-.527832.625-1.5043945,1.4882812-2.2084961,1.96875l-.2080078-.1113281c.3359375-.5283203.7841797-1.3769531,1.1040039-2.0488281h-2.9931641v3.4091797c0,.2236328.0639648.2724609.6083984.2724609h1.4086914c.6240234,0,1.1201172,0,1.3442383-.0166016.1601562-.0166016.2084961-.0478516.2724609-.1923828.1279297-.2080078.2880859-.9599609.4482422-1.7285156h.1918945l.0478516,1.7773438c.3364258.1269531.4165039.2558594.4165039.4638672,0,.4638672-.4482422.65625-2.7695312.65625h-1.5844727c-1.168457,0-1.3764648-.2568359-1.3764648-1.0400391v-3.6015625h-1.9208984c-.5283203,3.1523438-2.1606445,4.7539062-5.7783203,5.6503906l-.0800781-.2402344c3.0571289-1.1367188,4.2900391-2.7216797,4.6738281-5.4101562h-2.8652344c.0161133,1.1035156-.3837891,1.8564453-.800293,2.2089844-.3681641.3359375-.9282227.4160156-1.1201172.0634766-.1762695-.3203125.015625-.6728516.3359375-.8964844.5922852-.4482422,1.1523438-1.6162109,1.0883789-2.8330078h.2724609c.0957031.3515625.159668.671875.1918945.9765625h4.3378906c0-.7685547-.0483398-1.7128906-.144043-2.3535156,1.7124023.4960938,1.7124023.65625,1.4404297.8330078l-.2563477.1601562v1.3603516h4.6259766l.3041992-.3525391Z"/>
      <path class="cls-1" d="m891.8405578,160.2141023c.1279297-.1601562.2241211-.3359375.3520508-.3359375.1923828,0,1.0888672.7675781,1.0888672,1.0078125-.0961914.1123047-.3041992.2402344-.5605469.2890625v1.4394531c.0322266,1.4414062.0483398,1.921875.1123047,2.8017578-.128418.1757812-.6245117.4003906-.9443359.4003906h-.128418v-.7207031h-3.2329102v4.8183594c.0317383,1.9208984.0639648,2.5605469.1279297,3.7607422-.1279297.2246094-.4643555.4960938-.9125977.4960938-.1918945,0-.3681641-.1591797-.3681641-.3193359.0961914-1.3769531.144043-2.0810547.1762695-4.1621094v-6.4501953c0-1.0888672-.0639648-2.4013672-.2080078-3.28125l1.2641602.5917969h3.0092773l.2241211-.3359375Zm-.0800781.8164062h-3.2329102v1.5371094h3.2329102v-1.5371094Zm-3.2329102,3.6015625h3.2329102v-1.6005859h-3.2329102v1.6005859Zm3.28125,7.890625c0,.0966797-.4003906.3359375-.800293.3359375-.1601562,0-.2563477-.1591797-.2563477-.3193359.0478516-.6240234.0639648-.9287109.0961914-1.8730469v-1.1044922c0-1.0878906-.0639648-2.4003906-.2080078-3.28125l1.2324219.5761719h3.5371094l.2241211-.3037109c.128418-.1445312.2084961-.3046875.3364258-.3046875.1918945,0,1.1044922.6728516,1.1044922.9130859-.0961914.1269531-.3041992.2558594-.5605469.3037109v1.6328125c.0322266,1.6318359.0483398,2.1767578.1123047,3.1689453-.1279297.1923828-.6245117.4482422-.9443359.4482422-.144043,0-.2080078-.1601562-.2080078-.3203125.0317383-.0800781.0317383-.1279297.0639648-.2558594v-.2880859h-3.7294922v.671875Zm3.7294922-5.2177734h-3.7294922v1.7451172h3.7294922v-1.7451172Zm-3.7294922,4.0654297h3.7294922v-1.8408203h-3.7294922v1.8408203Zm3.7133789-5.921875c0,.0957031-.4321289.3203125-.8481445.3203125-.128418,0-.2241211-.1601562-.2241211-.3203125.0478516-.5126953.0639648-.7851562.0957031-1.5683594v-.9609375c0-.9443359-.0478516-2.1289062-.1757812-2.9130859l1.2163086.5439453h3.137207l.2241211-.3203125c.1279297-.1601562.2080078-.3359375.3359375-.3359375.1923828,0,1.2485352.7685547,1.2485352,1.0087891-.0957031.1279297-.3681641.2724609-.671875.3359375v11.3964844c0,.8486328-.1601562,1.3925781-1.6166992,1.5527344-.0322266-.3359375-.1123047-.6240234-.3041992-.7841797-.2402344-.1757812-.6245117-.3046875-1.3286133-.4160156v-.2558594s1.5527344.1269531,1.8886719.1269531c.2880859,0,.3842773-.0957031.3842773-.3515625v-7.4111328h-3.3613281v.3525391Zm3.3613281-4.4179688h-3.3613281v1.5371094h3.3613281v-1.5371094Zm-3.3613281,3.6015625h3.3613281v-1.6005859h-3.3613281v1.6005859Z"/>
      <path class="cls-1" d="m904.7512023,161.4943757c-.0317383-.0478516-.1279297-.1601562-.0957031-.2236328.0800781-.1289062.2080078-.0488281.2880859,0,.1918945.1279297,1.1845703.65625,1.1845703,2.0800781,0,.5761719-.7207031,1.953125-.9443359,2.9140625-.2724609,1.1035156-.1923828,1.6162109-.0483398,2.1289062.0322266.1279297.0161133.1914062.144043.2080078.1279297.015625.1762695-.0800781.2563477-.2724609s.65625-1.5527344.7202148-1.7441406c.0639648-.1923828.1279297-.1767578.1757812-.1601562.0322266.015625.0483398.0800781,0,.2402344-.0478516.1757812-.5761719,2.0644531-.5600586,2.9921875.0322266.9453125.3203125,2.2412109.3681641,2.4970703.0478516.2568359-.1601562.4804688-.3681641.4970703-.3198242.03125-.7363281-.3847656-.8964844-.8164062-.1757812-.4326172-.5922852-1.6015625-.6401367-3.8261719-.0317383-2.1132812.65625-3.6015625.8325195-5.1855469.0800781-.5761719-.3681641-1.28125-.4165039-1.3291016Zm4.1459961,8.6591797c.3520508.2568359.7363281.5126953,1.3603516.6728516.6083984.1601562,2.097168.1279297,3.5214844-.1279297.6884766-.1279297,1.0722656.2558594,1.0883789.5761719,0,.3359375-.3842773.4804688-.65625.5605469s-3.3452148.4472656-4.5297852-.2724609c-.6401367-.4003906-.9765625-1.0888672-1.0244141-1.2167969-.0639648-.1123047-.1118164-.2724609-.0639648-.3193359.0800781-.0644531.2080078.0634766.3041992.1269531Zm.4482422-7.5859375c.1118164.046875.5922852.2236328,1.2802734.1914062.6884766-.0322266,2.2089844-.3037109,2.5449219-.4160156.3364258-.1123047.8647461.1601562.9443359.4482422.0800781.2880859-.2880859.4960938-.6401367.6083984-.3520508.1113281-2.0327148.4003906-3.0092773.1601562-.7519531-.1767578-1.3286133-.5761719-1.5205078-.9609375-.0478516-.0957031-.0639648-.1757812-.0317383-.2236328.0478516-.0800781.3198242.1435547.4321289.1923828Z"/>
      <path class="cls-1" d="m922.8801086,171.8029695c0,1.1679688-.9282227,2.0966797-2.0805664,2.0966797s-2.097168-.9287109-2.097168-2.0966797c0-1.1523438.9448242-2.0810547,2.097168-2.0810547s2.0805664.9287109,2.0805664,2.0810547Zm-.3837891,0c0-.9287109-.7685547-1.6806641-1.6967773-1.6806641-.9287109,0-1.6967773.7519531-1.6967773,1.6806641,0,.9443359.7680664,1.6962891,1.6967773,1.6962891.9282227,0,1.6967773-.7519531,1.6967773-1.6962891Z"/>
    </g>
    <g>
      <path class="cls-1" d="m103.3857238,58.9308991c.4775391.6826172,1.057373,1.2626953,1.7734375,1.7402344,2.2849121-.8867188,4.1948242-2.1152344,5.8317871-3.6835938,1.3981934.6816406,2.1142578,1.2285156,2.1142578,1.5351562,0,.2041016-.3068848.3066406-.9206543.3066406h-.5117188c-1.807373,1.0234375-3.6831055,1.8417969-5.6611328,2.421875,2.012207,1.0224609,5.3884277,1.5341797,10.0605469,1.5341797,2.5578613,0,5.5588379-.1025391,8.9692383-.3759766-.4091797.6152344-.6821289,1.296875-.9208984,1.9785156h-6.786377c-5.0473633,0-8.5258789-.375-10.3674316-1.1933594-2.012207-.8867188-3.4104004-2.046875-4.1606445-3.5126953-.9890137,1.5009766-2.0803223,2.8994141-3.2399902,4.2294922,0,.75-.1022949,1.1582031-.375,1.1582031-.3752441,0-.9890137-.75-1.9099121-2.2841797,1.5688477-.8867188,3.0012207-1.9091797,4.3652344-3.1376953v-8.21875h-4.0922852l-.3068848-.7851562h4.1945801l1.1254883-1.3974609c1.2277832.9892578,1.8757324,1.6025391,1.8757324,1.8759766,0,.1367188-.1022949.2724609-.3410645.3408203l-.7163086.4775391v6.9902344Zm-4.5014648-20.1542969c3.2055664,1.4667969,4.8085938,3.0009766,4.8085938,4.6386719,0,.7832031-.3752441,1.1933594-1.1254883,1.1933594-.4775391,0-.8525391-.375-1.1254883-1.1259766-.5114746-1.5009766-1.534668-2.8642578-3.0693359-4.1259766l.5117188-.5800781Zm17.8359375,12.3789062v-2.8300781c1.9780273.0683594,2.9328613.3066406,2.9328613.6816406,0,.2050781-.375.4433594-1.1594238.7167969v1.4316406h2.3530273l1.2619629-1.7734375c.1022949.0683594.1364746.1367188.2045898.2392578.6137695.5458984,1.1254883,1.0908203,1.6027832,1.6708984l-.3410645.6142578h-5.0812988v3.4785156h3.342041l1.3984375-1.8076172.2727051.2734375.2387695.1699219c.5114746.4433594.9206543.9550781,1.2958984,1.4667969l-.3068848.6474609h-19.8823242l-.3410645-.75h5.5246582v-3.4785156h-4.3310547l-.3068848-.7509766h4.6379395v-2.8642578c1.9099121.0341797,2.8989258.2724609,2.8989258.7158203,0,.2392578-.4091797.4785156-1.159668.7167969v1.4316406h4.9450684Zm-8.9350586-8.0136719v2.3183594c0,.3417969.0681152.5800781.2387695.7167969.1704102.1367188.9206543.1699219,2.1826172.1699219,1.432373,0,2.2167969-.1357422,2.4553223-.4082031.1706543-.2734375.3410645-.8183594.4433594-1.6035156l.6821289.2050781c0,.1367188-.0341797.2382812-.0341797.4082031,0,.7167969.3071289,1.0917969.9208984,1.0585938v.0332031c0,.7167969-.2387695,1.1933594-.7163086,1.3984375-.5114746.2050781-1.6367188.3417969-3.4101562.3417969-2.114502,0-3.3762207-.1367188-3.7856445-.3417969-.375-.2050781-.5456543-.75-.5456543-1.5683594v-4.296875c.3071289.1015625.9208984.375,1.8757324.7832031h3.6149902v-2.4208984h-6.036377l-.3068848-.75h6.0705566l1.0229492-1.2617188c1.1254883.8525391,1.6369629,1.3642578,1.6369629,1.5693359,0,.1699219-.0681152.3066406-.2387695.375l-.5456543.375v3.5800781h-1.6027832v-.6816406h-3.921875Zm8.9350586,12.2431641v-3.4785156h-4.9450684v3.4785156h4.9450684Zm.579834-12.2431641v2.1484375c0,.375.0341797.6484375.1704102.75.1706543.2050781.9550781.2382812,2.2849121.2382812,1.5007324,0,2.3532715-.1699219,2.5578613-.5107422.2387695-.3759766.4091797-.8867188.5114746-1.5693359l.6821289.2392578c0,.6142578.0681152,1.0576172.1704102,1.2958984.1364746.2050781.3752441.3066406.7844238.3408203,0,.7509766-.3410645,1.1943359-.9206543,1.3984375-.5117188.2041016-1.7053223.3076172-3.6149902.3076172-2.0461426,0-3.3081055-.171875-3.7514648-.4433594-.3068848-.2050781-.4772949-.6484375-.4772949-1.296875v-4.4335938c.5795898.2392578,1.1936035.4785156,1.807373.75h3.6831055v-2.4208984h-5.8657227l-.3410645-.75h5.934082l1.0571289-1.2617188c1.1254883.8525391,1.6369629,1.3974609,1.6369629,1.6025391,0,.1367188-.1022949.2382812-.2727051.375l-.579834.4101562v3.5800781h-1.5688477v-.75h-3.8876953Zm-1.0571289,14.0839844c4.7402344.8183594,7.0593262,1.9101562,7.0593262,3.171875,0,.6826172-.3068848,1.0234375-.9208984,1.0234375-.3068848,0-.6479492-.1367188-.9890137-.4775391-1.2275391-1.2275391-3.0693359-2.2509766-5.5588379-3.0693359l.4094238-.6484375Z"/>
      <path class="cls-1" d="m157.6049621,56.5441804c.0681152.5458984-.3410645,1.2285156-1.3981934,1.3642578-1.432373.1357422-2.8305664-.5458984-4.2287598-1.6025391-1.4665527-1.125-3.3081055-3.171875-4.7062988-4.8427734-1.3984375-1.7060547-2.6943359-3.3427734-3.2399902-3.9902344-.6818848-.7841797-1.2617188-1.3984375-1.8415527-1.3984375-.6137695,0-1.0913086.4775391-1.534668,1.0908203-.4772949.6152344-1.6369629,2.421875-2.1484375,3.2070312-.4433594.75-1.534668,2.1816406-2.4555664,2.4550781-.954834.2724609-1.807373,0-2.4553223-.3066406-.6821289-.3076172-1.0571289-.8867188-.8867188-1.296875.1364746-.3066406.6140137-.2724609,1.0231934-.2382812.375.0341797.8525391-.0341797,1.3640137-.2050781.5117188-.2041016,1.057373-.6816406,1.7734375-1.2949219.6821289-.5800781,1.432373-1.3652344,2.012207-1.9785156.6137695-.6484375.8525391-.9550781,1.5004883-1.7050781s1.0571289-1.0917969,1.7050781-1.125c.6479492-.0683594,1.2619629.6132812,1.8757324,1.2265625.579834.5800781,1.7734375,1.6376953,2.7963867,2.7626953,1.0231934,1.1259766,2.4213867,2.3876953,3.8879395,3.7509766.8867188.8535156,2.3530273,2.046875,3.4785156,2.6601562,1.0913086.5800781,1.9438477.7509766,2.4553223.7851562.4433594.0332031.9890137.1699219,1.0231934.6816406Zm-5.2861328-8.7636719c-.5114746-.4785156-1.1594238-.9550781-2.0119629-1.5351562-.2729492-.2050781-.4433594-.4433594-.2729492-.6816406.1364746-.171875.4094238-.1367188.579834-.1367188.5114746.0332031,1.1254883.1699219,1.8415527.4433594.7163086.2382812,1.7392578.7841797,2.0461426,1.3300781.3410645.5800781.0341797,1.125-.4772949,1.2617188-.4775391.1367188-1.2277832-.1708984-1.7053223-.6816406Zm2.6943359-1.3652344c-.5117188-.6132812-1.1254883-.9882812-2.114502-1.3984375-.2727051-.1357422-.4433594-.4433594-.3068848-.6474609.1022949-.2041016.3752441-.1708984.579834-.1708984.5114746-.0332031,1.1594238.1025391,1.8754883.3076172.6821289.2041016,1.7053223.7158203,2.0803223,1.2958984.3410645.5449219.0683594,1.0917969-.4091797,1.2617188-.4772949.1699219-1.2617188-.1367188-1.7050781-.6484375Z"/>
      <path class="cls-1" d="m187.6789367,59.647696c-1.2619629,1.4326172-2.7963867,2.2509766-4.5358887,2.6943359-1.7392578.4775391-3.4101562.4091797-5.456543.0341797-2.0803223-.4433594-2.8986816-1.1601562-2.8986816-2.1826172-.0341797-1.0234375,1.2958984-1.8417969,2.4213867-2.0458984,1.1594238-.2392578,2.5236816-.1708984,3.5466309.6474609.8867188.7158203.8527832,1.5341797.4433594,2.3525391,1.6369629-.2041016,3.1716309-.6816406,4.2629395-1.5683594,1.3300781-1.0917969,1.9438477-2.625,1.9438477-4.1943359.0341797-1.5693359-1.1252441-3.4785156-3.0351562-4.3310547-1.909668-.8183594-3.9560547-.8867188-6.0703125-.2050781-2.1484375.6816406-3.5126953,1.7402344-4.5358887,3.1035156-1.0229492,1.3300781-1.7731934,2.9335938-2.0461426,3.8203125-.2727051.8867188-.579834,1.3632812-1.0229492,1.6015625-.204834.1035156-.579834.2734375-1.1254883-.1699219-.3752441-.3066406-.4091797-1.0234375-.3752441-1.5.0341797-.4433594.8867188-1.5351562,1.5007324-2.3193359.6479492-.8193359,1.5344238-2.0810547,2.6940918-3.3427734,1.1594238-1.2617188,3.0009766-3.5117188,3.7512207-4.3652344.7163086-.8867188,3.0693359-3.7167969,3.4445801-4.2285156.375-.4765625.5456543-.8525391.375-.9882812-.1704102-.1708984-.7502441.0683594-1.0913086.2724609-.375.2392578-2.0461426,1.2275391-3.0009766,1.7734375-.9890137.5107422-1.7050781.75-2.5578613.75-.8525391,0-1.4321289-.4433594-1.7731934-.75-.3410645-.3408203-.4775391-.8525391-.3752441-1.0908203.1364746-.3417969.4775391-.3759766.7502441-.2734375.3068848.0683594.7163086.2050781,1.159668.2050781.4431152.0332031.8525391-.0351562,1.909668-.4785156,1.0231934-.4082031,2.387207-1.0566406,3.546875-1.6699219,1.1594238-.6152344,1.8754883-1.0576172,2.5234375-1.0917969.6821289-.0341797,1.3642578.375,1.8076172.8867188.4433594.4765625.4772949.7841797.4091797,1.0917969-.0681152.3066406-.2387695.4765625-.7160645.7832031-.4775391.2734375-1.5007324,1.1601562-2.4213867,2.0800781-.9208984.9550781-2.0461426,2.3535156-2.8647461,3.2402344,0,0-.8183594.8867188-2.4213867,2.5585938.4775391-.3417969.9550781-.6142578,1.8757324-.9550781,1.3300781-.4785156,2.7282715-.75,4.4675293-.5800781,1.7734375.1699219,3.2058105.7167969,4.501709,1.6367188,1.2958984.9208984,2.3190918,2.2851562,2.489502,4.2636719.1706543,1.875-.3410645,3.2392578-1.5004883,4.5351562Zm-9.8217773-.5449219c-1.0913086.0332031-1.7734375.6816406-1.2958984,1.3632812.2727051.375,1.1252441.7167969,2.5576172.75,1.3300781-1.1933594.1364746-2.1132812-1.2617188-2.1132812Z"/>
    </g>
    <g>
      <g>
        <path class="cls-1" d="m127.4357726,97.1613679c.4689941-.6386719.8527832-1.2578125,1.2363281-1.8964844-.0424805-.0644531-.1064453-.1279297-.1704102-.1914062-.5117188-.5546875-1.1083984-1.0234375-1.833252-1.5566406-.234375-.1494141-.5754395-.3837891-.4689941-.5546875.1279297-.1914062.3410645-.1064453.8952637.1289062.5756836.234375,1.0871582.5537109,2.1318359,1.1933594.1491699-.234375.2770996-.4902344.4050293-.7675781.7460938-1.3857422,1.0656738-2.28125,1.1936035-2.8779297.1279297-.6181641.0427246-1.1083984-.1918945-1.4072266-.2131348-.2773438-.4689941-.5957031-.3195801-.8095703.1916504-.2773438.5541992-.1708984,1.0231934.0214844.5541992.1923828.9592285.5537109,1.2363281.9804688.2770996.4482422.1704102.8095703.0212402.9589844-.1704102.1494141-.3410645.2773438-.4050293.5537109-.0852051.2558594-.2131348.7255859-.4902344,1.3007812-.3410645.7460938-.8527832,1.6835938-1.5134277,2.7070312.6181641.4482422,1.151123.9169922,1.4921875,1.2578125.6821289.7460938.8952637,1.6835938.2556152,2.0253906-.6181641.3408203-1.2788086-.1494141-1.7905273-.9589844-.2558594-.3847656-.5114746-.7675781-.7460938-1.109375-.8312988,1.1943359-1.300293,1.8769531-2.3662109,3.0488281-1.0656738,1.171875-1.8544922,1.8759766-3.2612305,2.8564453-.532959.3623047-.831543.4267578-.8952637.2978516-.0854492-.1269531.1276855-.3193359.3835449-.5537109.5541992-.46875,1.0871582-.9169922,1.8972168-1.7685547.7885742-.875,1.4494629-1.7060547,2.2807617-2.8789062Z"/>
        <path class="cls-1" d="m157.1674621,95.7766023c-.0427246.2558594-.3410645.3408203-.7888184.2558594-.4262695-.0644531-1.6413574-.2128906-2.4086914-.2773438s-2.451416-.1494141-3.2402344-.1074219c-.767334.0644531-2.3234863.1074219-3.3251953.2138672-.7888184.0849609-1.7053223.2978516-2.451416.3193359-.767334,0-1.4921875-.234375-1.918457-.5537109-.4265137-.3193359-.5969238-.8095703-.3625488-.9804688.3625488-.2773438.9807129-.0214844,1.5136719.1279297.4902344.1484375,1.4919434.2558594,2.3234863.234375.8737793-.0429688,2.685791-.1279297,3.6022949-.1494141.8955078-.0419922,3.3894043-.1279297,4.2421875-.1494141.8737793,0,1.7478027.0214844,2.1955566.2128906.4475098.1923828.6606445.5546875.6181641.8535156Z"/>
        <path class="cls-1" d="m164.0903137,103.0236726c.3623047-.234375.8525391-.6181641,1.2150879-.9375,1.1083984-.9599609,1.9824219-1.8544922,2.685791-2.8779297.6821289-1.0449219,1.2150879-2.046875,1.6413574-3.1972656.2983398-.7460938.532959-1.5566406.7460938-2.3027344-.5969238.0644531-1.1083984.1289062-1.4494629.1708984-.4689941.0419922-1.065918.1708984-1.5134277.1494141-.4904785-.0214844-1.1938477-.1494141-1.6628418-.5332031-.4262695-.3837891-.5754395-.7675781-.4475098-.9589844.1704102-.2988281.767334-.1074219,1.151123.0214844.3835449.1064453,1.0231934.234375,1.9609375.2558594.8100586.0214844,1.4709473-.0429688,2.1743164-.0859375,0,0,.0212402-.0214844.0212402-.0429688.1706543-.9160156.298584-1.9394531.3198242-2.4296875.0427246-.46875-.1704102-.9804688-.3623047-1.2578125-.2131348-.2988281-.3198242-.5751953-.2346191-.7460938.1279297-.1914062.4050293-.1699219.8740234-.0214844.4477539.1503906.7248535.3203125.9807129.6191406.234375.2558594.2983398.5957031.1916504.8310547-.0637207.1494141-.1491699.4052734-.1916504.7460938-.1494141.7460938-.2346191,1.4492188-.3837891,2.1748047.532959-.0429688,1.065918-.1289062,1.6201172-.2138672.8312988-.1064453,1.2575684-.2138672,1.6413574-.3193359.3835449-.1074219.7033691-.3203125.8952637-.46875.1918945-.171875.4902344-.1923828.8525391.0839844.3625488.2773438.6821289.640625.7888184.8964844s0,.5117188-.1279297.6171875c-.1064453.0859375-.2131348.3632812-.2558594.5546875-.0424805.3417969-.1064453.8740234-.2131348,1.7480469-.1279297.8945312-.2983398,1.7695312-.5754395,3.0058594-.298584,1.1933594-.5541992,1.8964844-.8952637,2.4082031-.3198242.4902344-.6181641.6191406-.9592285.5332031-.2558594-.0644531-.3837891-.234375-.5117188-.6181641s-.3198242-.6826172-.6181641-.9804688c-.2770996-.3193359-.6394043-.5537109-1.0019531-.7675781-.1916504-.1064453-.2983398-.2558594-.2556152-.3623047.0424805-.1064453.2131348-.1279297.4475098-.0429688.3625488.1074219.767334.2558594,1.3430176.4267578.5541992.1708984.9165039.1064453,1.1083984-.2978516.2131348-.40625.3410645-.875.532959-1.8554688.1918945-1.0019531.2770996-1.8115234.3837891-3.0693359.0212402-.4052734.0424805-.6396484-.0427246-.7041016-.0639648-.0634766-.2558594-.1269531-.4050293-.1699219s-.2983398,0-.4477539,0c-.1276855.0214844-.3410645.0859375-1.001709.1914062-.6181641.1074219-1.3217773.1708984-2.5581055.3417969-.0639648.1699219-.1279297.3408203-.1918945.5546875-.46875,1.2363281-.8737793,2.1738281-1.4067383,3.1542969-.532959,1.0019531-1.0019531,1.7910156-1.7692871,2.75-.7460938.9375-1.5773926,1.7480469-2.4726562,2.4082031-.4477539.3417969-1.0019531.6611328-1.4282227.8740234-.298584.1494141-.4689941-.0849609-.1918945-.2558594Z"/>
        <path class="cls-1" d="m199.790509,95.7766023c-.0427246.2558594-.3410645.3408203-.7888184.2558594-.4262695-.0644531-1.6413574-.2128906-2.4086914-.2773438s-2.451416-.1494141-3.2402344-.1074219c-.767334.0644531-2.3234863.1074219-3.3251953.2138672-.7888184.0849609-1.7053223.2978516-2.451416.3193359-.767334,0-1.4921875-.234375-1.918457-.5537109-.4265137-.3193359-.5969238-.8095703-.3625488-.9804688.3625488-.2773438.9807129-.0214844,1.5136719.1279297.4902344.1484375,1.4919434.2558594,2.3234863.234375.8737793-.0429688,2.685791-.1279297,3.6022949-.1494141.8955078-.0419922,3.3894043-.1279297,4.2421875-.1494141.8737793,0,1.7478027.0214844,2.1955566.2128906.4475098.1923828.6606445.5546875.6181641.8535156Z"/>
      </g>
      <path class="cls-2" d="m92.891339,116.4269929v-2.2910156c2.2282715-3.8203125,5.7932129-8.9765625,10.567627-15.4697266,4.3288574-5.9833984,6.4296875-10.5673828,6.4296875-13.7509766,0-1.8457031-.4455566-3.5644531-1.2731934-4.9013672-1.2094727-1.8466797-2.8647461-2.7373047-5.0927734-2.7373047-1.71875,0-3.1193848.5097656-4.2651367,1.5917969-1.2097168,1.0820312-1.9099121,2.5458984-2.1008301,4.328125,1.3366699.3828125,1.9733887,1.2099609,1.9733887,2.6103516,0,1.8466797-.8911133,2.7373047-2.6738281,2.7373047-1.9733887,0-2.9282227-1.2089844-2.9282227-3.5009766,0-2.4189453.8911133-4.6474609,2.7373047-6.4931641,1.9736328-2.0371094,4.4562988-2.9921875,7.4482422-2.9921875,2.6101074,0,4.8381348.6367188,6.6206055,1.9726562,2.3554688,1.7832031,3.5012207,4.265625,3.5012207,7.4492188,0,2.8007812-1.0185547,5.6660156-3.1193848,8.7207031-.954834,1.4003906-2.482666,3.375-4.7106934,5.9208984-3.8833008,4.5195312-7.3845215,8.9755859-10.4401855,13.6230469h12.6044922c2.1008301,0,3.4377441-.8916016,4.1379395-2.6738281.3820801-1.0820312.7004395-2.6738281.8913574-4.7109375h1.3369141v10.5673828h-21.6445312Z"/>
    </g>
    <g>
      <path class="cls-1" d="m607.344464,49.8527741c0,1.7285156,0,3.1503906.0900879,3.9072266.0539551.5224609.1621094.9179688.7021484.9902344.2521973.0361328.6481934.0712891.8103027.0712891.1081543,0,.144043.0546875.144043.109375,0,.0898438-.0900879.1435547-.2880859.1435547-.9902344,0-2.1247559-.0537109-2.2145996-.0537109-.0900879,0-1.2243652.0537109-1.7646484.0537109-.197998,0-.2880859-.0361328-.2880859-.1435547,0-.0546875.0361328-.109375.144043-.109375.1621094,0,.3781738-.0351562.5402832-.0712891.3601074-.0722656.4499512-.4677734.5222168-.9902344.0898438-.7568359.0898438-2.1787109.0898438-3.9072266v-7.6162109c-.8823242.0185547-1.7824707.0185547-2.6647949.0361328-1.1162109.0175781-1.5483398.1445312-1.8364258.5761719-.197998.3056641-.2521973.4316406-.3061523.5585938-.0539551.1435547-.1081543.1796875-.1799316.1796875-.0541992,0-.0900879-.0546875-.0900879-.1621094,0-.1796875.3601074-1.7285156.3959961-1.8730469.0361328-.1074219.1081543-.3417969.1801758-.3417969.1259766,0,.3059082.1796875.7922363.2158203.5219727.0537109,1.2062988.0908203,1.4223633.0908203h6.7519531c.5761719,0,.9902344-.0371094,1.2783203-.0908203.2702637-.0361328.4321289-.0898438.5043945-.0898438.0898438,0,.0898438.1083984.0898438.2158203,0,.5410156-.0539551,1.7832031-.0539551,1.9804688,0,.1621094-.0539551.234375-.1259766.234375-.0900879,0-.1262207-.0546875-.144043-.3066406,0-.0712891-.0180664-.125-.0180664-.1972656-.0539551-.5410156-.486084-.9550781-2.2145996-.9902344-.7563477-.0175781-1.5124512-.0175781-2.2687988-.0361328v7.6162109Z"/>
      <path class="cls-1" d="m616.6125305,49.2590241c0-2.3945312,1.8547363-5.9785156,6.302002-5.9785156,3.5649414,0,6.2836914,2.125,6.2836914,5.7441406,0,3.4394531-2.5385742,6.2480469-6.3737793,6.2480469-4.411377,0-6.2119141-3.2773438-6.2119141-6.0136719Zm10.8933105.2148438c0-3.6181641-2.232666-5.6347656-4.6994629-5.6347656-2.5026855,0-4.5192871,1.5488281-4.5192871,4.9511719,0,3.5292969,1.9626465,5.8691406,4.9875488,5.8691406,1.2062988,0,4.2312012-.6113281,4.2312012-5.1855469Z"/>
      <path class="cls-1" d="m635.8730285,47.9260163c0-2.3759766,0-2.8085938-.0358887-3.2949219-.0361328-.4853516-.144043-.7568359-.5222168-.828125-.1801758-.0361328-.3061523-.0361328-.4140625-.0537109-.1259766-.0185547-.1982422-.0546875-.1982422-.1269531,0-.0898438.0722656-.125.2702637-.125.5581055,0,1.5844727.0537109,1.6384277.0537109.0720215,0,1.1162109-.0537109,1.6206055-.0537109.1799316,0,.2700195.0351562.2700195.125,0,.0722656-.0541992.1083984-.1982422.1269531-.1079102.0175781-.197998.0175781-.3239746.0351562-.5222168.0722656-.5761719.3427734-.6120605.8652344-.0361328.4863281-.0180664.9003906-.0180664,3.2763672v2.7001953c0,1.3867188-.0180664,2.6474609.0720215,3.2958984.0720215.5224609.144043.7197266.6120605.828125.2341309.0537109.6123047.0712891.6843262.0712891.1618652.0185547.197998.0546875.197998.1269531s-.0720215.1259766-.2519531.1259766c-.918457,0-1.9626465-.0537109-2.0527344-.0537109-.0539551,0-1.1162109.0537109-1.6206055.0537109-.1618652,0-.2880859-.0361328-.2880859-.1259766,0-.0722656.0722656-.1269531.2341309-.1269531.0900879,0,.2880859-.0175781.4321289-.0527344.3061523-.0722656.3601074-.4326172.4143066-.8652344.0898438-.6484375.0898438-1.9257812.0898438-3.2773438v-2.7001953Z"/>
      <path class="cls-1" d="m647.285382,50.663321c0,2.0703125.0720215,3.1152344.3781738,3.4023438.2880859.2519531.6479492.3603516,1.8903809.3603516.7922363,0,1.5124512,0,1.9086914-.5039062.1799316-.2705078.3059082-.6298828.342041-.9003906.0180664-.1435547.0539551-.2158203.144043-.2158203.0720215,0,.1079102.0537109.1079102.234375,0,.1796875-.1079102,1.2050781-.2158203,1.6191406-.1081543.3613281-.0900879.4511719-.9543457.4511719-1.2243652,0-2.5749512-.0898438-4.3752441-.0898438-.5942383,0-.9543457.0537109-1.5844727.0537109-.1801758,0-.2880859-.0361328-.2880859-.1435547,0-.0546875.0539551-.109375.197998-.109375s.2880859,0,.4321289-.0351562c.3059082-.0546875.4140625-.4140625.4680176-.8457031.1081543-.6855469.0720215-1.9277344.0720215-3.3144531v-2.7001953c0-2.3759766,0-2.7724609-.0358887-3.2587891-.0361328-.5039062-.1081543-.828125-.7202148-.9003906-.1081543-.0175781-.3061523-.0175781-.4501953-.0175781-.1259766,0-.197998-.0546875-.197998-.1269531,0-.0898438.0900879-.125.2700195-.125.7561035,0,1.8366699.0537109,1.8725586.0537109.2521973,0,1.3503418-.0537109,1.8544922-.0537109.1801758,0,.2341309.0537109.2341309.125,0,.0722656-.0900879.1269531-.197998.1269531-.1262207,0-.3061523.0175781-.486084.0351562-.5043945.0722656-.6123047.3613281-.6484375.8828125-.0358887.4863281-.0178223.8828125-.0178223,3.2587891v2.7373047Z"/>
      <path class="cls-1" d="m658.1208312,47.9260163c0-2.3583984,0-2.7900391-.0358887-3.2763672-.0361328-.5039062-.1621094-.7568359-.6843262-.8652344-.1079102-.0175781-.2880859-.0351562-.4321289-.0351562-.1259766,0-.2341309-.0546875-.2341309-.1083984,0-.1083984.0900879-.1435547.2702637-.1435547.3601074,0,.8461914.0351562,1.8544922.0537109.0900879,0,3.2949219,0,3.6550293-.0185547.3601074-.0175781.5581055-.0351562.7021484-.0898438.1081543-.0351562.1262207-.0537109.1982422-.0537109.0358887,0,.0720215.0361328.0720215.1259766,0,.1074219-.1081543.359375-.144043.8105469-.0180664.3056641-.0361328.59375-.0539551.9355469,0,.1621094-.0361328.2705078-.1262207.2705078s-.1259766-.0722656-.1259766-.1982422c-.0180664-.2695312-.0720215-.4501953-.1259766-.5761719-.1081543-.359375-.2702637-.4863281-1.1704102-.5400391-.2341309-.0185547-2.0166016-.0361328-2.0524902-.0361328-.0541992,0-.0900879.0361328-.0900879.1445312v4.0869141c0,.1083984.0178223.1806641.1079102.1806641.2160645,0,2.0527344-.0185547,2.4309082-.0546875.4140625-.0175781.684082-.0722656.828125-.2695312.0720215-.1083984.1259766-.1445312.197998-.1445312.0361328,0,.0720215.0175781.0720215.1074219s-.0720215.4326172-.1259766.9550781c-.0539551.5039062-.0539551.8632812-.0720215,1.0976562-.0180664.1445312-.0539551.1992188-.1259766.1992188-.0900879,0-.1081543-.109375-.1081543-.234375,0-.1083984-.0180664-.2890625-.0539551-.4326172-.0720215-.2333984-.1799316-.4853516-.8642578-.5400391-.4140625-.0361328-1.8725586-.0722656-2.1606445-.0722656-.1081543,0-.1259766.0546875-.1259766.1269531v1.3134766c0,.5576172-.0180664,2.1435547,0,2.4482422.0358887.6669922.1259766,1.0087891.5041504,1.1708984.2700195.1259766.7021484.1621094,1.3144531.1621094.342041,0,.9182129.0185547,1.3681641-.1083984.5402832-.1621094.6662598-.5214844.8103027-1.1875.0361328-.1806641.0900879-.2519531.1621094-.2519531.1081543,0,.1081543.1621094.1081543.2695312,0,.1259766-.144043,1.2597656-.1982422,1.5664062-.0720215.3603516-.197998.3964844-.7922363.3964844-1.1882324,0-1.6923828-.0361328-2.3225098-.0361328-.6303711-.0185547-1.4584961-.0537109-2.1247559-.0537109-.4140625,0-.7561035.0537109-1.1882324.0537109-.1621094,0-.2521973-.0361328-.2521973-.1259766,0-.0722656.0720215-.1269531.1621094-.1269531.1079102,0,.2341309-.0175781.3601074-.0527344.3239746-.0722656.5400391-.3066406.5761719-1.4228516.0180664-.6123047.0358887-1.3505859.0358887-2.7197266v-2.7001953Z"/>
      <path class="cls-1" d="m674.2675597,50.6262116c0,1.3867188.0180664,2.6660156.0900879,3.3320312.0539551.4316406.0900879.6835938.5402832.7919922.2160645.0537109.5581055.0712891.7021484.0712891s.2160645.0546875.2160645.109375c0,.0898438-.0539551.1435547-.2341309.1435547-.9182129,0-1.9804688-.0537109-2.0524902-.0537109s-1.1345215.0537109-1.6025391.0537109c-.197998,0-.2700195-.0361328-.2700195-.1259766,0-.0546875.0539551-.1269531.197998-.1269531s.2519531,0,.3959961-.0175781c.3422852-.0537109.3962402-.2695312.4682617-.8818359.0720215-.6484375.0720215-1.9443359.0720215-3.2958984v-6.4277344c-.5942383,0-1.548584,0-2.2687988.0185547-1.1523438.0185547-1.4042969.1982422-1.65625.5761719-.1621094.2519531-.2341309.4677734-.2702637.5576172-.0539551.1269531-.0900879.1445312-.1618652.1445312-.0722656,0-.0900879-.0722656-.0900879-.1621094-.0180664-.1074219.2519531-1.296875.3601074-1.7822266.0539551-.2158203.1079102-.2880859.1621094-.2880859.1259766,0,.4680176.1621094.7919922.1972656.6303711.0722656,1.1345215.0908203,1.1523438.0908203h5.9057617c.5043945,0,1.0444336-.0361328,1.2963867-.0908203.2341309-.0527344.2880859-.0712891.3422852-.0712891.0720215,0,.1079102.0898438.1079102.1621094,0,.5039062-.0358887,1.6923828-.0358887,1.8369141,0,.1621094-.0720215.2148438-.1262207.2148438-.0898438,0-.1259766-.0712891-.1259766-.2148438,0-.0546875,0-.0722656-.0180664-.2519531-.0717773-.7207031-.3059082-.9003906-2.1245117-.9189453-.684082,0-1.2424316-.0185547-1.7646484-.0185547v6.4277344Z"/>
    </g>
    <rect class="cls-3" y="0" width="1279.94646" height="178.3273835"/>
  </g>
</svg>