<?xml version="1.0" encoding="UTF-8"?>
<svg id="_レイヤー_2" data-name="レイヤー 2" xmlns="http://www.w3.org/2000/svg" xmlns:xlink="http://www.w3.org/1999/xlink" viewBox="0 0 749.9996536 140.8208542">
  <defs>
    <style>
      .cls-1 {
        fill: #fff;
      }

      .cls-2 {
        fill: #e8c416;
      }

      .cls-3 {
        clip-path: url(#clippath);
      }

      .cls-4 {
        fill: none;
      }

      .cls-5 {
        fill: #ae8f36;
      }
    </style>
    <clipPath id="clippath">
      <rect class="cls-4" width="749.9996536" height="140.8208542"/>
    </clipPath>
  </defs>
  <g id="_レイヤー_1-2" data-name="レイヤー 1">
    <g class="cls-3">
      <g>
        <path class="cls-1" d="m329.2540329,90.5323294c0,.7197266.0400391,3.8398438,0,5.2392578,0,1.3994141,0,3.6796875.2001953,5.0390625.2001953,1.3203125.4804688,2.4394703.7197266,3.5195312.2402344,1.1201172.1201172,2.5996094-.8798828,2.6796875-.9199219.1201172-1.8789062-.6796875-2.3193359-1.6396484-.4794922-.9599609-.4794922-2.2802734-.2802734-3.359375.2001953-1.0800781.3603516-2.5595703.5205078-4.3193359.1591797-1.7998047.2392578-4.2792969.2792969-6.4394531.0800781-2.1992188.2001953-4.0390625.2802734-5.7587891.0400391-1.6796875.0400391-2.7998047-.1601562-3.9990234-.1601562-1.1201172-.5195312-1.8398438-1.1601562-2.3603516-.5996094-.5195312-.9189453-1.1992188-.5996094-1.5996094.3203125-.4794922,1.0400391-.359375,1.6396484-.1992188.6396484.1591797,1.4794922.5595703,1.9199219,1.2792969s.2402344,1.6396484.1601562,2.2001953c-.1201172.6396484-.2001953,1.71875-.2802734,2.9589844-.0400391,1.2402344-.0800781,2.6796875-.0400391,4.2392578.0400391.5195312.4804688.5195312.8398438.5595703,1.7998047.0800781,2.7998047.2402344,4.3994141.9199219,1.5595703.6806641,2.7197266,1.4804688,3.8789062,2.7597656,1.1601562,1.2402344,1.8808594,3.359375.3203125,3.9589844-1.5595703.5605469-2.3994141-1.2392578-3.2792969-2.71875-.8398438-1.4804688-1.7597656-2.4794922-2.7597656-3.0800781-.8798828-.5595703-1.6796875-.8398438-2.6796875-.9599609-.5595703-.0400391-.7197266.3203125-.7197266,1.0800781Z"/>
        <path class="cls-1" d="m358.7764938,95.8917044c.7998047-.3603516,1.3994141-.6396484,2.5585938-1.3203125,2.1601562-1.1992188,3.7197266-2.2792969,6.0800781-4.1191406,2.3193359-1.8798828,4.5185547-3.7587891,6.3183594-5.5585938s2.9199219-3.1201172,3.6396484-4,.6796875-1.3994141.4394531-1.8388672c-.2802734-.4404297-.3193359-1.0400391,0-1.2001953.8398438-.5195312,2.3603516.4003906,2.8798828,1.0400391.4794922.5996094.6396484,1.3994141.359375,1.9199219-.3193359.5996094-.8789062,1.0390625-1.5595703,1.6396484-.7197266.5996094-2.0390625,1.6796875-3.359375,2.9189453-.5996094.5605469-1.2392578,1.1601562-1.8798828,1.7597656.4404297.0800781.9599609.1601562,1.4404297.4003906.8798828.3994141,1.4794922.8798828,1.5996094,1.5195312.1601562.6396484-.2402344.9599609-.4003906,1.5996094-.1591797.6396484-.1591797,2.3193359-.2001953,3.6796875-.0791016,1.2792969-.0791016,3.1191406-.0390625,4.7988281,0,1.6796875.1191406,3.6796875.1191406,5.1191578.0410156,1.4394359-.3994141,2.3593578-1.4394531,2.3193187-.9599609-.0800781-1.3994141-1.5996094-1.2792969-2.3193187.1191406-.7197438.3193359-2.3193531.359375-3.9189625.0400391-1.5605469.1201172-3.5595703.2001953-5.3193359.0400391-1.7197266.0800781-2.8398438.0400391-3.9589844,0-1.1201172-.1201172-1.9199219-.4804688-2.5595703-.1591797-.2802734-.4794922-.4804688-.7988281-.5605469-.4003906.3203125-.7607422.6396484-1.1201172.9599609-1.3603516,1.2001953-3.7998047,2.8398438-5.6787109,4.0390625-1.9199219,1.2001953-3,1.7197266-4.1201172,2.2802734-1.0791016.5595703-2.1191406.9990234-3.4394531,1.3994141-.5595703.1601562-.8398438-.5195312-.2392578-.7197266Z"/>
        <path class="cls-1" d="m423.0118454,85.6534232c-.4394531.7998047-1.4394531,2.2792969-2.6396484,3.71875-1.3193359,1.6005859-3.1591797,3.5996094-4.9589844,5.2792969-1.9589844,1.8798828-3.4394531,2.8798828-6.1992188,4.8398438-2.0791016,1.4794922-2.9990234,2.0791016-3.9589844,2.6787109-.8798828.6005859-1.4394531.4804688-1.8398438-.0390625-.4394531-.5205078-1.1601562-1.5605469-1.5595703-2.0400391-.3994141-.4804688-.4794922-1-.2802734-1.3994141.1201172-.4404297.2001953-1.3203125.2402344-2.4404297.0400391-1.1191406.0400391-2.7587891.0800781-5.0791016v-5.0390625c-.0400391-1.0400391,0-1.9189453-.5605469-2.4794922-.5195312-.5195312-.9589844-1-.7597656-1.4794922.1601562-.4003906.7597656-.5996094,1.4003906-.4804688.6396484.1201172,1.3193359.4404297,2.1191406,1.0400391.8398438.640625.8007812,1.2802734.6005859,1.7197266-.2001953.4804688-.3203125,1.7197266-.4404297,3.1601562-.1601562,2.3994141-.1601562,5.5185547-.2402344,7.3183594-.0390625.9199219-.1992188,2.7597656.6005859,3.1191406.7597656.3203125,1.5195312-.1601562,3.6787109-1.2392578,2.2001953-1.0800781,4.1601562-2.2001953,6.3193359-4.0400391,2.1591797-1.8388672,3.5195312-3.1191406,4.7197266-4.3984375,1.2792969-1.2402344,2.5996094-2.6796875,2.9589844-3.1601562.4003906-.5195312.8398438-.8798828,1-.7998047.1992188.0800781.1601562.4404297-.2802734,1.2402344Z"/>
      </g>
      <g>
        <path class="cls-1" d="m340.9786423,45.3731497c0,1.7285156,0,3.1513672.0908203,3.9072266.0537109.5224609.1621094.9179688.7011719.9902344.2529297.0361328.6484375.0722656.8105469.0722656.1083984,0,.1445312.0537109.1445312.1083984,0,.0898438-.0898438.1435547-.2880859.1435547-.9902344,0-2.125-.0537109-2.2148438-.0537109s-1.2246094.0537109-1.7646484.0537109c-.1982422,0-.2880859-.0361328-.2880859-.1435547,0-.0546875.0361328-.1083984.1435547-.1083984.1621094,0,.3789062-.0361328.5410156-.0722656.359375-.0722656.4492188-.4677734.5214844-.9902344.0898438-.7558594.0898438-2.1787109.0898438-3.9072266v-7.6162109c-.8818359.0185547-1.7822266.0185547-2.6640625.0361328-1.1162109.0175781-1.5488281.1445312-1.8369141.5761719-.1982422.3056641-.2519531.4326172-.3056641.5585938-.0546875.1435547-.1083984.1796875-.1796875.1796875-.0546875,0-.0908203-.0537109-.0908203-.1621094,0-.1796875.3603516-1.7285156.3964844-1.8720703.0361328-.1083984.1083984-.3427734.1796875-.3427734.1259766,0,.3056641.1806641.7919922.2158203.5224609.0546875,1.2070312.0908203,1.4228516.0908203h6.7519531c.5761719,0,.9902344-.0361328,1.2783203-.0908203.2705078-.0351562.4316406-.0898438.5039062-.0898438.0898438,0,.0898438.1083984.0898438.2167969,0,.5400391-.0537109,1.7822266-.0537109,1.9804688,0,.1621094-.0537109.2333984-.1259766.2333984-.0898438,0-.1259766-.0537109-.1435547-.3056641,0-.0722656-.0185547-.1259766-.0185547-.1982422-.0537109-.5400391-.4863281-.9541016-2.2148438-.9902344-.7558594-.0175781-1.5117188-.0175781-2.2685547-.0361328v7.6162109Z"/>
        <path class="cls-1" d="m350.2471969,44.7793997c0-2.3945312,1.8544922-5.9775391,6.3017578-5.9775391,3.5654297,0,6.2841797,2.1240234,6.2841797,5.7431641,0,3.4394531-2.5390625,6.2480469-6.3740234,6.2480469-4.4111328,0-6.2119141-3.2773438-6.2119141-6.0136719Zm10.8925781.2158203c0-3.6191406-2.2324219-5.6357422-4.6992188-5.6357422-2.5019531,0-4.5195312,1.5488281-4.5195312,4.9511719,0,3.5292969,1.9628906,5.8701172,4.9882812,5.8701172,1.2060547,0,4.2304688-.6123047,4.2304688-5.1855469Z"/>
        <path class="cls-1" d="m369.5069626,43.4463919c0-2.3759766,0-2.8085938-.0351562-3.2949219-.0361328-.4853516-.1445312-.7558594-.5224609-.828125-.1806641-.0361328-.3056641-.0361328-.4140625-.0537109-.1259766-.0185547-.1982422-.0537109-.1982422-.1259766,0-.0898438.0722656-.1259766.2705078-.1259766.5576172,0,1.5839844.0537109,1.6376953.0537109.0722656,0,1.1171875-.0537109,1.6210938-.0537109.1796875,0,.2695312.0361328.2695312.1259766,0,.0722656-.0537109.1074219-.1972656.1259766-.1083984.0175781-.1982422.0175781-.3242188.0361328-.5224609.0722656-.5761719.3417969-.6123047.8642578-.0361328.4863281-.0185547.9003906-.0185547,3.2763672v2.7011719c0,1.3867188-.0175781,2.6464844.0722656,3.2949219.0722656.5224609.1445312.7207031.6123047.828125.234375.0546875.6123047.0722656.6845703.0722656.1621094.0175781.1972656.0537109.1972656.1259766s-.0712891.1259766-.2519531.1259766c-.9179688,0-1.9619141-.0537109-2.0527344-.0537109-.0537109,0-1.1152344.0537109-1.6201172.0537109-.1621094,0-.2880859-.0361328-.2880859-.1259766,0-.0722656.0722656-.1259766.234375-.1259766.0898438,0,.2880859-.0175781.4316406-.0537109.3066406-.0722656.3603516-.4326172.4140625-.8642578.0898438-.6484375.0898438-1.9267578.0898438-3.2773438v-2.7011719Z"/>
        <path class="cls-1" d="m380.9200485,46.1836966c0,2.0703125.0712891,3.1152344.3779297,3.4033203.2880859.2519531.6484375.359375,1.890625.359375.7919922,0,1.5117188,0,1.9082031-.5039062.1796875-.2695312.3066406-.6298828.3417969-.9003906.0185547-.1435547.0546875-.2158203.1445312-.2158203.0722656,0,.1074219.0537109.1074219.234375,0,.1796875-.1074219,1.2060547-.2148438,1.6201172-.1083984.3603516-.0908203.4501953-.9550781.4501953-1.2246094,0-2.5742188-.0898438-4.375-.0898438-.59375,0-.9541016.0537109-1.5839844.0537109-.1806641,0-.2890625-.0361328-.2890625-.1435547,0-.0546875.0546875-.1083984.1982422-.1083984.1445312,0,.2880859,0,.4326172-.0361328.3056641-.0537109.4140625-.4140625.4677734-.8457031.1083984-.6845703.0722656-1.9267578.0722656-3.3134766v-2.7011719c0-2.3759766,0-2.7724609-.0361328-3.2587891-.0361328-.5039062-.1083984-.828125-.7207031-.9003906-.1074219-.0175781-.3056641-.0175781-.4492188-.0175781-.1269531,0-.1982422-.0537109-.1982422-.1259766,0-.0898438.0898438-.1259766.2695312-.1259766.7568359,0,1.8369141.0537109,1.8730469.0537109.2519531,0,1.3505859-.0537109,1.8544922-.0537109.1796875,0,.234375.0537109.234375.1259766s-.0908203.1259766-.1982422.1259766c-.1259766,0-.3066406.0175781-.4863281.0361328-.5048828.0722656-.6123047.3603516-.6484375.8818359-.0361328.4863281-.0175781.8828125-.0175781,3.2587891v2.7373047Z"/>
        <path class="cls-1" d="m391.7550094,43.4463919c0-2.3583984,0-2.7900391-.0351562-3.2763672-.0371094-.5039062-.1621094-.7568359-.6845703-.8642578-.1083984-.0185547-.2880859-.0361328-.4326172-.0361328-.1259766,0-.234375-.0537109-.234375-.1083984,0-.1074219.0908203-.1435547.2705078-.1435547.3603516,0,.8466797.0361328,1.8544922.0537109.0898438,0,3.2949219,0,3.6552734-.0175781.3603516-.0185547.5576172-.0361328.7021484-.0908203.1083984-.0351562.1259766-.0537109.1982422-.0537109.0361328,0,.0722656.0361328.0722656.1259766,0,.1083984-.1083984.3603516-.1445312.8105469-.0175781.3056641-.0361328.59375-.0537109.9365234,0,.1621094-.0361328.2695312-.1259766.2695312-.0908203,0-.1259766-.0722656-.1259766-.1982422-.0185547-.2695312-.0722656-.4501953-.1259766-.5761719-.1083984-.359375-.2705078-.4853516-1.1708984-.5400391-.234375-.0175781-2.0166016-.0361328-2.0527344-.0361328-.0537109,0-.0898438.0361328-.0898438.1445312v4.0869141c0,.1083984.0175781.1806641.1083984.1806641.2158203,0,2.0527344-.0185547,2.4306641-.0546875.4140625-.0175781.6835938-.0712891.828125-.2695312.0722656-.1083984.1259766-.1445312.1982422-.1445312.0361328,0,.0712891.0185547.0712891.1083984s-.0712891.4316406-.125.9541016c-.0546875.5039062-.0546875.8642578-.0722656,1.0986328-.0185547.1435547-.0546875.1982422-.1259766.1982422-.0908203,0-.1083984-.1083984-.1083984-.234375,0-.1083984-.0175781-.2880859-.0537109-.4326172-.0722656-.2333984-.1806641-.4853516-.8642578-.5400391-.4140625-.0361328-1.8730469-.0722656-2.1611328-.0722656-.1083984,0-.1259766.0546875-.1259766.1269531v1.3134766c0,.5585938-.0175781,2.1435547,0,2.4492188.0361328.6660156.1259766,1.0078125.5039062,1.1699219.2705078.1259766.703125.1621094,1.3144531.1621094.3427734,0,.9189453.0185547,1.3691406-.1074219.5400391-.1621094.6660156-.5224609.8095703-1.1884766.0361328-.1806641.0908203-.2519531.1621094-.2519531.1083984,0,.1083984.1621094.1083984.2695312,0,.1259766-.1445312,1.2607422-.1982422,1.5664062-.0722656.3603516-.1982422.3964844-.7919922.3964844-1.1884766,0-1.6923828-.0361328-2.3222656-.0361328-.6308594-.0175781-1.4589844-.0537109-2.125-.0537109-.4140625,0-.7558594.0537109-1.1884766.0537109-.1621094,0-.2519531-.0361328-.2519531-.1259766,0-.0722656.0712891-.1259766.1621094-.1259766.1074219,0,.2333984-.0175781.3603516-.0537109.3232422-.0722656.5390625-.3066406.5761719-1.4228516.0175781-.6123047.0351562-1.3505859.0351562-2.71875v-2.7011719Z"/>
        <path class="cls-1" d="m407.9014938,46.1475638c0,1.3867188.0185547,2.6650391.0908203,3.3310547.0537109.4316406.0898438.6845703.5400391.7919922.2158203.0546875.5585938.0722656.7021484.0722656s.2158203.0537109.2158203.1083984c0,.0898438-.0537109.1435547-.234375.1435547-.9179688,0-1.9804688-.0537109-2.0517578-.0537109-.0722656,0-1.1347656.0537109-1.6025391.0537109-.1982422,0-.2705078-.0361328-.2705078-.1259766,0-.0537109.0537109-.1259766.1982422-.1259766s.2519531,0,.3964844-.0175781c.3417969-.0546875.3955078-.2705078.4677734-.8828125.0722656-.6484375.0722656-1.9443359.0722656-3.2949219v-6.4277344c-.5947266,0-1.5488281,0-2.2685547.0175781-1.1523438.0185547-1.4042969.1982422-1.65625.5761719-.1621094.2519531-.234375.46875-.2705078.5585938-.0537109.1259766-.0908203.1435547-.1621094.1435547-.0722656,0-.0898438-.0712891-.0898438-.1621094-.0185547-.1074219.2519531-1.2958984.3603516-1.7822266.0537109-.2158203.1074219-.2880859.1621094-.2880859.125,0,.4677734.1621094.7910156.1982422.6308594.0722656,1.1347656.0898438,1.1523438.0898438h5.90625c.5039062,0,1.0449219-.0361328,1.296875-.0898438.2333984-.0537109.2871094-.0722656.3417969-.0722656.0722656,0,.1074219.0898438.1074219.1621094,0,.5039062-.0351562,1.6923828-.0351562,1.8369141,0,.1621094-.0722656.2158203-.1269531.2158203-.0898438,0-.125-.0722656-.125-.2158203,0-.0546875,0-.0722656-.0185547-.2519531-.0712891-.7207031-.3056641-.9003906-2.1240234-.9189453-.6845703,0-1.2431641-.0175781-1.765625-.0175781v6.4277344Z"/>
      </g>
      <g>
        <circle class="cls-5" cx="99.6107983" cy="70.4104271" r="70.4104271"/>
        <g>
          <path class="cls-1" d="m60.1798141,53.4918021c.4335938.6186523.9599609,1.1450195,1.609375,1.578125,2.0732422-.8046875,3.8066406-1.918457,5.2919922-3.3422852,1.2685547.6191406,1.9179688,1.1142578,1.9179688,1.3925781,0,.1855469-.2783203.2783203-.8349609.2783203h-.4648438c-1.6396484.9287109-3.3417969,1.6713867-5.1367188,2.1972656,1.8261719.9287109,4.8896484,1.3925781,9.1289062,1.3925781,2.3212891,0,5.0439453-.0927734,8.1386719-.340332-.3710938.5571289-.6191406,1.1757812-.8359375,1.7949219h-6.1572266c-4.5800781,0-7.7363281-.340332-9.4072266-1.0834961-1.8261719-.8041992-3.0947266-1.8564453-3.7753906-3.1870117-.8974609,1.3618164-1.8876953,2.6303711-2.9404297,3.8374023,0,.6806641-.0927734,1.0517578-.3398438,1.0517578-.3408203,0-.8974609-.6806641-1.7333984-2.0732422,1.4238281-.8046875,2.7236328-1.7329102,3.9609375-2.8466797v-7.4580078h-3.7128906l-.2783203-.7119141h3.8056641l1.0214844-1.2685547c1.1142578.8974609,1.7021484,1.4545898,1.7021484,1.7021484,0,.1240234-.0927734.2475586-.3095703.3095703l-.6503906.4331055v6.34375Zm-4.0839844-18.2885742c2.9082031,1.3305664,4.3632812,2.7231445,4.3632812,4.2084961,0,.7119141-.3408203,1.0830078-1.0214844,1.0830078-.4335938,0-.7734375-.340332-1.0214844-1.0209961-.4638672-1.3613281-1.3925781-2.5996094-2.7851562-3.7441406l.4648438-.5263672Zm16.1835938,11.2329102v-2.5683594c1.7949219.0620117,2.6611328.2788086,2.6611328.6186523,0,.1860352-.3398438.4023438-1.0517578.6503906v1.2993164h2.1347656l1.1455078-1.6088867c.0927734.0615234.1240234.1235352.1855469.2167969.5566406.4951172,1.0214844.9902344,1.4541016,1.5161133l-.3095703.5571289h-4.6103516v3.15625h3.0322266l1.2695312-1.6401367.2470703.2475586.2167969.1547852c.4638672.4018555.8349609.8662109,1.1757812,1.3305664l-.2783203.5878906h-18.0410156l-.3095703-.6806641h5.0126953v-3.15625h-3.9296875l-.2783203-.6811523h4.2080078v-2.5991211c1.7333984.0307617,2.6308594.2475586,2.6308594.6494141,0,.2167969-.3710938.4335938-1.0527344.6503906v1.2993164h4.4873047Zm-8.1074219-7.2719727v2.1044922c0,.3095703.0615234.5258789.2167969.6494141.1542969.1240234.8349609.1552734,1.9804688.1552734,1.2998047,0,2.0117188-.1240234,2.2275391-.371582.1552734-.2475586.3095703-.7426758.4023438-1.4545898l.6191406.1855469c0,.1240234-.03125.2167969-.03125.371582,0,.6499023.2792969.9902344.8359375.9594727v.0307617c0,.6499023-.2167969,1.0830078-.6503906,1.269043-.4638672.1855469-1.484375.309082-3.09375.309082-1.9189453,0-3.0634766-.1235352-3.4355469-.309082-.3398438-.1860352-.4951172-.6811523-.4951172-1.4238281v-3.8989258c.2792969.0927734.8359375.340332,1.7021484.7114258h3.2802734v-2.1967773h-5.4775391l-.2783203-.6811523h5.5087891l.9277344-1.1445312c1.0214844.7734375,1.4853516,1.237793,1.4853516,1.4233398,0,.1547852-.0615234.2788086-.2167969.340332l-.4951172.340332v3.2495117h-1.4541016v-.6191406h-3.5585938Zm8.1074219,11.109375v-3.15625h-4.4873047v3.15625h4.4873047Zm.5263672-11.109375v1.949707c0,.340332.03125.5878906.1542969.6806641.1552734.1855469.8671875.2163086,2.0732422.2163086,1.3623047,0,2.1357422-.1542969,2.3212891-.4638672.2167969-.340332.3710938-.8046875.4638672-1.4233398l.6191406.2163086c0,.5571289.0615234.9594727.1542969,1.1757812.1240234.1860352.3408203.2788086.7119141.3095703,0,.6806641-.3095703,1.0830078-.8349609,1.269043-.4648438.1855469-1.5478516.2783203-3.2802734.2783203-1.8564453,0-3.0019531-.1547852-3.4042969-.4023438-.2783203-.1855469-.4326172-.5878906-.4326172-1.1757812v-4.0229492c.5253906.2167969,1.0830078.4335938,1.6396484.6806641h3.3417969v-2.1967773h-5.3222656l-.3095703-.6811523h5.3847656l.9589844-1.1445312c1.0214844.7734375,1.4853516,1.2685547,1.4853516,1.4541016,0,.1240234-.0927734.2167969-.2470703.3408203l-.5263672.3710938v3.2490234h-1.4238281v-.6806641h-3.5273438Zm-.9589844,12.7802734c4.3007812.7426758,6.4052734,1.7329102,6.4052734,2.8779297,0,.6191406-.2783203.9282227-.8359375.9282227-.2783203,0-.5878906-.1235352-.8974609-.4331055-1.1132812-1.1142578-2.7851562-2.0424805-5.0439453-2.7851562l.3720703-.5878906Z"/>
          <path class="cls-1" d="m109.3868454,51.3252982c.0615234.4951172-.3095703,1.1142578-1.2685547,1.2382812-1.2998047.1235352-2.5683594-.4951172-3.8369141-1.4545898-1.3310547-1.0209961-3.0019531-2.8779297-4.2705078-4.394043-1.2695312-1.5473633-2.4453125-3.0327148-2.9404297-3.6206055-.6181641-.7119141-1.1445312-1.269043-1.6708984-1.269043-.5566406,0-.9902344.4335938-1.3925781.9902344-.4326172.5571289-1.4853516,2.1972656-1.9492188,2.9091797-.4023438.6806641-1.3925781,1.9804688-2.2285156,2.2275391-.8662109.2480469-1.6396484,0-2.2275391-.2783203-.6191406-.2783203-.9589844-.8046875-.8046875-1.1757812.1240234-.2783203.5576172-.2475586.9287109-.2167969.3398438.03125.7734375-.0307617,1.2373047-.1855469.4648438-.1855469.9599609-.6191406,1.609375-1.1757812.6191406-.5263672,1.2998047-1.237793,1.8261719-1.7949031.5566406-.5879094.7734375-.8662297,1.3613281-1.5468937.5878906-.6811523.9589844-.9902344,1.546875-1.0214844.5878906-.0620117,1.1455078.5571289,1.7021484,1.1142578.5263672.5258789,1.609375,1.4853516,2.5371094,2.5063477.9287109,1.0209961,2.1972656,2.1660156,3.5283203,3.4038086.8046875.7734375,2.1347656,1.8564453,3.15625,2.4140625.9902344.5258789,1.7636719.6806641,2.2275391.7114258.4023438.0307617.8974609.1547852.9287109.6186523Zm-4.796875-7.9526367c-.4638672-.4331055-1.0517578-.8666992-1.8251953-1.3925781-.2480469-.1855469-.4023438-.4018555-.2480469-.6186523.1240234-.1547852.3720703-.1240234.5263672-.1240234.4638672.03125,1.0214844.1547852,1.6708984.4023438.6503906.2167969,1.578125.7119141,1.8564453,1.2070312.3095703.5258789.03125,1.0209961-.4326172,1.1445312-.4335938.1240234-1.1142578-.1542969-1.5478516-.6186523Zm2.4453125-1.237793c-.4648438-.5566406-1.0214844-.8974609-1.9189453-1.2685547-.2470703-.1240234-.4023438-.4023438-.2783203-.5878906.0927734-.1855469.3408203-.1547852.5263672-.1547852.4638672-.0307617,1.0517578.0927734,1.7011719.2783203.6191406.1860352,1.5478516.6499023,1.8876953,1.1762695.3095703.4951172.0625.9902344-.3710938,1.1445312-.4326172.1547852-1.1445312-.1235352-1.546875-.5878906Z"/>
          <path class="cls-1" d="m136.6846969,54.1417044c-1.1455078,1.2998047-2.5371094,2.0419922-4.1162109,2.4443359-1.578125.4335938-3.09375.371582-4.9511719.03125-1.8876953-.4023438-2.6298828-1.0522461-2.6298828-1.9804688-.03125-.9287109,1.1757812-1.6708984,2.1972656-1.8569336,1.0517578-.2163086,2.2900391-.1547667,3.2177734.5878906.8046875.6499023.7744141,1.3925781.4023438,2.1352539,1.4853516-.1855469,2.8779297-.6191406,3.8681641-1.4233398,1.2070312-.9902344,1.7636719-2.3828125,1.7636719-3.8061523.03125-1.4238281-1.0205078-3.15625-2.7539062-3.9301758-1.7324219-.7426758-3.5898438-.8041992-5.5078125-.1855469-1.9492188.6186523-3.1875,1.578125-4.1162109,2.815918-.9277344,1.2070312-1.6083984,2.6611328-1.8564453,3.4658203-.2470703.8046875-.5263672,1.237793-.9277344,1.4541016-.1865234.0932617-.5263672.2480469-1.0214844-.1542969-.3408203-.2783203-.3710938-.9287109-.3408203-1.3618164.03125-.4018555.8046875-1.3920898,1.3623047-2.1040039.5878906-.7426758,1.3916016-1.8876953,2.4443359-3.0327148,1.0517578-1.1450195,2.7226562-3.1870117,3.4033203-3.9609375.6503906-.8046875,2.7851562-3.3730469,3.1259766-3.8374023.3398438-.4331055.4951172-.7734375.3398438-.8974609-.1542969-.1542969-.6806641.0625-.9902344.2480469-.3398438.2163086-1.8564453,1.1137695-2.7226562,1.6088867-.8974609.4643555-1.546875.6811523-2.3212891.6811523-.7734375,0-1.2988281-.4023438-1.6083984-.6811523-.3095703-.309082-.4335938-.7734375-.3408203-.9902344.1240234-.309082.4335938-.340332.6806641-.2475586.2783203.0620117.6503906.1855469,1.0527344.1855469.4013672.03125.7734375-.0307617,1.7324219-.4331055.9287109-.371582,2.1660156-.9594727,3.21875-1.5161133,1.0517578-.5571289,1.7011719-.9594727,2.2890625-.9902344.6191406-.03125,1.2382812.340332,1.640625.8046875.4023438.4331055.4326172.7114258.3710938.9902344-.0615234.2783203-.2167969.4331055-.6494141.7114258-.4335938.2475586-1.3623047,1.0522461-2.1972656,1.8876953-.8359375.8666992-1.8564453,2.1352539-2.5996094,2.9399414,0,0-.7421875.8046875-2.1972656,2.3208008.4335938-.3095703.8671875-.5571289,1.7021484-.8666992,1.2070312-.4331055,2.4755859-.6806641,4.0537109-.5258789,1.609375.1547852,2.9091797.6499023,4.0849609,1.4853516s2.1044922,2.0732422,2.2587891,3.8681641c.1552734,1.7016602-.3095703,2.9399414-1.3613281,4.1157227Zm-8.9121094-.4951172c-.9902344.0307617-1.609375.6186523-1.1757812,1.2373047.2470703.3408203,1.0205078.6503906,2.3203125.6811523,1.2070312-1.0830078.1240234-1.918457-1.1445312-1.918457Z"/>
        </g>
        <g>
          <g>
            <path class="cls-1" d="m82.0118454,88.1905326c.4257812-.5805664.7744141-1.1416016,1.1220703-1.7216797-.0380859-.0585938-.0966797-.1162109-.1542969-.1743164-.4648438-.503418-1.0058594-.9287109-1.6640625-1.4125977-.2128906-.1352539-.5224609-.3481445-.4257812-.5029297.1162109-.1743164.3095703-.0966797.8125.1162109.5224609.2128906.9873047.5029297,1.9355469,1.0830078.1347656-.2124023.2509766-.4448242.3671875-.6962891.6777344-1.2578125.9677734-2.0703125,1.0839844-2.6118164.1152344-.5610352.0380859-1.0063477-.1748047-1.2768555-.1933594-.2519531-.4257812-.5419922-.2900391-.7353516.1738281-.2519531.5029297-.1547852.9287109.0195312.5029297.1738281.8710938.5029297,1.1220703.8896484.2519531.40625.1552734.7353516.0195312.8706055-.1542969.1352539-.3095703.2514648-.3671875.503418-.078125.2319336-.1943359.6577148-.4453125,1.1796875-.3095703.6777344-.7744141,1.5288086-1.3740234,2.4575195.5615234.40625,1.0449219.8320312,1.3544922,1.1416016.6191406.6772461.8125,1.5283203.2324219,1.8378906-.5615234.3095703-1.1611328-.1352539-1.625-.8706055-.2324219-.3481445-.4648438-.6962891-.6777344-1.0058594-.7548828,1.0830078-1.1796875,1.7021484-2.1474609,2.7666016s-1.6835938,1.7026367-2.9599609,2.5927734c-.484375.3291016-.7548828.3867188-.8125.2705078-.078125-.1157227.1152344-.2900391.3476562-.5029297.5029297-.4257812.9873047-.8320312,1.7216797-1.6054688.7158203-.793457,1.3164062-1.5478516,2.0703125-2.6123047Z"/>
            <path class="cls-1" d="m108.9981735,86.9327201c-.0380859.2324219-.3095703.3095703-.7158203.2324219-.3867188-.0581055-1.4892578-.1933594-2.1865234-.2514648-.6962891-.0581055-2.2246094-.1352539-2.9404297-.097168-.6962891.0586114-2.109375.097168-3.0185547.1938477-.7158203.0776367-1.5478516.2709961-2.2246094.2900391-.6962891,0-1.3544922-.2124023-1.7412109-.5029297-.3876953-.2905273-.5419922-.7353516-.3291016-.8901367.3291016-.2514648.8896484-.0195312,1.3740234.1162109.4443359.1357422,1.3535156.2324219,2.1083984.2128906.7929688-.0390625,2.4375-.1162109,3.2695312-.1357422.8134766-.0385742,3.0771484-.1157227,3.8505859-.1352539.7929688,0,1.5869141.0195312,1.9931641.1938477.40625.1738281.5996094.5029297.5605469.7734375Z"/>
            <path class="cls-1" d="m115.2823532,93.5113333c.3291016-.2128906.7734375-.5610352,1.1025391-.8510742,1.0058594-.8710938,1.7998047-1.6835938,2.4384766-2.6123047.6191406-.9482422,1.1025391-1.8574219,1.4892578-2.9023438.2705078-.6767578.4833984-1.4121094.6777344-2.0893555-.5419922.0581055-1.0068359.1157227-1.3164062.1547852-.4257812.0385742-.9667969.1547852-1.3730469.1352539-.4453125-.019043-1.0839844-.1352539-1.5097656-.4838867-.3867188-.3481445-.5224609-.6962891-.40625-.8701172.1552734-.2714844.6962891-.097168,1.0449219.019043.3486328.0966797.9287109.2128906,1.7802734.2319336.7353516.0195312,1.3349609-.0385742,1.9736328-.0771484,0,0,.0185547-.0195312.0185547-.0385742.1552734-.8320312.2714844-1.7607422.2910156-2.2055664.0380859-.4257812-.1552734-.8901367-.3291016-1.1416016-.1933594-.2709961-.2900391-.5224609-.2128906-.6772461.1162109-.1743164.3671875-.1547852.7929688-.0195312.40625.1352539.6582031.2905273.890625.5610352.2128906.2324219.2705078.5419922.1738281.7548828-.0576172.1352539-.1357422.3671875-.1738281.6767578-.1357422.6777344-.2128906,1.315918-.3486328,1.9736328.4833984-.0385742.9677734-.1162109,1.4707031-.1933594.7539062-.0966797,1.1416016-.1933594,1.4892578-.2900391.3486328-.0966797.6386719-.2905273.8125-.4257812.1748047-.1547852.4453125-.1743164.7744141.0771484.3291016.2519531.6191406.5805664.7158203.8125.0966797.2324219,0,.4648438-.1162109.5615234-.0966797.0771484-.1933594.3291016-.2324219.5029297-.0380859.3095703-.0966797.7929688-.1933594,1.5864258-.1162109.8129883-.2705078,1.605957-.5224609,2.7280273-.2705078,1.0839844-.5029297,1.722168-.8125,2.1865234-.2900391.4453125-.5605469.5610352-.8701172.4833984-.2324219-.0576172-.3486328-.2124023-.4648438-.5605469-.1162109-.3486328-.2900391-.6191406-.5605469-.8901367-.2519531-.2905273-.5810547-.5034004-.9101562-.6967773-.1738281-.0966797-.2705078-.2319336-.2314453-.3291016.0380859-.0966797.1933594-.1157227.40625-.0380859.3291016.0966797.6962891.2319336,1.21875.3867188.5029297.1547852.8320312.0966797,1.0058594-.2709961.1933594-.3676758.3095703-.793457.4833984-1.6831055.1748047-.9091797.2519531-1.6445312.3486328-2.7861328.0195312-.3676758.0390625-.5805664-.0390625-.6386719-.0576172-.0581055-.2314453-.1162109-.3671875-.1547852s-.2705078,0-.40625,0c-.1162109.0195312-.3095703.0776367-.9091797.1743164-.5615234.0966797-1.2001953.1547852-2.3222656.3095703-.0576172.1547852-.1162109.3095703-.1738281.5029297-.4257812,1.1220703-.7929688,1.9736328-1.2773438,2.8632812-.4833984.909668-.9091797,1.6254883-1.6054688,2.4960938-.6777344.8515625-1.4316406,1.5869141-2.2441406,2.1865234-.40625.3095703-.9101562.5996094-1.296875.7929688-.2705078.1357422-.4257812-.0771484-.1738281-.2319336Z"/>
            <path class="cls-1" d="m147.6856735,86.9327201c-.0380859.2324219-.3095703.3095703-.7158203.2324219-.3867188-.0581055-1.4892578-.1933594-2.1865234-.2514648-.6962891-.0581055-2.2246094-.1352539-2.9404297-.097168-.6962891.0586114-2.109375.097168-3.0185547.1938477-.7158203.0776367-1.5478516.2709961-2.2246094.2900391-.6962891,0-1.3544922-.2124023-1.7412109-.5029297-.3876953-.2905273-.5419922-.7353516-.3291016-.8901367.3291016-.2514648.8896484-.0195312,1.3740234.1162109.4443359.1357422,1.3535156.2324219,2.1083984.2128906.7929688-.0390625,2.4375-.1162109,3.2695312-.1357422.8134766-.0385742,3.0771484-.1157227,3.8505859-.1352539.7929688,0,1.5869141.0195312,1.9931641.1938477.40625.1738281.5996094.5029297.5605469.7734375Z"/>
          </g>
          <path class="cls-2" d="m50.6573532,105.6768607v-2.0800781c2.0224609-3.4672852,5.2587891-8.1474609,9.5927734-14.0419922,3.9287109-5.4316406,5.8359375-9.5922852,5.8359375-12.4814453,0-1.6757812-.4042969-3.2358398-1.1552734-4.4492188-1.0986328-1.6757812-2.6005859-2.4848633-4.6230469-2.4848633-1.5605469,0-2.8310547.4624023-3.8720703,1.4448242-1.0976562.9819336-1.7333984,2.3110352-1.90625,3.9287109,1.2128906.347168,1.7910156,1.0981445,1.7910156,2.3696289,0,1.6757812-.8085938,2.4848633-2.4267578,2.4848633-1.7910156,0-2.6582031-1.0981445-2.6582031-3.1787109,0-2.1953125.8085938-4.2177734,2.484375-5.8935547,1.7919922-1.8496094,4.0449219-2.7158203,6.7617188-2.7158203,2.3691406,0,4.3916016.5776367,6.0087891,1.7910156,2.1386719,1.6181641,3.1787109,3.871582,3.1787109,6.7607422,0,2.5429688-.9248047,5.1430664-2.8320312,7.9169922-.8662109,1.2709961-2.2529297,3.0625-4.2753906,5.3740234-3.5253906,4.1025391-6.703125,8.1474609-9.4765625,12.3657227h11.4414062c1.90625,0,3.1201172-.809082,3.7558594-2.4272461.3466797-.9824219.6357422-2.4267578.8085938-4.2758789h1.2138672v9.5922852h-19.6474609Z"/>
        </g>
      </g>
    </g>
  </g>
</svg>