<?xml version="1.0" encoding="utf-8"?>
<!-- Generator: Adobe Illustrator 27.5.0, SVG Export Plug-In . SVG Version: 6.00 Build 0)  -->
<svg version="1.1" id="_レイヤー_2" xmlns="http://www.w3.org/2000/svg" xmlns:xlink="http://www.w3.org/1999/xlink" x="0px"
	 y="0px" viewBox="0 0 750 141" style="enable-background:new 0 0 750 141;" xml:space="preserve">
<style type="text/css">
	.st0{clip-path:url(#SVGID_00000046323012661270320080000004499883022949129119_);}
	.st1{fill:#FFFFFF;}
	.st2{fill:#AE8F36;}
	.st3{fill:#E8C416;}
</style>
<g id="_レイヤー_1-2">
	<g>
		<defs>
			<rect id="SVGID_1_" width="750" height="195.7"/>
		</defs>
		<clipPath id="SVGID_00000133491646362942481890000017655417020589913984_">
			<use xlink:href="#SVGID_1_"  style="overflow:visible;"/>
		</clipPath>
		<g style="clip-path:url(#SVGID_00000133491646362942481890000017655417020589913984_);">
			<g>
				<path class="st1" d="M200.1,42.5c0-2.8,0-3.3,0-3.9c0-0.6-0.2-0.9-0.6-1c-0.2-0.1-0.4-0.1-0.6-0.1c-0.1,0-0.1,0-0.1-0.1
					c0-0.1,0.1-0.1,0.3-0.1c0.6,0,1.7,0.1,1.8,0.1s1.2-0.1,1.8-0.1c0.2,0,0.3,0,0.3,0.1c0,0.1-0.1,0.1-0.1,0.1c-0.1,0-0.2,0-0.5,0.1
					c-0.5,0.1-0.6,0.4-0.7,1c0,0.6,0,1.1,0,3.9v3.2c0,1.7,0,3.2,0.1,3.9c0.1,0.5,0.2,0.9,0.7,1c0.3,0,0.6,0.1,0.7,0.1
					c0.2,0,0.2,0.1,0.2,0.1c0,0.1-0.1,0.1-0.3,0.1c-1,0-2.1-0.1-2.2-0.1s-1.2,0.1-1.8,0.1c-0.2,0-0.3,0-0.3-0.1c0-0.1,0-0.1,0.2-0.1
					c0.1,0,0.3,0,0.5-0.1c0.4-0.1,0.5-0.5,0.5-1c0.1-0.8,0.1-2.2,0.1-3.9V42.5z"/>
				<path class="st1" d="M210,39.8c0-0.6,0.1-0.7,0.2-0.7c0.1,0,0.4,0.4,0.6,0.5c0.2,0.2,2.7,2.7,5.2,5.3c1.4,1.4,3.2,3.2,3.7,3.7
					l-0.2-7.5c0-1-0.1-1.3-0.6-1.4c-0.3-0.1-0.6-0.1-0.7-0.1c-0.2,0-0.2-0.1-0.2-0.1c0-0.1,0.1-0.1,0.3-0.1c0.8,0,1.5,0.1,1.7,0.1
					c0.2,0,0.7-0.1,1.4-0.1c0.2,0,0.3,0,0.3,0.1c0,0.1-0.1,0.1-0.2,0.1c-0.1,0-0.3,0-0.5,0.1c-0.4,0.1-0.5,0.3-0.5,1.4l0,9
					c0,0.9,0,1-0.2,1s-0.3-0.1-1.2-1c-0.1,0-2.6-2.5-4.1-4.1c-1.9-1.9-3.7-3.8-4.1-4.3l0.2,7c0,1.2,0.1,1.7,0.6,1.8
					c0.3,0.1,0.6,0.1,0.7,0.1c0.1,0,0.2,0.1,0.2,0.1c0,0.1-0.1,0.1-0.3,0.1c-1,0-1.6-0.1-1.7-0.1s-0.8,0.1-1.6,0.1
					c-0.2,0-0.3,0-0.3-0.1c0-0.1,0.1-0.1,0.3-0.1c0.1,0,0.3,0,0.6-0.1c0.4-0.1,0.5-0.6,0.5-1.9C210,40,210,42.8,210,39.8z"/>
				<path class="st1" d="M227.6,50.7c-0.2-0.1-0.2-0.2-0.2-0.6c0-0.8,0.1-1.4,0.1-1.7c0-0.2,0.1-0.3,0.1-0.3c0.1,0,0.1,0.1,0.1,0.2
					c0,0.1,0,0.3,0.1,0.5c0.2,1.2,1.3,1.6,2.3,1.6c1.5,0,2.2-1,2.2-1.9c0-1-0.5-1.7-1.8-2.7l-0.7-0.6c-1.7-1.4-2.1-2.3-2.1-3.4
					c0-1.7,1.3-2.8,3.3-2.8c0.6,0,1.1,0.1,1.5,0.1c0.3,0.1,0.5,0.1,0.6,0.1s0.2,0,0.2,0.1s-0.1,0.7-0.1,1.7c0,0.3,0,0.4-0.1,0.4
					c-0.1,0-0.1-0.1-0.1-0.2c0-0.2-0.1-0.5-0.2-0.8c-0.1-0.2-0.5-0.8-2-0.8c-1.1,0-1.9,0.6-1.9,1.7c0,0.8,0.4,1.4,1.9,2.5l0.4,0.3
					c1.9,1.4,2.4,2.4,2.4,3.7c0,0.6-0.3,1.8-1.4,2.6c-0.7,0.5-1.6,0.6-2.4,0.6C229,51.1,228.3,51,227.6,50.7z"/>
				<path class="st1" d="M241.2,45.8c0,2.2,0.4,3.1,1.1,3.7c0.8,0.7,1.6,0.8,2.4,0.8c0.9,0,1.8-0.3,2.5-1c0.7-0.8,0.9-2.2,0.9-3.8
					v-1.9c0-2.4,0-2.8,0-3.3c0-0.5-0.1-0.8-0.7-0.9c-0.1,0-0.3,0-0.5,0c-0.1,0-0.2-0.1-0.2-0.1c0-0.1,0.1-0.1,0.3-0.1
					c0.8,0,1.7,0.1,1.7,0.1c0.1,0,0.9-0.1,1.4-0.1c0.2,0,0.3,0,0.3,0.1c0,0.1-0.1,0.1-0.2,0.1c-0.1,0-0.1,0-0.3,0
					c-0.5,0.1-0.6,0.4-0.6,0.9c0,0.5,0,0.9,0,3.3v1.6c0,1.6-0.2,3.6-1.5,4.7c-1.2,1-2.3,1.1-3.3,1.1c-0.5,0-2.2,0-3.4-1.1
					c-0.8-0.7-1.3-1.8-1.3-4v-2.2c0-2.4,0-2.8-0.1-3.3c0-0.5-0.1-0.8-0.7-0.9c-0.1,0-0.3,0-0.5,0c-0.1,0-0.2-0.1-0.2-0.1
					c0-0.1,0.1-0.1,0.3-0.1c0.8,0,1.7,0.1,1.9,0.1c0.1,0,1.2-0.1,1.7-0.1c0.2,0,0.3,0,0.3,0.1c0,0.1-0.1,0.1-0.2,0.1
					c-0.1,0-0.3,0-0.4,0c-0.4,0.1-0.5,0.4-0.5,0.9c0,0.5,0,0.9,0,3.3V45.8z"/>
				<path class="st1" d="M258,46.4c0,2.1,0.1,3.1,0.4,3.4c0.3,0.3,0.6,0.4,1.9,0.4c0.8,0,1.5,0,1.9-0.5c0.2-0.3,0.3-0.6,0.3-0.9
					c0-0.1,0.1-0.2,0.1-0.2c0.1,0,0.1,0.1,0.1,0.2c0,0.2-0.1,1.2-0.2,1.6c-0.1,0.4-0.1,0.5-1,0.5c-1.2,0-2.6-0.1-4.4-0.1
					c-0.6,0-1,0.1-1.6,0.1c-0.2,0-0.3,0-0.3-0.1c0-0.1,0.1-0.1,0.2-0.1c0.1,0,0.3,0,0.4,0c0.3-0.1,0.4-0.4,0.5-0.8
					c0.1-0.7,0.1-1.9,0.1-3.3v-2.7c0-2.4,0-2.8,0-3.3c0-0.5-0.1-0.8-0.7-0.9c-0.1,0-0.3,0-0.4,0c-0.1,0-0.2-0.1-0.2-0.1
					c0-0.1,0.1-0.1,0.3-0.1c0.8,0,1.8,0.1,1.9,0.1c0.3,0,1.4-0.1,1.9-0.1c0.2,0,0.2,0.1,0.2,0.1s-0.1,0.1-0.2,0.1
					c-0.1,0-0.3,0-0.5,0c-0.5,0.1-0.6,0.4-0.6,0.9c0,0.5,0,0.9,0,3.3V46.4z"/>
				<path class="st1" d="M269.7,46.5c-0.1,0-0.1,0.1-0.2,0.1l-0.8,2.3c-0.2,0.5-0.3,1-0.3,1.3c0,0.3,0.2,0.5,0.6,0.5h0.1
					c0.2,0,0.2,0.1,0.2,0.1c0,0.1-0.1,0.1-0.3,0.1c-0.4,0-1.2-0.1-1.4-0.1c-0.2,0-1,0.1-1.7,0.1c-0.2,0-0.3,0-0.3-0.1
					c0-0.1,0.1-0.1,0.2-0.1c0.1,0,0.3,0,0.4,0c0.8-0.1,1.1-0.7,1.4-1.4l3.6-9.5c0.2-0.5,0.3-0.6,0.4-0.6c0.1,0,0.2,0.1,0.4,0.6
					c0.3,0.6,2.7,6.9,3.7,9.1c0.6,1.4,1.1,1.7,1.4,1.7c0.2,0.1,0.5,0.1,0.6,0.1s0.2,0,0.2,0.1s-0.1,0.1-0.3,0.1c-0.2,0-1.5,0-2.7,0
					c-0.3,0-0.5,0-0.5-0.1c0-0.1,0.1-0.1,0.1-0.1c0.1,0,0.2-0.1,0.1-0.4l-1.4-3.6c0-0.1-0.1-0.1-0.1-0.1H269.7z M272.7,45.8
					c0.1,0,0.1-0.1,0.1-0.1l-1.4-4c-0.1-0.3-0.1-0.3-0.2,0l-1.3,4c0,0.1,0,0.1,0,0.1H272.7z"/>
				<path class="st1" d="M286.3,46.4c0,1.4,0,2.7,0.1,3.3c0.1,0.4,0.1,0.7,0.5,0.8c0.2,0.1,0.6,0.1,0.7,0.1c0.1,0,0.2,0.1,0.2,0.1
					c0,0.1-0.1,0.1-0.2,0.1c-0.9,0-2-0.1-2.1-0.1s-1.1,0.1-1.6,0.1c-0.2,0-0.3,0-0.3-0.1c0-0.1,0.1-0.1,0.2-0.1c0.1,0,0.3,0,0.4,0
					c0.3-0.1,0.4-0.3,0.5-0.9c0.1-0.6,0.1-1.9,0.1-3.3V40c-0.6,0-1.5,0-2.3,0c-1.2,0-1.4,0.2-1.7,0.6c-0.2,0.3-0.2,0.5-0.3,0.6
					c-0.1,0.1-0.1,0.1-0.2,0.1c-0.1,0-0.1-0.1-0.1-0.2c0-0.1,0.3-1.3,0.4-1.8c0.1-0.2,0.1-0.3,0.2-0.3c0.1,0,0.5,0.2,0.8,0.2
					c0.6,0.1,1.1,0.1,1.2,0.1h5.9c0.5,0,1,0,1.3-0.1c0.2-0.1,0.3-0.1,0.3-0.1c0.1,0,0.1,0.1,0.1,0.2c0,0.5,0,1.7,0,1.8
					c0,0.2-0.1,0.2-0.1,0.2c-0.1,0-0.1-0.1-0.1-0.2c0-0.1,0-0.1,0-0.3c-0.1-0.7-0.3-0.9-2.1-0.9c-0.7,0-1.2,0-1.8,0V46.4z"/>
				<path class="st1" d="M296.7,43.7c0-2.4,0-2.8,0-3.3c0-0.5-0.1-0.8-0.5-0.8c-0.2,0-0.3,0-0.4-0.1c-0.1,0-0.2-0.1-0.2-0.1
					c0-0.1,0.1-0.1,0.3-0.1c0.6,0,1.6,0.1,1.6,0.1c0.1,0,1.1-0.1,1.6-0.1c0.2,0,0.3,0,0.3,0.1c0,0.1-0.1,0.1-0.2,0.1
					c-0.1,0-0.2,0-0.3,0c-0.5,0.1-0.6,0.3-0.6,0.9c0,0.5,0,0.9,0,3.3v2.7c0,1.4,0,2.6,0.1,3.3c0.1,0.5,0.1,0.7,0.6,0.8
					c0.2,0.1,0.6,0.1,0.7,0.1c0.2,0,0.2,0.1,0.2,0.1s-0.1,0.1-0.3,0.1c-0.9,0-2-0.1-2.1-0.1c-0.1,0-1.1,0.1-1.6,0.1
					c-0.2,0-0.3,0-0.3-0.1c0-0.1,0.1-0.1,0.2-0.1c0.1,0,0.3,0,0.4-0.1c0.3-0.1,0.4-0.4,0.4-0.9c0.1-0.6,0.1-1.9,0.1-3.3V43.7z"/>
				<path class="st1" d="M304.9,45c0-2.4,1.9-6,6.3-6c3.6,0,6.3,2.1,6.3,5.7c0,3.4-2.5,6.2-6.4,6.2C306.7,51.1,304.9,47.8,304.9,45z
					 M315.7,45.3c0-3.6-2.2-5.6-4.7-5.6c-2.5,0-4.5,1.5-4.5,5c0,3.5,2,5.9,5,5.9C312.7,50.4,315.7,49.8,315.7,45.3z"/>
				<path class="st1" d="M323.6,39.8c0-0.6,0.1-0.7,0.2-0.7c0.1,0,0.4,0.4,0.6,0.5c0.2,0.2,2.7,2.7,5.2,5.3c1.4,1.4,3.2,3.2,3.7,3.7
					L333,41c0-1-0.1-1.3-0.6-1.4c-0.3-0.1-0.6-0.1-0.7-0.1c-0.2,0-0.2-0.1-0.2-0.1c0-0.1,0.1-0.1,0.3-0.1c0.8,0,1.5,0.1,1.7,0.1
					c0.2,0,0.7-0.1,1.4-0.1c0.2,0,0.3,0,0.3,0.1c0,0.1-0.1,0.1-0.2,0.1c-0.1,0-0.3,0-0.5,0.1c-0.4,0.1-0.5,0.3-0.5,1.4l0,9
					c0,0.9,0,1-0.2,1s-0.3-0.1-1.2-1c-0.1,0-2.6-2.5-4.1-4.1c-1.9-1.9-3.7-3.8-4.1-4.3l0.2,7c0,1.2,0.1,1.7,0.6,1.8
					c0.3,0.1,0.6,0.1,0.7,0.1c0.1,0,0.2,0.1,0.2,0.1c0,0.1-0.1,0.1-0.3,0.1c-1,0-1.6-0.1-1.7-0.1s-0.8,0.1-1.6,0.1
					c-0.2,0-0.3,0-0.3-0.1c0-0.1,0.1-0.1,0.3-0.1c0.1,0,0.3,0,0.6-0.1c0.4-0.1,0.5-0.6,0.5-1.9C323.6,40,323.6,42.8,323.6,39.8z"/>
				<path class="st1" d="M351.2,42.5c0-2.8,0-3.3,0-3.9c0-0.6-0.2-0.9-0.8-1c-0.1,0-0.4,0-0.5-0.1c-0.1,0-0.2,0-0.2-0.1
					c0-0.1,0.1-0.1,0.3-0.1c0.4,0,0.9,0,2,0.1c0.1,0,3.7,0,4.1,0c0.4,0,0.7-0.1,0.8-0.1c0.1-0.1,0.1-0.1,0.2-0.1
					c0.1,0,0.1,0.1,0.1,0.2c0,0.1-0.1,0.3-0.1,0.8c0,0.3,0,0.6-0.1,1.1c0,0.2-0.1,0.3-0.1,0.3c-0.1,0-0.1-0.1-0.1-0.2
					c0-0.2,0-0.5-0.1-0.6c-0.1-0.4-0.5-0.6-1.3-0.7c-0.3,0-2.3-0.1-2.5-0.1c-0.1,0-0.1,0.1-0.1,0.2v5c0,0.1,0,0.2,0.1,0.2
					c0.2,0,2.4,0,2.9,0c0.5,0,0.7-0.1,0.9-0.3c0.1-0.1,0.1-0.2,0.2-0.2c0.1,0,0.1,0,0.1,0.1c0,0.1-0.1,0.4-0.1,1
					c-0.1,0.6-0.1,1-0.1,1.2c0,0.2-0.1,0.3-0.1,0.3c-0.1,0-0.1-0.1-0.1-0.3c0-0.2,0-0.3-0.1-0.5c-0.1-0.3-0.3-0.5-0.9-0.6
					c-0.5-0.1-2.3-0.1-2.6-0.1c-0.1,0-0.1,0.1-0.1,0.1v1.6c0,0.6,0,2.7,0,3.1c0,0.7,0.1,1.1,0.6,1.3c0.3,0.1,0.8,0.2,1.5,0.2
					c0.5,0,1.1,0,1.6-0.2c0.6-0.2,0.8-0.6,0.9-1.3c0-0.2,0.1-0.3,0.2-0.3c0.1,0,0.1,0.1,0.1,0.3c0,0.1-0.1,1.4-0.2,1.7
					c-0.1,0.5-0.3,0.5-1,0.5c-1.3,0-1.9,0-2.6-0.1c-0.7,0-1.5-0.1-2.2-0.1c-0.4,0-0.9,0.1-1.3,0.1c-0.2,0-0.3,0-0.3-0.1
					c0-0.1,0.1-0.1,0.2-0.1c0.2,0,0.3,0,0.4-0.1c0.4-0.1,0.6-0.3,0.6-1.7c0-0.7,0-1.6,0-3.2V42.5z"/>
				<path class="st1" d="M364.2,39.8c0-0.6,0.1-0.7,0.2-0.7c0.1,0,0.4,0.4,0.6,0.5c0.2,0.2,2.7,2.7,5.2,5.3c1.4,1.4,3.2,3.2,3.7,3.7
					l-0.2-7.5c0-1-0.1-1.3-0.6-1.4c-0.3-0.1-0.6-0.1-0.7-0.1c-0.2,0-0.2-0.1-0.2-0.1c0-0.1,0.1-0.1,0.3-0.1c0.8,0,1.5,0.1,1.7,0.1
					c0.2,0,0.7-0.1,1.4-0.1c0.2,0,0.3,0,0.3,0.1c0,0.1-0.1,0.1-0.2,0.1c-0.1,0-0.3,0-0.5,0.1c-0.4,0.1-0.5,0.3-0.5,1.4l0,9
					c0,0.9,0,1-0.2,1s-0.3-0.1-1.2-1c-0.1,0-2.6-2.5-4.1-4.1c-1.9-1.9-3.7-3.8-4.1-4.3l0.2,7c0,1.2,0.1,1.7,0.6,1.8
					c0.3,0.1,0.6,0.1,0.7,0.1c0.1,0,0.2,0.1,0.2,0.1c0,0.1-0.1,0.1-0.3,0.1c-1,0-1.6-0.1-1.7-0.1s-0.8,0.1-1.6,0.1
					c-0.2,0-0.3,0-0.3-0.1c0-0.1,0.1-0.1,0.3-0.1c0.1,0,0.3,0,0.6-0.1c0.4-0.1,0.5-0.6,0.5-1.9C364.2,40,364.2,42.8,364.2,39.8z"/>
				<path class="st1" d="M386.2,46.4c0,1.4,0,2.7,0.1,3.3c0.1,0.4,0.1,0.7,0.5,0.8c0.2,0.1,0.6,0.1,0.7,0.1c0.1,0,0.2,0.1,0.2,0.1
					c0,0.1-0.1,0.1-0.2,0.1c-0.9,0-2-0.1-2.1-0.1s-1.1,0.1-1.6,0.1c-0.2,0-0.3,0-0.3-0.1c0-0.1,0.1-0.1,0.2-0.1c0.1,0,0.3,0,0.4,0
					c0.3-0.1,0.4-0.3,0.5-0.9c0.1-0.6,0.1-1.9,0.1-3.3V40c-0.6,0-1.5,0-2.3,0c-1.2,0-1.4,0.2-1.7,0.6c-0.2,0.3-0.2,0.5-0.3,0.6
					c-0.1,0.1-0.1,0.1-0.2,0.1c-0.1,0-0.1-0.1-0.1-0.2c0-0.1,0.3-1.3,0.4-1.8c0.1-0.2,0.1-0.3,0.2-0.3c0.1,0,0.5,0.2,0.8,0.2
					c0.6,0.1,1.1,0.1,1.2,0.1h5.9c0.5,0,1,0,1.3-0.1c0.2-0.1,0.3-0.1,0.3-0.1c0.1,0,0.1,0.1,0.1,0.2c0,0.5,0,1.7,0,1.8
					c0,0.2-0.1,0.2-0.1,0.2c-0.1,0-0.1-0.1-0.1-0.2c0-0.1,0-0.1,0-0.3c-0.1-0.7-0.3-0.9-2.1-0.9c-0.7,0-1.2,0-1.8,0V46.4z"/>
				<path class="st1" d="M396.6,43.7c0-2.4,0-2.8,0-3.3c0-0.5-0.2-0.8-0.7-0.9c-0.1,0-0.3,0-0.4,0c-0.1,0-0.2,0-0.2-0.1
					s0.1-0.1,0.2-0.1c0.8,0,1.9,0.1,1.9,0.1c0.2,0,1.4-0.1,1.9-0.1c1,0,2.1,0.1,3,0.7c0.3,0.3,1.1,1,1.1,2.2c0,1-0.5,2.3-1.9,3.4
					c1.3,1.6,2.4,3,3.3,3.9c0.9,0.9,1.4,1,1.9,1.1c0.1,0,0.5,0,0.6,0c0.1,0,0.2,0.1,0.2,0.1c0,0.1-0.1,0.1-0.3,0.1h-1.3
					c-0.8,0-1.2-0.1-1.6-0.2c-0.8-0.3-1.3-1.1-2.2-2.3c-0.7-0.9-1.4-1.8-1.7-2.2c-0.1-0.1-0.1-0.1-0.2-0.1l-1.9,0
					c-0.1,0-0.1,0-0.1,0.1v0.3c0,1.4,0,2.8,0.1,3.4c0.1,0.4,0.1,0.8,0.7,0.9c0.2,0,0.4,0,0.5,0c0.2,0,0.2,0.1,0.2,0.1
					c0,0.1-0.1,0.1-0.3,0.1c-0.9,0-1.9-0.1-2-0.1c-0.3,0-1.1,0.1-1.6,0.1c-0.2,0-0.3,0-0.3-0.1c0-0.1,0.1-0.1,0.2-0.1
					c0.1,0,0.3,0,0.4,0c0.3-0.1,0.4-0.3,0.5-0.7c0.1-0.6,0.1-2.1,0.1-3.5V43.7z M398,45c0,0.1,0,0.2,0.1,0.2c0.2,0.1,1,0.2,1.6,0.2
					c0.4,0,0.8,0,1.2-0.3c0.5-0.3,0.9-1.1,0.9-2.3c0-2-1-3-2.6-3c-0.5,0-0.8,0-1,0.1c-0.1,0-0.1,0.1-0.1,0.2V45z"/>
				<path class="st1" d="M412.2,46.5c-0.1,0-0.1,0.1-0.2,0.1l-0.8,2.3c-0.2,0.5-0.3,1-0.3,1.3c0,0.3,0.2,0.5,0.6,0.5h0.1
					c0.2,0,0.2,0.1,0.2,0.1c0,0.1-0.1,0.1-0.3,0.1c-0.4,0-1.2-0.1-1.4-0.1c-0.2,0-1,0.1-1.7,0.1c-0.2,0-0.3,0-0.3-0.1
					c0-0.1,0.1-0.1,0.2-0.1c0.1,0,0.3,0,0.4,0c0.8-0.1,1.1-0.7,1.4-1.4l3.6-9.5c0.2-0.5,0.3-0.6,0.4-0.6c0.1,0,0.2,0.1,0.4,0.6
					c0.3,0.6,2.7,6.9,3.7,9.1c0.6,1.4,1.1,1.7,1.4,1.7c0.2,0.1,0.5,0.1,0.6,0.1s0.2,0,0.2,0.1s-0.1,0.1-0.3,0.1c-0.2,0-1.5,0-2.7,0
					c-0.3,0-0.5,0-0.5-0.1c0-0.1,0.1-0.1,0.1-0.1c0.1,0,0.2-0.1,0.1-0.4l-1.4-3.6c0-0.1-0.1-0.1-0.1-0.1H412.2z M415.3,45.8
					c0.1,0,0.1-0.1,0.1-0.1l-1.4-4c-0.1-0.3-0.1-0.3-0.2,0l-1.3,4c0,0.1,0,0.1,0,0.1H415.3z"/>
				<path class="st1" d="M424.9,39.8c0-0.6,0.1-0.7,0.2-0.7c0.1,0,0.4,0.4,0.6,0.5c0.2,0.2,2.7,2.7,5.2,5.3c1.4,1.4,3.2,3.2,3.7,3.7
					l-0.2-7.5c0-1-0.1-1.3-0.6-1.4c-0.3-0.1-0.6-0.1-0.7-0.1c-0.2,0-0.2-0.1-0.2-0.1c0-0.1,0.1-0.1,0.3-0.1c0.8,0,1.5,0.1,1.7,0.1
					c0.2,0,0.7-0.1,1.4-0.1c0.2,0,0.3,0,0.3,0.1c0,0.1-0.1,0.1-0.2,0.1c-0.1,0-0.3,0-0.5,0.1c-0.4,0.1-0.5,0.3-0.5,1.4l0,9
					c0,0.9,0,1-0.2,1s-0.3-0.1-1.2-1c-0.1,0-2.6-2.5-4.1-4.1c-1.9-1.9-3.7-3.8-4.1-4.3l0.2,7c0,1.2,0.1,1.7,0.6,1.8
					c0.3,0.1,0.6,0.1,0.7,0.1c0.1,0,0.2,0.1,0.2,0.1c0,0.1-0.1,0.1-0.3,0.1c-1,0-1.6-0.1-1.7-0.1s-0.8,0.1-1.6,0.1
					c-0.2,0-0.3,0-0.3-0.1c0-0.1,0.1-0.1,0.3-0.1c0.1,0,0.3,0,0.6-0.1c0.4-0.1,0.5-0.6,0.5-1.9C424.9,40,425,42.8,424.9,39.8z"/>
				<path class="st1" d="M443.5,49.4c-1.5-1.3-1.9-3.1-1.9-4.6c0-1,0.4-2.8,1.8-4.2c1-0.9,2.4-1.6,4.8-1.6c0.8,0,1.5,0.1,2.4,0.2
					c0.6,0.1,1.2,0.2,1.6,0.2c0.1,0,0.2,0.1,0.2,0.2c0,0.1-0.1,0.3-0.1,0.9c0,0.5,0,1.4,0,1.7c0,0.3-0.1,0.3-0.1,0.3
					c-0.1,0-0.1-0.1-0.1-0.3c0-0.5-0.3-1.2-0.7-1.6c-0.5-0.5-1.8-0.9-3.2-0.9c-2,0-2.9,0.6-3.5,1c-1.2,1.1-1.4,2.4-1.4,3.9
					c0,3,2.4,5.6,5.6,5.6c1.2,0,2.1-0.1,2.8-0.7c0.3-0.3,0.5-0.8,0.6-1.3c0-0.2,0.1-0.3,0.2-0.3c0.1,0,0.1,0.1,0.1,0.3
					c0,0.1-0.2,1.6-0.4,2c-0.1,0.3-0.2,0.3-0.4,0.5c-0.6,0.3-1.8,0.4-2.8,0.4C446.4,51.1,444.8,50.5,443.5,49.4z"/>
				<path class="st1" d="M459,43.7c0-2.4,0-2.8,0-3.3c0-0.5-0.2-0.8-0.7-0.9c-0.1,0-0.3,0-0.4,0c-0.1,0-0.2-0.1-0.2-0.1
					c0-0.1,0.1-0.1,0.3-0.1c0.4,0,0.8,0,1.9,0.1c0.1,0,3.3,0,3.7,0c0.4,0,0.6,0,0.7-0.1c0.1,0,0.1-0.1,0.2-0.1c0,0,0.1,0,0.1,0.1
					c0,0.1-0.1,0.4-0.1,0.8c0,0.3,0,0.6-0.1,0.9c0,0.2,0,0.3-0.1,0.3c-0.1,0-0.1-0.1-0.1-0.2c0-0.3-0.1-0.4-0.1-0.6
					c-0.1-0.4-0.3-0.5-1.2-0.5c-0.2,0-2,0-2.1,0c-0.1,0-0.1,0-0.1,0.1v4.1c0,0.1,0,0.2,0.1,0.2c0.2,0,2.1,0,2.4-0.1
					c0.4,0,0.7-0.1,0.8-0.3c0.1-0.1,0.1-0.1,0.2-0.1c0,0,0.1,0,0.1,0.1c0,0.1-0.1,0.4-0.1,1c-0.1,0.5-0.1,0.9-0.1,1.1
					c0,0.1-0.1,0.2-0.1,0.2c-0.1,0-0.1-0.1-0.1-0.2c0-0.1,0-0.3-0.1-0.4c-0.1-0.2-0.2-0.5-0.9-0.5c-0.4,0-1.9-0.1-2.2-0.1
					c-0.1,0-0.1,0.1-0.1,0.1v1.3c0,0.6,0,2.1,0,2.4c0,0.7,0.1,1,0.5,1.2c0.3,0.1,0.7,0.2,1.3,0.2c0.3,0,0.9,0,1.4-0.1
					c0.5-0.2,0.7-0.5,0.8-1.2c0-0.2,0.1-0.3,0.2-0.3c0.1,0,0.1,0.2,0.1,0.3c0,0.1-0.1,1.3-0.2,1.6c-0.1,0.4-0.2,0.4-0.8,0.4
					c-1.2,0-1.7,0-2.3,0c-0.6,0-1.5-0.1-2.1-0.1c-0.4,0-0.8,0.1-1.2,0.1c-0.2,0-0.3,0-0.3-0.1c0-0.1,0.1-0.1,0.2-0.1
					c0.1,0,0.2,0,0.4-0.1c0.3-0.1,0.5-0.3,0.6-1.4c0-0.6,0-1.4,0-2.7V43.7z"/>
				<path class="st1" d="M480.8,42.5c0-2.8,0-3.3,0-3.9c0-0.6-0.1-0.9-0.7-1c-0.1,0-0.4-0.1-0.6-0.1c-0.1,0-0.2,0-0.2-0.1
					c0-0.1,0.1-0.1,0.3-0.1c0.8,0,1.9,0.1,2,0.1c0.2,0,1.4-0.1,2.4-0.1c1.8,0,5.1-0.2,7.2,2.1c0.9,0.9,1.7,2.4,1.7,4.6
					c0,2.3-0.9,4-1.9,5.1c-0.8,0.8-2.4,2.1-5.5,2.1c-0.8,0-1.7-0.1-2.5-0.1c-0.8-0.1-1.4-0.1-1.5-0.1c0,0-0.3,0-0.7,0
					c-0.4,0-0.8,0-1,0c-0.2,0-0.3,0-0.3-0.1c0-0.1,0-0.1,0.2-0.1c0.2,0,0.3,0,0.5-0.1c0.4-0.1,0.5-0.5,0.5-1
					c0.1-0.8,0.1-2.2,0.1-3.9V42.5z M482.3,44.4c0,1.9,0,3.6,0,3.9c0,0.5,0.1,1.2,0.2,1.4c0.2,0.3,0.9,0.7,3.1,0.7
					c1.7,0,3.2-0.6,4.3-1.7c0.9-0.9,1.4-2.6,1.4-4.3c0-2.3-1-3.8-1.7-4.5c-1.7-1.8-3.7-2-5.9-2c-0.4,0-1,0.1-1.2,0.1
					c-0.2,0.1-0.2,0.2-0.2,0.4c0,0.6,0,2.4,0,3.8V44.4z"/>
				<path class="st1" d="M498,45c0-2.4,1.9-6,6.3-6c3.6,0,6.3,2.1,6.3,5.7c0,3.4-2.5,6.2-6.4,6.2C499.8,51.1,498,47.8,498,45z
					 M508.9,45.3c0-3.6-2.2-5.6-4.7-5.6c-2.5,0-4.5,1.5-4.5,5c0,3.5,2,5.9,5,5.9C505.9,50.4,508.9,49.8,508.9,45.3z"/>
				<path class="st1" d="M515.5,45c0-2.4,1.9-6,6.3-6c3.6,0,6.3,2.1,6.3,5.7c0,3.4-2.5,6.2-6.4,6.2C517.3,51.1,515.5,47.8,515.5,45z
					 M526.3,45.3c0-3.6-2.2-5.6-4.7-5.6c-2.5,0-4.5,1.5-4.5,5c0,3.5,2,5.9,5,5.9C523.3,50.4,526.3,49.8,526.3,45.3z"/>
				<path class="st1" d="M534.7,43.7c0-2.4,0-2.8,0-3.3c0-0.5-0.2-0.8-0.7-0.9c-0.1,0-0.3,0-0.4,0c-0.1,0-0.2,0-0.2-0.1
					s0.1-0.1,0.2-0.1c0.8,0,1.9,0.1,1.9,0.1c0.2,0,1.4-0.1,1.9-0.1c1,0,2.1,0.1,3,0.7c0.3,0.3,1.1,1,1.1,2.2c0,1-0.5,2.3-1.9,3.4
					c1.3,1.6,2.4,3,3.3,3.9c0.9,0.9,1.4,1,1.9,1.1c0.1,0,0.5,0,0.6,0c0.1,0,0.2,0.1,0.2,0.1c0,0.1-0.1,0.1-0.3,0.1h-1.3
					c-0.8,0-1.2-0.1-1.6-0.2c-0.8-0.3-1.3-1.1-2.2-2.3c-0.7-0.9-1.4-1.8-1.7-2.2c-0.1-0.1-0.1-0.1-0.2-0.1l-1.9,0
					c-0.1,0-0.1,0-0.1,0.1v0.3c0,1.4,0,2.8,0.1,3.4c0.1,0.4,0.1,0.8,0.7,0.9c0.2,0,0.4,0,0.5,0c0.2,0,0.2,0.1,0.2,0.1
					c0,0.1-0.1,0.1-0.3,0.1c-0.9,0-1.9-0.1-2-0.1c-0.3,0-1.1,0.1-1.6,0.1c-0.2,0-0.3,0-0.3-0.1c0-0.1,0.1-0.1,0.2-0.1
					c0.1,0,0.3,0,0.4,0c0.3-0.1,0.4-0.3,0.5-0.7c0.1-0.6,0.1-2.1,0.1-3.5V43.7z M536.1,45c0,0.1,0,0.2,0.1,0.2
					c0.2,0.1,1,0.2,1.6,0.2c0.4,0,0.8,0,1.2-0.3c0.5-0.3,0.9-1.1,0.9-2.3c0-2-1-3-2.6-3c-0.5,0-0.8,0-1,0.1c-0.1,0-0.1,0.1-0.1,0.2
					V45z"/>
			</g>
			<g>
				<path class="st1" d="M256,107v3.3h-2V80.6c2.3,0.1,3.4,0.4,3.4,0.9c0,0.3-0.4,0.6-1.4,1v23.6h9.4l1.5-2c0.7,0.7,1.3,1.2,1.6,1.6
					c1.4-3.2,2-6.8,2-11v-12c0.1,0,0.2,0.1,0.3,0.1c0.2,0.1,0.4,0.2,0.5,0.2c0.1,0,0.5,0.2,1.5,0.7c2.9-1,5.3-2.2,7.3-3.7
					c1.7,1,2.5,1.8,2.5,2.2c0,0.2-0.2,0.3-0.6,0.3c-0.2,0-0.6-0.1-1.1-0.2c-2.3,1-5,1.8-8.2,2.4v7.6h8.2l1.7-2.4
					c0.8,0.8,1.5,1.7,2.2,2.6l-0.4,0.7h-4.8v18h-2.1v-18h-4.8v1.6c0,7.6-2.4,13.2-7.2,17l-0.6-0.6c1.3-1.3,2.3-2.7,3.1-4.2H256z
					 M261.7,96.9c-1.3,2.4-2.9,4.4-4.9,6.1l-0.6-0.6c2.4-2.8,4.2-5.8,5.4-9.2h-4.8l-0.3-0.9h5.2V80.3c2.2,0.1,3.2,0.3,3.2,0.8
					c0,0.2-0.4,0.6-1.4,1v10.1h2.4l1.3-1.9c0.4,0.4,1.1,1.1,1.9,2.1l-0.4,0.7h-5.2v2.1c3.4,1.2,5,2.6,5,4.1c0,0.8-0.4,1.2-1.1,1.2
					c-0.4,0-0.8-0.2-0.9-0.7c-0.6-1.4-1.6-2.6-3-3.6v8.5h-1.9V96.9z M257.6,82.9c1.8,2.2,2.8,4.2,2.8,6c0,1.1-0.4,1.6-1.2,1.6
					c-0.6,0-0.9-0.3-0.8-1l0-0.6v-0.4c0-1.4-0.5-3.1-1.5-5.1L257.6,82.9z M264.6,90.3c0.7-2.1,1.4-4.6,1.9-7.5c2,0.6,3,1.2,3,1.6
					c0,0.3-0.4,0.5-1.3,0.6c-0.7,1.8-1.6,3.7-2.8,5.7L264.6,90.3z"/>
				<path class="st1" d="M309,86.7l0.2,0.2l-0.4,0.6h-5v2.6c0,0.6,0.4,0.9,1.2,0.9c0.9,0,1.5-0.3,1.6-0.8c0.2-0.5,0.2-1,0.3-1.7
					l0.8,0.3c0,1.3,0.3,2,0.7,2c0.2,0,0.2,0,0.3,0c0,0.8-0.3,1.2-0.8,1.4c-0.5,0.2-1.5,0.3-3,0.3c-1.4,0-2.2-0.1-2.5-0.3
					c-0.3-0.2-0.5-0.7-0.5-1.4v-3.3h-2.5c-0.2,1.8-0.7,3.2-1.6,4.3c-1,1.1-2.5,2-4.6,2.6l-0.4-0.7c2.9-1.2,4.4-3.2,4.6-6.2h-4.6
					l-0.3-0.9h7.2v-2.8h-5.5l-0.3-0.9h5.8v-3.5c2.1,0,3.2,0.2,3.2,0.7c0,0.3-0.4,0.6-1.2,0.9v1.9h3.3l1.3-1.7c0.8,0.6,1.4,1.3,1.8,2
					l-0.4,0.7h-6v2.8h4.1l1.4-1.8c0.4,0.4,0.8,0.6,1,0.9h4.5v-6.2c2.3,0.1,3.4,0.4,3.4,0.9c0,0.3-0.4,0.6-1.4,1v4.2h3l1.3-1.5
					c1.4,1.1,2,1.7,2,2c0,0.1-0.1,0.3-0.3,0.4l-0.8,0.6c0,3.5,0.2,6.4,0.8,8.8c0.4,1.8,0.8,2.6,1.1,2.6c0.2,0,0.4-0.6,0.8-1.8
					c0.3-1.2,0.6-2.6,0.8-4.2l1,0.3c-0.4,3.1-0.7,5.2-0.7,6.4c0,0.9,0.3,1.5,1,1.8c-0.3,1-0.9,1.5-1.7,1.5c-0.7,0-1.4-0.5-2.2-1.6
					c-0.8-1.1-1.4-2.4-1.8-3.9c-0.6-2.5-1-6-1-10.5h-3.2c0,2-0.2,3.8-0.5,5.4c1.8,1.2,2.7,2.3,2.7,3.2c0,0.7-0.3,1.1-1,1.1
					c-0.4,0-0.8-0.4-1.4-1.2c-0.2-0.4-0.6-0.7-0.9-1.1c-1.1,3.2-3,5.9-6,8.1l-0.6-0.6c2.5-2.2,4.2-5.2,5.1-8.9
					c-1.2-1-2.4-1.8-3.6-2.5l0.4-0.7c1,0.4,2.2,1,3.5,1.7c0.2-1.3,0.2-2.7,0.2-4.2H309z M299.6,96.2h-5.4l-0.4-0.9h5.8v-3.4
					c1.9,0.1,2.8,0.3,2.8,0.8c0,0.2-0.3,0.5-0.9,0.7v2h2.9l1.4-1.7c0.8,0.7,1.5,1.3,2,1.9l-0.4,0.7h-5.8v3c2.5-0.4,4.8-0.8,7-1.2
					l0.1,0.9c-4.4,1.3-9,2.4-13.8,3.2c-0.2,0.9-0.5,1.3-0.8,1.3c-0.5,0-1-1-1.3-3.2c2.3-0.1,4.6-0.4,6.9-0.6V96.2z M292.9,110.5
					c0-0.4,0.4-0.9,1.2-1.4c2.2-1.3,3.5-3.3,4.1-6l0.9,0.3c-0.2,2.9-1.1,5.2-2.6,7c-0.8,1-1.6,1.5-2.3,1.5
					C293.3,111.9,292.9,111.4,292.9,110.5z M303.7,110.1l0-1.5c0-1.7-0.4-3.4-1.1-5.3l0.7-0.3c1.9,2.4,2.8,4.5,2.8,6.3
					c0,1.3-0.5,2-1.4,2C304.1,111.3,303.7,110.9,303.7,110.1z M312.2,109.3c-0.2-2-1.1-4.1-2.7-6.2l0.6-0.5c3.1,2.4,4.6,4.7,4.6,6.8
					c0,1.1-0.4,1.6-1.4,1.6C312.7,110.9,312.3,110.4,312.2,109.3z M321.6,109.7c-0.6-2.3-2.3-4.5-4.9-6.8l0.5-0.6
					c2.3,1.2,4.2,2.5,5.6,4.1c0.8,0.9,1.3,1.8,1.3,2.7c0,1-0.4,1.6-1.4,1.6C322.2,110.8,321.8,110.4,321.6,109.7z"/>
				<path class="st1" d="M347.2,86.7v-6.8c2.5,0.1,3.7,0.4,3.7,0.9c0,0.3-0.5,0.6-1.6,1v4.9h9.6l2-2.7c1.2,1.1,2,2,2.7,2.9l-0.4,0.7
					h-29.7l-0.4-0.9H347.2z M341.7,107.4l1.1-1c3.9-3.8,7.9-8.3,11.8-13.6c2,1.2,2.9,2,2.9,2.4c0,0.3-0.4,0.5-1.2,0.5
					c-0.2,0-0.4,0-0.6,0c-3.8,4.1-7.9,8-12.4,11.7l0.8,0c4.4-0.2,9-0.5,13.9-1c-1.2-1.6-2.8-3.2-4.6-4.8l0.6-0.7
					c3.2,1.8,5.6,3.6,7.1,5.6c1,1.2,1.5,2.3,1.5,3.2c0,1-0.4,1.5-1.3,1.5c-0.6,0-1.1-0.5-1.4-1.4c-0.2-0.7-0.6-1.4-1.2-2.4l-0.9,0.1
					c-6.6,0.8-13.6,1.8-21.1,2.4c-0.3,1-0.6,1.6-0.8,1.6c-0.6,0-1.2-1.2-1.6-3.7c1.5,0,3.1,0,4.7-0.1L341.7,107.4z M347.2,87.7
					c2.1,0.9,3.2,1.7,3.2,2.2c0,0.3-0.6,0.5-1.8,0.5c-1.8,2.2-3.8,4.2-6,6.2c2,1.4,3,2.8,3,4.1c0,0.9-0.4,1.3-1.1,1.3
					c-0.5,0-1-0.4-1.4-1.2c-1.4-2.5-3.7-4.7-7-6.7l0.4-0.8c2.1,0.9,3.8,1.7,5.2,2.7C343.7,93.9,345.4,91.2,347.2,87.7z"/>
				<path class="st1" d="M383.9,81.2l1.4-1.7c1.3,1.1,2,1.8,2,2.1c0,0.2-0.1,0.4-0.3,0.4l-0.8,0.5v9.2h-2v-1.3h-8.1v21.2h-2.2V80
					c1,0.4,1.8,0.8,2.6,1.2H383.9z M376.1,82.1v3.2h8.1v-3.2H376.1z M376.1,89.6h8.1v-3.5h-8.1V89.6z M400.3,81.2l1.3-1.7
					c1.4,1.2,2.1,1.9,2.1,2.2c0,0.2-0.1,0.4-0.3,0.5l-0.7,0.5V109c0,1.7-1.2,2.5-3.4,2.5v0c0-0.6-0.4-1.1-1-1.4
					c-0.4-0.2-1.2-0.4-2.6-0.6c-0.2,0.3-0.5,0.5-0.8,0.5c-0.3,0-0.7-0.2-1.1-0.7c-1.5-1.8-3.4-3.4-5.5-4.5c-1.2,2.8-4.2,4.8-8.8,5.8
					l-0.5-0.9c4.6-1.4,7.2-3.8,7.8-7.2h-7.9l-0.4-0.9h8.4c0-0.1,0-0.4,0-0.7v-3h-7l-0.4-0.9h9.5c0.9-1.6,1.6-3.3,2.2-5
					c1.9,0.8,2.9,1.4,2.9,1.8c0,0.3-0.4,0.4-1.5,0.5c-0.6,0.8-1.4,1.8-2.5,2.7h3.6l1.5-1.9c0.6,0.5,1.2,1.2,1.9,2.2l-0.4,0.6h-7.6
					v2.8c0,0.4,0,0.6,0,0.8h5.9l1.5-1.8c0.6,0.5,1.2,1.2,1.9,2.1l-0.4,0.7h-9c0,0.2-0.2,0.6-0.3,1.4c2.6,0.8,4.7,1.8,6.1,3
					c0.8,0.7,1.2,1.3,1.3,1.9c1.4,0,2.6,0.1,3.4,0.1c0.8,0,1.2-0.4,1.2-1.1V90.5h-8.5v1.1h-2V80.2c0.9,0.4,1.7,0.7,2.4,1H400.3z
					 M382.5,92.1c2.6,1.1,3.9,2.2,3.9,3.4c0,0.8-0.4,1.2-1.2,1.2c-0.5,0-0.8-0.3-1-0.9c-0.3-1.1-1-2.2-2.1-3.2L382.5,92.1z
					 M392.1,82.1v3.2h8.5v-3.2H392.1z M400.6,89.6v-3.5h-8.5v3.5H400.6z"/>
				<path class="st1" d="M425.9,93.9c0,0.7,0,3.8,0,5.2c0,1.4,0,3.7,0.2,5c0.2,1.3,0.5,2.4,0.7,3.5c0.2,1.1,0.1,2.6-0.8,2.7
					c-1,0.1-1.9-0.7-2.4-1.6c-0.5-1-0.5-2.3-0.3-3.4s0.4-2.6,0.6-4.3c0.1-1.8,0.2-4.3,0.2-6.4c0.1-2.2,0.2-4,0.2-5.8
					c0.1-1.7,0.1-2.8-0.1-4c-0.2-1.1-0.5-1.8-1.1-2.4c-0.7-0.5-0.9-1.2-0.6-1.6c0.3-0.4,1-0.4,1.6-0.2c0.6,0.2,1.5,0.6,1.9,1.3
					c0.4,0.8,0.2,1.6,0.1,2.2c-0.1,0.6-0.1,1.7-0.2,3s-0.1,2.7-0.1,4.2c0,0.5,0.5,0.5,0.8,0.6c1.8,0.1,2.8,0.2,4.4,0.9
					c1.6,0.7,2.8,1.5,4,2.8c1.1,1.2,1.8,3.4,0.3,4c-1.5,0.6-2.4-1.2-3.2-2.7c-0.9-1.5-1.8-2.5-2.8-3.1c-0.9-0.6-1.7-0.8-2.6-1
					C426.1,92.8,425.9,93.2,425.9,93.9z M436.5,92c-0.6-0.6-1.3-1.2-2.3-1.8c-0.3-0.2-0.5-0.5-0.3-0.8c0.1-0.2,0.5-0.2,0.7-0.1
					c0.6,0,1.4,0.2,2.2,0.5c0.8,0.3,2,1,2.4,1.6c0.4,0.7,0,1.3-0.6,1.5S437.1,92.6,436.5,92z M439.7,90.3c-0.6-0.7-1.3-1.2-2.5-1.6
					c-0.3-0.2-0.5-0.5-0.4-0.8c0.1-0.2,0.4-0.2,0.7-0.2c0.6,0,1.4,0.1,2.2,0.4c0.8,0.2,2,0.8,2.4,1.5c0.4,0.6,0.1,1.3-0.5,1.5
					C441.1,91.3,440.2,90.9,439.7,90.3z"/>
				<path class="st1" d="M456.7,84.5c-0.5-0.6-0.7-1.4-0.4-1.7c0.6-0.6,1.4,0,1.8,0.2c0.6,0.4,1.4,0.8,2.2,1c0.8,0.1,1.5,0,2.6-0.1
					c2.3-0.2,3.9-0.4,5.7-0.6c1.1-0.1,3.5-0.3,5.2-0.5c1.7-0.1,3.4-0.3,4.2-0.4c0.8-0.1,1.6,0.2,2,0.5c0.4,0.3,0.8,0.6,0.8,1
					c0,0.3,0,0.6-0.9,1.2c-0.8,0.6-2.6,1.9-4.4,3c-1.6,1-3.6,1.6-5.6,2c0,1.3,0,2.8-0.2,4.3c-0.3,2.3-0.8,4.3-1.8,6.4
					c-1,2.1-1.8,3.2-2.9,4.4c-1.2,1.1-2.8,2.2-5,3.5c-0.7,0.4-1-0.2-0.6-0.5c0.4-0.2,1-0.8,1.8-1.4c1.4-1,2.6-2.2,3.9-4
					c1.3-1.8,1.8-3.8,2.2-6.1c0.4-2.3,0.3-4.2,0.1-6.1c-0.2-1.9-0.8-3.1-1.7-4.2c-0.4-0.4-0.6-0.8-0.6-1.1c-0.4,0-0.8,0.1-1,0.2
					c-1.5,0.2-3,0.4-4.5,0.3C457.9,85.7,457.3,85.2,456.7,84.5z M467.1,85c0.8,0.3,1.2,0.6,1.8,1.1c0.7,0.6,0.8,1.4,0.8,2.2
					c0,0.2,0,0.6,0,0.9c0.8-0.3,1.6-0.8,2.5-1.4c1.2-0.7,1.8-1.4,2.4-2c0.5-0.6,0.8-1,0.7-1.2c-0.1-0.2-0.4-0.4-1.2-0.3
					c-0.7,0.1-3,0.4-4.7,0.6C468.9,84.8,468,84.9,467.1,85z"/>
			</g>
			<g>
				<circle class="st2" cx="93.3" cy="70.4" r="70.4"/>
				<g>
					<path class="st1" d="M53.9,53.5c0.4,0.6,1,1.1,1.6,1.6c2.1-0.8,3.8-1.9,5.3-3.3c1.3,0.6,1.9,1.1,1.9,1.4c0,0.2-0.3,0.3-0.8,0.3
						h-0.5c-1.6,0.9-3.3,1.7-5.1,2.2c1.8,0.9,4.9,1.4,9.1,1.4c2.3,0,5-0.1,8.1-0.3c-0.4,0.6-0.6,1.2-0.8,1.8h-6.2
						c-4.6,0-7.7-0.3-9.4-1.1c-1.8-0.8-3.1-1.9-3.8-3.2c-0.9,1.4-1.9,2.6-2.9,3.8c0,0.7-0.1,1.1-0.3,1.1c-0.3,0-0.9-0.7-1.7-2.1
						c1.4-0.8,2.7-1.7,4-2.8v-7.5h-3.7L48.3,46h3.8l1-1.3c1.1,0.9,1.7,1.5,1.7,1.7c0,0.1-0.1,0.2-0.3,0.3l-0.7,0.4
						C53.9,47.1,53.9,53.5,53.9,53.5z M49.8,35.2c2.9,1.3,4.4,2.7,4.4,4.2c0,0.7-0.3,1.1-1,1.1c-0.4,0-0.8-0.3-1-1
						c-0.5-1.4-1.4-2.6-2.8-3.7L49.8,35.2z M66,46.4v-2.6c1.8,0.1,2.7,0.3,2.7,0.6c0,0.2-0.3,0.4-1.1,0.6v1.3h2.1l1.1-1.6
						C70.9,44.9,71,45,71,45c0.6,0.5,1,1,1.5,1.5l-0.3,0.6h-4.6v3.2h3l1.3-1.6l0.2,0.2l0.2,0.2c0.5,0.4,0.8,0.9,1.2,1.3L73.2,51h-18
						l-0.3-0.7h5v-3.2H56l-0.3-0.7h4.2v-2.6c1.7,0,2.6,0.2,2.6,0.6c0,0.2-0.4,0.4-1.1,0.6v1.3H66z M57.9,39.2v2.1
						c0,0.3,0.1,0.5,0.2,0.6c0.2,0.1,0.8,0.2,2,0.2c1.3,0,2-0.1,2.2-0.4c0.2-0.2,0.3-0.7,0.4-1.5l0.6,0.2c0,0.1,0,0.2,0,0.4
						c0,0.6,0.3,1,0.8,1v0c0,0.6-0.2,1.1-0.7,1.3c-0.5,0.2-1.5,0.3-3.1,0.3c-1.9,0-3.1-0.1-3.4-0.3c-0.3-0.2-0.5-0.7-0.5-1.4v-3.9
						c0.3,0.1,0.8,0.3,1.7,0.7h3.3v-2.2h-5.5l-0.3-0.7h5.5l0.9-1.1c1,0.8,1.5,1.2,1.5,1.4c0,0.2-0.1,0.3-0.2,0.3l-0.5,0.3v3.2h-1.5
						v-0.6H57.9z M66,50.3v-3.2h-4.5v3.2H66z M66.5,39.2v1.9c0,0.3,0,0.6,0.2,0.7c0.2,0.2,0.9,0.2,2.1,0.2c1.4,0,2.1-0.2,2.3-0.5
						c0.2-0.3,0.4-0.8,0.5-1.4l0.6,0.2c0,0.6,0.1,1,0.2,1.2c0.1,0.2,0.3,0.3,0.7,0.3c0,0.7-0.3,1.1-0.8,1.3
						c-0.5,0.2-1.5,0.3-3.3,0.3c-1.9,0-3-0.2-3.4-0.4c-0.3-0.2-0.4-0.6-0.4-1.2v-4c0.5,0.2,1.1,0.4,1.6,0.7H70v-2.2h-5.3l-0.3-0.7
						h5.4l1-1.1c1,0.8,1.5,1.3,1.5,1.5c0,0.1-0.1,0.2-0.2,0.3l-0.5,0.4v3.2H70v-0.7H66.5z M65.5,51.9c4.3,0.7,6.4,1.7,6.4,2.9
						c0,0.6-0.3,0.9-0.8,0.9c-0.3,0-0.6-0.1-0.9-0.4c-1.1-1.1-2.8-2-5-2.8L65.5,51.9z"/>
					<path class="st1" d="M103.1,51.3c0.1,0.5-0.3,1.1-1.3,1.2c-1.3,0.1-2.6-0.5-3.8-1.5c-1.3-1-3-2.9-4.3-4.4
						c-1.3-1.5-2.4-3-2.9-3.6c-0.6-0.7-1.1-1.3-1.7-1.3c-0.6,0-1,0.4-1.4,1c-0.4,0.6-1.5,2.2-1.9,2.9c-0.4,0.7-1.4,2-2.2,2.2
						c-0.9,0.2-1.6,0-2.2-0.3c-0.6-0.3-1-0.8-0.8-1.2c0.1-0.3,0.6-0.2,0.9-0.2c0.3,0,0.8,0,1.2-0.2c0.5-0.2,1-0.6,1.6-1.2
						c0.6-0.5,1.3-1.2,1.8-1.8c0.6-0.6,0.8-0.9,1.4-1.5c0.6-0.7,1-1,1.5-1c0.6-0.1,1.1,0.6,1.7,1.1c0.5,0.5,1.6,1.5,2.5,2.5
						c0.9,1,2.2,2.2,3.5,3.4c0.8,0.8,2.1,1.9,3.2,2.4c1,0.5,1.8,0.7,2.2,0.7C102.5,50.7,103,50.9,103.1,51.3z M98.3,43.4
						c-0.5-0.4-1.1-0.9-1.8-1.4c-0.2-0.2-0.4-0.4-0.2-0.6c0.1-0.2,0.4-0.1,0.5-0.1c0.5,0,1,0.2,1.7,0.4c0.7,0.2,1.6,0.7,1.9,1.2
						c0.3,0.5,0,1-0.4,1.1C99.4,44.1,98.7,43.8,98.3,43.4z M100.7,42.1c-0.5-0.6-1-0.9-1.9-1.3c-0.2-0.1-0.4-0.4-0.3-0.6
						c0.1-0.2,0.3-0.2,0.5-0.2c0.5,0,1.1,0.1,1.7,0.3c0.6,0.2,1.5,0.6,1.9,1.2c0.3,0.5,0.1,1-0.4,1.1
						C101.8,42.9,101.1,42.6,100.7,42.1z"/>
					<path class="st1" d="M130.4,54.1c-1.1,1.3-2.5,2-4.1,2.4c-1.6,0.4-3.1,0.4-5,0c-1.9-0.4-2.6-1.1-2.6-2c0-0.9,1.2-1.7,2.2-1.9
						c1.1-0.2,2.3-0.2,3.2,0.6c0.8,0.6,0.8,1.4,0.4,2.1c1.5-0.2,2.9-0.6,3.9-1.4c1.2-1,1.8-2.4,1.8-3.8c0-1.4-1-3.2-2.8-3.9
						c-1.7-0.7-3.6-0.8-5.5-0.2c-1.9,0.6-3.2,1.6-4.1,2.8c-0.9,1.2-1.6,2.7-1.9,3.5c-0.2,0.8-0.5,1.2-0.9,1.5
						c-0.2,0.1-0.5,0.2-1-0.2c-0.3-0.3-0.4-0.9-0.3-1.4c0-0.4,0.8-1.4,1.4-2.1c0.6-0.7,1.4-1.9,2.4-3c1.1-1.1,2.7-3.2,3.4-4
						c0.7-0.8,2.8-3.4,3.1-3.8c0.3-0.4,0.5-0.8,0.3-0.9c-0.2-0.2-0.7,0.1-1,0.2c-0.3,0.2-1.9,1.1-2.7,1.6c-0.9,0.5-1.5,0.7-2.3,0.7
						c-0.8,0-1.3-0.4-1.6-0.7c-0.3-0.3-0.4-0.8-0.3-1c0.1-0.3,0.4-0.3,0.7-0.2c0.3,0.1,0.7,0.2,1.1,0.2c0.4,0,0.8,0,1.7-0.4
						c0.9-0.4,2.2-1,3.2-1.5c1.1-0.6,1.7-1,2.3-1c0.6,0,1.2,0.3,1.6,0.8c0.4,0.4,0.4,0.7,0.4,1s-0.2,0.4-0.6,0.7
						c-0.4,0.2-1.4,1.1-2.2,1.9c-0.8,0.9-1.9,2.1-2.6,2.9c0,0-0.7,0.8-2.2,2.3c0.4-0.3,0.9-0.6,1.7-0.9c1.2-0.4,2.5-0.7,4.1-0.5
						c1.6,0.2,2.9,0.6,4.1,1.5s2.1,2.1,2.3,3.9C131.9,51.7,131.4,53,130.4,54.1z M121.5,53.6c-1,0-1.6,0.6-1.2,1.2
						c0.2,0.3,1,0.6,2.3,0.7C123.8,54.5,122.7,53.6,121.5,53.6z"/>
				</g>
				<g>
					<g>
						<path class="st1" d="M75.7,88.2c0.4-0.6,0.8-1.1,1.1-1.7c0-0.1-0.1-0.1-0.2-0.2c-0.5-0.5-1-0.9-1.7-1.4
							c-0.2-0.1-0.5-0.3-0.4-0.5c0.1-0.2,0.3-0.1,0.8,0.1c0.5,0.2,1,0.5,1.9,1.1c0.1-0.2,0.3-0.4,0.4-0.7c0.7-1.3,1-2.1,1.1-2.6
							c0.1-0.6,0-1-0.2-1.3c-0.2-0.3-0.4-0.5-0.3-0.7c0.2-0.3,0.5-0.2,0.9,0c0.5,0.2,0.9,0.5,1.1,0.9c0.3,0.4,0.2,0.7,0,0.9
							c-0.2,0.1-0.3,0.3-0.4,0.5c-0.1,0.2-0.2,0.7-0.4,1.2c-0.3,0.7-0.8,1.5-1.4,2.5c0.6,0.4,1,0.8,1.4,1.1c0.6,0.7,0.8,1.5,0.2,1.8
							c-0.6,0.3-1.2-0.1-1.6-0.9c-0.2-0.3-0.5-0.7-0.7-1c-0.8,1.1-1.2,1.7-2.1,2.8s-1.7,1.7-3,2.6c-0.5,0.3-0.8,0.4-0.8,0.3
							c-0.1-0.1,0.1-0.3,0.3-0.5c0.5-0.4,1-0.8,1.7-1.6C74.3,90,74.9,89.3,75.7,88.2z"/>
						<path class="st1" d="M102.7,86.9c0,0.2-0.3,0.3-0.7,0.2c-0.4-0.1-1.5-0.2-2.2-0.3c-0.7-0.1-2.2-0.1-2.9-0.1
							c-0.7,0.1-2.1,0.1-3,0.2c-0.7,0.1-1.5,0.3-2.2,0.3c-0.7,0-1.4-0.2-1.7-0.5c-0.4-0.3-0.5-0.7-0.3-0.9c0.3-0.3,0.9,0,1.4,0.1
							c0.4,0.1,1.4,0.2,2.1,0.2c0.8,0,2.4-0.1,3.3-0.1c0.8,0,3.1-0.1,3.9-0.1c0.8,0,1.6,0,2,0.2S102.7,86.7,102.7,86.9z"/>
						<path class="st1" d="M109,93.5c0.3-0.2,0.8-0.6,1.1-0.9c1-0.9,1.8-1.7,2.4-2.6c0.6-0.9,1.1-1.9,1.5-2.9
							c0.3-0.7,0.5-1.4,0.7-2.1c-0.5,0.1-1,0.1-1.3,0.2c-0.4,0-1,0.2-1.4,0.1c-0.4,0-1.1-0.1-1.5-0.5c-0.4-0.3-0.5-0.7-0.4-0.9
							c0.2-0.3,0.7-0.1,1,0c0.3,0.1,0.9,0.2,1.8,0.2c0.7,0,1.3,0,2-0.1c0,0,0,0,0,0c0.2-0.8,0.3-1.8,0.3-2.2c0-0.4-0.2-0.9-0.3-1.1
							c-0.2-0.3-0.3-0.5-0.2-0.7c0.1-0.2,0.4-0.2,0.8,0c0.4,0.1,0.7,0.3,0.9,0.6c0.2,0.2,0.3,0.5,0.2,0.8c-0.1,0.1-0.1,0.4-0.2,0.7
							c-0.1,0.7-0.2,1.3-0.3,2c0.5,0,1-0.1,1.5-0.2c0.8-0.1,1.1-0.2,1.5-0.3c0.3-0.1,0.6-0.3,0.8-0.4c0.2-0.2,0.4-0.2,0.8,0.1
							c0.3,0.3,0.6,0.6,0.7,0.8s0,0.5-0.1,0.6c-0.1,0.1-0.2,0.3-0.2,0.5c0,0.3-0.1,0.8-0.2,1.6c-0.1,0.8-0.3,1.6-0.5,2.7
							c-0.3,1.1-0.5,1.7-0.8,2.2c-0.3,0.4-0.6,0.6-0.9,0.5c-0.2-0.1-0.3-0.2-0.5-0.6s-0.3-0.6-0.6-0.9c-0.3-0.3-0.6-0.5-0.9-0.7
							c-0.2-0.1-0.3-0.2-0.2-0.3c0-0.1,0.2-0.1,0.4,0c0.3,0.1,0.7,0.2,1.2,0.4c0.5,0.2,0.8,0.1,1-0.3c0.2-0.4,0.3-0.8,0.5-1.7
							c0.2-0.9,0.3-1.6,0.3-2.8c0-0.4,0-0.6,0-0.6c-0.1-0.1-0.2-0.1-0.4-0.2c-0.1,0-0.3,0-0.4,0c-0.1,0-0.3,0.1-0.9,0.2
							c-0.6,0.1-1.2,0.2-2.3,0.3c-0.1,0.2-0.1,0.3-0.2,0.5c-0.4,1.1-0.8,2-1.3,2.9c-0.5,0.9-0.9,1.6-1.6,2.5
							c-0.7,0.9-1.4,1.6-2.2,2.2c-0.4,0.3-0.9,0.6-1.3,0.8C108.9,93.9,108.7,93.7,109,93.5z"/>
						<path class="st1" d="M141.4,86.9c0,0.2-0.3,0.3-0.7,0.2c-0.4-0.1-1.5-0.2-2.2-0.3c-0.7-0.1-2.2-0.1-2.9-0.1
							c-0.7,0.1-2.1,0.1-3,0.2c-0.7,0.1-1.5,0.3-2.2,0.3c-0.7,0-1.4-0.2-1.7-0.5c-0.4-0.3-0.5-0.7-0.3-0.9c0.3-0.3,0.9,0,1.4,0.1
							c0.4,0.1,1.4,0.2,2.1,0.2c0.8,0,2.4-0.1,3.3-0.1c0.8,0,3.1-0.1,3.9-0.1c0.8,0,1.6,0,2,0.2S141.4,86.7,141.4,86.9z"/>
					</g>
					<path class="st3" d="M44.3,105.7v-2.1c2-3.5,5.3-8.1,9.6-14c3.9-5.4,5.8-9.6,5.8-12.5c0-1.7-0.4-3.2-1.2-4.4
						c-1.1-1.7-2.6-2.5-4.6-2.5c-1.6,0-2.8,0.5-3.9,1.4c-1.1,1-1.7,2.3-1.9,3.9c1.2,0.3,1.8,1.1,1.8,2.4c0,1.7-0.8,2.5-2.4,2.5
						c-1.8,0-2.7-1.1-2.7-3.2c0-2.2,0.8-4.2,2.5-5.9c1.8-1.8,4-2.7,6.8-2.7c2.4,0,4.4,0.6,6,1.8c2.1,1.6,3.2,3.9,3.2,6.8
						c0,2.5-0.9,5.1-2.8,7.9c-0.9,1.3-2.3,3.1-4.3,5.4c-3.5,4.1-6.7,8.1-9.5,12.4h11.4c1.9,0,3.1-0.8,3.8-2.4c0.3-1,0.6-2.4,0.8-4.3
						H64v9.6H44.3z"/>
				</g>
			</g>
		</g>
	</g>
</g>
</svg>
