<?xml version="1.0" encoding="utf-8"?>
<!-- Generator: Adobe Illustrator 27.5.0, SVG Export Plug-In . SVG Version: 6.00 Build 0)  -->
<svg version="1.1" id="_レイヤー_2" xmlns="http://www.w3.org/2000/svg" xmlns:xlink="http://www.w3.org/1999/xlink" x="0px"
	 y="0px" viewBox="0 0 1279.8 175.7" style="enable-background:new 0 0 1279.8 175.7;" xml:space="preserve">
<style type="text/css">
	.st0{fill:#AE8F36;}
	.st1{fill:#FFFFFF;}
	.st2{fill:#E8C416;}
	.st3{fill:none;}
</style>
<g id="_レイヤー_1-2">
	<circle class="st0" cx="147" cy="77.6" r="77.6"/>
	<g>
		<path class="st1" d="M103.5,58.9c0.5,0.7,1.1,1.3,1.8,1.7c2.3-0.9,4.2-2.1,5.8-3.7c1.4,0.7,2.1,1.2,2.1,1.5c0,0.2-0.3,0.3-0.9,0.3
			h-0.5c-1.8,1-3.7,1.8-5.7,2.4c2,1,5.4,1.5,10.1,1.5c2.6,0,5.6-0.1,9-0.4c-0.4,0.6-0.7,1.3-0.9,2h-6.8c-5,0-8.5-0.4-10.4-1.2
			c-2-0.9-3.4-2-4.2-3.5c-1,1.5-2.1,2.9-3.2,4.2c0,0.8-0.1,1.2-0.4,1.2c-0.4,0-1-0.8-1.9-2.3c1.6-0.9,3-1.9,4.4-3.1v-8.2h-4.1
			l-0.3-0.8h4.2l1.1-1.4c1.2,1,1.9,1.6,1.9,1.9c0,0.1-0.1,0.3-0.3,0.3l-0.7,0.5C103.5,51.9,103.5,58.9,103.5,58.9z M99,38.8
			c3.2,1.5,4.8,3,4.8,4.6c0,0.8-0.4,1.2-1.1,1.2c-0.5,0-0.9-0.4-1.1-1.1c-0.5-1.5-1.5-2.9-3.1-4.1L99,38.8z M116.9,51.2v-2.8
			c2,0.1,2.9,0.3,2.9,0.7c0,0.2-0.4,0.4-1.2,0.7v1.4h2.4l1.3-1.8c0.1,0.1,0.1,0.1,0.2,0.2c0.6,0.5,1.1,1.1,1.6,1.7l-0.3,0.6h-5.1
			v3.5h3.3l1.4-1.8l0.3,0.3l0.2,0.2c0.5,0.4,0.9,1,1.3,1.5l-0.3,0.6H105l-0.3-0.8h5.5v-3.5h-4.3l-0.3-0.8h4.6v-2.9
			c1.9,0,2.9,0.3,2.9,0.7c0,0.2-0.4,0.5-1.2,0.7v1.4H116.9z M107.9,43.1v2.3c0,0.3,0.1,0.6,0.2,0.7c0.2,0.1,0.9,0.2,2.2,0.2
			c1.4,0,2.2-0.1,2.5-0.4c0.2-0.3,0.3-0.8,0.4-1.6l0.7,0.2c0,0.1,0,0.2,0,0.4c0,0.7,0.3,1.1,0.9,1.1v0c0,0.7-0.2,1.2-0.7,1.4
			c-0.5,0.2-1.6,0.3-3.4,0.3c-2.1,0-3.4-0.1-3.8-0.3c-0.4-0.2-0.5-0.8-0.5-1.6v-4.3c0.3,0.1,0.9,0.4,1.9,0.8h3.6v-2.4h-6l-0.3-0.8
			h6.1l1-1.3c1.1,0.9,1.6,1.4,1.6,1.6c0,0.2-0.1,0.3-0.2,0.4l-0.5,0.4v3.6h-1.6v-0.7H107.9z M116.9,55.4v-3.5h-4.9v3.5H116.9z
			 M117.4,43.1v2.1c0,0.4,0,0.6,0.2,0.8c0.2,0.2,1,0.2,2.3,0.2c1.5,0,2.4-0.2,2.6-0.5c0.2-0.4,0.4-0.9,0.5-1.6l0.7,0.2
			c0,0.6,0.1,1.1,0.2,1.3c0.1,0.2,0.4,0.3,0.8,0.3c0,0.8-0.3,1.2-0.9,1.4c-0.5,0.2-1.7,0.3-3.6,0.3c-2,0-3.3-0.2-3.8-0.4
			c-0.3-0.2-0.5-0.6-0.5-1.3v-4.4c0.6,0.2,1.2,0.5,1.8,0.8h3.7v-2.4h-5.9l-0.3-0.8h5.9l1.1-1.3c1.1,0.9,1.6,1.4,1.6,1.6
			c0,0.1-0.1,0.2-0.3,0.4l-0.6,0.4v3.6h-1.6v-0.8H117.4z M116.4,57.2c4.7,0.8,7.1,1.9,7.1,3.2c0,0.7-0.3,1-0.9,1
			c-0.3,0-0.6-0.1-1-0.5c-1.2-1.2-3.1-2.2-5.6-3.1L116.4,57.2z"/>
		<path class="st1" d="M157.7,56.5c0.1,0.5-0.3,1.2-1.4,1.4c-1.4,0.1-2.8-0.5-4.2-1.6c-1.5-1.1-3.3-3.2-4.7-4.8
			c-1.4-1.7-2.7-3.3-3.2-4c-0.7-0.8-1.3-1.4-1.8-1.4c-0.6,0-1.1,0.5-1.5,1.1c-0.5,0.6-1.6,2.4-2.1,3.2c-0.4,0.8-1.5,2.2-2.5,2.5
			c-1,0.3-1.8,0-2.5-0.3c-0.7-0.3-1.1-0.9-0.9-1.3c0.1-0.3,0.6-0.3,1-0.2c0.4,0,0.9,0,1.4-0.2c0.5-0.2,1.1-0.7,1.8-1.3
			c0.7-0.6,1.4-1.4,2-2c0.6-0.6,0.9-1,1.5-1.7c0.6-0.8,1.1-1.1,1.7-1.1c0.6-0.1,1.3,0.6,1.9,1.2c0.6,0.6,1.8,1.6,2.8,2.8
			c1,1.1,2.4,2.4,3.9,3.8c0.9,0.9,2.4,2,3.5,2.7c1.1,0.6,1.9,0.8,2.5,0.8C157.2,55.9,157.7,56,157.7,56.5z M152.5,47.8
			c-0.5-0.5-1.2-1-2-1.5c-0.3-0.2-0.4-0.4-0.3-0.7c0.1-0.2,0.4-0.1,0.6-0.1c0.5,0,1.1,0.2,1.8,0.4c0.7,0.2,1.7,0.8,2,1.3
			c0.3,0.6,0,1.1-0.5,1.3C153.7,48.6,152.9,48.3,152.5,47.8z M155.1,46.4c-0.5-0.6-1.1-1-2.1-1.4c-0.3-0.1-0.4-0.4-0.3-0.6
			c0.1-0.2,0.4-0.2,0.6-0.2c0.5,0,1.2,0.1,1.9,0.3c0.7,0.2,1.7,0.7,2.1,1.3c0.3,0.5,0.1,1.1-0.4,1.3
			C156.4,47.2,155.6,46.9,155.1,46.4z"/>
		<path class="st1" d="M187.8,59.6c-1.3,1.4-2.8,2.3-4.5,2.7c-1.7,0.5-3.4,0.4-5.5,0c-2.1-0.4-2.9-1.2-2.9-2.2c0-1,1.3-1.8,2.4-2
			c1.2-0.2,2.5-0.2,3.5,0.6c0.9,0.7,0.9,1.5,0.4,2.4c1.6-0.2,3.2-0.7,4.3-1.6c1.3-1.1,1.9-2.6,1.9-4.2c0-1.6-1.1-3.5-3-4.3
			c-1.9-0.8-4-0.9-6.1-0.2c-2.1,0.7-3.5,1.7-4.5,3.1c-1,1.3-1.8,2.9-2,3.8c-0.3,0.9-0.6,1.4-1,1.6c-0.2,0.1-0.6,0.3-1.1-0.2
			c-0.4-0.3-0.4-1-0.4-1.5c0-0.4,0.9-1.5,1.5-2.3c0.6-0.8,1.5-2.1,2.7-3.3c1.2-1.3,3-3.5,3.8-4.4c0.7-0.9,3.1-3.7,3.4-4.2
			c0.4-0.5,0.5-0.9,0.4-1c-0.2-0.2-0.8,0.1-1.1,0.3c-0.4,0.2-2,1.2-3,1.8c-1,0.5-1.7,0.8-2.6,0.8c-0.9,0-1.4-0.4-1.8-0.8
			c-0.3-0.3-0.5-0.9-0.4-1.1c0.1-0.3,0.5-0.4,0.8-0.3c0.3,0.1,0.7,0.2,1.2,0.2c0.4,0,0.9,0,1.9-0.5c1-0.4,2.4-1.1,3.5-1.7
			c1.2-0.6,1.9-1.1,2.5-1.1c0.7,0,1.4,0.4,1.8,0.9c0.4,0.5,0.5,0.8,0.4,1.1s-0.2,0.5-0.7,0.8c-0.5,0.3-1.5,1.2-2.4,2.1
			c-0.9,1-2,2.4-2.9,3.2c0,0-0.8,0.9-2.4,2.6c0.5-0.3,1-0.6,1.9-1c1.3-0.5,2.7-0.8,4.5-0.6c1.8,0.2,3.2,0.7,4.5,1.6s2.3,2.3,2.5,4.3
			C189.5,57,189,58.4,187.8,59.6z M178,59.1c-1.1,0-1.8,0.7-1.3,1.4c0.3,0.4,1.1,0.7,2.6,0.8C180.6,60,179.4,59.1,178,59.1z"/>
	</g>
	<g>
		<g>
			<path class="st1" d="M127.6,97.2c0.5-0.6,0.9-1.3,1.2-1.9c0-0.1-0.1-0.1-0.2-0.2c-0.5-0.6-1.1-1-1.8-1.6
				c-0.2-0.1-0.6-0.4-0.5-0.6c0.1-0.2,0.3-0.1,0.9,0.1c0.6,0.2,1.1,0.6,2.1,1.2c0.1-0.2,0.3-0.5,0.4-0.8c0.7-1.4,1.1-2.3,1.2-2.9
				c0.1-0.6,0-1.1-0.2-1.4c-0.2-0.3-0.5-0.6-0.3-0.8c0.2-0.3,0.6-0.2,1,0c0.6,0.2,1,0.6,1.2,1c0.3,0.4,0.2,0.8,0,1
				c-0.2,0.1-0.3,0.3-0.4,0.6c-0.1,0.3-0.2,0.7-0.5,1.3c-0.3,0.7-0.9,1.7-1.5,2.7c0.6,0.4,1.2,0.9,1.5,1.3c0.7,0.7,0.9,1.7,0.3,2
				c-0.6,0.3-1.3-0.1-1.8-1c-0.3-0.4-0.5-0.8-0.7-1.1c-0.8,1.2-1.3,1.9-2.4,3c-1.1,1.2-1.9,1.9-3.3,2.9c-0.5,0.4-0.8,0.4-0.9,0.3
				c-0.1-0.1,0.1-0.3,0.4-0.6c0.6-0.5,1.1-0.9,1.9-1.8C126.1,99.2,126.7,98.3,127.6,97.2z"/>
			<path class="st1" d="M157.3,95.8c0,0.3-0.3,0.3-0.8,0.3c-0.4-0.1-1.6-0.2-2.4-0.3s-2.5-0.1-3.2-0.1c-0.8,0.1-2.3,0.1-3.3,0.2
				c-0.8,0.1-1.7,0.3-2.5,0.3c-0.8,0-1.5-0.2-1.9-0.6c-0.4-0.3-0.6-0.8-0.4-1c0.4-0.3,1,0,1.5,0.1c0.5,0.2,1.5,0.3,2.3,0.2
				c0.9,0,2.7-0.1,3.6-0.1c0.9,0,3.4-0.1,4.2-0.1c0.9,0,1.7,0,2.2,0.2C157.1,95.1,157.3,95.5,157.3,95.8z"/>
			<path class="st1" d="M164.2,103c0.4-0.2,0.9-0.6,1.2-0.9c1.1-1,2-1.9,2.7-2.9c0.7-1,1.2-2,1.6-3.2c0.3-0.7,0.5-1.6,0.7-2.3
				c-0.6,0.1-1.1,0.1-1.4,0.2c-0.5,0-1.1,0.2-1.5,0.1c-0.5,0-1.2-0.1-1.7-0.5c-0.4-0.4-0.6-0.8-0.4-1c0.2-0.3,0.8-0.1,1.2,0
				c0.4,0.1,1,0.2,2,0.3c0.8,0,1.5,0,2.2-0.1c0,0,0,0,0,0c0.2-0.9,0.3-1.9,0.3-2.4c0-0.5-0.2-1-0.4-1.3c-0.2-0.3-0.3-0.6-0.2-0.7
				c0.1-0.2,0.4-0.2,0.9,0c0.4,0.1,0.7,0.3,1,0.6c0.2,0.3,0.3,0.6,0.2,0.8c-0.1,0.1-0.1,0.4-0.2,0.7c-0.1,0.7-0.2,1.4-0.4,2.2
				c0.5,0,1.1-0.1,1.6-0.2c0.8-0.1,1.3-0.2,1.6-0.3c0.4-0.1,0.7-0.3,0.9-0.5c0.2-0.2,0.5-0.2,0.9,0.1c0.4,0.3,0.7,0.6,0.8,0.9
				s0,0.5-0.1,0.6c-0.1,0.1-0.2,0.4-0.3,0.6c0,0.3-0.1,0.9-0.2,1.7c-0.1,0.9-0.3,1.8-0.6,3c-0.3,1.2-0.6,1.9-0.9,2.4
				c-0.3,0.5-0.6,0.6-1,0.5c-0.3-0.1-0.4-0.2-0.5-0.6s-0.3-0.7-0.6-1c-0.3-0.3-0.6-0.6-1-0.8c-0.2-0.1-0.3-0.3-0.3-0.4
				c0-0.1,0.2-0.1,0.4,0c0.4,0.1,0.8,0.3,1.3,0.4c0.6,0.2,0.9,0.1,1.1-0.3c0.2-0.4,0.3-0.9,0.5-1.9c0.2-1,0.3-1.8,0.4-3.1
				c0-0.4,0-0.6,0-0.7c-0.1-0.1-0.3-0.1-0.4-0.2s-0.3,0-0.4,0c-0.1,0-0.3,0.1-1,0.2c-0.6,0.1-1.3,0.2-2.6,0.3
				c-0.1,0.2-0.1,0.3-0.2,0.6c-0.5,1.2-0.9,2.2-1.4,3.2c-0.5,1-1,1.8-1.8,2.7c-0.7,0.9-1.6,1.7-2.5,2.4c-0.4,0.3-1,0.7-1.4,0.9
				C164.1,103.4,163.9,103.2,164.2,103z"/>
			<path class="st1" d="M199.9,95.8c0,0.3-0.3,0.3-0.8,0.3c-0.4-0.1-1.6-0.2-2.4-0.3s-2.5-0.1-3.2-0.1c-0.8,0.1-2.3,0.1-3.3,0.2
				c-0.8,0.1-1.7,0.3-2.5,0.3c-0.8,0-1.5-0.2-1.9-0.6c-0.4-0.3-0.6-0.8-0.4-1c0.4-0.3,1,0,1.5,0.1c0.5,0.2,1.5,0.3,2.3,0.2
				c0.9,0,2.7-0.1,3.6-0.1c0.9,0,3.4-0.1,4.2-0.1c0.9,0,1.7,0,2.2,0.2C199.8,95.1,200,95.5,199.9,95.8z"/>
		</g>
		<path class="st2" d="M93,116.4v-2.3c2.2-3.8,5.8-9,10.6-15.5c4.3-6,6.4-10.6,6.4-13.8c0-1.8-0.4-3.6-1.3-4.9
			c-1.2-1.8-2.9-2.7-5.1-2.7c-1.7,0-3.1,0.5-4.3,1.6c-1.2,1.1-1.9,2.5-2.1,4.3c1.3,0.4,2,1.2,2,2.6c0,1.8-0.9,2.7-2.7,2.7
			c-2,0-2.9-1.2-2.9-3.5c0-2.4,0.9-4.6,2.7-6.5c2-2,4.5-3,7.4-3c2.6,0,4.8,0.6,6.6,2c2.4,1.8,3.5,4.3,3.5,7.4c0,2.8-1,5.7-3.1,8.7
			c-1,1.4-2.5,3.4-4.7,5.9c-3.9,4.5-7.4,9-10.4,13.6h12.6c2.1,0,3.4-0.9,4.1-2.7c0.4-1.1,0.7-2.7,0.9-4.7h1.3v10.6H93z"/>
	</g>
	<g>
		<path class="st1" d="M473.5,22.3c0-2.8,0-3.3,0-3.9c0-0.6-0.2-0.9-0.6-1c-0.2-0.1-0.4-0.1-0.6-0.1c-0.1,0-0.1,0-0.1-0.1
			c0-0.1,0.1-0.1,0.3-0.1c0.6,0,1.7,0.1,1.8,0.1s1.2-0.1,1.8-0.1c0.2,0,0.3,0,0.3,0.1c0,0.1-0.1,0.1-0.1,0.1c-0.1,0-0.2,0-0.5,0.1
			c-0.5,0.1-0.6,0.4-0.7,1c0,0.6,0,1.1,0,3.9v3.2c0,1.7,0,3.2,0.1,3.9c0.1,0.5,0.2,0.9,0.7,1c0.3,0,0.6,0.1,0.7,0.1
			c0.2,0,0.2,0.1,0.2,0.1c0,0.1-0.1,0.1-0.3,0.1c-1,0-2.1-0.1-2.2-0.1s-1.2,0.1-1.8,0.1c-0.2,0-0.3,0-0.3-0.1c0-0.1,0-0.1,0.2-0.1
			c0.1,0,0.3,0,0.5-0.1c0.4-0.1,0.5-0.5,0.5-1c0.1-0.8,0.1-2.2,0.1-3.9V22.3z"/>
		<path class="st1" d="M483.4,19.6c0-0.6,0.1-0.7,0.2-0.7c0.1,0,0.4,0.4,0.6,0.5c0.2,0.2,2.7,2.7,5.2,5.3c1.4,1.4,3.2,3.2,3.7,3.7
			l-0.2-7.5c0-1-0.1-1.3-0.6-1.4c-0.3-0.1-0.6-0.1-0.7-0.1c-0.2,0-0.2-0.1-0.2-0.1c0-0.1,0.1-0.1,0.3-0.1c0.8,0,1.5,0.1,1.7,0.1
			c0.2,0,0.7-0.1,1.4-0.1c0.2,0,0.3,0,0.3,0.1c0,0.1-0.1,0.1-0.2,0.1c-0.1,0-0.3,0-0.5,0.1c-0.4,0.1-0.5,0.3-0.5,1.4l0,9
			c0,0.9,0,1-0.2,1s-0.3-0.1-1.2-1c-0.1,0-2.6-2.5-4.1-4.1c-1.9-1.9-3.7-3.8-4.1-4.3l0.2,7c0,1.2,0.1,1.7,0.6,1.8
			c0.3,0.1,0.6,0.1,0.7,0.1c0.1,0,0.2,0.1,0.2,0.1c0,0.1-0.1,0.1-0.3,0.1c-1,0-1.6-0.1-1.7-0.1s-0.8,0.1-1.6,0.1
			c-0.2,0-0.3,0-0.3-0.1c0-0.1,0.1-0.1,0.3-0.1c0.1,0,0.3,0,0.6-0.1c0.4-0.1,0.5-0.6,0.5-1.9C483.4,19.9,483.4,22.6,483.4,19.6z"/>
		<path class="st1" d="M500.9,30.5c-0.2-0.1-0.2-0.2-0.2-0.6c0-0.8,0.1-1.4,0.1-1.7c0-0.2,0.1-0.3,0.1-0.3c0.1,0,0.1,0.1,0.1,0.2
			c0,0.1,0,0.3,0.1,0.5c0.2,1.2,1.3,1.6,2.3,1.6c1.5,0,2.2-1,2.2-1.9c0-1-0.5-1.7-1.8-2.7l-0.7-0.6c-1.7-1.4-2.1-2.3-2.1-3.4
			c0-1.7,1.3-2.8,3.3-2.8c0.6,0,1.1,0.1,1.5,0.1c0.3,0.1,0.5,0.1,0.6,0.1s0.2,0,0.2,0.1c0,0.1-0.1,0.7-0.1,1.7c0,0.3,0,0.4-0.1,0.4
			c-0.1,0-0.1-0.1-0.1-0.2c0-0.2-0.1-0.5-0.2-0.8c-0.1-0.2-0.5-0.8-2-0.8c-1.1,0-1.9,0.6-1.9,1.7c0,0.8,0.4,1.4,1.9,2.5l0.4,0.3
			c1.9,1.4,2.4,2.4,2.4,3.7c0,0.6-0.3,1.8-1.4,2.6c-0.7,0.5-1.6,0.6-2.4,0.6C502.3,30.9,501.6,30.8,500.9,30.5z"/>
		<path class="st1" d="M514.5,25.7c0,2.2,0.4,3.1,1.1,3.7c0.8,0.7,1.6,0.8,2.4,0.8c0.9,0,1.8-0.3,2.5-1c0.7-0.8,0.9-2.2,0.9-3.8
			v-1.9c0-2.4,0-2.8,0-3.3c0-0.5-0.1-0.8-0.7-0.9c-0.1,0-0.3,0-0.5,0c-0.1,0-0.2-0.1-0.2-0.1c0-0.1,0.1-0.1,0.3-0.1
			c0.8,0,1.7,0.1,1.7,0.1c0.1,0,0.9-0.1,1.4-0.1c0.2,0,0.3,0,0.3,0.1c0,0.1-0.1,0.1-0.2,0.1c-0.1,0-0.1,0-0.3,0
			c-0.5,0.1-0.6,0.4-0.6,0.9c0,0.5,0,0.9,0,3.3v1.6c0,1.6-0.2,3.6-1.5,4.7c-1.2,1-2.3,1.1-3.3,1.1c-0.5,0-2.2,0-3.4-1.1
			c-0.8-0.7-1.3-1.8-1.3-4v-2.2c0-2.4,0-2.8-0.1-3.3c0-0.5-0.1-0.8-0.7-0.9c-0.1,0-0.3,0-0.5,0c-0.1,0-0.2-0.1-0.2-0.1
			c0-0.1,0.1-0.1,0.3-0.1c0.8,0,1.7,0.1,1.9,0.1c0.1,0,1.2-0.1,1.7-0.1c0.2,0,0.3,0,0.3,0.1c0,0.1-0.1,0.1-0.2,0.1
			c-0.1,0-0.3,0-0.4,0c-0.4,0.1-0.5,0.4-0.5,0.9c0,0.5,0,0.9,0,3.3V25.7z"/>
		<path class="st1" d="M531.4,26.3c0,2.1,0.1,3.1,0.4,3.4c0.3,0.3,0.6,0.4,1.9,0.4c0.8,0,1.5,0,1.9-0.5c0.2-0.3,0.3-0.6,0.3-0.9
			c0-0.1,0.1-0.2,0.1-0.2c0.1,0,0.1,0.1,0.1,0.2c0,0.2-0.1,1.2-0.2,1.6c-0.1,0.4-0.1,0.5-1,0.5c-1.2,0-2.6-0.1-4.4-0.1
			c-0.6,0-1,0.1-1.6,0.1c-0.2,0-0.3,0-0.3-0.1c0-0.1,0.1-0.1,0.2-0.1c0.1,0,0.3,0,0.4,0c0.3-0.1,0.4-0.4,0.5-0.8
			c0.1-0.7,0.1-1.9,0.1-3.3v-2.7c0-2.4,0-2.8,0-3.3c0-0.5-0.1-0.8-0.7-0.9c-0.1,0-0.3,0-0.4,0c-0.1,0-0.2-0.1-0.2-0.1
			c0-0.1,0.1-0.1,0.3-0.1c0.8,0,1.8,0.1,1.9,0.1c0.3,0,1.4-0.1,1.9-0.1c0.2,0,0.2,0.1,0.2,0.1c0,0.1-0.1,0.1-0.2,0.1
			c-0.1,0-0.3,0-0.5,0c-0.5,0.1-0.6,0.4-0.6,0.9c0,0.5,0,0.9,0,3.3V26.3z"/>
		<path class="st1" d="M543,26.3c-0.1,0-0.1,0.1-0.2,0.1l-0.8,2.2c-0.2,0.5-0.3,1-0.3,1.3c0,0.3,0.2,0.5,0.6,0.5h0.1
			c0.2,0,0.2,0.1,0.2,0.1c0,0.1-0.1,0.1-0.3,0.1c-0.4,0-1.2-0.1-1.4-0.1c-0.2,0-1,0.1-1.7,0.1c-0.2,0-0.3,0-0.3-0.1
			c0-0.1,0.1-0.1,0.2-0.1c0.1,0,0.3,0,0.4,0c0.8-0.1,1.1-0.7,1.4-1.4l3.6-9.5c0.2-0.5,0.3-0.6,0.4-0.6c0.1,0,0.2,0.1,0.4,0.6
			c0.3,0.6,2.7,6.9,3.7,9.1c0.6,1.4,1.1,1.7,1.4,1.7c0.2,0.1,0.5,0.1,0.6,0.1s0.2,0,0.2,0.1s-0.1,0.1-0.3,0.1c-0.2,0-1.5,0-2.7,0
			c-0.3,0-0.5,0-0.5-0.1c0-0.1,0.1-0.1,0.1-0.1c0.1,0,0.2-0.1,0.1-0.4l-1.4-3.6c0-0.1-0.1-0.1-0.1-0.1H543z M546.1,25.7
			c0.1,0,0.1-0.1,0.1-0.1l-1.4-4c-0.1-0.3-0.1-0.3-0.2,0l-1.3,4c0,0.1,0,0.1,0,0.1H546.1z"/>
		<path class="st1" d="M559.7,26.2c0,1.4,0,2.7,0.1,3.3c0.1,0.4,0.1,0.7,0.5,0.8c0.2,0.1,0.6,0.1,0.7,0.1c0.1,0,0.2,0.1,0.2,0.1
			c0,0.1-0.1,0.1-0.2,0.1c-0.9,0-2-0.1-2.1-0.1s-1.1,0.1-1.6,0.1c-0.2,0-0.3,0-0.3-0.1c0-0.1,0.1-0.1,0.2-0.1c0.1,0,0.3,0,0.4,0
			c0.3-0.1,0.4-0.3,0.5-0.9c0.1-0.6,0.1-1.9,0.1-3.3v-6.4c-0.6,0-1.5,0-2.3,0c-1.2,0-1.4,0.2-1.7,0.6c-0.2,0.3-0.2,0.5-0.3,0.6
			c-0.1,0.1-0.1,0.1-0.2,0.1c-0.1,0-0.1-0.1-0.1-0.2c0-0.1,0.3-1.3,0.4-1.8c0.1-0.2,0.1-0.3,0.2-0.3c0.1,0,0.5,0.2,0.8,0.2
			c0.6,0.1,1.1,0.1,1.2,0.1h5.9c0.5,0,1,0,1.3-0.1c0.2-0.1,0.3-0.1,0.3-0.1c0.1,0,0.1,0.1,0.1,0.2c0,0.5,0,1.7,0,1.8
			c0,0.2-0.1,0.2-0.1,0.2c-0.1,0-0.1-0.1-0.1-0.2c0-0.1,0-0.1,0-0.3c-0.1-0.7-0.3-0.9-2.1-0.9c-0.7,0-1.2,0-1.8,0V26.2z"/>
		<path class="st1" d="M570.1,23.5c0-2.4,0-2.8,0-3.3s-0.1-0.8-0.5-0.8c-0.2,0-0.3,0-0.4-0.1c-0.1,0-0.2-0.1-0.2-0.1
			c0-0.1,0.1-0.1,0.3-0.1c0.6,0,1.6,0.1,1.6,0.1c0.1,0,1.1-0.1,1.6-0.1c0.2,0,0.3,0,0.3,0.1c0,0.1-0.1,0.1-0.2,0.1
			c-0.1,0-0.2,0-0.3,0c-0.5,0.1-0.6,0.3-0.6,0.9c0,0.5,0,0.9,0,3.3v2.7c0,1.4,0,2.6,0.1,3.3c0.1,0.5,0.1,0.7,0.6,0.8
			c0.2,0.1,0.6,0.1,0.7,0.1c0.2,0,0.2,0.1,0.2,0.1s-0.1,0.1-0.3,0.1c-0.9,0-2-0.1-2.1-0.1c-0.1,0-1.1,0.1-1.6,0.1
			c-0.2,0-0.3,0-0.3-0.1c0-0.1,0.1-0.1,0.2-0.1c0.1,0,0.3,0,0.4-0.1c0.3-0.1,0.4-0.4,0.4-0.9c0.1-0.6,0.1-1.9,0.1-3.3V23.5z"/>
		<path class="st1" d="M578.2,24.9c0-2.4,1.9-6,6.3-6c3.6,0,6.3,2.1,6.3,5.7c0,3.4-2.5,6.2-6.4,6.2C580,30.9,578.2,27.6,578.2,24.9z
			 M589.1,25.1c0-3.6-2.2-5.6-4.7-5.6c-2.5,0-4.5,1.5-4.5,5c0,3.5,2,5.9,5,5.9C586.1,30.3,589.1,29.7,589.1,25.1z"/>
		<path class="st1" d="M597,19.6c0-0.6,0.1-0.7,0.2-0.7c0.1,0,0.4,0.4,0.6,0.5c0.2,0.2,2.7,2.7,5.2,5.3c1.4,1.4,3.2,3.2,3.7,3.7
			l-0.2-7.5c0-1-0.1-1.3-0.6-1.4c-0.3-0.1-0.6-0.1-0.7-0.1c-0.2,0-0.2-0.1-0.2-0.1c0-0.1,0.1-0.1,0.3-0.1c0.8,0,1.5,0.1,1.7,0.1
			c0.2,0,0.7-0.1,1.4-0.1c0.2,0,0.3,0,0.3,0.1c0,0.1-0.1,0.1-0.2,0.1c-0.1,0-0.3,0-0.5,0.1c-0.4,0.1-0.5,0.3-0.5,1.4l0,9
			c0,0.9,0,1-0.2,1s-0.3-0.1-1.2-1c-0.1,0-2.6-2.5-4.1-4.1c-1.9-1.9-3.7-3.8-4.1-4.3l0.2,7c0,1.2,0.1,1.7,0.6,1.8
			c0.3,0.1,0.6,0.1,0.7,0.1c0.1,0,0.2,0.1,0.2,0.1c0,0.1-0.1,0.1-0.3,0.1c-1,0-1.6-0.1-1.7-0.1s-0.8,0.1-1.6,0.1
			c-0.2,0-0.3,0-0.3-0.1c0-0.1,0.1-0.1,0.3-0.1c0.1,0,0.3,0,0.6-0.1c0.4-0.1,0.5-0.6,0.5-1.9C597,19.9,597,22.6,597,19.6z"/>
		<path class="st1" d="M624.6,22.3c0-2.8,0-3.3,0-3.9c0-0.6-0.2-0.9-0.8-1c-0.1,0-0.4,0-0.5-0.1c-0.1,0-0.2,0-0.2-0.1
			c0-0.1,0.1-0.1,0.3-0.1c0.4,0,0.9,0,2,0.1c0.1,0,3.7,0,4.1,0c0.4,0,0.7-0.1,0.8-0.1c0.1-0.1,0.1-0.1,0.2-0.1
			c0.1,0,0.1,0.1,0.1,0.2c0,0.1-0.1,0.3-0.1,0.8c0,0.3,0,0.6-0.1,1.1c0,0.2-0.1,0.3-0.1,0.3c-0.1,0-0.1-0.1-0.1-0.2
			c0-0.2,0-0.5-0.1-0.6c-0.1-0.4-0.5-0.6-1.3-0.7c-0.3,0-2.3-0.1-2.5-0.1c-0.1,0-0.1,0.1-0.1,0.2v5c0,0.1,0,0.2,0.1,0.2
			c0.2,0,2.4,0,2.9,0c0.5,0,0.7-0.1,0.9-0.3c0.1-0.1,0.1-0.2,0.2-0.2c0.1,0,0.1,0,0.1,0.1c0,0.1-0.1,0.4-0.1,1
			c-0.1,0.6-0.1,1-0.1,1.2c0,0.2-0.1,0.3-0.1,0.3c-0.1,0-0.1-0.1-0.1-0.3c0-0.2,0-0.3-0.1-0.5c-0.1-0.3-0.3-0.5-0.9-0.6
			c-0.5-0.1-2.3-0.1-2.6-0.1c-0.1,0-0.1,0.1-0.1,0.1v1.6c0,0.6,0,2.7,0,3.1c0,0.7,0.1,1.1,0.6,1.3c0.3,0.1,0.8,0.2,1.5,0.2
			c0.5,0,1.1,0,1.6-0.2c0.6-0.2,0.8-0.6,0.9-1.3c0-0.2,0.1-0.3,0.2-0.3c0.1,0,0.1,0.1,0.1,0.3c0,0.1-0.1,1.4-0.2,1.7
			c-0.1,0.5-0.3,0.5-1,0.5c-1.3,0-1.9,0-2.6-0.1c-0.7,0-1.5-0.1-2.2-0.1c-0.4,0-0.9,0.1-1.3,0.1c-0.2,0-0.3,0-0.3-0.1
			c0-0.1,0.1-0.1,0.2-0.1c0.2,0,0.3,0,0.4-0.1c0.4-0.1,0.6-0.3,0.6-1.7c0-0.7,0-1.6,0-3.2V22.3z"/>
		<path class="st1" d="M637.6,19.6c0-0.6,0.1-0.7,0.2-0.7c0.1,0,0.4,0.4,0.6,0.5c0.2,0.2,2.7,2.7,5.2,5.3c1.4,1.4,3.2,3.2,3.7,3.7
			l-0.2-7.5c0-1-0.1-1.3-0.6-1.4c-0.3-0.1-0.6-0.1-0.7-0.1c-0.2,0-0.2-0.1-0.2-0.1c0-0.1,0.1-0.1,0.3-0.1c0.8,0,1.5,0.1,1.7,0.1
			c0.2,0,0.7-0.1,1.4-0.1c0.2,0,0.3,0,0.3,0.1c0,0.1-0.1,0.1-0.2,0.1c-0.1,0-0.3,0-0.5,0.1c-0.4,0.1-0.5,0.3-0.5,1.4l0,9
			c0,0.9,0,1-0.2,1s-0.3-0.1-1.2-1c-0.1,0-2.6-2.5-4.1-4.1c-1.9-1.9-3.7-3.8-4.1-4.3l0.2,7c0,1.2,0.1,1.7,0.6,1.8
			c0.3,0.1,0.6,0.1,0.7,0.1c0.1,0,0.2,0.1,0.2,0.1c0,0.1-0.1,0.1-0.3,0.1c-1,0-1.6-0.1-1.7-0.1s-0.8,0.1-1.6,0.1
			c-0.2,0-0.3,0-0.3-0.1c0-0.1,0.1-0.1,0.3-0.1c0.1,0,0.3,0,0.6-0.1c0.4-0.1,0.5-0.6,0.5-1.9C637.6,19.9,637.6,22.6,637.6,19.6z"/>
		<path class="st1" d="M659.5,26.2c0,1.4,0,2.7,0.1,3.3c0.1,0.4,0.1,0.7,0.5,0.8c0.2,0.1,0.6,0.1,0.7,0.1c0.1,0,0.2,0.1,0.2,0.1
			c0,0.1-0.1,0.1-0.2,0.1c-0.9,0-2-0.1-2.1-0.1s-1.1,0.1-1.6,0.1c-0.2,0-0.3,0-0.3-0.1c0-0.1,0.1-0.1,0.2-0.1c0.1,0,0.3,0,0.4,0
			c0.3-0.1,0.4-0.3,0.5-0.9c0.1-0.6,0.1-1.9,0.1-3.3v-6.4c-0.6,0-1.5,0-2.3,0c-1.2,0-1.4,0.2-1.7,0.6c-0.2,0.3-0.2,0.5-0.3,0.6
			c-0.1,0.1-0.1,0.1-0.2,0.1c-0.1,0-0.1-0.1-0.1-0.2c0-0.1,0.3-1.3,0.4-1.8c0.1-0.2,0.1-0.3,0.2-0.3c0.1,0,0.5,0.2,0.8,0.2
			c0.6,0.1,1.1,0.1,1.2,0.1h5.9c0.5,0,1,0,1.3-0.1c0.2-0.1,0.3-0.1,0.3-0.1c0.1,0,0.1,0.1,0.1,0.2c0,0.5,0,1.7,0,1.8
			c0,0.2-0.1,0.2-0.1,0.2c-0.1,0-0.1-0.1-0.1-0.2c0-0.1,0-0.1,0-0.3c-0.1-0.7-0.3-0.9-2.1-0.9c-0.7,0-1.2,0-1.8,0V26.2z"/>
		<path class="st1" d="M669.9,23.5c0-2.4,0-2.8,0-3.3c0-0.5-0.2-0.8-0.7-0.9c-0.1,0-0.3,0-0.4,0c-0.1,0-0.2,0-0.2-0.1
			c0-0.1,0.1-0.1,0.2-0.1c0.8,0,1.9,0.1,1.9,0.1c0.2,0,1.4-0.1,1.9-0.1c1,0,2.1,0.1,3,0.7c0.3,0.3,1.1,1,1.1,2.2
			c0,1-0.5,2.2-1.9,3.4c1.3,1.6,2.4,3,3.3,3.9c0.9,0.9,1.4,1,1.9,1.1c0.1,0,0.5,0,0.6,0c0.1,0,0.2,0.1,0.2,0.1
			c0,0.1-0.1,0.1-0.3,0.1h-1.3c-0.8,0-1.2-0.1-1.6-0.2c-0.8-0.3-1.3-1.1-2.2-2.3c-0.7-0.9-1.4-1.8-1.7-2.2c-0.1-0.1-0.1-0.1-0.2-0.1
			l-1.9,0c-0.1,0-0.1,0-0.1,0.1v0.3c0,1.4,0,2.8,0.1,3.4c0.1,0.4,0.1,0.8,0.7,0.9c0.2,0,0.4,0,0.5,0c0.2,0,0.2,0.1,0.2,0.1
			c0,0.1-0.1,0.1-0.3,0.1c-0.9,0-1.9-0.1-2-0.1c-0.3,0-1.1,0.1-1.6,0.1c-0.2,0-0.3,0-0.3-0.1c0-0.1,0.1-0.1,0.2-0.1
			c0.1,0,0.3,0,0.4,0c0.3-0.1,0.4-0.3,0.5-0.7c0.1-0.6,0.1-2.1,0.1-3.5V23.5z M671.3,24.8c0,0.1,0,0.2,0.1,0.2
			c0.2,0.1,1,0.2,1.6,0.2c0.4,0,0.8,0,1.2-0.3c0.5-0.3,0.9-1.1,0.9-2.3c0-2-1-3-2.6-3c-0.5,0-0.8,0-1,0.1c-0.1,0-0.1,0.1-0.1,0.2
			V24.8z"/>
		<path class="st1" d="M685.6,26.3c-0.1,0-0.1,0.1-0.2,0.1l-0.8,2.2c-0.2,0.5-0.3,1-0.3,1.3c0,0.3,0.2,0.5,0.6,0.5h0.1
			c0.2,0,0.2,0.1,0.2,0.1c0,0.1-0.1,0.1-0.3,0.1c-0.4,0-1.2-0.1-1.4-0.1c-0.2,0-1,0.1-1.7,0.1c-0.2,0-0.3,0-0.3-0.1
			c0-0.1,0.1-0.1,0.2-0.1c0.1,0,0.3,0,0.4,0c0.8-0.1,1.1-0.7,1.4-1.4l3.6-9.5c0.2-0.5,0.3-0.6,0.4-0.6c0.1,0,0.2,0.1,0.4,0.6
			c0.3,0.6,2.7,6.9,3.7,9.1c0.6,1.4,1.1,1.7,1.4,1.7c0.2,0.1,0.5,0.1,0.6,0.1s0.2,0,0.2,0.1s-0.1,0.1-0.3,0.1c-0.2,0-1.5,0-2.7,0
			c-0.3,0-0.5,0-0.5-0.1c0-0.1,0.1-0.1,0.1-0.1c0.1,0,0.2-0.1,0.1-0.4l-1.4-3.6c0-0.1-0.1-0.1-0.1-0.1H685.6z M688.7,25.7
			c0.1,0,0.1-0.1,0.1-0.1l-1.4-4c-0.1-0.3-0.1-0.3-0.2,0l-1.3,4c0,0.1,0,0.1,0,0.1H688.7z"/>
		<path class="st1" d="M698.3,19.6c0-0.6,0.1-0.7,0.2-0.7c0.1,0,0.4,0.4,0.6,0.5c0.2,0.2,2.7,2.7,5.2,5.3c1.4,1.4,3.2,3.2,3.7,3.7
			l-0.2-7.5c0-1-0.1-1.3-0.6-1.4c-0.3-0.1-0.6-0.1-0.7-0.1c-0.2,0-0.2-0.1-0.2-0.1c0-0.1,0.1-0.1,0.3-0.1c0.8,0,1.5,0.1,1.7,0.1
			c0.2,0,0.7-0.1,1.4-0.1c0.2,0,0.3,0,0.3,0.1c0,0.1-0.1,0.1-0.2,0.1c-0.1,0-0.3,0-0.5,0.1c-0.4,0.1-0.5,0.3-0.5,1.4l0,9
			c0,0.9,0,1-0.2,1s-0.3-0.1-1.2-1c-0.1,0-2.6-2.5-4.1-4.1c-1.9-1.9-3.7-3.8-4.1-4.3l0.2,7c0,1.2,0.1,1.7,0.6,1.8
			c0.3,0.1,0.6,0.1,0.7,0.1c0.1,0,0.2,0.1,0.2,0.1c0,0.1-0.1,0.1-0.3,0.1c-1,0-1.6-0.1-1.7-0.1s-0.8,0.1-1.6,0.1
			c-0.2,0-0.3,0-0.3-0.1c0-0.1,0.1-0.1,0.3-0.1c0.1,0,0.3,0,0.6-0.1c0.4-0.1,0.5-0.6,0.5-1.9C698.3,19.9,698.3,22.6,698.3,19.6z"/>
		<path class="st1" d="M716.9,29.2c-1.5-1.3-1.9-3.1-1.9-4.6c0-1,0.4-2.8,1.8-4.2c1-0.9,2.4-1.6,4.8-1.6c0.8,0,1.5,0.1,2.4,0.2
			c0.6,0.1,1.2,0.2,1.6,0.2c0.1,0,0.2,0.1,0.2,0.2c0,0.1-0.1,0.3-0.1,0.9c0,0.5,0,1.4,0,1.7c0,0.3-0.1,0.3-0.1,0.3
			c-0.1,0-0.1-0.1-0.1-0.3c0-0.5-0.3-1.2-0.7-1.6c-0.5-0.5-1.8-0.9-3.2-0.9c-2,0-2.9,0.6-3.5,1c-1.2,1.1-1.4,2.4-1.4,3.9
			c0,3,2.4,5.6,5.6,5.6c1.2,0,2.1-0.1,2.8-0.7c0.3-0.3,0.5-0.8,0.6-1.3c0-0.2,0.1-0.3,0.2-0.3c0.1,0,0.1,0.1,0.1,0.3
			c0,0.1-0.2,1.6-0.4,2c-0.1,0.3-0.2,0.3-0.4,0.5c-0.6,0.3-1.8,0.4-2.8,0.4C719.8,30.9,718.2,30.3,716.9,29.2z"/>
		<path class="st1" d="M732.4,23.5c0-2.4,0-2.8,0-3.3c0-0.5-0.2-0.8-0.7-0.9c-0.1,0-0.3,0-0.4,0c-0.1,0-0.2-0.1-0.2-0.1
			c0-0.1,0.1-0.1,0.3-0.1c0.4,0,0.8,0,1.9,0.1c0.1,0,3.3,0,3.7,0c0.4,0,0.6,0,0.7-0.1c0.1,0,0.1-0.1,0.2-0.1c0,0,0.1,0,0.1,0.1
			c0,0.1-0.1,0.4-0.1,0.8c0,0.3,0,0.6-0.1,0.9c0,0.2,0,0.3-0.1,0.3c-0.1,0-0.1-0.1-0.1-0.2c0-0.3-0.1-0.5-0.1-0.6
			c-0.1-0.4-0.3-0.5-1.2-0.5c-0.2,0-2,0-2.1,0c-0.1,0-0.1,0-0.1,0.1V24c0,0.1,0,0.2,0.1,0.2c0.2,0,2.1,0,2.4-0.1
			c0.4,0,0.7-0.1,0.8-0.3c0.1-0.1,0.1-0.1,0.2-0.1c0,0,0.1,0,0.1,0.1c0,0.1-0.1,0.4-0.1,1c-0.1,0.5-0.1,0.9-0.1,1.1
			c0,0.1-0.1,0.2-0.1,0.2c-0.1,0-0.1-0.1-0.1-0.2c0-0.1,0-0.3-0.1-0.4c-0.1-0.2-0.2-0.5-0.9-0.5c-0.4,0-1.9-0.1-2.2-0.1
			c-0.1,0-0.1,0.1-0.1,0.1v1.3c0,0.6,0,2.1,0,2.4c0,0.7,0.1,1,0.5,1.2c0.3,0.1,0.7,0.2,1.3,0.2c0.3,0,0.9,0,1.4-0.1
			c0.5-0.2,0.7-0.5,0.8-1.2c0-0.2,0.1-0.3,0.2-0.3c0.1,0,0.1,0.2,0.1,0.3c0,0.1-0.1,1.3-0.2,1.6c-0.1,0.4-0.2,0.4-0.8,0.4
			c-1.2,0-1.7,0-2.3,0c-0.6,0-1.5-0.1-2.1-0.1c-0.4,0-0.8,0.1-1.2,0.1c-0.2,0-0.3,0-0.3-0.1c0-0.1,0.1-0.1,0.2-0.1
			c0.1,0,0.2,0,0.4-0.1c0.3-0.1,0.5-0.3,0.6-1.4c0-0.6,0-1.4,0-2.7V23.5z"/>
		<path class="st1" d="M754.2,22.3c0-2.8,0-3.3,0-3.9c0-0.6-0.1-0.9-0.7-1c-0.1,0-0.4-0.1-0.6-0.1c-0.1,0-0.2,0-0.2-0.1
			c0-0.1,0.1-0.1,0.3-0.1c0.8,0,1.9,0.1,2,0.1c0.2,0,1.4-0.1,2.4-0.1c1.8,0,5.1-0.2,7.2,2.1c0.9,0.9,1.7,2.4,1.7,4.6
			c0,2.3-0.9,4-1.9,5.1c-0.8,0.8-2.4,2.1-5.5,2.1c-0.8,0-1.7-0.1-2.5-0.1c-0.8-0.1-1.4-0.1-1.5-0.1c0,0-0.3,0-0.7,0
			c-0.4,0-0.8,0-1,0c-0.2,0-0.3,0-0.3-0.1c0-0.1,0-0.1,0.2-0.1c0.2,0,0.3,0,0.5-0.1c0.4-0.1,0.5-0.5,0.5-1c0.1-0.8,0.1-2.2,0.1-3.9
			V22.3z M755.7,24.2c0,1.9,0,3.6,0,3.9c0,0.5,0.1,1.2,0.2,1.4c0.2,0.3,0.9,0.7,3.1,0.7c1.7,0,3.2-0.6,4.3-1.7
			c0.9-0.9,1.4-2.6,1.4-4.3c0-2.3-1-3.8-1.7-4.5c-1.7-1.8-3.7-2-5.9-2c-0.4,0-1,0.1-1.2,0.1c-0.2,0.1-0.2,0.2-0.2,0.4
			c0,0.6,0,2.4,0,3.8V24.2z"/>
		<path class="st1" d="M771.3,24.9c0-2.4,1.9-6,6.3-6c3.6,0,6.3,2.1,6.3,5.7c0,3.4-2.5,6.2-6.4,6.2
			C773.1,30.9,771.3,27.6,771.3,24.9z M782.2,25.1c0-3.6-2.2-5.6-4.7-5.6c-2.5,0-4.5,1.5-4.5,5c0,3.5,2,5.9,5,5.9
			C779.2,30.3,782.2,29.7,782.2,25.1z"/>
		<path class="st1" d="M788.8,24.9c0-2.4,1.9-6,6.3-6c3.6,0,6.3,2.1,6.3,5.7c0,3.4-2.5,6.2-6.4,6.2
			C790.6,30.9,788.8,27.6,788.8,24.9z M799.7,25.1c0-3.6-2.2-5.6-4.7-5.6c-2.5,0-4.5,1.5-4.5,5c0,3.5,2,5.9,5,5.9
			C796.7,30.3,799.7,29.7,799.7,25.1z"/>
		<path class="st1" d="M808.1,23.5c0-2.4,0-2.8,0-3.3c0-0.5-0.2-0.8-0.7-0.9c-0.1,0-0.3,0-0.4,0c-0.1,0-0.2,0-0.2-0.1
			c0-0.1,0.1-0.1,0.2-0.1c0.8,0,1.9,0.1,1.9,0.1c0.2,0,1.4-0.1,1.9-0.1c1,0,2.1,0.1,3,0.7c0.3,0.3,1.1,1,1.1,2.2
			c0,1-0.5,2.2-1.9,3.4c1.3,1.6,2.4,3,3.3,3.9c0.9,0.9,1.4,1,1.9,1.1c0.1,0,0.5,0,0.6,0c0.1,0,0.2,0.1,0.2,0.1
			c0,0.1-0.1,0.1-0.3,0.1h-1.3c-0.8,0-1.2-0.1-1.6-0.2c-0.8-0.3-1.3-1.1-2.2-2.3c-0.7-0.9-1.4-1.8-1.7-2.2c-0.1-0.1-0.1-0.1-0.2-0.1
			l-1.9,0c-0.1,0-0.1,0-0.1,0.1v0.3c0,1.4,0,2.8,0.1,3.4c0.1,0.4,0.1,0.8,0.7,0.9c0.2,0,0.4,0,0.5,0c0.2,0,0.2,0.1,0.2,0.1
			c0,0.1-0.1,0.1-0.3,0.1c-0.9,0-1.9-0.1-2-0.1c-0.3,0-1.1,0.1-1.6,0.1c-0.2,0-0.3,0-0.3-0.1c0-0.1,0.1-0.1,0.2-0.1
			c0.1,0,0.3,0,0.4,0c0.3-0.1,0.4-0.3,0.5-0.7c0.1-0.6,0.1-2.1,0.1-3.5V23.5z M809.5,24.8c0,0.1,0,0.2,0.1,0.2
			c0.2,0.1,1,0.2,1.6,0.2c0.4,0,0.8,0,1.2-0.3c0.5-0.3,0.9-1.1,0.9-2.3c0-2-1-3-2.6-3c-0.5,0-0.8,0-1,0.1c-0.1,0-0.1,0.1-0.1,0.2
			V24.8z"/>
	</g>
	<g>
		<path class="st1" d="M529.4,86.8v3.3h-2V60.5c2.3,0.1,3.4,0.4,3.4,0.9c0,0.3-0.4,0.6-1.4,1V86h9.4l1.5-2c0.7,0.7,1.3,1.2,1.6,1.6
			c1.4-3.2,2-6.8,2-11v-12c0.1,0,0.2,0.1,0.3,0.1c0.2,0.1,0.4,0.2,0.5,0.2c0.1,0,0.5,0.2,1.5,0.7c2.9-1,5.3-2.2,7.3-3.7
			c1.7,1,2.5,1.8,2.5,2.2c0,0.2-0.2,0.3-0.6,0.3c-0.2,0-0.6-0.1-1.1-0.2c-2.3,1-5,1.8-8.2,2.4v7.6h8.2l1.7-2.4
			c0.8,0.8,1.5,1.7,2.2,2.6l-0.4,0.7h-4.8v18h-2.1v-18H546v1.6c0,7.6-2.4,13.2-7.2,17l-0.6-0.6c1.3-1.3,2.3-2.7,3.1-4.2H529.4z
			 M535.1,76.7c-1.3,2.4-2.9,4.4-4.9,6.1l-0.6-0.6c2.4-2.8,4.2-5.8,5.4-9.2h-4.8l-0.3-0.9h5.2V60.2c2.2,0.1,3.2,0.3,3.2,0.8
			c0,0.2-0.4,0.6-1.4,1v10.1h2.4l1.3-1.9c0.4,0.4,1.1,1.1,1.9,2.1l-0.4,0.7H537v2.1c3.4,1.2,5,2.6,5,4.1c0,0.8-0.4,1.2-1.1,1.2
			c-0.4,0-0.8-0.2-0.9-0.7c-0.6-1.4-1.6-2.6-3-3.6v8.5h-1.9V76.7z M531,62.8c1.8,2.2,2.8,4.2,2.8,6c0,1.1-0.4,1.6-1.2,1.6
			c-0.6,0-0.9-0.3-0.8-1l0-0.6v-0.4c0-1.4-0.5-3.1-1.5-5.1L531,62.8z M538,70.2c0.7-2.1,1.4-4.6,1.9-7.5c2,0.6,3,1.2,3,1.6
			c0,0.3-0.4,0.5-1.3,0.6c-0.7,1.8-1.6,3.7-2.8,5.7L538,70.2z"/>
		<path class="st1" d="M582.3,66.5l0.2,0.2l-0.4,0.6h-5v2.6c0,0.6,0.4,0.9,1.2,0.9c0.9,0,1.5-0.3,1.6-0.8c0.2-0.5,0.2-1,0.3-1.7
			l0.8,0.3c0,1.3,0.3,2,0.7,2c0.2,0,0.2,0,0.3,0c0,0.8-0.3,1.2-0.8,1.4c-0.5,0.2-1.5,0.3-3,0.3c-1.4,0-2.2-0.1-2.5-0.3
			c-0.3-0.2-0.5-0.7-0.5-1.4v-3.3h-2.5c-0.2,1.8-0.7,3.2-1.6,4.3c-1,1.1-2.5,2-4.6,2.6l-0.4-0.7c2.9-1.2,4.4-3.2,4.6-6.2h-4.6
			l-0.3-0.9h7.2v-2.8h-5.5l-0.3-0.9h5.8v-3.5c2.1,0,3.2,0.2,3.2,0.7c0,0.3-0.4,0.6-1.2,0.9v1.9h3.3l1.3-1.7c0.8,0.6,1.4,1.3,1.8,2
			l-0.4,0.7h-6v2.8h4.1l1.4-1.8c0.4,0.4,0.8,0.6,1,0.9h4.5v-6.2c2.3,0.1,3.4,0.4,3.4,0.9c0,0.3-0.4,0.6-1.4,1v4.2h3l1.3-1.5
			c1.4,1.1,2,1.7,2,2c0,0.1-0.1,0.3-0.3,0.4l-0.8,0.6c0,3.5,0.2,6.4,0.8,8.8c0.4,1.8,0.8,2.6,1.1,2.6c0.2,0,0.4-0.6,0.8-1.8
			c0.3-1.2,0.6-2.6,0.8-4.2l1,0.3c-0.4,3.1-0.7,5.2-0.7,6.4c0,0.9,0.3,1.5,1,1.8c-0.3,1-0.9,1.5-1.7,1.5c-0.7,0-1.4-0.5-2.2-1.6
			c-0.8-1.1-1.4-2.4-1.8-3.9c-0.6-2.5-1-6-1-10.5h-3.2c0,2-0.2,3.8-0.5,5.4c1.8,1.2,2.7,2.3,2.7,3.2c0,0.7-0.3,1.1-1,1.1
			c-0.4,0-0.8-0.4-1.4-1.2c-0.2-0.4-0.6-0.7-0.9-1.1c-1.1,3.2-3,5.9-6,8.1l-0.6-0.6c2.5-2.2,4.2-5.2,5.1-8.9c-1.2-1-2.4-1.8-3.6-2.5
			l0.4-0.7c1,0.4,2.2,1,3.5,1.7c0.2-1.3,0.2-2.7,0.2-4.2H582.3z M573,76h-5.4l-0.4-0.9h5.8v-3.4c1.9,0.1,2.8,0.3,2.8,0.8
			c0,0.2-0.3,0.5-0.9,0.7v2h2.9l1.4-1.7c0.8,0.7,1.5,1.3,2,1.9l-0.4,0.7h-5.8v3c2.5-0.4,4.8-0.8,7-1.2l0.1,0.9
			c-4.4,1.3-9,2.4-13.8,3.2c-0.2,0.9-0.5,1.3-0.8,1.3c-0.5,0-1-1-1.3-3.2c2.3-0.1,4.6-0.4,6.9-0.6V76z M566.2,90.3
			c0-0.4,0.4-0.9,1.2-1.4c2.2-1.3,3.5-3.3,4.1-6l0.9,0.3c-0.2,2.9-1.1,5.2-2.6,7c-0.8,1-1.6,1.5-2.3,1.5
			C566.7,91.7,566.2,91.2,566.2,90.3z M577.1,89.9l0-1.5c0-1.7-0.4-3.4-1.1-5.3l0.7-0.3c1.9,2.4,2.8,4.5,2.8,6.3c0,1.3-0.5,2-1.4,2
			C577.5,91.1,577.1,90.7,577.1,89.9z M585.5,89.1c-0.2-2-1.1-4.1-2.7-6.2l0.6-0.5c3.1,2.4,4.6,4.7,4.6,6.8c0,1.1-0.4,1.6-1.4,1.6
			C586,90.7,585.7,90.2,585.5,89.1z M595,89.6c-0.6-2.3-2.3-4.5-4.9-6.8l0.5-0.6c2.3,1.2,4.2,2.5,5.6,4.1c0.8,0.9,1.3,1.8,1.3,2.7
			c0,1-0.4,1.6-1.4,1.6C595.6,90.6,595.2,90.2,595,89.6z"/>
		<path class="st1" d="M620.5,66.5v-6.8c2.5,0.1,3.7,0.4,3.7,0.9c0,0.3-0.5,0.6-1.6,1v4.9h9.6l2-2.7c1.2,1.1,2,2,2.7,2.9l-0.4,0.7
			h-29.7l-0.4-0.9H620.5z M615.1,87.2l1.1-1c3.9-3.8,7.9-8.3,11.8-13.6c2,1.2,2.9,2,2.9,2.4c0,0.3-0.4,0.5-1.2,0.5
			c-0.2,0-0.4,0-0.6,0c-3.8,4.1-7.9,8-12.4,11.7l0.8,0c4.4-0.2,9-0.5,13.9-1c-1.2-1.6-2.8-3.2-4.6-4.8l0.6-0.7
			c3.2,1.8,5.6,3.6,7.1,5.6c1,1.2,1.5,2.3,1.5,3.2c0,1-0.4,1.5-1.3,1.5c-0.6,0-1.1-0.5-1.4-1.4c-0.2-0.7-0.6-1.4-1.2-2.4l-0.9,0.1
			c-6.6,0.8-13.6,1.8-21.1,2.4c-0.3,1-0.6,1.6-0.8,1.6c-0.6,0-1.2-1.2-1.6-3.7c1.5,0,3.1,0,4.7-0.1L615.1,87.2z M620.6,67.6
			c2.1,0.9,3.2,1.7,3.2,2.2c0,0.3-0.6,0.5-1.8,0.5c-1.8,2.2-3.8,4.2-6,6.2c2,1.4,3,2.8,3,4.1c0,0.9-0.4,1.3-1.1,1.3
			c-0.5,0-1-0.4-1.4-1.2c-1.4-2.5-3.7-4.7-7-6.7l0.4-0.8c2.1,0.9,3.8,1.7,5.2,2.7C617,73.8,618.8,71,620.6,67.6z"/>
		<path class="st1" d="M657.3,61.1l1.4-1.7c1.3,1.1,2,1.8,2,2.1c0,0.2-0.1,0.4-0.3,0.4l-0.8,0.5v9.2h-2v-1.3h-8.1v21.2h-2.2V59.9
			c1,0.4,1.8,0.8,2.6,1.2C649.9,61.1,657.3,61.1,657.3,61.1z M649.4,61.9v3.2h8.1v-3.2C657.5,61.9,649.4,61.9,649.4,61.9z
			 M649.4,69.4h8.1V66h-8.1V69.4z M673.7,61.1l1.3-1.7c1.4,1.2,2.1,1.9,2.1,2.2c0,0.2-0.1,0.4-0.3,0.5l-0.7,0.5v26.3
			c0,1.7-1.2,2.5-3.4,2.5v0c0-0.6-0.4-1.1-1-1.4c-0.4-0.2-1.2-0.4-2.6-0.6c-0.2,0.3-0.5,0.5-0.8,0.5c-0.3,0-0.7-0.2-1.1-0.7
			c-1.5-1.8-3.4-3.4-5.5-4.5c-1.2,2.8-4.2,4.8-8.8,5.8l-0.5-0.9c4.6-1.4,7.2-3.8,7.8-7.2h-7.9l-0.4-0.9h8.4c0-0.1,0-0.4,0-0.7v-3h-7
			l-0.4-0.9h9.5c0.9-1.6,1.6-3.3,2.2-5c1.9,0.8,2.9,1.4,2.9,1.8c0,0.3-0.4,0.4-1.5,0.5c-0.6,0.8-1.4,1.8-2.5,2.7h3.6l1.5-1.9
			c0.6,0.5,1.2,1.2,1.9,2.2l-0.4,0.6h-7.6v2.8c0,0.4,0,0.6,0,0.8h5.9l1.5-1.8c0.6,0.5,1.2,1.2,1.9,2.1l-0.4,0.7h-9
			c0,0.2-0.2,0.6-0.3,1.4c2.6,0.8,4.7,1.8,6.1,3c0.8,0.7,1.2,1.3,1.3,1.9c1.4,0,2.6,0.1,3.4,0.1c0.8,0,1.2-0.4,1.2-1.1V70.4h-8.5
			v1.1h-2V60c0.9,0.4,1.7,0.7,2.4,1H673.7z M655.9,71.9c2.6,1.1,3.9,2.2,3.9,3.4c0,0.8-0.4,1.2-1.2,1.2c-0.5,0-0.8-0.3-1-0.9
			c-0.3-1.1-1-2.2-2.1-3.2L655.9,71.9z M665.4,61.9v3.2h8.5v-3.2H665.4z M673.9,69.4V66h-8.5v3.5H673.9z"/>
		<path class="st1" d="M699.3,73.8c0,0.7,0,3.8,0,5.2s0,3.7,0.2,5c0.2,1.3,0.5,2.4,0.7,3.5c0.2,1.1,0.1,2.6-0.8,2.7
			c-1,0.1-1.9-0.7-2.4-1.6c-0.5-1-0.5-2.3-0.3-3.4s0.4-2.6,0.6-4.3c0.1-1.8,0.2-4.3,0.2-6.4c0.1-2.2,0.2-4,0.2-5.8
			c0.1-1.7,0.1-2.8-0.1-4c-0.2-1.1-0.5-1.8-1.1-2.4c-0.7-0.5-0.9-1.2-0.6-1.6c0.3-0.4,1-0.4,1.6-0.2s1.5,0.6,1.9,1.3
			c0.4,0.8,0.2,1.6,0.1,2.2c-0.1,0.6-0.1,1.7-0.2,3c-0.1,1.2-0.1,2.7-0.1,4.2c0,0.5,0.5,0.5,0.8,0.6c1.8,0.1,2.8,0.2,4.4,0.9
			c1.6,0.7,2.8,1.5,4,2.8c1.1,1.2,1.8,3.4,0.3,4c-1.5,0.6-2.4-1.2-3.2-2.7s-1.8-2.5-2.8-3.1c-0.9-0.6-1.7-0.8-2.6-1
			C699.4,72.6,699.3,73,699.3,73.8z M709.9,71.8c-0.6-0.6-1.3-1.2-2.3-1.8c-0.3-0.2-0.5-0.5-0.3-0.8c0.1-0.2,0.5-0.2,0.7-0.1
			c0.6,0,1.4,0.2,2.2,0.5c0.8,0.3,2,1,2.4,1.6c0.4,0.7,0,1.3-0.6,1.5C711.3,72.8,710.5,72.4,709.9,71.8z M713.1,70.2
			c-0.6-0.7-1.3-1.2-2.5-1.6c-0.3-0.2-0.5-0.5-0.4-0.8c0.1-0.2,0.4-0.2,0.7-0.2c0.6,0,1.4,0.1,2.2,0.4c0.8,0.2,2,0.8,2.4,1.5
			c0.4,0.6,0.1,1.3-0.5,1.5C714.5,71.1,713.5,70.8,713.1,70.2z"/>
		<path class="st1" d="M730.1,64.3c-0.5-0.6-0.7-1.4-0.4-1.7c0.6-0.6,1.4,0,1.8,0.2c0.6,0.4,1.4,0.8,2.2,1c0.8,0.1,1.5,0,2.6-0.1
			c2.3-0.2,3.9-0.4,5.7-0.6c1.1-0.1,3.5-0.3,5.2-0.5c1.7-0.1,3.4-0.3,4.2-0.4c0.8-0.1,1.6,0.2,2,0.5c0.4,0.3,0.8,0.6,0.8,1
			c0,0.3,0,0.6-0.9,1.2c-0.8,0.6-2.6,1.9-4.4,3c-1.6,1-3.6,1.6-5.6,2c0,1.3,0,2.8-0.2,4.3c-0.3,2.3-0.8,4.3-1.8,6.4
			c-1,2.1-1.8,3.2-2.9,4.4c-1.2,1.1-2.8,2.2-5,3.5c-0.7,0.4-1-0.2-0.6-0.5c0.4-0.2,1-0.8,1.8-1.4c1.4-1,2.6-2.2,3.9-4
			c1.3-1.8,1.8-3.8,2.2-6.1c0.4-2.3,0.3-4.2,0.1-6.1c-0.2-1.9-0.8-3.1-1.7-4.2c-0.4-0.4-0.6-0.8-0.6-1.1c-0.4,0-0.8,0.1-1,0.2
			c-1.5,0.2-3,0.4-4.5,0.3C731.3,65.5,730.7,65,730.1,64.3z M740.5,64.9c0.8,0.3,1.2,0.6,1.8,1.1c0.7,0.6,0.8,1.4,0.8,2.2
			c0,0.2,0,0.6,0,0.9c0.8-0.3,1.6-0.8,2.5-1.4c1.2-0.7,1.8-1.4,2.4-2c0.5-0.6,0.8-1,0.7-1.2c-0.1-0.2-0.4-0.4-1.2-0.3
			c-0.7,0.1-3,0.4-4.7,0.6C742.2,64.6,741.3,64.7,740.5,64.9z"/>
	</g>
	<rect class="st3" width="1279.8" height="175.7"/>
</g>
</svg>
