<?xml version="1.0" encoding="utf-8"?>
<!-- Generator: Adobe Illustrator 27.5.0, SVG Export Plug-In . SVG Version: 6.00 Build 0)  -->
<svg version="1.1" id="_レイヤー_2" xmlns="http://www.w3.org/2000/svg" xmlns:xlink="http://www.w3.org/1999/xlink" x="0px"
	 y="0px" viewBox="0 0 750 112" style="enable-background:new 0 0 750 112;" xml:space="preserve">
<style type="text/css">
	.st0{clip-path:url(#SVGID_00000145767443621330399950000016397303819970335167_);}
	.st1{fill:#FFFFFF;}
</style>
<g id="_レイヤー_1-2">
	<g>
		<defs>
			<rect id="SVGID_1_" width="750" height="180.7"/>
		</defs>
		<clipPath id="SVGID_00000029011121845077280360000008711721659374367134_">
			<use xlink:href="#SVGID_1_"  style="overflow:visible;"/>
		</clipPath>
		<g style="clip-path:url(#SVGID_00000029011121845077280360000008711721659374367134_);">
			<g>
				<path class="st1" d="M259.4,13.7c-0.2-0.1-0.2-0.2-0.2-0.6c0-0.8,0.1-1.4,0.1-1.7c0-0.2,0.1-0.3,0.1-0.3s0.1,0.1,0.1,0.2
					c0,0.1,0,0.3,0.1,0.5c0.2,1.2,1.3,1.6,2.3,1.6c1.5,0,2.2-1,2.2-1.9c0-1-0.5-1.7-1.8-2.7l-0.7-0.6c-1.7-1.4-2.1-2.3-2.1-3.4
					c0-1.7,1.3-2.8,3.3-2.8c0.6,0,1.1,0.1,1.5,0.1c0.3,0.1,0.5,0.1,0.6,0.1c0.1,0,0.2,0,0.2,0.1S265,3.2,265,4.2
					c0,0.3,0,0.4-0.1,0.4s-0.1-0.1-0.1-0.2c0-0.2-0.1-0.5-0.2-0.8c-0.1-0.2-0.5-0.8-2-0.8c-1.1,0-1.9,0.6-1.9,1.7
					c0,0.8,0.4,1.4,1.9,2.5l0.4,0.3c1.9,1.4,2.4,2.4,2.4,3.7c0,0.6-0.3,1.8-1.4,2.6c-0.7,0.5-1.6,0.6-2.4,0.6
					C260.8,14.1,260.1,14,259.4,13.7z"/>
				<path class="st1" d="M275.9,9.5c0,1.4,0,2.7,0.1,3.3c0.1,0.4,0.1,0.7,0.5,0.8c0.2,0.1,0.6,0.1,0.7,0.1s0.2,0.1,0.2,0.1
					c0,0.1-0.1,0.1-0.2,0.1c-0.9,0-2-0.1-2.1-0.1s-1.1,0.1-1.6,0.1c-0.2,0-0.3,0-0.3-0.1c0-0.1,0.1-0.1,0.2-0.1c0.1,0,0.3,0,0.4,0
					c0.3-0.1,0.4-0.3,0.5-0.9c0.1-0.6,0.1-1.9,0.1-3.3V3c-0.6,0-1.5,0-2.3,0c-1.2,0-1.4,0.2-1.7,0.6c-0.2,0.3-0.2,0.5-0.3,0.6
					c-0.1,0.1-0.1,0.1-0.2,0.1S270,4.3,270,4.2c0-0.1,0.3-1.3,0.4-1.8c0.1-0.2,0.1-0.3,0.2-0.3c0.1,0,0.5,0.2,0.8,0.2
					c0.6,0.1,1.1,0.1,1.2,0.1h5.9c0.5,0,1,0,1.3-0.1c0.2-0.1,0.3-0.1,0.3-0.1c0.1,0,0.1,0.1,0.1,0.2c0,0.5,0,1.7,0,1.8
					c0,0.2-0.1,0.2-0.1,0.2c-0.1,0-0.1-0.1-0.1-0.2c0-0.1,0-0.1,0-0.3c-0.1-0.7-0.3-0.9-2.1-0.9c-0.7,0-1.2,0-1.8,0V9.5z"/>
				<path class="st1" d="M286.3,6.8c0-2.4,0-2.8,0-3.3c0-0.5-0.2-0.8-0.7-0.9c-0.1,0-0.3,0-0.4,0c-0.1,0-0.2,0-0.2-0.1
					s0.1-0.1,0.2-0.1c0.8,0,1.9,0.1,1.9,0.1c0.2,0,1.4-0.1,1.9-0.1c1,0,2.1,0.1,3,0.7c0.3,0.3,1.1,1,1.1,2.2c0,1-0.5,2.3-1.9,3.4
					c1.3,1.6,2.4,3,3.3,3.9c0.9,0.9,1.4,1,1.9,1.1c0.1,0,0.5,0,0.6,0c0.1,0,0.2,0.1,0.2,0.1c0,0.1-0.1,0.1-0.3,0.1h-1.3
					c-0.8,0-1.2-0.1-1.6-0.2c-0.8-0.3-1.3-1.1-2.2-2.3c-0.7-0.9-1.4-1.8-1.7-2.2c-0.1-0.1-0.1-0.1-0.2-0.1l-1.9,0
					c-0.1,0-0.1,0-0.1,0.1v0.3c0,1.4,0,2.8,0.1,3.4c0.1,0.4,0.1,0.8,0.7,0.9c0.2,0,0.4,0,0.5,0c0.2,0,0.2,0.1,0.2,0.1
					c0,0.1-0.1,0.1-0.3,0.1c-0.9,0-1.9-0.1-2-0.1c-0.3,0-1.1,0.1-1.6,0.1c-0.2,0-0.3,0-0.3-0.1c0-0.1,0.1-0.1,0.2-0.1
					c0.1,0,0.3,0,0.4,0c0.3-0.1,0.4-0.3,0.5-0.7c0.1-0.6,0.1-2.1,0.1-3.5V6.8z M287.7,8c0,0.1,0,0.2,0.1,0.2c0.2,0.1,1,0.2,1.6,0.2
					c0.4,0,0.8,0,1.2-0.3c0.5-0.3,0.9-1.1,0.9-2.3c0-2-1-3-2.6-3c-0.5,0-0.8,0-1,0.1c-0.1,0-0.1,0.1-0.1,0.2V8z"/>
				<path class="st1" d="M301.8,8.9c0,2.2,0.4,3.1,1.1,3.7c0.8,0.7,1.6,0.8,2.4,0.8c0.9,0,1.8-0.3,2.5-1c0.7-0.8,0.9-2.2,0.9-3.8
					V6.8c0-2.4,0-2.8,0-3.3c0-0.5-0.1-0.8-0.7-0.9c-0.1,0-0.3,0-0.5,0c-0.1,0-0.2-0.1-0.2-0.1c0-0.1,0.1-0.1,0.3-0.1
					c0.8,0,1.7,0.1,1.7,0.1c0.1,0,0.9-0.1,1.4-0.1c0.2,0,0.3,0,0.3,0.1c0,0.1-0.1,0.1-0.2,0.1s-0.1,0-0.3,0
					c-0.5,0.1-0.6,0.4-0.6,0.9c0,0.5,0,0.9,0,3.3v1.6c0,1.6-0.2,3.6-1.5,4.7c-1.2,1-2.3,1.1-3.3,1.1c-0.5,0-2.2,0-3.4-1.1
					c-0.8-0.7-1.3-1.8-1.3-4V6.8c0-2.4,0-2.8-0.1-3.3c0-0.5-0.1-0.8-0.7-0.9c-0.1,0-0.3,0-0.5,0c-0.1,0-0.2-0.1-0.2-0.1
					c0-0.1,0.1-0.1,0.3-0.1c0.8,0,1.7,0.1,1.9,0.1c0.1,0,1.2-0.1,1.7-0.1c0.2,0,0.3,0,0.3,0.1c0,0.1-0.1,0.1-0.2,0.1
					c-0.1,0-0.3,0-0.4,0c-0.4,0.1-0.5,0.4-0.5,0.9c0,0.5,0,0.9,0,3.3V8.9z"/>
				<path class="st1" d="M317.3,12.5c-1.5-1.3-1.9-3.1-1.9-4.6c0-1,0.4-2.8,1.8-4.2c1-0.9,2.4-1.6,4.8-1.6c0.8,0,1.5,0.1,2.4,0.2
					c0.6,0.1,1.2,0.2,1.6,0.2c0.1,0,0.2,0.1,0.2,0.2c0,0.1-0.1,0.3-0.1,0.9c0,0.5,0,1.4,0,1.7c0,0.3-0.1,0.3-0.1,0.3
					c-0.1,0-0.1-0.1-0.1-0.3c0-0.5-0.3-1.2-0.7-1.6c-0.5-0.5-1.8-0.9-3.2-0.9c-2,0-2.9,0.6-3.5,1c-1.2,1.1-1.4,2.4-1.4,3.9
					c0,3,2.4,5.6,5.6,5.6c1.2,0,2.1-0.1,2.8-0.7c0.3-0.3,0.5-0.8,0.6-1.3c0-0.2,0.1-0.3,0.2-0.3c0.1,0,0.1,0.1,0.1,0.3
					c0,0.1-0.2,1.6-0.4,2c-0.1,0.3-0.2,0.3-0.4,0.5c-0.6,0.3-1.8,0.4-2.8,0.4C320.2,14.1,318.6,13.6,317.3,12.5z"/>
				<path class="st1" d="M336.3,9.5c0,1.4,0,2.7,0.1,3.3c0.1,0.4,0.1,0.7,0.5,0.8c0.2,0.1,0.6,0.1,0.7,0.1c0.1,0,0.2,0.1,0.2,0.1
					c0,0.1-0.1,0.1-0.2,0.1c-0.9,0-2-0.1-2.1-0.1s-1.1,0.1-1.6,0.1c-0.2,0-0.3,0-0.3-0.1c0-0.1,0.1-0.1,0.2-0.1s0.3,0,0.4,0
					c0.3-0.1,0.4-0.3,0.5-0.9c0.1-0.6,0.1-1.9,0.1-3.3V3c-0.6,0-1.5,0-2.3,0c-1.2,0-1.4,0.2-1.7,0.6c-0.2,0.3-0.2,0.5-0.3,0.6
					c-0.1,0.1-0.1,0.1-0.2,0.1c-0.1,0-0.1-0.1-0.1-0.2c0-0.1,0.3-1.3,0.4-1.8c0.1-0.2,0.1-0.3,0.2-0.3c0.1,0,0.5,0.2,0.8,0.2
					c0.6,0.1,1.1,0.1,1.2,0.1h5.9c0.5,0,1,0,1.3-0.1c0.2-0.1,0.3-0.1,0.3-0.1c0.1,0,0.1,0.1,0.1,0.2c0,0.5,0,1.7,0,1.8
					c0,0.2-0.1,0.2-0.1,0.2c-0.1,0-0.1-0.1-0.1-0.2c0-0.1,0-0.1,0-0.3c-0.1-0.7-0.3-0.9-2.1-0.9c-0.7,0-1.2,0-1.8,0V9.5z"/>
				<path class="st1" d="M347.3,8.9c0,2.2,0.4,3.1,1.1,3.7c0.8,0.7,1.6,0.8,2.4,0.8c0.9,0,1.8-0.3,2.5-1c0.7-0.8,0.9-2.2,0.9-3.8
					V6.8c0-2.4,0-2.8,0-3.3c0-0.5-0.1-0.8-0.7-0.9c-0.1,0-0.3,0-0.5,0c-0.1,0-0.2-0.1-0.2-0.1c0-0.1,0.1-0.1,0.3-0.1
					c0.8,0,1.7,0.1,1.7,0.1c0.1,0,0.9-0.1,1.4-0.1c0.2,0,0.3,0,0.3,0.1c0,0.1-0.1,0.1-0.2,0.1s-0.1,0-0.3,0
					c-0.5,0.1-0.6,0.4-0.6,0.9c0,0.5,0,0.9,0,3.3v1.6c0,1.6-0.2,3.6-1.5,4.7c-1.2,1-2.3,1.1-3.3,1.1c-0.5,0-2.2,0-3.4-1.1
					c-0.8-0.7-1.3-1.8-1.3-4V6.8c0-2.4,0-2.8-0.1-3.3c0-0.5-0.1-0.8-0.7-0.9c-0.1,0-0.3,0-0.5,0c-0.1,0-0.2-0.1-0.2-0.1
					c0-0.1,0.1-0.1,0.3-0.1c0.8,0,1.7,0.1,1.9,0.1c0.1,0,1.2-0.1,1.7-0.1c0.2,0,0.3,0,0.3,0.1c0,0.1-0.1,0.1-0.2,0.1
					c-0.1,0-0.3,0-0.4,0c-0.4,0.1-0.5,0.4-0.5,0.9c0,0.5,0,0.9,0,3.3V8.9z"/>
				<path class="st1" d="M362.7,6.8c0-2.4,0-2.8,0-3.3c0-0.5-0.2-0.8-0.7-0.9c-0.1,0-0.3,0-0.4,0c-0.1,0-0.2,0-0.2-0.1
					s0.1-0.1,0.2-0.1c0.8,0,1.9,0.1,1.9,0.1c0.2,0,1.4-0.1,1.9-0.1c1,0,2.1,0.1,3,0.7c0.3,0.3,1.1,1,1.1,2.2c0,1-0.5,2.3-1.9,3.4
					c1.3,1.6,2.4,3,3.3,3.9c0.9,0.9,1.4,1,1.9,1.1c0.1,0,0.5,0,0.6,0c0.1,0,0.2,0.1,0.2,0.1c0,0.1-0.1,0.1-0.3,0.1h-1.3
					c-0.8,0-1.2-0.1-1.6-0.2c-0.8-0.3-1.3-1.1-2.2-2.3c-0.7-0.9-1.4-1.8-1.7-2.2C366.2,9.1,366.1,9,366,9l-1.9,0
					c-0.1,0-0.1,0-0.1,0.1v0.3c0,1.4,0,2.8,0.1,3.4c0.1,0.4,0.1,0.8,0.7,0.9c0.2,0,0.4,0,0.5,0c0.2,0,0.2,0.1,0.2,0.1
					c0,0.1-0.1,0.1-0.3,0.1c-0.9,0-1.9-0.1-2-0.1c-0.3,0-1.1,0.1-1.6,0.1c-0.2,0-0.3,0-0.3-0.1c0-0.1,0.1-0.1,0.2-0.1
					c0.1,0,0.3,0,0.4,0c0.3-0.1,0.4-0.3,0.5-0.7c0.1-0.6,0.1-2.1,0.1-3.5V6.8z M364.1,8c0,0.1,0,0.2,0.1,0.2c0.2,0.1,1,0.2,1.6,0.2
					c0.4,0,0.8,0,1.2-0.3c0.5-0.3,0.9-1.1,0.9-2.3c0-2-1-3-2.6-3c-0.5,0-0.8,0-1,0.1c-0.1,0-0.1,0.1-0.1,0.2V8z"/>
				<path class="st1" d="M377.6,6.8c0-2.4,0-2.8,0-3.3c0-0.5-0.2-0.8-0.7-0.9c-0.1,0-0.3,0-0.4,0c-0.1,0-0.2-0.1-0.2-0.1
					c0-0.1,0.1-0.1,0.3-0.1c0.4,0,0.8,0,1.9,0.1c0.1,0,3.3,0,3.7,0c0.4,0,0.6,0,0.7-0.1c0.1,0,0.1-0.1,0.2-0.1c0,0,0.1,0,0.1,0.1
					c0,0.1-0.1,0.4-0.1,0.8c0,0.3,0,0.6-0.1,0.9c0,0.2,0,0.3-0.1,0.3s-0.1-0.1-0.1-0.2c0-0.3-0.1-0.4-0.1-0.6
					c-0.1-0.4-0.3-0.5-1.2-0.5c-0.2,0-2,0-2.1,0c-0.1,0-0.1,0-0.1,0.1v4.1c0,0.1,0,0.2,0.1,0.2c0.2,0,2.1,0,2.4-0.1
					c0.4,0,0.7-0.1,0.8-0.3c0.1-0.1,0.1-0.1,0.2-0.1c0,0,0.1,0,0.1,0.1c0,0.1-0.1,0.4-0.1,1c-0.1,0.5-0.1,0.9-0.1,1.1
					c0,0.1-0.1,0.2-0.1,0.2c-0.1,0-0.1-0.1-0.1-0.2c0-0.1,0-0.3-0.1-0.4c-0.1-0.2-0.2-0.5-0.9-0.5c-0.4,0-1.9-0.1-2.2-0.1
					C379,8,379,8.1,379,8.2v1.3c0,0.6,0,2.1,0,2.4c0,0.7,0.1,1,0.5,1.2c0.3,0.1,0.7,0.2,1.3,0.2c0.3,0,0.9,0,1.4-0.1
					c0.5-0.2,0.7-0.5,0.8-1.2c0-0.2,0.1-0.3,0.2-0.3c0.1,0,0.1,0.2,0.1,0.3c0,0.1-0.1,1.3-0.2,1.6c-0.1,0.4-0.2,0.4-0.8,0.4
					c-1.2,0-1.7,0-2.3,0c-0.6,0-1.5-0.1-2.1-0.1c-0.4,0-0.8,0.1-1.2,0.1c-0.2,0-0.3,0-0.3-0.1c0-0.1,0.1-0.1,0.2-0.1
					c0.1,0,0.2,0,0.4-0.1c0.3-0.1,0.5-0.3,0.6-1.4c0-0.6,0-1.4,0-2.7V6.8z"/>
				<path class="st1" d="M394.4,0.3c0.1-0.2,0.2-0.3,0.2-0.3c0.1,0,0.5,0.2,0.5,0.3s0.1,0.1,0,0.3L389,14.2
					c-0.1,0.1-0.1,0.2-0.2,0.2c-0.1,0-0.5-0.2-0.6-0.3c-0.1-0.1-0.1-0.1,0-0.3C388.3,13.8,394.4,0.3,394.4,0.3z"/>
				<path class="st1" d="M413.6,11.9c0.1,0.4,0.2,1.4,0.9,1.6c0.3,0.1,0.7,0.1,0.9,0.1c0.1,0,0.2,0,0.2,0.1s-0.1,0.1-0.3,0.1
					c-0.3,0-2.3-0.1-2.8-0.1c-0.4,0-0.5-0.1-0.5-0.2c0-0.1,0.1-0.1,0.2-0.2c0.1,0,0.1-0.3,0.1-0.5l-0.8-7.7l-3.8,7.7
					c-0.3,0.7-0.4,0.9-0.6,0.9c-0.1,0-0.2-0.2-0.5-0.8c-0.3-0.5-1.7-3.4-1.8-3.6c-0.1-0.2-1.9-3.7-2-4.1l-0.7,6.9c0,0.3,0,0.4,0,0.7
					c0,0.2,0.1,0.5,0.4,0.5c0.2,0,0.3,0,0.5,0.1c0.1,0,0.2,0.1,0.2,0.1c0,0.1-0.1,0.1-0.3,0.1c-0.6,0-1.3-0.1-1.5-0.1
					c-0.2,0-0.9,0.1-1.4,0.1c-0.2,0-0.3,0-0.3-0.1c0,0,0.1-0.1,0.2-0.1c0.1,0,0.1,0,0.3,0c0.4,0,0.6-0.5,0.7-1.2l1.2-9.9
					c0-0.3,0.1-0.5,0.2-0.5s0.1,0.1,0.3,0.3l4.8,9.3l4.6-9.3c0.1-0.2,0.2-0.3,0.3-0.3s0.2,0.2,0.2,0.5L413.6,11.9z"/>
				<path class="st1" d="M421.2,6.8c0-2.4,0-2.8,0-3.3c0-0.5-0.2-0.8-0.7-0.9c-0.1,0-0.3,0-0.4,0c-0.1,0-0.2-0.1-0.2-0.1
					c0-0.1,0.1-0.1,0.3-0.1c0.4,0,0.8,0,1.9,0.1c0.1,0,3.3,0,3.7,0c0.4,0,0.6,0,0.7-0.1c0.1,0,0.1-0.1,0.2-0.1c0,0,0.1,0,0.1,0.1
					c0,0.1-0.1,0.4-0.1,0.8c0,0.3,0,0.6-0.1,0.9c0,0.2,0,0.3-0.1,0.3s-0.1-0.1-0.1-0.2c0-0.3-0.1-0.4-0.1-0.6
					c-0.1-0.4-0.3-0.5-1.2-0.5c-0.2,0-2,0-2.1,0c-0.1,0-0.1,0-0.1,0.1v4.1c0,0.1,0,0.2,0.1,0.2c0.2,0,2.1,0,2.4-0.1
					c0.4,0,0.7-0.1,0.8-0.3c0.1-0.1,0.1-0.1,0.2-0.1c0,0,0.1,0,0.1,0.1c0,0.1-0.1,0.4-0.1,1c-0.1,0.5-0.1,0.9-0.1,1.1
					c0,0.1-0.1,0.2-0.1,0.2c-0.1,0-0.1-0.1-0.1-0.2c0-0.1,0-0.3-0.1-0.4c-0.1-0.2-0.2-0.5-0.9-0.5c-0.4,0-1.9-0.1-2.2-0.1
					c-0.1,0-0.1,0.1-0.1,0.1v1.3c0,0.6,0,2.1,0,2.4c0,0.7,0.1,1,0.5,1.2c0.3,0.1,0.7,0.2,1.3,0.2c0.3,0,0.9,0,1.4-0.1
					c0.5-0.2,0.7-0.5,0.8-1.2c0-0.2,0.1-0.3,0.2-0.3c0.1,0,0.1,0.2,0.1,0.3c0,0.1-0.1,1.3-0.2,1.6c-0.1,0.4-0.2,0.4-0.8,0.4
					c-1.2,0-1.7,0-2.3,0c-0.6,0-1.5-0.1-2.1-0.1c-0.4,0-0.8,0.1-1.2,0.1c-0.2,0-0.3,0-0.3-0.1c0-0.1,0.1-0.1,0.2-0.1
					c0.1,0,0.2,0,0.4-0.1c0.3-0.1,0.5-0.3,0.6-1.4c0-0.6,0-1.4,0-2.7V6.8z"/>
				<path class="st1" d="M437.3,9.5c0,1.4,0,2.7,0.1,3.3c0.1,0.4,0.1,0.7,0.5,0.8c0.2,0.1,0.6,0.1,0.7,0.1s0.2,0.1,0.2,0.1
					c0,0.1-0.1,0.1-0.2,0.1c-0.9,0-2-0.1-2.1-0.1s-1.1,0.1-1.6,0.1c-0.2,0-0.3,0-0.3-0.1c0-0.1,0.1-0.1,0.2-0.1c0.1,0,0.3,0,0.4,0
					c0.3-0.1,0.4-0.3,0.5-0.9c0.1-0.6,0.1-1.9,0.1-3.3V3c-0.6,0-1.5,0-2.3,0c-1.2,0-1.4,0.2-1.7,0.6c-0.2,0.3-0.2,0.5-0.3,0.6
					c-0.1,0.1-0.1,0.1-0.2,0.1s-0.1-0.1-0.1-0.2c0-0.1,0.3-1.3,0.4-1.8c0.1-0.2,0.1-0.3,0.2-0.3c0.1,0,0.5,0.2,0.8,0.2
					c0.6,0.1,1.1,0.1,1.2,0.1h5.9c0.5,0,1,0,1.3-0.1c0.2-0.1,0.3-0.1,0.3-0.1c0.1,0,0.1,0.1,0.1,0.2c0,0.5,0,1.7,0,1.8
					c0,0.2-0.1,0.2-0.1,0.2c-0.1,0-0.1-0.1-0.1-0.2c0-0.1,0-0.1,0-0.3c-0.1-0.7-0.3-0.9-2.1-0.9c-0.7,0-1.2,0-1.8,0V9.5z"/>
				<path class="st1" d="M455.8,7.2c0.1,0,0.1,0,0.1-0.1V6.8c0-2.4,0-2.8,0-3.3c0-0.5-0.1-0.7-0.7-0.8c-0.1,0-0.3,0-0.5,0
					c-0.1,0-0.2-0.1-0.2-0.1c0-0.1,0.1-0.1,0.3-0.1c0.8,0,1.8,0.1,1.9,0.1s1.1-0.1,1.6-0.1c0.2,0,0.3,0,0.3,0.1
					c0,0.1-0.1,0.1-0.2,0.1c-0.1,0-0.3,0-0.4,0c-0.5,0.1-0.6,0.4-0.6,0.9c0,0.5,0,0.9,0,3.3v2.7c0,1.5,0,2.6,0.1,3.3
					c0.1,0.4,0.1,0.8,0.6,0.8c0.2,0,0.5,0.1,0.6,0.1c0.1,0,0.2,0.1,0.2,0.1c0,0.1-0.1,0.1-0.3,0.1c-0.9,0-1.9-0.1-2-0.1
					c-0.1,0-1.1,0.1-1.6,0.1c-0.2,0-0.3,0-0.3-0.1c0-0.1,0.1-0.1,0.2-0.1c0.1,0,0.3,0,0.4,0c0.3-0.1,0.4-0.4,0.5-0.9
					c0.1-0.6,0.1-1.8,0.1-3.2V7.9c0-0.1-0.1-0.1-0.1-0.1h-6.5c-0.1,0-0.1,0-0.1,0.1v1.6c0,1.5,0,2.6,0.1,3.3
					c0.1,0.4,0.1,0.8,0.6,0.8c0.2,0,0.5,0.1,0.6,0.1c0.1,0,0.2,0.1,0.2,0.1s-0.1,0.1-0.2,0.1c-0.9,0-2-0.1-2.1-0.1
					c-0.1,0-1.2,0.1-1.6,0.1c-0.2,0-0.3,0-0.3-0.1c0-0.1,0-0.1,0.2-0.1c0.1,0,0.3,0,0.4-0.1c0.3-0.1,0.4-0.4,0.4-0.8
					c0.1-0.6,0.1-1.9,0.1-3.3V6.8c0-2.4,0-2.8,0-3.3c0-0.5-0.2-0.8-0.7-0.9c-0.2,0-0.3,0-0.5,0c-0.1,0-0.2-0.1-0.2-0.1
					c0-0.1,0.1-0.1,0.3-0.1c0.8,0,1.6,0.1,1.9,0.1c0.1,0,1.1-0.1,1.6-0.1c0.2,0,0.3,0,0.3,0.1c0,0.1-0.1,0.1-0.2,0.1s-0.2,0-0.4,0
					c-0.5,0.1-0.6,0.4-0.6,0.9c0,0.5,0,0.9,0,3.3v0.3c0,0.1,0.1,0.1,0.1,0.1H455.8z"/>
				<path class="st1" d="M464,8.1c0-2.4,1.9-6,6.3-6c3.6,0,6.3,2.1,6.3,5.7c0,3.4-2.5,6.2-6.4,6.2C465.8,14.1,464,10.8,464,8.1z
					 M474.9,8.3c0-3.6-2.2-5.6-4.7-5.6c-2.5,0-4.5,1.5-4.5,5c0,3.5,2,5.9,5,5.9C471.9,13.5,474.9,12.9,474.9,8.3z"/>
				<path class="st1" d="M483.3,6.8c0-2.4,0-2.8,0-3.3c0-0.5-0.2-0.7-0.7-0.8c-0.1,0-0.4,0-0.5,0c-0.1,0-0.2-0.1-0.2-0.1
					c0-0.1,0.1-0.1,0.3-0.1c0.7,0,1.9,0.1,1.9,0.1c0.1,0,1.1-0.1,2.1-0.1c1.6,0,4.5-0.2,6.4,1.8c0.8,0.8,1.5,2.1,1.5,3.9
					c0,1.9-0.8,3.4-1.7,4.3c-0.7,0.7-2.1,1.8-4.8,1.8c-0.7,0-1.6,0-2.3-0.1c-0.7,0-1.2-0.1-1.3-0.1c0,0-0.3,0-0.6,0
					c-0.3,0-0.8,0-1,0c-0.2,0-0.3,0-0.3-0.1c0-0.1,0.1-0.1,0.2-0.1s0.3,0,0.4-0.1c0.3-0.1,0.4-0.4,0.5-0.8c0.1-0.7,0.1-1.9,0.1-3.3
					V6.8z M484.8,8.3c0,1.6,0,3,0,3.3c0,0.6,0.1,1,0.2,1.2c0.2,0.3,0.8,0.7,2.6,0.7c1.5,0,2.8-0.5,3.7-1.4c0.8-0.8,1.2-2.1,1.2-3.6
					c0-2-0.9-3.3-1.5-3.9c-1.5-1.5-3.3-1.7-5.1-1.7c-0.3,0-0.8,0.1-0.9,0.1c-0.1,0.1-0.2,0.1-0.2,0.3c0,0.5,0,2.1,0,3.1V8.3z"/>
			</g>
			<g>
				<path class="st1" d="M282.6,57.5c-1.2,3.8-2.7,7.3-4.5,10.3l-0.9-0.6c2.5-4.9,4.3-10.2,5.2-15.7h-4.5l-0.3-0.9h5v-8
					c2.4,0.1,3.6,0.4,3.6,1c0,0.3-0.5,0.7-1.6,1v6h1.4l1.5-2.2c0.6,0.7,1.2,1.5,1.8,2.4l-0.4,0.8h-4.4v4c1.4,1,2.5,2.1,3.4,3.2
					c0.7,1,1.1,1.9,1.1,2.6c0,0.8-0.4,1.2-1.1,1.2c-0.5,0-0.9-0.4-1-1.2c-0.3-1.5-1.1-3-2.3-4.5v18.1h-2V57.5z M300,58.7h4.8
					l1.3-1.4c1.5,1.1,2.2,1.8,2.2,2.1c0,0.1,0,0.2-0.2,0.3l-1,0.6v6.6h1l1.3-2.1c0.6,0.8,1.2,1.6,1.7,2.4l-0.4,0.7h-3.6v4
					c0,1.9-1.1,2.8-3.3,2.8c0-0.7-0.4-1.2-1.1-1.4c-0.5-0.2-1.7-0.5-3.5-0.8v-1c1.9,0.2,3.4,0.3,4.6,0.3c0.8,0,1.3-0.4,1.3-1.1v-2.8
					h-11.9v7.1h-2v-7.1h-3.6l-0.4-0.9h4v-9.3c0.5,0.2,1.4,0.6,2.4,1.1h4.4v-3.1h-9.8l-0.4-0.9h6.5v-3.2h-4l-0.3-0.9h4.4v-2.9H289
					l-0.3-0.9h5.6v-4.3c2.3,0,3.4,0.2,3.4,0.8c0,0.3-0.4,0.6-1.4,0.9v2.6h5.4v-4.3c2.2,0,3.4,0.3,3.4,0.8c0,0.3-0.5,0.6-1.4,0.9v2.6
					h2.6l1.6-2c0.8,0.8,1.5,1.6,2,2.2l-0.3,0.6h-5.8v2.9h2.3l1.4-1.7c0.7,0.6,1.3,1.2,2,2l-0.4,0.7h-5.2v3.2h3.6l1.5-1.9
					c0.2,0.2,0.4,0.4,0.7,0.6c0.4,0.4,0.9,0.9,1.4,1.5l-0.3,0.6H300V58.7z M298.1,59.6h-4.8v3.1h4.8V59.6z M298.1,66.8v-3.3h-4.8
					v3.3H298.1z M301.7,47.7h-5.4v2.9h5.4V47.7z M301.7,51.5h-5.4v3.2h5.4V51.5z M305.1,62.6v-3.1H300v3.1H305.1z M305.1,63.5H300
					v3.3h5.1V63.5z"/>
				<path class="st1" d="M325.4,67.6c1,1.6,2.7,2.8,4.9,3.4c2.3,0.7,5.8,1,10.3,1c3.1,0,6.4-0.1,10.1-0.4c-0.4,0.6-0.8,1.4-1.1,2.3
					H341c-5.2,0-9.1-0.5-11.6-1.5c-2.2-0.9-3.8-2.2-4.7-4c-1.2,1.8-2.5,3.4-3.8,4.9c0,1-0.1,1.4-0.4,1.4c-0.5,0-1.2-1-2.2-2.8
					c2-1.2,3.8-2.4,5.1-3.6v-9.7h-4.8l-0.4-0.9h4.8l1.4-1.6c1.4,1.1,2.1,1.8,2.1,2.2c0,0.2-0.1,0.3-0.3,0.4l-0.8,0.6V67.6z
					 M320,43.9c3.7,1.7,5.6,3.5,5.6,5.4c0,0.9-0.4,1.4-1.3,1.4c-0.6,0-0.9-0.3-1.1-0.8c-0.8-2.1-2-3.9-3.7-5.3L320,43.9z
					 M337.4,48.4v-5.9c2.3,0.1,3.4,0.4,3.4,0.9c0,0.3-0.5,0.6-1.4,1v4h5.1l1.7-2.2c0.6,0.5,1.4,1.2,2.1,2.2l0.3,0.4l-0.4,0.6h-8.8
					v5.5h6.7l1.7-2.2c0.8,0.7,1.7,1.5,2.5,2.5l-0.4,0.7h-22.3l-0.5-0.9h10.3v-5.5H332c-0.9,1.8-2,3.3-3.3,4.7l-0.8-0.6
					c1.8-2.7,3-6.2,3.8-10.4c2.2,0.4,3.3,0.8,3.3,1.3c0,0.3-0.5,0.6-1.4,0.7c-0.3,1.1-0.7,2.2-1.2,3.3H337.4z M344.1,59.2l1.2-1.6
					c1.5,1.1,2.2,1.8,2.2,2.2c0,0.1,0,0.2-0.2,0.3l-0.9,0.6v8.8h-2v-2h-11.7v2.1h-2.1V58.1c0.8,0.3,1.7,0.7,2.5,1.1H344.1z
					 M332.6,60.2v6.6h11.7v-6.6H332.6z"/>
				<path class="st1" d="M376.2,56.8c0.4,0.5,0.7,1.1,0.7,1.8c0,0.5-0.1,1-0.4,1.4c-0.6,0.8-1.3,1.2-2.2,1.2c-0.6,0-1.2-0.2-1.6-0.6
					c-0.6-0.6-1-1.2-1-2c0-0.9,0.4-1.6,1.1-2.1c0.5-0.3,0.9-0.5,1.5-0.5C375,56,375.6,56.2,376.2,56.8z"/>
				<path class="st1" d="M415.3,49.1v21.7h10l2.2-2.8c1.2,1.2,2,2.2,2.6,3l-0.4,0.8H399l-0.4-0.9H413V49.1h-12.2l-0.3-0.9h23l2-2.6
					c0.6,0.6,1.5,1.5,2.6,2.8l-0.4,0.7H415.3z"/>
				<path class="st1" d="M438.8,50.9c3.4,1,5,2.3,5,4c0,1-0.4,1.4-1.2,1.4c-0.6,0-1-0.3-1.1-0.9c-0.5-1.4-1.4-2.8-3-3.8L438.8,50.9z
					 M448.9,49.4l-4.7,15.8l-0.2,0.5c-0.2,1-0.4,1.7-0.4,2.1c0,0.4,0.1,0.8,0.2,1.4c0.3,1.1,0.5,2.2,0.5,3.2c0,1.6-0.6,2.4-1.7,2.4
					c-0.9,0-1.3-0.4-1.3-1.2c0,0,0-0.5,0.2-1.4c0.2-1,0.2-1.9,0.2-2.6c0-2.2-1-3.5-3-3.8v-1c0.6,0.1,1.2,0.2,1.5,0.2
					c1.1,0,1.8-0.4,2.2-1.3c1.6-3.3,3.4-8.2,5.5-14.7L448.9,49.4z M441.4,43.1c3.5,0.9,5.3,2.1,5.3,3.8c0,1-0.4,1.4-1.2,1.4
					c-0.5,0-0.9-0.4-1.2-1.1c-0.5-1.2-1.6-2.4-3.2-3.4L441.4,43.1z M459.5,58.3h6.7l2-2.6c0.8,0.8,1.6,1.7,2.5,2.8l-0.5,0.8h-11
					c-0.1,0.2-0.2,0.3-0.2,0.4c-1.6,3.6-3.3,7-5.3,10.2l1,0c3.8-0.2,7.5-0.6,10.9-1c-1.1-1.7-2.6-3.6-4.7-5.7l0.6-0.7
					c3.3,2.3,5.7,4.6,7.4,7c0.8,1.2,1.2,2.1,1.2,2.9c0,1-0.4,1.5-1.3,1.5c-0.5,0-0.9-0.5-1.3-1.6c-0.3-0.7-0.7-1.6-1.2-2.5
					c-4.9,0.9-10.3,1.7-16.4,2.4c-0.2,0.9-0.5,1.3-0.8,1.3c-0.5,0-1-1.2-1.4-3.5l4-0.1h0.9c1.7-3.5,3-7.1,3.9-10.7h-8.9l-0.4-0.9
					h10.2v-7.8h-7l-0.3-0.9h7.3v-6.9c2.5,0.1,3.7,0.4,3.7,0.9c0,0.3-0.5,0.7-1.6,1.1v4.9h5.3l1.6-2.4c0.7,0.6,1.4,1.5,2.4,2.6
					l-0.4,0.7h-8.9V58.3z"/>
			</g>
		</g>
	</g>
</g>
</svg>
