<?xml version="1.0" encoding="utf-8"?>
<!-- Generator: Adobe Illustrator 27.5.0, SVG Export Plug-In . SVG Version: 6.00 Build 0)  -->
<svg version="1.1" id="_レイヤー_2" xmlns="http://www.w3.org/2000/svg" xmlns:xlink="http://www.w3.org/1999/xlink" x="0px"
	 y="0px" viewBox="0 0 1280 135" style="enable-background:new 0 0 1280 135;" xml:space="preserve">
<style type="text/css">
	.st0{clip-path:url(#SVGID_00000175305499347907780750000005324207564021513386_);}
	.st1{fill:#FFFFFF;}
</style>
<g id="_レイヤー_1-2">
	<g>
		<defs>
			<rect id="SVGID_1_" width="1280" height="163.3"/>
		</defs>
		<clipPath id="SVGID_00000047783013668824846850000001426117266151457214_">
			<use xlink:href="#SVGID_1_"  style="overflow:visible;"/>
		</clipPath>
		<g style="clip-path:url(#SVGID_00000047783013668824846850000001426117266151457214_);">
			<g>
				<path class="st1" d="M526.9,18.2c-0.2-0.1-0.2-0.2-0.2-0.6c0-0.8,0.1-1.4,0.1-1.7c0-0.2,0.1-0.3,0.1-0.3c0.1,0,0.1,0.1,0.1,0.2
					c0,0.1,0,0.3,0.1,0.5c0.2,1.2,1.3,1.6,2.3,1.6c1.5,0,2.2-1,2.2-1.9c0-1-0.5-1.7-1.8-2.7l-0.7-0.6c-1.7-1.4-2.1-2.3-2.1-3.4
					c0-1.7,1.3-2.8,3.3-2.8c0.6,0,1.1,0.1,1.5,0.1c0.3,0.1,0.5,0.1,0.6,0.1s0.2,0,0.2,0.1c0,0.1-0.1,0.7-0.1,1.7
					c0,0.3,0,0.4-0.1,0.4c-0.1,0-0.1-0.1-0.1-0.2c0-0.2-0.1-0.5-0.2-0.8c-0.1-0.2-0.5-0.8-2-0.8c-1.1,0-1.9,0.6-1.9,1.7
					c0,0.8,0.4,1.4,1.9,2.5l0.4,0.3c1.9,1.4,2.4,2.4,2.4,3.7c0,0.6-0.3,1.8-1.4,2.6c-0.7,0.5-1.6,0.6-2.4,0.6
					C528.3,18.6,527.6,18.5,526.9,18.2z"/>
				<path class="st1" d="M543.4,13.9c0,1.4,0,2.7,0.1,3.3c0.1,0.4,0.1,0.7,0.5,0.8c0.2,0.1,0.6,0.1,0.7,0.1c0.1,0,0.2,0.1,0.2,0.1
					c0,0.1-0.1,0.1-0.2,0.1c-0.9,0-2-0.1-2.1-0.1s-1.1,0.1-1.6,0.1c-0.2,0-0.3,0-0.3-0.1c0-0.1,0.1-0.1,0.2-0.1c0.1,0,0.3,0,0.4,0
					c0.3-0.1,0.4-0.3,0.5-0.9c0.1-0.6,0.1-1.9,0.1-3.3V7.5c-0.6,0-1.5,0-2.3,0c-1.2,0-1.4,0.2-1.7,0.6c-0.2,0.3-0.2,0.5-0.3,0.6
					c-0.1,0.1-0.1,0.1-0.2,0.1c-0.1,0-0.1-0.1-0.1-0.2c0-0.1,0.3-1.3,0.4-1.8c0.1-0.2,0.1-0.3,0.2-0.3c0.1,0,0.5,0.2,0.8,0.2
					c0.6,0.1,1.1,0.1,1.2,0.1h5.9c0.5,0,1,0,1.3-0.1c0.2-0.1,0.3-0.1,0.3-0.1c0.1,0,0.1,0.1,0.1,0.2c0,0.5,0,1.7,0,1.8
					c0,0.2-0.1,0.2-0.1,0.2c-0.1,0-0.1-0.1-0.1-0.2c0-0.1,0-0.1,0-0.3c-0.1-0.7-0.3-0.9-2.1-0.9c-0.7,0-1.2,0-1.8,0V13.9z"/>
				<path class="st1" d="M553.8,11.2c0-2.4,0-2.8,0-3.3c0-0.5-0.2-0.8-0.7-0.9c-0.1,0-0.3,0-0.4,0c-0.1,0-0.2,0-0.2-0.1
					c0-0.1,0.1-0.1,0.2-0.1c0.8,0,1.9,0.1,1.9,0.1c0.2,0,1.4-0.1,1.9-0.1c1,0,2.1,0.1,3,0.7c0.3,0.3,1.1,1,1.1,2.2
					c0,1-0.5,2.2-1.9,3.4c1.3,1.6,2.4,3,3.3,3.9c0.9,0.9,1.4,1,1.9,1.1c0.1,0,0.5,0,0.6,0c0.1,0,0.2,0.1,0.2,0.1
					c0,0.1-0.1,0.1-0.3,0.1h-1.3c-0.8,0-1.2-0.1-1.6-0.2c-0.8-0.3-1.3-1.1-2.2-2.3c-0.7-0.9-1.4-1.8-1.7-2.2
					c-0.1-0.1-0.1-0.1-0.2-0.1l-1.9,0c-0.1,0-0.1,0-0.1,0.1v0.3c0,1.4,0,2.8,0.1,3.4c0.1,0.4,0.1,0.8,0.7,0.9c0.2,0,0.4,0,0.5,0
					c0.2,0,0.2,0.1,0.2,0.1c0,0.1-0.1,0.1-0.3,0.1c-0.9,0-1.9-0.1-2-0.1c-0.3,0-1.1,0.1-1.6,0.1c-0.2,0-0.3,0-0.3-0.1
					c0-0.1,0.1-0.1,0.2-0.1c0.1,0,0.3,0,0.4,0c0.3-0.1,0.4-0.3,0.5-0.7c0.1-0.6,0.1-2.1,0.1-3.5V11.2z M555.2,12.5
					c0,0.1,0,0.2,0.1,0.2c0.2,0.1,1,0.2,1.6,0.2c0.4,0,0.8,0,1.2-0.3c0.5-0.3,0.9-1.1,0.9-2.3c0-2-1-3-2.6-3c-0.5,0-0.8,0-1,0.1
					c-0.1,0-0.1,0.1-0.1,0.2V12.5z"/>
				<path class="st1" d="M569.2,13.4c0,2.2,0.4,3.1,1.1,3.7c0.8,0.7,1.6,0.8,2.4,0.8c0.9,0,1.8-0.3,2.5-1c0.7-0.8,0.9-2.2,0.9-3.8
					v-1.9c0-2.4,0-2.8,0-3.3c0-0.5-0.1-0.8-0.7-0.9c-0.1,0-0.3,0-0.5,0c-0.1,0-0.2-0.1-0.2-0.1c0-0.1,0.1-0.1,0.3-0.1
					c0.8,0,1.7,0.1,1.7,0.1c0.1,0,0.9-0.1,1.4-0.1c0.2,0,0.3,0,0.3,0.1c0,0.1-0.1,0.1-0.2,0.1c-0.1,0-0.1,0-0.3,0
					c-0.5,0.1-0.6,0.4-0.6,0.9c0,0.5,0,0.9,0,3.3v1.6c0,1.6-0.2,3.6-1.5,4.7c-1.2,1-2.3,1.1-3.3,1.1c-0.5,0-2.2,0-3.4-1.1
					c-0.8-0.7-1.3-1.8-1.3-4v-2.2c0-2.4,0-2.8-0.1-3.3c0-0.5-0.1-0.8-0.7-0.9c-0.1,0-0.3,0-0.5,0c-0.1,0-0.2-0.1-0.2-0.1
					c0-0.1,0.1-0.1,0.3-0.1c0.8,0,1.7,0.1,1.9,0.1c0.1,0,1.2-0.1,1.7-0.1c0.2,0,0.3,0,0.3,0.1c0,0.1-0.1,0.1-0.2,0.1
					c-0.1,0-0.3,0-0.4,0c-0.4,0.1-0.5,0.4-0.5,0.9c0,0.5,0,0.9,0,3.3V13.4z"/>
				<path class="st1" d="M584.8,16.9c-1.5-1.3-1.9-3.1-1.9-4.6c0-1,0.4-2.8,1.8-4.2c1-0.9,2.4-1.6,4.8-1.6c0.8,0,1.5,0.1,2.4,0.2
					c0.6,0.1,1.2,0.2,1.6,0.2c0.1,0,0.2,0.1,0.2,0.2c0,0.1-0.1,0.3-0.1,0.9c0,0.5,0,1.4,0,1.7c0,0.3-0.1,0.3-0.1,0.3
					c-0.1,0-0.1-0.1-0.1-0.3c0-0.5-0.3-1.2-0.7-1.6c-0.5-0.5-1.8-0.9-3.2-0.9c-2,0-2.9,0.6-3.5,1c-1.2,1.1-1.4,2.4-1.4,3.9
					c0,3,2.4,5.6,5.6,5.6c1.2,0,2.1-0.1,2.8-0.7c0.3-0.3,0.5-0.8,0.6-1.3c0-0.2,0.1-0.3,0.2-0.3c0.1,0,0.1,0.1,0.1,0.3
					c0,0.1-0.2,1.6-0.4,2c-0.1,0.3-0.2,0.3-0.4,0.5c-0.6,0.3-1.8,0.4-2.8,0.4C587.7,18.6,586,18,584.8,16.9z"/>
				<path class="st1" d="M603.8,13.9c0,1.4,0,2.7,0.1,3.3c0.1,0.4,0.1,0.7,0.5,0.8c0.2,0.1,0.6,0.1,0.7,0.1c0.1,0,0.2,0.1,0.2,0.1
					c0,0.1-0.1,0.1-0.2,0.1c-0.9,0-2-0.1-2.1-0.1s-1.1,0.1-1.6,0.1c-0.2,0-0.3,0-0.3-0.1c0-0.1,0.1-0.1,0.2-0.1c0.1,0,0.3,0,0.4,0
					c0.3-0.1,0.4-0.3,0.5-0.9c0.1-0.6,0.1-1.9,0.1-3.3V7.5c-0.6,0-1.5,0-2.3,0c-1.2,0-1.4,0.2-1.7,0.6c-0.2,0.3-0.2,0.5-0.3,0.6
					c-0.1,0.1-0.1,0.1-0.2,0.1c-0.1,0-0.1-0.1-0.1-0.2c0-0.1,0.3-1.3,0.4-1.8c0.1-0.2,0.1-0.3,0.2-0.3c0.1,0,0.5,0.2,0.8,0.2
					c0.6,0.1,1.1,0.1,1.2,0.1h5.9c0.5,0,1,0,1.3-0.1c0.2-0.1,0.3-0.1,0.3-0.1c0.1,0,0.1,0.1,0.1,0.2c0,0.5,0,1.7,0,1.8
					c0,0.2-0.1,0.2-0.1,0.2c-0.1,0-0.1-0.1-0.1-0.2c0-0.1,0-0.1,0-0.3c-0.1-0.7-0.3-0.9-2.1-0.9c-0.7,0-1.2,0-1.8,0V13.9z"/>
				<path class="st1" d="M614.7,13.4c0,2.2,0.4,3.1,1.1,3.7c0.8,0.7,1.6,0.8,2.4,0.8c0.9,0,1.8-0.3,2.5-1c0.7-0.8,0.9-2.2,0.9-3.8
					v-1.9c0-2.4,0-2.8,0-3.3c0-0.5-0.1-0.8-0.7-0.9c-0.1,0-0.3,0-0.5,0c-0.1,0-0.2-0.1-0.2-0.1c0-0.1,0.1-0.1,0.3-0.1
					c0.8,0,1.7,0.1,1.7,0.1c0.1,0,0.9-0.1,1.4-0.1c0.2,0,0.3,0,0.3,0.1c0,0.1-0.1,0.1-0.2,0.1c-0.1,0-0.1,0-0.3,0
					c-0.5,0.1-0.6,0.4-0.6,0.9c0,0.5,0,0.9,0,3.3v1.6c0,1.6-0.2,3.6-1.5,4.7c-1.2,1-2.3,1.1-3.3,1.1c-0.5,0-2.2,0-3.4-1.1
					c-0.8-0.7-1.3-1.8-1.3-4v-2.2c0-2.4,0-2.8-0.1-3.3c0-0.5-0.1-0.8-0.7-0.9c-0.1,0-0.3,0-0.5,0c-0.1,0-0.2-0.1-0.2-0.1
					c0-0.1,0.1-0.1,0.3-0.1c0.8,0,1.7,0.1,1.9,0.1c0.1,0,1.2-0.1,1.7-0.1c0.2,0,0.3,0,0.3,0.1c0,0.1-0.1,0.1-0.2,0.1
					c-0.1,0-0.3,0-0.4,0c-0.4,0.1-0.5,0.4-0.5,0.9c0,0.5,0,0.9,0,3.3V13.4z"/>
				<path class="st1" d="M630.2,11.2c0-2.4,0-2.8,0-3.3c0-0.5-0.2-0.8-0.7-0.9c-0.1,0-0.3,0-0.4,0c-0.1,0-0.2,0-0.2-0.1
					c0-0.1,0.1-0.1,0.2-0.1c0.8,0,1.9,0.1,1.9,0.1c0.2,0,1.4-0.1,1.9-0.1c1,0,2.1,0.1,3,0.7c0.3,0.3,1.1,1,1.1,2.2
					c0,1-0.5,2.2-1.9,3.4c1.3,1.6,2.4,3,3.3,3.9c0.9,0.9,1.4,1,1.9,1.1c0.1,0,0.5,0,0.6,0c0.1,0,0.2,0.1,0.2,0.1
					c0,0.1-0.1,0.1-0.3,0.1h-1.3c-0.8,0-1.2-0.1-1.6-0.2c-0.8-0.3-1.3-1.1-2.2-2.3c-0.7-0.9-1.4-1.8-1.7-2.2
					c-0.1-0.1-0.1-0.1-0.2-0.1l-1.9,0c-0.1,0-0.1,0-0.1,0.1v0.3c0,1.4,0,2.8,0.1,3.4c0.1,0.4,0.1,0.8,0.7,0.9c0.2,0,0.4,0,0.5,0
					c0.2,0,0.2,0.1,0.2,0.1c0,0.1-0.1,0.1-0.3,0.1c-0.9,0-1.9-0.1-2-0.1c-0.3,0-1.1,0.1-1.6,0.1c-0.2,0-0.3,0-0.3-0.1
					c0-0.1,0.1-0.1,0.2-0.1c0.1,0,0.3,0,0.4,0c0.3-0.1,0.4-0.3,0.5-0.7c0.1-0.6,0.1-2.1,0.1-3.5V11.2z M631.5,12.5
					c0,0.1,0,0.2,0.1,0.2c0.2,0.1,1,0.2,1.6,0.2c0.4,0,0.8,0,1.2-0.3c0.5-0.3,0.9-1.1,0.9-2.3c0-2-1-3-2.6-3c-0.5,0-0.8,0-1,0.1
					c-0.1,0-0.1,0.1-0.1,0.2V12.5z"/>
				<path class="st1" d="M645,11.2c0-2.4,0-2.8,0-3.3c0-0.5-0.2-0.8-0.7-0.9c-0.1,0-0.3,0-0.4,0c-0.1,0-0.2-0.1-0.2-0.1
					c0-0.1,0.1-0.1,0.3-0.1c0.4,0,0.8,0,1.9,0.1c0.1,0,3.3,0,3.7,0c0.4,0,0.6,0,0.7-0.1c0.1,0,0.1-0.1,0.2-0.1c0,0,0.1,0,0.1,0.1
					c0,0.1-0.1,0.4-0.1,0.8c0,0.3,0,0.6-0.1,0.9c0,0.2,0,0.3-0.1,0.3s-0.1-0.1-0.1-0.2c0-0.3-0.1-0.5-0.1-0.6
					c-0.1-0.4-0.3-0.5-1.2-0.5c-0.2,0-2,0-2.1,0c-0.1,0-0.1,0-0.1,0.1v4.1c0,0.1,0,0.2,0.1,0.2c0.2,0,2.1,0,2.4-0.1
					c0.4,0,0.7-0.1,0.8-0.3c0.1-0.1,0.1-0.1,0.2-0.1c0,0,0.1,0,0.1,0.1c0,0.1-0.1,0.4-0.1,1c-0.1,0.5-0.1,0.9-0.1,1.1
					c0,0.1-0.1,0.2-0.1,0.2c-0.1,0-0.1-0.1-0.1-0.2c0-0.1,0-0.3-0.1-0.4c-0.1-0.2-0.2-0.5-0.9-0.5c-0.4,0-1.9-0.1-2.2-0.1
					c-0.1,0-0.1,0.1-0.1,0.1V14c0,0.6,0,2.1,0,2.4c0,0.7,0.1,1,0.5,1.2c0.3,0.1,0.7,0.2,1.3,0.2c0.3,0,0.9,0,1.4-0.1
					c0.5-0.2,0.7-0.5,0.8-1.2c0-0.2,0.1-0.3,0.2-0.3c0.1,0,0.1,0.2,0.1,0.3c0,0.1-0.1,1.3-0.2,1.6c-0.1,0.4-0.2,0.4-0.8,0.4
					c-1.2,0-1.7,0-2.3,0c-0.6,0-1.5-0.1-2.1-0.1c-0.4,0-0.8,0.1-1.2,0.1c-0.2,0-0.3,0-0.3-0.1c0-0.1,0.1-0.1,0.2-0.1
					c0.1,0,0.2,0,0.4-0.1c0.3-0.1,0.5-0.3,0.6-1.4c0-0.6,0-1.4,0-2.7V11.2z"/>
				<path class="st1" d="M661.8,4.7c0.1-0.2,0.2-0.3,0.2-0.3c0.1,0,0.5,0.2,0.5,0.3c0.1,0.1,0.1,0.1,0,0.3l-6.1,13.6
					c-0.1,0.1-0.1,0.2-0.2,0.2s-0.5-0.2-0.6-0.3c-0.1-0.1-0.1-0.1,0-0.3L661.8,4.7z"/>
				<path class="st1" d="M681,16.4c0.1,0.4,0.2,1.4,0.9,1.6c0.3,0.1,0.7,0.1,0.9,0.1c0.1,0,0.2,0,0.2,0.1c0,0.1-0.1,0.1-0.3,0.1
					c-0.3,0-2.3-0.1-2.8-0.1c-0.4,0-0.5-0.1-0.5-0.2c0-0.1,0.1-0.1,0.2-0.2c0.1,0,0.1-0.3,0.1-0.5l-0.8-7.7l-3.8,7.7
					c-0.3,0.7-0.4,0.9-0.6,0.9c-0.1,0-0.2-0.2-0.5-0.8c-0.3-0.5-1.7-3.4-1.8-3.6c-0.1-0.2-1.9-3.7-2-4.1l-0.7,6.9c0,0.3,0,0.4,0,0.7
					c0,0.2,0.1,0.5,0.5,0.5c0.2,0,0.3,0,0.5,0.1c0.1,0,0.2,0.1,0.2,0.1c0,0.1-0.1,0.1-0.3,0.1c-0.6,0-1.4-0.1-1.5-0.1
					c-0.2,0-0.9,0.1-1.4,0.1c-0.2,0-0.3,0-0.3-0.1c0,0,0.1-0.1,0.2-0.1c0.1,0,0.1,0,0.3,0c0.4,0,0.6-0.5,0.7-1.2l1.2-9.9
					c0-0.3,0.1-0.5,0.2-0.5s0.1,0.1,0.3,0.3l4.8,9.3l4.6-9.3c0.1-0.2,0.2-0.3,0.3-0.3c0.1,0,0.2,0.2,0.2,0.5L681,16.4z"/>
				<path class="st1" d="M688.7,11.2c0-2.4,0-2.8,0-3.3c0-0.5-0.2-0.8-0.7-0.9c-0.1,0-0.3,0-0.4,0c-0.1,0-0.2-0.1-0.2-0.1
					c0-0.1,0.1-0.1,0.3-0.1c0.4,0,0.8,0,1.9,0.1c0.1,0,3.3,0,3.7,0c0.4,0,0.6,0,0.7-0.1c0.1,0,0.1-0.1,0.2-0.1c0,0,0.1,0,0.1,0.1
					c0,0.1-0.1,0.4-0.1,0.8c0,0.3,0,0.6-0.1,0.9c0,0.2,0,0.3-0.1,0.3c-0.1,0-0.1-0.1-0.1-0.2c0-0.3-0.1-0.5-0.1-0.6
					c-0.1-0.4-0.3-0.5-1.2-0.5c-0.2,0-2,0-2.1,0c-0.1,0-0.1,0-0.1,0.1v4.1c0,0.1,0,0.2,0.1,0.2c0.2,0,2.1,0,2.4-0.1
					c0.4,0,0.7-0.1,0.8-0.3c0.1-0.1,0.1-0.1,0.2-0.1c0,0,0.1,0,0.1,0.1c0,0.1-0.1,0.4-0.1,1c-0.1,0.5-0.1,0.9-0.1,1.1
					c0,0.1-0.1,0.2-0.1,0.2c-0.1,0-0.1-0.1-0.1-0.2c0-0.1,0-0.3-0.1-0.4c-0.1-0.2-0.2-0.5-0.9-0.5c-0.4,0-1.9-0.1-2.2-0.1
					c-0.1,0-0.1,0.1-0.1,0.1V14c0,0.6,0,2.1,0,2.4c0,0.7,0.1,1,0.5,1.2c0.3,0.1,0.7,0.2,1.3,0.2c0.3,0,0.9,0,1.4-0.1
					c0.5-0.2,0.7-0.5,0.8-1.2c0-0.2,0.1-0.3,0.2-0.3c0.1,0,0.1,0.2,0.1,0.3c0,0.1-0.1,1.3-0.2,1.6c-0.1,0.4-0.2,0.4-0.8,0.4
					c-1.2,0-1.7,0-2.3,0c-0.6,0-1.5-0.1-2.1-0.1c-0.4,0-0.8,0.1-1.2,0.1c-0.2,0-0.3,0-0.3-0.1c0-0.1,0.1-0.1,0.2-0.1
					c0.1,0,0.2,0,0.4-0.1c0.3-0.1,0.5-0.3,0.6-1.4c0-0.6,0-1.4,0-2.7V11.2z"/>
				<path class="st1" d="M704.8,13.9c0,1.4,0,2.7,0.1,3.3c0.1,0.4,0.1,0.7,0.5,0.8c0.2,0.1,0.6,0.1,0.7,0.1c0.1,0,0.2,0.1,0.2,0.1
					c0,0.1-0.1,0.1-0.2,0.1c-0.9,0-2-0.1-2.1-0.1s-1.1,0.1-1.6,0.1c-0.2,0-0.3,0-0.3-0.1c0-0.1,0.1-0.1,0.2-0.1c0.1,0,0.3,0,0.4,0
					c0.3-0.1,0.4-0.3,0.5-0.9c0.1-0.6,0.1-1.9,0.1-3.3V7.5c-0.6,0-1.5,0-2.3,0c-1.2,0-1.4,0.2-1.7,0.6c-0.2,0.3-0.2,0.5-0.3,0.6
					c-0.1,0.1-0.1,0.1-0.2,0.1c-0.1,0-0.1-0.1-0.1-0.2c0-0.1,0.3-1.3,0.4-1.8c0.1-0.2,0.1-0.3,0.2-0.3c0.1,0,0.5,0.2,0.8,0.2
					c0.6,0.1,1.1,0.1,1.2,0.1h5.9c0.5,0,1,0,1.3-0.1c0.2-0.1,0.3-0.1,0.3-0.1c0.1,0,0.1,0.1,0.1,0.2c0,0.5,0,1.7,0,1.8
					c0,0.2-0.1,0.2-0.1,0.2c-0.1,0-0.1-0.1-0.1-0.2c0-0.1,0-0.1,0-0.3c-0.1-0.7-0.3-0.9-2.1-0.9c-0.7,0-1.2,0-1.8,0V13.9z"/>
				<path class="st1" d="M723.3,11.6c0.1,0,0.1,0,0.1-0.1v-0.3c0-2.4,0-2.8,0-3.3c0-0.5-0.1-0.7-0.7-0.8c-0.1,0-0.3,0-0.5,0
					c-0.1,0-0.2-0.1-0.2-0.1c0-0.1,0.1-0.1,0.3-0.1c0.8,0,1.8,0.1,1.9,0.1c0.1,0,1.1-0.1,1.6-0.1c0.2,0,0.3,0,0.3,0.1
					c0,0.1-0.1,0.1-0.2,0.1c-0.1,0-0.3,0-0.4,0c-0.5,0.1-0.6,0.4-0.6,0.9c0,0.5,0,0.9,0,3.3v2.7c0,1.5,0,2.6,0.1,3.3
					c0.1,0.4,0.1,0.8,0.6,0.8c0.2,0,0.5,0.1,0.6,0.1c0.1,0,0.2,0.1,0.2,0.1c0,0.1-0.1,0.1-0.3,0.1c-0.9,0-1.9-0.1-2-0.1
					c-0.1,0-1.1,0.1-1.6,0.1c-0.2,0-0.3,0-0.3-0.1c0-0.1,0.1-0.1,0.2-0.1c0.1,0,0.3,0,0.4,0c0.3-0.1,0.4-0.5,0.5-0.9
					c0.1-0.6,0.1-1.8,0.1-3.2v-1.6c0-0.1-0.1-0.1-0.1-0.1h-6.5c-0.1,0-0.1,0-0.1,0.1V14c0,1.5,0,2.6,0.1,3.3
					c0.1,0.4,0.1,0.8,0.6,0.8c0.2,0,0.5,0.1,0.6,0.1c0.1,0,0.2,0.1,0.2,0.1s-0.1,0.1-0.2,0.1c-0.9,0-2-0.1-2.1-0.1
					c-0.1,0-1.2,0.1-1.6,0.1c-0.2,0-0.3,0-0.3-0.1c0-0.1,0-0.1,0.2-0.1c0.1,0,0.3,0,0.4-0.1c0.3-0.1,0.4-0.4,0.5-0.8
					c0.1-0.6,0.1-1.9,0.1-3.3v-2.7c0-2.4,0-2.8,0-3.3c0-0.5-0.2-0.8-0.7-0.9c-0.2,0-0.3,0-0.5,0c-0.1,0-0.2-0.1-0.2-0.1
					c0-0.1,0.1-0.1,0.3-0.1c0.8,0,1.6,0.1,1.9,0.1c0.1,0,1.1-0.1,1.6-0.1c0.2,0,0.3,0,0.3,0.1c0,0.1-0.1,0.1-0.2,0.1
					c-0.1,0-0.2,0-0.4,0c-0.5,0.1-0.6,0.4-0.6,0.9c0,0.5,0,0.9,0,3.3v0.3c0,0.1,0.1,0.1,0.1,0.1H723.3z"/>
				<path class="st1" d="M731.5,12.6c0-2.4,1.9-6,6.3-6c3.6,0,6.3,2.1,6.3,5.7c0,3.4-2.5,6.2-6.4,6.2
					C733.3,18.6,731.5,15.3,731.5,12.6z M742.4,12.8c0-3.6-2.2-5.6-4.7-5.6c-2.5,0-4.5,1.5-4.5,5c0,3.5,2,5.9,5,5.9
					C739.4,18,742.4,17.4,742.4,12.8z"/>
				<path class="st1" d="M750.8,11.2c0-2.4,0-2.8,0-3.3c0-0.5-0.2-0.7-0.7-0.8c-0.1,0-0.4,0-0.5,0c-0.1,0-0.2-0.1-0.2-0.1
					c0-0.1,0.1-0.1,0.3-0.1c0.7,0,1.9,0.1,1.9,0.1c0.1,0,1.1-0.1,2.1-0.1c1.6,0,4.5-0.2,6.4,1.8c0.8,0.8,1.5,2.1,1.5,3.9
					c0,1.9-0.8,3.4-1.7,4.3c-0.7,0.7-2.1,1.8-4.8,1.8c-0.7,0-1.6,0-2.3-0.1c-0.7,0-1.2-0.1-1.3-0.1c0,0-0.3,0-0.6,0
					c-0.3,0-0.8,0-1,0c-0.2,0-0.3,0-0.3-0.1c0-0.1,0.1-0.1,0.2-0.1c0.1,0,0.3,0,0.4-0.1c0.3-0.1,0.4-0.4,0.5-0.8
					c0.1-0.7,0.1-1.9,0.1-3.3V11.2z M752.2,12.8c0,1.6,0,3,0,3.3c0,0.6,0.1,1,0.2,1.2c0.2,0.3,0.8,0.7,2.6,0.7
					c1.5,0,2.8-0.5,3.7-1.4c0.8-0.8,1.2-2.1,1.2-3.6c0-2-0.9-3.3-1.5-3.9c-1.5-1.5-3.3-1.7-5.1-1.7c-0.3,0-0.8,0.1-0.9,0.1
					c-0.1,0.1-0.2,0.1-0.2,0.3c0,0.5,0,2.1,0,3.1V12.8z"/>
			</g>
			<g>
				<path class="st1" d="M550.1,62c-1.2,3.8-2.7,7.3-4.5,10.3l-0.9-0.6c2.5-4.9,4.3-10.2,5.2-15.7h-4.5l-0.3-0.9h5v-8
					c2.4,0.1,3.6,0.4,3.6,1c0,0.3-0.5,0.7-1.6,1v6h1.4l1.5-2.2c0.6,0.7,1.2,1.5,1.8,2.4l-0.4,0.8h-4.4v4c1.4,1,2.5,2.1,3.4,3.2
					c0.7,1,1.1,1.9,1.1,2.6c0,0.8-0.4,1.2-1.1,1.2c-0.5,0-0.9-0.4-1-1.2c-0.3-1.5-1.1-3-2.3-4.5v18.1h-2V62z M567.5,63.1h4.8
					l1.3-1.4c1.5,1.1,2.2,1.8,2.2,2.1c0,0.1,0,0.2-0.2,0.3l-1,0.6v6.6h1l1.3-2.1c0.6,0.8,1.2,1.6,1.7,2.4l-0.4,0.7h-3.6v4
					c0,1.9-1.1,2.8-3.3,2.8c0-0.7-0.4-1.2-1.1-1.4c-0.5-0.2-1.7-0.5-3.5-0.8v-1c1.9,0.2,3.4,0.3,4.6,0.3c0.8,0,1.3-0.4,1.3-1.1v-2.8
					h-11.9v7.1h-2v-7.1H555l-0.4-0.9h4V62c0.5,0.2,1.4,0.6,2.4,1.1h4.4V60h-9.8l-0.4-0.9h6.5V56h-4l-0.3-0.9h4.4v-2.9h-5.3l-0.3-0.9
					h5.6V47c2.3,0,3.4,0.2,3.4,0.8c0,0.3-0.4,0.6-1.4,0.9v2.6h5.4V47c2.2,0,3.4,0.3,3.4,0.8c0,0.3-0.5,0.6-1.4,0.9v2.6h2.6l1.6-2
					c0.8,0.8,1.5,1.6,2,2.2l-0.3,0.6h-5.8v2.9h2.3l1.4-1.7c0.7,0.6,1.3,1.2,2,2l-0.4,0.7h-5.2v3.2h3.6l1.5-1.9
					c0.2,0.2,0.4,0.4,0.7,0.6c0.4,0.4,0.9,0.9,1.4,1.5l-0.3,0.6h-10.4V63.1z M565.5,64h-4.8v3.1h4.8V64z M565.5,71.3V68h-4.8v3.3
					H565.5z M569.1,52.1h-5.4v2.9h5.4V52.1z M569.1,56h-5.4v3.2h5.4V56z M572.6,67.1V64h-5.1v3.1H572.6z M572.6,68h-5.1v3.3h5.1V68z
					"/>
				<path class="st1" d="M592.9,72c1,1.6,2.7,2.8,4.9,3.4c2.3,0.7,5.8,1,10.3,1c3.1,0,6.4-0.1,10.1-0.4c-0.4,0.6-0.8,1.4-1.1,2.3
					h-8.6c-5.2,0-9.1-0.5-11.6-1.5c-2.2-0.9-3.8-2.2-4.7-4c-1.2,1.8-2.5,3.4-3.8,4.9c0,1-0.1,1.4-0.4,1.4c-0.5,0-1.2-1-2.2-2.8
					c2-1.2,3.8-2.4,5.1-3.6v-9.7H586l-0.4-0.9h4.8l1.4-1.6c1.4,1.1,2.1,1.8,2.1,2.2c0,0.2-0.1,0.3-0.3,0.4l-0.8,0.6V72z M587.5,48.4
					c3.7,1.7,5.6,3.5,5.6,5.4c0,0.9-0.4,1.4-1.3,1.4c-0.6,0-0.9-0.3-1.1-0.8c-0.8-2.1-2-3.9-3.7-5.3L587.5,48.4z M604.9,52.9V47
					c2.3,0.1,3.4,0.4,3.4,0.9c0,0.3-0.5,0.6-1.4,1v4h5.1l1.7-2.2c0.6,0.5,1.4,1.2,2.1,2.2l0.3,0.4l-0.4,0.6h-8.8v5.5h6.7l1.7-2.2
					c0.8,0.7,1.7,1.5,2.5,2.5l-0.4,0.7h-22.3l-0.5-0.9h10.3v-5.5h-5.4c-0.9,1.8-2,3.3-3.3,4.7l-0.8-0.6c1.8-2.7,3-6.2,3.8-10.4
					c2.2,0.4,3.3,0.8,3.3,1.3c0,0.3-0.5,0.6-1.4,0.7c-0.3,1.1-0.7,2.2-1.2,3.3H604.9z M611.5,63.7l1.2-1.6c1.5,1.1,2.2,1.8,2.2,2.2
					c0,0.1,0,0.2-0.2,0.3l-0.9,0.6v8.8h-2v-2h-11.7v2.1H598V62.6c0.8,0.3,1.7,0.7,2.5,1.1H611.5z M600.1,64.6v6.6h11.7v-6.6H600.1z"
					/>
				<path class="st1" d="M643.7,61.3c0.4,0.5,0.7,1.1,0.7,1.8c0,0.5-0.1,1-0.4,1.4c-0.6,0.8-1.3,1.2-2.2,1.2c-0.6,0-1.2-0.2-1.6-0.6
					c-0.6-0.6-1-1.2-1-2c0-0.9,0.4-1.6,1.1-2.1c0.5-0.3,0.9-0.5,1.5-0.5C642.5,60.4,643.1,60.7,643.7,61.3z"/>
				<path class="st1" d="M682.8,53.6v21.7h10l2.2-2.8c1.2,1.2,2,2.2,2.6,3l-0.4,0.8h-30.6l-0.4-0.9h14.4V53.6h-12.2l-0.3-0.9h23
					l2-2.6c0.6,0.6,1.5,1.5,2.6,2.8l-0.4,0.7H682.8z"/>
				<path class="st1" d="M706.3,55.3c3.4,1,5,2.3,5,4c0,1-0.4,1.4-1.2,1.4c-0.6,0-1-0.3-1.1-0.9c-0.5-1.4-1.4-2.8-3-3.8L706.3,55.3z
					 M716.4,53.9l-4.7,15.8l-0.2,0.5c-0.2,1-0.4,1.7-0.4,2.1c0,0.4,0.1,0.8,0.2,1.4c0.3,1.1,0.5,2.2,0.5,3.2c0,1.6-0.6,2.4-1.7,2.4
					c-0.9,0-1.3-0.4-1.3-1.2c0,0,0-0.5,0.2-1.4c0.2-1,0.2-1.9,0.2-2.6c0-2.2-1-3.5-3-3.8v-1c0.6,0.1,1.2,0.2,1.5,0.2
					c1.1,0,1.8-0.4,2.2-1.3c1.6-3.3,3.4-8.2,5.5-14.7L716.4,53.9z M708.9,47.6c3.5,0.9,5.3,2.1,5.3,3.8c0,1-0.4,1.4-1.2,1.4
					c-0.5,0-0.9-0.4-1.2-1.1c-0.5-1.2-1.6-2.4-3.2-3.4L708.9,47.6z M726.9,62.8h6.7l2-2.6c0.8,0.8,1.6,1.7,2.5,2.8l-0.5,0.8h-11
					c-0.1,0.2-0.2,0.3-0.2,0.4c-1.6,3.6-3.3,7-5.3,10.2l1,0c3.8-0.2,7.5-0.6,10.9-1c-1.1-1.7-2.6-3.6-4.7-5.7l0.6-0.7
					c3.3,2.3,5.7,4.6,7.4,7c0.8,1.2,1.2,2.1,1.2,2.9c0,1-0.4,1.5-1.3,1.5c-0.5,0-0.9-0.5-1.3-1.6c-0.3-0.7-0.7-1.6-1.2-2.5
					c-4.9,0.9-10.3,1.7-16.4,2.4c-0.2,0.9-0.5,1.3-0.8,1.3c-0.5,0-1-1.2-1.4-3.5l4-0.1h0.9c1.7-3.5,3-7.1,3.9-10.7H715l-0.4-0.9
					h10.2v-7.8h-7l-0.3-0.9h7.3v-6.9c2.5,0.1,3.7,0.4,3.7,0.9c0,0.3-0.5,0.7-1.6,1.1V54h5.3l1.6-2.4c0.7,0.6,1.4,1.5,2.4,2.6
					l-0.4,0.7h-8.9V62.8z"/>
			</g>
		</g>
	</g>
</g>
</svg>
