<?xml version="1.0" encoding="UTF-8"?>
<svg id="_レイヤー_2" data-name="レイヤー 2" xmlns="http://www.w3.org/2000/svg" viewBox="0 0 121.2371206 22.7598599">
  <defs>
    <style>
      .cls-1 {
        fill: #94aeb8;
      }

      .cls-2 {
        fill: none;
        stroke: #003f57;
        stroke-miterlimit: 10;
        stroke-width: .5901287px;
      }

      .cls-3 {
        fill: #003f57;
      }
    </style>
  </defs>
  <g id="_レイヤー_1-2" data-name="レイヤー 1">
    <g>
      <g>
        <path class="cls-3" d="m.2539062,7.9177191l2.8398438-.1806641c.1552734.7382812.2578125,1.4423828.3066406,2.109375.5380859-.7734375,1.0761719-1.3183594,1.6132812-1.6347656.5380859-.3164062,1.1289062-.4746094,1.7724609-.4746094.6865234,0,1.2519531.1796875,1.6982422.5380859.4453125.359375.7880859.9433594,1.0292969,1.7519531.4716797-.7675781.9980469-1.3398438,1.5761719-1.7207031.578125-.3789062,1.2089844-.5693359,1.8935547-.5693359.9023438,0,1.5800781.2685547,2.03125.8056641.578125.7060547.8671875,1.6171875.8671875,2.7333984v4.9267578c0,.296875.0742188.4980469.2226562.6035156.1972656.1621094.4912109.2441406.8798828.2441406h.4970703v.7949219h-4.9902344v-.7949219h.4980469c.4238281,0,.7207031-.0703125.890625-.2128906.1689453-.140625.2539062-.3535156.2539062-.6367188v-4.9326172c0-.7353516-.1796875-1.3046875-.5390625-1.7080078s-.8320312-.6044922-1.4160156-.6044922c-.4443359,0-.8457031.1181641-1.2050781.3544922-.359375.2382812-.6416016.5751953-.8457031,1.0136719-.3027344.6289062-.4550781,1.1640625-.4550781,1.6015625v4.2753906c0,.2910156.078125.5048828.2333984.6425781.1552734.1386719.3955078.2070312.7207031.2070312h.6777344v.7949219h-5.0644531v-.7949219h.5722656c.3603516,0,.6289062-.0703125.8056641-.2119141.1757812-.1416016.2646484-.3212891.2646484-.5400391v-4.578125c0-.9667969-.171875-1.6699219-.5136719-2.1074219-.3427734-.4384766-.8037109-.6572266-1.3828125-.6572266-.7490234,0-1.3242188.2539062-1.7275391.7626953-.5722656.7207031-.8583984,1.5605469-.8583984,2.5214844v3.9628906c0,.3037109.0673828.5117188.2021484.625.1904297.1484375.4873047.2226562.8896484.2226562h.5087891v.7949219H0v-.7949219h.7519531c.2822266,0,.5-.0703125.6513672-.2119141.1523438-.1416016.2285156-.3212891.2285156-.5400391v-6.5058594c0-.3603516-.0917969-.6289062-.2753906-.8046875-.1845703-.1777344-.5517578-.2900391-1.1025391-.3398438v-.7304688Z"/>
        <path class="cls-3" d="m25.7861328,7.6208441c1.3349609,0,2.4570312.4824219,3.3642578,1.4453125.9072266.9648438,1.3613281,2.234375,1.3613281,3.8095703,0,1.0878906-.203125,2.0146484-.609375,2.78125s-.9853516,1.3720703-1.7373047,1.8173828-1.5625.6679688-2.4316406.6679688c-1.2851562,0-2.375-.4882812-3.2685547-1.4628906s-1.3398438-2.2392578-1.3398438-3.7929688c0-1.5605469.4482422-2.8291016,1.3457031-3.8037109.8964844-.9746094,2.0019531-1.4619141,3.3154297-1.4619141Zm0,.7519531c-.7910156,0-1.4404297.3583984-1.9492188,1.0761719-.5087891.7167969-.7626953,1.8476562-.7626953,3.3945312,0,1.5761719.2519531,2.7265625.7578125,3.4550781.5048828.7265625,1.15625,1.0908203,1.9541016,1.0908203.8271484,0,1.4960938-.3642578,2.0078125-1.0908203.5126953-.7285156.7685547-1.9179688.7685547-3.5712891,0-1.5322266-.2529297-2.6416016-.7578125-3.3271484-.5048828-.6845703-1.1777344-1.0273438-2.0185547-1.0273438Z"/>
        <path class="cls-3" d="m33.9638672,7.9177191l3.5703125-.1806641v4.015625c.3818359-1.3212891.8408203-2.3203125,1.3779297-2.9990234.5361328-.6777344,1.2001953-1.0166016,1.9921875-1.0166016.5361328,0,.9658203.1640625,1.2871094.4931641.3212891.328125.4814453.7675781.4814453,1.3183594,0,.4453125-.1074219.7910156-.3222656,1.0390625-.2158203.2470703-.4863281.3710938-.8105469.3710938-.3183594,0-.5742188-.1064453-.7685547-.3183594s-.2910156-.4980469-.2910156-.8583984c0-.2333984.0556641-.4521484.1689453-.6572266.1064453-.1835938.1591797-.2929688.1591797-.328125,0-.1054688-.0673828-.1582031-.2011719-.1582031-.2900391,0-.6181641.1689453-.9853516.5078125-.5087891.4726562-.9003906,1.1230469-1.1757812,1.9492188-.4238281,1.2861328-.6357422,2.3144531-.6357422,3.0839844v2.1289062c0,.2402344.0839844.4238281.2539062.5507812s.4589844.1914062.8691406.1914062h1.2607422v.7949219h-6.1669922v-.7949219h.9853516c.3320312,0,.5830078-.0654297.7529297-.1962891.1689453-.1298828.2539062-.2880859.2539062-.4716797v-6.3251953c0-.4794922-.1025391-.8310547-.3076172-1.0537109s-.4980469-.3339844-.8789062-.3339844h-.8691406v-.7519531Z"/>
        <path class="cls-3" d="m55.2373047,12.9499456h-7.109375c.0351562,1.5117188.3173828,2.578125.8476562,3.2001953.6074219.6992188,1.3808594,1.0488281,2.3203125,1.0488281,1.3837891,0,2.4960938-.7871094,3.3369141-2.3632812l.6884766.296875c-1.03125,2.0058594-2.5214844,3.0097656-4.4707031,3.0097656-1.328125,0-2.4462891-.4804688-3.3535156-1.4414062s-1.3613281-2.1894531-1.3613281-3.6875c0-1.6103516.4462891-2.9121094,1.3398438-3.9042969s1.9941406-1.4882812,3.3007812-1.4882812c.9609375,0,1.7910156.2470703,2.4902344.7412109.6992188.4951172,1.2246094,1.2041016,1.578125,2.1298828.2470703.6503906.3779297,1.46875.3925781,2.4580078Zm-7.109375-.7529297h4.3017578c.2539062,0,.4511719-.0859375.5927734-.2587891s.2119141-.4677734.2119141-.8847656c0-.7763672-.2421875-1.4375-.7255859-1.9814453-.484375-.5439453-1.0546875-.8164062-1.7109375-.8164062-.7353516,0-1.3583984.3291016-1.8701172.9863281-.5126953.65625-.7792969,1.6425781-.7998047,2.9550781Z"/>
      </g>
      <circle class="cls-1" cx="109.8571907" cy="11.37993" r="11.37993"/>
      <polyline class="cls-2" points="66.203064 12.1180383 112.4048983 12.1180383 104.8825718 7.4889143"/>
    </g>
  </g>
</svg>