<?xml version="1.0" encoding="UTF-8"?>
<svg id="_レイヤー_2" data-name="レイヤー 2" xmlns="http://www.w3.org/2000/svg" viewBox="0 0 271.0400391 16.4052734">
  <g id="_レイヤー_1-2" data-name="レイヤー 1">
    <g>
      <path d="m15.3181152,5.8422852v.800293h-4.7219238c1.2006836,1.6005859,3.3774414,2.6572266,4.9140625,3.2011719l-.4802246.800293c-1.4084473-.527832-3.7294922-1.6645508-5.4421387-4.0014648h-3.0251465c-1.7287598,2.1611328-4.7539062,3.3935547-5.6184082,3.7456055l-.4001465-.800293c1.1845703-.3842773,3.1533203-1.1367188,4.9140625-2.9453125H.6723633v-.800293h5.4580078c.2402344-.3203125.4802246-.6884766.8005371-1.3286133-.8483887.0161133-4.5620117.0639648-5.3303223.0639648l-.0959473-.7363281,2.4489746-.015625c.3520508-.4165039,1.3925781-1.8408203,1.8566895-2.8173828l.8964844.2719727c-.6884766,1.1367188-1.0244141,1.6650391-1.7287598,2.5454102,3.8896484-.0161133,5.2021484-.0322266,7.2988281-.2402344-1.456543-1.1206055-1.7927246-1.3125-2.2568359-1.5688477l.4802246-.5761719c1.8566895,1.0405273,2.6091309,1.6489258,4.001709,2.8330078l-.6242676.6884766c-.208252-.2241211-.3522949-.3842773-.8164062-.7524414-1.6967773.1762695-3.4575195.3041992-5.1860352.3041992-.2722168.5761719-.4001465.8164062-.7524414,1.3286133h8.1953125ZM2.1608887,14.7416992c6.3864746-.1918945,9.2998047-2.2407227,10.932373-3.5693359l.6882324.5922852c-3.5854492,2.9291992-8.0512695,3.7294922-11.2524414,3.8256836l-.3681641-.8486328Zm.2880859-2.2729492c3.3134766-.2880859,6.2104492-1.4082031,8.2272949-2.8969727l.6723633.6083984c-2.1450195,1.6323242-5.2980957,2.769043-8.5476074,3.1210938l-.3520508-.8325195Zm.3520508-2.0644531c.7524414-.1762695,3.4575195-.784668,5.7783203-2.4970703l.6083984.4960938c-1.8566895,1.5205078-3.6655273,2.1767578-5.9543457,2.7050781l-.432373-.7041016Z"/>
      <path d="m30.6296387,7.9550781c-2.4812012.65625-4.5778809,1.1044922-8.371582,1.5205078-.2399902.640625-.4321289,1.1044922-.65625,1.5849609h8.9157715c-.2561035,4.3374023-1.376709,4.5776367-2.4812012,4.5776367h-2.9450684l-.2080078-.8964844,3.0891113.0483398c.8483887.0161133,1.3605957-.3041992,1.6005859-2.9130859h-9.4277344c.4963379-.9125977.8803711-1.8408203,1.3605957-3.1054688-1.3444824.6401367-2.4489746,1.0566406-3.8735352,1.4248047l-.4321289-.7524414c1.6645508-.4804688,4.3056641-1.3125,7.3789062-3.2973633h-7.2509766v-.800293h5.9064941v-1.9848633h-4.7539062v-.7524414h4.7539062V.9604492h.8962402v1.6484375h3.5854492v.7524414h-3.5854492v1.9848633h1.5847168c1.3286133-.9926758,2.8330078-2.2729492,4.4816895-4.3696289l.7844238.4321289c-.4802246.6401367-1.5046387,2.0004883-3.9375,3.9375h4.9299316v.800293h-5.9865723c-1.7924805,1.2646484-2.6408691,1.6967773-3.2331543,2.0009766-.0319824.0795898-.1601562.4638672-.1921387.5439453,3.489502-.4643555,4.7858887-.7680664,7.3630371-1.4726562l.7043457.7363281Z"/>
      <path d="m44.5646973,3.0253906l1.0244141,1.2163086c-.2722168,2.0966797-1.232666,9.4277344-9.1237793,10.6123047l-.4963379-.9282227c1.7287598-.2402344,7.795166-1.0888672,8.6276855-9.9882812h-10.0361328v-.9121094h10.0041504Zm5.0419922-.784668c0,1.2324219-1.0085449,2.2412109-2.2409668,2.2412109s-2.2409668-1.0087891-2.2409668-2.2412109c0-1.2485352,1.0085449-2.2407227,2.2409668-2.2407227s2.2409668.9921875,2.2409668,2.2407227Zm-3.6655273,0c0,.784668.6401367,1.4248047,1.4245605,1.4248047s1.4245605-.6401367,1.4245605-1.4248047c0-.800293-.6401367-1.4243164-1.4245605-1.4243164s-1.4245605.6240234-1.4245605,1.4243164Z"/>
      <path d="m64.0537109,5.8901367c-.8803711,6.6748047-4.3217773,8.3554688-10.0842285,9.0117188l-.2561035-.9760742c3.8735352-.4003906,8.307373-1.168457,9.2678223-7.1230469h-11.4125977v-.9125977h12.4851074Zm-.9604492-3.7451172v.9121094h-10.4042969v-.9121094h10.4042969Z"/>
      <path d="m73.3308105,5.8261719c-1.3925781-.9604492-3.4575195-1.824707-4.9140625-2.2407227l.5441895-.9125977c1.5847168.4643555,3.5375977,1.3125,4.9301758,2.2250977l-.5603027.9282227Zm-4.5458984,7.5874023c1.1044922-.0322266,4.3378906-.1762695,7.3789062-2.6894531,2.9453125-2.4487305,4.001709-5.7783203,4.4338379-7.1386719l.8325195.65625c-.576416,1.6166992-1.7607422,4.9140625-4.8981934,7.4428711-2.1606445,1.7290039-4.8337402,2.7211914-7.5869141,2.8330078l-.1601562-1.1040039Z"/>
      <path d="m91.1872559,13.8935547c1.824707-.2241211,5.8903809-.7202148,5.8903809-5.4902344,0-1.0883789-.2722168-5.3300781-5.4101562-5.3779297-.2561035,2.8007812-.5603027,6.1621094-2.1608887,8.7075195-.8803711,1.3920898-1.7768555,1.8564453-2.5131836,1.8564453-1.5524902,0-2.7370605-1.9047852-2.7370605-4.3696289,0-4.0976562,2.8652344-7.074707,7.3469238-7.074707,5.3781738,0,6.482666,3.8891602,6.482666,6.2104492,0,4.737793-3.5373535,6.1621094-6.5786133,6.4663086l-.3200684-.9282227Zm-3.4733887-9.7958984c-1.9528809,1.3603516-2.5290527,3.3774414-2.5290527,5.1220703,0,1.3125.4960938,3.3613281,1.7766113,3.3613281.512207,0,1.0883789-.3041992,1.7607422-1.3764648,1.5847168-2.5449219,1.8408203-6.4829102,1.9528809-8.1313477-1.1364746.0961914-2.0488281.3842773-2.9611816,1.0244141Z"/>
      <path d="m103.9216309,8.6914062c-.7683105.9604492-.8803711,1.824707-.8803711,2.2729492,0,.8325195.4802246,1.6166992,1.088623,2.0009766.9123535.5761719,1.8405762.7202148,3.793457.7202148,2.625,0,4.1936035-.1923828,5.6022949-.3520508l.0800781,1.0400391c-1.1364746.0961914-2.9931641.2402344-5.458252.2402344-2.1289062,0-3.3933105-.1757812-4.449707-.7841797-.9924316-.5761719-1.5688477-1.6806641-1.5688477-2.8652344,0-1.2324219.576416-2.1767578,1.0244141-2.8330078l.7683105.5600586Zm7.4750977-5.0742188c-1.0725098.3364258-2.3850098.8007812-4.1135254,1.9692383l-.720459-.640625c.8803711-.6240234,1.520752-.9282227,2.4331055-1.2802734-2.545166.0161133-4.2416992.0478516-6.0024414.1118164v-1.0083008c1.1843262.0161133,1.9047852.0161133,8.4033203.0161133v.8320312Zm.9604492-2.7851562c.4802246.7363281,1.0083008,1.6328125,1.5686035,3.0576172l-.8642578.4799805c-.4963379-1.3125-.8964844-2.1450195-1.4887695-3.0893555l.7844238-.4482422Zm2.1289062-.6240234c.8161621,1.2006836,1.2963867,2.2568359,1.6166992,3.0253906l-.864502.4960938c-.5441895-1.4086914-1.0083008-2.2568359-1.5366211-3.0732422l.7844238-.4482422Z"/>
      <path d="m122.4663086,3.7773438v.7685547h-5.3139648v-.7685547h5.3139648Zm-.4960938-2.2407227v.7524414h-4.369873v-.7524414h4.369873Zm0,4.4975586v.784668h-4.369873v-.784668h4.369873Zm0,2.2573242v.7680664h-4.369873v-.7680664h4.369873Zm0,2.2407227v4.8339844h-4.3217773v-4.8339844h4.3217773Zm-.8164062.7363281h-2.6730957v3.3291016h2.6730957v-3.3291016Zm10.6604004-5.1860352v.7680664h-9.1396484v-.7680664h4.1455078v-1.296875h-3.4733887v-.7358398h3.4733887v-1.152832h-3.8894043v-.7680664h3.8894043V.9604492h.8803711v1.168457h3.8256836v.7680664h-3.8256836v1.152832h3.5214844v.7358398h-3.5214844v1.296875h4.1137695Zm-.7844238,8.3393555c0,1.1362305-.65625,1.2324219-1.2805176,1.2324219h-1.6806641l-.2399902-.9282227,1.7446289.0478516c.3681641.0161133.6403809-.0961914.6403809-.4960938v-1.5205078h-5.8903809v2.8969727h-.864502v-7.4589844h7.5710449v6.2265625Zm-.8161621-5.4741211h-5.8903809v1.1523438h5.8903809v-1.1523438Zm0,1.9047852h-5.8903809v1.168457h5.8903809v-1.168457Z"/>
      <path d="m147.2216797,6.3222656c-1.0244141,1.3608398-2.2890625,2.5131836-3.6176758,3.5698242,1.2646484,1.9848633,3.345459,3.3613281,4.7861328,4.2573242l-.5603027.7685547c-3.7456055-2.4648438-5.2822266-4.6098633-6.2746582-7.3310547v6.6108398c0,1.1523438-.4001465,1.456543-1.3603516,1.456543h-2.5131836l-.1599121-.9604492,2.5769043.0322266c.576416,0,.576416-.1923828.576416-.5283203V4.6738281h-6.8989258v-.8164062h6.8989258V.9604492h.880127v2.8969727h6.9147949v.8164062h-6.8986816c.4321289,2.1928711,1.0883789,3.5854492,1.5686035,4.449707.1281738-.1118164,2.0808105-1.6166992,3.3293457-3.3930664l.7524414.5917969Zm-13.4135742,7.1069336c2.7211914-1.1362305,4.5939941-2.3686523,5.970459-3.3452148l.3681641.7202148c-2.3210449,1.7128906-4.3217773,2.7373047-5.9064941,3.4897461l-.4321289-.8647461Zm3.6015625-3.9853516c-1.168457-1.8886719-1.9367676-2.7373047-2.3369141-3.1694336l.6882324-.5600586c1.168457,1.2485352,1.7766113,2.0805664,2.4489746,3.1210938l-.800293.6083984Zm8.2111816-5.8266602c-.8322754-.8320312-1.4885254-1.3764648-2.3688965-1.9526367l.512207-.6401367c.9604492.6083984,1.6806641,1.1523438,2.4650879,1.8725586l-.6083984.7202148Z"/>
      <path d="m158.0061035,15.9101562c-2.2570801-2.5927734-2.8813477-5.6499023-2.8652344-7.5869141,0-1.96875.6401367-5.0258789,2.8652344-7.5869141h.9282227c-1.7766113,2.2890625-2.7050781,4.7216797-2.7209473,7.5869141,0,4.065918,2.0488281,6.7226562,2.7209473,7.5869141h-.9282227Z"/>
      <path d="m174.6459961,2.4008789v.7841797h-1.3605957v2.9291992h2.0327148v.784668h-2.0327148v3.2651367h1.6166992v.7524414h-13.8137207v-.7524414h1.96875v-3.2651367h-2.3688965v-.784668h2.3688965v-2.3046875c-.7521973.6879883-1.392334,1.1044922-1.8085938,1.3603516l-.6403809-.6401367c1.2485352-.7363281,2.689209-1.8085938,3.7456055-3.6333008l.8642578.2080078c-.2719727.4799805-.4799805.800293-.8481445,1.2963867h10.276123Zm-13.909668,12.6611328c1.1523438-1.1523438,1.8085938-2.4648438,2.2409668-3.4892578l.8803711.2880859c-.512207,1.2802734-1.2165527,2.6567383-2.2409668,3.7294922l-.8803711-.5283203Zm5.394043-11.8769531h-2.2248535v2.9291992h2.2248535v-2.9291992Zm0,3.7138672h-2.2248535v3.2651367h2.2248535v-3.2651367Zm-.3039551,8.5151367c.0478516-.3681641.0800781-.7202148.0800781-1.3764648,0-1.0083008-.0961914-1.8085938-.1601562-2.3046875h.8803711c.0639648.4477539.2719727,2.0166016.1921387,3.6811523h-.9924316Zm3.4094238-12.2290039h-2.2570801v2.9291992h2.2570801v-2.9291992Zm0,3.7138672h-2.2570801v3.2651367h2.2570801v-3.2651367Zm.5600586,8.5151367c-.2719727-1.7285156-.5922852-2.769043-.9282227-3.6811523l.8481445-.0800781c.6403809,1.6484375.8964844,2.6088867,1.088623,3.6333008l-1.0085449.1279297Zm2.6411133-12.2290039h-2.3530273v2.9291992h2.3530273v-2.9291992Zm0,3.7138672h-2.3530273v3.2651367h2.3530273v-3.2651367Zm1.8728027,8.7231445c-.7363281-1.5844727-1.4406738-2.7368164-2.3530273-3.793457l.800293-.3681641c1.2165527,1.3447266,2.1289062,2.9775391,2.5131836,3.6655273l-.9604492.4960938Z"/>
      <path d="m183.010498,11.0444336c-.7524414-.8803711-1.1525879-1.4248047-1.7126465-2.3051758v6.9150391h-.8325195v-6.9790039c-.4799805,1.1044922-1.2324219,2.4331055-2.6569824,3.9697266l-.4802246-.7841797c1.9208984-1.7607422,2.8491211-4.2099609,3.1052246-4.8662109h-3.0732422v-.7680664h3.1052246V.9765625h.8325195v5.25h2.769043v.7680664h-2.769043v.2880859c.7683105,1.4086914,1.5844727,2.3530273,2.2407227,3.0576172l-.5280762.7041016Zm-4.4658203-5.6181641c-.2722168-1.3764648-.5761719-2.2890625-.9924316-3.265625l.7363281-.2880859c.5280762,1.152832.8322754,2.0810547,1.0725098,3.28125l-.8164062.2724609Zm3.6015625-.2880859c.5600586-1.0566406.880127-1.9848633,1.1523438-3.2172852l.7683105.2080078c-.2722168,1.2485352-.6081543,2.2246094-1.2165527,3.3452148l-.7041016-.3359375Zm9.7319336,4.4975586l.1279297.8164062-1.6486816.3203125v4.8818359h-.9284668v-4.6899414l-5.762207,1.1362305-.144043-.7519531,5.90625-1.2006836V.9765625h.9284668v8.9794922l1.520752-.3203125Zm-4.4499512-.6879883c-1.1364746-1.1845703-2.0168457-1.824707-2.8811035-2.3691406l.4802246-.6401367c1.2644043.7202148,2.0808105,1.4243164,3.0090332,2.3208008l-.6081543.6884766Zm.4963379-4.3378906c-.864502-.9125977-1.6486816-1.6005859-2.7531738-2.3530273l.4960938-.5922852c.6403809.3842773,1.5366211.9443359,2.8171387,2.2729492l-.5600586.6723633Z"/>
      <path d="m193.7121582,15.9101562c.7524414-.9760742,2.7050781-3.5854492,2.7050781-7.5869141,0-4.081543-2.0168457-6.706543-2.7050781-7.5869141h.9284668c2.2087402,2.5126953,2.8649902,5.5859375,2.8811035,7.5869141,0,1.9848633-.65625,5.0419922-2.8811035,7.5869141h-.9284668Z"/>
      <path d="m207.8574219,1.7446289c-.2880859,1.6328125-.7043457,3.9375-.7043457,7.5229492,0,3.2973633.3361816,4.722168.4960938,5.3623047l-.9602051.1601562c-.4001465-1.8730469-.4643555-3.777832-.4643555-5.6826172,0-2.5927734.1921387-4.8818359.6083984-7.4428711l1.0244141.0800781Zm11.076416,2.769043v.9287109h-3.1533203l.0639648,4.609375c1.7927246.8964844,2.8491211,1.953125,3.2973633,2.4331055l-.6721191.9125977c-.6242676-.8803711-1.6008301-1.7446289-2.6252441-2.3369141v.7363281c0,1.2324219,0,2.9291992-2.9611816,2.9291992-2.5449219,0-3.3132324-1.4887695-3.3132324-2.609375,0-1.6323242,1.4726562-2.7211914,3.4572754-2.7211914.1921387,0,.9924316,0,1.9047852.2885742l-.0959473-4.2416992h-5.0581055v-.9287109h5.0419922l-.0478516-2.8491211h.9763184l.0319824,2.8491211h3.1533203Zm-4.0175781,6.0986328c-.4162598-.1762695-.9284668-.4003906-1.8569336-.4003906-1.3603516,0-2.6088867.5444336-2.6088867,1.8886719,0,1.6811523,1.8886719,1.7929688,2.3530273,1.7929688,2.112793,0,2.112793-1.1845703,2.112793-2.1606445v-1.1206055Z"/>
      <path d="m225.1374512,8.8193359c-.7841797.9604492-.8803711,1.824707-.8803711,2.2729492,0,.8325195.4802246,1.6166992,1.0883789,2.0009766.864502.5444336,1.7128906.7202148,3.7937012.7202148,2.8010254,0,4.4978027-.1918945,5.9863281-.3520508l.0800781,1.0405273c-1.3125.0957031-3.2492676.2397461-5.8422852.2397461-2.7531738,0-3.7294922-.3681641-4.4499512-.7841797-.9924316-.5761719-1.5686035-1.6806641-1.5686035-2.8652344,0-1.2324219.5761719-2.1767578,1.0244141-2.8330078l.7683105.5600586Zm8.9956055-5.2661133c-1.5205078.1762695-3.7773438,1.0883789-5.2661133,1.9848633l-.6081543-.7202148c1.5524902-.800293,2.0007324-.9921875,2.9450684-1.2802734-1.3764648.015625-6.0024414.0957031-7.0107422.1279297v-1.0083008c2.2089844.015625,7.8271484.015625,9.9399414,0v.8959961Z"/>
      <path d="m252.2939453,3.5214844v.8964844h-8.5153809c-.1921387,1.2963867-.3361816,2.2724609-.8164062,3.6333008,1.3125-.9443359,2.9450684-1.3286133,4.5617676-1.3286133,3.28125,0,4.2097168,2.1289062,4.2097168,3.793457,0,4.2099609-4.7219238,4.3217773-7.6191406,4.3217773-1.1203613,0-1.6166992-.0317383-2.1289062-.0800781l-.223877-.9604492c.7841797.0639648,1.6965332.128418,2.7370605.128418,3.5373535,0,6.1623535-.5444336,6.1623535-3.3774414,0-2.5292969-1.8886719-2.9775391-3.3452148-2.9775391-.4963379,0-2.7851562,0-4.6738281,1.8730469-.0961914.2241211-.1601562.3520508-.3522949.6879883l-.9604492-.3198242c.6884766-1.4726562,1.1044922-2.9931641,1.4726562-5.394043h-3.793457v-.8964844h3.9055176c.0639648-.5761719.0959473-.9604492.1120605-1.953125l1.0563965.0161133c-.0639648.800293-.0959473,1.1367188-.1921387,1.9370117h8.4035645Z"/>
      <path d="m258.7055664,3.8574219c-.4160156,1.2324219-.5441895,2.2568359-.5280762,4.9619141,1.6645508-1.456543,3.6494141-2.2084961,5.8742676-2.2084961,3.3774414,0,4.3537598,1.9526367,4.3537598,3.5854492,0,2.128418-1.1523438,3.6972656-3.8896484,4.3212891-1.0083008.2241211-2.0166016.3203125-3.0571289.3203125-1.4406738,0-2.3850098-.1601562-3.0732422-.2719727l-.0800781-.9443359c1.0405273.2080078,2.032959.3041992,3.0893555.3041992s3.9375-.1123047,5.2980957-1.6010742c.6882324-.7519531.6882324-1.96875.6882324-2.112793,0-.6079102-.2241211-2.7207031-3.3132324-2.7207031-2.833252,0-5.2182617,1.4404297-5.8583984,2.7529297l-.9604492-.0161133c.0161133-.512207.0161133-2.7851562.0319824-3.2495117.0639648-1.824707.2880859-2.7207031.4802246-3.3930664l.9443359.2719727Zm7.2509766-.2719727c-1.4084473-.5600586-3.3933105-1.0083008-6.2104492-1.0883789l.1921387-.9604492c1.3283691.0639648,3.9213867.2241211,6.3383789,1.0244141l-.3200684,1.0244141Z"/>
      <path d="m0,16.4052734v-.7998047h271.0400391v.7998047H0Z"/>
    </g>
  </g>
</svg>