<?xml version="1.0" encoding="UTF-8"?>
<svg id="_レイヤー_2" data-name="レイヤー 2" xmlns="http://www.w3.org/2000/svg" viewBox="0 0 149.7600098 15.4775391">
  <g id="_レイヤー_1-2" data-name="レイヤー 1">
    <g>
      <path d="m11.1884766,3.0253906v.8964844h-5.5703125l-.0319824,3.2973633h2.8491211c1.0085449,0,1.7607422-.0800781,2.5610352-.2880859l.0800781.8803711c-.5922852.1757812-1.5524902.2719727-2.5769043.2719727h-2.9291992v.512207c0,3.6494141-.0480957,4.4179688,3.6333008,4.4179688,1.5688477,0,4.2258301,0,4.2258301-3.4414062,0-1.3286133-.4482422-2.609375-.9924316-3.7456055l.8803711-.2080078c.2399902.4799805,1.0563965,2.0649414,1.0563965,4.0336914,0,.5917969-.0480957,3.0253906-2.3530273,3.9213867-.9282227.3520508-2.3527832.3520508-2.8330078.3520508-4.5939941,0-4.5458984-1.7124023-4.5458984-5.3300781v-.512207H1.4726562v-.8642578h3.1853027l.0319824-3.2973633H1.7446289v-.8964844h2.9611816l.0161133-2.3847656h.9284668l-.0161133,2.3847656h5.5541992Z"/>
      <path d="m22.8823242,12.5014648c1.1525879-.0161133,3.0092773-.0161133,4.3857422-.8164062,1.1525879-.65625,1.8249512-1.824707,1.8249512-3.0893555,0-1.9208984-1.376709-2.8969727-3.2333984-2.8969727-1.3444824,0-4.449707.6079102-6.4665527,1.1523438l-.1760254-.9443359c.5600586-.0961914,3.0891113-.5761719,3.6013184-.6723633.8803711-.144043,2.1608887-.3520508,3.057373-.3520508,3.0410156,0,4.1455078,1.9047852,4.1455078,3.6977539,0,2.5927734-2.0488281,4.0175781-3.793457,4.4335938-1.2324219.2880859-2.2409668.3037109-3.1052246.3203125l-.2402344-.8325195Z"/>
      <path d="m46.7094727,5.5068359c-2.177002.2714844-10.4362793,1.328125-10.4362793,5.1220703,0,2.0644531,2.0007324,2.2885742,6.0185547,2.2885742,2.480957,0,3.9216309-.1279297,4.9299316-.2241211l.0319824,1.0244141c-1.2966309.0644531-2.769043.1445312-4.9619141.1445312-2.8012695,0-6.9628906,0-6.9628906-3.2333984,0-2.8813477,3.7775879-4.2739258,4.657959-4.6103516-.2561035-.5600586-.4001465-1.0878906-.4802246-1.9365234-.0161133-.2558594-.0961914-3.137207-.1120605-3.5053711h1.0563965c0,.3842773-.0319824.8325195-.0319824,1.5366211,0,2.1611328.1601562,2.9291992.4802246,3.6015625,1.9846191-.6245117,3.9055176-.9443359,5.7143555-1.2490234l.0959473,1.0410156Z"/>
      <path d="m53.0732422,2.2573242V.0800781h.8642578v2.1772461h2.5771484v.815918h-3.4094238v2.5136719h2.9291992c0,.6240234.0480957,5.4736328-.3361816,7.6669922-.1760254.9599609-.7841797,1.4560547-1.7446289,1.4560547h-1.168457l-.208252-.9443359,1.2646484.0322266c.5280762.0161133.800293-.144043.9763184-.6401367.2402344-.7045898.3681641-6.050293.3681641-6.8027344h-2.0808105c0,2.4487305-.0319824,5.5219727-1.9047852,8.2270508l-.7043457-.7041016c.6242676-.8803711,1.7607422-2.4492188,1.7607422-7.3466797v-3.4580078h-1.6166992v-.815918h2.4331055Zm2.8010254,1.8886719c1.4086914-1.1044922,2.3688965-2.6889648,2.8652344-4.1459961l.8322754.1767578c-.1599121.4960938-.2719727.8642578-.7841797,1.7763672h6.4504395v.7519531h-6.9147949c-.8803711,1.296875-1.5686035,1.8574219-1.8566895,2.097168l-.5922852-.65625Zm4.9140625,1.7607422v-2.4487305h.8483887v2.2246094l2.9931641-.800293c0,.6401367,0,3.3129883-.0161133,3.8579102-.0319824,1.5039062-.3359375,1.9521484-1.456543,1.9521484h-.9604492l-.144043-.8320312,1.0725098.0478516c.5603027.0322266.6242676-.1435547.6242676-1.7446289v-2.2084961l-2.112793.527832v5.5541992h-.8483887v-5.3300781l-1.9528809.4960938v5.7143555c0,.6083984.0961914.6245117.576416.6245117h4.0334473c.4162598,0,.6242676,0,.7043457-.3364258.0959473-.3359375.0959473-.4799805.144043-1.824707l.9123535.2724609c-.0639648,1.8886719-.0959473,2.7050781-1.5205078,2.7050781h-4.145752c-.7844238,0-1.5686035,0-1.5686035-1.1689453v-5.762207l-1.2004395.2885742-.2402344-.6728516,1.4406738-.3837891v-2.4331055h.8642578v2.1928711l1.9528809-.512207Z"/>
      <path d="m81.3339844,1.2167969v.8320312h-6.3225098v10.9804688h6.8666992v.8486328h-14.645752v-.8486328h6.8027344V2.0488281h-6.1784668v-.8320312h13.4772949Z"/>
      <path d="m86.4172363,14.7099609h-.8642578V5.7949219c-.5441895,1.0561523-.8483887,1.3925781-1.2485352,1.8564453l-.5441895-.8320312c1.2163086-1.4726562,2.4008789-4.0341797,2.8330078-6.8193359l.864502.1767578c-.144043.6879883-.4001465,1.8886719-1.0405273,3.6494141v10.8837891Zm.4802246-6.1464844c1.7446289-1.8720703,2.6091309-4.3691406,2.6569824-6.9306641h-1.7766113v-.7680664h5.7463379v.7680664h-3.1052246c-.0319824,1.2324219-.208252,2.1132812-.3203125,2.6572266h2.9934082c-.1762695,6.4990234-3.5214844,9.3320312-4.8820801,10.3720703l-.6081543-.671875c.6882324-.5126953,2.4008789-1.8251953,3.5693359-4.4501953-.5761719-.6240234-1.5366211-1.328125-2.4008789-1.96875-.4802246.7685547-.9604492,1.2802734-1.3125,1.6650391l-.5603027-.6728516Zm2.9931641-3.5048828c-.1279297.4799805-.3361816,1.0722656-.7363281,1.8564453.9924316.6884766,1.6486816,1.1845703,2.3369141,1.8251953.432373-1.1845703.6242676-2.4335938.7043457-3.6816406h-2.3049316Zm5.2021484,6.1621094h-.8642578V1.1689453h.8642578v10.0517578ZM98.0378418.0644531v13.4775391c0,.4638672-.0478516,1.1679688-1.0722656,1.1679688h-1.9528809l-.1279297-.8959961,1.8566895.0317383c.3681641,0,.4162598-.0957031.4162598-.4316406V.0644531h.880127Z"/>
      <path d="m113.4296875,2.2890625v.8964844h-7.2990723c-.4321289,1.3925781-.7363281,2.0009766-1.2004395,2.7050781.5280762-.4003906,1.5205078-1.1201172,2.9291992-1.1201172,1.9047852,0,2.1447754,1.3603516,2.2729492,2.0488281.8962402-.3681641,1.2324219-.4960938,4.1936035-1.6489258l.3520508.9760742c-2.5288086.8486328-3.3132324,1.1210938-4.4335938,1.5693359.0959473.9443359.1279297,2.5449219.0158691,3.2329102l-.9604492.0161133c.1120605-.8803711.1120605-2.1132812.0480957-2.8652344-1.0244141.4804688-3.7775879,1.7763672-3.7775879,3.4091797,0,1.5849609,2.0810547,1.5849609,3.8256836,1.5849609,2.0966797,0,3.6174316-.1762695,4.3376465-.2558594l.0800781.9599609c-.8803711.0800781-2.0646973.1923828-3.9694824.1923828-1.7128906,0-5.1862793,0-5.1862793-2.4169922,0-2.1450195,2.7531738-3.5375977,4.5939941-4.3701172-.1281738-.7202148-.2722168-1.6328125-1.5366211-1.6328125-1.5686035,0-3.0253906,1.440918-3.201416,1.6171875-.1921387.2080078-2.0966797,2.7207031-2.5449219,3.1850586l-.6882324-.784668c1.2324219-1.1362305,2.5449219-2.6083984,3.8574219-6.4023438h-3.5373535v-.8964844h3.8095703c.1279297-.5117188.2719727-1.0561523.3681641-1.9365234l1.0722656.015625c-.144043.7045898-.223877,1.1210938-.447998,1.9208984h7.0268555Z"/>
      <path d="m126.7880859,13.2055664c0,.2402344.144043.3999023.5441895.3999023h2.6411133c.8322754,0,.9123535-.1279297,1.0563965-2.7050781l.8483887.0966797c-.1760254,3.2329102-.512207,3.4570312-1.6965332,3.4570312h-3.1533203c-.7363281,0-1.168457-.2402344-1.168457-1.1044922v-3.296875h-3.1213379c-.2241211.9443359-.800293,3.5693359-5.4262695,4.6572266l-.3681641-.8798828c2.5610352-.4003906,4.4338379-1.8251953,4.8659668-3.7773438h-2.9770508V.65625h11.2844238v9.3964844h-3.3293457v3.152832Zm2.4169922-11.7485352h-9.4916992v2.0327148h9.4916992V1.4570312Zm0,2.8007812h-9.4916992v2.0332031h9.4916992v-2.0332031Zm0,2.8012695h-9.4916992v2.1772461h9.4916992v-2.1772461Z"/>
      <path d="m144.5488281,1.9692383c-.3522949.2719727-.4482422.3359375-1.3125,1.0561523-2.7531738,2.2412109-3.1374512,2.5615234-3.7775879,3.0893555.65625-.2719727,1.7287598-.7045898,3.3613281-.7045898,3.3293457,0,4.2255859,2.0810547,4.2255859,3.8579102,0,3.1533203-2.7849121,4.6738281-5.5222168,4.6738281-2.3049316,0-4.0334473-1.0244141-4.0334473-2.5766602,0-1.2807617,1.168457-2.0810547,2.5449219-2.0810547.9604492,0,3.0571289.3520508,3.793457,3.3769531.6083984-.2880859,2.2570801-1.0400391,2.2570801-3.3769531,0-2.9130859-2.5290527-3.0410156-3.4575195-3.0410156-3.0732422,0-5.314209,1.7441406-7.3789062,3.6650391l-.5761719-.800293c.7202148-.5600586,4.6577148-3.6977539,8.451416-7.1225586-2.2250977.1757812-3.6496582.2558594-6.8989258.3037109v-.9121094c3.137207-.0322266,5.0100098-.0478516,8.3234863-.3041992v.8964844Zm-2.2089844,9.3637695c-.6401367-.8803711-1.5527344-1.2324219-2.3850098-1.2324219-1.0725098,0-1.6166992.6240234-1.6166992,1.2480469,0,1.0888672,1.520752,1.809082,3.2495117,1.809082.65625,0,1.0563965-.0961914,1.392334-.1762695-.1279297-.6884766-.2399902-1.1044922-.6401367-1.6484375Z"/>
      <path d="m0,15.4775391v-.7998047h149.7600098v.7998047H0Z"/>
    </g>
  </g>
</svg>