<?xml version="1.0" encoding="UTF-8"?>
<svg xmlns="http://www.w3.org/2000/svg" viewBox="0 0 102.7209616 19.283811">
  <defs>
    <style>
      .cls-1 {
        fill: #fff;
      }

      .cls-2 {
        fill: #01212b;
        mix-blend-mode: multiply;
      }

      .cls-3 {
        isolation: isolate;
      }

      .cls-4 {
        fill: none;
        stroke: #fff;
        stroke-miterlimit: 10;
        stroke-width: .5px;
      }
    </style>
  </defs>
  <g class="cls-3">
    <g id="_レイヤー_2" data-name="レイヤー 2">
      <g id="_レイヤー_1-2" data-name="レイヤー 1">
        <g>
          <g>
            <path class="cls-1" d="m.215332,6.7085017l2.4057617-.1523438c.1318359.6254883.21875,1.2211914.2602539,1.7871094.4555664-.6552734.9111328-1.1166992,1.3666992-1.3852539.4555664-.2680664.9560547-.4018555,1.5014648-.4018555.581543,0,1.0610352.1518555,1.4389648.4560547.3774414.3037109.6679688.7988281.8720703,1.4838867.4003906-.6494141.8457031-1.1352539,1.3354492-1.4575195.4902344-.3212891,1.0249023-.4824219,1.6044922-.4824219.7646484,0,1.3383789.2275391,1.7211914.6821289.4897461.5986328.7348633,1.3706055.7348633,2.315918v4.1743164c0,.2514648.0629883.421875.1884766.5117188.1674805.1376953.4160156.206543.7451172.206543h.421875v.6733398h-4.2280273v-.6733398h.421875c.3588867,0,.6103516-.0600586.7539062-.1796875s.215332-.2993164.215332-.5395508v-4.1796875c0-.6230469-.1523438-1.1054688-.456543-1.4472656-.3046875-.3413086-.7045898-.512207-1.2001953-.512207-.3759766,0-.7163086.1005859-1.0209961.3012695-.3041992.2006836-.543457.4868164-.7163086.8583984-.2568359.5332031-.3852539.9858398-.3852539,1.3569336v3.6225586c0,.2460938.065918.4272461.1977539.5439453.1313477.1171875.3349609.175293.6103516.175293h.574707v.6733398h-4.2910156v-.6733398h.484375c.3056641,0,.5327148-.0595703.6826172-.1796875.1494141-.1196289.2241211-.2719727.2241211-.4575195v-3.878418c0-.8198242-.1450195-1.4150391-.4350586-1.7861328-.2905273-.3710938-.6811523-.5566406-1.171875-.5566406-.6342773,0-1.1220703.215332-1.4628906.6464844-.4848633.6103516-.7275391,1.3227539-.7275391,2.1362305v3.3574219c0,.2573242.0571289.434082.1708984.5297852.1616211.1254883.4125977.1884766.7539062.1884766h.4311523v.6733398H0v-.6733398h.637207c.2392578,0,.4233398-.0595703.5522461-.1796875.128418-.1196289.1928711-.2719727.1928711-.4575195v-5.512207c0-.3051758-.0776367-.5322266-.2333984-.6821289-.1557617-.1494141-.4667969-.2451172-.9335938-.2871094v-.6196289Z"/>
            <path class="cls-1" d="m21.8481445,6.4570369c1.1308594,0,2.0810547.4086914,2.8500977,1.2255859s1.1538086,1.8925781,1.1538086,3.2270508c0,.921875-.1723633,1.7075195-.5161133,2.3569336-.3442383.6494141-.8349609,1.1621094-1.4726562,1.5395508-.637207.3769531-1.3237305.5654297-2.0600586.5654297-1.0893555,0-2.012207-.4130859-2.7695312-1.2387695-.7568359-.8261719-1.1352539-1.8974609-1.1352539-3.2138672,0-1.3227539.3798828-2.3969727,1.1396484-3.2226562.7602539-.8261719,1.6967773-1.2392578,2.8100586-1.2392578Zm0,.6376953c-.6704102,0-1.2207031.3037109-1.6518555.9111328-.4306641.6074219-.6464844,1.5664062-.6464844,2.8769531,0,1.3349609.2138672,2.3105469.6420898,2.9267578.4277344.6162109.9799805.9243164,1.65625.9243164.7001953,0,1.2670898-.3081055,1.7011719-.9243164.4335938-.6162109.6508789-1.625.6508789-3.0253906,0-1.2983398-.2143555-2.2382812-.6420898-2.8188477s-.9980469-.8706055-1.7099609-.8706055Z"/>
            <path class="cls-1" d="m28.7763672,6.7085017l3.0253906-.1523438v3.4023438c.3232422-1.1191406.7119141-1.9663086,1.1669922-2.5405273.4545898-.574707,1.0170898-.8618164,1.6875-.8618164.4545898,0,.8183594.1391602,1.0908203.4174805s.4082031.6508789.4082031,1.1176758c0,.3769531-.0913086.6699219-.2734375.8793945-.1826172.2094727-.4116211.3144531-.6870117.3144531-.269043,0-.4863281-.0898438-.6508789-.2695312-.1645508-.1791992-.246582-.421875-.246582-.7270508,0-.1972656.0478516-.3828125.1435547-.5566406.0898438-.1552734.1347656-.2480469.1347656-.2783203,0-.0898438-.0571289-.1347656-.1708984-.1347656-.2451172,0-.5234375.144043-.8344727.4311523-.4311523.4008789-.7631836.9516602-.996582,1.6518555-.359375,1.0893555-.5385742,1.9599609-.5385742,2.6123047v1.8041992c0,.2036133.0717773.359375.215332.4667969.1435547.1079102.3891602.1616211.7363281.1616211h1.0678711v.6733398h-5.2246094v-.6733398h.8349609c.28125,0,.4936523-.0551758.637207-.1660156.144043-.1108398.2158203-.2436523.2158203-.3994141v-5.359375c0-.4067383-.0869141-.7045898-.2602539-.8930664-.1738281-.1884766-.4223633-.2827148-.7451172-.2827148h-.7363281v-.6376953Z"/>
            <path class="cls-1" d="m46.8007812,10.9726619h-6.0234375c.0297852,1.2807617.269043,2.1845703.7182617,2.7109375.5146484.5927734,1.1699219.8891602,1.9658203.8891602,1.1728516,0,2.1157227-.6674805,2.8276367-2.0019531l.5834961.2509766c-.8735352,1.7001953-2.1362305,2.5498047-3.7880859,2.5498047-1.1254883,0-2.0722656-.4072266-2.8413086-1.2211914-.769043-.8134766-1.1538086-1.8549805-1.1538086-3.1240234,0-1.3642578.3789062-2.4667969,1.1357422-3.3076172.7573242-.8408203,1.6889648-1.2617188,2.7963867-1.2617188.8139648,0,1.5170898.2099609,2.1098633.628418.5922852.4194336,1.0380859,1.0205078,1.3374023,1.8046875.2094727.5507812.3198242,1.2446289.3320312,2.0825195Zm-6.0234375-.637207h3.6445312c.215332,0,.3828125-.0732422.5029297-.2202148.1196289-.1464844.1791992-.3959961.1791992-.7495117,0-.6582031-.2050781-1.2177734-.6147461-1.6787109-.4101562-.4604492-.8930664-.690918-1.449707-.690918-.6225586,0-1.1508789.2783203-1.5844727.8344727-.434082.5566406-.659668,1.3916016-.6777344,2.5048828Z"/>
          </g>
          <circle class="cls-2" cx="93.0790561" cy="9.6419055" r="9.6419055"/>
          <polyline class="cls-4" points="56.0921007 10.2672846 95.2376596 10.2672846 88.8641966 6.3451536"/>
        </g>
      </g>
    </g>
  </g>
</svg>