<?xml version="1.0" encoding="UTF-8"?>
<svg id="_レイヤー_2" data-name="レイヤー 2" xmlns="http://www.w3.org/2000/svg" xmlns:xlink="http://www.w3.org/1999/xlink" viewBox="0 0 1920 506.0555707">
  <defs>
    <style>
      .cls-1 {
        clip-path: url(#clippath);
      }

      .cls-2 {
        fill: none;
      }
    </style>
    <clipPath id="clippath">
      <rect class="cls-2" width="1920" height="506.0555707"/>
    </clipPath>
  </defs>
  <g id="_レイヤー_1-2" data-name="レイヤー 1">
    <g class="cls-1">
      <g>
        <path d="m386.5727114,430.4759809l-.1699219-.2548828c3.6206055-2.0058594,6.3740234-6.1362305,6.9013672-12.1025391v-1.2749023h-1.2583008c-.7817383.0170898-1.5297852.1020508-2.2773438.237793l-.4423828-.8666992c.7480469.0849609,1.4960938.1186523,2.2612305.1357422h1.3764648l.6801758-1.0878906,1.8188477,1.394043c-.2548828.3227539-.8500977.5097656-1.6660156.5776367l.0170898.8330078c.5610352,5.3208008,3.0595703,9.2983398,7.6323242,11.2529297l-.0512695.2041016c-.5605469.0170898-.9008789.3398438-1.1557617.96875-2.7368164-1.5805664-5.609375-4.878418-6.340332-9.2299805-1.0537109,4.3173828-3.6035156,7.4453125-7.3261719,9.2128906Z"/>
        <path d="m408.8930239,415.6366254c.1362305-.1699219.2382812-.3569336.3740234-.3569336.2041016,0,1.1557617.815918,1.1557617,1.0708008-.1020508.1191406-.3227539.2548828-.5947266.3061523v1.5297852c.0341797,1.5297852.0507812,2.0395508.1191406,2.9746094-.1362305.1870117-.6630859.4248047-1.0029297.4248047h-.1362305v-.7646484h-3.4335938v5.1162109c.0341797,2.0400391.0678711,2.7197266.1362305,3.9946289-.1362305.2382812-.4931641.5273438-.9692383.5273438-.2041016,0-.3911133-.1704102-.3911133-.340332.1020508-1.4619141.1533203-2.2094727.1870117-4.4194336v-6.8500977c0-1.15625-.0678711-2.5498047-.2207031-3.4848633l1.3427734.6289062h3.1958008l.237793-.3569336Zm-.0849609.8671875h-3.4335938v1.6318359h3.4335938v-1.6318359Zm-3.4335938,3.8242188h3.4335938v-1.699707h-3.4335938v1.699707Zm3.4848633,8.3803711c0,.1020508-.425293.3569336-.8500977.3569336-.1699219,0-.2719727-.1699219-.2719727-.3398438.0507812-.6630859.0678711-.9858398.1020508-1.9887695v-1.1728516c0-1.15625-.0678711-2.5498047-.2211914-3.4848633l1.309082.6118164h3.7563477l.2382812-.3227539c.1357422-.1533203.2207031-.3232422.3569336-.3232422.2041016,0,1.1728516.7138672,1.1728516.9692383-.1020508.1357422-.3232422.2719727-.5952148.3227539v1.7338867c.0341797,1.7338867.0512695,2.3120117.1191406,3.3657227-.1357422.2041016-.6630859.4760742-1.0029297.4760742-.152832,0-.2207031-.1704102-.2207031-.340332.0336914-.0849609.0336914-.1357422.0678711-.2719727v-.3056641h-3.9604492v.7138672Zm3.9604492-5.5415039h-3.9604492v1.8530273h3.9604492v-1.8530273Zm-3.9604492,4.3173828h3.9604492v-1.9545898h-3.9604492v1.9545898Zm3.9433594-6.2890625c0,.1020508-.4589844.3398438-.9008789.3398438-.1362305,0-.237793-.1699219-.237793-.3398438.0507812-.5439453.0678711-.8330078.1015625-1.6660156v-1.0200195c0-1.0029297-.0507812-2.2607422-.1865234-3.0932617l1.2915039.5776367h3.3320312l.237793-.3398438c.1357422-.1699219.2207031-.3569336.3569336-.3569336.2041016,0,1.3256836.815918,1.3256836,1.0708008-.1015625.1362305-.390625.2890625-.7138672.3569336v12.1030273c0,.9008789-.1699219,1.4785156-1.7167969,1.6484375-.0336914-.3569336-.1191406-.6625977-.3227539-.8325195-.2548828-.1870117-.6630859-.3232422-1.4111328-.4423828v-.2719727s1.6489258.1362305,2.0058594.1362305c.3061523,0,.4082031-.1020508.4082031-.3740234v-7.8701172h-3.5698242v.3740234Zm3.5698242-4.6914062h-3.5698242v1.6318359h3.5698242v-1.6318359Zm-3.5698242,3.8242188h3.5698242v-1.699707h-3.5698242v1.699707Z"/>
        <path d="m432.3524966,420.0389692c.1357422-.1865234.2207031-.390625.3569336-.390625.2041016,0,1.3256836.9179688,1.3256836,1.1728516-.1015625.1357422-.3569336.2890625-.6967773.3398438v5.7792969c0,.8500977-.2041016,1.4282227-1.784668,1.5639648-.0683594-.3227539-.1699219-.5947266-.3740234-.7646484-.2548828-.1870117-.7138672-.3569336-1.4960938-.4423828v-.2548828s1.7509766.1191406,2.1591797.1191406c.3227539,0,.4248047-.1020508.4248047-.3398438v-5.8813477h-3.8417969v4.8442383c.0341797,2.0400391.0683594,2.7197266.1362305,3.9946289-.1362305.2548828-.6459961.5610352-1.0371094.5610352-.2207031,0-.4077148-.1699219-.4077148-.3398438.1020508-1.4619141.152832-2.2099609.1870117-4.4199219v-4.6401367h-3.7910156v3.1787109c.0341797,2.0395508.0683594,2.7197266.1362305,3.9941406-.1362305.2041016-.5610352.4589844-1.0200195.4589844-.1870117,0-.3227539-.1699219-.3227539-.3398438.0678711-1.0537109.1020508-1.5805664.1357422-3.1787109v-1.7675781c0-1.15625-.0678711-2.5498047-.2207031-3.4848633l1.3769531.6289062h3.7055664v-2.515625h-3.9946289c-.8842773.0170898-1.7001953.1020508-2.5498047.237793l-.4418945-.8837891c.7475586.0849609,1.4956055.1191406,2.2607422.1362305h4.7255859c0-.8671875-.0512695-1.9038086-.1533203-2.6181641,1.8359375.5273438,1.8359375.6972656,1.546875.9008789l-.2719727.1870117v1.5302734h4.5385742l.3740234-.5273438c.2041016-.2719727.3740234-.5439453.5097656-.5439453.2041016,0,1.4960938,1.0541992,1.4960938,1.309082-.0512695.1870117-.2211914.2719727-.4418945.2719727h-6.7143555c.730957.3398438.730957.5097656.4760742.6967773l-.2382812.1699219v1.6489258h3.6889648l.237793-.3911133Z"/>
        <path d="m449.9984927,429.1332074l.3911133-.5439453c.2036133-.2719727.3735352-.5439453.5097656-.5439453.2041016,0,1.4956055,1.0541992,1.4956055,1.309082-.0507812.1870117-.2036133.2719727-.4418945.2719727h-11.6948242c-.8837891.0170898-1.699707.1020508-2.5498047.237793l-.4418945-.8666992c.7480469.0849609,1.4960938.1186523,2.2607422.1357422h6.1025391c.5947266-1.7504883,1.1899414-3.909668,1.6660156-5.9321289.237793-1.0878906.4589844-2.4140625.4589844-3.3486328,2.0224609.5268555,2.0224609.6967773,1.7167969.8496094l-.3061523.1362305c-.6801758,2.3286133-1.8696289,5.6943359-3.1616211,8.2949219h3.9946289Zm-.2211914-11.2358398c.2041016-.2719727.3569336-.5439453.4931641-.5439453.2041016,0,1.4956055,1.0371094,1.4956055,1.2919922-.0507812.1870117-.2207031.2719727-.4589844.2719727h-10.3515625c-.8842773.0170898-1.7001953.1020508-2.5498047.237793l-.425293-.8496094c.7480469.0849609,1.4960938.1186523,2.2607422.1357422h4.0629883v-.0849609c0-1.1557617-.0683594-2.5498047-.2211914-3.484375,1.9038086.5268555,1.9038086.6967773,1.6147461.8837891l-.2890625.1870117v2.4985352h3.9946289l.3740234-.5439453Zm-9.0258789,2.277832c3.5356445,4.8613281,2.6347656,8.8901367,1.3427734,7.4790039.0678711-2.2944336-.815918-5.3203125-1.5976562-7.394043l.2548828-.0849609Z"/>
        <path d="m467.5595279,422.6908246c.1699219-.2036133.2885742-.4248047.4248047-.4248047.2041016,0,1.2749023.815918,1.2749023,1.0708008-.0512695.1870117-.2041016.2719727-.4248047.2719727h-2.1928711c.815918.730957,1.784668,1.309082,2.8217773,1.6831055l-.0170898.1865234c-.4082031.0512695-.6801758.340332-.8330078.8164062-1.2070312-.6293945-2.1928711-1.5302734-2.9238281-2.6860352h-3.1274414c-.4082031.578125-.8500977,1.0878906-1.3261719,1.546875,2.2607422.9350586,1.2583008,2.6176758.4760742,1.8359375-.0170898-.5439453-.3398438-1.2578125-.6630859-1.6831055-.5947266.5102539-1.2407227.9350586-1.9545898,1.2749023l-.0170898-.0170898v2.4482422c0,.8325195-.152832,1.3256836-1.3769531,1.4614258-.0336914-.2885742-.1015625-.5605469-.2548828-.7138672-.1699219-.152832-.4418945-.2719727-.96875-.3569336v-.2719727s1.0708008.1020508,1.3427734.1020508c.2211914,0,.2890625-.1020508.2890625-.3227539v-3.3149414h-1.7509766c-.1699219,1.7167969-.6289062,3.4848633-1.8525391,4.8276367l-.2211914-.1870117c1.1391602-2.0737305,1.2070312-4.7084961,1.2070312-7.2070312v-2.3120117c0-.7817383-.0512695-1.7338867-.1533203-2.3969727l1.2919922.6123047h1.3261719l.2207031-.3232422c.1362305-.1699219.2211914-.3398438.3569336-.3398438.2041016,0,1.2749023.7817383,1.2749023,1.0371094-.1191406.1186523-.3911133.2719727-.730957.3227539v6.5952148c.96875-.6796875,1.8017578-1.546875,2.515625-2.6176758h-.6967773c-.4077148.0170898-.7817383.1020508-1.1557617.237793l-.4418945-.8666992c.5776367.0849609,1.1557617.1191406,1.7675781.1362305h.815918c.2890625-.5102539.5610352-1.0541992.7822266-1.6318359h-.8671875c-.5439453.0166016-1.0537109.1015625-1.5639648.237793l-.4248047-.8500977c.6801758.0849609,1.3598633.1191406,2.0737305.1362305h.9692383c.2719727-.815918.4926758-1.699707.6455078-2.6689453l.1020508.0170898v-1.2749023h-3.5527344v.3740234c.0341797.3569336.0170898.4760742.0512695.6289062-.0512695.2041016-.4589844.3740234-.9008789.3740234-.1699219,0-.2382812-.1699219-.2382812-.3398438.0341797-.1870117.0341797-.2890625.0683594-.578125v-.4589844h-1.8017578c-.8842773.0170898-1.7001953.1020508-2.5498047.237793l-.3911133-.8666992c.7480469.0849609,1.4960938.1191406,2.2607422.1362305h2.4819336c0-.578125-.0341797-1.309082-.1020508-1.8188477,1.7167969.5097656,1.7167969.6796875,1.4106445.8666992l-.2890625.1870117v.7651367h3.5527344c0-.578125-.0336914-1.309082-.1020508-1.8188477,1.7338867.5097656,1.7338867.6796875,1.4282227.8666992l-.2890625.1870117v.7651367h2.5498047l.3398438-.4931641c.1870117-.237793.3227539-.4931641.4589844-.4931641.2041016,0,1.3256836.9521484,1.3256836,1.2070312-.0336914.1870117-.1870117.2719727-.4077148.2719727h-4.2666016v1.0200195c0,.1020508-.3232422.2890625-.815918.3227539,1.2407227.2211914,1.2407227.3911133.9350586.5439453l-.2890625.1362305c-.1699219.6796875-.3398438,1.3085938-.578125,1.9038086h2.9580078l.3056641-.4082031c.1699219-.2036133.2890625-.4248047.4248047-.4248047.2041016,0,1.2070312.7988281,1.2070312,1.0537109-.0507812.1704102-.1870117.2553711-.4248047.2553711h-3.3149414c.3061523.5947266.6801758,1.1386719,1.1220703,1.6318359h1.0878906l.3061523-.425293Zm-11.1171875.3232422c0,.6625977,0,1.3598633-.0507812,2.0908203h1.7167969v-2.6689453h-1.6660156v.578125Zm1.6660156-3.5869141h-1.6660156v2.5161133h1.6660156v-2.5161133Zm1.6489258,9.1962891c.6625977-.2041016,2.1416016-.7480469,3.5693359-1.3261719l.0849609.2211914c-.5776367.4248047-1.4614258,1.0708008-2.6176758,1.8530273-.0170898.1870117-.1357422.3569336-.2890625.390625l-.3735352-.5610352-.3740234-.5776367Zm.96875-10.1650391c2.4819336,1.0708008,1.4956055,2.9067383.6459961,2.1079102-.0341797-.6459961-.4418945-1.5131836-.8330078-2.0058594l.1870117-.1020508Zm6.7143555,11.2866211c-.5268555-.8496094-1.8696289-1.8183594-2.940918-2.3964844v1.699707c0,.8330078-.1357422,1.2919922-1.3427734,1.4277344-.0336914-.2719727-.1020508-.5268555-.2548828-.6796875-.1870117-.1362305-.4760742-.2548828-1.0029297-.3232422v-.2719727s1.1220703.1020508,1.3769531.1020508c.2207031,0,.2890625-.0849609.2890625-.3056641v-2.5839844c0-.8837891-.0512695-1.9375-.1699219-2.668457,1.6484375.5097656,1.6484375.6796875,1.3764648.8496094l-.2719727.1533203v2.3115234c.2382812.0341797.4589844.0849609.6972656.1362305.3740234-.7143555.730957-1.7001953.8666992-2.3969727,1.4111328.7480469,1.4111328.9179688,1.1391602.9858398l-.2719727.0512695c-.340332.390625-.9013672.96875-1.4619141,1.4448242,3.2973633.9174805,3.0595703,2.9067383,1.9716797,2.4643555Zm-2.7705078-8.2607422h-.9521484c-.2548828.5947266-.5268555,1.1386719-.815918,1.6318359h2.4648438c-.2719727-.5102539-.4931641-1.0541992-.6967773-1.6318359Zm2.8212891-2.2949219l-.3056641.1020508c-.4589844.6118164-1.0371094,1.2578125-1.546875,1.6826172l-.2548828-.1699219c.390625-.7480469.7138672-1.8017578.8496094-2.515625l.8330078.4248047c.730957.2041016.730957.3740234.4248047.4760742Z"/>
        <path d="m471.4877505,418.934477c3.484375.4248047,2.8725586,2.8896484,1.699707,2.2265625-.2719727-.7480469-1.1220703-1.5976562-1.8525391-2.0566406l.152832-.1699219Zm.8837891,6.6123047c.2041016,0,.2548828-.0170898.4418945-.3569336q.3061523-.5952148,3.5869141-7.3432617l.2885742.1020508c-.8325195,2.090332-2.4477539,6.0341797-2.6855469,6.815918-.1870117.5273438-.2890625,1.0371094-.2890625,1.4790039,0,.730957.4760742,1.4960938.4082031,2.8725586-.0341797.730957-.340332,1.15625-.9179688,1.15625-.3061523,0-.4760742-.3061523-.5102539-.8500977.2211914-1.7338867.1191406-3.0258789-.237793-3.2807617-.2548828-.1699219-.4926758-.2041016-.8500977-.237793v-.3569336h.7651367Zm.4418945-10.4370117c3.5698242.5610352,2.940918,3.09375,1.7338867,2.4135742-.2890625-.7988281-1.1728516-1.7504883-1.8867188-2.2436523l.152832-.1699219Zm11.2358398.6796875c.1533203-.1870117.2719727-.390625.4082031-.390625.2036133,0,1.2407227.9008789,1.2407227,1.1557617-.1020508.1357422-.3740234.2719727-.7138672.3398438v1.9716797c.0341797,1.9550781.0678711,2.6181641.1357422,3.824707-.152832.2041016-.6625977.4589844-1.0195312.4589844-.1533203,0-.2211914-.1699219-.2211914-.3398438.0341797-.1191406.0341797-.1870117.0678711-.3911133v-.3740234h-2.4306641c.6972656,3.4506836,2.4819336,6.0175781,5.0317383,7.3774414l-.0512695.152832c-.4589844.0341797-.8330078.340332-1.0366211.8500977-2.362793-1.7338867-3.7226562-4.5043945-4.3007812-8.3803711h-2.7875977c-.1191406,2.8896484-.7651367,6.1025391-3.5356445,8.3974609l-.237793-.2041016c2.3964844-2.7539062,2.7875977-6.1704102,2.7875977-9.6210938v-2.515625c0-.8500977-.0512695-1.8867188-.1533203-2.6005859l1.394043.6796875h5.1503906l.2719727-.3911133Zm-.1020508,5.7456055v-4.8613281h-5.5410156v3.9262695c0,.3061523,0,.6123047-.0170898.9350586h5.5581055Z"/>
        <path d="m501.1513247,419.4613324c.1362305-.2041016.2382812-.4082031.3740234-.4082031.2041016,0,1.309082.9350586,1.309082,1.1899414-.1191406.1191406-.3740234.2719727-.7143555.3232422v8.2949219c0,.8837891-.1865234,1.4448242-1.7675781,1.6147461-.0507812-.3398438-.152832-.6459961-.3740234-.7988281-.2719727-.1870117-.7138672-.3398438-1.4956055-.4418945v-.2719727s1.784668.152832,2.1757812.152832c.3227539,0,.390625-.1357422.390625-.390625v-8.3632812h-10.3007812v5.6264648c.0336914,2.0395508.0678711,2.7197266.1357422,3.9946289-.1357422.2207031-.5605469.5097656-1.0195312.5097656-.1870117,0-.3740234-.1699219-.3740234-.3398438.1020508-1.4619141.152832-2.2099609.1870117-4.4194336v-3.0429688c0-1.1557617-.0683594-2.5498047-.2211914-3.484375l1.394043.6625977h4.4194336v-2.1245117h-3.9946289c-.8837891.0170898-1.699707.1020508-2.5498047.237793l-.4418945-.8666992c.7480469.0849609,1.4960938.1186523,2.2607422.1357422h4.7255859c0-.7646484-.0507812-1.7338867-.152832-2.3793945,1.8188477.5268555,1.8188477.6967773,1.5297852.8837891l-.2890625.1870117v1.3085938h4.6235352l.3740234-.5268555c.2041016-.2719727.3740234-.5439453.5097656-.5439453.2041016,0,1.4790039,1.0371094,1.4790039,1.2919922-.0341797.1870117-.1870117.2719727-.4082031.2719727h-6.578125v2.1245117h4.5385742l.2548828-.4077148Zm-2.7197266,6.1875c.1870117-.2211914.3232422-.4589844.4589844-.4589844.2041016,0,1.2919922.9008789,1.2919922,1.1557617-.0341797.1870117-.2041016.2719727-.4248047.2719727h-3.4506836v1.0708008c.0336914,1.0708008.0336914,1.4277344.0849609,2.0566406-.0849609.1533203-.425293.425293-.9858398.425293-.1533203,0-.2553711-.1699219-.2553711-.340332.0512695-.6625977.0683594-1.0024414.1020508-2.0224609v-1.1899414h-1.1728516c-.7480469.0170898-1.4619141.1020508-2.1757812.237793l-.4418945-.8837891c.7480469.0849609,1.4956055.1191406,2.2607422.1362305h1.5297852v-2.125h-1.121582c-.6801758.0170898-1.3432617.1020508-2.0058594.237793l-.4418945-.8666992c.7475586.0849609,1.4956055.1191406,2.2607422.1357422h2.4643555c.3911133-.9174805.7651367-2.1586914.8500977-2.9916992,1.7338867.578125,1.7338867.7480469,1.4277344.8500977l-.3056641.1020508c-.4082031.6118164-1.0029297,1.394043-1.5639648,2.0395508h1.2749023l.2890625-.4077148c.1699219-.2041016.2890625-.4248047.4248047-.4248047.2041016,0,1.1899414.7988281,1.1899414,1.0537109-.0512695.1870117-.2041016.2719727-.4248047.2719727h-3.2636719v2.125h1.8017578l.3227539-.4589844Zm-5.3544922-4.9638672c2.7539062,1.2241211,1.7680664,3.2807617.7988281,2.4311523-.0678711-.7651367-.5605469-1.7338867-1.0029297-2.3120117l.2041016-.1191406Z"/>
        <path d="m510.2641177,420.1244184l-.3227539.0849609c-.7822266,2.0224609-2.2607422,4.6914062-4.4536133,6.3569336l-.152832-.2036133c.96875-1.0878906,1.784668-2.5161133,2.4135742-3.9438477.4589844-1.0195312.815918-2.3115234.8837891-3.2636719l1.0708008.4760742c.8842773.237793.8842773.4077148.5610352.4931641Zm2.1079102-1.5981445c0-1.121582-.0678711-2.5498047-.2211914-3.484375,1.972168.5605469,1.972168.730957,1.6660156.9008789l-.2890625.1699219v12.527832c0,.9858398-.2207031,1.6147461-2.0395508,1.8188477-.0512695-.4082031-.1870117-.6972656-.4589844-.9008789-.3232422-.2211914-.8500977-.3911133-1.8017578-.5102539v-.2719727s2.2436523.1699219,2.6855469.1699219c.3569336,0,.4589844-.1020508.4589844-.4077148v-10.012207Zm6.6630859,7.4960938c-.2719727-2.1245117-2.1074219-4.8271484-3.6376953-6.4931641l.2211914-.152832c5.7456055,3.7734375,4.8613281,7.887207,3.4165039,6.6459961Z"/>
        <path d="m532.8056216,420.481352c.1870117-.2041016.3227539-.4082031.4589844-.4082031.2041016,0,1.1220703,1.0537109,1.1220703,1.309082-.1362305.1186523-.340332.152832-.6972656.1699219-.6459961.5268555-1.7675781,1.1557617-2.7368164,1.6489258l.1020508.0166016c-.0336914.2382812-.1870117.3740234-.5439453.425293v1.1899414h4.5048828l.3740234-.5273438c.2036133-.2719727.3735352-.5439453.5097656-.5439453.2041016,0,1.4448242,1.0541992,1.4448242,1.309082-.0512695.1870117-.2041016.2719727-.4248047.2719727h-6.4086914v3.4506836c0,.9516602-.2036133,1.5297852-1.9375,1.699707-.0683594-.3569336-.1699219-.6459961-.4589844-.8330078s-.7988281-.3398438-1.7001953-.4755859v-.2553711s2.1591797.1533203,2.5668945.1533203c.3232422,0,.425293-.0849609.425293-.3740234v-3.3657227h-4.0629883c-.8837891.0170898-1.699707.1020508-2.5498047.237793l-.4418945-.8837891c.7480469.0849609,1.4960938.1191406,2.2607422.1362305h4.7939453c0-.6123047-.0341797-1.3598633-.1191406-1.887207l1.0200195.1870117c.6118164-.5097656,1.3764648-1.1894531,1.9038086-1.7504883h-4.1308594c-.8837891.0170898-1.699707.1020508-2.5498047.237793l-.4589844-.8666992c.7480469.0849609,1.4960938.1186523,2.2607422.1357422h5.1337891l.3398438-.4077148Zm2.9238281-2.3457031c.1870117-.2041016.3227539-.4082031.4589844-.4082031.2036133,0,1.2749023,1.0708008,1.2749023,1.3256836-.1191406.1362305-.3061523.1533203-.6289062.1704102-.5439453.6289062-1.5131836,1.4448242-2.2441406,1.9204102l-.1699219-.1357422c.2890625-.5268555.7138672-1.3598633.9692383-2.0058594h-10.7773438c.0170898,1.1728516-.4248047,1.9545898-.9008789,2.3115234-.4077148.3232422-.9858398.3740234-1.1899414.0170898-.152832-.3740234.0512695-.7138672.3740234-.9345703.6972656-.4423828,1.2749023-1.6660156,1.15625-2.9750977l.2885742-.0166016c.1191406.4077148.2041016.7817383.2382812,1.121582h7.2919922c.1191406-.1870117.2553711-.3740234.3740234-.5776367.5952148-.9521484,1.1899414-2.277832,1.4277344-3.1958008,1.8530273.7138672,1.8530273.8837891,1.5302734.9858398l-.3232422.0849609c-.5947266.8500977-1.5297852,1.8867188-2.4819336,2.7026367h3.0087891l.3232422-.390625Zm-10.6411133-2.9580078c3.3486328,1.3261719,2.4306641,3.7568359,1.3427734,2.9067383-.1357422-.9179688-.8837891-2.1079102-1.5297852-2.7875977l.1870117-.1191406Zm3.6376953-.3056641c3.2128906,1.5634766,2.0908203,4.0454102,1.0371094,3.0595703-.0341797-.9692383-.6293945-2.1928711-1.2412109-2.940918l.2041016-.1186523Z"/>
        <path d="m544.0092349,418.4754926c.1870117-.2382812.3227539-.4931641.4589844-.4931641.2041016,0,1.2919922.9521484,1.2919922,1.2070312-.0512695.1870117-.2041016.2719727-.425293.2719727h-2.2944336v1.8525391c3.246582,1.5981445,2.3964844,3.824707,1.3764648,2.9916992-.1865234-.815918-.7988281-1.8525391-1.3764648-2.6005859v4.2495117c.0336914,2.0400391.0678711,2.7197266.1357422,3.9946289-.1357422.2382812-.5776367.4931641-.96875.4931641-.2041016,0-.3911133-.1699219-.3911133-.3398438.1020508-1.4619141.152832-2.2099609.1870117-4.4199219v-3.2294922c-.6459961,1.546875-1.5297852,2.9575195-2.668457,4.1645508l-.2382812-.2211914c1.3598633-1.9204102,2.2099609-4.4023438,2.6855469-6.9350586h-.7475586c-.4418945.0170898-.8500977.1020508-1.2578125.237793l-.425293-.8837891c.5952148.0849609,1.1899414.1191406,1.8017578.1357422h.8500977v-.7138672c0-1.1557617-.0678711-2.5498047-.2211914-3.484375,1.8359375.5439453,1.8359375.7138672,1.546875.9179688l-.2885742.1870117v3.0932617h.6459961l.3227539-.4755859Zm2.8217773,6.0170898c.1020508.1870117.0507812.3232422-.0512695.425293l-.7475586-.9008789c.4589844-.340332,1.2578125-1.0541992,1.699707-1.4960938l.237793-.730957.5610352.2382812-.4926758.6289062-.0170898.0336914c.3227539,1.1391602.8325195,2.1586914,1.4785156,3.0258789.1020508-.1699219.2041016-.3569336.3061523-.5268555.5268555-.9858398.9350586-2.362793.9858398-3.3149414,1.8017578.5439453,1.8017578.7138672,1.4790039.8330078l-.3061523.1020508c-.3911133,1.2919922-.9858398,2.5327148-1.8525391,3.6713867,1.2236328,1.3261719,2.7705078,2.2441406,4.4536133,2.7197266l-.0341797.2041016c-.4760742.1870117-.7480469.5610352-.8500977,1.0878906-1.6318359-.6796875-3.0253906-1.8188477-4.1132812-3.3657227-1.2583008,1.3598633-2.9916992,2.5327148-5.456543,3.3486328l-.1362305-.237793c2.3291016-.96875,3.9609375-2.3286133,5.0996094-3.909668-.5439453-.9350586-1.0029297-2.0229492-1.309082-3.2124023-.3056641.4755859-.6796875,1.0537109-.9345703,1.3764648Zm5.8300781-7.2583008c.1870117-.2548828.3232422-.5097656.4589844-.5097656.2041016,0,1.3261719.9858398,1.3261719,1.2407227-.0341797.1870117-.1870117.2719727-.4082031.2719727h-6.1704102c-.8837891.0170898-1.699707.1020508-2.5493164.2382812l-.425293-.8837891c.7480469.0849609,1.4960938.1186523,2.2607422.1357422h1.8188477c0-.9008789-.0507812-2.0400391-.1699219-2.7875977,1.7509766.5097656,1.7509766.6796875,1.4790039.8666992l-.2548828.1699219v1.7509766h2.2944336l.3398438-.4931641Zm-3.8754883,2.5332031l-.2890625.0507812c-.6625977.96875-1.8525391,2.1757812-3.1953125,2.9404297l-.1870117-.2207031c.2548828-.237793.5097656-.4931641.730957-.7651367.7138672-.8666992,1.3935547-2.1245117,1.5976562-3.0766602l.9008789.5610352c.7480469.2890625.7480469.4589844.4418945.5102539Zm1.8188477-.730957c4.3515625,1.4448242,3.824707,4.1132812,2.6005859,3.4165039-.4077148-1.0878906-1.7504883-2.4648438-2.7705078-3.2636719l.1699219-.152832Z"/>
        <path d="m556.4706607,430.5780317l-.4760742-.4755859,15.2983398-15.2988281.4760742.4760742-15.2983398,15.2983398Z"/>
        <path d="m575.6806216,424.8329145l-.2890625.1357422c-.4248047,1.4960938-1.0708008,3.0258789-1.8530273,4.0458984l-.237793-.1533203c.152832-.3569336.2890625-.7646484.4248047-1.1899414.3398438-1.0708008.6118164-2.668457.5952148-3.6035156l.9345703.3227539c.730957.1191406.730957.2890625.425293.4423828Zm2.8212891-2.9916992c-.2714844-.4760742-.5605469-.9521484-.8154297-1.309082l.1865234-.1191406c3.1450195,1.7001953,2.2441406,3.909668,1.2241211,3.0766602-.0512695-.390625-.2211914-.8325195-.4248047-1.2915039-.425293.1020508-.8671875.2036133-1.3598633.3056641v3.5019531c.0336914,2.0395508.0678711,2.7197266.1357422,3.9946289-.1357422.1870117-.4926758.4589844-1.0029297.4589844-.1699219,0-.3569336-.1704102-.3569336-.340332.1020508-1.4619141.152832-2.2094727.1870117-4.4194336v-2.9746094c-.6289062.1357422-1.3256836.2719727-2.0908203.4077148-.0849609.2041016-.237793.3232422-.4248047.340332l-.3398438-1.2749023c.390625,0,1.0029297-.0341797,1.7504883-.0849609.4418945-.6630859.9008789-1.4448242,1.3261719-2.2270508.5439453-.9858398,1.0878906-2.277832,1.3085938-3.1958008,1.699707.7143555,1.699707.8842773,1.3769531.9863281l-.3061523.1015625c-.7475586,1.2583008-1.9887695,2.9580078-3.1787109,4.3007812.8330078-.0678711,1.7851562-.152832,2.8046875-.237793Zm-3.484375-3.7568359c.4760742-1.0200195.8666992-2.3969727,1.0029297-3.3486328,1.7675781.6801758,1.7675781.8500977,1.4619141.9516602l-.2890625.1020508c-.5610352.9008789-1.1899414,1.8701172-1.8188477,2.5839844,1.2919922,1.0200195.7138672,2.2265625-.0678711,1.6826172-.2382812-.7817383-1.0371094-1.7504883-1.7167969-2.3115234l.152832-.152832c.5268555.152832.9350586.3398438,1.2578125.5439453,0-.0170898.0170898-.0341797.0170898-.0512695Zm3.1274414,6.0683594c2.855957,2.0229492,1.8530273,4.2666016.8842773,3.331543-.0849609-1.0195312-.6459961-2.3793945-1.1220703-3.2636719l.237793-.0678711Zm8.2446289-5.6264648l.2714844-.3740234c.1533203-.1870117.2724609-.3740234.4082031-.3740234.2041016,0,1.2236328.8500977,1.2236328,1.1049805-.1186523.1362305-.3227539.2382812-.6796875.2719727-.1357422,5.3544922-.4931641,9.4511719-1.309082,10.4541016-.4926758.5610352-1.1386719.815918-2.0053711.815918,0-.3569336-.0683594-.6630859-.340332-.8500977-.2885742-.2207031-1.1728516-.4077148-1.9375-.5605469l.0170898-.3061523c.8666992.1020508,2.3115234.2548828,2.7197266.2548828.390625,0,.5097656-.0678711.7138672-.2548828.6289062-.6289062.9345703-4.7255859,1.0878906-9.7060547h-4.9638672c-.5097656,1.0537109-1.1044922,1.9887695-1.7333984,2.7197266l-.2553711-.1699219c.4418945-.815918.8842773-1.8701172,1.2578125-3.0429688.3569336-1.0708008.6801758-2.7197266.6972656-3.6542969,1.8696289.5439453,1.8696289.7138672,1.5639648.8496094l-.2890625.1191406c-.2890625.9350586-.6289062,1.8530273-1.0029297,2.7026367h4.5556641Zm-4.6577148,2.7875977c3.6884766,1.9379883,2.6347656,4.7084961,1.5126953,3.7060547-.1020508-1.1899414-.9350586-2.6860352-1.699707-3.6040039l.1870117-.1020508Z"/>
        <path d="m596.0976138,421.9598676c.6289062-.1870117,1.2236328-.2890625,1.9208984-.2890625,2.3457031,0,3.9433594,1.3432617,3.9433594,3.7397461,0,2.3457031-1.6660156,3.9775391-4.2324219,3.9775391-1.8017578,0-3.0087891-.815918-3.3999023-2.4477539.1362305-.3740234.425293-.5605469.7993164-.5605469.4755859,0,.6796875.237793.9008789,1.0366211l.3398438,1.1049805c.4248047.1191406.815918.1870117,1.2578125.1870117,1.9208984,0,2.9746094-1.2241211,2.9746094-3.1279297,0-1.9716797-1.1728516-3.0253906-2.9746094-3.0253906-.6289062,0-1.2578125.0849609-1.8530273.2890625l-.4755859-.1020508.390625-5.5585938h5.9667969v1.2749023h-5.3037109l-.2548828,3.5014648Z"/>
        <path d="m611.6855044,425.4105512h-2.0058594v3.7397461h-1.2749023v-3.7397461h-5.1162109v-.7817383l5.5073242-7.5981445h.8837891v7.4282227h2.0058594v.9516602Zm-3.2807617-.9516602v-5.8305664l-4.1987305,5.8305664h4.1987305Z"/>
        <path d="m620.3212466,423.1839887c0,4.5385742-1.8359375,6.2041016-3.7568359,6.2041016-1.9375,0-3.7905273-1.6655273-3.7905273-6.2041016,0-4.5556641,1.8530273-6.2553711,3.7905273-6.2553711,1.9208984,0,3.7568359,1.699707,3.7568359,6.2553711Zm-3.7568359,5.5244141c1.1899414,0,2.3457031-1.2241211,2.3457031-5.5244141,0-4.3515625-1.1557617-5.5585938-2.3457031-5.5585938-1.2236328,0-2.362793,1.1899414-2.362793,5.5585938,0,4.3173828,1.1391602,5.5244141,2.362793,5.5244141Z"/>
        <path d="m637.795856,428.5555707v.5947266h-4.5214844v-.5947266l1.4790039-.1362305c.0166016-.96875.0336914-2.3286133.0336914-3.2636719v-1.8530273c0-1.784668-.7480469-2.4135742-1.8359375-2.4135742-.8154297,0-1.7167969.4418945-2.515625,1.3427734.0341797.2553711.0512695.5268555.0512695.815918v2.1079102c0,.9350586.0170898,2.2949219.0336914,3.2636719l1.4619141.1362305v.5947266h-4.4707031v-.5947266l1.4619141-.1362305c.0170898-.96875.0341797-2.3286133.0341797-3.2636719v-1.9545898c0-1.6831055-.730957-2.3120117-1.8530273-2.3120117-.8325195,0-1.7504883.5102539-2.4643555,1.4277344v2.8388672c0,.9179688.0166016,2.2949219.0336914,3.2636719l1.4960938.1362305v.5947266h-4.4707031v-.5947266l1.4448242-.1362305c.0170898-.96875.0341797-2.362793.0341797-3.2636719v-.96875c0-1.1899414-.0170898-2.1928711-.0512695-3.0766602l-1.4785156-.0341797v-.5439453l2.7026367-.5439453.2207031.1362305.0512695,1.5297852c.9008789-1.2412109,2.0058594-1.7680664,3.09375-1.7680664,1.2749023,0,2.1757812.5268555,2.5327148,1.7509766,1.0366211-1.2578125,2.0224609-1.7509766,3.1616211-1.7509766,1.8188477,0,2.8046875.9521484,2.8046875,3.3149414v1.9545898c0,.9350586.0170898,2.2949219.0341797,3.2636719l1.4956055.1362305Z"/>
      </g>
      <g>
        <path d="m481.9535708,65.7301313v6.1601562c-9.8388672,13.1755371-18.9931641,33.5378418-21.8168945,50.1357422h-7.7856445c2.5668945-15.9990234,12.5771484-37.7302246,21.6459961-49.7080078h-29.003418v-6.5878906h36.9599609Z"/>
        <g>
          <path d="m391.8031802,97.214018c1.097168-.7807617,3.5029297-2.722168,5.0854492-6.6472168l.949707.4641113c-.3588867.9074707-.8227539,2.0891113-2.2368164,4.072998v10.2980957h-1.1186523v-8.9055176c-1.0761719,1.1818848-1.5615234,1.4772949-2.2158203,1.8994141l-.4638672-1.1818848Zm5.2333984-10.5725098c-1.1186523,2.4267578-3.0600586,4.6638184-4.6640625,5.6767578l-.4853516-1.1396484c1.1606445-.822998,2.9125977-2.2790527,4.1787109-5.043457l.9707031.5063477Zm-.253418,17.8320312c1.8569336-1.7514648,3.0390625-3.9040527,3.2290039-8.5043945l1.1816406.1054688c-.0424805.5063477-.0844727.9916992-.2954102,2.5322266.3374023,1.0974121,1.2451172,3.3132324,3.25,4.2839355v-8.6943359h-6.1201172v-1.0129395h6.1201172v-3.3342285h-5.4448242v-1.0341797h5.4448242v-2.7854004h1.1391602v2.7854004h5.5922852v1.0341797h-5.5922852v3.3342285h6.1201172v1.0129395h-6.1201172v3.4187012h5.2758789v1.0129395h-5.2758789v4.7058105c.1269531.0212402,1.5195312.4221191,3.1235352.3798828l3.1865234-.0632324-.2744141,1.0974121h-3.2709961c-5.1069336,0-6.7739258-2.8068848-7.5336914-4.3261719-.6542969,2.6589355-2.2158203,4.2416992-2.8491211,4.8747559l-.8862305-.822998Z"/>
          <path d="m418.1737857,86.8314496v5.8244629h4.0942383v-6.5842285h1.1816406v2.2158203h7.5756836v1.076416h-7.5756836v3.2919922h9.0107422v1.0761719h-9.0107422v5.8244629c0,.8439941-.3164062,1.4772949-1.625,1.4772949h-2.8066406l-.2319336-1.2241211,2.8486328.0422363c.6333008,0,.6333008-.3164062.6333008-.6542969v-5.4655762h-9.1166992v-1.0761719h3.8408203v-5.8244629h1.1816406Zm-4.8325195,12.5561523c2.3637695-1.498291,3.7988281-2.9753418,4.9804688-4.494873l.8652344.6330566c-1.5195312,2.0048828-3.0810547,3.3977051-5.0649414,4.748291l-.7807617-.8864746Zm1.2661133,4.9382324c6.5844727-.2531738,10.3828125-2.2158203,13.2949219-5.6555176l.8862305.6962891c-1.0761719,1.3928223-4.4526367,5.6977539-13.8222656,6.0776367l-.3588867-1.1184082Zm12.894043-9.3276367c1.2871094,1.4562988,2.6801758,2.7224121,4.8745117,4.1362305l-.6538086,1.0129395c-1.9628906-1.3083496-3.4819336-2.6799316-5.0224609-4.494873l.8017578-.6542969Z"/>
        </g>
        <path d="m491.8852114,111.6615278c3.9038086-2.173584,5.6132812-5.3178711,6.6259766-7.8713379l1.203125.3376465c-1.0341797,2.5744629-2.8701172,5.9299316-7.0063477,8.5253906l-.8227539-.9916992Zm9.4326172,11.3955078l-.2319336-1.3083496,3.0810547.0632324c.8227539.0212402,1.4770508-.0209961,1.793457-1.0339355.2744141-.822998.8232422-3.5031738.9077148-8.2724609h-5.9301758c-.4638672,5.0437012-1.9833984,8.293457-8.1245117,10.4882812l-.5908203-1.0341797c5.6977539-1.9836426,7.1328125-4.8325195,7.4072266-9.4541016h-4.7060547v-1.097168h13.1894531c0,5.6342773-.7177734,9.1374512-1.1816406,10.192627-.5488281,1.2661133-1.456543,1.4560547-2.9335938,1.4560547h-2.6801758Zm3.5878906-19.2246094c1.0126953,2.046875,3.0175781,5.5922852,6.7949219,8.0612793l-.7597656.9284668c-3.8408203-2.722168-5.9296875-5.9509277-7.2802734-8.6311035l1.2451172-.3586426Z"/>
      </g>
      <g>
        <path d="m1024.8759341,430.083891l-.1699219-.2548828c3.6206055-2.0058594,6.3740234-6.1362305,6.9013672-12.1025391v-1.2749023h-1.2583008c-.7817383.0170898-1.5297852.1020508-2.2773438.237793l-.4423828-.8666992c.7480469.0849609,1.4960938.1186523,2.2612305.1357422h1.3764648l.6801758-1.0878906,1.8188477,1.394043c-.2548828.3227539-.8500977.5097656-1.6660156.5776367l.0170898.8330078c.5610352,5.3208008,3.0595703,9.2983398,7.6323242,11.2529297l-.0512695.2041016c-.5605469.0170898-.9008789.3398438-1.1557617.96875-2.7368164-1.5805664-5.609375-4.878418-6.340332-9.2299805-1.0537109,4.3173828-3.6035156,7.4453125-7.3261719,9.2128906Z"/>
        <path d="m1047.1962466,415.2445356c.1362305-.1699219.2382812-.3569336.3740234-.3569336.2041016,0,1.1557617.815918,1.1557617,1.0708008-.1020508.1191406-.3227539.2548828-.5947266.3061523v1.5297852c.0341797,1.5297852.0507812,2.0395508.1191406,2.9746094-.1362305.1870117-.6630859.4248047-1.0029297.4248047h-.1362305v-.7646484h-3.4335938v5.1162109c.0341797,2.0400391.0678711,2.7197266.1362305,3.9946289-.1362305.2382812-.4931641.5273438-.9692383.5273438-.2041016,0-.3911133-.1704102-.3911133-.340332.1020508-1.4619141.1533203-2.2094727.1870117-4.4194336v-6.8500977c0-1.15625-.0678711-2.5498047-.2207031-3.4848633l1.3427734.6289062h3.1958008l.237793-.3569336Zm-.0849609.8666992h-3.4335938v1.6318359h3.4335938v-1.6318359Zm-3.4335938,3.824707h3.4335938v-1.699707h-3.4335938v1.699707Zm3.4848633,8.3803711c0,.1020508-.425293.3569336-.8500977.3569336-.1699219,0-.2719727-.1699219-.2719727-.3398438.0507812-.6630859.0678711-.9858398.1020508-1.9887695v-1.1728516c0-1.15625-.0678711-2.5498047-.2211914-3.4848633l1.309082.6118164h3.7563477l.2382812-.3227539c.1357422-.152832.2207031-.3232422.3569336-.3232422.2041016,0,1.1728516.7143555,1.1728516.9692383-.1020508.1357422-.3232422.2719727-.5952148.3227539v1.7338867c.0341797,1.7338867.0512695,2.3115234.1191406,3.3657227-.1357422.2041016-.6630859.4760742-1.0029297.4760742-.152832,0-.2207031-.1699219-.2207031-.340332.0336914-.0849609.0336914-.1357422.0678711-.2719727v-.3056641h-3.9604492v.7138672Zm3.9604492-5.5415039h-3.9604492v1.8530273h3.9604492v-1.8530273Zm-3.9604492,4.3173828h3.9604492v-1.9545898h-3.9604492v1.9545898Zm3.9433594-6.2890625c0,.1020508-.4589844.3398438-.9008789.3398438-.1362305,0-.237793-.1699219-.237793-.3398438.0507812-.5439453.0678711-.8330078.1015625-1.6660156v-1.0200195c0-1.0029297-.0507812-2.2607422-.1865234-3.09375l1.2915039.578125h3.3320312l.237793-.3398438c.1357422-.1699219.2207031-.3569336.3569336-.3569336.2041016,0,1.3256836.815918,1.3256836,1.0708008-.1015625.1357422-.390625.2890625-.7138672.3569336v12.1030273c0,.9008789-.1699219,1.4785156-1.7167969,1.6484375-.0336914-.3569336-.1191406-.6625977-.3227539-.8325195-.2548828-.1870117-.6630859-.3232422-1.4111328-.4423828v-.2719727s1.6489258.1362305,2.0058594.1362305c.3061523,0,.4082031-.1020508.4082031-.3740234v-7.8701172h-3.5698242v.3740234Zm3.5698242-4.6918945h-3.5698242v1.6318359h3.5698242v-1.6318359Zm-3.5698242,3.824707h3.5698242v-1.699707h-3.5698242v1.699707Z"/>
        <path d="m1070.6557193,419.6473676c.1357422-.1870117.2207031-.3911133.3569336-.3911133.2041016,0,1.3256836.9179688,1.3256836,1.1728516-.1015625.1357422-.3569336.2890625-.6967773.3398438v5.7792969c0,.8500977-.2041016,1.4282227-1.784668,1.5639648-.0683594-.3227539-.1699219-.5947266-.3740234-.7646484-.2548828-.1870117-.7138672-.3574219-1.4960938-.4423828v-.2548828s1.7509766.1191406,2.1591797.1191406c.3227539,0,.4248047-.1020508.4248047-.3398438v-5.8813477h-3.8417969v4.8442383c.0341797,2.0400391.0683594,2.7197266.1362305,3.9946289-.1362305.2548828-.6459961.5610352-1.0371094.5610352-.2207031,0-.4077148-.1699219-.4077148-.3398438.1020508-1.4619141.152832-2.2099609.1870117-4.4199219v-4.6401367h-3.7910156v3.1782227c.0341797,2.0400391.0683594,2.7197266.1362305,3.9946289-.1362305.2041016-.5610352.4589844-1.0200195.4589844-.1870117,0-.3227539-.1699219-.3227539-.3398438.0678711-1.0537109.1020508-1.5805664.1357422-3.1787109v-1.7675781c0-1.15625-.0678711-2.5498047-.2207031-3.4848633l1.3769531.6289062h3.7055664v-2.515625h-3.9946289c-.8842773.0170898-1.7001953.1020508-2.5498047.237793l-.4418945-.8837891c.7475586.0849609,1.4956055.1191406,2.2607422.1362305h4.7255859c0-.8671875-.0512695-1.9038086-.1533203-2.6181641,1.8359375.5273438,1.8359375.6972656,1.546875.9013672l-.2719727.1865234v1.5302734h4.5385742l.3740234-.5273438c.2041016-.2719727.3740234-.5439453.5097656-.5439453.2041016,0,1.4960938,1.0541992,1.4960938,1.309082-.0512695.1870117-.2211914.2719727-.4418945.2719727h-6.7143555c.730957.3398438.730957.5097656.4760742.6967773l-.2382812.1699219v1.6489258h3.6889648l.237793-.390625Z"/>
        <path d="m1088.3017154,428.7411176l.3911133-.5439453c.2036133-.2719727.3735352-.5439453.5097656-.5439453.2041016,0,1.4956055,1.0541992,1.4956055,1.309082-.0507812.1870117-.2036133.2719727-.4418945.2719727h-11.6948242c-.8837891.0170898-1.699707.1020508-2.5498047.237793l-.4418945-.8666992c.7480469.0849609,1.4960938.1186523,2.2607422.1357422h6.1025391c.5947266-1.7509766,1.1899414-3.909668,1.6660156-5.9321289.237793-1.0878906.4589844-2.4140625.4589844-3.3486328,2.0224609.5268555,2.0224609.6967773,1.7167969.8496094l-.3061523.1362305c-.6801758,2.3286133-1.8696289,5.6943359-3.1616211,8.2949219h3.9946289Zm-.2211914-11.2358398c.2041016-.2719727.3569336-.5439453.4931641-.5439453.2041016,0,1.4956055,1.0371094,1.4956055,1.2919922-.0507812.1870117-.2207031.2719727-.4589844.2719727h-10.3515625c-.8842773.0170898-1.7001953.1020508-2.5498047.237793l-.425293-.8496094c.7480469.0849609,1.4960938.1186523,2.2607422.1357422h4.0629883v-.0849609c0-1.1557617-.0683594-2.5498047-.2211914-3.4848633,1.9038086.5273438,1.9038086.6972656,1.6147461.8842773l-.2890625.1870117v2.4985352h3.9946289l.3740234-.5439453Zm-9.0258789,2.277832c3.5356445,4.8613281,2.6347656,8.8901367,1.3427734,7.4794922.0678711-2.2949219-.815918-5.3208008-1.5976562-7.3945312l.2548828-.0849609Z"/>
        <path d="m1104.4179263,420.3099653c.2036133-.2719727.3735352-.5610352.5097656-.5610352.2041016,0,1.4448242,1.0712891,1.4448242,1.3261719-.0507812.1870117-.1870117.2719727-.4082031.2719727h-5.6943359v7.3432617h5.0146484l.3911133-.5439453c.2036133-.2719727.3740234-.5439453.5097656-.5439453.2041016,0,1.4960938,1.0708008,1.4960938,1.3256836-.0512695.1870117-.1870117.2719727-.425293.2719727h-11.6948242c-.8837891.0170898-1.699707.1020508-2.5498047.2382812l-.4418945-.8842773c.7480469.0849609,1.4960938.1191406,2.2607422.1362305h4.3349609v-10.6069336c0-1.1557617-.0683594-2.5498047-.2211914-3.4848633,1.9038086.5268555,1.9038086.6972656,1.6147461.9008789l-.2890625.1870117v5.1674805h3.7568359l.3911133-.5439453Z"/>
        <path d="m1122.8627505,422.2987348c.1699219-.2041016.2885742-.4248047.4248047-.4248047.2041016,0,1.2749023.815918,1.2749023,1.0708008-.0512695.1870117-.2041016.2719727-.4248047.2719727h-2.1928711c.815918.730957,1.784668,1.309082,2.8217773,1.6831055l-.0170898.1870117c-.4082031.0507812-.6801758.3398438-.8330078.8154297-1.2070312-.6289062-2.1928711-1.5297852-2.9238281-2.6855469h-3.1274414c-.4082031.578125-.8500977,1.0878906-1.3261719,1.546875,2.2607422.9350586,1.2583008,2.6176758.4760742,1.8359375-.0170898-.5439453-.3398438-1.2578125-.6630859-1.6831055-.5947266.5102539-1.2407227.9350586-1.9545898,1.2749023l-.0170898-.0166016v2.4472656c0,.8330078-.152832,1.3261719-1.3769531,1.4619141-.0336914-.2885742-.1015625-.5605469-.2548828-.7138672-.1699219-.152832-.4418945-.2719727-.96875-.3569336v-.2719727s1.0708008.1020508,1.3427734.1020508c.2211914,0,.2890625-.1020508.2890625-.3227539v-3.3149414h-1.7509766c-.1699219,1.7167969-.6289062,3.4848633-1.8525391,4.8276367l-.2211914-.1870117c1.1391602-2.0737305,1.2070312-4.7084961,1.2070312-7.2075195v-2.3115234c0-.7817383-.0512695-1.7338867-.1533203-2.3969727l1.2919922.6123047h1.3261719l.2207031-.3232422c.1362305-.1699219.2211914-.3398438.3569336-.3398438.2041016,0,1.2749023.7817383,1.2749023,1.0371094-.1191406.1186523-.3911133.2719727-.730957.3227539v6.5952148c.96875-.6796875,1.8017578-1.546875,2.515625-2.6176758h-.6967773c-.4077148.0170898-.7817383.1020508-1.1557617.2382812l-.4418945-.8671875c.5776367.0849609,1.1557617.1191406,1.7675781.1362305h.815918c.2890625-.5102539.5610352-1.0541992.7822266-1.6318359h-.8671875c-.5439453.0166016-1.0537109.1015625-1.5639648.237793l-.4248047-.8500977c.6801758.0849609,1.3598633.1191406,2.0737305.1362305h.9692383c.2719727-.815918.4926758-1.699707.6455078-2.6689453l.1020508.0170898v-1.2749023h-3.5527344v.3740234c.0341797.3569336.0170898.4760742.0512695.6289062-.0512695.2041016-.4589844.3740234-.9008789.3740234-.1699219,0-.2382812-.1699219-.2382812-.3398438.0341797-.1870117.0341797-.2890625.0683594-.578125v-.4589844h-1.8017578c-.8842773.0170898-1.7001953.1020508-2.5498047.2382812l-.3911133-.8671875c.7480469.0849609,1.4960938.1191406,2.2607422.1362305h2.4819336c0-.578125-.0341797-1.309082-.1020508-1.8188477,1.7167969.5097656,1.7167969.6796875,1.4106445.8666992l-.2890625.1870117v.7651367h3.5527344c0-.578125-.0336914-1.309082-.1020508-1.8188477,1.7338867.5097656,1.7338867.6796875,1.4282227.8666992l-.2890625.1870117v.7651367h2.5498047l.3398438-.4931641c.1870117-.237793.3227539-.4931641.4589844-.4931641.2041016,0,1.3256836.9521484,1.3256836,1.2070312-.0336914.1870117-.1870117.2719727-.4077148.2719727h-4.2666016v1.0200195c0,.1020508-.3232422.2890625-.815918.3227539,1.2407227.2211914,1.2407227.3911133.9350586.5439453l-.2890625.1362305c-.1699219.6796875-.3398438,1.3085938-.578125,1.9038086h2.9580078l.3056641-.4082031c.1699219-.2036133.2890625-.4248047.4248047-.4248047.2041016,0,1.2070312.7988281,1.2070312,1.0537109-.0507812.1699219-.1870117.2553711-.4248047.2553711h-3.3149414c.3061523.5947266.6801758,1.1386719,1.1220703,1.6318359h1.0878906l.3061523-.425293Zm-11.1171875.3232422c0,.6625977,0,1.3598633-.0507812,2.0908203h1.7167969v-2.6689453h-1.6660156v.578125Zm1.6660156-3.5869141h-1.6660156v2.515625h1.6660156v-2.515625Zm1.6489258,9.1962891c.6625977-.2041016,2.1416016-.7480469,3.5693359-1.3261719l.0849609.2211914c-.5776367.4248047-1.4614258,1.0708008-2.6176758,1.8530273-.0170898.1865234-.1357422.3569336-.2890625.390625l-.3735352-.5610352-.3740234-.5776367Zm.96875-10.1650391c2.4819336,1.0708008,1.4956055,2.9067383.6459961,2.1079102-.0341797-.6459961-.4418945-1.5131836-.8330078-2.0058594l.1870117-.1020508Zm6.7143555,11.2866211c-.5268555-.8496094-1.8696289-1.8188477-2.940918-2.3964844v1.699707c0,.8330078-.1357422,1.2919922-1.3427734,1.4277344-.0336914-.2719727-.1020508-.5268555-.2548828-.6796875-.1870117-.1362305-.4760742-.2548828-1.0029297-.3232422v-.2719727s1.1220703.1020508,1.3769531.1020508c.2207031,0,.2890625-.0849609.2890625-.3056641v-2.5839844c0-.8837891-.0512695-1.9375-.1699219-2.668457,1.6484375.5097656,1.6484375.6796875,1.3764648.8496094l-.2719727.1533203v2.3115234c.2382812.0341797.4589844.0849609.6972656.1362305.3740234-.7143555.730957-1.7001953.8666992-2.3969727,1.4111328.7480469,1.4111328.9179688,1.1391602.9858398l-.2719727.0512695c-.340332.390625-.9013672.96875-1.4619141,1.4448242,3.2973633.9179688,3.0595703,2.9067383,1.9716797,2.4643555Zm-2.7705078-8.2607422h-.9521484c-.2548828.5947266-.5268555,1.1386719-.815918,1.6318359h2.4648438c-.2719727-.5102539-.4931641-1.0541992-.6967773-1.6318359Zm2.8212891-2.2949219l-.3056641.1020508c-.4589844.6118164-1.0371094,1.2578125-1.546875,1.6826172l-.2548828-.1699219c.390625-.7480469.7138672-1.8017578.8496094-2.515625l.8330078.4248047c.730957.2041016.730957.3740234.4248047.4760742Z"/>
        <path d="m1126.7909732,418.5423871c3.484375.4248047,2.8725586,2.8896484,1.699707,2.2265625-.2719727-.7480469-1.1220703-1.5976562-1.8525391-2.0566406l.152832-.1699219Zm.8837891,6.6123047c.2041016,0,.2548828-.0170898.4418945-.3569336q.3061523-.5952148,3.5869141-7.3432617l.2885742.1020508c-.8325195,2.0908203-2.4477539,6.0341797-2.6855469,6.815918-.1870117.5273438-.2890625,1.0371094-.2890625,1.4790039,0,.730957.4760742,1.4960938.4082031,2.8725586-.0341797.730957-.340332,1.15625-.9179688,1.15625-.3061523,0-.4760742-.3061523-.5102539-.8500977.2211914-1.7338867.1191406-3.0258789-.237793-3.2807617-.2548828-.1699219-.4926758-.2041016-.8500977-.237793v-.3569336h.7651367Zm.4418945-10.4370117c3.5698242.5610352,2.940918,3.09375,1.7338867,2.4135742-.2890625-.7988281-1.1728516-1.7504883-1.8867188-2.2436523l.152832-.1699219Zm11.2358398.6796875c.1533203-.1870117.2719727-.390625.4082031-.390625.2036133,0,1.2407227.9008789,1.2407227,1.1557617-.1020508.1357422-.3740234.2719727-.7138672.3398438v1.9716797c.0341797,1.9550781.0678711,2.6181641.1357422,3.824707-.152832.2041016-.6625977.4589844-1.0195312.4589844-.1533203,0-.2211914-.1699219-.2211914-.3398438.0341797-.1191406.0341797-.1870117.0678711-.3911133v-.3740234h-2.4306641c.6972656,3.4506836,2.4819336,6.0175781,5.0317383,7.3774414l-.0512695.152832c-.4589844.0341797-.8330078.340332-1.0366211.8500977-2.362793-1.7338867-3.7226562-4.5043945-4.3007812-8.3803711h-2.7875977c-.1191406,2.8901367-.7651367,6.1025391-3.5356445,8.3974609l-.237793-.2041016c2.3964844-2.7539062,2.7875977-6.1704102,2.7875977-9.6210938v-2.515625c0-.8500977-.0512695-1.8867188-.1533203-2.6005859l1.394043.6796875h5.1503906l.2719727-.3911133Zm-.1020508,5.7456055v-4.8613281h-5.5410156v3.9262695c0,.3061523,0,.6123047-.0170898.9350586h5.5581055Z"/>
        <path d="m1156.2675357,418.0834028l.2719727-.3569336c.1533203-.1699219.2548828-.3569336.3911133-.3569336.2041016,0,1.2919922.8325195,1.2919922,1.0878906-.1020508.1357422-.3569336.2719727-.6972656.3398438v1.9545898c.0341797,1.9379883.0683594,2.5839844.1362305,3.7910156-.1533203.1865234-.6972656.4418945-1.0541992.4418945-.1870117,0-.2548828-.1704102-.2548828-.340332.0341797-.1870117.0341797-.2885742.0678711-.5947266v-.4760742h-4.7421875v2.0229492c.0336914,2.0229492.0678711,2.6855469.1357422,3.9433594-.1357422.2553711-.6118164.5439453-1.0195312.5439453-.2211914,0-.3911133-.1699219-.3911133-.3398438.0849609-1.3256836.1357422-1.9887695.1699219-3.9946289v-2.1757812h-4.7426758v.4082031c.0341797.4077148.0341797.5439453.0683594.730957-.0683594.2036133-.5102539.4589844-.9692383.4589844-.152832,0-.2719727-.1704102-.2719727-.340332.0683594-.8325195.0849609-1.2407227.1191406-2.4985352v-1.4277344c0-1.15625-.0678711-2.5498047-.2211914-3.4848633l1.394043.6630859h4.6235352v-.1870117c0-1.1557617-.0678711-2.5498047-.2211914-3.4848633,1.9038086.5439453,1.9038086.7138672,1.6152344.9179688l-.2890625.1870117v2.5668945h4.5893555Zm-10.4370117,4.9804688h4.7426758v-4.487793h-4.7426758v4.487793Zm5.8476562,0h4.7421875v-4.487793h-4.7421875v4.487793Z"/>
        <path d="m1171.1088443,420.0892621c.1870117-.2041016.3227539-.4082031.4589844-.4082031.2041016,0,1.1220703,1.0541992,1.1220703,1.309082-.1362305.1186523-.340332.152832-.6972656.1699219-.6459961.5268555-1.7675781,1.1557617-2.7368164,1.6489258l.1020508.0166016c-.0336914.2382812-.1870117.3740234-.5439453.425293v1.1899414h4.5048828l.3740234-.5273438c.2036133-.2719727.3735352-.5439453.5097656-.5439453.2041016,0,1.4448242,1.0541992,1.4448242,1.309082-.0512695.1870117-.2041016.2719727-.4248047.2719727h-6.4086914v3.4506836c0,.9516602-.2036133,1.5297852-1.9375,1.699707-.0683594-.3569336-.1699219-.6459961-.4589844-.8330078s-.7988281-.3398438-1.7001953-.4755859v-.2553711s2.1591797.1533203,2.5668945.1533203c.3232422,0,.425293-.0849609.425293-.3740234v-3.3657227h-4.0629883c-.8837891.0170898-1.699707.1020508-2.5498047.237793l-.4418945-.8837891c.7480469.0849609,1.4960938.1191406,2.2607422.1362305h4.7939453c0-.6123047-.0341797-1.3598633-.1191406-1.887207l1.0200195.1870117c.6118164-.5097656,1.3764648-1.1899414,1.9038086-1.7504883h-4.1308594c-.8837891.0166016-1.699707.1020508-2.5498047.237793l-.4589844-.8666992c.7480469.0849609,1.4960938.1186523,2.2607422.1357422h5.1337891l.3398438-.4077148Zm2.9238281-2.3461914c.1870117-.2036133.3227539-.4077148.4589844-.4077148.2036133,0,1.2749023,1.0708008,1.2749023,1.3256836-.1191406.1362305-.3061523.1533203-.6289062.1699219-.5439453.6293945-1.5131836,1.4453125-2.2441406,1.9208984l-.1699219-.1357422c.2890625-.5268555.7138672-1.3598633.9692383-2.0058594h-10.7773438c.0170898,1.1728516-.4248047,1.9545898-.9008789,2.3115234-.4077148.3232422-.9858398.3740234-1.1899414.0170898-.152832-.3740234.0512695-.7138672.3740234-.9345703.6972656-.4423828,1.2749023-1.6660156,1.15625-2.9750977l.2885742-.0166016c.1191406.4077148.2041016.7817383.2382812,1.121582h7.2919922c.1191406-.1870117.2553711-.3740234.3740234-.5776367.5952148-.9521484,1.1899414-2.277832,1.4277344-3.1958008,1.8530273.7138672,1.8530273.8837891,1.5302734.9858398l-.3232422.0849609c-.5947266.8500977-1.5297852,1.8867188-2.4819336,2.7026367h3.0087891l.3232422-.3911133Zm-10.6411133-2.9575195c3.3486328,1.3256836,2.4306641,3.7568359,1.3427734,2.9067383-.1357422-.9179688-.8837891-2.1079102-1.5297852-2.7875977l.1870117-.1191406Zm3.6376953-.3061523c3.2128906,1.5639648,2.0908203,4.0458984,1.0371094,3.0600586-.0341797-.9692383-.6293945-2.1928711-1.2412109-2.940918l.2041016-.1191406Z"/>
        <path d="m1182.3124575,418.0834028c.1870117-.2382812.3227539-.4931641.4589844-.4931641.2041016,0,1.2919922.9521484,1.2919922,1.2070312-.0512695.1870117-.2041016.2719727-.425293.2719727h-2.2944336v1.8525391c3.246582,1.5981445,2.3964844,3.824707,1.3764648,2.9916992-.1865234-.815918-.7988281-1.8525391-1.3764648-2.6005859v4.2495117c.0336914,2.0400391.0678711,2.7197266.1357422,3.9946289-.1357422.2382812-.5776367.4931641-.96875.4931641-.2041016,0-.3911133-.1699219-.3911133-.340332.1020508-1.4614258.152832-2.2094727.1870117-4.4194336v-3.2294922c-.6459961,1.546875-1.5297852,2.9575195-2.668457,4.1645508l-.2382812-.2211914c1.3598633-1.9204102,2.2099609-4.4023438,2.6855469-6.9350586h-.7475586c-.4418945.0170898-.8500977.1020508-1.2578125.237793l-.425293-.8837891c.5952148.0849609,1.1899414.1191406,1.8017578.1362305h.8500977v-.7143555c0-1.1557617-.0678711-2.5493164-.2211914-3.484375,1.8359375.5439453,1.8359375.7138672,1.546875.9179688l-.2885742.1870117v3.09375h.6459961l.3227539-.4760742Zm2.8217773,6.0170898c.1020508.1870117.0507812.3232422-.0512695.425293l-.7475586-.9008789c.4589844-.340332,1.2578125-1.0541992,1.699707-1.4960938l.237793-.730957.5610352.2382812-.4926758.6289062-.0170898.0336914c.3227539,1.1391602.8325195,2.1586914,1.4785156,3.0258789.1020508-.1699219.2041016-.3569336.3061523-.5268555.5268555-.9858398.9350586-2.362793.9858398-3.3149414,1.8017578.5439453,1.8017578.7138672,1.4790039.8330078l-.3061523.1020508c-.3911133,1.2919922-.9858398,2.5327148-1.8525391,3.6713867,1.2236328,1.3261719,2.7705078,2.2441406,4.4536133,2.7197266l-.0341797.2041016c-.4760742.1870117-.7480469.5610352-.8500977,1.0878906-1.6318359-.6796875-3.0253906-1.8188477-4.1132812-3.3657227-1.2583008,1.3598633-2.9916992,2.5327148-5.456543,3.3486328l-.1362305-.237793c2.3291016-.96875,3.9609375-2.3286133,5.0996094-3.909668-.5439453-.9350586-1.0029297-2.0229492-1.309082-3.2124023-.3056641.4755859-.6796875,1.0537109-.9345703,1.3764648Zm5.8300781-7.2583008c.1870117-.2548828.3232422-.5097656.4589844-.5097656.2041016,0,1.3261719.9858398,1.3261719,1.2407227-.0341797.1870117-.1870117.2719727-.4082031.2719727h-6.1704102c-.8837891.0170898-1.699707.1020508-2.5493164.2382812l-.425293-.8842773c.7480469.0854492,1.4960938.1191406,2.2607422.1362305h1.8188477c0-.9008789-.0507812-2.0395508-.1699219-2.7875977,1.7509766.5097656,1.7509766.6796875,1.4790039.8666992l-.2548828.1699219v1.7509766h2.2944336l.3398438-.4931641Zm-3.8754883,2.5327148l-.2890625.0512695c-.6625977.96875-1.8525391,2.1757812-3.1953125,2.940918l-.1870117-.2211914c.2548828-.237793.5097656-.4931641.730957-.7651367.7138672-.8666992,1.3935547-2.1245117,1.5976562-3.0766602l.9008789.5610352c.7480469.2890625.7480469.4589844.4418945.5097656Zm1.8188477-.7304688c4.3515625,1.4448242,3.824707,4.1132812,2.6005859,3.4165039-.4077148-1.0878906-1.7504883-2.4648438-2.7705078-3.2636719l.1699219-.152832Z"/>
        <path d="m1194.7738833,430.1859418l-.4760742-.4760742,15.2983398-15.2983398.4760742.4760742-15.2983398,15.2983398Z"/>
        <path d="m1213.9838443,424.4408246l-.2890625.1357422c-.4248047,1.4960938-1.0708008,3.0258789-1.8530273,4.0454102l-.237793-.152832c.152832-.3569336.2890625-.7646484.4248047-1.1899414.3398438-1.0708008.6118164-2.668457.5952148-3.6035156l.9345703.3232422c.730957.1186523.730957.2885742.425293.4418945Zm2.8212891-2.9916992c-.2714844-.4760742-.5605469-.9521484-.8154297-1.309082l.1865234-.1191406c3.1450195,1.7001953,2.2441406,3.909668,1.2241211,3.0766602-.0512695-.390625-.2211914-.8325195-.4248047-1.2915039-.425293.1020508-.8671875.2036133-1.3598633.3056641v3.5019531c.0336914,2.0395508.0678711,2.7197266.1357422,3.9946289-.1357422.1870117-.4926758.4589844-1.0029297.4589844-.1699219,0-.3569336-.1704102-.3569336-.340332.1020508-1.4619141.152832-2.2094727.1870117-4.4194336v-2.9746094c-.6289062.1357422-1.3256836.2719727-2.0908203.4077148-.0849609.2041016-.237793.3232422-.4248047.340332l-.3398438-1.2749023c.390625,0,1.0029297-.0341797,1.7504883-.0849609.4418945-.6630859.9008789-1.4448242,1.3261719-2.2270508.5439453-.9858398,1.0878906-2.277832,1.3085938-3.1958008,1.699707.7143555,1.699707.8842773,1.3769531.9863281l-.3061523.1015625c-.7475586,1.2583008-1.9887695,2.9580078-3.1787109,4.3007812.8330078-.0678711,1.7851562-.152832,2.8046875-.237793Zm-3.484375-3.7568359c.4760742-1.0200195.8666992-2.3964844,1.0029297-3.3486328,1.7675781.6796875,1.7675781.8500977,1.4619141.9521484l-.2890625.1015625c-.5610352.9008789-1.1899414,1.8701172-1.8188477,2.5839844,1.2919922,1.0200195.7138672,2.2265625-.0678711,1.6826172-.2382812-.7817383-1.0371094-1.7504883-1.7167969-2.3115234l.152832-.1533203c.5268555.1533203.9350586.340332,1.2578125.5439453,0-.0166016.0170898-.0336914.0170898-.0507812Zm3.1274414,6.0683594c2.855957,2.0229492,1.8530273,4.2666016.8842773,3.331543-.0849609-1.0195312-.6459961-2.3793945-1.1220703-3.2636719l.237793-.0678711Zm8.2446289-5.6264648l.2714844-.3740234c.1533203-.1870117.2724609-.3740234.4082031-.3740234.2041016,0,1.2236328.8500977,1.2236328,1.1049805-.1186523.1362305-.3227539.2382812-.6796875.2719727-.1357422,5.3544922-.4931641,9.4511719-1.309082,10.4541016-.4926758.5610352-1.1386719.815918-2.0053711.815918,0-.3569336-.0683594-.6630859-.340332-.8500977-.2885742-.2207031-1.1728516-.4077148-1.9375-.5610352l.0170898-.3056641c.8666992.1020508,2.3115234.2548828,2.7197266.2548828.390625,0,.5097656-.0678711.7138672-.2548828.6289062-.6289062.9345703-4.7255859,1.0878906-9.7060547h-4.9638672c-.5097656,1.0537109-1.1044922,1.9887695-1.7333984,2.7197266l-.2553711-.1699219c.4418945-.815918.8842773-1.8701172,1.2578125-3.0429688.3569336-1.0708008.6801758-2.7197266.6972656-3.6542969,1.8696289.5439453,1.8696289.7138672,1.5639648.8496094l-.2890625.1191406c-.2890625.9350586-.6289062,1.8530273-1.0029297,2.7026367h4.5556641Zm-4.6577148,2.7875977c3.6884766,1.9379883,2.6347656,4.7089844,1.5126953,3.7060547-.1020508-1.1899414-.9350586-2.6860352-1.699707-3.6040039l.1870117-.1020508Z"/>
        <path d="m1240.2650943,416.7914106v.7817383l-4.4194336,11.1850586h-1.2407227l-.1704102-.1699219,4.8618164-10.5219727h-6.4594727v-1.2749023h7.4282227Z"/>
        <path d="m1249.0199771,416.9955121c-3.5869141.815918-5.3886719,2.7875977-5.6948242,5.7285156.7993164-.8330078,1.7851562-1.2749023,2.8217773-1.2749023,1.9887695,0,3.3486328,1.3935547,3.3486328,3.6206055,0,2.4814453-1.5634766,3.9262695-3.7055664,3.9262695-2.4135742,0-3.8925781-1.9204102-3.8925781-5.1333008,0-3.6376953,2.515625-6.7822266,7.0375977-7.3261719l.0849609.4589844Zm-5.7456055,6.6630859c0,3.0429688.9516602,4.6577148,2.5498047,4.6577148,1.3598633,0,2.2949219-1.0537109,2.2949219-3.0766602,0-1.9887695-.9179688-2.8896484-2.2949219-2.8896484-.8671875,0-1.7680664.2548828-2.5498047,1.0195312v.2890625Z"/>
        <path d="m1258.6244693,422.7918989c0,4.5385742-1.8359375,6.2041016-3.7568359,6.2041016-1.9375,0-3.7905273-1.6655273-3.7905273-6.2041016,0-4.5556641,1.8530273-6.2553711,3.7905273-6.2553711,1.9208984,0,3.7568359,1.699707,3.7568359,6.2553711Zm-3.7568359,5.5244141c1.1899414,0,2.3457031-1.2241211,2.3457031-5.5244141,0-4.3515625-1.1557617-5.5585938-2.3457031-5.5585938-1.2236328,0-2.362793,1.1899414-2.362793,5.5585938,0,4.3173828,1.1391602,5.5244141,2.362793,5.5244141Z"/>
        <path d="m1276.0990786,428.1634809v.5947266h-4.5214844v-.5947266l1.4790039-.1362305c.0166016-.96875.0336914-2.3286133.0336914-3.2636719v-1.8525391c0-1.7851562-.7480469-2.4140625-1.8359375-2.4140625-.8154297,0-1.7167969.4418945-2.515625,1.3427734.0341797.2548828.0512695.5273438.0512695.815918v2.1079102c0,.9350586.0170898,2.2949219.0336914,3.2636719l1.4619141.1362305v.5947266h-4.4707031v-.5947266l1.4619141-.1362305c.0170898-.96875.0341797-2.3286133.0341797-3.2636719v-1.9545898c0-1.6831055-.730957-2.3120117-1.8530273-2.3120117-.8325195,0-1.7504883.5097656-2.4643555,1.4277344v2.8388672c0,.9179688.0166016,2.2949219.0336914,3.2636719l1.4960938.1362305v.5947266h-4.4707031v-.5947266l1.4448242-.1362305c.0170898-.96875.0341797-2.362793.0341797-3.2636719v-.96875c0-1.1899414-.0170898-2.1928711-.0512695-3.0766602l-1.4785156-.0341797v-.5439453l2.7026367-.5439453.2207031.1362305.0512695,1.5297852c.9008789-1.2412109,2.0058594-1.7680664,3.09375-1.7680664,1.2749023,0,2.1757812.5268555,2.5327148,1.7509766,1.0366211-1.2578125,2.0224609-1.7509766,3.1616211-1.7509766,1.8188477,0,2.8046875.9521484,2.8046875,3.3149414v1.9545898c0,.9350586.0170898,2.2949219.0341797,3.2636719l1.4956055.1362305Z"/>
      </g>
      <g>
        <g>
          <path d="m1067.9193911,118.1271039v-47.0424805c-2.7216797,1.956543-8.4213867,4.253418-11.5688477,4.848877v-6.0397949c4.3383789-1.190918,9.7827148-4.3383789,13.6108398-7.9963379h5.6142578v56.2297363h-7.65625Z"/>
          <path d="m1127.210895,89.7145063c0,13.8659668-3.9130859,29.4333496-19.5654297,29.4333496-15.3120117,0-19.5654297-14.5466309-19.5654297-29.0080566,0-14.3764648,4.6787109-29.0080566,19.8208008-29.0080566,15.0566406,0,19.3100586,14.2912598,19.3100586,28.5827637Zm-31.2197266.425293c0,10.6335449,1.871582,22.6279297,11.7392578,22.6279297,9.8681641,0,11.6542969-11.3989258,11.6542969-22.9682617,0-10.8034668-1.871582-22.2875977-11.3989258-22.2875977-9.7827148,0-11.9946289,10.2932129-11.9946289,22.6279297Z"/>
        </g>
        <g>
          <path d="m1009.9872622,95.9928266c1.0908203-.776123,3.4829102-2.706543,5.0566406-6.6088867l.9438477.4616699c-.3564453.9020996-.8183594,2.0771484-2.2241211,4.0493164v10.2385254h-1.1118164v-8.8537598c-1.0698242,1.1748047-1.5527344,1.4685059-2.203125,1.8881836l-.4614258-1.1750488Zm5.203125-10.5112305c-1.1118164,2.4128418-3.0419922,4.6367188-4.6367188,5.6437988l-.4824219-1.1330566c1.1538086-.8181152,2.8955078-2.2658691,4.1542969-5.0144043l.9648438.5036621Zm-.2514648,17.7287598c1.8461914-1.7414551,3.0209961-3.8815918,3.2099609-8.4553223l1.1748047.1049805c-.0419922.503418-.0839844.986084-.293457,2.5175781.3354492,1.0910645,1.237793,3.2939453,3.230957,4.2592773v-8.6442871h-6.0844727v-1.0070801h6.0844727v-3.3149414h-5.4130859v-1.0280762h5.4130859v-2.7695312h1.1328125v2.7695312h5.5600586v1.0280762h-5.5600586v3.3149414h6.0844727v1.0070801h-6.0844727v3.3989258h5.2451172v1.0070801h-5.2451172v4.6787109c.1259766.0209961,1.5107422.4196777,3.1049805.3776855l3.168457-.0629883-.2729492,1.0910645h-3.2519531c-5.0771484,0-6.7348633-2.7905273-7.4902344-4.3010254-.6503906,2.6435547-2.203125,4.217041-2.8325195,4.8464355l-.8808594-.8181152Z"/>
          <path d="m1036.2074771,85.6703168v5.7907715h4.0703125v-6.5461426h1.1748047v2.203125h7.5322266v1.0700684h-7.5322266v3.2729492h8.9589844v1.0700684h-8.9589844v5.7905273c0,.8393555-.3144531,1.46875-1.6152344,1.46875h-2.7905273l-.230957-1.2167969,2.8325195.0419922c.6293945,0,.6293945-.3149414.6293945-.6503906v-5.434082h-9.0634766v-1.0700684h3.8183594v-5.7907715h1.1748047Zm-4.8046875,12.4836426c2.3500977-1.4897461,3.7768555-2.958252,4.9516602-4.4689941l.8603516.6293945c-1.5107422,1.9931641-3.0634766,3.3779297-5.0356445,4.7207031l-.7763672-.8811035Zm1.2592773,4.9094238c6.5458984-.251709,10.3222656-2.2028809,13.2177734-5.6228027l.8813477.6923828c-1.0703125,1.3847656-4.4272461,5.6647949-13.7426758,6.0424805l-.3564453-1.1120605Zm12.8188477-9.2734375c1.2802734,1.4477539,2.6645508,2.706543,4.8466797,4.1123047l-.6503906,1.0070801c-1.9511719-1.3007812-3.4619141-2.6645508-4.9931641-4.4689941l.796875-.6503906Z"/>
        </g>
        <path d="m1136.436481,108.4349653c3.8813477-2.1611328,5.5810547-5.2871094,6.5878906-7.8259277l1.1958008.3356934c-1.027832,2.5598145-2.8530273,5.895752-6.965332,8.4763184l-.8183594-.986084Zm9.378418,11.3295898l-.230957-1.3007812,3.0634766.0629883c.8183594.0209961,1.46875-.0209961,1.7832031-1.0280762.2729492-.8183594.8183594-3.4829102.9023438-8.2246094h-5.8955078c-.4619141,5.0144043-1.972168,8.2456055-8.0776367,10.4274902l-.5874023-1.0280762c5.6645508-1.972168,7.0913086-4.8044434,7.3642578-9.3994141h-4.6787109v-1.0908203h13.112793c0,5.6018066-.7133789,9.0847168-1.1748047,10.1335449-.5454102,1.2590332-1.4477539,1.4477539-2.9165039,1.4477539h-2.6645508Zm3.5668945-19.1135254c1.0068359,2.0351562,3,5.5598145,6.7558594,8.0146484l-.7553711.9230957c-3.8183594-2.706543-5.8955078-5.9165039-7.2382812-8.5810547l1.237793-.3566895Z"/>
      </g>
    </g>
  </g>
</svg>